G04*
G04 #@! TF.GenerationSoftware,Altium Limited,Altium Designer,19.0.4 (130)*
G04*
G04 Layer_Color=32896*
%FSLAX25Y25*%
%MOIN*%
G70*
G01*
G75*
%ADD10C,0.00984*%
%ADD12C,0.00394*%
%ADD13C,0.00787*%
%ADD15C,0.01000*%
%ADD16C,0.00700*%
%ADD80C,0.00591*%
%ADD114C,0.00701*%
D10*
X217028Y190551D02*
G03*
X217028Y190551I-492J0D01*
G01*
X72146Y140059D02*
G03*
X72146Y140059I-492J0D01*
G01*
D12*
X278582Y190945D02*
G03*
X278976Y190945I197J0D01*
G01*
D02*
G03*
X278582Y190945I-197J0D01*
G01*
X69497Y119575D02*
G03*
X69497Y119575I-197J0D01*
G01*
Y95953D02*
G03*
X69497Y95953I-197J0D01*
G01*
X69969Y72331D02*
G03*
X69969Y72331I-197J0D01*
G01*
X268346Y196850D02*
Y197638D01*
X273857Y192323D02*
X275432D01*
X273857Y202165D02*
X275432D01*
X280944Y196850D02*
Y197638D01*
D13*
X205709Y184449D02*
X208465D01*
X205709Y188779D02*
X208465D01*
X253297Y224803D02*
X256052D01*
X253297Y220472D02*
X256052D01*
X91535Y42323D02*
X92126Y42913D01*
Y48031D01*
X90945Y69685D02*
X92520Y68110D01*
X90945Y69685D02*
Y73228D01*
X100689Y129035D02*
X105413D01*
X100689Y134744D02*
X105413D01*
X50984Y125984D02*
Y128248D01*
X69095Y125984D02*
Y128248D01*
X50984Y139469D02*
Y141732D01*
X69095Y139469D02*
Y141732D01*
X50984Y125984D02*
X69095D01*
X50984Y141732D02*
X69095D01*
X66535Y50984D02*
X66929D01*
X66535Y53347D02*
X66929D01*
X66535Y46063D02*
X66929D01*
X66535Y48425D02*
X66929D01*
X197244Y84252D02*
Y87008D01*
X192913Y84252D02*
Y87008D01*
D15*
X255844Y132874D02*
X259842D01*
X255844Y136873D01*
Y137872D01*
X256843Y138872D01*
X258843D01*
X259842Y137872D01*
Y166339D02*
X257843D01*
X258843D01*
Y172337D01*
X259842Y171337D01*
D16*
X293465Y148348D02*
Y151847D01*
X291715D01*
X291132Y151264D01*
Y150098D01*
X291715Y149515D01*
X293465D01*
X289966Y151264D02*
X289383Y151847D01*
X288216D01*
X287633Y151264D01*
Y150681D01*
X288216Y150098D01*
X288799D01*
X288216D01*
X287633Y149515D01*
Y148931D01*
X288216Y148348D01*
X289383D01*
X289966Y148931D01*
X133071Y57436D02*
Y54520D01*
X132488Y53937D01*
X131321D01*
X130738Y54520D01*
Y57436D01*
X127823Y53937D02*
Y57436D01*
X129572Y55686D01*
X127239D01*
X133995Y83026D02*
Y80111D01*
X133412Y79528D01*
X132246D01*
X131662Y80111D01*
Y83026D01*
X130496Y82443D02*
X129913Y83026D01*
X128747D01*
X128164Y82443D01*
Y81860D01*
X128747Y81277D01*
X129330D01*
X128747D01*
X128164Y80694D01*
Y80111D01*
X128747Y79528D01*
X129913D01*
X130496Y80111D01*
X59252Y83071D02*
Y86570D01*
X57503D01*
X56919Y85987D01*
Y84820D01*
X57503Y84237D01*
X59252D01*
X58086D02*
X56919Y83071D01*
X54004D02*
Y86570D01*
X55753Y84820D01*
X53421D01*
X52254Y83071D02*
X51088D01*
X51671D01*
Y86570D01*
X52254Y85987D01*
X59252Y100591D02*
Y104089D01*
X57503D01*
X56919Y103506D01*
Y102340D01*
X57503Y101757D01*
X59252D01*
X58086D02*
X56919Y100591D01*
X54004D02*
Y104089D01*
X55753Y102340D01*
X53421D01*
X52254Y103506D02*
X51671Y104089D01*
X50505D01*
X49922Y103506D01*
Y101174D01*
X50505Y100591D01*
X51671D01*
X52254Y101174D01*
Y103506D01*
X59351Y108661D02*
Y112160D01*
X57601D01*
X57018Y111577D01*
Y110411D01*
X57601Y109828D01*
X59351D01*
X58184D02*
X57018Y108661D01*
X55852Y111577D02*
X55268Y112160D01*
X54102D01*
X53519Y111577D01*
Y110994D01*
X54102Y110411D01*
X54685D01*
X54102D01*
X53519Y109828D01*
Y109245D01*
X54102Y108661D01*
X55268D01*
X55852Y109245D01*
X52353D02*
X51770Y108661D01*
X50603D01*
X50020Y109245D01*
Y111577D01*
X50603Y112160D01*
X51770D01*
X52353Y111577D01*
Y110994D01*
X51770Y110411D01*
X50020D01*
X63386Y121700D02*
Y125199D01*
X61636D01*
X61053Y124616D01*
Y123449D01*
X61636Y122866D01*
X63386D01*
X62220D02*
X61053Y121700D01*
X59887Y124616D02*
X59304Y125199D01*
X58138D01*
X57554Y124616D01*
Y124033D01*
X58138Y123449D01*
X58721D01*
X58138D01*
X57554Y122866D01*
Y122283D01*
X58138Y121700D01*
X59304D01*
X59887Y122283D01*
X56388Y124616D02*
X55805Y125199D01*
X54639D01*
X54056Y124616D01*
Y124033D01*
X54639Y123449D01*
X54056Y122866D01*
Y122283D01*
X54639Y121700D01*
X55805D01*
X56388Y122283D01*
Y122866D01*
X55805Y123449D01*
X56388Y124033D01*
Y124616D01*
X55805Y123449D02*
X54639D01*
X143800Y50699D02*
X141467D01*
X142634D01*
Y47200D01*
X140301Y46034D02*
Y49533D01*
X138552D01*
X137969Y48949D01*
Y47783D01*
X138552Y47200D01*
X140301D01*
X134470Y50699D02*
X136802D01*
Y48949D01*
X135636Y49533D01*
X135053D01*
X134470Y48949D01*
Y47783D01*
X135053Y47200D01*
X136219D01*
X136802Y47783D01*
X149900Y74199D02*
X147567D01*
X148734D01*
Y70700D01*
X146401Y69534D02*
Y73033D01*
X144652D01*
X144069Y72449D01*
Y71283D01*
X144652Y70700D01*
X146401D01*
X141153D02*
Y74199D01*
X142902Y72449D01*
X140570D01*
X97244Y44488D02*
X93745D01*
Y42739D01*
X94328Y42156D01*
X95495D01*
X96078Y42739D01*
Y44488D01*
Y43322D02*
X97244Y42156D01*
X94328Y40989D02*
X93745Y40406D01*
Y39240D01*
X94328Y38657D01*
X94911D01*
X95495Y39240D01*
Y39823D01*
Y39240D01*
X96078Y38657D01*
X96661D01*
X97244Y39240D01*
Y40406D01*
X96661Y40989D01*
X94328Y37490D02*
X93745Y36907D01*
Y35741D01*
X94328Y35158D01*
X94911D01*
X95495Y35741D01*
Y36324D01*
Y35741D01*
X96078Y35158D01*
X96661D01*
X97244Y35741D01*
Y36907D01*
X96661Y37490D01*
X118504Y37402D02*
Y40900D01*
X116754D01*
X116171Y40317D01*
Y39151D01*
X116754Y38568D01*
X118504D01*
X117338D02*
X116171Y37402D01*
X115005Y40317D02*
X114422Y40900D01*
X113256D01*
X112672Y40317D01*
Y39734D01*
X113256Y39151D01*
X113839D01*
X113256D01*
X112672Y38568D01*
Y37985D01*
X113256Y37402D01*
X114422D01*
X115005Y37985D01*
X109174Y37402D02*
X111506D01*
X109174Y39734D01*
Y40317D01*
X109757Y40900D01*
X110923D01*
X111506Y40317D01*
X98819Y74803D02*
X95320D01*
Y73054D01*
X95903Y72471D01*
X97070D01*
X97653Y73054D01*
Y74803D01*
Y73637D02*
X98819Y72471D01*
Y68972D02*
Y71304D01*
X96486Y68972D01*
X95903D01*
X95320Y69555D01*
Y70721D01*
X95903Y71304D01*
Y67805D02*
X95320Y67222D01*
Y66056D01*
X95903Y65473D01*
X96486D01*
X97070Y66056D01*
X97653Y65473D01*
X98236D01*
X98819Y66056D01*
Y67222D01*
X98236Y67805D01*
X97653D01*
X97070Y67222D01*
X96486Y67805D01*
X95903D01*
X97070Y67222D02*
Y66056D01*
X117323Y64567D02*
Y68066D01*
X115573D01*
X114990Y67483D01*
Y66316D01*
X115573Y65733D01*
X117323D01*
X116156D02*
X114990Y64567D01*
X111491D02*
X113824D01*
X111491Y66900D01*
Y67483D01*
X112074Y68066D01*
X113241D01*
X113824Y67483D01*
X107992Y68066D02*
X109159Y67483D01*
X110325Y66316D01*
Y65150D01*
X109742Y64567D01*
X108576D01*
X107992Y65150D01*
Y65733D01*
X108576Y66316D01*
X110325D01*
X63386Y147200D02*
Y143701D01*
X61636D01*
X61053Y144284D01*
Y146616D01*
X61636Y147200D01*
X63386D01*
X59887D02*
X57554D01*
Y146616D01*
X59887Y144284D01*
Y143701D01*
X57554D01*
X56388D02*
X55222D01*
X55805D01*
Y147200D01*
X56388Y146616D01*
X59449Y119247D02*
Y115748D01*
X57699D01*
X57116Y116331D01*
Y118664D01*
X57699Y119247D01*
X59449D01*
X55950Y116331D02*
X55367Y115748D01*
X54201D01*
X53617Y116331D01*
Y118664D01*
X54201Y119247D01*
X55367D01*
X55950Y118664D01*
Y118081D01*
X55367Y117498D01*
X53617D01*
X58268Y94444D02*
Y90945D01*
X56518D01*
X55935Y91528D01*
Y93861D01*
X56518Y94444D01*
X58268D01*
X54769Y93861D02*
X54186Y94444D01*
X53019D01*
X52436Y93861D01*
Y93278D01*
X53019Y92694D01*
X52436Y92111D01*
Y91528D01*
X53019Y90945D01*
X54186D01*
X54769Y91528D01*
Y92111D01*
X54186Y92694D01*
X54769Y93278D01*
Y93861D01*
X54186Y92694D02*
X53019D01*
X59055Y70822D02*
Y67323D01*
X57306D01*
X56722Y67906D01*
Y70239D01*
X57306Y70822D01*
X59055D01*
X55556D02*
X53224D01*
Y70239D01*
X55556Y67906D01*
Y67323D01*
X91732Y40113D02*
Y36614D01*
X89983D01*
X89400Y37197D01*
Y39530D01*
X89983Y40113D01*
X91732D01*
X85901D02*
X88233D01*
Y38364D01*
X87067Y38947D01*
X86484D01*
X85901Y38364D01*
Y37197D01*
X86484Y36614D01*
X87650D01*
X88233Y37197D01*
X98400Y122399D02*
Y118900D01*
X96651D01*
X96067Y119483D01*
Y121816D01*
X96651Y122399D01*
X98400D01*
X93152Y118900D02*
Y122399D01*
X94901Y120649D01*
X92569D01*
X91339Y78696D02*
Y75197D01*
X89589D01*
X89006Y75780D01*
Y78113D01*
X89589Y78696D01*
X91339D01*
X87840Y78113D02*
X87257Y78696D01*
X86090D01*
X85507Y78113D01*
Y77529D01*
X86090Y76946D01*
X86673D01*
X86090D01*
X85507Y76363D01*
Y75780D01*
X86090Y75197D01*
X87257D01*
X87840Y75780D01*
X105267Y62116D02*
X105851Y62699D01*
X107017D01*
X107600Y62116D01*
Y59783D01*
X107017Y59200D01*
X105851D01*
X105267Y59783D01*
X101769Y59200D02*
X104101D01*
X101769Y61533D01*
Y62116D01*
X102352Y62699D01*
X103518D01*
X104101Y62116D01*
X100602Y59783D02*
X100019Y59200D01*
X98853D01*
X98270Y59783D01*
Y62116D01*
X98853Y62699D01*
X100019D01*
X100602Y62116D01*
Y61533D01*
X100019Y60949D01*
X98270D01*
X116267Y46026D02*
X116851Y46609D01*
X118017D01*
X118600Y46026D01*
Y43693D01*
X118017Y43110D01*
X116851D01*
X116267Y43693D01*
X112769Y43110D02*
X115101D01*
X112769Y45443D01*
Y46026D01*
X113352Y46609D01*
X114518D01*
X115101Y46026D01*
X111602D02*
X111019Y46609D01*
X109853D01*
X109270Y46026D01*
Y45443D01*
X109853Y44860D01*
X109270Y44276D01*
Y43693D01*
X109853Y43110D01*
X111019D01*
X111602Y43693D01*
Y44276D01*
X111019Y44860D01*
X111602Y45443D01*
Y46026D01*
X111019Y44860D02*
X109853D01*
X95367Y59616D02*
X95951Y60199D01*
X97117D01*
X97700Y59616D01*
Y57283D01*
X97117Y56700D01*
X95951D01*
X95367Y57283D01*
X91869Y56700D02*
X94201D01*
X91869Y59033D01*
Y59616D01*
X92452Y60199D01*
X93618D01*
X94201Y59616D01*
X90702Y60199D02*
X88370D01*
Y59616D01*
X90702Y57283D01*
Y56700D01*
X100867Y79416D02*
X101451Y79999D01*
X102617D01*
X103200Y79416D01*
Y77083D01*
X102617Y76500D01*
X101451D01*
X100867Y77083D01*
X97369Y76500D02*
X99701D01*
X97369Y78833D01*
Y79416D01*
X97952Y79999D01*
X99118D01*
X99701Y79416D01*
X93870Y79999D02*
X96202D01*
Y78249D01*
X95036Y78833D01*
X94453D01*
X93870Y78249D01*
Y77083D01*
X94453Y76500D01*
X95619D01*
X96202Y77083D01*
X114990Y71813D02*
X115573Y72396D01*
X116740D01*
X117323Y71813D01*
Y69481D01*
X116740Y68898D01*
X115573D01*
X114990Y69481D01*
X111491Y68898D02*
X113824D01*
X111491Y71230D01*
Y71813D01*
X112074Y72396D01*
X113241D01*
X113824Y71813D01*
X108576Y68898D02*
Y72396D01*
X110325Y70647D01*
X107992D01*
X100767Y85987D02*
X101351Y86570D01*
X102517D01*
X103100Y85987D01*
Y83654D01*
X102517Y83071D01*
X101351D01*
X100767Y83654D01*
X97269Y83071D02*
X99601D01*
X97269Y85403D01*
Y85987D01*
X97852Y86570D01*
X99018D01*
X99601Y85987D01*
X96102D02*
X95519Y86570D01*
X94353D01*
X93770Y85987D01*
Y85403D01*
X94353Y84820D01*
X94936D01*
X94353D01*
X93770Y84237D01*
Y83654D01*
X94353Y83071D01*
X95519D01*
X96102Y83654D01*
X207640Y96821D02*
X208223Y96238D01*
Y95071D01*
X207640Y94488D01*
X205308D01*
X204724Y95071D01*
Y96238D01*
X205308Y96821D01*
X204724Y97987D02*
Y99153D01*
Y98570D01*
X208223D01*
X207640Y97987D01*
X205308Y100903D02*
X204724Y101486D01*
Y102652D01*
X205308Y103235D01*
X207640D01*
X208223Y102652D01*
Y101486D01*
X207640Y100903D01*
X207057D01*
X206474Y101486D01*
Y103235D01*
X187045Y83297D02*
X186462Y83881D01*
Y85047D01*
X187045Y85630D01*
X189377D01*
X189961Y85047D01*
Y83881D01*
X189377Y83297D01*
X189961Y82131D02*
Y80965D01*
Y81548D01*
X186462D01*
X187045Y82131D01*
Y79215D02*
X186462Y78632D01*
Y77466D01*
X187045Y76883D01*
X187628D01*
X188211Y77466D01*
X188794Y76883D01*
X189377D01*
X189961Y77466D01*
Y78632D01*
X189377Y79215D01*
X188794D01*
X188211Y78632D01*
X187628Y79215D01*
X187045D01*
X188211Y78632D02*
Y77466D01*
X179367Y99176D02*
X179951Y99759D01*
X181117D01*
X181700Y99176D01*
Y96843D01*
X181117Y96260D01*
X179951D01*
X179367Y96843D01*
X178201Y96260D02*
X177035D01*
X177618D01*
Y99759D01*
X178201Y99176D01*
X172953Y99759D02*
X175285D01*
Y98009D01*
X174119Y98592D01*
X173536D01*
X172953Y98009D01*
Y96843D01*
X173536Y96260D01*
X174702D01*
X175285Y96843D01*
X179499Y94240D02*
X180088Y94817D01*
X181254Y94805D01*
X181831Y94216D01*
X181806Y91883D01*
X181217Y91306D01*
X180051Y91319D01*
X179474Y91908D01*
X178301Y91337D02*
X177135Y91350D01*
X177718Y91343D01*
X177755Y94842D01*
X178332Y94253D01*
X173636Y91387D02*
X173674Y94885D01*
X175404Y93117D01*
X173072Y93142D01*
X203321Y96427D02*
X203904Y95844D01*
Y94678D01*
X203321Y94095D01*
X200989D01*
X200405Y94678D01*
Y95844D01*
X200989Y96427D01*
X200405Y97593D02*
Y98760D01*
Y98176D01*
X203904D01*
X203321Y97593D01*
Y100509D02*
X203904Y101092D01*
Y102259D01*
X203321Y102842D01*
X202738D01*
X202155Y102259D01*
Y101675D01*
Y102259D01*
X201572Y102842D01*
X200989D01*
X200405Y102259D01*
Y101092D01*
X200989Y100509D01*
X68534Y43073D02*
X69117Y43656D01*
X70283D01*
X70866Y43073D01*
Y40741D01*
X70283Y40157D01*
X69117D01*
X68534Y40741D01*
X67367Y40157D02*
X66201D01*
X66784D01*
Y43656D01*
X67367Y43073D01*
X62119Y40157D02*
X64451D01*
X62119Y42490D01*
Y43073D01*
X62702Y43656D01*
X63868D01*
X64451Y43073D01*
X68140Y58428D02*
X68723Y59011D01*
X69889D01*
X70472Y58428D01*
Y56095D01*
X69889Y55512D01*
X68723D01*
X68140Y56095D01*
X66974Y55512D02*
X65807D01*
X66390D01*
Y59011D01*
X66974Y58428D01*
X64058Y55512D02*
X62892D01*
X63475D01*
Y59011D01*
X64058Y58428D01*
X100325Y140416D02*
X100908Y140999D01*
X102074D01*
X102657Y140416D01*
Y138083D01*
X102074Y137500D01*
X100908D01*
X100325Y138083D01*
X99159D02*
X98576Y137500D01*
X97409D01*
X96826Y138083D01*
Y140416D01*
X97409Y140999D01*
X98576D01*
X99159Y140416D01*
Y139833D01*
X98576Y139249D01*
X96826D01*
D80*
X100689Y54111D02*
X102200Y52600D01*
X102600D01*
X102000D02*
X102600D01*
X100689Y54111D02*
Y58100D01*
Y54111D02*
X102000Y52800D01*
Y52600D02*
Y52800D01*
X132978Y49813D02*
X133071D01*
X131928Y48763D02*
X132978Y49813D01*
X129134Y48313D02*
X129584Y48763D01*
X131928D01*
X137008Y71653D02*
X137402D01*
X135827Y72835D02*
X137008Y71653D01*
X129921Y72835D02*
X135827D01*
D114*
X291339Y181102D02*
X294837D01*
Y182852D01*
X294254Y183435D01*
X293088D01*
X292505Y182852D01*
Y181102D01*
Y182269D02*
X291339Y183435D01*
X294837Y186934D02*
Y184601D01*
X293088D01*
X293671Y185767D01*
Y186351D01*
X293088Y186934D01*
X291922D01*
X291339Y186351D01*
Y185184D01*
X291922Y184601D01*
X291339Y190433D02*
Y188100D01*
X293671Y190433D01*
X294254D01*
X294837Y189849D01*
Y188683D01*
X294254Y188100D01*
X274168Y185039D02*
X273585D01*
X272419Y186206D01*
X273585Y187372D01*
X274168D01*
X272419Y186206D02*
X270669D01*
Y188538D02*
Y189705D01*
Y189121D01*
X274168D01*
X273585Y188538D01*
X229331Y169837D02*
X226998D01*
X228164D01*
Y166339D01*
X225832Y165172D02*
Y168671D01*
X224082D01*
X223499Y168088D01*
Y166922D01*
X224082Y166339D01*
X225832D01*
X222333D02*
X221167D01*
X221750D01*
Y169837D01*
X222333Y169254D01*
X242126Y173228D02*
Y176727D01*
X240376D01*
X239793Y176144D01*
Y174978D01*
X240376Y174395D01*
X242126D01*
X240960D02*
X239793Y173228D01*
X236295Y176727D02*
X238627D01*
Y174978D01*
X237461Y175561D01*
X236878D01*
X236295Y174978D01*
Y173811D01*
X236878Y173228D01*
X238044D01*
X238627Y173811D01*
X235128Y173228D02*
X233962D01*
X234545D01*
Y176727D01*
X235128Y176144D01*
X189469Y217520D02*
Y221019D01*
X187719D01*
X187136Y220435D01*
Y219269D01*
X187719Y218686D01*
X189469D01*
X188302D02*
X187136Y217520D01*
X183637Y221019D02*
X185970D01*
Y219269D01*
X184803Y219852D01*
X184220D01*
X183637Y219269D01*
Y218103D01*
X184220Y217520D01*
X185387D01*
X185970Y218103D01*
X182471Y220435D02*
X181888Y221019D01*
X180721D01*
X180138Y220435D01*
Y218103D01*
X180721Y217520D01*
X181888D01*
X182471Y218103D01*
Y220435D01*
X186811Y224803D02*
Y228302D01*
X185062D01*
X184478Y227719D01*
Y226553D01*
X185062Y225969D01*
X186811D01*
X185645D02*
X184478Y224803D01*
X181563D02*
Y228302D01*
X183312Y226553D01*
X180980D01*
X179813Y225386D02*
X179230Y224803D01*
X178064D01*
X177481Y225386D01*
Y227719D01*
X178064Y228302D01*
X179230D01*
X179813Y227719D01*
Y227136D01*
X179230Y226553D01*
X177481D01*
X202569Y209646D02*
Y213144D01*
X200819D01*
X200236Y212561D01*
Y211395D01*
X200819Y210812D01*
X202569D01*
X201403D02*
X200236Y209646D01*
X197321D02*
Y213144D01*
X199070Y211395D01*
X196738D01*
X195571Y212561D02*
X194988Y213144D01*
X193822D01*
X193239Y212561D01*
Y211978D01*
X193822Y211395D01*
X193239Y210812D01*
Y210229D01*
X193822Y209646D01*
X194988D01*
X195571Y210229D01*
Y210812D01*
X194988Y211395D01*
X195571Y211978D01*
Y212561D01*
X194988Y211395D02*
X193822D01*
X216929Y218110D02*
Y221609D01*
X215180D01*
X214597Y221026D01*
Y219860D01*
X215180Y219276D01*
X216929D01*
X215763D02*
X214597Y218110D01*
X211681D02*
Y221609D01*
X213430Y219860D01*
X211098D01*
X209931Y221609D02*
X207599D01*
Y221026D01*
X209931Y218693D01*
Y218110D01*
X64200Y196700D02*
Y200199D01*
X62451D01*
X61867Y199616D01*
Y198449D01*
X62451Y197866D01*
X64200D01*
X63034D02*
X61867Y196700D01*
X58952D02*
Y200199D01*
X60701Y198449D01*
X58369D01*
X54870Y200199D02*
X56036Y199616D01*
X57202Y198449D01*
Y197283D01*
X56619Y196700D01*
X55453D01*
X54870Y197283D01*
Y197866D01*
X55453Y198449D01*
X57202D01*
X64200Y182500D02*
Y185999D01*
X62451D01*
X61867Y185416D01*
Y184249D01*
X62451Y183666D01*
X64200D01*
X63034D02*
X61867Y182500D01*
X58952D02*
Y185999D01*
X60701Y184249D01*
X58369D01*
X54870Y185999D02*
X57202D01*
Y184249D01*
X56036Y184833D01*
X55453D01*
X54870Y184249D01*
Y183083D01*
X55453Y182500D01*
X56619D01*
X57202Y183083D01*
X268346Y215551D02*
Y219050D01*
X266596D01*
X266013Y218467D01*
Y217301D01*
X266596Y216718D01*
X268346D01*
X267179D02*
X266013Y215551D01*
X263097D02*
Y219050D01*
X264847Y217301D01*
X262514D01*
X259598Y215551D02*
Y219050D01*
X261348Y217301D01*
X259015D01*
X269685Y206693D02*
Y210192D01*
X267936D01*
X267353Y209609D01*
Y208442D01*
X267936Y207859D01*
X269685D01*
X268519D02*
X267353Y206693D01*
X264437D02*
Y210192D01*
X266186Y208442D01*
X263854D01*
X262687Y209609D02*
X262104Y210192D01*
X260938D01*
X260355Y209609D01*
Y209026D01*
X260938Y208442D01*
X261521D01*
X260938D01*
X260355Y207859D01*
Y207276D01*
X260938Y206693D01*
X262104D01*
X262687Y207276D01*
X250000Y188538D02*
X248834D01*
X249417D01*
Y185039D01*
X250000D01*
X248834D01*
X244752Y187955D02*
X245335Y188538D01*
X246501D01*
X247084Y187955D01*
Y185623D01*
X246501Y185039D01*
X245335D01*
X244752Y185623D01*
X243585Y185039D02*
X242419D01*
X243002D01*
Y188538D01*
X243585Y187955D01*
X229009Y222805D02*
X229593Y222222D01*
Y221056D01*
X229009Y220472D01*
X226677D01*
X226094Y221056D01*
Y222222D01*
X226677Y222805D01*
X226094Y225721D02*
X229593D01*
X227843Y223971D01*
Y226304D01*
X226094Y229803D02*
Y227470D01*
X228426Y229803D01*
X229009D01*
X229593Y229220D01*
Y228053D01*
X229009Y227470D01*
X213219Y229294D02*
X213802Y229877D01*
X214968D01*
X215551Y229294D01*
Y226961D01*
X214968Y226378D01*
X213802D01*
X213219Y226961D01*
X210303Y226378D02*
Y229877D01*
X212052Y228127D01*
X209720D01*
X208553Y226378D02*
X207387D01*
X207970D01*
Y229877D01*
X208553Y229294D01*
X224176Y222805D02*
X224759Y222222D01*
Y221056D01*
X224176Y220472D01*
X221843D01*
X221260Y221056D01*
Y222222D01*
X221843Y222805D01*
X221260Y225721D02*
X224759D01*
X223010Y223971D01*
Y226304D01*
X224176Y227470D02*
X224759Y228053D01*
Y229220D01*
X224176Y229803D01*
X221843D01*
X221260Y229220D01*
Y228053D01*
X221843Y227470D01*
X224176D01*
X247797Y224774D02*
X248380Y224190D01*
Y223024D01*
X247797Y222441D01*
X245464D01*
X244881Y223024D01*
Y224190D01*
X245464Y224774D01*
X247797Y225940D02*
X248380Y226523D01*
Y227689D01*
X247797Y228272D01*
X247214D01*
X246631Y227689D01*
Y227106D01*
Y227689D01*
X246048Y228272D01*
X245464D01*
X244881Y227689D01*
Y226523D01*
X245464Y225940D01*
Y229439D02*
X244881Y230022D01*
Y231188D01*
X245464Y231771D01*
X247797D01*
X248380Y231188D01*
Y230022D01*
X247797Y229439D01*
X247214D01*
X246631Y230022D01*
Y231771D01*
X260463Y230278D02*
X261046Y230861D01*
X262212D01*
X262795Y230278D01*
Y227945D01*
X262212Y227362D01*
X261046D01*
X260463Y227945D01*
X259296Y230278D02*
X258713Y230861D01*
X257547D01*
X256964Y230278D01*
Y229695D01*
X257547Y229112D01*
X258130D01*
X257547D01*
X256964Y228528D01*
Y227945D01*
X257547Y227362D01*
X258713D01*
X259296Y227945D01*
X255798Y230278D02*
X255214Y230861D01*
X254048D01*
X253465Y230278D01*
Y229695D01*
X254048Y229112D01*
X253465Y228528D01*
Y227945D01*
X254048Y227362D01*
X255214D01*
X255798Y227945D01*
Y228528D01*
X255214Y229112D01*
X255798Y229695D01*
Y230278D01*
X255214Y229112D02*
X254048D01*
X206132Y202719D02*
X206715Y203302D01*
X207881D01*
X208465Y202719D01*
Y200386D01*
X207881Y199803D01*
X206715D01*
X206132Y200386D01*
X204966Y202719D02*
X204382Y203302D01*
X203216D01*
X202633Y202719D01*
Y202136D01*
X203216Y201553D01*
X203799D01*
X203216D01*
X202633Y200969D01*
Y200386D01*
X203216Y199803D01*
X204382D01*
X204966Y200386D01*
X201467Y203302D02*
X199134D01*
Y202719D01*
X201467Y200386D01*
Y199803D01*
X84867Y200216D02*
X85451Y200799D01*
X86617D01*
X87200Y200216D01*
Y197883D01*
X86617Y197300D01*
X85451D01*
X84867Y197883D01*
X83701Y200216D02*
X83118Y200799D01*
X81952D01*
X81369Y200216D01*
Y199633D01*
X81952Y199049D01*
X82535D01*
X81952D01*
X81369Y198466D01*
Y197883D01*
X81952Y197300D01*
X83118D01*
X83701Y197883D01*
X77870Y200799D02*
X79036Y200216D01*
X80202Y199049D01*
Y197883D01*
X79619Y197300D01*
X78453D01*
X77870Y197883D01*
Y198466D01*
X78453Y199049D01*
X80202D01*
X264321Y198388D02*
X264904Y198971D01*
X266070D01*
X266653Y198388D01*
Y196056D01*
X266070Y195472D01*
X264904D01*
X264321Y196056D01*
X263155Y198388D02*
X262572Y198971D01*
X261405D01*
X260822Y198388D01*
Y197805D01*
X261405Y197222D01*
X261988D01*
X261405D01*
X260822Y196639D01*
Y196056D01*
X261405Y195472D01*
X262572D01*
X263155Y196056D01*
X257323Y198971D02*
X259656D01*
Y197222D01*
X258489Y197805D01*
X257906D01*
X257323Y197222D01*
Y196056D01*
X257906Y195472D01*
X259073D01*
X259656Y196056D01*
X260463Y189924D02*
X261046Y190507D01*
X262212D01*
X262795Y189924D01*
Y187591D01*
X262212Y187008D01*
X261046D01*
X260463Y187591D01*
X259296Y189924D02*
X258713Y190507D01*
X257547D01*
X256964Y189924D01*
Y189340D01*
X257547Y188757D01*
X258130D01*
X257547D01*
X256964Y188174D01*
Y187591D01*
X257547Y187008D01*
X258713D01*
X259296Y187591D01*
X254048Y187008D02*
Y190507D01*
X255798Y188757D01*
X253465D01*
X198073Y195829D02*
X198656Y196412D01*
X199822D01*
X200405Y195829D01*
Y193497D01*
X199822Y192913D01*
X198656D01*
X198073Y193497D01*
X196906Y195829D02*
X196323Y196412D01*
X195157D01*
X194574Y195829D01*
Y195246D01*
X195157Y194663D01*
X195740D01*
X195157D01*
X194574Y194080D01*
Y193497D01*
X195157Y192913D01*
X196323D01*
X196906Y193497D01*
X193408Y195829D02*
X192824Y196412D01*
X191658D01*
X191075Y195829D01*
Y195246D01*
X191658Y194663D01*
X192241D01*
X191658D01*
X191075Y194080D01*
Y193497D01*
X191658Y192913D01*
X192824D01*
X193408Y193497D01*
X199439Y181065D02*
X200022Y181649D01*
X201188D01*
X201772Y181065D01*
Y178733D01*
X201188Y178150D01*
X200022D01*
X199439Y178733D01*
X195940Y178150D02*
X198273D01*
X195940Y180482D01*
Y181065D01*
X196523Y181649D01*
X197690D01*
X198273Y181065D01*
X192441Y178150D02*
X194774D01*
X192441Y180482D01*
Y181065D01*
X193025Y181649D01*
X194191D01*
X194774Y181065D01*
X285896Y210994D02*
X286479Y210411D01*
Y209245D01*
X285896Y208661D01*
X283564D01*
X282981Y209245D01*
Y210411D01*
X283564Y210994D01*
X282981Y214493D02*
Y212160D01*
X285313Y214493D01*
X285896D01*
X286479Y213910D01*
Y212743D01*
X285896Y212160D01*
X282981Y215659D02*
Y216826D01*
Y216242D01*
X286479D01*
X285896Y215659D01*
M02*
