M48
;Layer_Color=9474304
;FILE_FORMAT=2:5
INCH,LZ
;TYPE=PLATED
T1F00S00C0.00787
T2F00S00C0.03543
T3F00S00C0.04000
T4F00S00C0.06299
T5F00S00C0.12598
;TYPE=NON_PLATED
T6F00S00C0.08465
T7F00S00C0.12992
%
T01
X0059055Y0011175
X0068893
X0078149
X0088583
X0099114
X0109547
X0119386
X0128642
X0139075
X0149606
X0137795Y00256
X0136259Y0032677
X0127942Y0034055
X0128Y0046063
X0126961Y0053543
X012727Y005896
X0125984Y0061024
X0129348Y0064961
X0133995Y0065256
X0136708Y0067115
X0138583Y006437
X0143307Y006354
X01405Y0068398
X0147638Y0072648
X01476Y00862
X0145374Y0093307
X0134761Y009703
X013101Y0096794
X0123228Y0094784
X0119691Y0095477
X0117717Y009252
X0108405Y0091399
X0108858Y0095866
Y0098524
X0113976Y0101969
X0118405Y0106693
X0110433Y0112408
X0102756Y0112008
X0092028Y0103642
X0089567Y0096457
X0090561Y0080845
X0092913Y0075087
X0095571Y0071161
X0096555Y0068602
X0098654Y0069717
X0102362Y0065945
X0112113Y0066339
X0116Y00665
X0109454Y0069688
X0107579Y0058071
X00995Y0055655
X0103445Y0050011
X0101575Y0042126
X0096457Y0044094
X0101575Y0026378
X0114961Y003189
X0120472Y0039764
X0120866Y0020866
X0141672Y0039764
X0141831Y0045768
X0140574Y0049682
X0136259Y0052756
X0132Y00525
X0136614Y0046063
X0130315Y0070079
X013189Y0074508
X0131299Y0079232
X0126961Y0078347
X0126083Y0083071
X0125984Y008563
X0135925Y0086221
X0134455Y0106107
X0138091Y0111614
X0125295Y011437
X0125Y0124311
X0128347Y0122933
X0139764Y0125984
X0133858Y0139961
X0131436Y0139704
X012874Y0139173
X0127172Y0136227
X01212Y0136614
Y013937
X0121567Y0144987
X0124016Y0147638
X0115354Y0148031
X0118012Y0143209
X0114173Y0135433
X0111811Y0127165
X0105905Y0140551
X0105118Y014685
X0101Y0143209
X0092682Y0147638
X0139113Y01462
X0144095Y0146457
X0153543Y0099606
Y0081496
X0154488Y005876
X0107874Y0081693
X0100394
X0101378Y0075197
X0069784Y0086221
X0064961Y0088189
X0057087Y0083957
X00464Y0082829
X00462Y01122
X0057087Y0109941
Y0101772
Y012215
X0064961Y0120472
X0052756Y0127953
Y013937
X0050394
X00462Y01534
X00456Y0048652
X004961Y0035433
X00663Y00314
X0061811Y0047244
Y0051968
X0064961Y0063976
X01664Y00598
X0171883Y00602
X0177199Y0055379
X0178839Y0065436
X0183109Y0064978
X0181595Y0069295
X0174705Y0068588
X0165354Y0072835
X0162697Y0077165
X0168996Y008248
X0170177Y0086614
X0173622Y0084874
X0172121Y0092308
X0168799Y0091831
X0164507Y010065
X0164764Y0105807
Y0109646
X0157087Y010561
X0156546Y0119838
X0159449Y0134646
Y0137795
Y0140945
X0160156Y0146457
X0165354Y0152854
X0174803Y0149606
X0179724Y0152854
X0187992Y0152271
X019315Y0155512
X0203346Y0154429
X0204538Y0152271
X0211811Y0151181
X0210148Y0139869
X0214381Y0140558
X0217441Y0142126
X0216929Y0134153
X0213189Y0132579
X0207087Y0131299
X0204538Y0126565
X0199155Y01268
X0196368Y0126679
X019315Y0128051
X0193316Y0119986
X0198Y01201
X0200787Y0119882
X0200788Y0117323
X0203061Y0118214
X020315Y0121555
X0208169Y0122736
X0211417Y0121457
X0213583Y0123622
X0220002Y0122736
X0226094Y0121117
X0230413Y0117027
X0231299Y0114567
X0231398Y0110331
X0225Y0111811
X0221074Y0101777
X0222539Y0098327
X0222452Y009469
X0220385Y0095871
X022126Y009252
X0217322Y0099212
X0228543Y0098327
X0237063Y0099993
X023771Y0094488
X0238204Y0078863
X0245477Y0072648
X0257035Y0070429
X0263779Y0068701
X0265748Y0066296
X0268686Y0073571
X0272601Y0072421
X02736Y00598
X0285827Y0048425
X0283858Y0046063
X0262795Y0040427
X0266653Y00314
X0246063
X0244094Y0021654
X0239272Y0024409
X0234164Y0022047
X0230653Y0011175
X0221397
X0211559
X0201125
X0190594
X0180161
X0170905
X0161066
X0166339Y00261
Y004311
X0162697Y0044587
X0197244Y0043701
X0196457Y0040945
X019814Y0049609
X0200394Y0053445
X02031Y00612
X0202808Y006494
X0198819Y0063976
X0195866Y0062008
X0192531Y006494
X0188976Y006496
X018996Y0060039
X0193021Y0071161
X0194813Y007689
X0198819Y0080708
X0202756Y0080709
X0206693
Y0084646
Y0088583
X0202569Y0088587
X0202609Y0084646
X0202756Y0092521
X0206534Y009626
X0198819Y0096457
X0194882Y0096457
Y009252
X0190945
X0187007Y0092519
X0183109
X0183071Y0096457
X0183071Y0100394
X0183071Y0104331
X0187008
X0190945
X0190945Y0100394
X0190944Y0096457
X0194883Y0100394
X019882Y0104331
X0202757
X0198829Y0113096
X0199202Y0115453
X0197549Y011723
X0181111Y0116443
X0182194Y0121561
X0181988Y0125295
X0182579Y0127745
X0185245Y0126286
X0177457Y0123425
X0175098Y0122733
X0175796Y0137015
X0179044Y0137211
X0182382Y0136909
X0181595Y0140157
X0186811Y0136625
X0190945Y0137598
X0192531Y013567
X0194596Y0136818
X0195965Y0138681
X0172146Y0136625
X0164862Y0134941
X0174705Y0102461
X0187008Y0088583
X0190551Y0088189
X0187131Y0080832
X018309Y0080727
X0198808Y0068898
X0206694Y006811
X0208662Y00665
X021063Y0069291
X0214364Y0070177
X0213287Y0067224
X0214539Y0065264
X0213779Y0062992
X0219291
X0222981Y0069862
X0221949Y0077264
X02179Y00788
X0216228Y0080992
X021063Y0084645
X0224508Y0082382
X023436Y0068555
X0237205Y0050197
X0231398Y0041732
X0227067Y0044488
X0219291Y0032677
X0206534Y0047244
X0195788Y002874
X0191732Y0026681
X0188189Y0024409
X0184646Y0022441
X0181496Y0020079
X0241086Y0011175
X0251618
X0263779
X0273618
X0282874
X0293307
X0303839
X0310777Y0104331
X0269683Y0102362
X0258374Y0092519
X0255906Y0109941
X0250394Y0120334
X0247466Y0138766
X025315Y0144095
X023189Y0147638
X0227636Y0143307
X0222441Y0138189
X0222441Y013563
X0226378Y013189
X02313Y01268
X0228937Y0155512
X0277953Y0132491
X0280433Y0117323
X0336614Y0109252
X0327756Y0080992
X0318701Y0037402
X0314272Y0011175
X032411
X0333366
X0343799
X0330709Y017126
X0315945Y0167323
X0326378Y020034
X0341831Y0193307
Y0233616
X0331398
X0322142
X0312303
X030187
X0291339
X0280905
X0271649
X0261811
X0249649
X0239118
X0238779Y0225742
X024311Y0219882
X0242626Y0214567
X024685Y0211811
X0250787Y0211024
X0258268Y021063
X0256304Y0216748
X026063Y0204724
X0263779Y0201565
X0258268Y020034
X0247929Y0198378
X0246198Y0195472
X0248031Y0189764
X0247846Y0178347
X0245669Y0176378
X0244881Y0180708
X0240551Y0180315
X0235826Y0177952
X023189Y0176772
X0224016Y0176392
X0224803Y0184252
X0227559Y0182677
X0216402Y0180113
X0210236Y0175197
X0206693Y0178347
X0201958Y0168099
X0203937Y0164567
X0207087Y0161417
X0209842Y0159031
X0217652Y0160788
X0199585Y0160531
X0196949Y0160335
X0200699Y0158374
X0198342Y01658
X0189469Y01697
X01858Y0166562
X01859Y0159449
X0176179Y016053
X0172834Y0164567
X0169232Y0180315
Y0184646
Y0188976
Y0193307
Y0197638
X0164901
X016057
Y0193307
X0164901
Y0188976
X016057
Y0184646
Y0180315
X0164901
Y0184646
X0183968Y0180206
X0186221Y019065
X0198041Y0188583
X0196161Y0197933
X0201958Y0196555
X021063Y0197161
X0211353Y02
X0213779Y0201181
X0212205Y020315
X0212957Y0212043
X0199213Y0208661
X0201409Y0205512
X0192997Y0202279
X0188583Y020439
X0184055Y0218504
X0199585Y021811
X0196269Y0226083
X0199157Y0233616
X020959
X0219428
X0228684
X0224803Y0218959
X0233169
X0247638Y0205315
X0265914Y0175984
X0257874Y0161811
X0236379Y0158915
X0286171Y0169291
X0293307Y0195748
X0205674Y0227177
X0188625Y0233616
X0178192
X0168936
X0159098
X0147638
X0137106
X0126673
X0117417
X0107579
X0097146
X0086614
X0088583Y0230315
X0076181Y0233616
X0066925
X0057087
X0069784Y0182677
X0098425Y0157342
X0116142Y0163567
X0111458Y0201075
X0128347Y0201575
Y0198819
Y0204331
X014252Y0190551
X0144783Y019252
X0100394Y0211024
T02
X0055592Y016053
X004961Y0170537
X0055594Y020034
X0049608Y0210333
X0093894Y0202936
Y0192936
Y0182936
Y0172936
X0103894Y0167936
Y0177936
Y0187936
Y0197936
T03
X0078149Y0045276
Y005315
Y0061024
Y0068898
Y0076772
Y0084646
Y009252
Y0100394
Y0108268
Y0116142
Y0124016
Y013189
X0086811
Y0124016
Y0116142
Y0108268
Y0068898
X0086811Y0061024
Y005315
Y0045276
T04
X0080901Y0154432
Y021644
T05
X0049213Y0019685
X0344488
Y022441
X0049213
T06
X0081693Y0034055
Y014311
T07
X0068893Y0162936
Y0207936
M30
