G04*
G04 #@! TF.GenerationSoftware,Altium Limited,Altium Designer,19.0.4 (130)*
G04*
G04 Layer_Physical_Order=2*
G04 Layer_Color=16440176*
%FSLAX25Y25*%
%MOIN*%
G70*
G01*
G75*
%ADD86C,0.06000*%
%ADD87C,0.01772*%
%ADD88C,0.01968*%
G36*
X352249Y231299D02*
Y12273D01*
X352362Y12160D01*
X349410Y9207D01*
X43307D01*
X40354Y12160D01*
Y230428D01*
X45163Y235236D01*
X348312D01*
X352249Y231299D01*
D02*
G37*
%LPC*%
G36*
X89083Y232138D02*
Y230815D01*
X90406D01*
X90359Y231051D01*
X89942Y231675D01*
X89319Y232091D01*
X89083Y232138D01*
D02*
G37*
G36*
X88083D02*
X87847Y232091D01*
X87223Y231675D01*
X86806Y231051D01*
X86759Y230815D01*
X88083D01*
Y232138D01*
D02*
G37*
G36*
X90406Y229815D02*
X89083D01*
Y228492D01*
X89319Y228538D01*
X89942Y228955D01*
X90359Y229579D01*
X90406Y229815D01*
D02*
G37*
G36*
X88083D02*
X86759D01*
X86806Y229579D01*
X87223Y228955D01*
X87847Y228538D01*
X88083Y228492D01*
Y229815D01*
D02*
G37*
G36*
X206174Y229000D02*
Y227677D01*
X207497D01*
X207450Y227913D01*
X207033Y228537D01*
X206410Y228954D01*
X206174Y229000D01*
D02*
G37*
G36*
X205174D02*
X204938Y228954D01*
X204314Y228537D01*
X203897Y227913D01*
X203850Y227677D01*
X205174D01*
Y229000D01*
D02*
G37*
G36*
X239280Y227566D02*
Y226242D01*
X240603D01*
X240556Y226478D01*
X240139Y227102D01*
X239515Y227519D01*
X239280Y227566D01*
D02*
G37*
G36*
X238280D02*
X238044Y227519D01*
X237420Y227102D01*
X237003Y226478D01*
X236956Y226242D01*
X238280D01*
Y227566D01*
D02*
G37*
G36*
X207497Y226677D02*
X206174D01*
Y225354D01*
X206410Y225401D01*
X207033Y225818D01*
X207450Y226441D01*
X207497Y226677D01*
D02*
G37*
G36*
X205174D02*
X203850D01*
X203897Y226441D01*
X204314Y225818D01*
X204938Y225401D01*
X205174Y225354D01*
Y226677D01*
D02*
G37*
G36*
X196269Y227496D02*
X195729Y227388D01*
X195270Y227082D01*
X194964Y226623D01*
X194856Y226083D01*
X194964Y225542D01*
X195270Y225084D01*
X195729Y224777D01*
X196269Y224670D01*
X196810Y224777D01*
X197268Y225084D01*
X197575Y225542D01*
X197682Y226083D01*
X197575Y226623D01*
X197268Y227082D01*
X196810Y227388D01*
X196269Y227496D01*
D02*
G37*
G36*
X240603Y225242D02*
X239280D01*
Y223919D01*
X239515Y223966D01*
X240139Y224383D01*
X240556Y225007D01*
X240603Y225242D01*
D02*
G37*
G36*
X238280D02*
X236956D01*
X237003Y225007D01*
X237420Y224383D01*
X238044Y223966D01*
X238280Y223919D01*
Y225242D01*
D02*
G37*
G36*
X243610Y221705D02*
Y220382D01*
X244934D01*
X244887Y220618D01*
X244470Y221241D01*
X243846Y221658D01*
X243610Y221705D01*
D02*
G37*
G36*
X242610D02*
X242374Y221658D01*
X241751Y221241D01*
X241334Y220618D01*
X241287Y220382D01*
X242610D01*
Y221705D01*
D02*
G37*
G36*
X233669Y220782D02*
Y219459D01*
X234993D01*
X234946Y219695D01*
X234529Y220319D01*
X233905Y220736D01*
X233669Y220782D01*
D02*
G37*
G36*
X232669D02*
X232434Y220736D01*
X231810Y220319D01*
X231393Y219695D01*
X231346Y219459D01*
X232669D01*
Y220782D01*
D02*
G37*
G36*
X225303D02*
Y219459D01*
X226626D01*
X226580Y219695D01*
X226163Y220319D01*
X225539Y220736D01*
X225303Y220782D01*
D02*
G37*
G36*
X224303D02*
X224067Y220736D01*
X223444Y220319D01*
X223027Y219695D01*
X222980Y219459D01*
X224303D01*
Y220782D01*
D02*
G37*
G36*
X184555Y220327D02*
Y219004D01*
X185878D01*
X185831Y219240D01*
X185415Y219864D01*
X184791Y220280D01*
X184555Y220327D01*
D02*
G37*
G36*
X183555D02*
X183319Y220280D01*
X182695Y219864D01*
X182279Y219240D01*
X182232Y219004D01*
X183555D01*
Y220327D01*
D02*
G37*
G36*
X244934Y219382D02*
X243610D01*
Y218059D01*
X243846Y218106D01*
X244470Y218522D01*
X244887Y219146D01*
X244934Y219382D01*
D02*
G37*
G36*
X242610D02*
X241287D01*
X241334Y219146D01*
X241751Y218522D01*
X242374Y218106D01*
X242610Y218059D01*
Y219382D01*
D02*
G37*
G36*
X344488Y231242D02*
X343155Y231110D01*
X341874Y230721D01*
X340692Y230090D01*
X339657Y229240D01*
X338808Y228205D01*
X338176Y227024D01*
X337787Y225742D01*
X337656Y224410D01*
X337787Y223077D01*
X338176Y221795D01*
X338808Y220614D01*
X339657Y219578D01*
X340692Y218729D01*
X341874Y218097D01*
X343155Y217709D01*
X344488Y217577D01*
X345821Y217709D01*
X347103Y218097D01*
X348284Y218729D01*
X349319Y219578D01*
X350169Y220614D01*
X350800Y221795D01*
X351189Y223077D01*
X351320Y224410D01*
X351189Y225742D01*
X350800Y227024D01*
X350169Y228205D01*
X349319Y229240D01*
X348284Y230090D01*
X347103Y230721D01*
X345821Y231110D01*
X344488Y231242D01*
D02*
G37*
G36*
X49213D02*
X47880Y231110D01*
X46598Y230721D01*
X45417Y230090D01*
X44382Y229240D01*
X43532Y228205D01*
X42900Y227024D01*
X42512Y225742D01*
X42380Y224410D01*
X42512Y223077D01*
X42900Y221795D01*
X43532Y220614D01*
X44382Y219578D01*
X45417Y218729D01*
X46598Y218097D01*
X47880Y217709D01*
X49213Y217577D01*
X50546Y217709D01*
X51827Y218097D01*
X53008Y218729D01*
X54044Y219578D01*
X54893Y220614D01*
X55525Y221795D01*
X55913Y223077D01*
X56045Y224410D01*
X55913Y225742D01*
X55525Y227024D01*
X54893Y228205D01*
X54044Y229240D01*
X53008Y230090D01*
X51827Y230721D01*
X50546Y231110D01*
X49213Y231242D01*
D02*
G37*
G36*
X256804Y218571D02*
Y217248D01*
X258127D01*
X258080Y217484D01*
X257663Y218108D01*
X257039Y218524D01*
X256804Y218571D01*
D02*
G37*
G36*
X255804D02*
X255568Y218524D01*
X254944Y218108D01*
X254527Y217484D01*
X254480Y217248D01*
X255804D01*
Y218571D01*
D02*
G37*
G36*
X234993Y218459D02*
X233669D01*
Y217136D01*
X233905Y217183D01*
X234529Y217600D01*
X234946Y218223D01*
X234993Y218459D01*
D02*
G37*
G36*
X232669D02*
X231346D01*
X231393Y218223D01*
X231810Y217600D01*
X232434Y217183D01*
X232669Y217136D01*
Y218459D01*
D02*
G37*
G36*
X226626D02*
X225303D01*
Y217136D01*
X225539Y217183D01*
X226163Y217600D01*
X226580Y218223D01*
X226626Y218459D01*
D02*
G37*
G36*
X224303D02*
X222980D01*
X223027Y218223D01*
X223444Y217600D01*
X224067Y217183D01*
X224303Y217136D01*
Y218459D01*
D02*
G37*
G36*
X199585Y219523D02*
X199045Y219416D01*
X198586Y219109D01*
X198280Y218651D01*
X198172Y218110D01*
X198280Y217569D01*
X198586Y217111D01*
X199045Y216805D01*
X199585Y216697D01*
X200126Y216805D01*
X200584Y217111D01*
X200891Y217569D01*
X200998Y218110D01*
X200891Y218651D01*
X200584Y219109D01*
X200126Y219416D01*
X199585Y219523D01*
D02*
G37*
G36*
X185878Y218004D02*
X184555D01*
Y216681D01*
X184791Y216727D01*
X185415Y217144D01*
X185831Y217768D01*
X185878Y218004D01*
D02*
G37*
G36*
X183555D02*
X182232D01*
X182279Y217768D01*
X182695Y217144D01*
X183319Y216727D01*
X183555Y216681D01*
Y218004D01*
D02*
G37*
G36*
X243126Y216390D02*
Y215067D01*
X244449D01*
X244402Y215303D01*
X243986Y215927D01*
X243362Y216343D01*
X243126Y216390D01*
D02*
G37*
G36*
X242126D02*
X241890Y216343D01*
X241266Y215927D01*
X240850Y215303D01*
X240803Y215067D01*
X242126D01*
Y216390D01*
D02*
G37*
G36*
X258127Y216248D02*
X256804D01*
Y214925D01*
X257039Y214972D01*
X257663Y215388D01*
X258080Y216012D01*
X258127Y216248D01*
D02*
G37*
G36*
X255804D02*
X254480D01*
X254527Y216012D01*
X254944Y215388D01*
X255568Y214972D01*
X255804Y214925D01*
Y216248D01*
D02*
G37*
G36*
X244449Y214067D02*
X243126D01*
Y212744D01*
X243362Y212790D01*
X243986Y213207D01*
X244402Y213831D01*
X244449Y214067D01*
D02*
G37*
G36*
X242126D02*
X240803D01*
X240850Y213831D01*
X241266Y213207D01*
X241890Y212790D01*
X242126Y212744D01*
Y214067D01*
D02*
G37*
G36*
X213457Y213866D02*
Y212543D01*
X214780D01*
X214733Y212779D01*
X214316Y213403D01*
X213693Y213819D01*
X213457Y213866D01*
D02*
G37*
G36*
X212457D02*
X212221Y213819D01*
X211597Y213403D01*
X211180Y212779D01*
X211134Y212543D01*
X212457D01*
Y213866D01*
D02*
G37*
G36*
X80901Y221282D02*
X79648Y221117D01*
X78481Y220633D01*
X77478Y219864D01*
X76709Y218861D01*
X76225Y217693D01*
X76060Y216440D01*
X76225Y215187D01*
X76709Y214019D01*
X77478Y213017D01*
X78481Y212247D01*
X79648Y211764D01*
X80901Y211599D01*
X82155Y211764D01*
X83322Y212247D01*
X84325Y213017D01*
X85094Y214019D01*
X85578Y215187D01*
X85743Y216440D01*
X85578Y217693D01*
X85094Y218861D01*
X84325Y219864D01*
X83322Y220633D01*
X82155Y221117D01*
X80901Y221282D01*
D02*
G37*
G36*
X100894Y212847D02*
Y211524D01*
X102217D01*
X102170Y211759D01*
X101753Y212383D01*
X101129Y212800D01*
X100894Y212847D01*
D02*
G37*
G36*
X99894D02*
X99658Y212800D01*
X99034Y212383D01*
X98617Y211759D01*
X98570Y211524D01*
X99894D01*
Y212847D01*
D02*
G37*
G36*
X246850Y213224D02*
X246310Y213116D01*
X245851Y212810D01*
X245545Y212352D01*
X245437Y211811D01*
X245545Y211270D01*
X245851Y210812D01*
X246310Y210506D01*
X246850Y210398D01*
X247391Y210506D01*
X247849Y210812D01*
X248156Y211270D01*
X248263Y211811D01*
X248156Y212352D01*
X247849Y212810D01*
X247391Y213116D01*
X246850Y213224D01*
D02*
G37*
G36*
X214780Y211543D02*
X213457D01*
Y210220D01*
X213693Y210266D01*
X214316Y210683D01*
X214733Y211307D01*
X214780Y211543D01*
D02*
G37*
G36*
X212457D02*
X211134D01*
X211180Y211307D01*
X211597Y210683D01*
X212221Y210266D01*
X212457Y210220D01*
Y211543D01*
D02*
G37*
G36*
X250787Y212437D02*
X250247Y212329D01*
X249788Y212023D01*
X249482Y211564D01*
X249374Y211024D01*
X249482Y210483D01*
X249788Y210024D01*
X250247Y209718D01*
X250787Y209611D01*
X251328Y209718D01*
X251786Y210024D01*
X252093Y210483D01*
X252200Y211024D01*
X252093Y211564D01*
X251786Y212023D01*
X251328Y212329D01*
X250787Y212437D01*
D02*
G37*
G36*
X258268Y212043D02*
X257727Y211935D01*
X257269Y211629D01*
X256962Y211171D01*
X256855Y210630D01*
X256962Y210089D01*
X257269Y209631D01*
X257727Y209325D01*
X258268Y209217D01*
X258808Y209325D01*
X259267Y209631D01*
X259573Y210089D01*
X259681Y210630D01*
X259573Y211171D01*
X259267Y211629D01*
X258808Y211935D01*
X258268Y212043D01*
D02*
G37*
G36*
X102217Y210524D02*
X100894D01*
Y209200D01*
X101129Y209247D01*
X101753Y209664D01*
X102170Y210288D01*
X102217Y210524D01*
D02*
G37*
G36*
X99894D02*
X98570D01*
X98617Y210288D01*
X99034Y209664D01*
X99658Y209247D01*
X99894Y209200D01*
Y210524D01*
D02*
G37*
G36*
X199213Y210074D02*
X198672Y209967D01*
X198214Y209661D01*
X197907Y209202D01*
X197800Y208661D01*
X197907Y208121D01*
X198214Y207662D01*
X198672Y207356D01*
X199213Y207248D01*
X199753Y207356D01*
X200212Y207662D01*
X200518Y208121D01*
X200626Y208661D01*
X200518Y209202D01*
X200212Y209661D01*
X199753Y209967D01*
X199213Y210074D01*
D02*
G37*
G36*
X49608Y213633D02*
X48754Y213520D01*
X47958Y213191D01*
X47274Y212666D01*
X46750Y211983D01*
X46420Y211187D01*
X46308Y210333D01*
X46420Y209479D01*
X46750Y208683D01*
X47274Y207999D01*
X47958Y207475D01*
X48754Y207145D01*
X49608Y207033D01*
X50462Y207145D01*
X51258Y207475D01*
X51941Y207999D01*
X52465Y208683D01*
X52795Y209479D01*
X52908Y210333D01*
X52795Y211187D01*
X52465Y211983D01*
X51941Y212666D01*
X51258Y213191D01*
X50462Y213520D01*
X49608Y213633D01*
D02*
G37*
G36*
X201909Y207335D02*
Y206012D01*
X203232D01*
X203186Y206248D01*
X202769Y206871D01*
X202145Y207288D01*
X201909Y207335D01*
D02*
G37*
G36*
X200909D02*
X200673Y207288D01*
X200049Y206871D01*
X199633Y206248D01*
X199586Y206012D01*
X200909D01*
Y207335D01*
D02*
G37*
G36*
X128847Y206154D02*
Y204831D01*
X130170D01*
X130123Y205066D01*
X129706Y205690D01*
X129082Y206107D01*
X128847Y206154D01*
D02*
G37*
G36*
X127847D02*
X127611Y206107D01*
X126987Y205690D01*
X126570Y205066D01*
X126523Y204831D01*
X127847D01*
Y206154D01*
D02*
G37*
G36*
X247638Y206728D02*
X247097Y206620D01*
X246639Y206314D01*
X246332Y205856D01*
X246225Y205315D01*
X246332Y204774D01*
X246639Y204316D01*
X247097Y204010D01*
X247638Y203902D01*
X248179Y204010D01*
X248637Y204316D01*
X248943Y204774D01*
X249051Y205315D01*
X248943Y205856D01*
X248637Y206314D01*
X248179Y206620D01*
X247638Y206728D01*
D02*
G37*
G36*
X203232Y205012D02*
X201909D01*
Y203689D01*
X202145Y203735D01*
X202769Y204152D01*
X203186Y204776D01*
X203232Y205012D01*
D02*
G37*
G36*
X200909D02*
X199586D01*
X199633Y204776D01*
X200049Y204152D01*
X200673Y203735D01*
X200909Y203689D01*
Y205012D01*
D02*
G37*
G36*
X260630Y206137D02*
X260089Y206030D01*
X259631Y205724D01*
X259325Y205265D01*
X259217Y204724D01*
X259325Y204184D01*
X259631Y203725D01*
X260089Y203419D01*
X260630Y203311D01*
X261171Y203419D01*
X261629Y203725D01*
X261935Y204184D01*
X262043Y204724D01*
X261935Y205265D01*
X261629Y205724D01*
X261171Y206030D01*
X260630Y206137D01*
D02*
G37*
G36*
X188583Y205802D02*
X188042Y205695D01*
X187584Y205389D01*
X187277Y204930D01*
X187170Y204390D01*
X187277Y203849D01*
X187584Y203390D01*
X188042Y203084D01*
X188583Y202976D01*
X189123Y203084D01*
X189582Y203390D01*
X189888Y203849D01*
X189996Y204390D01*
X189888Y204930D01*
X189582Y205389D01*
X189123Y205695D01*
X188583Y205802D01*
D02*
G37*
G36*
X130170Y203831D02*
X126523D01*
X126570Y203595D01*
X126987Y202971D01*
Y202934D01*
X126570Y202311D01*
X126523Y202075D01*
X130170D01*
X130123Y202311D01*
X129706Y202934D01*
Y202971D01*
X130123Y203595D01*
X130170Y203831D01*
D02*
G37*
G36*
X111958Y202898D02*
Y201575D01*
X113281D01*
X113234Y201811D01*
X112817Y202434D01*
X112194Y202851D01*
X111958Y202898D01*
D02*
G37*
G36*
X110958D02*
X110722Y202851D01*
X110098Y202434D01*
X109681Y201811D01*
X109634Y201575D01*
X110958D01*
Y202898D01*
D02*
G37*
G36*
X212205Y204563D02*
X211664Y204455D01*
X211206Y204149D01*
X210899Y203690D01*
X210792Y203150D01*
X210899Y202609D01*
X211206Y202151D01*
X211664Y201844D01*
X211531Y201378D01*
X211353Y201413D01*
X210812Y201305D01*
X210354Y200999D01*
X210048Y200541D01*
X209940Y200000D01*
X210048Y199459D01*
X210354Y199001D01*
X210216Y198492D01*
X210090Y198466D01*
X209631Y198160D01*
X209325Y197702D01*
X209218Y197161D01*
X209325Y196620D01*
X209631Y196162D01*
X210090Y195856D01*
X210630Y195748D01*
X211171Y195856D01*
X211630Y196162D01*
X211936Y196620D01*
X212043Y197161D01*
X211936Y197702D01*
X211630Y198160D01*
X211767Y198670D01*
X211894Y198695D01*
X212352Y199001D01*
X212658Y199459D01*
X212694Y199638D01*
X213239Y199876D01*
X213779Y199768D01*
X214320Y199876D01*
X214779Y200182D01*
X215085Y200640D01*
X215193Y201181D01*
X215085Y201722D01*
X214779Y202180D01*
X214320Y202486D01*
X213779Y202594D01*
X213601Y203068D01*
X213618Y203150D01*
X213510Y203690D01*
X213204Y204149D01*
X212745Y204455D01*
X212205Y204563D01*
D02*
G37*
G36*
X68893Y214966D02*
X67522Y214831D01*
X66203Y214431D01*
X64988Y213781D01*
X63923Y212907D01*
X63048Y211842D01*
X62399Y210626D01*
X61999Y209308D01*
X61864Y207936D01*
X61999Y206565D01*
X62399Y205246D01*
X63048Y204031D01*
X63923Y202965D01*
X64988Y202091D01*
X66203Y201441D01*
X67522Y201041D01*
X68893Y200906D01*
X70265Y201041D01*
X71584Y201441D01*
X72799Y202091D01*
X73864Y202965D01*
X74739Y204031D01*
X75388Y205246D01*
X75788Y206565D01*
X75924Y207936D01*
X75788Y209308D01*
X75388Y210626D01*
X74739Y211842D01*
X73864Y212907D01*
X72799Y213781D01*
X71584Y214431D01*
X70265Y214831D01*
X68893Y214966D01*
D02*
G37*
G36*
X192997Y203692D02*
X192456Y203585D01*
X191997Y203278D01*
X191691Y202820D01*
X191584Y202279D01*
X191691Y201738D01*
X191997Y201280D01*
X192456Y200974D01*
X192997Y200866D01*
X193537Y200974D01*
X193996Y201280D01*
X194302Y201738D01*
X194409Y202279D01*
X194302Y202820D01*
X193996Y203278D01*
X193537Y203585D01*
X192997Y203692D01*
D02*
G37*
G36*
X326878Y202163D02*
Y200840D01*
X328201D01*
X328154Y201076D01*
X327738Y201700D01*
X327114Y202116D01*
X326878Y202163D01*
D02*
G37*
G36*
X325878D02*
X325642Y202116D01*
X325018Y201700D01*
X324602Y201076D01*
X324555Y200840D01*
X325878D01*
Y202163D01*
D02*
G37*
G36*
X263779Y202978D02*
X263239Y202871D01*
X262780Y202565D01*
X262474Y202106D01*
X262367Y201565D01*
X262474Y201025D01*
X262780Y200566D01*
X263239Y200260D01*
X263779Y200152D01*
X264320Y200260D01*
X264779Y200566D01*
X265085Y201025D01*
X265193Y201565D01*
X265085Y202106D01*
X264779Y202565D01*
X264320Y202871D01*
X263779Y202978D01*
D02*
G37*
G36*
X93894Y206022D02*
X93095Y205917D01*
X92351Y205608D01*
X91712Y205118D01*
X91221Y204479D01*
X90913Y203735D01*
X90808Y202936D01*
X90913Y202138D01*
X91221Y201394D01*
X91712Y200754D01*
X92351Y200264D01*
X93095Y199956D01*
X93894Y199851D01*
X94692Y199956D01*
X95436Y200264D01*
X96075Y200754D01*
X96566Y201394D01*
X96874Y202138D01*
X96979Y202936D01*
X96874Y203735D01*
X96566Y204479D01*
X96075Y205118D01*
X95436Y205608D01*
X94692Y205917D01*
X93894Y206022D01*
D02*
G37*
G36*
X130170Y201075D02*
X126523D01*
X126570Y200839D01*
X126726Y200606D01*
X126976Y200197D01*
X126726Y199788D01*
X126570Y199555D01*
X126523Y199319D01*
X130170D01*
X130123Y199555D01*
X129967Y199788D01*
X129717Y200197D01*
X129967Y200606D01*
X130123Y200839D01*
X130170Y201075D01*
D02*
G37*
G36*
X113281Y200575D02*
X111958D01*
Y199251D01*
X112194Y199298D01*
X112817Y199715D01*
X113234Y200339D01*
X113281Y200575D01*
D02*
G37*
G36*
X110958D02*
X109634D01*
X109681Y200339D01*
X110098Y199715D01*
X110722Y199298D01*
X110958Y199251D01*
Y200575D01*
D02*
G37*
G36*
X258268Y201753D02*
X257727Y201645D01*
X257269Y201339D01*
X256962Y200881D01*
X256855Y200340D01*
X256962Y199799D01*
X257269Y199341D01*
X257727Y199035D01*
X258268Y198927D01*
X258808Y199035D01*
X259267Y199341D01*
X259573Y199799D01*
X259681Y200340D01*
X259573Y200881D01*
X259267Y201339D01*
X258808Y201645D01*
X258268Y201753D01*
D02*
G37*
G36*
X328201Y199840D02*
X326878D01*
Y198517D01*
X327114Y198564D01*
X327738Y198980D01*
X328154Y199604D01*
X328201Y199840D01*
D02*
G37*
G36*
X325878D02*
X324555D01*
X324602Y199604D01*
X325018Y198980D01*
X325642Y198564D01*
X325878Y198517D01*
Y199840D01*
D02*
G37*
G36*
X247929Y199791D02*
X247389Y199684D01*
X246930Y199378D01*
X246624Y198919D01*
X246516Y198378D01*
X246624Y197838D01*
X246637Y197818D01*
X246337Y197368D01*
X246198Y197395D01*
X245462Y197249D01*
X244838Y196832D01*
X244421Y196208D01*
X244374Y195972D01*
X248021D01*
X247974Y196208D01*
X247790Y196483D01*
X247839Y196652D01*
X248053Y196990D01*
X248470Y197073D01*
X248928Y197379D01*
X249235Y197838D01*
X249342Y198378D01*
X249235Y198919D01*
X248928Y199378D01*
X248470Y199684D01*
X247929Y199791D01*
D02*
G37*
G36*
X202457Y198378D02*
Y197055D01*
X203781D01*
X203734Y197291D01*
X203317Y197915D01*
X202693Y198331D01*
X202457Y198378D01*
D02*
G37*
G36*
X201458D02*
X201222Y198331D01*
X200598Y197915D01*
X200181Y197291D01*
X200134Y197055D01*
X201458D01*
Y198378D01*
D02*
G37*
G36*
X55594Y203640D02*
X54740Y203527D01*
X53944Y203198D01*
X53261Y202674D01*
X52736Y201990D01*
X52407Y201194D01*
X52294Y200340D01*
X52407Y199486D01*
X52736Y198690D01*
X53261Y198007D01*
X53944Y197482D01*
X54740Y197153D01*
X55594Y197040D01*
X56448Y197153D01*
X57244Y197482D01*
X57927Y198007D01*
X58452Y198690D01*
X58781Y199486D01*
X58894Y200340D01*
X58781Y201194D01*
X58452Y201990D01*
X57927Y202674D01*
X57244Y203198D01*
X56448Y203527D01*
X55594Y203640D01*
D02*
G37*
G36*
X130170Y198319D02*
X128847D01*
Y196996D01*
X129082Y197043D01*
X129706Y197459D01*
X130123Y198083D01*
X130170Y198319D01*
D02*
G37*
G36*
X127847D02*
X126523D01*
X126570Y198083D01*
X126987Y197459D01*
X127611Y197043D01*
X127847Y196996D01*
Y198319D01*
D02*
G37*
G36*
X196161Y199346D02*
X195621Y199239D01*
X195162Y198932D01*
X194856Y198474D01*
X194748Y197933D01*
X194856Y197392D01*
X195162Y196934D01*
X195621Y196628D01*
X196161Y196520D01*
X196702Y196628D01*
X197160Y196934D01*
X197467Y197392D01*
X197574Y197933D01*
X197467Y198474D01*
X197160Y198932D01*
X196702Y199239D01*
X196161Y199346D01*
D02*
G37*
G36*
X103894Y201022D02*
X103095Y200917D01*
X102351Y200608D01*
X101712Y200118D01*
X101222Y199479D01*
X100913Y198735D01*
X100808Y197936D01*
X100913Y197138D01*
X101222Y196394D01*
X101712Y195754D01*
X102351Y195264D01*
X103095Y194956D01*
X103894Y194851D01*
X104692Y194956D01*
X105436Y195264D01*
X106075Y195754D01*
X106566Y196394D01*
X106874Y197138D01*
X106979Y197936D01*
X106874Y198735D01*
X106566Y199479D01*
X106075Y200118D01*
X105436Y200608D01*
X104692Y200917D01*
X103894Y201022D01*
D02*
G37*
G36*
X203781Y196055D02*
X202457D01*
Y194732D01*
X202693Y194779D01*
X203317Y195195D01*
X203734Y195819D01*
X203781Y196055D01*
D02*
G37*
G36*
X201458D02*
X200134D01*
X200181Y195819D01*
X200598Y195195D01*
X201222Y194779D01*
X201458Y194732D01*
Y196055D01*
D02*
G37*
G36*
X293307Y197161D02*
X292766Y197054D01*
X292308Y196747D01*
X292002Y196289D01*
X291894Y195748D01*
X292002Y195207D01*
X292308Y194749D01*
X292766Y194443D01*
X293307Y194335D01*
X293848Y194443D01*
X294306Y194749D01*
X294613Y195207D01*
X294720Y195748D01*
X294613Y196289D01*
X294306Y196747D01*
X293848Y197054D01*
X293307Y197161D01*
D02*
G37*
G36*
X342331Y195130D02*
Y193807D01*
X343654D01*
X343607Y194043D01*
X343190Y194667D01*
X342566Y195083D01*
X342331Y195130D01*
D02*
G37*
G36*
X341331D02*
X341095Y195083D01*
X340471Y194667D01*
X340054Y194043D01*
X340007Y193807D01*
X341331D01*
Y195130D01*
D02*
G37*
G36*
X248021Y194972D02*
X246698D01*
Y193649D01*
X246934Y193696D01*
X247557Y194113D01*
X247974Y194737D01*
X248021Y194972D01*
D02*
G37*
G36*
X245698D02*
X244374D01*
X244421Y194737D01*
X244838Y194113D01*
X245462Y193696D01*
X245698Y193649D01*
Y194972D01*
D02*
G37*
G36*
X145283Y194343D02*
Y193020D01*
X146607D01*
X146560Y193255D01*
X146143Y193879D01*
X145519Y194296D01*
X145283Y194343D01*
D02*
G37*
G36*
X343654Y192807D02*
X342331D01*
Y191484D01*
X342566Y191531D01*
X343190Y191947D01*
X343607Y192571D01*
X343654Y192807D01*
D02*
G37*
G36*
X341331D02*
X340007D01*
X340054Y192571D01*
X340471Y191947D01*
X341095Y191531D01*
X341331Y191484D01*
Y192807D01*
D02*
G37*
G36*
X93894Y196022D02*
X93095Y195916D01*
X92351Y195608D01*
X91712Y195118D01*
X91221Y194479D01*
X90913Y193735D01*
X90808Y192936D01*
X90913Y192138D01*
X91221Y191393D01*
X91712Y190754D01*
X92351Y190264D01*
X93095Y189956D01*
X93894Y189851D01*
X94692Y189956D01*
X95436Y190264D01*
X96075Y190754D01*
X96566Y191393D01*
X96874Y192138D01*
X96979Y192936D01*
X96874Y193735D01*
X96566Y194479D01*
X96075Y195118D01*
X95436Y195608D01*
X94692Y195916D01*
X93894Y196022D01*
D02*
G37*
G36*
X186221Y192063D02*
X185680Y191955D01*
X185221Y191649D01*
X184915Y191190D01*
X184808Y190650D01*
X184915Y190109D01*
X185221Y189650D01*
X185680Y189344D01*
X186221Y189237D01*
X186761Y189344D01*
X187220Y189650D01*
X187526Y190109D01*
X187633Y190650D01*
X187526Y191190D01*
X187220Y191649D01*
X186761Y191955D01*
X186221Y192063D01*
D02*
G37*
G36*
X144283Y194343D02*
X144048Y194296D01*
X143424Y193879D01*
X143007Y193255D01*
X142930Y192871D01*
X142520Y192474D01*
X141784Y192328D01*
X141160Y191911D01*
X140743Y191287D01*
X140696Y191051D01*
X142520D01*
Y190551D01*
X143020D01*
Y188728D01*
X143255Y188775D01*
X143879Y189192D01*
X144296Y189815D01*
X144373Y190200D01*
X144783Y190597D01*
X145519Y190743D01*
X146143Y191160D01*
X146560Y191784D01*
X146607Y192020D01*
X144783D01*
Y192520D01*
X144283D01*
Y194343D01*
D02*
G37*
G36*
X142020Y190051D02*
X140696D01*
X140743Y189815D01*
X141160Y189192D01*
X141784Y188775D01*
X142020Y188728D01*
Y190051D01*
D02*
G37*
G36*
X248031Y191177D02*
X247491Y191069D01*
X247032Y190763D01*
X246726Y190305D01*
X246619Y189764D01*
X246726Y189223D01*
X247032Y188765D01*
X247491Y188458D01*
X248031Y188351D01*
X248572Y188458D01*
X249031Y188765D01*
X249337Y189223D01*
X249445Y189764D01*
X249337Y190305D01*
X249031Y190763D01*
X248572Y191069D01*
X248031Y191177D01*
D02*
G37*
G36*
X198041Y189996D02*
X197501Y189888D01*
X197042Y189582D01*
X196736Y189123D01*
X196628Y188583D01*
X196736Y188042D01*
X197042Y187584D01*
X197501Y187277D01*
X198041Y187170D01*
X198582Y187277D01*
X199040Y187584D01*
X199347Y188042D01*
X199454Y188583D01*
X199347Y189123D01*
X199040Y189582D01*
X198582Y189888D01*
X198041Y189996D01*
D02*
G37*
G36*
X103894Y191022D02*
X103095Y190917D01*
X102351Y190608D01*
X101712Y190118D01*
X101222Y189479D01*
X100913Y188735D01*
X100808Y187936D01*
X100913Y187138D01*
X101222Y186393D01*
X101712Y185754D01*
X102351Y185264D01*
X103095Y184956D01*
X103894Y184851D01*
X104692Y184956D01*
X105436Y185264D01*
X106075Y185754D01*
X106566Y186393D01*
X106874Y187138D01*
X106979Y187936D01*
X106874Y188735D01*
X106566Y189479D01*
X106075Y190118D01*
X105436Y190608D01*
X104692Y190917D01*
X103894Y191022D01*
D02*
G37*
G36*
X70284Y184501D02*
Y183177D01*
X71607D01*
X71560Y183413D01*
X71143Y184037D01*
X70519Y184454D01*
X70284Y184501D01*
D02*
G37*
G36*
X69283D02*
X69048Y184454D01*
X68424Y184037D01*
X68007Y183413D01*
X67960Y183177D01*
X69283D01*
Y184501D01*
D02*
G37*
G36*
X224803Y185665D02*
X224262Y185557D01*
X223804Y185251D01*
X223498Y184793D01*
X223390Y184252D01*
X223498Y183711D01*
X223804Y183253D01*
X224262Y182947D01*
X224803Y182839D01*
X225344Y182947D01*
X225743Y183213D01*
X225968Y183134D01*
X226203Y182965D01*
X226146Y182677D01*
X226254Y182136D01*
X226560Y181678D01*
X227018Y181372D01*
X227559Y181264D01*
X228100Y181372D01*
X228558Y181678D01*
X228865Y182136D01*
X228972Y182677D01*
X228865Y183218D01*
X228558Y183676D01*
X228100Y183983D01*
X227559Y184090D01*
X227018Y183983D01*
X226619Y183716D01*
X226394Y183795D01*
X226159Y183964D01*
X226216Y184252D01*
X226109Y184793D01*
X225802Y185251D01*
X225344Y185557D01*
X224803Y185665D01*
D02*
G37*
G36*
X71607Y182177D02*
X70284D01*
Y180854D01*
X70519Y180901D01*
X71143Y181318D01*
X71560Y181941D01*
X71607Y182177D01*
D02*
G37*
G36*
X69283D02*
X67960D01*
X68007Y181941D01*
X68424Y181318D01*
X69048Y180901D01*
X69283Y180854D01*
Y182177D01*
D02*
G37*
G36*
X93894Y186022D02*
X93095Y185916D01*
X92351Y185608D01*
X91712Y185118D01*
X91221Y184479D01*
X90913Y183735D01*
X90808Y182936D01*
X90913Y182138D01*
X91221Y181394D01*
X91712Y180754D01*
X92351Y180264D01*
X93095Y179956D01*
X93894Y179851D01*
X94692Y179956D01*
X95436Y180264D01*
X96075Y180754D01*
X96566Y181394D01*
X96874Y182138D01*
X96979Y182936D01*
X96874Y183735D01*
X96566Y184479D01*
X96075Y185118D01*
X95436Y185608D01*
X94692Y185916D01*
X93894Y186022D01*
D02*
G37*
G36*
X244881Y182121D02*
X244341Y182014D01*
X243882Y181707D01*
X243576Y181249D01*
X243468Y180708D01*
X243576Y180168D01*
X243882Y179709D01*
X244341Y179403D01*
X244881Y179295D01*
X245422Y179403D01*
X245881Y179709D01*
X246187Y180168D01*
X246294Y180708D01*
X246187Y181249D01*
X245881Y181707D01*
X245422Y182014D01*
X244881Y182121D01*
D02*
G37*
G36*
X240551Y181728D02*
X240010Y181620D01*
X239552Y181314D01*
X239246Y180856D01*
X239138Y180315D01*
X239246Y179774D01*
X239552Y179316D01*
X240010Y179009D01*
X240551Y178902D01*
X241092Y179009D01*
X241550Y179316D01*
X241857Y179774D01*
X241964Y180315D01*
X241857Y180856D01*
X241550Y181314D01*
X241092Y181620D01*
X240551Y181728D01*
D02*
G37*
G36*
X183968Y181618D02*
X183427Y181511D01*
X182969Y181205D01*
X182662Y180746D01*
X182555Y180206D01*
X182662Y179665D01*
X182969Y179206D01*
X183427Y178900D01*
X183968Y178793D01*
X184508Y178900D01*
X184967Y179206D01*
X185273Y179665D01*
X185381Y180206D01*
X185273Y180746D01*
X184967Y181205D01*
X184508Y181511D01*
X183968Y181618D01*
D02*
G37*
G36*
X216402Y181526D02*
X215861Y181418D01*
X215403Y181112D01*
X215096Y180653D01*
X214989Y180113D01*
X215096Y179572D01*
X215403Y179113D01*
X215861Y178807D01*
X216402Y178700D01*
X216943Y178807D01*
X217401Y179113D01*
X217707Y179572D01*
X217815Y180113D01*
X217707Y180653D01*
X217401Y181112D01*
X216943Y181418D01*
X216402Y181526D01*
D02*
G37*
G36*
X247846Y179759D02*
X247305Y179652D01*
X246847Y179346D01*
X246541Y178887D01*
X246433Y178347D01*
X246482Y178100D01*
X246408Y177987D01*
X246049Y177715D01*
X245669Y177791D01*
X245129Y177683D01*
X244670Y177377D01*
X244364Y176919D01*
X244256Y176378D01*
X244364Y175837D01*
X244670Y175379D01*
X245129Y175073D01*
X245669Y174965D01*
X246210Y175073D01*
X246668Y175379D01*
X246975Y175837D01*
X247082Y176378D01*
X247033Y176624D01*
X247107Y176737D01*
X247466Y177009D01*
X247846Y176934D01*
X248387Y177041D01*
X248845Y177347D01*
X249152Y177806D01*
X249259Y178347D01*
X249152Y178887D01*
X248845Y179346D01*
X248387Y179652D01*
X247846Y179759D01*
D02*
G37*
G36*
X206693D02*
X206152Y179652D01*
X205694Y179346D01*
X205387Y178887D01*
X205280Y178347D01*
X205387Y177806D01*
X205694Y177347D01*
X206152Y177041D01*
X206693Y176934D01*
X207234Y177041D01*
X207692Y177347D01*
X207998Y177806D01*
X208106Y178347D01*
X207998Y178887D01*
X207692Y179346D01*
X207234Y179652D01*
X206693Y179759D01*
D02*
G37*
G36*
X235826Y179365D02*
X235286Y179258D01*
X234827Y178952D01*
X234521Y178493D01*
X234413Y177952D01*
X234521Y177412D01*
X234827Y176953D01*
X235286Y176647D01*
X235826Y176539D01*
X236367Y176647D01*
X236825Y176953D01*
X237132Y177412D01*
X237239Y177952D01*
X237132Y178493D01*
X236825Y178952D01*
X236367Y179258D01*
X235826Y179365D01*
D02*
G37*
G36*
X231890Y178185D02*
X231349Y178077D01*
X230891Y177771D01*
X230584Y177312D01*
X230477Y176772D01*
X230584Y176231D01*
X230891Y175773D01*
X231349Y175466D01*
X231890Y175359D01*
X232431Y175466D01*
X232889Y175773D01*
X233195Y176231D01*
X233303Y176772D01*
X233195Y177312D01*
X232889Y177771D01*
X232431Y178077D01*
X231890Y178185D01*
D02*
G37*
G36*
X224016Y177805D02*
X223475Y177697D01*
X223017Y177391D01*
X222710Y176932D01*
X222603Y176392D01*
X222710Y175851D01*
X223017Y175392D01*
X223475Y175086D01*
X224016Y174979D01*
X224556Y175086D01*
X225015Y175392D01*
X225321Y175851D01*
X225429Y176392D01*
X225321Y176932D01*
X225015Y177391D01*
X224556Y177697D01*
X224016Y177805D01*
D02*
G37*
G36*
X103894Y181022D02*
X103095Y180917D01*
X102351Y180608D01*
X101712Y180118D01*
X101222Y179479D01*
X100913Y178735D01*
X100808Y177936D01*
X100913Y177138D01*
X101222Y176393D01*
X101712Y175754D01*
X102351Y175264D01*
X103095Y174956D01*
X103894Y174851D01*
X104692Y174956D01*
X105436Y175264D01*
X106075Y175754D01*
X106566Y176393D01*
X106874Y177138D01*
X106979Y177936D01*
X106874Y178735D01*
X106566Y179479D01*
X106075Y180118D01*
X105436Y180608D01*
X104692Y180917D01*
X103894Y181022D01*
D02*
G37*
G36*
X265914Y177397D02*
X265374Y177290D01*
X264915Y176983D01*
X264609Y176525D01*
X264501Y175984D01*
X264609Y175443D01*
X264915Y174985D01*
X265374Y174679D01*
X265914Y174571D01*
X266455Y174679D01*
X266914Y174985D01*
X267220Y175443D01*
X267327Y175984D01*
X267220Y176525D01*
X266914Y176983D01*
X266455Y177290D01*
X265914Y177397D01*
D02*
G37*
G36*
X210236Y176610D02*
X209696Y176502D01*
X209237Y176196D01*
X208931Y175738D01*
X208823Y175197D01*
X208931Y174656D01*
X209237Y174198D01*
X209696Y173891D01*
X210236Y173784D01*
X210777Y173891D01*
X211235Y174198D01*
X211542Y174656D01*
X211649Y175197D01*
X211542Y175738D01*
X211235Y176196D01*
X210777Y176502D01*
X210236Y176610D01*
D02*
G37*
G36*
X331209Y173083D02*
Y171760D01*
X332532D01*
X332485Y171996D01*
X332068Y172619D01*
X331445Y173036D01*
X331209Y173083D01*
D02*
G37*
G36*
X330209D02*
X329973Y173036D01*
X329349Y172619D01*
X328932Y171996D01*
X328885Y171760D01*
X330209D01*
Y173083D01*
D02*
G37*
G36*
X93894Y176022D02*
X93095Y175917D01*
X92351Y175608D01*
X91712Y175118D01*
X91221Y174479D01*
X90913Y173735D01*
X90808Y172936D01*
X90913Y172138D01*
X91221Y171394D01*
X91712Y170754D01*
X92351Y170264D01*
X93095Y169956D01*
X93894Y169851D01*
X94692Y169956D01*
X95436Y170264D01*
X96075Y170754D01*
X96566Y171394D01*
X96874Y172138D01*
X96979Y172936D01*
X96874Y173735D01*
X96566Y174479D01*
X96075Y175118D01*
X95436Y175608D01*
X94692Y175917D01*
X93894Y176022D01*
D02*
G37*
G36*
X332532Y170760D02*
X331209D01*
Y169437D01*
X331445Y169483D01*
X332068Y169900D01*
X332485Y170524D01*
X332532Y170760D01*
D02*
G37*
G36*
X330209D02*
X328885D01*
X328932Y170524D01*
X329349Y169900D01*
X329973Y169483D01*
X330209Y169437D01*
Y170760D01*
D02*
G37*
G36*
X189469Y171113D02*
X188928Y171005D01*
X188469Y170699D01*
X188163Y170241D01*
X188056Y169700D01*
X188163Y169159D01*
X188469Y168701D01*
X188928Y168395D01*
X189469Y168287D01*
X190009Y168395D01*
X190468Y168701D01*
X190774Y169159D01*
X190882Y169700D01*
X190774Y170241D01*
X190468Y170699D01*
X190009Y171005D01*
X189469Y171113D01*
D02*
G37*
G36*
X286171Y170704D02*
X285630Y170597D01*
X285172Y170291D01*
X284865Y169832D01*
X284758Y169291D01*
X284865Y168751D01*
X285172Y168292D01*
X285630Y167986D01*
X286171Y167878D01*
X286711Y167986D01*
X287170Y168292D01*
X287476Y168751D01*
X287584Y169291D01*
X287476Y169832D01*
X287170Y170291D01*
X286711Y170597D01*
X286171Y170704D01*
D02*
G37*
G36*
X316445Y169146D02*
Y167823D01*
X317768D01*
X317721Y168059D01*
X317304Y168682D01*
X316681Y169099D01*
X316445Y169146D01*
D02*
G37*
G36*
X315445D02*
X315209Y169099D01*
X314585Y168682D01*
X314169Y168059D01*
X314122Y167823D01*
X315445D01*
Y169146D01*
D02*
G37*
G36*
X49610Y173837D02*
X48756Y173724D01*
X47960Y173395D01*
X47276Y172870D01*
X46752Y172187D01*
X46422Y171391D01*
X46310Y170537D01*
X46422Y169683D01*
X46752Y168887D01*
X47276Y168204D01*
X47960Y167679D01*
X48756Y167350D01*
X49610Y167237D01*
X50464Y167350D01*
X51260Y167679D01*
X51943Y168204D01*
X52468Y168887D01*
X52797Y169683D01*
X52910Y170537D01*
X52797Y171391D01*
X52468Y172187D01*
X51943Y172870D01*
X51260Y173395D01*
X50464Y173724D01*
X49610Y173837D01*
D02*
G37*
G36*
X201958Y169512D02*
X201417Y169405D01*
X200958Y169098D01*
X200652Y168640D01*
X200545Y168099D01*
X200652Y167559D01*
X200958Y167100D01*
X201417Y166794D01*
X201958Y166686D01*
X202498Y166794D01*
X202957Y167100D01*
X203263Y167559D01*
X203370Y168099D01*
X203263Y168640D01*
X202957Y169098D01*
X202498Y169405D01*
X201958Y169512D01*
D02*
G37*
G36*
X317768Y166823D02*
X316445D01*
Y165499D01*
X316681Y165546D01*
X317304Y165963D01*
X317721Y166587D01*
X317768Y166823D01*
D02*
G37*
G36*
X315445D02*
X314122D01*
X314169Y166587D01*
X314585Y165963D01*
X315209Y165546D01*
X315445Y165499D01*
Y166823D01*
D02*
G37*
G36*
X185800Y167975D02*
X185259Y167868D01*
X184801Y167561D01*
X184495Y167103D01*
X184387Y166562D01*
X184495Y166022D01*
X184801Y165563D01*
X185259Y165257D01*
X185800Y165149D01*
X186341Y165257D01*
X186799Y165563D01*
X187105Y166022D01*
X187213Y166562D01*
X187105Y167103D01*
X186799Y167561D01*
X186341Y167868D01*
X185800Y167975D01*
D02*
G37*
G36*
X103894Y171022D02*
X103095Y170916D01*
X102351Y170608D01*
X101712Y170118D01*
X101222Y169479D01*
X100913Y168735D01*
X100808Y167936D01*
X100913Y167138D01*
X101222Y166393D01*
X101712Y165754D01*
X102351Y165264D01*
X103095Y164956D01*
X103894Y164851D01*
X104692Y164956D01*
X105436Y165264D01*
X106075Y165754D01*
X106566Y166393D01*
X106874Y167138D01*
X106979Y167936D01*
X106874Y168735D01*
X106566Y169479D01*
X106075Y170118D01*
X105436Y170608D01*
X104692Y170916D01*
X103894Y171022D01*
D02*
G37*
G36*
X198342Y167213D02*
X197801Y167105D01*
X197343Y166799D01*
X197036Y166341D01*
X196929Y165800D01*
X197036Y165259D01*
X197343Y164801D01*
X197801Y164495D01*
X198342Y164387D01*
X198882Y164495D01*
X199341Y164801D01*
X199647Y165259D01*
X199755Y165800D01*
X199647Y166341D01*
X199341Y166799D01*
X198882Y167105D01*
X198342Y167213D01*
D02*
G37*
G36*
X116642Y165391D02*
Y164067D01*
X117965D01*
X117918Y164303D01*
X117501Y164927D01*
X116877Y165344D01*
X116642Y165391D01*
D02*
G37*
G36*
X115642D02*
X115406Y165344D01*
X114782Y164927D01*
X114365Y164303D01*
X114318Y164067D01*
X115642D01*
Y165391D01*
D02*
G37*
G36*
X203937Y165980D02*
X203396Y165872D01*
X202938Y165566D01*
X202631Y165107D01*
X202524Y164567D01*
X202631Y164026D01*
X202938Y163567D01*
X203396Y163261D01*
X203937Y163154D01*
X204477Y163261D01*
X204936Y163567D01*
X205242Y164026D01*
X205350Y164567D01*
X205242Y165107D01*
X204936Y165566D01*
X204477Y165872D01*
X203937Y165980D01*
D02*
G37*
G36*
X172834D02*
X172294Y165872D01*
X171835Y165566D01*
X171529Y165107D01*
X171421Y164567D01*
X171529Y164026D01*
X171835Y163567D01*
X172294Y163261D01*
X172834Y163154D01*
X173375Y163261D01*
X173833Y163567D01*
X174140Y164026D01*
X174247Y164567D01*
X174140Y165107D01*
X173833Y165566D01*
X173375Y165872D01*
X172834Y165980D01*
D02*
G37*
G36*
X258374Y163634D02*
Y162311D01*
X259697D01*
X259650Y162547D01*
X259234Y163171D01*
X258610Y163587D01*
X258374Y163634D01*
D02*
G37*
G36*
X257374D02*
X257138Y163587D01*
X256514Y163171D01*
X256098Y162547D01*
X256051Y162311D01*
X257374D01*
Y163634D01*
D02*
G37*
G36*
X117965Y163067D02*
X116642D01*
Y161744D01*
X116877Y161791D01*
X117501Y162208D01*
X117918Y162832D01*
X117965Y163067D01*
D02*
G37*
G36*
X115642D02*
X114318D01*
X114365Y162832D01*
X114782Y162208D01*
X115406Y161791D01*
X115642Y161744D01*
Y163067D01*
D02*
G37*
G36*
X199585Y161944D02*
X199045Y161837D01*
X198586Y161531D01*
X198502Y161405D01*
X197948Y161334D01*
X197490Y161640D01*
X196949Y161748D01*
X196408Y161640D01*
X195950Y161334D01*
X195643Y160875D01*
X195536Y160335D01*
X195643Y159794D01*
X195950Y159335D01*
X196408Y159029D01*
X196949Y158922D01*
X197490Y159029D01*
X197948Y159335D01*
X198032Y159461D01*
X198586Y159532D01*
X199014Y159247D01*
X199393Y158915D01*
X199286Y158374D01*
X199393Y157833D01*
X199700Y157375D01*
X200158Y157069D01*
X200699Y156961D01*
X201239Y157069D01*
X201698Y157375D01*
X202004Y157833D01*
X202112Y158374D01*
X202004Y158915D01*
X201698Y159373D01*
X201270Y159659D01*
X200891Y159991D01*
X200998Y160531D01*
X200891Y161072D01*
X200584Y161531D01*
X200126Y161837D01*
X199585Y161944D01*
D02*
G37*
G36*
X218152Y162611D02*
Y161288D01*
X219475D01*
X219428Y161524D01*
X219012Y162147D01*
X218388Y162564D01*
X218152Y162611D01*
D02*
G37*
G36*
X217152D02*
X216916Y162564D01*
X216292Y162147D01*
X215876Y161524D01*
X215829Y161288D01*
X217152D01*
Y162611D01*
D02*
G37*
G36*
X207087Y162830D02*
X206546Y162723D01*
X206087Y162416D01*
X205781Y161958D01*
X205674Y161417D01*
X205781Y160877D01*
X206087Y160418D01*
X206546Y160112D01*
X207087Y160004D01*
X207627Y160112D01*
X208086Y160418D01*
X208392Y160877D01*
X208500Y161417D01*
X208392Y161958D01*
X208086Y162416D01*
X207627Y162723D01*
X207087Y162830D01*
D02*
G37*
G36*
X259697Y161311D02*
X258374D01*
Y159988D01*
X258610Y160035D01*
X259234Y160451D01*
X259650Y161075D01*
X259697Y161311D01*
D02*
G37*
G36*
X257374D02*
X256051D01*
X256098Y161075D01*
X256514Y160451D01*
X257138Y160035D01*
X257374Y159988D01*
Y161311D01*
D02*
G37*
G36*
X236879Y160738D02*
Y159415D01*
X238203D01*
X238156Y159650D01*
X237739Y160274D01*
X237115Y160691D01*
X236879Y160738D01*
D02*
G37*
G36*
X235879D02*
X235644Y160691D01*
X235020Y160274D01*
X234603Y159650D01*
X234556Y159415D01*
X235879D01*
Y160738D01*
D02*
G37*
G36*
X176179Y161943D02*
X175638Y161835D01*
X175180Y161529D01*
X174874Y161070D01*
X174766Y160530D01*
X174874Y159989D01*
X175180Y159530D01*
X175638Y159224D01*
X176179Y159117D01*
X176720Y159224D01*
X177178Y159530D01*
X177485Y159989D01*
X177592Y160530D01*
X177485Y161070D01*
X177178Y161529D01*
X176720Y161835D01*
X176179Y161943D01*
D02*
G37*
G36*
X219475Y160288D02*
X218152D01*
Y158965D01*
X218388Y159011D01*
X219012Y159428D01*
X219428Y160052D01*
X219475Y160288D01*
D02*
G37*
G36*
X217152D02*
X215829D01*
X215876Y160052D01*
X216292Y159428D01*
X216916Y159011D01*
X217152Y158965D01*
Y160288D01*
D02*
G37*
G36*
X185900Y160862D02*
X185359Y160754D01*
X184901Y160448D01*
X184595Y159990D01*
X184487Y159449D01*
X184595Y158908D01*
X184901Y158450D01*
X185359Y158143D01*
X185900Y158036D01*
X186441Y158143D01*
X186899Y158450D01*
X187205Y158908D01*
X187313Y159449D01*
X187205Y159990D01*
X186899Y160448D01*
X186441Y160754D01*
X185900Y160862D01*
D02*
G37*
G36*
X98925Y159166D02*
Y157842D01*
X100249D01*
X100202Y158078D01*
X99785Y158702D01*
X99161Y159119D01*
X98925Y159166D01*
D02*
G37*
G36*
X97925D02*
X97689Y159119D01*
X97066Y158702D01*
X96649Y158078D01*
X96602Y157842D01*
X97925D01*
Y159166D01*
D02*
G37*
G36*
X209842Y160444D02*
X209302Y160337D01*
X208843Y160030D01*
X208537Y159572D01*
X208430Y159031D01*
X208537Y158491D01*
X208843Y158032D01*
X209302Y157726D01*
X209842Y157618D01*
X210383Y157726D01*
X210842Y158032D01*
X211148Y158491D01*
X211256Y159031D01*
X211148Y159572D01*
X210842Y160030D01*
X210383Y160337D01*
X209842Y160444D01*
D02*
G37*
G36*
X55592Y163830D02*
X54738Y163717D01*
X53942Y163387D01*
X53259Y162863D01*
X52734Y162180D01*
X52405Y161384D01*
X52292Y160530D01*
X52405Y159676D01*
X52734Y158880D01*
X53259Y158196D01*
X53942Y157672D01*
X54738Y157342D01*
X55592Y157230D01*
X56446Y157342D01*
X57242Y157672D01*
X57925Y158196D01*
X58450Y158880D01*
X58779Y159676D01*
X58892Y160530D01*
X58779Y161384D01*
X58450Y162180D01*
X57925Y162863D01*
X57242Y163387D01*
X56446Y163717D01*
X55592Y163830D01*
D02*
G37*
G36*
X238203Y158415D02*
X236879D01*
Y157091D01*
X237115Y157138D01*
X237739Y157555D01*
X238156Y158179D01*
X238203Y158415D01*
D02*
G37*
G36*
X235879D02*
X234556D01*
X234603Y158179D01*
X235020Y157555D01*
X235644Y157138D01*
X235879Y157091D01*
Y158415D01*
D02*
G37*
G36*
X68893Y169966D02*
X67522Y169831D01*
X66203Y169431D01*
X64988Y168781D01*
X63923Y167907D01*
X63048Y166842D01*
X62399Y165626D01*
X61999Y164308D01*
X61864Y162936D01*
X61999Y161565D01*
X62399Y160246D01*
X63048Y159031D01*
X63923Y157965D01*
X64988Y157091D01*
X66203Y156441D01*
X67522Y156041D01*
X68893Y155906D01*
X70265Y156041D01*
X71584Y156441D01*
X72799Y157091D01*
X73864Y157965D01*
X74739Y159031D01*
X75388Y160246D01*
X75788Y161565D01*
X75924Y162936D01*
X75788Y164308D01*
X75388Y165626D01*
X74739Y166842D01*
X73864Y167907D01*
X72799Y168781D01*
X71584Y169431D01*
X70265Y169831D01*
X68893Y169966D01*
D02*
G37*
G36*
X100249Y156842D02*
X98925D01*
Y155519D01*
X99161Y155566D01*
X99785Y155983D01*
X100202Y156606D01*
X100249Y156842D01*
D02*
G37*
G36*
X97925D02*
X96602D01*
X96649Y156606D01*
X97066Y155983D01*
X97689Y155566D01*
X97925Y155519D01*
Y156842D01*
D02*
G37*
G36*
X228937Y156925D02*
X228396Y156817D01*
X227938Y156511D01*
X227632Y156052D01*
X227524Y155512D01*
X227632Y154971D01*
X227938Y154513D01*
X228396Y154206D01*
X228937Y154099D01*
X229478Y154206D01*
X229936Y154513D01*
X230242Y154971D01*
X230350Y155512D01*
X230242Y156052D01*
X229936Y156511D01*
X229478Y156817D01*
X228937Y156925D01*
D02*
G37*
G36*
X193150D02*
X192610Y156817D01*
X192151Y156511D01*
X191845Y156052D01*
X191737Y155512D01*
X191845Y154971D01*
X192151Y154513D01*
X192610Y154206D01*
X193150Y154099D01*
X193691Y154206D01*
X194150Y154513D01*
X194456Y154971D01*
X194563Y155512D01*
X194456Y156052D01*
X194150Y156511D01*
X193691Y156817D01*
X193150Y156925D01*
D02*
G37*
G36*
X46700Y155223D02*
Y153900D01*
X48023D01*
X47976Y154136D01*
X47560Y154760D01*
X46936Y155176D01*
X46700Y155223D01*
D02*
G37*
G36*
X45700D02*
X45464Y155176D01*
X44840Y154760D01*
X44424Y154136D01*
X44377Y153900D01*
X45700D01*
Y155223D01*
D02*
G37*
G36*
X180224Y154678D02*
Y153354D01*
X181548D01*
X181501Y153590D01*
X181084Y154214D01*
X180460Y154631D01*
X180224Y154678D01*
D02*
G37*
G36*
X179224D02*
X178989Y154631D01*
X178365Y154214D01*
X177948Y153590D01*
X177901Y153354D01*
X179224D01*
Y154678D01*
D02*
G37*
G36*
X48023Y152900D02*
X46700D01*
Y151577D01*
X46936Y151624D01*
X47560Y152040D01*
X47976Y152664D01*
X48023Y152900D01*
D02*
G37*
G36*
X45700D02*
X44377D01*
X44424Y152664D01*
X44840Y152040D01*
X45464Y151624D01*
X45700Y151577D01*
Y152900D01*
D02*
G37*
G36*
X165354Y154267D02*
X164814Y154160D01*
X164355Y153853D01*
X164049Y153395D01*
X163941Y152854D01*
X164049Y152314D01*
X164355Y151855D01*
X164814Y151549D01*
X165354Y151441D01*
X165895Y151549D01*
X166353Y151855D01*
X166660Y152314D01*
X166767Y152854D01*
X166660Y153395D01*
X166353Y153853D01*
X165895Y154160D01*
X165354Y154267D01*
D02*
G37*
G36*
X181548Y152354D02*
X180224D01*
Y151031D01*
X180460Y151078D01*
X181084Y151495D01*
X181501Y152119D01*
X181548Y152354D01*
D02*
G37*
G36*
X179224D02*
X177901D01*
X177948Y152119D01*
X178365Y151495D01*
X178989Y151078D01*
X179224Y151031D01*
Y152354D01*
D02*
G37*
G36*
X203346Y155842D02*
X202806Y155735D01*
X202347Y155428D01*
X202041Y154970D01*
X201934Y154429D01*
X202041Y153888D01*
X202347Y153430D01*
X202806Y153124D01*
X202835Y153118D01*
X203232Y152812D01*
X203185Y152577D01*
X203125Y152271D01*
X203232Y151731D01*
X203538Y151272D01*
X203997Y150966D01*
X204538Y150858D01*
X205078Y150966D01*
X205537Y151272D01*
X205843Y151731D01*
X205950Y152271D01*
X205843Y152812D01*
X205537Y153270D01*
X205078Y153577D01*
X205049Y153583D01*
X204652Y153888D01*
X204699Y154123D01*
X204759Y154429D01*
X204652Y154970D01*
X204346Y155428D01*
X203887Y155735D01*
X203346Y155842D01*
D02*
G37*
G36*
X187992Y153684D02*
X187451Y153577D01*
X186993Y153270D01*
X186687Y152812D01*
X186579Y152271D01*
X186687Y151731D01*
X186993Y151272D01*
X187451Y150966D01*
X187992Y150858D01*
X188533Y150966D01*
X188991Y151272D01*
X189297Y151731D01*
X189405Y152271D01*
X189297Y152812D01*
X188991Y153270D01*
X188533Y153577D01*
X187992Y153684D01*
D02*
G37*
G36*
X211811Y152594D02*
X211270Y152487D01*
X210812Y152180D01*
X210506Y151722D01*
X210398Y151181D01*
X210506Y150640D01*
X210812Y150182D01*
X211270Y149876D01*
X211811Y149768D01*
X212352Y149876D01*
X212810Y150182D01*
X213116Y150640D01*
X213224Y151181D01*
X213116Y151722D01*
X212810Y152180D01*
X212352Y152487D01*
X211811Y152594D01*
D02*
G37*
G36*
X80901Y159274D02*
X79648Y159109D01*
X78481Y158625D01*
X77478Y157856D01*
X76709Y156853D01*
X76225Y155685D01*
X76060Y154432D01*
X76225Y153179D01*
X76709Y152012D01*
X77478Y151009D01*
X78481Y150240D01*
X79648Y149756D01*
X80901Y149591D01*
X82155Y149756D01*
X83322Y150240D01*
X84325Y151009D01*
X85094Y152012D01*
X85578Y153179D01*
X85743Y154432D01*
X85578Y155685D01*
X85094Y156853D01*
X84325Y157856D01*
X83322Y158625D01*
X82155Y159109D01*
X80901Y159274D01*
D02*
G37*
G36*
X174803Y151019D02*
X174262Y150912D01*
X173804Y150605D01*
X173498Y150147D01*
X173390Y149606D01*
X173498Y149066D01*
X173804Y148607D01*
X174262Y148301D01*
X174803Y148193D01*
X175344Y148301D01*
X175802Y148607D01*
X176109Y149066D01*
X176216Y149606D01*
X176109Y150147D01*
X175802Y150605D01*
X175344Y150912D01*
X174803Y151019D01*
D02*
G37*
G36*
X124516Y149461D02*
Y148138D01*
X125839D01*
X125792Y148374D01*
X125375Y148997D01*
X124752Y149414D01*
X124516Y149461D01*
D02*
G37*
G36*
X123516D02*
X123280Y149414D01*
X122656Y148997D01*
X122239Y148374D01*
X122192Y148138D01*
X123516D01*
Y149461D01*
D02*
G37*
G36*
X93182D02*
Y148138D01*
X94505D01*
X94458Y148374D01*
X94041Y148997D01*
X93417Y149414D01*
X93182Y149461D01*
D02*
G37*
G36*
X92182D02*
X91946Y149414D01*
X91322Y148997D01*
X90905Y148374D01*
X90858Y148138D01*
X92182D01*
Y149461D01*
D02*
G37*
G36*
X160656Y148280D02*
Y146957D01*
X161980D01*
X161933Y147193D01*
X161516Y147816D01*
X160892Y148233D01*
X160656Y148280D01*
D02*
G37*
G36*
X159656D02*
X159421Y148233D01*
X158797Y147816D01*
X158380Y147193D01*
X158333Y146957D01*
X159656D01*
Y148280D01*
D02*
G37*
G36*
X115354Y149444D02*
X114814Y149337D01*
X114355Y149031D01*
X114049Y148572D01*
X113941Y148031D01*
X114049Y147491D01*
X114355Y147032D01*
X114814Y146726D01*
X115354Y146618D01*
X115895Y146726D01*
X116353Y147032D01*
X116660Y147491D01*
X116767Y148031D01*
X116660Y148572D01*
X116353Y149031D01*
X115895Y149337D01*
X115354Y149444D01*
D02*
G37*
G36*
X123516Y147138D02*
X122192D01*
X122239Y146902D01*
X122366Y146713D01*
X122218Y146473D01*
X122035Y146307D01*
X121567Y146400D01*
X121026Y146293D01*
X120568Y145987D01*
X120262Y145528D01*
X120154Y144987D01*
X120262Y144447D01*
X120568Y143988D01*
X121026Y143682D01*
X121567Y143575D01*
X122108Y143682D01*
X122566Y143988D01*
X122872Y144447D01*
X122980Y144987D01*
X122872Y145528D01*
X122867Y145536D01*
X123228Y145896D01*
X123280Y145861D01*
X123516Y145815D01*
Y147138D01*
D02*
G37*
G36*
X231890Y149051D02*
X231349Y148943D01*
X230891Y148637D01*
X230584Y148179D01*
X230477Y147638D01*
X230584Y147097D01*
X230891Y146639D01*
X231349Y146332D01*
X231890Y146225D01*
X232431Y146332D01*
X232889Y146639D01*
X233195Y147097D01*
X233303Y147638D01*
X233195Y148179D01*
X232889Y148637D01*
X232431Y148943D01*
X231890Y149051D01*
D02*
G37*
G36*
X125839Y147138D02*
X124516D01*
Y145815D01*
X124752Y145861D01*
X125375Y146278D01*
X125792Y146902D01*
X125839Y147138D01*
D02*
G37*
G36*
X94505D02*
X93182D01*
Y145815D01*
X93417Y145861D01*
X94041Y146278D01*
X94458Y146902D01*
X94505Y147138D01*
D02*
G37*
G36*
X92182D02*
X90858D01*
X90905Y146902D01*
X91322Y146278D01*
X91946Y145861D01*
X92182Y145815D01*
Y147138D01*
D02*
G37*
G36*
X105118Y148263D02*
X104577Y148156D01*
X104119Y147850D01*
X103813Y147391D01*
X103705Y146850D01*
X103813Y146310D01*
X104119Y145851D01*
X104577Y145545D01*
X105118Y145437D01*
X105659Y145545D01*
X106117Y145851D01*
X106423Y146310D01*
X106531Y146850D01*
X106423Y147391D01*
X106117Y147850D01*
X105659Y148156D01*
X105118Y148263D01*
D02*
G37*
G36*
X144095Y147870D02*
X143554Y147762D01*
X143095Y147456D01*
X142789Y146997D01*
X142682Y146457D01*
X142789Y145916D01*
X143095Y145458D01*
X143554Y145151D01*
X144095Y145044D01*
X144635Y145151D01*
X145094Y145458D01*
X145400Y145916D01*
X145508Y146457D01*
X145400Y146997D01*
X145094Y147456D01*
X144635Y147762D01*
X144095Y147870D01*
D02*
G37*
G36*
X139113Y147613D02*
X138572Y147505D01*
X138114Y147199D01*
X137808Y146740D01*
X137700Y146200D01*
X137808Y145659D01*
X138114Y145201D01*
X138572Y144894D01*
X139113Y144787D01*
X139654Y144894D01*
X140112Y145201D01*
X140419Y145659D01*
X140526Y146200D01*
X140419Y146740D01*
X140112Y147199D01*
X139654Y147505D01*
X139113Y147613D01*
D02*
G37*
G36*
X161980Y145957D02*
X160656D01*
Y144633D01*
X160892Y144680D01*
X161516Y145097D01*
X161933Y145721D01*
X161980Y145957D01*
D02*
G37*
G36*
X159656D02*
X158333D01*
X158380Y145721D01*
X158797Y145097D01*
X159421Y144680D01*
X159656Y144633D01*
Y145957D01*
D02*
G37*
G36*
X253150Y145508D02*
X252609Y145400D01*
X252151Y145094D01*
X251844Y144635D01*
X251737Y144095D01*
X251844Y143554D01*
X252151Y143095D01*
X252609Y142789D01*
X253150Y142682D01*
X253690Y142789D01*
X254149Y143095D01*
X254455Y143554D01*
X254563Y144095D01*
X254455Y144635D01*
X254149Y145094D01*
X253690Y145400D01*
X253150Y145508D01*
D02*
G37*
G36*
X217941Y143949D02*
Y142626D01*
X219264D01*
X219217Y142862D01*
X218800Y143486D01*
X218177Y143902D01*
X217941Y143949D01*
D02*
G37*
G36*
X227636Y144720D02*
X227095Y144613D01*
X226637Y144306D01*
X226330Y143848D01*
X226223Y143307D01*
X226330Y142766D01*
X226637Y142308D01*
X227095Y142002D01*
X227636Y141894D01*
X228177Y142002D01*
X228635Y142308D01*
X228941Y142766D01*
X229049Y143307D01*
X228941Y143848D01*
X228635Y144306D01*
X228177Y144613D01*
X227636Y144720D01*
D02*
G37*
G36*
X118012Y144622D02*
X117471Y144514D01*
X117013Y144208D01*
X116706Y143749D01*
X116599Y143209D01*
X116706Y142668D01*
X117013Y142209D01*
X117471Y141903D01*
X118012Y141796D01*
X118552Y141903D01*
X119011Y142209D01*
X119317Y142668D01*
X119425Y143209D01*
X119317Y143749D01*
X119011Y144208D01*
X118552Y144514D01*
X118012Y144622D01*
D02*
G37*
G36*
X101000D02*
X100459Y144514D01*
X100001Y144208D01*
X99695Y143749D01*
X99587Y143209D01*
X99695Y142668D01*
X100001Y142209D01*
X100459Y141903D01*
X101000Y141796D01*
X101541Y141903D01*
X101999Y142209D01*
X102305Y142668D01*
X102413Y143209D01*
X102305Y143749D01*
X101999Y144208D01*
X101541Y144514D01*
X101000Y144622D01*
D02*
G37*
G36*
X216941Y143949D02*
X216705Y143902D01*
X216081Y143486D01*
X215665Y142862D01*
X215518Y142126D01*
X215532Y142057D01*
X215082Y141756D01*
X214921Y141863D01*
X214381Y141971D01*
X213840Y141863D01*
X213381Y141557D01*
X213075Y141099D01*
X212968Y140558D01*
X213075Y140017D01*
X213381Y139559D01*
X213840Y139253D01*
X214381Y139145D01*
X214921Y139253D01*
X215380Y139559D01*
X215686Y140017D01*
X215764Y140410D01*
X216165Y140616D01*
X216280Y140634D01*
X216705Y140350D01*
X216941Y140303D01*
Y142126D01*
Y143949D01*
D02*
G37*
G36*
X159949Y142768D02*
Y141445D01*
X161272D01*
X161225Y141681D01*
X160808Y142305D01*
X160185Y142721D01*
X159949Y142768D01*
D02*
G37*
G36*
X158949D02*
X158713Y142721D01*
X158089Y142305D01*
X157672Y141681D01*
X157625Y141445D01*
X158949D01*
Y142768D01*
D02*
G37*
G36*
X106405Y142375D02*
Y141051D01*
X107729D01*
X107682Y141287D01*
X107265Y141911D01*
X106641Y142328D01*
X106405Y142375D01*
D02*
G37*
G36*
X105405D02*
X105170Y142328D01*
X104546Y141911D01*
X104129Y141287D01*
X104082Y141051D01*
X105405D01*
Y142375D01*
D02*
G37*
G36*
X52256Y141193D02*
X52020Y141147D01*
X51575Y140849D01*
X51130Y141147D01*
X50894Y141193D01*
Y139370D01*
Y137547D01*
X51130Y137594D01*
X51575Y137891D01*
X52020Y137594D01*
X52256Y137547D01*
Y139370D01*
Y141193D01*
D02*
G37*
G36*
X133858Y141374D02*
X133318Y141266D01*
X132863Y140962D01*
X132455Y140703D01*
X132435D01*
X131977Y141009D01*
X131436Y141117D01*
X130895Y141009D01*
X130437Y140703D01*
X130211Y140366D01*
X129922Y140247D01*
X129622Y140251D01*
X129281Y140479D01*
X128740Y140586D01*
X128199Y140479D01*
X127741Y140172D01*
X127435Y139714D01*
X127327Y139173D01*
X127435Y138633D01*
X127741Y138174D01*
X128199Y137868D01*
X128740Y137760D01*
X129281Y137868D01*
X129739Y138174D01*
X129965Y138511D01*
X130254Y138630D01*
X130554Y138626D01*
X130895Y138398D01*
X131436Y138291D01*
X131977Y138398D01*
X132431Y138702D01*
X132839Y138962D01*
X132859D01*
X133318Y138655D01*
X133858Y138548D01*
X134399Y138655D01*
X134857Y138962D01*
X135164Y139420D01*
X135271Y139961D01*
X135164Y140501D01*
X134857Y140960D01*
X134399Y141266D01*
X133858Y141374D01*
D02*
G37*
G36*
X210648Y141692D02*
Y140369D01*
X211971D01*
X211925Y140605D01*
X211508Y141229D01*
X210884Y141645D01*
X210648Y141692D01*
D02*
G37*
G36*
X209648D02*
X209412Y141645D01*
X208788Y141229D01*
X208372Y140605D01*
X208325Y140369D01*
X209648D01*
Y141692D01*
D02*
G37*
G36*
X219264Y141626D02*
X217941D01*
Y140303D01*
X218177Y140350D01*
X218800Y140766D01*
X219217Y141390D01*
X219264Y141626D01*
D02*
G37*
G36*
X121700Y141193D02*
Y139870D01*
X123023D01*
X122976Y140106D01*
X122559Y140730D01*
X121936Y141147D01*
X121700Y141193D01*
D02*
G37*
G36*
X120700D02*
X120464Y141147D01*
X119840Y140730D01*
X119423Y140106D01*
X119377Y139870D01*
X120700D01*
Y141193D01*
D02*
G37*
G36*
X53256D02*
Y139870D01*
X54579D01*
X54532Y140106D01*
X54115Y140730D01*
X53492Y141147D01*
X53256Y141193D01*
D02*
G37*
G36*
X49894D02*
X49658Y141147D01*
X49034Y140730D01*
X48617Y140106D01*
X48570Y139870D01*
X49894D01*
Y141193D01*
D02*
G37*
G36*
X247967Y140589D02*
Y139266D01*
X249290D01*
X249243Y139502D01*
X248826Y140126D01*
X248202Y140542D01*
X247967Y140589D01*
D02*
G37*
G36*
X246967D02*
X246731Y140542D01*
X246107Y140126D01*
X245690Y139502D01*
X245643Y139266D01*
X246967D01*
Y140589D01*
D02*
G37*
G36*
X181595Y141570D02*
X181054Y141463D01*
X180595Y141157D01*
X180289Y140698D01*
X180182Y140157D01*
X180289Y139617D01*
X180595Y139158D01*
X181054Y138852D01*
X181595Y138744D01*
X182135Y138852D01*
X182594Y139158D01*
X182900Y139617D01*
X183008Y140157D01*
X182900Y140698D01*
X182594Y141157D01*
X182135Y141463D01*
X181595Y141570D01*
D02*
G37*
G36*
X107729Y140051D02*
X106405D01*
Y138728D01*
X106641Y138775D01*
X107265Y139192D01*
X107682Y139815D01*
X107729Y140051D01*
D02*
G37*
G36*
X105405D02*
X104082D01*
X104129Y139815D01*
X104546Y139192D01*
X105170Y138775D01*
X105405Y138728D01*
Y140051D01*
D02*
G37*
G36*
X81693Y147883D02*
X80458Y147721D01*
X79306Y147244D01*
X78318Y146485D01*
X77559Y145497D01*
X77082Y144346D01*
X76920Y143110D01*
X77082Y141875D01*
X77559Y140724D01*
X78318Y139735D01*
X79306Y138977D01*
X80458Y138500D01*
X81693Y138337D01*
X82928Y138500D01*
X84079Y138977D01*
X85068Y139735D01*
X85826Y140724D01*
X86303Y141875D01*
X86466Y143110D01*
X86303Y144346D01*
X85826Y145497D01*
X85068Y146485D01*
X84079Y147244D01*
X82928Y147721D01*
X81693Y147883D01*
D02*
G37*
G36*
X161272Y140445D02*
X157625D01*
X157672Y140209D01*
X158089Y139585D01*
Y139155D01*
X157672Y138531D01*
X157625Y138295D01*
X161272D01*
X161225Y138531D01*
X160808Y139155D01*
Y139585D01*
X161225Y140209D01*
X161272Y140445D01*
D02*
G37*
G36*
X211971Y139369D02*
X210648D01*
Y138046D01*
X210884Y138093D01*
X211508Y138509D01*
X211925Y139133D01*
X211971Y139369D01*
D02*
G37*
G36*
X209648D02*
X208325D01*
X208372Y139133D01*
X208788Y138509D01*
X209412Y138093D01*
X209648Y138046D01*
Y139369D01*
D02*
G37*
G36*
X54579Y138870D02*
X53256D01*
Y137547D01*
X53492Y137594D01*
X54115Y138011D01*
X54532Y138634D01*
X54579Y138870D01*
D02*
G37*
G36*
X49894D02*
X48570D01*
X48617Y138634D01*
X49034Y138011D01*
X49658Y137594D01*
X49894Y137547D01*
Y138870D01*
D02*
G37*
G36*
X179044Y138624D02*
X178503Y138517D01*
X178045Y138210D01*
X177739Y137752D01*
X177667Y137393D01*
X177655Y137333D01*
X177146Y137333D01*
X177138Y137373D01*
X177101Y137555D01*
X176795Y138014D01*
X176337Y138320D01*
X175796Y138427D01*
X175255Y138320D01*
X174797Y138014D01*
X174491Y137555D01*
X174383Y137015D01*
X174491Y136474D01*
X174797Y136015D01*
X175255Y135709D01*
X175796Y135602D01*
X176337Y135709D01*
X176795Y136015D01*
X177101Y136474D01*
X177173Y136833D01*
X177185Y136893D01*
X177694Y136893D01*
X177703Y136853D01*
X177739Y136671D01*
X178045Y136212D01*
X178503Y135906D01*
X179044Y135799D01*
X179585Y135906D01*
X180043Y136212D01*
X180350Y136671D01*
X180457Y137211D01*
X180350Y137752D01*
X180043Y138210D01*
X179585Y138517D01*
X179044Y138624D01*
D02*
G37*
G36*
X193281Y137346D02*
X193239Y137297D01*
X193255Y137311D01*
X193281Y137346D01*
D02*
G37*
G36*
X123023Y138870D02*
X119377D01*
X119423Y138634D01*
X119840Y138011D01*
Y137974D01*
X119423Y137350D01*
X119377Y137114D01*
X123023D01*
X122976Y137350D01*
X122559Y137974D01*
Y138011D01*
X122976Y138634D01*
X123023Y138870D01*
D02*
G37*
G36*
X195965Y140094D02*
X195424Y139987D01*
X194966Y139680D01*
X194659Y139222D01*
X194552Y138681D01*
X194149Y138142D01*
X194055Y138123D01*
X193597Y137817D01*
X193291Y137358D01*
Y137358D01*
X193255Y137311D01*
X193010Y137035D01*
X193010Y137035D01*
X193239Y137297D01*
X192928Y137037D01*
X192778Y137042D01*
X192721Y137055D01*
X192412Y137395D01*
X192350Y137557D01*
X192358Y137598D01*
X192250Y138139D01*
X191944Y138598D01*
X191486Y138904D01*
X190945Y139011D01*
X190404Y138904D01*
X189946Y138598D01*
X189639Y138139D01*
X189532Y137598D01*
X189639Y137058D01*
X189946Y136599D01*
X190404Y136293D01*
X190757Y136223D01*
X190945Y136185D01*
X191126Y135712D01*
X191118Y135670D01*
X191225Y135130D01*
X191532Y134671D01*
X191990Y134365D01*
X192531Y134257D01*
X193071Y134365D01*
X193530Y134671D01*
X193836Y135130D01*
X194408Y135442D01*
X194596Y135405D01*
X195137Y135512D01*
X195595Y135819D01*
X195902Y136277D01*
X196009Y136818D01*
X196412Y137357D01*
X196505Y137376D01*
X196964Y137682D01*
X197270Y138140D01*
X197378Y138681D01*
X197270Y139222D01*
X196964Y139680D01*
X196505Y139987D01*
X195965Y140094D01*
D02*
G37*
G36*
X249290Y138266D02*
X247967D01*
Y136943D01*
X248202Y136990D01*
X248826Y137406D01*
X249243Y138030D01*
X249290Y138266D01*
D02*
G37*
G36*
X246967D02*
X245643D01*
X245690Y138030D01*
X246107Y137406D01*
X246731Y136990D01*
X246967Y136943D01*
Y138266D01*
D02*
G37*
G36*
X114673Y137256D02*
Y135933D01*
X115997D01*
X115950Y136169D01*
X115533Y136793D01*
X114909Y137209D01*
X114673Y137256D01*
D02*
G37*
G36*
X113673D02*
X113437Y137209D01*
X112814Y136793D01*
X112397Y136169D01*
X112350Y135933D01*
X113673D01*
Y137256D01*
D02*
G37*
G36*
X182382Y138322D02*
X181841Y138215D01*
X181383Y137909D01*
X181077Y137450D01*
X180969Y136909D01*
X181077Y136369D01*
X181383Y135910D01*
X181841Y135604D01*
X182382Y135496D01*
X182923Y135604D01*
X183381Y135910D01*
X183687Y136369D01*
X183795Y136909D01*
X183687Y137450D01*
X183381Y137909D01*
X182923Y138215D01*
X182382Y138322D01*
D02*
G37*
G36*
X186811Y138038D02*
X186270Y137931D01*
X185812Y137624D01*
X185506Y137166D01*
X185398Y136625D01*
X185506Y136084D01*
X185812Y135626D01*
X186270Y135320D01*
X186811Y135212D01*
X187352Y135320D01*
X187810Y135626D01*
X188116Y136084D01*
X188224Y136625D01*
X188116Y137166D01*
X187810Y137624D01*
X187352Y137931D01*
X186811Y138038D01*
D02*
G37*
G36*
X172146D02*
X171605Y137931D01*
X171147Y137624D01*
X170840Y137166D01*
X170733Y136625D01*
X170840Y136084D01*
X171147Y135626D01*
X171605Y135320D01*
X172146Y135212D01*
X172686Y135320D01*
X173145Y135626D01*
X173451Y136084D01*
X173559Y136625D01*
X173451Y137166D01*
X173145Y137624D01*
X172686Y137931D01*
X172146Y138038D01*
D02*
G37*
G36*
X161272Y137295D02*
X157625D01*
X157672Y137059D01*
X158010Y136554D01*
X158058Y136221D01*
X158010Y135887D01*
X157672Y135381D01*
X157625Y135146D01*
X161272D01*
X161225Y135381D01*
X160887Y135887D01*
X160839Y136221D01*
X160887Y136554D01*
X161225Y137059D01*
X161272Y137295D01*
D02*
G37*
G36*
X127172Y137640D02*
X126631Y137532D01*
X126172Y137226D01*
X125866Y136768D01*
X125759Y136227D01*
X125866Y135686D01*
X126172Y135228D01*
X126631Y134922D01*
X127172Y134814D01*
X127712Y134922D01*
X128171Y135228D01*
X128477Y135686D01*
X128585Y136227D01*
X128477Y136768D01*
X128171Y137226D01*
X127712Y137532D01*
X127172Y137640D01*
D02*
G37*
G36*
X123023Y136114D02*
X121700D01*
Y134791D01*
X121936Y134838D01*
X122559Y135255D01*
X122976Y135878D01*
X123023Y136114D01*
D02*
G37*
G36*
X120700D02*
X119377D01*
X119423Y135878D01*
X119840Y135255D01*
X120464Y134838D01*
X120700Y134791D01*
Y136114D01*
D02*
G37*
G36*
X222441Y139602D02*
X221900Y139494D01*
X221441Y139188D01*
X221135Y138729D01*
X221027Y138189D01*
X221135Y137648D01*
X221441Y137190D01*
X221487Y137159D01*
Y136659D01*
X221442Y136629D01*
X221135Y136171D01*
X221028Y135630D01*
X221135Y135089D01*
X221442Y134631D01*
X221900Y134325D01*
X222441Y134217D01*
X222982Y134325D01*
X223440Y134631D01*
X223746Y135089D01*
X223854Y135630D01*
X223746Y136171D01*
X223459Y136601D01*
X223394Y136742D01*
Y137077D01*
X223459Y137218D01*
X223746Y137648D01*
X223853Y138189D01*
X223746Y138729D01*
X223440Y139188D01*
X222981Y139494D01*
X222441Y139602D01*
D02*
G37*
G36*
X115997Y134933D02*
X114673D01*
Y133610D01*
X114909Y133657D01*
X115533Y134073D01*
X115950Y134697D01*
X115997Y134933D01*
D02*
G37*
G36*
X113673D02*
X112350D01*
X112397Y134697D01*
X112814Y134073D01*
X113437Y133657D01*
X113673Y133610D01*
Y134933D01*
D02*
G37*
G36*
X164862Y136354D02*
X164321Y136246D01*
X163863Y135940D01*
X163557Y135482D01*
X163449Y134941D01*
X163557Y134400D01*
X163863Y133942D01*
X164321Y133635D01*
X164862Y133528D01*
X165403Y133635D01*
X165861Y133942D01*
X166168Y134400D01*
X166275Y134941D01*
X166168Y135482D01*
X165861Y135940D01*
X165403Y136246D01*
X164862Y136354D01*
D02*
G37*
G36*
X278453Y134315D02*
Y132991D01*
X279776D01*
X279729Y133227D01*
X279312Y133851D01*
X278689Y134268D01*
X278453Y134315D01*
D02*
G37*
G36*
X277453D02*
X277217Y134268D01*
X276593Y133851D01*
X276176Y133227D01*
X276129Y132991D01*
X277453D01*
Y134315D01*
D02*
G37*
G36*
X161272Y134146D02*
X159949D01*
Y132822D01*
X160185Y132869D01*
X160808Y133286D01*
X161225Y133910D01*
X161272Y134146D01*
D02*
G37*
G36*
X158949D02*
X157625D01*
X157672Y133910D01*
X158089Y133286D01*
X158713Y132869D01*
X158949Y132822D01*
Y134146D01*
D02*
G37*
G36*
X216929Y135566D02*
X216388Y135459D01*
X215930Y135153D01*
X215624Y134694D01*
X215516Y134153D01*
X215624Y133613D01*
X215930Y133154D01*
X216388Y132848D01*
X216929Y132741D01*
X217470Y132848D01*
X217928Y133154D01*
X218234Y133613D01*
X218342Y134153D01*
X218234Y134694D01*
X217928Y135153D01*
X217470Y135459D01*
X216929Y135566D01*
D02*
G37*
G36*
X226878Y133713D02*
Y132390D01*
X228201D01*
X228154Y132626D01*
X227738Y133249D01*
X227114Y133666D01*
X226878Y133713D01*
D02*
G37*
G36*
X225878D02*
X225642Y133666D01*
X225018Y133249D01*
X224602Y132626D01*
X224555Y132390D01*
X225878D01*
Y133713D01*
D02*
G37*
G36*
X213189Y133992D02*
X212648Y133884D01*
X212190Y133578D01*
X211884Y133119D01*
X211776Y132579D01*
X211884Y132038D01*
X212190Y131580D01*
X212648Y131273D01*
X213189Y131166D01*
X213730Y131273D01*
X214188Y131580D01*
X214494Y132038D01*
X214602Y132579D01*
X214494Y133119D01*
X214188Y133578D01*
X213730Y133884D01*
X213189Y133992D01*
D02*
G37*
G36*
X279776Y131991D02*
X278453D01*
Y130668D01*
X278689Y130715D01*
X279312Y131132D01*
X279729Y131755D01*
X279776Y131991D01*
D02*
G37*
G36*
X277453D02*
X276129D01*
X276176Y131755D01*
X276593Y131132D01*
X277217Y130715D01*
X277453Y130668D01*
Y131991D01*
D02*
G37*
G36*
X228201Y131390D02*
X226878D01*
Y130067D01*
X227114Y130113D01*
X227738Y130530D01*
X228154Y131154D01*
X228201Y131390D01*
D02*
G37*
G36*
X225878D02*
X224555D01*
X224602Y131154D01*
X225018Y130530D01*
X225642Y130113D01*
X225878Y130067D01*
Y131390D01*
D02*
G37*
G36*
X207087Y132712D02*
X206546Y132605D01*
X206087Y132298D01*
X205781Y131840D01*
X205674Y131299D01*
X205781Y130759D01*
X206087Y130300D01*
X206546Y129994D01*
X207087Y129886D01*
X207627Y129994D01*
X208086Y130300D01*
X208392Y130759D01*
X208500Y131299D01*
X208392Y131840D01*
X208086Y132298D01*
X207627Y132605D01*
X207087Y132712D01*
D02*
G37*
G36*
X53256Y129776D02*
Y128453D01*
X54579D01*
X54532Y128689D01*
X54115Y129312D01*
X53492Y129729D01*
X53256Y129776D01*
D02*
G37*
G36*
X52256D02*
X52020Y129729D01*
X51396Y129312D01*
X50980Y128689D01*
X50933Y128453D01*
X52256D01*
Y129776D01*
D02*
G37*
G36*
X78149Y135420D02*
X77236Y135300D01*
X76384Y134947D01*
X75653Y134386D01*
X75092Y133655D01*
X74740Y132803D01*
X74619Y131890D01*
X74740Y130976D01*
X75092Y130125D01*
X75653Y129393D01*
X76384Y128832D01*
X77236Y128480D01*
X78149Y128360D01*
X79063Y128480D01*
X79915Y128832D01*
X80646Y129393D01*
X81207Y130125D01*
X81559Y130976D01*
X81680Y131890D01*
X81559Y132803D01*
X81207Y133655D01*
X80646Y134386D01*
X79915Y134947D01*
X79063Y135300D01*
X78149Y135420D01*
D02*
G37*
G36*
X112311Y128989D02*
Y127665D01*
X113634D01*
X113587Y127901D01*
X113171Y128525D01*
X112547Y128942D01*
X112311Y128989D01*
D02*
G37*
G36*
X111311D02*
X111075Y128942D01*
X110451Y128525D01*
X110035Y127901D01*
X109988Y127665D01*
X111311D01*
Y128989D01*
D02*
G37*
G36*
X199155Y128213D02*
X198615Y128105D01*
X198156Y127799D01*
X198022Y127598D01*
X197428Y127587D01*
X197367Y127679D01*
X196909Y127985D01*
X196368Y128092D01*
X195827Y127985D01*
X195369Y127679D01*
X195062Y127220D01*
X194955Y126679D01*
X195062Y126139D01*
X195369Y125680D01*
X195827Y125374D01*
X196368Y125266D01*
X196909Y125374D01*
X197367Y125680D01*
X197501Y125881D01*
X198095Y125892D01*
X198156Y125801D01*
X198615Y125495D01*
X199155Y125387D01*
X199696Y125495D01*
X200154Y125801D01*
X200461Y126259D01*
X200568Y126800D01*
X200461Y127341D01*
X200154Y127799D01*
X199696Y128105D01*
X199155Y128213D01*
D02*
G37*
G36*
X193150Y129464D02*
X192610Y129357D01*
X192151Y129050D01*
X191845Y128592D01*
X191737Y128051D01*
X191845Y127510D01*
X192151Y127052D01*
X192610Y126746D01*
X193150Y126638D01*
X193691Y126746D01*
X194150Y127052D01*
X194456Y127510D01*
X194563Y128051D01*
X194456Y128592D01*
X194150Y129050D01*
X193691Y129357D01*
X193150Y129464D01*
D02*
G37*
G36*
X140264Y127808D02*
Y126484D01*
X141587D01*
X141540Y126720D01*
X141123Y127344D01*
X140500Y127761D01*
X140264Y127808D01*
D02*
G37*
G36*
X139264D02*
X139028Y127761D01*
X138404Y127344D01*
X137987Y126720D01*
X137941Y126484D01*
X139264D01*
Y127808D01*
D02*
G37*
G36*
X54579Y127453D02*
X53256D01*
Y126129D01*
X53492Y126176D01*
X54115Y126593D01*
X54532Y127217D01*
X54579Y127453D01*
D02*
G37*
G36*
X52256D02*
X50933D01*
X50980Y127217D01*
X51396Y126593D01*
X52020Y126176D01*
X52256Y126129D01*
Y127453D01*
D02*
G37*
G36*
X231300Y128213D02*
X230759Y128105D01*
X230301Y127799D01*
X229995Y127341D01*
X229887Y126800D01*
X229995Y126259D01*
X230301Y125801D01*
X230759Y125495D01*
X231300Y125387D01*
X231841Y125495D01*
X232299Y125801D01*
X232605Y126259D01*
X232713Y126800D01*
X232605Y127341D01*
X232299Y127799D01*
X231841Y128105D01*
X231300Y128213D01*
D02*
G37*
G36*
X113634Y126665D02*
X112311D01*
Y125342D01*
X112547Y125389D01*
X113171Y125806D01*
X113587Y126429D01*
X113634Y126665D01*
D02*
G37*
G36*
X111311D02*
X109988D01*
X110035Y126429D01*
X110451Y125806D01*
X111075Y125389D01*
X111311Y125342D01*
Y126665D01*
D02*
G37*
G36*
X204538Y127978D02*
X203997Y127870D01*
X203538Y127564D01*
X203232Y127105D01*
X203125Y126565D01*
X203232Y126024D01*
X203538Y125566D01*
X203997Y125259D01*
X204538Y125152D01*
X205078Y125259D01*
X205537Y125566D01*
X205843Y126024D01*
X205950Y126565D01*
X205843Y127105D01*
X205537Y127564D01*
X205078Y127870D01*
X204538Y127978D01*
D02*
G37*
G36*
X182579Y129158D02*
X182038Y129050D01*
X181580Y128744D01*
X181273Y128286D01*
X181166Y127745D01*
X181273Y127204D01*
X181349Y127091D01*
X181441Y126631D01*
X181222Y126450D01*
X180989Y126294D01*
X180683Y125836D01*
X180575Y125295D01*
X180683Y124755D01*
X180989Y124296D01*
X181448Y123990D01*
X181988Y123882D01*
X182529Y123990D01*
X182987Y124296D01*
X183294Y124755D01*
X183401Y125295D01*
X183294Y125836D01*
X183218Y125950D01*
X183175Y126161D01*
X183361Y126285D01*
X183883Y126033D01*
X183940Y125745D01*
X184246Y125287D01*
X184704Y124980D01*
X185245Y124873D01*
X185786Y124980D01*
X186244Y125287D01*
X186551Y125745D01*
X186658Y126286D01*
X186551Y126826D01*
X186244Y127285D01*
X185786Y127591D01*
X185245Y127699D01*
X184704Y127591D01*
X184435Y127411D01*
X183985Y127712D01*
X183992Y127745D01*
X183884Y128286D01*
X183578Y128744D01*
X183119Y129050D01*
X182579Y129158D01*
D02*
G37*
G36*
X86811Y135420D02*
X85897Y135300D01*
X85046Y134947D01*
X84315Y134386D01*
X83754Y133655D01*
X83401Y132803D01*
X83281Y131890D01*
X83401Y130976D01*
X83754Y130125D01*
X84315Y129393D01*
X85046Y128832D01*
X85897Y128480D01*
X86070Y128457D01*
Y127953D01*
X85767Y127913D01*
X84794Y127510D01*
X83958Y126869D01*
X83317Y126033D01*
X82914Y125060D01*
X82842Y124516D01*
X86811D01*
X90780D01*
X90708Y125060D01*
X90305Y126033D01*
X89664Y126869D01*
X88828Y127510D01*
X87855Y127913D01*
X87552Y127953D01*
Y128457D01*
X87725Y128480D01*
X88576Y128832D01*
X89307Y129393D01*
X89868Y130125D01*
X90221Y130976D01*
X90341Y131890D01*
X90221Y132803D01*
X89868Y133655D01*
X89307Y134386D01*
X88576Y134947D01*
X87725Y135300D01*
X86811Y135420D01*
D02*
G37*
G36*
X141587Y125484D02*
X140264D01*
Y124161D01*
X140500Y124208D01*
X141123Y124625D01*
X141540Y125248D01*
X141587Y125484D01*
D02*
G37*
G36*
X139264D02*
X137941D01*
X137987Y125248D01*
X138404Y124625D01*
X139028Y124208D01*
X139264Y124161D01*
Y125484D01*
D02*
G37*
G36*
X177457Y124838D02*
X176917Y124731D01*
X176458Y124424D01*
X176152Y123966D01*
X175655Y124028D01*
X175639Y124039D01*
X175098Y124146D01*
X174558Y124039D01*
X174099Y123732D01*
X173793Y123274D01*
X173686Y122733D01*
X173793Y122192D01*
X174099Y121734D01*
X174558Y121428D01*
X175098Y121320D01*
X175639Y121428D01*
X176098Y121734D01*
X176404Y122192D01*
X176901Y122130D01*
X176917Y122120D01*
X177457Y122012D01*
X177998Y122120D01*
X178457Y122426D01*
X178763Y122885D01*
X178870Y123425D01*
X178763Y123966D01*
X178457Y124424D01*
X177998Y124731D01*
X177457Y124838D01*
D02*
G37*
G36*
X220502Y124559D02*
Y123236D01*
X221825D01*
X221778Y123472D01*
X221362Y124096D01*
X220738Y124513D01*
X220502Y124559D01*
D02*
G37*
G36*
X219502D02*
X219266Y124513D01*
X218642Y124096D01*
X218226Y123472D01*
X218179Y123236D01*
X219502D01*
Y124559D01*
D02*
G37*
G36*
X125000Y125724D02*
X124459Y125616D01*
X124001Y125310D01*
X123695Y124852D01*
X123587Y124311D01*
X123695Y123770D01*
X124001Y123312D01*
X124459Y123006D01*
X125000Y122898D01*
X125541Y123006D01*
X125999Y123312D01*
X126305Y123770D01*
X126413Y124311D01*
X126305Y124852D01*
X125999Y125310D01*
X125541Y125616D01*
X125000Y125724D01*
D02*
G37*
G36*
X213583Y125035D02*
X213042Y124927D01*
X212584Y124621D01*
X212277Y124163D01*
X212170Y123622D01*
X212262Y123161D01*
X212096Y122943D01*
X211879Y122778D01*
X211417Y122870D01*
X210877Y122762D01*
X210418Y122456D01*
X210112Y121997D01*
X210004Y121457D01*
X210112Y120916D01*
X210418Y120458D01*
X210877Y120151D01*
X211417Y120044D01*
X211958Y120151D01*
X212416Y120458D01*
X212723Y120916D01*
X212830Y121457D01*
X212738Y121918D01*
X212904Y122135D01*
X213121Y122301D01*
X213583Y122209D01*
X214123Y122317D01*
X214582Y122623D01*
X214888Y123081D01*
X214996Y123622D01*
X214888Y124163D01*
X214582Y124621D01*
X214123Y124927D01*
X213583Y125035D01*
D02*
G37*
G36*
X226594Y122940D02*
Y121617D01*
X227917D01*
X227870Y121853D01*
X227453Y122477D01*
X226830Y122894D01*
X226594Y122940D01*
D02*
G37*
G36*
X225594D02*
X225358Y122894D01*
X224734Y122477D01*
X224317Y121853D01*
X224270Y121617D01*
X225594D01*
Y122940D01*
D02*
G37*
G36*
X128347Y124346D02*
X127806Y124239D01*
X127347Y123932D01*
X127041Y123474D01*
X126934Y122933D01*
X127041Y122392D01*
X127347Y121934D01*
X127806Y121628D01*
X128347Y121520D01*
X128887Y121628D01*
X129346Y121934D01*
X129652Y122392D01*
X129759Y122933D01*
X129652Y123474D01*
X129346Y123932D01*
X128887Y124239D01*
X128347Y124346D01*
D02*
G37*
G36*
X208169Y124149D02*
X207629Y124042D01*
X207170Y123735D01*
X206864Y123277D01*
X206756Y122736D01*
X206864Y122195D01*
X207170Y121737D01*
X207629Y121431D01*
X208169Y121323D01*
X208710Y121431D01*
X209168Y121737D01*
X209475Y122195D01*
X209582Y122736D01*
X209475Y123277D01*
X209168Y123735D01*
X208710Y124042D01*
X208169Y124149D01*
D02*
G37*
G36*
X203150Y122968D02*
X202609Y122861D01*
X202151Y122554D01*
X201844Y122096D01*
X201737Y121555D01*
X201746Y121510D01*
X201328Y121187D01*
X200787Y121295D01*
X200247Y121187D01*
X199788Y120881D01*
X199744Y120815D01*
X199737Y120812D01*
X199166Y120850D01*
X198999Y121099D01*
X198541Y121405D01*
X198000Y121513D01*
X197459Y121405D01*
X197001Y121099D01*
X196695Y120641D01*
X196587Y120100D01*
X196695Y119559D01*
X197001Y119101D01*
X197067Y119057D01*
X197008Y118535D01*
X196550Y118229D01*
X196244Y117771D01*
X196136Y117230D01*
X196244Y116689D01*
X196550Y116231D01*
X197008Y115925D01*
X197359Y115855D01*
X197716Y115521D01*
X197808Y115359D01*
X197897Y114912D01*
X197989Y114773D01*
X197869Y114121D01*
X197829Y114095D01*
X197523Y113637D01*
X197416Y113096D01*
X197523Y112555D01*
X197829Y112097D01*
X198288Y111791D01*
X198829Y111683D01*
X199369Y111791D01*
X199828Y112097D01*
X200134Y112555D01*
X200242Y113096D01*
X200134Y113637D01*
X200041Y113776D01*
X200162Y114427D01*
X200201Y114454D01*
X200507Y114912D01*
X200615Y115453D01*
X200611Y115475D01*
X200954Y115943D01*
X201329Y116018D01*
X201787Y116324D01*
X202093Y116783D01*
X202624Y116888D01*
X203061Y116802D01*
X203602Y116909D01*
X204060Y117215D01*
X204366Y117674D01*
X204474Y118214D01*
X204366Y118755D01*
X204060Y119214D01*
X203602Y119520D01*
X203061Y119627D01*
X202743Y119891D01*
X203063Y120159D01*
X203150Y120142D01*
X203690Y120250D01*
X204149Y120556D01*
X204455Y121014D01*
X204563Y121555D01*
X204455Y122096D01*
X204149Y122554D01*
X203690Y122861D01*
X203150Y122968D01*
D02*
G37*
G36*
X65461Y122296D02*
Y120972D01*
X66784D01*
X66737Y121208D01*
X66320Y121832D01*
X65696Y122249D01*
X65461Y122296D01*
D02*
G37*
G36*
X64461D02*
X64225Y122249D01*
X63601Y121832D01*
X63184Y121208D01*
X63137Y120972D01*
X64461D01*
Y122296D01*
D02*
G37*
G36*
X221825Y122236D02*
X220502D01*
Y120913D01*
X220738Y120960D01*
X221362Y121377D01*
X221778Y122000D01*
X221825Y122236D01*
D02*
G37*
G36*
X219502D02*
X218179D01*
X218226Y122000D01*
X218642Y121377D01*
X219266Y120960D01*
X219502Y120913D01*
Y122236D01*
D02*
G37*
G36*
X57087Y123563D02*
X56546Y123456D01*
X56087Y123150D01*
X55781Y122691D01*
X55674Y122150D01*
X55781Y121610D01*
X56087Y121151D01*
X56546Y120845D01*
X57087Y120738D01*
X57627Y120845D01*
X58086Y121151D01*
X58392Y121610D01*
X58500Y122150D01*
X58392Y122691D01*
X58086Y123150D01*
X57627Y123456D01*
X57087Y123563D01*
D02*
G37*
G36*
X78149Y127546D02*
X77236Y127426D01*
X76384Y127073D01*
X75653Y126512D01*
X75092Y125781D01*
X74740Y124929D01*
X74619Y124016D01*
X74740Y123102D01*
X75092Y122251D01*
X75653Y121519D01*
X76384Y120958D01*
X77236Y120606D01*
X78149Y120485D01*
X79063Y120606D01*
X79915Y120958D01*
X80646Y121519D01*
X81207Y122251D01*
X81559Y123102D01*
X81680Y124016D01*
X81559Y124929D01*
X81207Y125781D01*
X80646Y126512D01*
X79915Y127073D01*
X79063Y127426D01*
X78149Y127546D01*
D02*
G37*
G36*
X157046Y121661D02*
Y120338D01*
X158369D01*
X158322Y120573D01*
X157905Y121197D01*
X157282Y121614D01*
X157046Y121661D01*
D02*
G37*
G36*
X156046D02*
X155810Y121614D01*
X155186Y121197D01*
X154770Y120573D01*
X154723Y120338D01*
X156046D01*
Y121661D01*
D02*
G37*
G36*
X182194Y122974D02*
X181653Y122866D01*
X181195Y122560D01*
X180888Y122102D01*
X180781Y121561D01*
X180888Y121020D01*
X181195Y120562D01*
X181653Y120256D01*
X182194Y120148D01*
X182735Y120256D01*
X183193Y120562D01*
X183499Y121020D01*
X183607Y121561D01*
X183499Y122102D01*
X183193Y122560D01*
X182735Y122866D01*
X182194Y122974D01*
D02*
G37*
G36*
X227917Y120617D02*
X226594D01*
Y119294D01*
X226830Y119341D01*
X227453Y119757D01*
X227870Y120381D01*
X227917Y120617D01*
D02*
G37*
G36*
X225594D02*
X224270D01*
X224317Y120381D01*
X224734Y119757D01*
X225358Y119341D01*
X225594Y119294D01*
Y120617D01*
D02*
G37*
G36*
X250394Y121747D02*
X249853Y121640D01*
X249395Y121334D01*
X249088Y120875D01*
X248981Y120334D01*
X249088Y119794D01*
X249395Y119335D01*
X249853Y119029D01*
X250394Y118921D01*
X250934Y119029D01*
X251393Y119335D01*
X251699Y119794D01*
X251807Y120334D01*
X251699Y120875D01*
X251393Y121334D01*
X250934Y121640D01*
X250394Y121747D01*
D02*
G37*
G36*
X66784Y119972D02*
X65461D01*
Y118649D01*
X65696Y118696D01*
X66320Y119113D01*
X66737Y119737D01*
X66784Y119972D01*
D02*
G37*
G36*
X64461D02*
X63137D01*
X63184Y119737D01*
X63601Y119113D01*
X64225Y118696D01*
X64461Y118649D01*
Y119972D01*
D02*
G37*
G36*
X193316Y121399D02*
X192776Y121292D01*
X192317Y120985D01*
X192011Y120527D01*
X191903Y119986D01*
X192011Y119446D01*
X192317Y118987D01*
X192776Y118681D01*
X193316Y118573D01*
X193857Y118681D01*
X194316Y118987D01*
X194622Y119446D01*
X194729Y119986D01*
X194622Y120527D01*
X194316Y120985D01*
X193857Y121292D01*
X193316Y121399D01*
D02*
G37*
G36*
X158369Y119338D02*
X157046D01*
Y118014D01*
X157282Y118061D01*
X157905Y118478D01*
X158322Y119102D01*
X158369Y119338D01*
D02*
G37*
G36*
X156046D02*
X154723D01*
X154770Y119102D01*
X155186Y118478D01*
X155810Y118061D01*
X156046Y118014D01*
Y119338D01*
D02*
G37*
G36*
X280933Y119147D02*
Y117823D01*
X282256D01*
X282209Y118059D01*
X281793Y118683D01*
X281169Y119100D01*
X280933Y119147D01*
D02*
G37*
G36*
X279933D02*
X279697Y119100D01*
X279074Y118683D01*
X278657Y118059D01*
X278610Y117823D01*
X279933D01*
Y119147D01*
D02*
G37*
G36*
X282256Y116823D02*
X280933D01*
Y115500D01*
X281169Y115547D01*
X281793Y115964D01*
X282209Y116587D01*
X282256Y116823D01*
D02*
G37*
G36*
X279933D02*
X278610D01*
X278657Y116587D01*
X279074Y115964D01*
X279697Y115547D01*
X279933Y115500D01*
Y116823D01*
D02*
G37*
G36*
X181111Y117856D02*
X180570Y117748D01*
X180112Y117442D01*
X179806Y116983D01*
X179698Y116443D01*
X179806Y115902D01*
X180112Y115444D01*
X180570Y115137D01*
X181111Y115030D01*
X181652Y115137D01*
X182110Y115444D01*
X182417Y115902D01*
X182524Y116443D01*
X182417Y116983D01*
X182110Y117442D01*
X181652Y117748D01*
X181111Y117856D01*
D02*
G37*
G36*
X230413Y118440D02*
X229873Y118333D01*
X229414Y118027D01*
X229108Y117568D01*
X229000Y117027D01*
X229108Y116487D01*
X229414Y116028D01*
X229873Y115722D01*
X230041Y115179D01*
X229994Y115108D01*
X229886Y114567D01*
X229994Y114026D01*
X230300Y113568D01*
X230759Y113261D01*
X231299Y113154D01*
X231840Y113261D01*
X232298Y113568D01*
X232605Y114026D01*
X232712Y114567D01*
X232605Y115108D01*
X232298Y115566D01*
X231840Y115872D01*
X231671Y116416D01*
X231719Y116487D01*
X231826Y117027D01*
X231719Y117568D01*
X231413Y118027D01*
X230954Y118333D01*
X230413Y118440D01*
D02*
G37*
G36*
X125295Y115783D02*
X124755Y115675D01*
X124296Y115369D01*
X123990Y114911D01*
X123882Y114370D01*
X123990Y113829D01*
X124296Y113371D01*
X124755Y113065D01*
X125295Y112957D01*
X125836Y113065D01*
X126294Y113371D01*
X126601Y113829D01*
X126708Y114370D01*
X126601Y114911D01*
X126294Y115369D01*
X125836Y115675D01*
X125295Y115783D01*
D02*
G37*
G36*
X46700Y114023D02*
Y112700D01*
X48023D01*
X47976Y112936D01*
X47560Y113560D01*
X46936Y113976D01*
X46700Y114023D01*
D02*
G37*
G36*
X45700D02*
X45464Y113976D01*
X44840Y113560D01*
X44424Y112936D01*
X44377Y112700D01*
X45700D01*
Y114023D01*
D02*
G37*
G36*
X90780Y123516D02*
X86811D01*
X82842D01*
X82914Y122971D01*
X83317Y121999D01*
X83958Y121163D01*
X84794Y120522D01*
X85767Y120119D01*
X86070Y120079D01*
Y119574D01*
X85897Y119552D01*
X85046Y119199D01*
X84315Y118638D01*
X83754Y117907D01*
X83401Y117055D01*
X83281Y116142D01*
X83401Y115228D01*
X83754Y114377D01*
X84315Y113646D01*
X85046Y113084D01*
X85897Y112732D01*
X86811Y112611D01*
X87725Y112732D01*
X88576Y113084D01*
X89307Y113646D01*
X89868Y114377D01*
X90221Y115228D01*
X90341Y116142D01*
X90221Y117055D01*
X89868Y117907D01*
X89307Y118638D01*
X88576Y119199D01*
X87725Y119552D01*
X87552Y119574D01*
Y120079D01*
X87855Y120119D01*
X88828Y120522D01*
X89664Y121163D01*
X90305Y121999D01*
X90708Y122971D01*
X90780Y123516D01*
D02*
G37*
G36*
X78149Y119672D02*
X77236Y119552D01*
X76384Y119199D01*
X75653Y118638D01*
X75092Y117907D01*
X74740Y117055D01*
X74619Y116142D01*
X74740Y115228D01*
X75092Y114377D01*
X75653Y113646D01*
X76384Y113084D01*
X77236Y112732D01*
X78149Y112611D01*
X79063Y112732D01*
X79915Y113084D01*
X80646Y113646D01*
X81207Y114377D01*
X81559Y115228D01*
X81680Y116142D01*
X81559Y117055D01*
X81207Y117907D01*
X80646Y118638D01*
X79915Y119199D01*
X79063Y119552D01*
X78149Y119672D01*
D02*
G37*
G36*
X103256Y113831D02*
Y112508D01*
X104579D01*
X104532Y112744D01*
X104115Y113367D01*
X103492Y113784D01*
X103256Y113831D01*
D02*
G37*
G36*
X102256D02*
X102020Y113784D01*
X101396Y113367D01*
X100979Y112744D01*
X100933Y112508D01*
X102256D01*
Y113831D01*
D02*
G37*
G36*
X110433Y113821D02*
X109892Y113714D01*
X109434Y113407D01*
X109128Y112949D01*
X109020Y112408D01*
X109128Y111868D01*
X109434Y111409D01*
X109892Y111103D01*
X110433Y110995D01*
X110974Y111103D01*
X111432Y111409D01*
X111739Y111868D01*
X111846Y112408D01*
X111739Y112949D01*
X111432Y113407D01*
X110974Y113714D01*
X110433Y113821D01*
D02*
G37*
G36*
X256405Y111764D02*
Y110441D01*
X257729D01*
X257682Y110677D01*
X257265Y111301D01*
X256641Y111717D01*
X256405Y111764D01*
D02*
G37*
G36*
X255405D02*
X255170Y111717D01*
X254546Y111301D01*
X254129Y110677D01*
X254082Y110441D01*
X255405D01*
Y111764D01*
D02*
G37*
G36*
X225000Y113224D02*
X224459Y113116D01*
X224001Y112810D01*
X223695Y112352D01*
X223587Y111811D01*
X223695Y111270D01*
X224001Y110812D01*
X224459Y110506D01*
X225000Y110398D01*
X225541Y110506D01*
X225999Y110812D01*
X226305Y111270D01*
X226413Y111811D01*
X226305Y112352D01*
X225999Y112810D01*
X225541Y113116D01*
X225000Y113224D01*
D02*
G37*
G36*
X48023Y111700D02*
X46700D01*
Y110377D01*
X46936Y110424D01*
X47560Y110840D01*
X47976Y111464D01*
X48023Y111700D01*
D02*
G37*
G36*
X45700D02*
X44377D01*
X44424Y111464D01*
X44840Y110840D01*
X45464Y110424D01*
X45700Y110377D01*
Y111700D01*
D02*
G37*
G36*
X138091Y113027D02*
X137550Y112920D01*
X137091Y112613D01*
X136785Y112155D01*
X136678Y111614D01*
X136785Y111074D01*
X137091Y110615D01*
X137550Y110309D01*
X138091Y110201D01*
X138631Y110309D01*
X139090Y110615D01*
X139396Y111074D01*
X139504Y111614D01*
X139396Y112155D01*
X139090Y112613D01*
X138631Y112920D01*
X138091Y113027D01*
D02*
G37*
G36*
X104579Y111508D02*
X103256D01*
Y110185D01*
X103492Y110231D01*
X104115Y110648D01*
X104532Y111272D01*
X104579Y111508D01*
D02*
G37*
G36*
X102256D02*
X100933D01*
X100979Y111272D01*
X101396Y110648D01*
X102020Y110231D01*
X102256Y110185D01*
Y111508D01*
D02*
G37*
G36*
X337114Y111075D02*
Y109752D01*
X338438D01*
X338391Y109988D01*
X337974Y110612D01*
X337350Y111028D01*
X337114Y111075D01*
D02*
G37*
G36*
X336114D02*
X335878Y111028D01*
X335255Y110612D01*
X334838Y109988D01*
X334791Y109752D01*
X336114D01*
Y111075D01*
D02*
G37*
G36*
X231398Y111744D02*
X230857Y111637D01*
X230399Y111331D01*
X230092Y110872D01*
X229985Y110331D01*
X230092Y109791D01*
X230399Y109332D01*
X230857Y109026D01*
X231398Y108918D01*
X231938Y109026D01*
X232397Y109332D01*
X232703Y109791D01*
X232811Y110331D01*
X232703Y110872D01*
X232397Y111331D01*
X231938Y111637D01*
X231398Y111744D01*
D02*
G37*
G36*
X57087Y111354D02*
X56546Y111246D01*
X56087Y110940D01*
X55781Y110482D01*
X55674Y109941D01*
X55781Y109400D01*
X56087Y108942D01*
X56546Y108635D01*
X57087Y108528D01*
X57627Y108635D01*
X58086Y108942D01*
X58392Y109400D01*
X58500Y109941D01*
X58392Y110482D01*
X58086Y110940D01*
X57627Y111246D01*
X57087Y111354D01*
D02*
G37*
G36*
X164764Y111059D02*
X164223Y110951D01*
X163765Y110645D01*
X163458Y110186D01*
X163351Y109646D01*
X163458Y109105D01*
X163765Y108647D01*
X164223Y108340D01*
X164764Y108233D01*
X165305Y108340D01*
X165763Y108647D01*
X166069Y109105D01*
X166177Y109646D01*
X166069Y110186D01*
X165763Y110645D01*
X165305Y110951D01*
X164764Y111059D01*
D02*
G37*
G36*
X257729Y109441D02*
X256405D01*
Y108118D01*
X256641Y108165D01*
X257265Y108581D01*
X257682Y109205D01*
X257729Y109441D01*
D02*
G37*
G36*
X255405D02*
X254082D01*
X254129Y109205D01*
X254546Y108581D01*
X255170Y108165D01*
X255405Y108118D01*
Y109441D01*
D02*
G37*
G36*
X338438Y108752D02*
X337114D01*
Y107429D01*
X337350Y107476D01*
X337974Y107892D01*
X338391Y108516D01*
X338438Y108752D01*
D02*
G37*
G36*
X336114D02*
X334791D01*
X334838Y108516D01*
X335255Y107892D01*
X335878Y107476D01*
X336114Y107429D01*
Y108752D01*
D02*
G37*
G36*
X118405Y108106D02*
X117865Y107998D01*
X117406Y107692D01*
X117100Y107234D01*
X116992Y106693D01*
X117100Y106152D01*
X117406Y105694D01*
X117865Y105387D01*
X118405Y105280D01*
X118946Y105387D01*
X119405Y105694D01*
X119711Y106152D01*
X119818Y106693D01*
X119711Y107234D01*
X119405Y107692D01*
X118946Y107998D01*
X118405Y108106D01*
D02*
G37*
G36*
X311277Y106154D02*
Y104831D01*
X312600D01*
X312553Y105067D01*
X312137Y105690D01*
X311513Y106107D01*
X311277Y106154D01*
D02*
G37*
G36*
X310277D02*
X310041Y106107D01*
X309417Y105690D01*
X309000Y105067D01*
X308954Y104831D01*
X310277D01*
Y106154D01*
D02*
G37*
G36*
X86811Y111798D02*
X85897Y111678D01*
X85046Y111325D01*
X84315Y110764D01*
X83754Y110033D01*
X83401Y109181D01*
X83281Y108268D01*
X83401Y107354D01*
X83754Y106503D01*
X84315Y105772D01*
X85046Y105210D01*
X85897Y104858D01*
X86811Y104737D01*
X87725Y104858D01*
X88576Y105210D01*
X89307Y105772D01*
X89868Y106503D01*
X90221Y107354D01*
X90341Y108268D01*
X90221Y109181D01*
X89868Y110033D01*
X89307Y110764D01*
X88576Y111325D01*
X87725Y111678D01*
X86811Y111798D01*
D02*
G37*
G36*
X78149D02*
X77236Y111678D01*
X76384Y111325D01*
X75653Y110764D01*
X75092Y110033D01*
X74740Y109181D01*
X74619Y108268D01*
X74740Y107354D01*
X75092Y106503D01*
X75653Y105772D01*
X76384Y105210D01*
X77236Y104858D01*
X78149Y104737D01*
X79063Y104858D01*
X79915Y105210D01*
X80646Y105772D01*
X81207Y106503D01*
X81559Y107354D01*
X81680Y108268D01*
X81559Y109181D01*
X81207Y110033D01*
X80646Y110764D01*
X79915Y111325D01*
X79063Y111678D01*
X78149Y111798D01*
D02*
G37*
G36*
X134455Y107520D02*
X133915Y107413D01*
X133456Y107107D01*
X133150Y106648D01*
X133042Y106107D01*
X133150Y105567D01*
X133456Y105108D01*
X133915Y104802D01*
X134455Y104695D01*
X134996Y104802D01*
X135454Y105108D01*
X135761Y105567D01*
X135868Y106107D01*
X135761Y106648D01*
X135454Y107107D01*
X134996Y107413D01*
X134455Y107520D01*
D02*
G37*
G36*
X164764Y107220D02*
X164223Y107113D01*
X163765Y106806D01*
X163458Y106348D01*
X163351Y105807D01*
X163458Y105266D01*
X163765Y104808D01*
X164223Y104502D01*
X164764Y104394D01*
X165305Y104502D01*
X165763Y104808D01*
X166069Y105266D01*
X166177Y105807D01*
X166069Y106348D01*
X165763Y106806D01*
X165305Y107113D01*
X164764Y107220D01*
D02*
G37*
G36*
X157087Y107023D02*
X156546Y106916D01*
X156088Y106609D01*
X155781Y106151D01*
X155674Y105610D01*
X155781Y105069D01*
X156088Y104611D01*
X156546Y104305D01*
X157087Y104197D01*
X157627Y104305D01*
X158086Y104611D01*
X158392Y105069D01*
X158500Y105610D01*
X158392Y106151D01*
X158086Y106609D01*
X157627Y106916D01*
X157087Y107023D01*
D02*
G37*
G36*
X202757Y105744D02*
X202216Y105636D01*
X201758Y105330D01*
X201451Y104871D01*
X201344Y104331D01*
X201451Y103790D01*
X201758Y103332D01*
X202216Y103025D01*
X202757Y102918D01*
X203298Y103025D01*
X203756Y103332D01*
X204062Y103790D01*
X204170Y104331D01*
X204062Y104871D01*
X203756Y105330D01*
X203298Y105636D01*
X202757Y105744D01*
D02*
G37*
G36*
X198820D02*
X198279Y105636D01*
X197821Y105330D01*
X197514Y104871D01*
X197407Y104331D01*
X197514Y103790D01*
X197821Y103332D01*
X198279Y103025D01*
X198820Y102918D01*
X199361Y103025D01*
X199819Y103332D01*
X200125Y103790D01*
X200233Y104331D01*
X200125Y104871D01*
X199819Y105330D01*
X199361Y105636D01*
X198820Y105744D01*
D02*
G37*
G36*
X190945D02*
X190404Y105636D01*
X189946Y105330D01*
X189639Y104871D01*
X189532Y104331D01*
X189639Y103790D01*
X189946Y103332D01*
X190404Y103025D01*
X190945Y102918D01*
X191486Y103025D01*
X191944Y103332D01*
X192250Y103790D01*
X192358Y104331D01*
X192250Y104871D01*
X191944Y105330D01*
X191486Y105636D01*
X190945Y105744D01*
D02*
G37*
G36*
X187008D02*
X186467Y105636D01*
X186009Y105330D01*
X185703Y104871D01*
X185595Y104331D01*
X185703Y103790D01*
X186009Y103332D01*
X186467Y103025D01*
X187008Y102918D01*
X187549Y103025D01*
X188007Y103332D01*
X188313Y103790D01*
X188421Y104331D01*
X188313Y104871D01*
X188007Y105330D01*
X187549Y105636D01*
X187008Y105744D01*
D02*
G37*
G36*
X183071D02*
X182530Y105636D01*
X182072Y105330D01*
X181765Y104871D01*
X181658Y104331D01*
X181765Y103790D01*
X182072Y103332D01*
X182530Y103025D01*
X183071Y102918D01*
X183612Y103025D01*
X184070Y103332D01*
X184376Y103790D01*
X184484Y104331D01*
X184376Y104871D01*
X184070Y105330D01*
X183612Y105636D01*
X183071Y105744D01*
D02*
G37*
G36*
X270183Y104185D02*
Y102862D01*
X271507D01*
X271460Y103098D01*
X271043Y103722D01*
X270419Y104139D01*
X270183Y104185D01*
D02*
G37*
G36*
X269183D02*
X268948Y104139D01*
X268324Y103722D01*
X267907Y103098D01*
X267860Y102862D01*
X269183D01*
Y104185D01*
D02*
G37*
G36*
X312600Y103831D02*
X311277D01*
Y102507D01*
X311513Y102554D01*
X312137Y102971D01*
X312553Y103595D01*
X312600Y103831D01*
D02*
G37*
G36*
X310277D02*
X308954D01*
X309000Y103595D01*
X309417Y102971D01*
X310041Y102554D01*
X310277Y102507D01*
Y103831D01*
D02*
G37*
G36*
X92028Y105055D02*
X91487Y104947D01*
X91028Y104641D01*
X90722Y104182D01*
X90615Y103642D01*
X90722Y103101D01*
X91028Y102643D01*
X91487Y102336D01*
X92028Y102229D01*
X92568Y102336D01*
X93027Y102643D01*
X93333Y103101D01*
X93441Y103642D01*
X93333Y104182D01*
X93027Y104641D01*
X92568Y104947D01*
X92028Y105055D01*
D02*
G37*
G36*
X174705Y103874D02*
X174164Y103766D01*
X173706Y103460D01*
X173399Y103001D01*
X173292Y102461D01*
X173399Y101920D01*
X173706Y101462D01*
X174164Y101155D01*
X174705Y101048D01*
X175245Y101155D01*
X175704Y101462D01*
X176010Y101920D01*
X176118Y102461D01*
X176010Y103001D01*
X175704Y103460D01*
X175245Y103766D01*
X174705Y103874D01*
D02*
G37*
G36*
X113976Y103382D02*
X113436Y103274D01*
X112977Y102968D01*
X112671Y102509D01*
X112563Y101969D01*
X112671Y101428D01*
X112977Y100969D01*
X113436Y100663D01*
X113976Y100556D01*
X114517Y100663D01*
X114976Y100969D01*
X115282Y101428D01*
X115389Y101969D01*
X115282Y102509D01*
X114976Y102968D01*
X114517Y103274D01*
X113976Y103382D01*
D02*
G37*
G36*
X271507Y101862D02*
X270183D01*
Y100539D01*
X270419Y100586D01*
X271043Y101003D01*
X271460Y101626D01*
X271507Y101862D01*
D02*
G37*
G36*
X269183D02*
X267860D01*
X267907Y101626D01*
X268324Y101003D01*
X268948Y100586D01*
X269183Y100539D01*
Y101862D01*
D02*
G37*
G36*
X221074Y103190D02*
X220533Y103082D01*
X220075Y102776D01*
X219768Y102317D01*
X219661Y101777D01*
X219768Y101236D01*
X220075Y100777D01*
X220533Y100471D01*
X221074Y100364D01*
X221615Y100471D01*
X222073Y100777D01*
X222379Y101236D01*
X222487Y101777D01*
X222379Y102317D01*
X222073Y102776D01*
X221615Y103082D01*
X221074Y103190D01*
D02*
G37*
G36*
X57087Y103185D02*
X56546Y103077D01*
X56087Y102771D01*
X55781Y102312D01*
X55674Y101772D01*
X55781Y101231D01*
X56087Y100773D01*
X56546Y100466D01*
X57087Y100359D01*
X57627Y100466D01*
X58086Y100773D01*
X58392Y101231D01*
X58500Y101772D01*
X58392Y102312D01*
X58086Y102771D01*
X57627Y103077D01*
X57087Y103185D01*
D02*
G37*
G36*
X154043Y101430D02*
Y100106D01*
X155367D01*
X155320Y100342D01*
X154903Y100966D01*
X154279Y101383D01*
X154043Y101430D01*
D02*
G37*
G36*
X153043D02*
X152807Y101383D01*
X152184Y100966D01*
X151767Y100342D01*
X151720Y100106D01*
X153043D01*
Y101430D01*
D02*
G37*
G36*
X164507Y102063D02*
X163967Y101956D01*
X163508Y101649D01*
X163202Y101191D01*
X163094Y100650D01*
X163202Y100110D01*
X163508Y99651D01*
X163967Y99345D01*
X164507Y99237D01*
X165048Y99345D01*
X165506Y99651D01*
X165813Y100110D01*
X165920Y100650D01*
X165813Y101191D01*
X165506Y101649D01*
X165048Y101956D01*
X164507Y102063D01*
D02*
G37*
G36*
X109358Y100347D02*
Y99024D01*
X110682D01*
X110635Y99259D01*
X110218Y99883D01*
X109594Y100300D01*
X109358Y100347D01*
D02*
G37*
G36*
X108358D02*
X108123Y100300D01*
X107499Y99883D01*
X107082Y99259D01*
X107035Y99024D01*
X108358D01*
Y100347D01*
D02*
G37*
G36*
X194883Y101807D02*
X194342Y101699D01*
X193884Y101393D01*
X193578Y100934D01*
X193470Y100394D01*
X193578Y99853D01*
X193884Y99395D01*
X194342Y99088D01*
X194883Y98981D01*
X195424Y99088D01*
X195882Y99395D01*
X196188Y99853D01*
X196296Y100394D01*
X196188Y100934D01*
X195882Y101393D01*
X195424Y101699D01*
X194883Y101807D01*
D02*
G37*
G36*
X190945D02*
X190404Y101699D01*
X189946Y101393D01*
X189639Y100934D01*
X189532Y100394D01*
X189639Y99853D01*
X189946Y99395D01*
X190404Y99088D01*
X190945Y98981D01*
X191486Y99088D01*
X191944Y99395D01*
X192250Y99853D01*
X192358Y100394D01*
X192250Y100934D01*
X191944Y101393D01*
X191486Y101699D01*
X190945Y101807D01*
D02*
G37*
G36*
X183071D02*
X182530Y101699D01*
X182072Y101393D01*
X181765Y100934D01*
X181658Y100394D01*
X181765Y99853D01*
X182072Y99395D01*
X182530Y99088D01*
X183071Y98981D01*
X183612Y99088D01*
X184070Y99395D01*
X184376Y99853D01*
X184484Y100394D01*
X184376Y100934D01*
X184070Y101393D01*
X183612Y101699D01*
X183071Y101807D01*
D02*
G37*
G36*
X237063Y101406D02*
X236522Y101298D01*
X236064Y100992D01*
X235758Y100534D01*
X235650Y99993D01*
X235758Y99452D01*
X236064Y98994D01*
X236522Y98688D01*
X237063Y98580D01*
X237604Y98688D01*
X238062Y98994D01*
X238368Y99452D01*
X238476Y99993D01*
X238368Y100534D01*
X238062Y100992D01*
X237604Y101298D01*
X237063Y101406D01*
D02*
G37*
G36*
X217322Y100625D02*
X216782Y100518D01*
X216323Y100212D01*
X216017Y99753D01*
X215909Y99212D01*
X216017Y98672D01*
X216323Y98213D01*
X216782Y97907D01*
X217322Y97799D01*
X217863Y97907D01*
X218321Y98213D01*
X218628Y98672D01*
X218735Y99212D01*
X218628Y99753D01*
X218321Y100212D01*
X217863Y100518D01*
X217322Y100625D01*
D02*
G37*
G36*
X155367Y99106D02*
X154043D01*
Y97783D01*
X154279Y97830D01*
X154903Y98247D01*
X155320Y98870D01*
X155367Y99106D01*
D02*
G37*
G36*
X153043D02*
X151720D01*
X151767Y98870D01*
X152184Y98247D01*
X152807Y97830D01*
X153043Y97783D01*
Y99106D01*
D02*
G37*
G36*
X198319Y98281D02*
X198084Y98234D01*
X197460Y97817D01*
X197128Y97321D01*
X197026Y97293D01*
X196677Y97293D01*
X196573Y97321D01*
X196242Y97816D01*
X195618Y98233D01*
X195382Y98280D01*
Y96457D01*
Y94633D01*
X195618Y94680D01*
X196242Y95097D01*
X196573Y95593D01*
X196676Y95621D01*
X197025Y95621D01*
X197129Y95593D01*
X197460Y95098D01*
X198084Y94681D01*
X198319Y94634D01*
Y96457D01*
Y98281D01*
D02*
G37*
G36*
X222539Y99740D02*
X221999Y99632D01*
X221540Y99326D01*
X221234Y98867D01*
X221126Y98327D01*
X221234Y97786D01*
X221540Y97328D01*
X221215Y96983D01*
X220925Y97176D01*
X220385Y97284D01*
X219844Y97176D01*
X219386Y96870D01*
X219079Y96412D01*
X218972Y95871D01*
X219079Y95330D01*
X219386Y94872D01*
X219844Y94565D01*
X220385Y94458D01*
X220732Y94048D01*
X220751Y93881D01*
X220720Y93826D01*
X220720Y93826D01*
X220261Y93519D01*
X219955Y93061D01*
X219847Y92520D01*
X219955Y91979D01*
X220261Y91521D01*
X220720Y91215D01*
X221260Y91107D01*
X221801Y91215D01*
X222259Y91521D01*
X222566Y91979D01*
X222673Y92520D01*
X222610Y92837D01*
X222566Y93061D01*
X222956Y93377D01*
X222992Y93384D01*
X223451Y93691D01*
X223757Y94149D01*
X223865Y94690D01*
X223757Y95230D01*
X223451Y95689D01*
X222992Y95995D01*
X222452Y96103D01*
X222269Y96066D01*
X221692Y96404D01*
X221690Y96412D01*
X221384Y96870D01*
X221709Y97215D01*
X221999Y97021D01*
X222539Y96914D01*
X223080Y97021D01*
X223538Y97328D01*
X223845Y97786D01*
X223952Y98327D01*
X223845Y98867D01*
X223538Y99326D01*
X223080Y99632D01*
X222539Y99740D01*
D02*
G37*
G36*
X199320Y98281D02*
Y96957D01*
X200643D01*
X200596Y97193D01*
X200179Y97817D01*
X199555Y98234D01*
X199320Y98281D01*
D02*
G37*
G36*
X190444D02*
X190208Y98234D01*
X189585Y97817D01*
X189168Y97193D01*
X189121Y96957D01*
X190444D01*
Y98281D01*
D02*
G37*
G36*
X90067Y98280D02*
Y96957D01*
X91390D01*
X91343Y97193D01*
X90926Y97816D01*
X90303Y98233D01*
X90067Y98280D01*
D02*
G37*
G36*
X89067D02*
X88831Y98233D01*
X88207Y97816D01*
X87790Y97193D01*
X87744Y96957D01*
X89067D01*
Y98280D01*
D02*
G37*
G36*
X228543Y99740D02*
X228003Y99632D01*
X227544Y99326D01*
X227238Y98867D01*
X227130Y98327D01*
X227238Y97786D01*
X227544Y97328D01*
X228003Y97021D01*
X228543Y96914D01*
X229084Y97021D01*
X229542Y97328D01*
X229849Y97786D01*
X229956Y98327D01*
X229849Y98867D01*
X229542Y99326D01*
X229084Y99632D01*
X228543Y99740D01*
D02*
G37*
G36*
X78149Y103924D02*
X77236Y103804D01*
X76384Y103451D01*
X75653Y102890D01*
X75092Y102159D01*
X74740Y101307D01*
X74619Y100394D01*
X74740Y99480D01*
X75092Y98629D01*
X75653Y97897D01*
X76384Y97337D01*
X77236Y96984D01*
X78149Y96864D01*
X79063Y96984D01*
X79915Y97337D01*
X80646Y97897D01*
X81207Y98629D01*
X81559Y99480D01*
X81680Y100394D01*
X81559Y101307D01*
X81207Y102159D01*
X80646Y102890D01*
X79915Y103451D01*
X79063Y103804D01*
X78149Y103924D01*
D02*
G37*
G36*
X110682Y98024D02*
X107035D01*
X107082Y97788D01*
X107478Y97195D01*
X107082Y96602D01*
X107035Y96366D01*
X110682D01*
X110635Y96602D01*
X110239Y97195D01*
X110635Y97788D01*
X110682Y98024D01*
D02*
G37*
G36*
X134761Y98443D02*
X134221Y98335D01*
X133762Y98029D01*
X133456Y97571D01*
X133349Y97030D01*
X133456Y96489D01*
X133762Y96031D01*
X134221Y95724D01*
X134761Y95617D01*
X135302Y95724D01*
X135761Y96031D01*
X136067Y96489D01*
X136174Y97030D01*
X136067Y97571D01*
X135761Y98029D01*
X135302Y98335D01*
X134761Y98443D01*
D02*
G37*
G36*
X131010Y98207D02*
X130469Y98099D01*
X130011Y97793D01*
X129704Y97334D01*
X129597Y96794D01*
X129704Y96253D01*
X130011Y95795D01*
X130469Y95488D01*
X131010Y95381D01*
X131551Y95488D01*
X132009Y95795D01*
X132315Y96253D01*
X132423Y96794D01*
X132315Y97334D01*
X132009Y97793D01*
X131551Y98099D01*
X131010Y98207D01*
D02*
G37*
G36*
X123728Y96607D02*
Y95284D01*
X125052D01*
X125005Y95519D01*
X124588Y96143D01*
X123964Y96560D01*
X123728Y96607D01*
D02*
G37*
G36*
X183071Y97870D02*
X182530Y97762D01*
X182072Y97456D01*
X181765Y96997D01*
X181658Y96457D01*
X181765Y95916D01*
X182072Y95458D01*
X182530Y95151D01*
X183071Y95044D01*
X183612Y95151D01*
X184070Y95458D01*
X184376Y95916D01*
X184484Y96457D01*
X184376Y96997D01*
X184070Y97456D01*
X183612Y97762D01*
X183071Y97870D01*
D02*
G37*
G36*
X238210Y96311D02*
Y94988D01*
X239533D01*
X239486Y95224D01*
X239070Y95848D01*
X238446Y96265D01*
X238210Y96311D01*
D02*
G37*
G36*
X237210D02*
X236974Y96265D01*
X236350Y95848D01*
X235933Y95224D01*
X235887Y94988D01*
X237210D01*
Y96311D01*
D02*
G37*
G36*
X206534Y97673D02*
X205994Y97565D01*
X205535Y97259D01*
X205229Y96801D01*
X205121Y96260D01*
X205229Y95719D01*
X205535Y95261D01*
X205994Y94954D01*
X206534Y94847D01*
X207075Y94954D01*
X207534Y95261D01*
X207840Y95719D01*
X207947Y96260D01*
X207840Y96801D01*
X207534Y97259D01*
X207075Y97565D01*
X206534Y97673D01*
D02*
G37*
G36*
X200643Y95957D02*
X199320D01*
Y94634D01*
X199555Y94681D01*
X200179Y95098D01*
X200596Y95722D01*
X200643Y95957D01*
D02*
G37*
G36*
X190444D02*
X189121D01*
X189168Y95722D01*
X189585Y95098D01*
X190208Y94681D01*
X190444Y94634D01*
Y95957D01*
D02*
G37*
G36*
X191444Y98281D02*
Y96457D01*
Y94634D01*
X191680Y94681D01*
X192304Y95098D01*
X192635Y95594D01*
X192741Y95622D01*
X193086Y95622D01*
X193191Y95594D01*
X193523Y95097D01*
X194147Y94680D01*
X194382Y94633D01*
Y96457D01*
Y98280D01*
X194147Y98233D01*
X193523Y97816D01*
X193191Y97320D01*
X193085Y97292D01*
X192740Y97292D01*
X192636Y97320D01*
X192304Y97817D01*
X191680Y98234D01*
X191444Y98281D01*
D02*
G37*
G36*
X91390Y95957D02*
X90067D01*
Y94633D01*
X90303Y94680D01*
X90926Y95097D01*
X91343Y95721D01*
X91390Y95957D01*
D02*
G37*
G36*
X89067D02*
X87744D01*
X87790Y95721D01*
X88207Y95097D01*
X88831Y94680D01*
X89067Y94633D01*
Y95957D01*
D02*
G37*
G36*
X110682Y95366D02*
X109358D01*
Y94043D01*
X109594Y94090D01*
X110218Y94507D01*
X110635Y95130D01*
X110682Y95366D01*
D02*
G37*
G36*
X108358D02*
X107035D01*
X107082Y95130D01*
X107499Y94507D01*
X108123Y94090D01*
X108358Y94043D01*
Y95366D01*
D02*
G37*
G36*
X117217Y94343D02*
X116981Y94296D01*
X116357Y93879D01*
X115940Y93256D01*
X115893Y93020D01*
X117217D01*
Y94343D01*
D02*
G37*
G36*
X258874Y94343D02*
Y93019D01*
X260197D01*
X260150Y93255D01*
X259734Y93879D01*
X259110Y94296D01*
X258874Y94343D01*
D02*
G37*
G36*
X257874D02*
X257638Y94296D01*
X257014Y93879D01*
X256598Y93255D01*
X256551Y93019D01*
X257874D01*
Y94343D01*
D02*
G37*
G36*
X125052Y94283D02*
X123728D01*
Y92960D01*
X123964Y93007D01*
X124588Y93424D01*
X125005Y94048D01*
X125052Y94283D01*
D02*
G37*
G36*
X119691Y96890D02*
X119150Y96782D01*
X118692Y96476D01*
X118386Y96018D01*
X118278Y95477D01*
X118386Y94936D01*
X118476Y94801D01*
X118217Y94413D01*
Y93020D01*
X119540D01*
X119493Y93256D01*
X119232Y93646D01*
X119533Y94095D01*
X119691Y94064D01*
X120232Y94172D01*
X120690Y94478D01*
X120818Y94670D01*
X121349Y94564D01*
X121452Y94048D01*
X121869Y93424D01*
X122493Y93007D01*
X122728Y92960D01*
Y94784D01*
Y96607D01*
X122493Y96560D01*
X121869Y96143D01*
X121570Y95696D01*
X121039Y95802D01*
X120996Y96018D01*
X120690Y96476D01*
X120232Y96782D01*
X119691Y96890D01*
D02*
G37*
G36*
X171621Y94131D02*
X171386Y94084D01*
X170762Y93668D01*
X170345Y93044D01*
X170325Y92942D01*
X169798Y92830D01*
X169340Y93136D01*
X168799Y93244D01*
X168259Y93136D01*
X167800Y92830D01*
X167494Y92371D01*
X167386Y91831D01*
X167494Y91290D01*
X167800Y90832D01*
X168259Y90525D01*
X168799Y90418D01*
X169340Y90525D01*
X169798Y90832D01*
X170018Y91161D01*
X170450Y91224D01*
X170596Y91197D01*
X170762Y90948D01*
X171386Y90532D01*
X171621Y90485D01*
Y92308D01*
Y94131D01*
D02*
G37*
G36*
X172621D02*
Y92808D01*
X173945D01*
X173898Y93044D01*
X173481Y93668D01*
X172857Y94084D01*
X172621Y94131D01*
D02*
G37*
G36*
X239533Y93988D02*
X238210D01*
Y92665D01*
X238446Y92712D01*
X239070Y93129D01*
X239486Y93752D01*
X239533Y93988D01*
D02*
G37*
G36*
X237210D02*
X235887D01*
X235933Y93752D01*
X236350Y93129D01*
X236974Y92712D01*
X237210Y92665D01*
Y93988D01*
D02*
G37*
G36*
X145374Y94720D02*
X144833Y94612D01*
X144375Y94306D01*
X144069Y93848D01*
X143961Y93307D01*
X144069Y92766D01*
X144375Y92308D01*
X144833Y92002D01*
X145374Y91894D01*
X145915Y92002D01*
X146373Y92308D01*
X146679Y92766D01*
X146787Y93307D01*
X146679Y93848D01*
X146373Y94306D01*
X145915Y94612D01*
X145374Y94720D01*
D02*
G37*
G36*
X202756Y93934D02*
X202215Y93826D01*
X201757Y93520D01*
X201450Y93061D01*
X201343Y92521D01*
X201450Y91980D01*
X201757Y91522D01*
X202215Y91215D01*
X202756Y91108D01*
X203297Y91215D01*
X203755Y91522D01*
X204061Y91980D01*
X204169Y92521D01*
X204061Y93061D01*
X203755Y93520D01*
X203297Y93826D01*
X202756Y93934D01*
D02*
G37*
G36*
X194882Y93933D02*
X194342Y93825D01*
X193883Y93519D01*
X193577Y93060D01*
X193469Y92520D01*
X193577Y91979D01*
X193883Y91521D01*
X194342Y91214D01*
X194882Y91107D01*
X195423Y91214D01*
X195881Y91521D01*
X196188Y91979D01*
X196295Y92520D01*
X196188Y93060D01*
X195881Y93519D01*
X195423Y93825D01*
X194882Y93933D01*
D02*
G37*
G36*
X190945D02*
X190404Y93825D01*
X189946Y93519D01*
X189639Y93060D01*
X189532Y92520D01*
X189639Y91979D01*
X189946Y91521D01*
X190404Y91214D01*
X190945Y91107D01*
X191486Y91214D01*
X191944Y91521D01*
X192250Y91979D01*
X192358Y92520D01*
X192250Y93060D01*
X191944Y93519D01*
X191486Y93825D01*
X190945Y93933D01*
D02*
G37*
G36*
X187007Y93932D02*
X186467Y93825D01*
X186008Y93519D01*
X185702Y93060D01*
X185594Y92519D01*
X185702Y91979D01*
X186008Y91520D01*
X186467Y91214D01*
X187007Y91106D01*
X187548Y91214D01*
X188007Y91520D01*
X188313Y91979D01*
X188420Y92519D01*
X188313Y93060D01*
X188007Y93519D01*
X187548Y93825D01*
X187007Y93932D01*
D02*
G37*
G36*
X183109D02*
X182568Y93825D01*
X182109Y93519D01*
X181803Y93060D01*
X181696Y92519D01*
X181803Y91979D01*
X182109Y91520D01*
X182568Y91214D01*
X183109Y91106D01*
X183649Y91214D01*
X184108Y91520D01*
X184414Y91979D01*
X184522Y92519D01*
X184414Y93060D01*
X184108Y93519D01*
X183649Y93825D01*
X183109Y93932D01*
D02*
G37*
G36*
X119540Y92020D02*
X118217D01*
Y90696D01*
X118452Y90743D01*
X119076Y91160D01*
X119493Y91784D01*
X119540Y92020D01*
D02*
G37*
G36*
X117217D02*
X115893D01*
X115940Y91784D01*
X116357Y91160D01*
X116981Y90743D01*
X117217Y90696D01*
Y92020D01*
D02*
G37*
G36*
X260197Y92019D02*
X258874D01*
Y90696D01*
X259110Y90743D01*
X259734Y91160D01*
X260150Y91784D01*
X260197Y92019D01*
D02*
G37*
G36*
X257874D02*
X256551D01*
X256598Y91784D01*
X257014Y91160D01*
X257638Y90743D01*
X257874Y90696D01*
Y92019D01*
D02*
G37*
G36*
X173945Y91808D02*
X172621D01*
Y90485D01*
X172857Y90532D01*
X173481Y90948D01*
X173898Y91572D01*
X173945Y91808D01*
D02*
G37*
G36*
X108405Y92812D02*
X107864Y92704D01*
X107405Y92398D01*
X107099Y91939D01*
X106992Y91399D01*
X107099Y90858D01*
X107405Y90399D01*
X107864Y90093D01*
X108405Y89986D01*
X108945Y90093D01*
X109404Y90399D01*
X109710Y90858D01*
X109818Y91399D01*
X109710Y91939D01*
X109404Y92398D01*
X108945Y92704D01*
X108405Y92812D01*
D02*
G37*
G36*
X190051Y90012D02*
X189815Y89965D01*
X189191Y89548D01*
X188842Y89026D01*
X188423Y89045D01*
X188322Y89079D01*
X188313Y89123D01*
X188007Y89582D01*
X187549Y89888D01*
X187008Y89996D01*
X186467Y89888D01*
X186009Y89582D01*
X185703Y89123D01*
X185595Y88583D01*
X185703Y88042D01*
X186009Y87584D01*
X186467Y87277D01*
X187008Y87170D01*
X187549Y87277D01*
X188007Y87584D01*
X188185Y87851D01*
X188716Y87745D01*
X188774Y87453D01*
X189191Y86829D01*
X189815Y86412D01*
X190051Y86365D01*
Y88189D01*
Y90012D01*
D02*
G37*
G36*
X78149Y96050D02*
X77236Y95930D01*
X76384Y95577D01*
X75653Y95016D01*
X75092Y94285D01*
X74740Y93433D01*
X74619Y92520D01*
X74740Y91606D01*
X75092Y90755D01*
X75653Y90023D01*
X76384Y89463D01*
X77236Y89110D01*
X78149Y88990D01*
X79063Y89110D01*
X79915Y89463D01*
X80646Y90023D01*
X81207Y90755D01*
X81559Y91606D01*
X81680Y92520D01*
X81559Y93433D01*
X81207Y94285D01*
X80646Y95016D01*
X79915Y95577D01*
X79063Y95930D01*
X78149Y96050D01*
D02*
G37*
G36*
X65461Y90012D02*
Y88689D01*
X66784D01*
X66737Y88925D01*
X66320Y89549D01*
X65696Y89965D01*
X65461Y90012D01*
D02*
G37*
G36*
X64461D02*
X64225Y89965D01*
X63601Y89549D01*
X63184Y88925D01*
X63137Y88689D01*
X64461D01*
Y90012D01*
D02*
G37*
G36*
X191051Y90012D02*
Y88689D01*
X192374D01*
X192327Y88924D01*
X191910Y89548D01*
X191287Y89965D01*
X191051Y90012D01*
D02*
G37*
G36*
X202569Y90000D02*
X202028Y89892D01*
X201570Y89586D01*
X201263Y89128D01*
X201156Y88587D01*
X201263Y88046D01*
X201570Y87588D01*
X202028Y87282D01*
X202569Y87174D01*
X203110Y87282D01*
X203568Y87588D01*
X203874Y88046D01*
X203982Y88587D01*
X203874Y89128D01*
X203568Y89586D01*
X203110Y89892D01*
X202569Y90000D01*
D02*
G37*
G36*
X206693Y89996D02*
X206152Y89888D01*
X205694Y89582D01*
X205387Y89123D01*
X205280Y88583D01*
X205387Y88042D01*
X205694Y87584D01*
X206152Y87277D01*
X206693Y87170D01*
X207234Y87277D01*
X207692Y87584D01*
X207998Y88042D01*
X208106Y88583D01*
X207998Y89123D01*
X207692Y89582D01*
X207234Y89888D01*
X206693Y89996D01*
D02*
G37*
G36*
X148100Y88023D02*
Y86700D01*
X149423D01*
X149376Y86936D01*
X148960Y87560D01*
X148336Y87976D01*
X148100Y88023D01*
D02*
G37*
G36*
X147100D02*
X146864Y87976D01*
X146240Y87560D01*
X145824Y86936D01*
X145777Y86700D01*
X147100D01*
Y88023D01*
D02*
G37*
G36*
X66784Y87689D02*
X65461D01*
Y86366D01*
X65696Y86413D01*
X66320Y86829D01*
X66737Y87453D01*
X66784Y87689D01*
D02*
G37*
G36*
X64461D02*
X63137D01*
X63184Y87453D01*
X63601Y86829D01*
X64225Y86413D01*
X64461Y86366D01*
Y87689D01*
D02*
G37*
G36*
X192374Y87689D02*
X191051D01*
Y86365D01*
X191287Y86412D01*
X191910Y86829D01*
X192327Y87453D01*
X192374Y87689D01*
D02*
G37*
G36*
X126484Y87453D02*
Y86130D01*
X127808D01*
X127761Y86366D01*
X127344Y86989D01*
X126720Y87406D01*
X126484Y87453D01*
D02*
G37*
G36*
X125484D02*
X125248Y87406D01*
X124625Y86989D01*
X124208Y86366D01*
X124161Y86130D01*
X125484D01*
Y87453D01*
D02*
G37*
G36*
X170177Y88027D02*
X169636Y87920D01*
X169178Y87613D01*
X168872Y87155D01*
X168764Y86614D01*
X168872Y86073D01*
X169178Y85615D01*
X169636Y85309D01*
X170177Y85201D01*
X170718Y85309D01*
X171176Y85615D01*
X171483Y86073D01*
X171590Y86614D01*
X171483Y87155D01*
X171176Y87613D01*
X170718Y87920D01*
X170177Y88027D01*
D02*
G37*
G36*
X203109Y86469D02*
Y85146D01*
X204432D01*
X204385Y85382D01*
X203969Y86005D01*
X203345Y86422D01*
X203109Y86469D01*
D02*
G37*
G36*
X202109D02*
X201873Y86422D01*
X201249Y86005D01*
X200833Y85382D01*
X200786Y85146D01*
X202109D01*
Y86469D01*
D02*
G37*
G36*
X135925Y87633D02*
X135385Y87526D01*
X134926Y87220D01*
X134620Y86761D01*
X134512Y86221D01*
X134620Y85680D01*
X134926Y85221D01*
X135385Y84915D01*
X135925Y84807D01*
X136466Y84915D01*
X136924Y85221D01*
X137231Y85680D01*
X137338Y86221D01*
X137231Y86761D01*
X136924Y87220D01*
X136466Y87526D01*
X135925Y87633D01*
D02*
G37*
G36*
X69784D02*
X69243Y87526D01*
X68784Y87220D01*
X68478Y86761D01*
X68370Y86221D01*
X68478Y85680D01*
X68784Y85221D01*
X69243Y84915D01*
X69784Y84807D01*
X70324Y84915D01*
X70783Y85221D01*
X71089Y85680D01*
X71196Y86221D01*
X71089Y86761D01*
X70783Y87220D01*
X70324Y87526D01*
X69784Y87633D01*
D02*
G37*
G36*
X149423Y85700D02*
X148100D01*
Y84377D01*
X148336Y84424D01*
X148960Y84840D01*
X149376Y85464D01*
X149423Y85700D01*
D02*
G37*
G36*
X147100D02*
X145777D01*
X145824Y85464D01*
X146240Y84840D01*
X146864Y84424D01*
X147100Y84377D01*
Y85700D01*
D02*
G37*
G36*
X173622Y86287D02*
X173081Y86180D01*
X172623Y85874D01*
X172317Y85415D01*
X172209Y84874D01*
X172317Y84334D01*
X172623Y83875D01*
X173081Y83569D01*
X173622Y83461D01*
X174163Y83569D01*
X174621Y83875D01*
X174927Y84334D01*
X175035Y84874D01*
X174927Y85415D01*
X174621Y85874D01*
X174163Y86180D01*
X173622Y86287D01*
D02*
G37*
G36*
X46900Y84652D02*
Y83329D01*
X48223D01*
X48176Y83565D01*
X47760Y84188D01*
X47136Y84605D01*
X46900Y84652D01*
D02*
G37*
G36*
X45900D02*
X45664Y84605D01*
X45040Y84188D01*
X44624Y83565D01*
X44577Y83329D01*
X45900D01*
Y84652D01*
D02*
G37*
G36*
X206693Y86059D02*
X206152Y85951D01*
X205694Y85645D01*
X205387Y85186D01*
X205280Y84646D01*
X205387Y84105D01*
X205694Y83647D01*
X206152Y83340D01*
X206693Y83233D01*
X207234Y83340D01*
X207692Y83647D01*
X207998Y84105D01*
X208106Y84646D01*
X207998Y85186D01*
X207692Y85645D01*
X207234Y85951D01*
X206693Y86059D01*
D02*
G37*
G36*
X210630Y86058D02*
X210090Y85950D01*
X209631Y85644D01*
X209325Y85186D01*
X209218Y84645D01*
X209325Y84104D01*
X209631Y83646D01*
X210090Y83340D01*
X210630Y83232D01*
X211171Y83340D01*
X211630Y83646D01*
X211936Y84104D01*
X212043Y84645D01*
X211936Y85186D01*
X211630Y85644D01*
X211171Y85950D01*
X210630Y86058D01*
D02*
G37*
G36*
X204432Y84146D02*
X203109D01*
Y82822D01*
X203345Y82869D01*
X203969Y83286D01*
X204385Y83910D01*
X204432Y84146D01*
D02*
G37*
G36*
X202109D02*
X200786D01*
X200833Y83910D01*
X201249Y83286D01*
X201873Y82869D01*
X202109Y82822D01*
Y84146D01*
D02*
G37*
G36*
X57087Y85370D02*
X56546Y85262D01*
X56087Y84956D01*
X55781Y84497D01*
X55674Y83957D01*
X55781Y83416D01*
X56087Y82958D01*
X56546Y82651D01*
X57087Y82544D01*
X57627Y82651D01*
X58086Y82958D01*
X58392Y83416D01*
X58500Y83957D01*
X58392Y84497D01*
X58086Y84956D01*
X57627Y85262D01*
X57087Y85370D01*
D02*
G37*
G36*
X100894Y83516D02*
Y82193D01*
X102217D01*
X102170Y82429D01*
X101753Y83052D01*
X101129Y83469D01*
X100894Y83516D01*
D02*
G37*
G36*
X99894D02*
X99658Y83469D01*
X99034Y83052D01*
X98617Y82429D01*
X98570Y82193D01*
X99894D01*
Y83516D01*
D02*
G37*
G36*
X154043Y83319D02*
Y81996D01*
X155367D01*
X155320Y82232D01*
X154903Y82856D01*
X154279Y83272D01*
X154043Y83319D01*
D02*
G37*
G36*
X153043D02*
X152807Y83272D01*
X152184Y82856D01*
X151767Y82232D01*
X151720Y81996D01*
X153043D01*
Y83319D01*
D02*
G37*
G36*
X127808Y85130D02*
X124161D01*
X124208Y84894D01*
X124625Y84270D01*
X125034Y83996D01*
X124777Y83612D01*
X124670Y83071D01*
X124777Y82530D01*
X125084Y82072D01*
X125542Y81766D01*
X126083Y81658D01*
X126623Y81766D01*
X127082Y82072D01*
X127388Y82530D01*
X127496Y83071D01*
X127388Y83612D01*
X127319Y83716D01*
X127344Y84270D01*
X127424Y84390D01*
X127761Y84894D01*
X127808Y85130D01*
D02*
G37*
G36*
X328256Y82815D02*
Y81492D01*
X329579D01*
X329532Y81728D01*
X329116Y82352D01*
X328492Y82769D01*
X328256Y82815D01*
D02*
G37*
G36*
X327256D02*
X327020Y82769D01*
X326396Y82352D01*
X325979Y81728D01*
X325933Y81492D01*
X327256D01*
Y82815D01*
D02*
G37*
G36*
X199320Y82531D02*
Y81208D01*
X200643D01*
X200596Y81444D01*
X200179Y82068D01*
X199555Y82485D01*
X199320Y82531D01*
D02*
G37*
G36*
X198319D02*
X198084Y82485D01*
X197460Y82068D01*
X197043Y81444D01*
X196996Y81208D01*
X198319D01*
Y82531D01*
D02*
G37*
G36*
X78149Y88176D02*
X77236Y88056D01*
X76384Y87703D01*
X75653Y87142D01*
X75092Y86411D01*
X74740Y85559D01*
X74619Y84646D01*
X74740Y83732D01*
X75092Y82881D01*
X75653Y82149D01*
X76384Y81588D01*
X77236Y81236D01*
X78149Y81116D01*
X79063Y81236D01*
X79915Y81588D01*
X80646Y82149D01*
X81207Y82881D01*
X81559Y83732D01*
X81680Y84646D01*
X81559Y85559D01*
X81207Y86411D01*
X80646Y87142D01*
X79915Y87703D01*
X79063Y88056D01*
X78149Y88176D01*
D02*
G37*
G36*
X168996Y83893D02*
X168455Y83786D01*
X167997Y83479D01*
X167691Y83021D01*
X167583Y82480D01*
X167691Y81940D01*
X167997Y81481D01*
X168455Y81175D01*
X168996Y81067D01*
X169537Y81175D01*
X169995Y81481D01*
X170301Y81940D01*
X170409Y82480D01*
X170301Y83021D01*
X169995Y83479D01*
X169537Y83786D01*
X168996Y83893D01*
D02*
G37*
G36*
X48223Y82329D02*
X46900D01*
Y81005D01*
X47136Y81052D01*
X47760Y81469D01*
X48176Y82093D01*
X48223Y82329D01*
D02*
G37*
G36*
X45900D02*
X44577D01*
X44624Y82093D01*
X45040Y81469D01*
X45664Y81052D01*
X45900Y81005D01*
Y82329D01*
D02*
G37*
G36*
X224508Y83795D02*
X223967Y83687D01*
X223509Y83381D01*
X223202Y82923D01*
X223095Y82382D01*
X223202Y81841D01*
X223509Y81383D01*
X223967Y81077D01*
X224508Y80969D01*
X225049Y81077D01*
X225507Y81383D01*
X225813Y81841D01*
X225921Y82382D01*
X225813Y82923D01*
X225507Y83381D01*
X225049Y83687D01*
X224508Y83795D01*
D02*
G37*
G36*
X107874Y83106D02*
X107333Y82998D01*
X106875Y82692D01*
X106569Y82234D01*
X106461Y81693D01*
X106569Y81152D01*
X106875Y80694D01*
X107333Y80388D01*
X107874Y80280D01*
X108415Y80388D01*
X108873Y80694D01*
X109179Y81152D01*
X109287Y81693D01*
X109179Y82234D01*
X108873Y82692D01*
X108415Y82998D01*
X107874Y83106D01*
D02*
G37*
G36*
X102217Y81193D02*
X100894D01*
Y79870D01*
X101129Y79917D01*
X101753Y80333D01*
X102170Y80957D01*
X102217Y81193D01*
D02*
G37*
G36*
X99894D02*
X98570D01*
X98617Y80957D01*
X99034Y80333D01*
X99658Y79917D01*
X99894Y79870D01*
Y81193D01*
D02*
G37*
G36*
X155367Y80996D02*
X154043D01*
Y79673D01*
X154279Y79720D01*
X154903Y80137D01*
X155320Y80760D01*
X155367Y80996D01*
D02*
G37*
G36*
X153043D02*
X151720D01*
X151767Y80760D01*
X152184Y80137D01*
X152807Y79720D01*
X153043Y79673D01*
Y80996D01*
D02*
G37*
G36*
X90561Y82258D02*
X90020Y82150D01*
X89562Y81844D01*
X89255Y81385D01*
X89148Y80845D01*
X89255Y80304D01*
X89562Y79846D01*
X90020Y79539D01*
X90561Y79432D01*
X91102Y79539D01*
X91560Y79846D01*
X91866Y80304D01*
X91974Y80845D01*
X91866Y81385D01*
X91560Y81844D01*
X91102Y82150D01*
X90561Y82258D01*
D02*
G37*
G36*
X187131Y82245D02*
X186590Y82137D01*
X186132Y81831D01*
X185826Y81373D01*
X185718Y80832D01*
X185826Y80291D01*
X186132Y79833D01*
X186590Y79526D01*
X187131Y79419D01*
X187672Y79526D01*
X188130Y79833D01*
X188436Y80291D01*
X188544Y80832D01*
X188436Y81373D01*
X188130Y81831D01*
X187672Y82137D01*
X187131Y82245D01*
D02*
G37*
G36*
X238704Y80686D02*
Y79363D01*
X240027D01*
X239980Y79599D01*
X239563Y80222D01*
X238940Y80639D01*
X238704Y80686D01*
D02*
G37*
G36*
X237704D02*
X237468Y80639D01*
X236844Y80222D01*
X236427Y79599D01*
X236381Y79363D01*
X237704D01*
Y80686D01*
D02*
G37*
G36*
X183090Y82140D02*
X182549Y82033D01*
X182091Y81727D01*
X181784Y81268D01*
X181677Y80727D01*
X181784Y80187D01*
X182091Y79728D01*
X182549Y79422D01*
X183090Y79315D01*
X183631Y79422D01*
X184089Y79728D01*
X184395Y80187D01*
X184503Y80727D01*
X184395Y81268D01*
X184089Y81727D01*
X183631Y82033D01*
X183090Y82140D01*
D02*
G37*
G36*
X206693Y82122D02*
X206152Y82014D01*
X205694Y81708D01*
X205387Y81249D01*
X205280Y80709D01*
X205387Y80168D01*
X205694Y79710D01*
X206152Y79403D01*
X206693Y79296D01*
X207234Y79403D01*
X207692Y79710D01*
X207998Y80168D01*
X208106Y80709D01*
X207998Y81249D01*
X207692Y81708D01*
X207234Y82014D01*
X206693Y82122D01*
D02*
G37*
G36*
X202756D02*
X202215Y82014D01*
X201757Y81708D01*
X201450Y81249D01*
X201343Y80709D01*
X201450Y80168D01*
X201757Y79710D01*
X202215Y79403D01*
X202756Y79296D01*
X203297Y79403D01*
X203755Y79710D01*
X204061Y80168D01*
X204169Y80709D01*
X204061Y81249D01*
X203755Y81708D01*
X203297Y82014D01*
X202756Y82122D01*
D02*
G37*
G36*
X329579Y80492D02*
X328256D01*
Y79169D01*
X328492Y79216D01*
X329116Y79633D01*
X329532Y80256D01*
X329579Y80492D01*
D02*
G37*
G36*
X327256D02*
X325933D01*
X325979Y80256D01*
X326396Y79633D01*
X327020Y79216D01*
X327256Y79169D01*
Y80492D01*
D02*
G37*
G36*
X200643Y80208D02*
X199320D01*
Y78885D01*
X199555Y78932D01*
X200179Y79348D01*
X200596Y79972D01*
X200643Y80208D01*
D02*
G37*
G36*
X198319D02*
X196996D01*
X197043Y79972D01*
X197460Y79348D01*
X198084Y78932D01*
X198319Y78885D01*
Y80208D01*
D02*
G37*
G36*
X131299Y80645D02*
X130759Y80538D01*
X130300Y80231D01*
X129994Y79773D01*
X129886Y79232D01*
X129994Y78692D01*
X130300Y78233D01*
X130759Y77927D01*
X131299Y77819D01*
X131840Y77927D01*
X132298Y78233D01*
X132605Y78692D01*
X132712Y79232D01*
X132605Y79773D01*
X132298Y80231D01*
X131840Y80538D01*
X131299Y80645D01*
D02*
G37*
G36*
X216228Y82405D02*
X215688Y82298D01*
X215229Y81991D01*
X214923Y81533D01*
X214815Y80992D01*
X214923Y80452D01*
X215229Y79993D01*
X215688Y79687D01*
X216173Y79590D01*
X216256Y79541D01*
X216553Y79134D01*
X216487Y78800D01*
X216595Y78259D01*
X216901Y77801D01*
X217359Y77495D01*
X217900Y77387D01*
X218441Y77495D01*
X218899Y77801D01*
X219205Y78259D01*
X219313Y78800D01*
X219205Y79341D01*
X218899Y79799D01*
X218441Y80105D01*
X217955Y80202D01*
X217872Y80251D01*
X217575Y80658D01*
X217641Y80992D01*
X217534Y81533D01*
X217228Y81991D01*
X216769Y82298D01*
X216228Y82405D01*
D02*
G37*
G36*
X240027Y78363D02*
X238704D01*
Y77039D01*
X238940Y77086D01*
X239563Y77503D01*
X239980Y78127D01*
X240027Y78363D01*
D02*
G37*
G36*
X237704D02*
X236381D01*
X236427Y78127D01*
X236844Y77503D01*
X237468Y77086D01*
X237704Y77039D01*
Y78363D01*
D02*
G37*
G36*
X126961Y79759D02*
X126420Y79652D01*
X125961Y79346D01*
X125655Y78887D01*
X125548Y78347D01*
X125655Y77806D01*
X125961Y77347D01*
X126420Y77041D01*
X126961Y76933D01*
X127501Y77041D01*
X127960Y77347D01*
X128266Y77806D01*
X128374Y78347D01*
X128266Y78887D01*
X127960Y79346D01*
X127501Y79652D01*
X126961Y79759D01*
D02*
G37*
G36*
X221949Y78677D02*
X221408Y78569D01*
X220950Y78263D01*
X220643Y77804D01*
X220536Y77264D01*
X220643Y76723D01*
X220950Y76265D01*
X221408Y75958D01*
X221949Y75851D01*
X222490Y75958D01*
X222948Y76265D01*
X223254Y76723D01*
X223362Y77264D01*
X223254Y77804D01*
X222948Y78263D01*
X222490Y78569D01*
X221949Y78677D01*
D02*
G37*
G36*
X162697Y78578D02*
X162156Y78471D01*
X161698Y78164D01*
X161391Y77706D01*
X161284Y77165D01*
X161391Y76625D01*
X161698Y76166D01*
X162156Y75860D01*
X162697Y75752D01*
X163238Y75860D01*
X163696Y76166D01*
X164002Y76625D01*
X164110Y77165D01*
X164002Y77706D01*
X163696Y78164D01*
X163238Y78471D01*
X162697Y78578D01*
D02*
G37*
G36*
X101878Y77020D02*
Y75697D01*
X103201D01*
X103154Y75933D01*
X102738Y76556D01*
X102114Y76973D01*
X101878Y77020D01*
D02*
G37*
G36*
X100878D02*
X100642Y76973D01*
X100018Y76556D01*
X99602Y75933D01*
X99555Y75697D01*
X100878D01*
Y77020D01*
D02*
G37*
G36*
X194813Y78303D02*
X194272Y78195D01*
X193814Y77889D01*
X193507Y77430D01*
X193400Y76890D01*
X193507Y76349D01*
X193814Y75890D01*
X194272Y75584D01*
X194813Y75477D01*
X195353Y75584D01*
X195812Y75890D01*
X196118Y76349D01*
X196226Y76890D01*
X196118Y77430D01*
X195812Y77889D01*
X195353Y78195D01*
X194813Y78303D01*
D02*
G37*
G36*
X92913Y76500D02*
X92373Y76392D01*
X91914Y76086D01*
X91608Y75627D01*
X91500Y75087D01*
X91608Y74546D01*
X91914Y74088D01*
X92373Y73781D01*
X92913Y73674D01*
X93454Y73781D01*
X93913Y74088D01*
X94219Y74546D01*
X94326Y75087D01*
X94219Y75627D01*
X93913Y76086D01*
X93454Y76392D01*
X92913Y76500D01*
D02*
G37*
G36*
X103201Y74697D02*
X101878D01*
Y73374D01*
X102114Y73421D01*
X102738Y73837D01*
X103154Y74461D01*
X103201Y74697D01*
D02*
G37*
G36*
X100878D02*
X99555D01*
X99602Y74461D01*
X100018Y73837D01*
X100642Y73421D01*
X100878Y73374D01*
Y74697D01*
D02*
G37*
G36*
X165854Y74658D02*
Y73335D01*
X167178D01*
X167131Y73571D01*
X166714Y74194D01*
X166090Y74611D01*
X165854Y74658D01*
D02*
G37*
G36*
X164854D02*
X164619Y74611D01*
X163995Y74194D01*
X163578Y73571D01*
X163531Y73335D01*
X164854D01*
Y74658D01*
D02*
G37*
G36*
X78149Y80302D02*
X77236Y80182D01*
X76384Y79829D01*
X75653Y79268D01*
X75092Y78537D01*
X74740Y77685D01*
X74619Y76772D01*
X74740Y75858D01*
X75092Y75007D01*
X75653Y74275D01*
X76384Y73714D01*
X77236Y73362D01*
X78149Y73242D01*
X79063Y73362D01*
X79915Y73714D01*
X80646Y74275D01*
X81207Y75007D01*
X81559Y75858D01*
X81680Y76772D01*
X81559Y77685D01*
X81207Y78537D01*
X80646Y79268D01*
X79915Y79829D01*
X79063Y80182D01*
X78149Y80302D01*
D02*
G37*
G36*
X245976Y74471D02*
Y73148D01*
X247300D01*
X247253Y73383D01*
X246836Y74007D01*
X246212Y74424D01*
X245976Y74471D01*
D02*
G37*
G36*
X244976D02*
X244741Y74424D01*
X244117Y74007D01*
X243700Y73383D01*
X243653Y73148D01*
X244976D01*
Y74471D01*
D02*
G37*
G36*
X148138D02*
Y73148D01*
X149461D01*
X149414Y73383D01*
X148997Y74007D01*
X148374Y74424D01*
X148138Y74471D01*
D02*
G37*
G36*
X147138D02*
X146902Y74424D01*
X146278Y74007D01*
X145861Y73383D01*
X145815Y73148D01*
X147138D01*
Y74471D01*
D02*
G37*
G36*
X131890Y75921D02*
X131349Y75813D01*
X130891Y75507D01*
X130584Y75049D01*
X130477Y74508D01*
X130584Y73967D01*
X130891Y73509D01*
X131349Y73203D01*
X131890Y73095D01*
X132431Y73203D01*
X132889Y73509D01*
X133195Y73967D01*
X133303Y74508D01*
X133195Y75049D01*
X132889Y75507D01*
X132431Y75813D01*
X131890Y75921D01*
D02*
G37*
G36*
X268686Y74984D02*
X268145Y74876D01*
X267686Y74570D01*
X267380Y74111D01*
X267273Y73571D01*
X267380Y73030D01*
X267686Y72572D01*
X268145Y72265D01*
X268686Y72158D01*
X269226Y72265D01*
X269685Y72572D01*
X269991Y73030D01*
X270098Y73571D01*
X269991Y74111D01*
X269685Y74570D01*
X269226Y74876D01*
X268686Y74984D01*
D02*
G37*
G36*
X193521Y72985D02*
Y71661D01*
X194844D01*
X194798Y71897D01*
X194381Y72521D01*
X193757Y72938D01*
X193521Y72985D01*
D02*
G37*
G36*
X192521D02*
X192285Y72938D01*
X191662Y72521D01*
X191245Y71897D01*
X191198Y71661D01*
X192521D01*
Y72985D01*
D02*
G37*
G36*
X167178Y72335D02*
X165854D01*
Y71011D01*
X166090Y71058D01*
X166714Y71475D01*
X167131Y72099D01*
X167178Y72335D01*
D02*
G37*
G36*
X164854D02*
X163531D01*
X163578Y72099D01*
X163995Y71475D01*
X164619Y71058D01*
X164854Y71011D01*
Y72335D01*
D02*
G37*
G36*
X272601Y73834D02*
X272060Y73727D01*
X271602Y73421D01*
X271295Y72962D01*
X271188Y72421D01*
X271295Y71881D01*
X271602Y71422D01*
X272060Y71116D01*
X272601Y71008D01*
X273141Y71116D01*
X273600Y71422D01*
X273906Y71881D01*
X274014Y72421D01*
X273906Y72962D01*
X273600Y73421D01*
X273141Y73727D01*
X272601Y73834D01*
D02*
G37*
G36*
X257535Y72252D02*
Y70929D01*
X258858D01*
X258811Y71165D01*
X258394Y71789D01*
X257770Y72206D01*
X257535Y72252D01*
D02*
G37*
G36*
X256535D02*
X256299Y72206D01*
X255675Y71789D01*
X255258Y71165D01*
X255211Y70929D01*
X256535D01*
Y72252D01*
D02*
G37*
G36*
X247300Y72148D02*
X245976D01*
Y70824D01*
X246212Y70871D01*
X246836Y71288D01*
X247253Y71912D01*
X247300Y72148D01*
D02*
G37*
G36*
X244976D02*
X243653D01*
X243700Y71912D01*
X244117Y71288D01*
X244741Y70871D01*
X244976Y70824D01*
Y72148D01*
D02*
G37*
G36*
X149461D02*
X148138D01*
Y70824D01*
X148374Y70871D01*
X148997Y71288D01*
X149414Y71912D01*
X149461Y72148D01*
D02*
G37*
G36*
X147138D02*
X145815D01*
X145861Y71912D01*
X146278Y71288D01*
X146902Y70871D01*
X147138Y70824D01*
Y72148D01*
D02*
G37*
G36*
X214864Y72000D02*
Y70677D01*
X216187D01*
X216140Y70913D01*
X215723Y71537D01*
X215100Y71954D01*
X214864Y72000D01*
D02*
G37*
G36*
X213864D02*
X213628Y71954D01*
X213004Y71537D01*
X212587Y70913D01*
X212548Y70715D01*
X212017Y70610D01*
X211989Y70651D01*
X211366Y71068D01*
X211130Y71115D01*
Y69291D01*
Y67468D01*
X211366Y67515D01*
X211431Y67559D01*
X211881Y67258D01*
X211874Y67224D01*
X211982Y66684D01*
X212288Y66225D01*
X212747Y65919D01*
X213226Y65824D01*
X213234Y65804D01*
X213126Y65264D01*
X213183Y64978D01*
X213044Y64768D01*
X212420Y64352D01*
X212003Y63728D01*
X211956Y63492D01*
X215603D01*
X215556Y63728D01*
X215460Y63871D01*
X215539Y64265D01*
X215845Y64723D01*
X215952Y65264D01*
X215845Y65804D01*
X215539Y66263D01*
X215080Y66569D01*
X214601Y66664D01*
X214593Y66684D01*
X214700Y67224D01*
X214593Y67765D01*
X214578Y67787D01*
X214808Y68343D01*
X215100Y68401D01*
X215723Y68818D01*
X216140Y69441D01*
X216187Y69677D01*
X214364D01*
Y70177D01*
X213864D01*
Y72000D01*
D02*
G37*
G36*
X223481Y71685D02*
Y70362D01*
X224804D01*
X224758Y70597D01*
X224341Y71221D01*
X223717Y71638D01*
X223481Y71685D01*
D02*
G37*
G36*
X222481D02*
X222245Y71638D01*
X221622Y71221D01*
X221205Y70597D01*
X221158Y70362D01*
X222481D01*
Y71685D01*
D02*
G37*
G36*
X210130Y71115D02*
X209894Y71068D01*
X209270Y70651D01*
X208854Y70027D01*
X208807Y69791D01*
X210130D01*
Y71115D01*
D02*
G37*
G36*
X194844Y70661D02*
X193521D01*
Y69338D01*
X193757Y69385D01*
X194381Y69802D01*
X194798Y70426D01*
X194844Y70661D01*
D02*
G37*
G36*
X192521D02*
X191198D01*
X191245Y70426D01*
X191662Y69802D01*
X192285Y69385D01*
X192521Y69338D01*
Y70661D01*
D02*
G37*
G36*
X234860Y70379D02*
Y69055D01*
X236183D01*
X236137Y69291D01*
X235720Y69915D01*
X235096Y70332D01*
X234860Y70379D01*
D02*
G37*
G36*
X233860D02*
X233624Y70332D01*
X233000Y69915D01*
X232584Y69291D01*
X232537Y69055D01*
X233860D01*
Y70379D01*
D02*
G37*
G36*
X130315Y71492D02*
X129774Y71384D01*
X129316Y71078D01*
X129009Y70619D01*
X128902Y70079D01*
X129009Y69538D01*
X129316Y69080D01*
X129774Y68773D01*
X130315Y68666D01*
X130856Y68773D01*
X131314Y69080D01*
X131620Y69538D01*
X131728Y70079D01*
X131620Y70619D01*
X131314Y71078D01*
X130856Y71384D01*
X130315Y71492D01*
D02*
G37*
G36*
X258858Y69929D02*
X257535D01*
Y68606D01*
X257770Y68653D01*
X258394Y69069D01*
X258811Y69693D01*
X258858Y69929D01*
D02*
G37*
G36*
X256535D02*
X255211D01*
X255258Y69693D01*
X255675Y69069D01*
X256299Y68653D01*
X256535Y68606D01*
Y69929D01*
D02*
G37*
G36*
X95571Y72574D02*
X95030Y72467D01*
X94572Y72161D01*
X94266Y71702D01*
X94158Y71161D01*
X94266Y70621D01*
X94572Y70162D01*
X95030Y69856D01*
X95114Y69839D01*
X95344Y69284D01*
X95250Y69143D01*
X95142Y68602D01*
X95250Y68062D01*
X95556Y67603D01*
X96014Y67297D01*
X96555Y67189D01*
X97096Y67297D01*
X97554Y67603D01*
X97822Y68004D01*
X97865Y68064D01*
X98427Y68348D01*
X98654Y68304D01*
X99194Y68411D01*
X99653Y68717D01*
X99959Y69176D01*
X100066Y69717D01*
X99959Y70257D01*
X99653Y70716D01*
X99194Y71022D01*
X98654Y71130D01*
X98113Y71022D01*
X97654Y70716D01*
X97408Y70347D01*
X97193Y70362D01*
X97101Y70437D01*
X96890Y70692D01*
X96984Y71161D01*
X96876Y71702D01*
X96570Y72161D01*
X96112Y72467D01*
X95571Y72574D01*
D02*
G37*
G36*
X109454Y71101D02*
X108913Y70994D01*
X108455Y70688D01*
X108149Y70229D01*
X108041Y69688D01*
X108149Y69148D01*
X108455Y68689D01*
X108913Y68383D01*
X109454Y68275D01*
X109995Y68383D01*
X110453Y68689D01*
X110760Y69148D01*
X110867Y69688D01*
X110760Y70229D01*
X110453Y70688D01*
X109995Y70994D01*
X109454Y71101D01*
D02*
G37*
G36*
X224804Y69362D02*
X223481D01*
Y68038D01*
X223717Y68085D01*
X224341Y68502D01*
X224758Y69126D01*
X224804Y69362D01*
D02*
G37*
G36*
X222481D02*
X221158D01*
X221205Y69126D01*
X221622Y68502D01*
X222245Y68085D01*
X222481Y68038D01*
Y69362D01*
D02*
G37*
G36*
X181595Y70708D02*
X181054Y70600D01*
X180595Y70294D01*
X180289Y69836D01*
X180182Y69295D01*
X180289Y68754D01*
X180595Y68296D01*
X181054Y67989D01*
X181595Y67882D01*
X182135Y67989D01*
X182594Y68296D01*
X182900Y68754D01*
X183008Y69295D01*
X182900Y69836D01*
X182594Y70294D01*
X182135Y70600D01*
X181595Y70708D01*
D02*
G37*
G36*
X198808Y70311D02*
X198267Y70203D01*
X197809Y69897D01*
X197503Y69438D01*
X197395Y68898D01*
X197503Y68357D01*
X197809Y67898D01*
X198267Y67592D01*
X198808Y67485D01*
X199349Y67592D01*
X199807Y67898D01*
X200113Y68357D01*
X200221Y68898D01*
X200113Y69438D01*
X199807Y69897D01*
X199349Y70203D01*
X198808Y70311D01*
D02*
G37*
G36*
X174705Y70000D02*
X174164Y69893D01*
X173706Y69587D01*
X173399Y69128D01*
X173292Y68588D01*
X173399Y68047D01*
X173706Y67589D01*
X174164Y67282D01*
X174705Y67175D01*
X175245Y67282D01*
X175704Y67589D01*
X176010Y68047D01*
X176118Y68588D01*
X176010Y69128D01*
X175704Y69587D01*
X175245Y69893D01*
X174705Y70000D01*
D02*
G37*
G36*
X140500Y69811D02*
X139959Y69703D01*
X139501Y69397D01*
X139195Y68938D01*
X139087Y68398D01*
X139195Y67857D01*
X139501Y67399D01*
X139959Y67092D01*
X140500Y66985D01*
X141041Y67092D01*
X141499Y67399D01*
X141805Y67857D01*
X141913Y68398D01*
X141805Y68938D01*
X141499Y69397D01*
X141041Y69703D01*
X140500Y69811D01*
D02*
G37*
G36*
X236183Y68055D02*
X234860D01*
Y66732D01*
X235096Y66779D01*
X235720Y67196D01*
X236137Y67820D01*
X236183Y68055D01*
D02*
G37*
G36*
X233860D02*
X232537D01*
X232584Y67820D01*
X233000Y67196D01*
X233624Y66779D01*
X233860Y66732D01*
Y68055D01*
D02*
G37*
G36*
X102862Y67768D02*
Y66445D01*
X104185D01*
X104139Y66681D01*
X103722Y67304D01*
X103098Y67721D01*
X102862Y67768D01*
D02*
G37*
G36*
X101862D02*
X101626Y67721D01*
X101003Y67304D01*
X100586Y66681D01*
X100539Y66445D01*
X101862D01*
Y67768D01*
D02*
G37*
G36*
X136708Y68528D02*
X136167Y68420D01*
X135709Y68114D01*
X135403Y67656D01*
X135295Y67115D01*
X135403Y66574D01*
X135709Y66116D01*
X136167Y65810D01*
X136708Y65702D01*
X137249Y65810D01*
X137707Y66116D01*
X138013Y66574D01*
X138121Y67115D01*
X138013Y67656D01*
X137707Y68114D01*
X137249Y68420D01*
X136708Y68528D01*
D02*
G37*
G36*
X86811Y72428D02*
X85897Y72308D01*
X85046Y71955D01*
X84315Y71394D01*
X83754Y70663D01*
X83401Y69811D01*
X83281Y68898D01*
X83401Y67984D01*
X83754Y67133D01*
X84315Y66401D01*
X85046Y65840D01*
X85897Y65488D01*
X86811Y65367D01*
X87725Y65488D01*
X88576Y65840D01*
X89307Y66401D01*
X89868Y67133D01*
X90221Y67984D01*
X90341Y68898D01*
X90221Y69811D01*
X89868Y70663D01*
X89307Y71394D01*
X88576Y71955D01*
X87725Y72308D01*
X86811Y72428D01*
D02*
G37*
G36*
X78149D02*
X77236Y72308D01*
X76384Y71955D01*
X75653Y71394D01*
X75092Y70663D01*
X74740Y69811D01*
X74619Y68898D01*
X74740Y67984D01*
X75092Y67133D01*
X75653Y66401D01*
X76384Y65840D01*
X77236Y65488D01*
X78149Y65367D01*
X79063Y65488D01*
X79915Y65840D01*
X80646Y66401D01*
X81207Y67133D01*
X81559Y67984D01*
X81680Y68898D01*
X81559Y69811D01*
X81207Y70663D01*
X80646Y71394D01*
X79915Y71955D01*
X79063Y72308D01*
X78149Y72428D01*
D02*
G37*
G36*
X206694Y69523D02*
X206153Y69416D01*
X205694Y69109D01*
X205388Y68651D01*
X205280Y68110D01*
X205388Y67570D01*
X205694Y67111D01*
X206153Y66805D01*
X206694Y66697D01*
X206782Y66715D01*
X207249Y66500D01*
X207357Y65959D01*
X207663Y65501D01*
X208121Y65195D01*
X208662Y65087D01*
X209203Y65195D01*
X209661Y65501D01*
X209967Y65959D01*
X210075Y66500D01*
X209978Y66988D01*
X210108Y67204D01*
X210130Y67229D01*
Y68791D01*
X208807D01*
X208854Y68555D01*
X208985Y68358D01*
X208684Y67909D01*
X208662Y67913D01*
X208574Y67895D01*
X208106Y68110D01*
X207999Y68651D01*
X207693Y69109D01*
X207234Y69416D01*
X206694Y69523D01*
D02*
G37*
G36*
X116000Y67913D02*
X115459Y67805D01*
X115001Y67499D01*
X114695Y67041D01*
X114587Y66500D01*
X114695Y65959D01*
X115001Y65501D01*
X115459Y65195D01*
X116000Y65087D01*
X116541Y65195D01*
X116999Y65501D01*
X117305Y65959D01*
X117413Y66500D01*
X117305Y67041D01*
X116999Y67499D01*
X116541Y67805D01*
X116000Y67913D01*
D02*
G37*
G36*
X112113Y67751D02*
X111572Y67644D01*
X111114Y67338D01*
X110808Y66879D01*
X110700Y66339D01*
X110808Y65798D01*
X111114Y65339D01*
X111572Y65033D01*
X112113Y64926D01*
X112654Y65033D01*
X113112Y65339D01*
X113418Y65798D01*
X113526Y66339D01*
X113418Y66879D01*
X113112Y67338D01*
X112654Y67644D01*
X112113Y67751D01*
D02*
G37*
G36*
X263779Y70114D02*
X263239Y70006D01*
X262780Y69700D01*
X262474Y69241D01*
X262367Y68701D01*
X262474Y68160D01*
X262780Y67702D01*
X263239Y67395D01*
X263779Y67288D01*
X264198Y67371D01*
X264485Y67056D01*
X264529Y66966D01*
X264443Y66837D01*
X264335Y66296D01*
X264443Y65755D01*
X264749Y65297D01*
X265207Y64991D01*
X265748Y64883D01*
X266289Y64991D01*
X266747Y65297D01*
X267053Y65755D01*
X267161Y66296D01*
X267053Y66837D01*
X266747Y67295D01*
X266289Y67601D01*
X265748Y67709D01*
X265329Y67625D01*
X265042Y67941D01*
X264999Y68031D01*
X265085Y68160D01*
X265193Y68701D01*
X265085Y69241D01*
X264779Y69700D01*
X264320Y70006D01*
X263779Y70114D01*
D02*
G37*
G36*
X65461Y65800D02*
Y64476D01*
X66784D01*
X66737Y64712D01*
X66320Y65336D01*
X65696Y65753D01*
X65461Y65800D01*
D02*
G37*
G36*
X64461D02*
X64225Y65753D01*
X63601Y65336D01*
X63184Y64712D01*
X63137Y64476D01*
X64461D01*
Y65800D01*
D02*
G37*
G36*
X104185Y65445D02*
X102862D01*
Y64122D01*
X103098Y64169D01*
X103722Y64585D01*
X104139Y65209D01*
X104185Y65445D01*
D02*
G37*
G36*
X101862D02*
X100539D01*
X100586Y65209D01*
X101003Y64585D01*
X101626Y64169D01*
X101862Y64122D01*
Y65445D01*
D02*
G37*
G36*
X178839Y66849D02*
X178298Y66741D01*
X177840Y66435D01*
X177534Y65976D01*
X177426Y65436D01*
X177534Y64895D01*
X177840Y64437D01*
X178298Y64130D01*
X178839Y64023D01*
X179380Y64130D01*
X179838Y64437D01*
X180145Y64895D01*
X180252Y65436D01*
X180145Y65976D01*
X179838Y66435D01*
X179380Y66741D01*
X178839Y66849D01*
D02*
G37*
G36*
X133995Y66669D02*
X133454Y66561D01*
X132996Y66255D01*
X132690Y65797D01*
X132582Y65256D01*
X132690Y64715D01*
X132996Y64257D01*
X133454Y63951D01*
X133995Y63843D01*
X134536Y63951D01*
X134994Y64257D01*
X135301Y64715D01*
X135408Y65256D01*
X135301Y65797D01*
X134994Y66255D01*
X134536Y66561D01*
X133995Y66669D01*
D02*
G37*
G36*
X183109Y66391D02*
X182568Y66284D01*
X182109Y65977D01*
X181803Y65519D01*
X181696Y64978D01*
X181803Y64437D01*
X182109Y63979D01*
X182568Y63673D01*
X183109Y63565D01*
X183649Y63673D01*
X184108Y63979D01*
X184414Y64437D01*
X184522Y64978D01*
X184414Y65519D01*
X184108Y65977D01*
X183649Y66284D01*
X183109Y66391D01*
D02*
G37*
G36*
X129348Y66374D02*
X128807Y66266D01*
X128349Y65960D01*
X128043Y65501D01*
X127935Y64961D01*
X128043Y64420D01*
X128349Y63961D01*
X128807Y63655D01*
X129348Y63548D01*
X129889Y63655D01*
X130347Y63961D01*
X130653Y64420D01*
X130761Y64961D01*
X130653Y65501D01*
X130347Y65960D01*
X129889Y66266D01*
X129348Y66374D01*
D02*
G37*
G36*
X188976Y66373D02*
X188435Y66266D01*
X187977Y65960D01*
X187671Y65501D01*
X187563Y64960D01*
X187671Y64420D01*
X187977Y63961D01*
X188435Y63655D01*
X188976Y63547D01*
X189517Y63655D01*
X189975Y63961D01*
X190281Y64420D01*
X190389Y64960D01*
X190281Y65501D01*
X189975Y65960D01*
X189517Y66266D01*
X188976Y66373D01*
D02*
G37*
G36*
X202808Y66353D02*
X202268Y66246D01*
X201809Y65939D01*
X201503Y65481D01*
X201395Y64940D01*
X201503Y64400D01*
X201809Y63941D01*
X202268Y63635D01*
X202808Y63527D01*
X203349Y63635D01*
X203807Y63941D01*
X204114Y64400D01*
X204221Y64940D01*
X204114Y65481D01*
X203807Y65939D01*
X203349Y66246D01*
X202808Y66353D01*
D02*
G37*
G36*
X192531D02*
X191990Y66246D01*
X191532Y65939D01*
X191225Y65481D01*
X191118Y64940D01*
X191225Y64400D01*
X191532Y63941D01*
X191990Y63635D01*
X192531Y63527D01*
X193071Y63635D01*
X193530Y63941D01*
X193836Y64400D01*
X193944Y64940D01*
X193836Y65481D01*
X193530Y65939D01*
X193071Y66246D01*
X192531Y66353D01*
D02*
G37*
G36*
X219791Y64815D02*
Y63492D01*
X221115D01*
X221068Y63728D01*
X220651Y64352D01*
X220027Y64768D01*
X219791Y64815D01*
D02*
G37*
G36*
X218791D02*
X218555Y64768D01*
X217932Y64352D01*
X217515Y63728D01*
X217468Y63492D01*
X218791D01*
Y64815D01*
D02*
G37*
G36*
X138583Y65783D02*
X138042Y65675D01*
X137584Y65369D01*
X137277Y64911D01*
X137170Y64370D01*
X137277Y63829D01*
X137584Y63371D01*
X138042Y63065D01*
X138583Y62957D01*
X139123Y63065D01*
X139582Y63371D01*
X139888Y63829D01*
X139996Y64370D01*
X139888Y64911D01*
X139582Y65369D01*
X139123Y65675D01*
X138583Y65783D01*
D02*
G37*
G36*
X198819Y65389D02*
X198278Y65282D01*
X197819Y64975D01*
X197513Y64517D01*
X197406Y63976D01*
X197513Y63436D01*
X197819Y62977D01*
X198278Y62671D01*
X198819Y62563D01*
X199359Y62671D01*
X199818Y62977D01*
X200124Y63436D01*
X200232Y63976D01*
X200124Y64517D01*
X199818Y64975D01*
X199359Y65282D01*
X198819Y65389D01*
D02*
G37*
G36*
X66784Y63476D02*
X65461D01*
Y62153D01*
X65696Y62200D01*
X66320Y62617D01*
X66737Y63241D01*
X66784Y63476D01*
D02*
G37*
G36*
X64461D02*
X63137D01*
X63184Y63241D01*
X63601Y62617D01*
X64225Y62200D01*
X64461Y62153D01*
Y63476D01*
D02*
G37*
G36*
X143307Y64953D02*
X142766Y64846D01*
X142308Y64539D01*
X142002Y64081D01*
X141894Y63540D01*
X142002Y62999D01*
X142308Y62541D01*
X142766Y62235D01*
X143307Y62127D01*
X143848Y62235D01*
X144306Y62541D01*
X144613Y62999D01*
X144720Y63540D01*
X144613Y64081D01*
X144306Y64539D01*
X143848Y64846D01*
X143307Y64953D01*
D02*
G37*
G36*
X126484Y62847D02*
Y61524D01*
X127808D01*
X127761Y61759D01*
X127344Y62383D01*
X126720Y62800D01*
X126484Y62847D01*
D02*
G37*
G36*
X125484D02*
X125248Y62800D01*
X124625Y62383D01*
X124208Y61759D01*
X124161Y61524D01*
X125484D01*
Y62847D01*
D02*
G37*
G36*
X221115Y62492D02*
X219791D01*
Y61169D01*
X220027Y61216D01*
X220651Y61633D01*
X221068Y62256D01*
X221115Y62492D01*
D02*
G37*
G36*
X218791D02*
X217468D01*
X217515Y62256D01*
X217932Y61633D01*
X218555Y61216D01*
X218791Y61169D01*
Y62492D01*
D02*
G37*
G36*
X215603D02*
X214280D01*
Y61169D01*
X214515Y61216D01*
X215139Y61633D01*
X215556Y62256D01*
X215603Y62492D01*
D02*
G37*
G36*
X213280D02*
X211956D01*
X212003Y62256D01*
X212420Y61633D01*
X213044Y61216D01*
X213280Y61169D01*
Y62492D01*
D02*
G37*
G36*
X172383Y62023D02*
Y60700D01*
X173706D01*
X173660Y60936D01*
X173243Y61560D01*
X172619Y61976D01*
X172383Y62023D01*
D02*
G37*
G36*
X171383D02*
X171147Y61976D01*
X170524Y61560D01*
X170107Y60936D01*
X170060Y60700D01*
X171383D01*
Y62023D01*
D02*
G37*
G36*
X195866Y63421D02*
X195325Y63313D01*
X194867Y63007D01*
X194560Y62549D01*
X194453Y62008D01*
X194560Y61467D01*
X194867Y61009D01*
X195325Y60702D01*
X195866Y60595D01*
X196406Y60702D01*
X196865Y61009D01*
X197171Y61467D01*
X197279Y62008D01*
X197171Y62549D01*
X196865Y63007D01*
X196406Y63313D01*
X195866Y63421D01*
D02*
G37*
G36*
X274100Y61623D02*
Y60300D01*
X275423D01*
X275376Y60536D01*
X274959Y61160D01*
X274336Y61576D01*
X274100Y61623D01*
D02*
G37*
G36*
X273100D02*
X272864Y61576D01*
X272240Y61160D01*
X271823Y60536D01*
X271777Y60300D01*
X273100D01*
Y61623D01*
D02*
G37*
G36*
X166900D02*
Y60300D01*
X168223D01*
X168176Y60536D01*
X167760Y61160D01*
X167136Y61576D01*
X166900Y61623D01*
D02*
G37*
G36*
X165900D02*
X165664Y61576D01*
X165040Y61160D01*
X164624Y60536D01*
X164577Y60300D01*
X165900D01*
Y61623D01*
D02*
G37*
G36*
X203100Y62613D02*
X202559Y62505D01*
X202101Y62199D01*
X201795Y61741D01*
X201687Y61200D01*
X201795Y60659D01*
X202101Y60201D01*
X202559Y59895D01*
X203100Y59787D01*
X203641Y59895D01*
X204099Y60201D01*
X204405Y60659D01*
X204513Y61200D01*
X204405Y61741D01*
X204099Y62199D01*
X203641Y62505D01*
X203100Y62613D01*
D02*
G37*
G36*
X154988Y60583D02*
Y59260D01*
X156312D01*
X156265Y59496D01*
X155848Y60119D01*
X155224Y60536D01*
X154988Y60583D01*
D02*
G37*
G36*
X153988D02*
X153752Y60536D01*
X153129Y60119D01*
X152712Y59496D01*
X152665Y59260D01*
X153988D01*
Y60583D01*
D02*
G37*
G36*
X189960Y61452D02*
X189419Y61345D01*
X188961Y61038D01*
X188655Y60580D01*
X188547Y60039D01*
X188655Y59499D01*
X188961Y59040D01*
X189419Y58734D01*
X189960Y58626D01*
X190501Y58734D01*
X190959Y59040D01*
X191266Y59499D01*
X191373Y60039D01*
X191266Y60580D01*
X190959Y61038D01*
X190501Y61345D01*
X189960Y61452D01*
D02*
G37*
G36*
X173706Y59700D02*
X172383D01*
Y58377D01*
X172619Y58424D01*
X173243Y58840D01*
X173660Y59464D01*
X173706Y59700D01*
D02*
G37*
G36*
X171383D02*
X170060D01*
X170107Y59464D01*
X170524Y58840D01*
X171147Y58424D01*
X171383Y58377D01*
Y59700D01*
D02*
G37*
G36*
X168223Y59300D02*
X166900D01*
Y57977D01*
X167136Y58024D01*
X167760Y58440D01*
X168176Y59064D01*
X168223Y59300D01*
D02*
G37*
G36*
X165900D02*
X164577D01*
X164624Y59064D01*
X165040Y58440D01*
X165664Y58024D01*
X165900Y57977D01*
Y59300D01*
D02*
G37*
G36*
X275423D02*
X274100D01*
Y57977D01*
X274336Y58024D01*
X274959Y58440D01*
X275376Y59064D01*
X275423Y59300D01*
D02*
G37*
G36*
X273100D02*
X271777D01*
X271823Y59064D01*
X272240Y58440D01*
X272864Y58024D01*
X273100Y57977D01*
Y59300D01*
D02*
G37*
G36*
X127833Y60524D02*
X124161D01*
X124208Y60288D01*
X124625Y59664D01*
X125248Y59247D01*
X125729Y59152D01*
X125857Y58960D01*
X125965Y58419D01*
X126271Y57960D01*
X126729Y57654D01*
X127270Y57547D01*
X127811Y57654D01*
X128269Y57960D01*
X128575Y58419D01*
X128683Y58960D01*
X128575Y59500D01*
X128269Y59959D01*
X127811Y60265D01*
X127833Y60524D01*
D02*
G37*
G36*
X86811Y64554D02*
X85897Y64433D01*
X85046Y64081D01*
X84315Y63520D01*
X83754Y62789D01*
X83401Y61937D01*
X83281Y61024D01*
X83401Y60110D01*
X83754Y59259D01*
X84315Y58527D01*
X85046Y57966D01*
X85897Y57614D01*
X86811Y57493D01*
X87725Y57614D01*
X88576Y57966D01*
X89307Y58527D01*
X89868Y59259D01*
X90221Y60110D01*
X90341Y61024D01*
X90221Y61937D01*
X89868Y62789D01*
X89307Y63520D01*
X88576Y64081D01*
X87725Y64433D01*
X86811Y64554D01*
D02*
G37*
G36*
X78149D02*
X77236Y64433D01*
X76384Y64081D01*
X75653Y63520D01*
X75092Y62789D01*
X74740Y61937D01*
X74619Y61024D01*
X74740Y60110D01*
X75092Y59259D01*
X75653Y58527D01*
X76384Y57966D01*
X77236Y57614D01*
X78149Y57493D01*
X79063Y57614D01*
X79915Y57966D01*
X80646Y58527D01*
X81207Y59259D01*
X81559Y60110D01*
X81680Y61024D01*
X81559Y61937D01*
X81207Y62789D01*
X80646Y63520D01*
X79915Y64081D01*
X79063Y64433D01*
X78149Y64554D01*
D02*
G37*
G36*
X156312Y58260D02*
X154988D01*
Y56937D01*
X155224Y56983D01*
X155848Y57400D01*
X156265Y58024D01*
X156312Y58260D01*
D02*
G37*
G36*
X153988D02*
X152665D01*
X152712Y58024D01*
X153129Y57400D01*
X153752Y56983D01*
X153988Y56937D01*
Y58260D01*
D02*
G37*
G36*
X107579Y59484D02*
X107038Y59376D01*
X106580Y59070D01*
X106273Y58612D01*
X106166Y58071D01*
X106273Y57530D01*
X106580Y57072D01*
X107038Y56766D01*
X107579Y56658D01*
X108119Y56766D01*
X108578Y57072D01*
X108884Y57530D01*
X108992Y58071D01*
X108884Y58612D01*
X108578Y59070D01*
X108119Y59376D01*
X107579Y59484D01*
D02*
G37*
G36*
X100000Y57479D02*
Y56155D01*
X101323D01*
X101276Y56391D01*
X100860Y57015D01*
X100236Y57432D01*
X100000Y57479D01*
D02*
G37*
G36*
X99000D02*
X98764Y57432D01*
X98140Y57015D01*
X97724Y56391D01*
X97677Y56155D01*
X99000D01*
Y57479D01*
D02*
G37*
G36*
X177199Y56792D02*
X176658Y56685D01*
X176200Y56379D01*
X175894Y55920D01*
X175786Y55379D01*
X175894Y54839D01*
X176200Y54380D01*
X176658Y54074D01*
X177199Y53967D01*
X177740Y54074D01*
X178198Y54380D01*
X178505Y54839D01*
X178612Y55379D01*
X178505Y55920D01*
X178198Y56379D01*
X177740Y56685D01*
X177199Y56792D01*
D02*
G37*
G36*
X101323Y55155D02*
X100000D01*
Y53832D01*
X100236Y53879D01*
X100860Y54296D01*
X101276Y54919D01*
X101323Y55155D01*
D02*
G37*
G36*
X99000D02*
X97677D01*
X97724Y54919D01*
X98140Y54296D01*
X98764Y53879D01*
X99000Y53832D01*
Y55155D01*
D02*
G37*
G36*
X62311Y53792D02*
Y52469D01*
X63634D01*
X63587Y52704D01*
X63171Y53328D01*
X62547Y53745D01*
X62311Y53792D01*
D02*
G37*
G36*
X61311D02*
X61075Y53745D01*
X60451Y53328D01*
X60035Y52704D01*
X59988Y52469D01*
X61311D01*
Y53792D01*
D02*
G37*
G36*
X126961Y54956D02*
X126420Y54849D01*
X125961Y54542D01*
X125655Y54084D01*
X125548Y53543D01*
X125655Y53003D01*
X125961Y52544D01*
X126420Y52238D01*
X126961Y52130D01*
X127501Y52238D01*
X127960Y52544D01*
X128266Y53003D01*
X128374Y53543D01*
X128266Y54084D01*
X127960Y54542D01*
X127501Y54849D01*
X126961Y54956D01*
D02*
G37*
G36*
X200394Y54858D02*
X199853Y54750D01*
X199395Y54444D01*
X199088Y53986D01*
X198981Y53445D01*
X199088Y52904D01*
X199395Y52446D01*
X199853Y52140D01*
X200394Y52032D01*
X200934Y52140D01*
X201393Y52446D01*
X201699Y52904D01*
X201807Y53445D01*
X201699Y53986D01*
X201393Y54444D01*
X200934Y54750D01*
X200394Y54858D01*
D02*
G37*
G36*
X136259Y54169D02*
X135718Y54061D01*
X135260Y53755D01*
X134953Y53297D01*
X134846Y52756D01*
X134953Y52215D01*
X135260Y51757D01*
X135718Y51451D01*
X136259Y51343D01*
X136800Y51451D01*
X137258Y51757D01*
X137564Y52215D01*
X137672Y52756D01*
X137564Y53297D01*
X137258Y53755D01*
X136800Y54061D01*
X136259Y54169D01*
D02*
G37*
G36*
X132000Y53913D02*
X131459Y53805D01*
X131001Y53499D01*
X130695Y53041D01*
X130587Y52500D01*
X130695Y51959D01*
X131001Y51501D01*
X131459Y51195D01*
X132000Y51087D01*
X132541Y51195D01*
X132999Y51501D01*
X133305Y51959D01*
X133413Y52500D01*
X133305Y53041D01*
X132999Y53499D01*
X132541Y53805D01*
X132000Y53913D01*
D02*
G37*
G36*
X103945Y51834D02*
Y50511D01*
X105268D01*
X105221Y50747D01*
X104805Y51371D01*
X104181Y51788D01*
X103945Y51834D01*
D02*
G37*
G36*
X102945D02*
X102709Y51788D01*
X102085Y51371D01*
X101669Y50747D01*
X101622Y50511D01*
X102945D01*
Y51834D01*
D02*
G37*
G36*
X63634Y51468D02*
X62311D01*
Y50145D01*
X62547Y50192D01*
X63171Y50609D01*
X63587Y51233D01*
X63634Y51468D01*
D02*
G37*
G36*
X61311D02*
X59988D01*
X60035Y51233D01*
X60451Y50609D01*
X61075Y50192D01*
X61311Y50145D01*
Y51468D01*
D02*
G37*
G36*
X86811Y56680D02*
X85897Y56559D01*
X85046Y56207D01*
X84315Y55646D01*
X83754Y54915D01*
X83401Y54063D01*
X83281Y53150D01*
X83401Y52236D01*
X83754Y51385D01*
X84315Y50653D01*
X85046Y50092D01*
X85897Y49740D01*
X86811Y49619D01*
X87725Y49740D01*
X88576Y50092D01*
X89307Y50653D01*
X89868Y51385D01*
X90221Y52236D01*
X90341Y53150D01*
X90221Y54063D01*
X89868Y54915D01*
X89307Y55646D01*
X88576Y56207D01*
X87725Y56559D01*
X86811Y56680D01*
D02*
G37*
G36*
X78149D02*
X77236Y56559D01*
X76384Y56207D01*
X75653Y55646D01*
X75092Y54915D01*
X74740Y54063D01*
X74619Y53150D01*
X74740Y52236D01*
X75092Y51385D01*
X75653Y50653D01*
X76384Y50092D01*
X77236Y49740D01*
X78149Y49619D01*
X79063Y49740D01*
X79915Y50092D01*
X80646Y50653D01*
X81207Y51385D01*
X81559Y52236D01*
X81680Y53150D01*
X81559Y54063D01*
X81207Y54915D01*
X80646Y55646D01*
X79915Y56207D01*
X79063Y56559D01*
X78149Y56680D01*
D02*
G37*
G36*
X46100Y50475D02*
Y49152D01*
X47423D01*
X47376Y49387D01*
X46960Y50011D01*
X46336Y50428D01*
X46100Y50475D01*
D02*
G37*
G36*
X45100D02*
X44864Y50428D01*
X44240Y50011D01*
X43824Y49387D01*
X43777Y49152D01*
X45100D01*
Y50475D01*
D02*
G37*
G36*
X286327Y50248D02*
Y48925D01*
X287650D01*
X287603Y49161D01*
X287186Y49785D01*
X286563Y50202D01*
X286327Y50248D01*
D02*
G37*
G36*
X285327D02*
X285091Y50202D01*
X284467Y49785D01*
X284050Y49161D01*
X284003Y48925D01*
X285327D01*
Y50248D01*
D02*
G37*
G36*
X237205Y51610D02*
X236664Y51502D01*
X236206Y51196D01*
X235899Y50738D01*
X235792Y50197D01*
X235899Y49656D01*
X236206Y49198D01*
X236664Y48891D01*
X237205Y48784D01*
X237745Y48891D01*
X238204Y49198D01*
X238510Y49656D01*
X238618Y50197D01*
X238510Y50738D01*
X238204Y51196D01*
X237745Y51502D01*
X237205Y51610D01*
D02*
G37*
G36*
X140574Y51095D02*
X140033Y50988D01*
X139575Y50681D01*
X139268Y50223D01*
X139161Y49682D01*
X139268Y49142D01*
X139575Y48683D01*
X140033Y48377D01*
X140574Y48269D01*
X141114Y48377D01*
X141573Y48683D01*
X141879Y49142D01*
X141987Y49682D01*
X141879Y50223D01*
X141573Y50681D01*
X141114Y50988D01*
X140574Y51095D01*
D02*
G37*
G36*
X198140Y51022D02*
X197599Y50914D01*
X197141Y50608D01*
X196834Y50149D01*
X196727Y49609D01*
X196834Y49068D01*
X197141Y48610D01*
X197599Y48303D01*
X198140Y48196D01*
X198680Y48303D01*
X199139Y48610D01*
X199445Y49068D01*
X199553Y49609D01*
X199445Y50149D01*
X199139Y50608D01*
X198680Y50914D01*
X198140Y51022D01*
D02*
G37*
G36*
X105268Y49511D02*
X103945D01*
Y48188D01*
X104181Y48235D01*
X104805Y48652D01*
X105221Y49275D01*
X105268Y49511D01*
D02*
G37*
G36*
X102945D02*
X101622D01*
X101669Y49275D01*
X102085Y48652D01*
X102709Y48235D01*
X102945Y48188D01*
Y49511D01*
D02*
G37*
G36*
X62311Y49067D02*
Y47744D01*
X63634D01*
X63587Y47980D01*
X63171Y48604D01*
X62547Y49020D01*
X62311Y49067D01*
D02*
G37*
G36*
X61311D02*
X61075Y49020D01*
X60451Y48604D01*
X60035Y47980D01*
X59988Y47744D01*
X61311D01*
Y49067D01*
D02*
G37*
G36*
X47423Y48152D02*
X46100D01*
Y46828D01*
X46336Y46875D01*
X46960Y47292D01*
X47376Y47916D01*
X47423Y48152D01*
D02*
G37*
G36*
X45100D02*
X43777D01*
X43824Y47916D01*
X44240Y47292D01*
X44864Y46875D01*
X45100Y46828D01*
Y48152D01*
D02*
G37*
G36*
X287650Y47925D02*
X283554D01*
X283122Y47839D01*
X282499Y47423D01*
X282082Y46799D01*
X282035Y46563D01*
X286131D01*
X286563Y46649D01*
X287186Y47066D01*
X287603Y47689D01*
X287650Y47925D01*
D02*
G37*
G36*
X142331Y47591D02*
Y46268D01*
X143654D01*
X143607Y46503D01*
X143190Y47127D01*
X142567Y47544D01*
X142331Y47591D01*
D02*
G37*
G36*
X141331D02*
X141095Y47544D01*
X140471Y47127D01*
X140054Y46503D01*
X140007Y46268D01*
X141331D01*
Y47591D01*
D02*
G37*
G36*
X206534Y48657D02*
X205994Y48550D01*
X205535Y48243D01*
X205229Y47785D01*
X205121Y47244D01*
X205229Y46703D01*
X205535Y46245D01*
X205994Y45939D01*
X206534Y45831D01*
X207075Y45939D01*
X207534Y46245D01*
X207840Y46703D01*
X207947Y47244D01*
X207840Y47785D01*
X207534Y48243D01*
X207075Y48550D01*
X206534Y48657D01*
D02*
G37*
G36*
X63634Y46744D02*
X62311D01*
Y45421D01*
X62547Y45468D01*
X63171Y45884D01*
X63587Y46508D01*
X63634Y46744D01*
D02*
G37*
G36*
X61311D02*
X59988D01*
X60035Y46508D01*
X60451Y45884D01*
X61075Y45468D01*
X61311Y45421D01*
Y46744D01*
D02*
G37*
G36*
X136614Y47476D02*
X136074Y47368D01*
X135615Y47062D01*
X135309Y46604D01*
X135201Y46063D01*
X135309Y45522D01*
X135615Y45064D01*
X136074Y44758D01*
X136614Y44650D01*
X137155Y44758D01*
X137613Y45064D01*
X137920Y45522D01*
X138027Y46063D01*
X137920Y46604D01*
X137613Y47062D01*
X137155Y47368D01*
X136614Y47476D01*
D02*
G37*
G36*
X128000D02*
X127459Y47368D01*
X127001Y47062D01*
X126695Y46604D01*
X126587Y46063D01*
X126695Y45522D01*
X127001Y45064D01*
X127459Y44758D01*
X128000Y44650D01*
X128541Y44758D01*
X128999Y45064D01*
X129305Y45522D01*
X129413Y46063D01*
X129305Y46604D01*
X128999Y47062D01*
X128541Y47368D01*
X128000Y47476D01*
D02*
G37*
G36*
X285682Y45563D02*
X284358D01*
Y44240D01*
X284594Y44287D01*
X285218Y44703D01*
X285635Y45327D01*
X285682Y45563D01*
D02*
G37*
G36*
X283358D02*
X282035D01*
X282082Y45327D01*
X282499Y44703D01*
X283122Y44287D01*
X283358Y44240D01*
Y45563D01*
D02*
G37*
G36*
X143654Y45268D02*
X142331D01*
Y43944D01*
X142567Y43991D01*
X143190Y44408D01*
X143607Y45032D01*
X143654Y45268D01*
D02*
G37*
G36*
X141331D02*
X140007D01*
X140054Y45032D01*
X140471Y44408D01*
X141095Y43991D01*
X141331Y43944D01*
Y45268D01*
D02*
G37*
G36*
X162697Y46000D02*
X162156Y45892D01*
X161698Y45586D01*
X161391Y45127D01*
X161284Y44587D01*
X161391Y44046D01*
X161698Y43587D01*
X162156Y43281D01*
X162697Y43174D01*
X163238Y43281D01*
X163696Y43587D01*
X164002Y44046D01*
X164110Y44587D01*
X164002Y45127D01*
X163696Y45586D01*
X163238Y45892D01*
X162697Y46000D01*
D02*
G37*
G36*
X227067Y45901D02*
X226526Y45794D01*
X226068Y45487D01*
X225762Y45029D01*
X225654Y44488D01*
X225762Y43947D01*
X226068Y43489D01*
X226526Y43183D01*
X227067Y43075D01*
X227608Y43183D01*
X228066Y43489D01*
X228372Y43947D01*
X228480Y44488D01*
X228372Y45029D01*
X228066Y45487D01*
X227608Y45794D01*
X227067Y45901D01*
D02*
G37*
G36*
X96457Y45507D02*
X95916Y45400D01*
X95458Y45094D01*
X95151Y44635D01*
X95044Y44094D01*
X95151Y43554D01*
X95458Y43095D01*
X95916Y42789D01*
X96457Y42682D01*
X96997Y42789D01*
X97456Y43095D01*
X97762Y43554D01*
X97870Y44094D01*
X97762Y44635D01*
X97456Y45094D01*
X96997Y45400D01*
X96457Y45507D01*
D02*
G37*
G36*
X102075Y43949D02*
Y42626D01*
X103398D01*
X103351Y42862D01*
X102934Y43486D01*
X102311Y43902D01*
X102075Y43949D01*
D02*
G37*
G36*
X101075D02*
X100839Y43902D01*
X100215Y43486D01*
X99798Y42862D01*
X99752Y42626D01*
X101075D01*
Y43949D01*
D02*
G37*
G36*
X86811Y48806D02*
X85897Y48686D01*
X85046Y48333D01*
X84315Y47772D01*
X83754Y47041D01*
X83401Y46189D01*
X83281Y45276D01*
X83401Y44362D01*
X83754Y43510D01*
X84315Y42779D01*
X85046Y42218D01*
X85897Y41866D01*
X86811Y41745D01*
X87725Y41866D01*
X88576Y42218D01*
X89307Y42779D01*
X89868Y43510D01*
X90221Y44362D01*
X90341Y45276D01*
X90221Y46189D01*
X89868Y47041D01*
X89307Y47772D01*
X88576Y48333D01*
X87725Y48686D01*
X86811Y48806D01*
D02*
G37*
G36*
X78149D02*
X77236Y48686D01*
X76384Y48333D01*
X75653Y47772D01*
X75092Y47041D01*
X74740Y46189D01*
X74619Y45276D01*
X74740Y44362D01*
X75092Y43510D01*
X75653Y42779D01*
X76384Y42218D01*
X77236Y41866D01*
X78149Y41745D01*
X79063Y41866D01*
X79915Y42218D01*
X80646Y42779D01*
X81207Y43510D01*
X81559Y44362D01*
X81680Y45276D01*
X81559Y46189D01*
X81207Y47041D01*
X80646Y47772D01*
X79915Y48333D01*
X79063Y48686D01*
X78149Y48806D01*
D02*
G37*
G36*
X166339Y44523D02*
X165798Y44416D01*
X165340Y44109D01*
X165033Y43651D01*
X164926Y43110D01*
X165033Y42570D01*
X165340Y42111D01*
X165798Y41805D01*
X166339Y41697D01*
X166879Y41805D01*
X167338Y42111D01*
X167644Y42570D01*
X167752Y43110D01*
X167644Y43651D01*
X167338Y44109D01*
X166879Y44416D01*
X166339Y44523D01*
D02*
G37*
G36*
X263295Y42250D02*
Y40927D01*
X264619D01*
X264572Y41163D01*
X264155Y41787D01*
X263531Y42203D01*
X263295Y42250D01*
D02*
G37*
G36*
X262295D02*
X262059Y42203D01*
X261436Y41787D01*
X261019Y41163D01*
X260972Y40927D01*
X262295D01*
Y42250D01*
D02*
G37*
G36*
X231398Y43145D02*
X230857Y43038D01*
X230399Y42731D01*
X230092Y42273D01*
X229985Y41732D01*
X230092Y41192D01*
X230399Y40733D01*
X230857Y40427D01*
X231398Y40319D01*
X231938Y40427D01*
X232397Y40733D01*
X232703Y41192D01*
X232811Y41732D01*
X232703Y42273D01*
X232397Y42731D01*
X231938Y43038D01*
X231398Y43145D01*
D02*
G37*
G36*
X103398Y41626D02*
X102075D01*
Y40303D01*
X102311Y40350D01*
X102934Y40766D01*
X103351Y41390D01*
X103398Y41626D01*
D02*
G37*
G36*
X101075D02*
X99752D01*
X99798Y41390D01*
X100215Y40766D01*
X100839Y40350D01*
X101075Y40303D01*
Y41626D01*
D02*
G37*
G36*
X142172Y41587D02*
Y40264D01*
X143496D01*
X143449Y40500D01*
X143032Y41123D01*
X142408Y41540D01*
X142172Y41587D01*
D02*
G37*
G36*
X141172D02*
X140936Y41540D01*
X140313Y41123D01*
X139896Y40500D01*
X139849Y40264D01*
X141172D01*
Y41587D01*
D02*
G37*
G36*
X120972D02*
Y40264D01*
X122296D01*
X122249Y40500D01*
X121832Y41123D01*
X121208Y41540D01*
X120972Y41587D01*
D02*
G37*
G36*
X119972D02*
X119737Y41540D01*
X119113Y41123D01*
X118696Y40500D01*
X118649Y40264D01*
X119972D01*
Y41587D01*
D02*
G37*
G36*
X197244Y45114D02*
X196703Y45006D01*
X196245Y44700D01*
X195939Y44241D01*
X195831Y43701D01*
X195939Y43160D01*
X196172Y42811D01*
X196081Y42414D01*
X195996Y42266D01*
X195916Y42250D01*
X195458Y41944D01*
X195151Y41486D01*
X195044Y40945D01*
X195151Y40404D01*
X195458Y39946D01*
X195916Y39639D01*
X196457Y39532D01*
X196997Y39639D01*
X197456Y39946D01*
X197762Y40404D01*
X197870Y40945D01*
X197762Y41486D01*
X197529Y41835D01*
X197620Y42232D01*
X197704Y42379D01*
X197785Y42395D01*
X198243Y42702D01*
X198549Y43160D01*
X198657Y43701D01*
X198549Y44241D01*
X198243Y44700D01*
X197785Y45006D01*
X197244Y45114D01*
D02*
G37*
G36*
X264619Y39927D02*
X263295D01*
Y38604D01*
X263531Y38651D01*
X264155Y39067D01*
X264572Y39691D01*
X264619Y39927D01*
D02*
G37*
G36*
X262295D02*
X260972D01*
X261019Y39691D01*
X261436Y39067D01*
X262059Y38651D01*
X262295Y38604D01*
Y39927D01*
D02*
G37*
G36*
X143496Y39264D02*
X142172D01*
Y37940D01*
X142408Y37987D01*
X143032Y38404D01*
X143449Y39028D01*
X143496Y39264D01*
D02*
G37*
G36*
X141172D02*
X139849D01*
X139896Y39028D01*
X140313Y38404D01*
X140936Y37987D01*
X141172Y37940D01*
Y39264D01*
D02*
G37*
G36*
X122296D02*
X120972D01*
Y37940D01*
X121208Y37987D01*
X121832Y38404D01*
X122249Y39028D01*
X122296Y39264D01*
D02*
G37*
G36*
X119972D02*
X118649D01*
X118696Y39028D01*
X119113Y38404D01*
X119737Y37987D01*
X119972Y37940D01*
Y39264D01*
D02*
G37*
G36*
X319201Y39225D02*
Y37902D01*
X320524D01*
X320477Y38137D01*
X320060Y38761D01*
X319437Y39178D01*
X319201Y39225D01*
D02*
G37*
G36*
X318201D02*
X317965Y39178D01*
X317341Y38761D01*
X316924Y38137D01*
X316878Y37902D01*
X318201D01*
Y39225D01*
D02*
G37*
G36*
X50110Y37256D02*
Y35933D01*
X51433D01*
X51386Y36169D01*
X50969Y36793D01*
X50345Y37209D01*
X50110Y37256D01*
D02*
G37*
G36*
X49110D02*
X48874Y37209D01*
X48250Y36793D01*
X47833Y36169D01*
X47786Y35933D01*
X49110D01*
Y37256D01*
D02*
G37*
G36*
X320524Y36902D02*
X319201D01*
Y35578D01*
X319437Y35625D01*
X320060Y36042D01*
X320477Y36666D01*
X320524Y36902D01*
D02*
G37*
G36*
X318201D02*
X316878D01*
X316924Y36666D01*
X317341Y36042D01*
X317965Y35625D01*
X318201Y35578D01*
Y36902D01*
D02*
G37*
G36*
X128442Y35878D02*
Y34555D01*
X129765D01*
X129718Y34791D01*
X129301Y35415D01*
X128677Y35831D01*
X128442Y35878D01*
D02*
G37*
G36*
X127442D02*
X127206Y35831D01*
X126582Y35415D01*
X126165Y34791D01*
X126118Y34555D01*
X127442D01*
Y35878D01*
D02*
G37*
G36*
X51433Y34933D02*
X50110D01*
Y33610D01*
X50345Y33657D01*
X50969Y34073D01*
X51386Y34697D01*
X51433Y34933D01*
D02*
G37*
G36*
X49110D02*
X47786D01*
X47833Y34697D01*
X48250Y34073D01*
X48874Y33657D01*
X49110Y33610D01*
Y34933D01*
D02*
G37*
G36*
X115461Y33713D02*
Y32390D01*
X116784D01*
X116737Y32626D01*
X116320Y33249D01*
X115696Y33666D01*
X115461Y33713D01*
D02*
G37*
G36*
X114461D02*
X114225Y33666D01*
X113601Y33249D01*
X113184Y32626D01*
X113137Y32390D01*
X114461D01*
Y33713D01*
D02*
G37*
G36*
X129765Y33555D02*
X128442D01*
Y32232D01*
X128677Y32279D01*
X129301Y32695D01*
X129718Y33319D01*
X129765Y33555D01*
D02*
G37*
G36*
X127442D02*
X126118D01*
X126165Y33319D01*
X126582Y32695D01*
X127206Y32279D01*
X127442Y32232D01*
Y33555D01*
D02*
G37*
G36*
X267154Y33223D02*
Y31900D01*
X268477D01*
X268430Y32136D01*
X268013Y32760D01*
X267389Y33176D01*
X267154Y33223D01*
D02*
G37*
G36*
X266154D02*
X265918Y33176D01*
X265294Y32760D01*
X264877Y32136D01*
X264830Y31900D01*
X266154D01*
Y33223D01*
D02*
G37*
G36*
X66800D02*
Y31900D01*
X68123D01*
X68076Y32136D01*
X67660Y32760D01*
X67036Y33176D01*
X66800Y33223D01*
D02*
G37*
G36*
X65800D02*
X65564Y33176D01*
X64940Y32760D01*
X64524Y32136D01*
X64477Y31900D01*
X65800D01*
Y33223D01*
D02*
G37*
G36*
X219291Y34090D02*
X218751Y33983D01*
X218292Y33676D01*
X217986Y33218D01*
X217878Y32677D01*
X217986Y32136D01*
X218292Y31678D01*
X218751Y31372D01*
X219291Y31264D01*
X219832Y31372D01*
X220290Y31678D01*
X220597Y32136D01*
X220704Y32677D01*
X220597Y33218D01*
X220290Y33676D01*
X219832Y33983D01*
X219291Y34090D01*
D02*
G37*
G36*
X136259D02*
X135718Y33983D01*
X135260Y33676D01*
X134953Y33218D01*
X134846Y32677D01*
X134953Y32136D01*
X135260Y31678D01*
X135718Y31372D01*
X136259Y31264D01*
X136800Y31372D01*
X137258Y31678D01*
X137564Y32136D01*
X137672Y32677D01*
X137564Y33218D01*
X137258Y33676D01*
X136800Y33983D01*
X136259Y34090D01*
D02*
G37*
G36*
X116784Y31390D02*
X115461D01*
Y30066D01*
X115696Y30113D01*
X116320Y30530D01*
X116737Y31154D01*
X116784Y31390D01*
D02*
G37*
G36*
X114461D02*
X113137D01*
X113184Y31154D01*
X113601Y30530D01*
X114225Y30113D01*
X114461Y30066D01*
Y31390D01*
D02*
G37*
G36*
X246063Y32813D02*
X245522Y32705D01*
X245064Y32399D01*
X244758Y31941D01*
X244650Y31400D01*
X244758Y30859D01*
X245064Y30401D01*
X245522Y30095D01*
X246063Y29987D01*
X246604Y30095D01*
X247062Y30401D01*
X247368Y30859D01*
X247476Y31400D01*
X247368Y31941D01*
X247062Y32399D01*
X246604Y32705D01*
X246063Y32813D01*
D02*
G37*
G36*
X68123Y30900D02*
X66800D01*
Y29577D01*
X67036Y29624D01*
X67660Y30040D01*
X68076Y30664D01*
X68123Y30900D01*
D02*
G37*
G36*
X65800D02*
X64477D01*
X64524Y30664D01*
X64940Y30040D01*
X65564Y29624D01*
X65800Y29577D01*
Y30900D01*
D02*
G37*
G36*
X268477D02*
X267154D01*
Y29577D01*
X267389Y29624D01*
X268013Y30040D01*
X268430Y30664D01*
X268477Y30900D01*
D02*
G37*
G36*
X266154D02*
X264830D01*
X264877Y30664D01*
X265294Y30040D01*
X265918Y29624D01*
X266154Y29577D01*
Y30900D01*
D02*
G37*
G36*
X81693Y38828D02*
X80458Y38666D01*
X79306Y38189D01*
X78318Y37430D01*
X77559Y36442D01*
X77082Y35291D01*
X76920Y34055D01*
X77082Y32820D01*
X77559Y31669D01*
X78318Y30680D01*
X79306Y29921D01*
X80458Y29445D01*
X81693Y29282D01*
X82928Y29445D01*
X84079Y29921D01*
X85068Y30680D01*
X85826Y31669D01*
X86303Y32820D01*
X86466Y34055D01*
X86303Y35291D01*
X85826Y36442D01*
X85068Y37430D01*
X84079Y38189D01*
X82928Y38666D01*
X81693Y38828D01*
D02*
G37*
G36*
X195788Y30153D02*
X195247Y30046D01*
X194789Y29739D01*
X194483Y29281D01*
X194375Y28740D01*
X194483Y28199D01*
X194789Y27741D01*
X195247Y27435D01*
X195788Y27327D01*
X196329Y27435D01*
X196787Y27741D01*
X197094Y28199D01*
X197201Y28740D01*
X197094Y29281D01*
X196787Y29739D01*
X196329Y30046D01*
X195788Y30153D01*
D02*
G37*
G36*
X102075Y28201D02*
Y26878D01*
X103398D01*
X103351Y27114D01*
X102934Y27738D01*
X102311Y28154D01*
X102075Y28201D01*
D02*
G37*
G36*
X101075D02*
X100839Y28154D01*
X100215Y27738D01*
X99798Y27114D01*
X99752Y26878D01*
X101075D01*
Y28201D01*
D02*
G37*
G36*
X166839Y27923D02*
Y26600D01*
X168162D01*
X168115Y26836D01*
X167698Y27460D01*
X167074Y27876D01*
X166839Y27923D01*
D02*
G37*
G36*
X165839D02*
X165603Y27876D01*
X164979Y27460D01*
X164562Y26836D01*
X164515Y26600D01*
X165839D01*
Y27923D01*
D02*
G37*
G36*
X138295Y27423D02*
Y26100D01*
X139619D01*
X139572Y26336D01*
X139155Y26960D01*
X138531Y27376D01*
X138295Y27423D01*
D02*
G37*
G36*
X137295D02*
X137059Y27376D01*
X136436Y26960D01*
X136019Y26336D01*
X135972Y26100D01*
X137295D01*
Y27423D01*
D02*
G37*
G36*
X191732Y28094D02*
X191192Y27986D01*
X190733Y27680D01*
X190427Y27222D01*
X190319Y26681D01*
X190427Y26140D01*
X190733Y25682D01*
X191192Y25376D01*
X191732Y25268D01*
X192273Y25376D01*
X192731Y25682D01*
X193038Y26140D01*
X193145Y26681D01*
X193038Y27222D01*
X192731Y27680D01*
X192273Y27986D01*
X191732Y28094D01*
D02*
G37*
G36*
X103398Y25878D02*
X102075D01*
Y24555D01*
X102311Y24601D01*
X102934Y25018D01*
X103351Y25642D01*
X103398Y25878D01*
D02*
G37*
G36*
X101075D02*
X99752D01*
X99798Y25642D01*
X100215Y25018D01*
X100839Y24601D01*
X101075Y24555D01*
Y25878D01*
D02*
G37*
G36*
X168162Y25600D02*
X166839D01*
Y24277D01*
X167074Y24324D01*
X167698Y24740D01*
X168115Y25364D01*
X168162Y25600D01*
D02*
G37*
G36*
X165839D02*
X164515D01*
X164562Y25364D01*
X164979Y24740D01*
X165603Y24324D01*
X165839Y24277D01*
Y25600D01*
D02*
G37*
G36*
X139619Y25100D02*
X138295D01*
Y23777D01*
X138531Y23824D01*
X139155Y24240D01*
X139572Y24864D01*
X139619Y25100D01*
D02*
G37*
G36*
X137295D02*
X135972D01*
X136019Y24864D01*
X136436Y24240D01*
X137059Y23824D01*
X137295Y23777D01*
Y25100D01*
D02*
G37*
G36*
X239272Y25822D02*
X238731Y25715D01*
X238273Y25409D01*
X237966Y24950D01*
X237859Y24409D01*
X237966Y23869D01*
X238273Y23410D01*
X238731Y23104D01*
X239272Y22997D01*
X239812Y23104D01*
X240271Y23410D01*
X240577Y23869D01*
X240685Y24409D01*
X240577Y24950D01*
X240271Y25409D01*
X239812Y25715D01*
X239272Y25822D01*
D02*
G37*
G36*
X188189D02*
X187648Y25715D01*
X187190Y25409D01*
X186884Y24950D01*
X186776Y24409D01*
X186884Y23869D01*
X187190Y23410D01*
X187648Y23104D01*
X188189Y22997D01*
X188730Y23104D01*
X189188Y23410D01*
X189494Y23869D01*
X189602Y24409D01*
X189494Y24950D01*
X189188Y25409D01*
X188730Y25715D01*
X188189Y25822D01*
D02*
G37*
G36*
X121366Y22689D02*
Y21366D01*
X122689D01*
X122643Y21602D01*
X122226Y22226D01*
X121602Y22643D01*
X121366Y22689D01*
D02*
G37*
G36*
X120366D02*
X120130Y22643D01*
X119507Y22226D01*
X119090Y21602D01*
X119043Y21366D01*
X120366D01*
Y22689D01*
D02*
G37*
G36*
X184646Y23854D02*
X184105Y23746D01*
X183647Y23440D01*
X183340Y22982D01*
X183233Y22441D01*
X183340Y21900D01*
X183647Y21442D01*
X184105Y21136D01*
X184646Y21028D01*
X185186Y21136D01*
X185645Y21442D01*
X185951Y21900D01*
X186059Y22441D01*
X185951Y22982D01*
X185645Y23440D01*
X185186Y23746D01*
X184646Y23854D01*
D02*
G37*
G36*
X234164Y23460D02*
X233623Y23353D01*
X233165Y23046D01*
X232858Y22588D01*
X232751Y22047D01*
X232858Y21507D01*
X233165Y21048D01*
X233623Y20742D01*
X234164Y20634D01*
X234704Y20742D01*
X235163Y21048D01*
X235469Y21507D01*
X235577Y22047D01*
X235469Y22588D01*
X235163Y23046D01*
X234704Y23353D01*
X234164Y23460D01*
D02*
G37*
G36*
X244094Y23066D02*
X243554Y22959D01*
X243095Y22653D01*
X242789Y22194D01*
X242682Y21654D01*
X242789Y21113D01*
X243095Y20654D01*
X243554Y20348D01*
X244094Y20241D01*
X244635Y20348D01*
X245094Y20654D01*
X245400Y21113D01*
X245508Y21654D01*
X245400Y22194D01*
X245094Y22653D01*
X244635Y22959D01*
X244094Y23066D01*
D02*
G37*
G36*
X122689Y20366D02*
X121366D01*
Y19043D01*
X121602Y19090D01*
X122226Y19507D01*
X122643Y20130D01*
X122689Y20366D01*
D02*
G37*
G36*
X120366D02*
X119043D01*
X119090Y20130D01*
X119507Y19507D01*
X120130Y19090D01*
X120366Y19043D01*
Y20366D01*
D02*
G37*
G36*
X181496Y21492D02*
X180955Y21384D01*
X180497Y21078D01*
X180191Y20619D01*
X180083Y20079D01*
X180191Y19538D01*
X180497Y19080D01*
X180955Y18773D01*
X181496Y18666D01*
X182037Y18773D01*
X182495Y19080D01*
X182801Y19538D01*
X182909Y20079D01*
X182801Y20619D01*
X182495Y21078D01*
X182037Y21384D01*
X181496Y21492D01*
D02*
G37*
G36*
X344488Y26517D02*
X343155Y26386D01*
X341874Y25997D01*
X340692Y25366D01*
X339657Y24516D01*
X338808Y23481D01*
X338176Y22300D01*
X337787Y21018D01*
X337656Y19685D01*
X337787Y18352D01*
X338176Y17071D01*
X338808Y15889D01*
X339657Y14854D01*
X340692Y14004D01*
X341874Y13373D01*
X343155Y12984D01*
X344488Y12853D01*
X345821Y12984D01*
X347103Y13373D01*
X348284Y14004D01*
X349319Y14854D01*
X350169Y15889D01*
X350800Y17071D01*
X351189Y18352D01*
X351320Y19685D01*
X351189Y21018D01*
X350800Y22300D01*
X350169Y23481D01*
X349319Y24516D01*
X348284Y25366D01*
X347103Y25997D01*
X345821Y26386D01*
X344488Y26517D01*
D02*
G37*
G36*
X49213D02*
X47880Y26386D01*
X46598Y25997D01*
X45417Y25366D01*
X44382Y24516D01*
X43532Y23481D01*
X42900Y22300D01*
X42512Y21018D01*
X42380Y19685D01*
X42512Y18352D01*
X42900Y17071D01*
X43532Y15889D01*
X44382Y14854D01*
X45417Y14004D01*
X46598Y13373D01*
X47880Y12984D01*
X49213Y12853D01*
X50546Y12984D01*
X51827Y13373D01*
X53008Y14004D01*
X54044Y14854D01*
X54893Y15889D01*
X55525Y17071D01*
X55913Y18352D01*
X56045Y19685D01*
X55913Y21018D01*
X55525Y22300D01*
X54893Y23481D01*
X54044Y24516D01*
X53008Y25366D01*
X51827Y25997D01*
X50546Y26386D01*
X49213Y26517D01*
D02*
G37*
%LPD*%
D86*
X86811Y124016D02*
D03*
D87*
X205674Y227177D02*
D03*
X116142Y163567D02*
D03*
X111458Y201075D02*
D03*
X184055Y218504D02*
D03*
X212957Y212043D02*
D03*
X247466Y138766D02*
D03*
X236379Y158915D02*
D03*
X217652Y160788D02*
D03*
X336614Y109252D02*
D03*
X341831Y193307D02*
D03*
X330709Y171260D02*
D03*
X315945Y167323D02*
D03*
X98425Y157342D02*
D03*
X156546Y119838D02*
D03*
X262795Y40427D02*
D03*
X273600Y59800D02*
D03*
X257035Y70429D02*
D03*
X255906Y109941D02*
D03*
X258374Y92519D02*
D03*
X237710Y94488D02*
D03*
X238204Y78863D02*
D03*
X234360Y68555D02*
D03*
X222981Y69862D02*
D03*
X166339Y26100D02*
D03*
X269683Y102362D02*
D03*
X245477Y72648D02*
D03*
X238779Y225742D02*
D03*
X246198Y195472D02*
D03*
X242626Y214567D02*
D03*
X243110Y219882D02*
D03*
X256304Y216748D02*
D03*
X233169Y218959D02*
D03*
X224803D02*
D03*
X100394Y211024D02*
D03*
X69784Y182677D02*
D03*
X266653Y31400D02*
D03*
X318701Y37402D02*
D03*
X327756Y80992D02*
D03*
X310777Y104331D02*
D03*
X280433Y117323D02*
D03*
X57087Y233616D02*
D03*
X66925D02*
D03*
X76181D02*
D03*
X86614D02*
D03*
X97146D02*
D03*
X147638D02*
D03*
X137106D02*
D03*
X126673D02*
D03*
X117417D02*
D03*
X107579D02*
D03*
X209590D02*
D03*
X219428D02*
D03*
X228684D02*
D03*
X239118D02*
D03*
X249649D02*
D03*
X199157D02*
D03*
X188625D02*
D03*
X178192D02*
D03*
X168936D02*
D03*
X159098D02*
D03*
X312303D02*
D03*
X322142D02*
D03*
X331398D02*
D03*
X341831D02*
D03*
X301870D02*
D03*
X291339D02*
D03*
X280905D02*
D03*
X271649D02*
D03*
X261811D02*
D03*
X263779Y11175D02*
D03*
X273618D02*
D03*
X282874D02*
D03*
X293307D02*
D03*
X303839D02*
D03*
X343799D02*
D03*
X333366D02*
D03*
X324110D02*
D03*
X314272D02*
D03*
X161066D02*
D03*
X170905D02*
D03*
X180161D02*
D03*
X190594D02*
D03*
X201125D02*
D03*
X251618D02*
D03*
X241086D02*
D03*
X230653D02*
D03*
X221397D02*
D03*
X211559D02*
D03*
X109547D02*
D03*
X119386D02*
D03*
X128642D02*
D03*
X139075D02*
D03*
X149606D02*
D03*
X99114D02*
D03*
X88583D02*
D03*
X78149D02*
D03*
X68893D02*
D03*
X201409Y205512D02*
D03*
X201958Y196555D02*
D03*
X326378Y200340D02*
D03*
X285827Y48425D02*
D03*
X283858Y46063D02*
D03*
X226094Y121117D02*
D03*
X226378Y131890D02*
D03*
X171883Y60200D02*
D03*
X190551Y88189D02*
D03*
X193021Y71161D02*
D03*
X198819Y80708D02*
D03*
Y96457D02*
D03*
X257874Y161811D02*
D03*
X128347Y201575D02*
D03*
Y204331D02*
D03*
X125984Y61024D02*
D03*
X159449Y140945D02*
D03*
X128347Y198819D02*
D03*
X142520Y190551D02*
D03*
X144783Y192520D02*
D03*
X124016Y147638D02*
D03*
X217441Y142126D02*
D03*
X210148Y139869D02*
D03*
X114173Y135433D02*
D03*
X105905Y140551D02*
D03*
X123228Y94784D02*
D03*
X125984Y85630D02*
D03*
X202609Y84646D02*
D03*
X172121Y92308D02*
D03*
X214364Y70177D02*
D03*
X210630Y69291D02*
D03*
X141672Y39764D02*
D03*
X141831Y45768D02*
D03*
X92682Y147638D02*
D03*
X89567Y96457D02*
D03*
X137795Y25600D02*
D03*
X127942Y34055D02*
D03*
X165354Y72835D02*
D03*
X147638Y72648D02*
D03*
X139764Y125984D02*
D03*
X179724Y152854D02*
D03*
X160156Y146457D02*
D03*
X220002Y122736D02*
D03*
X166400Y59800D02*
D03*
X147600Y86200D02*
D03*
X154488Y58760D02*
D03*
X66300Y31400D02*
D03*
X59055Y11175D02*
D03*
X277953Y132491D02*
D03*
X88583Y230315D02*
D03*
X46200Y153400D02*
D03*
Y112200D02*
D03*
X46400Y82829D02*
D03*
X45600Y48652D02*
D03*
X49610Y35433D02*
D03*
X219291Y62992D02*
D03*
X100394Y81693D02*
D03*
X99500Y55655D02*
D03*
X120472Y39764D02*
D03*
X153543Y99606D02*
D03*
X117717Y92520D02*
D03*
X108858Y98524D02*
D03*
Y95866D02*
D03*
X153543Y81496D02*
D03*
X103445Y50011D02*
D03*
X102362Y65945D02*
D03*
X101378Y75197D02*
D03*
X101575Y26378D02*
D03*
X114961Y31890D02*
D03*
X101575Y42126D02*
D03*
X121200Y136614D02*
D03*
Y139370D02*
D03*
X120866Y20866D02*
D03*
X213779Y62992D02*
D03*
X102756Y112008D02*
D03*
X190944Y96457D02*
D03*
X111811Y127165D02*
D03*
X159449Y137795D02*
D03*
Y134646D02*
D03*
X52756Y139370D02*
D03*
Y127953D02*
D03*
X50394Y139370D02*
D03*
X64961Y120472D02*
D03*
X61811Y47244D02*
D03*
Y51968D02*
D03*
X64961Y88189D02*
D03*
Y63976D02*
D03*
X194882Y96457D02*
D03*
D88*
X160570Y197638D02*
D03*
X164901D02*
D03*
X169232D02*
D03*
X160570Y193307D02*
D03*
X164901D02*
D03*
X169232D02*
D03*
X160570Y188976D02*
D03*
X164901D02*
D03*
X169232D02*
D03*
X160570Y184646D02*
D03*
X164901D02*
D03*
X169232D02*
D03*
X160570Y180315D02*
D03*
X164901D02*
D03*
X169232D02*
D03*
M02*
