G04*
G04 #@! TF.GenerationSoftware,Altium Limited,Altium Designer,19.0.4 (130)*
G04*
G04 Layer_Physical_Order=4*
G04 Layer_Color=16711680*
%FSLAX25Y25*%
%MOIN*%
G70*
G01*
G75*
%ADD13C,0.00787*%
%ADD15C,0.01000*%
%ADD16C,0.00700*%
%ADD19R,0.01575X0.01772*%
%ADD20R,0.02913X0.10984*%
%ADD21R,0.01968X0.05118*%
%ADD22R,0.02126X0.02126*%
%ADD23R,0.02126X0.02126*%
%ADD27R,0.01772X0.01575*%
%ADD29R,0.01968X0.03150*%
%ADD30R,0.03543X0.06496*%
G04:AMPARAMS|DCode=39|XSize=11.81mil|YSize=11.81mil|CornerRadius=5.91mil|HoleSize=0mil|Usage=FLASHONLY|Rotation=270.000|XOffset=0mil|YOffset=0mil|HoleType=Round|Shape=RoundedRectangle|*
%AMROUNDEDRECTD39*
21,1,0.01181,0.00000,0,0,270.0*
21,1,0.00000,0.01181,0,0,270.0*
1,1,0.01181,0.00000,0.00000*
1,1,0.01181,0.00000,0.00000*
1,1,0.01181,0.00000,0.00000*
1,1,0.01181,0.00000,0.00000*
%
%ADD39ROUNDEDRECTD39*%
%ADD76C,0.00350*%
%ADD77C,0.00400*%
%ADD78C,0.00402*%
%ADD79C,0.00500*%
%ADD82C,0.05118*%
%ADD83C,0.08600*%
%ADD84C,0.12992*%
%ADD85C,0.05543*%
%ADD86C,0.06000*%
%ADD87C,0.01772*%
%ADD88C,0.01968*%
%ADD89R,0.03543X0.01181*%
%ADD90R,0.01181X0.03543*%
%ADD91R,0.17717X0.17717*%
%ADD92R,0.05118X0.04331*%
%ADD93R,0.02362X0.02362*%
%ADD94R,0.08268X0.08071*%
%ADD95R,0.02047X0.01260*%
%ADD96R,0.02402X0.04961*%
%ADD97R,0.06299X0.13386*%
%ADD98R,0.03169X0.01181*%
%ADD99R,0.05118X0.01968*%
%ADD100C,0.01150*%
%ADD101C,0.01150*%
%ADD102C,0.00492*%
G36*
X352249Y231186D02*
Y226316D01*
X351068Y226141D01*
X350800Y227024D01*
X350169Y228205D01*
X349319Y229240D01*
X348284Y230090D01*
X347103Y230721D01*
X345821Y231110D01*
X344488Y231242D01*
X343155Y231110D01*
X341874Y230721D01*
X340692Y230090D01*
X339657Y229240D01*
X338808Y228205D01*
X338176Y227024D01*
X337787Y225742D01*
X337656Y224410D01*
X337787Y223077D01*
X338176Y221795D01*
X338808Y220614D01*
X339657Y219578D01*
X340692Y218729D01*
X341874Y218097D01*
X343155Y217709D01*
X344488Y217577D01*
X345821Y217709D01*
X347103Y218097D01*
X348284Y218729D01*
X349319Y219578D01*
X350169Y220614D01*
X350800Y221795D01*
X351068Y222678D01*
X352249Y222503D01*
Y21591D01*
X351068Y21416D01*
X350800Y22300D01*
X350169Y23481D01*
X349319Y24516D01*
X348284Y25366D01*
X347103Y25997D01*
X345821Y26386D01*
X344488Y26517D01*
X343155Y26386D01*
X341874Y25997D01*
X340692Y25366D01*
X339657Y24516D01*
X338808Y23481D01*
X338176Y22300D01*
X337787Y21018D01*
X337656Y19685D01*
X337787Y18352D01*
X338176Y17071D01*
X338808Y15889D01*
X339657Y14854D01*
X340692Y14004D01*
X341874Y13373D01*
X343155Y12984D01*
X344488Y12853D01*
X345821Y12984D01*
X347103Y13373D01*
X348284Y14004D01*
X349319Y14854D01*
X350169Y15889D01*
X350800Y17071D01*
X351068Y17954D01*
X352249Y17779D01*
Y12160D01*
X352362Y12047D01*
X349410Y9094D01*
X43307D01*
X40354Y12047D01*
Y230315D01*
X45276Y235236D01*
X348199D01*
X352249Y231186D01*
D02*
G37*
%LPC*%
G36*
X89083Y232138D02*
Y230815D01*
X90406D01*
X90359Y231051D01*
X89942Y231675D01*
X89319Y232091D01*
X89083Y232138D01*
D02*
G37*
G36*
X88083D02*
X87847Y232091D01*
X87223Y231675D01*
X86806Y231051D01*
X86759Y230815D01*
X88083D01*
Y232138D01*
D02*
G37*
G36*
X222835Y229049D02*
X209449D01*
X209029Y228965D01*
X208674Y228728D01*
X208446Y228500D01*
X207033Y228537D01*
X206410Y228954D01*
X206174Y229000D01*
Y227177D01*
X205174D01*
Y229000D01*
X204938Y228954D01*
X204314Y228537D01*
X203987Y228047D01*
X203484D01*
Y225984D01*
X202484D01*
Y228047D01*
X200921D01*
Y227547D01*
X198271D01*
Y227547D01*
X197218Y227238D01*
X197090Y227201D01*
X196810Y227388D01*
X196269Y227496D01*
X195729Y227388D01*
X195725Y227386D01*
X194544Y227468D01*
Y227468D01*
X191969D01*
Y227468D01*
X191198D01*
Y227468D01*
X188623D01*
Y224718D01*
X186674D01*
X182665Y228728D01*
X182309Y228965D01*
X181890Y229049D01*
X129921D01*
X129502Y228965D01*
X129146Y228728D01*
X104451Y204032D01*
X96751D01*
X96566Y204479D01*
X96075Y205118D01*
X95436Y205608D01*
X94692Y205917D01*
X93894Y206022D01*
X93095Y205917D01*
X92351Y205608D01*
X91712Y205118D01*
X91221Y204479D01*
X90913Y203735D01*
X90808Y202936D01*
X90913Y202138D01*
X91221Y201394D01*
X91712Y200754D01*
X92351Y200264D01*
X93095Y199956D01*
X93894Y199851D01*
X94692Y199956D01*
X95436Y200264D01*
X96075Y200754D01*
X96566Y201394D01*
X96751Y201840D01*
X102238D01*
X102473Y200659D01*
X102351Y200608D01*
X101712Y200118D01*
X101222Y199479D01*
X100913Y198735D01*
X100808Y197936D01*
X100913Y197138D01*
X101222Y196394D01*
X101712Y195754D01*
X102351Y195264D01*
X103095Y194956D01*
X103894Y194851D01*
X104692Y194956D01*
X105436Y195264D01*
X106075Y195754D01*
X106566Y196394D01*
X106874Y197138D01*
X106979Y197936D01*
X106874Y198735D01*
X106689Y199181D01*
X108383Y200875D01*
X109654Y200476D01*
X109681Y200339D01*
X110098Y199715D01*
X110722Y199298D01*
X110958Y199251D01*
Y201075D01*
X111958D01*
Y199251D01*
X112194Y199298D01*
X112683Y199626D01*
X113272Y199473D01*
X113865Y199157D01*
Y183131D01*
X108095Y177361D01*
X106976Y177913D01*
X106979Y177936D01*
X106874Y178735D01*
X106566Y179479D01*
X106075Y180118D01*
X105436Y180608D01*
X104692Y180917D01*
X103894Y181022D01*
X103095Y180917D01*
X102351Y180608D01*
X101712Y180118D01*
X101222Y179479D01*
X100913Y178735D01*
X100808Y177936D01*
X100913Y177138D01*
X101222Y176393D01*
X101712Y175754D01*
X102351Y175264D01*
X102473Y175213D01*
X102238Y174032D01*
X96751D01*
X96566Y174479D01*
X96075Y175118D01*
X95436Y175608D01*
X94692Y175917D01*
X93894Y176022D01*
X93095Y175917D01*
X92351Y175608D01*
X91712Y175118D01*
X91221Y174479D01*
X90913Y173735D01*
X90808Y172936D01*
X90913Y172138D01*
X91221Y171394D01*
X91712Y170754D01*
X92351Y170264D01*
X93095Y169956D01*
X93894Y169851D01*
X94692Y169956D01*
X95436Y170264D01*
X96075Y170754D01*
X96566Y171394D01*
X96751Y171840D01*
X102238D01*
X102473Y170659D01*
X102351Y170608D01*
X101712Y170118D01*
X101222Y169479D01*
X100913Y168735D01*
X100808Y167936D01*
X100913Y167138D01*
X101222Y166393D01*
X101712Y165754D01*
X102351Y165264D01*
X102372Y165255D01*
X102137Y164074D01*
X93986D01*
X83759Y174301D01*
Y178740D01*
X83759Y178740D01*
X83707Y179004D01*
X83557Y179227D01*
X83557Y179227D01*
X61958Y200827D01*
X61734Y200976D01*
X61471Y201028D01*
X61471Y201028D01*
X58803D01*
X58781Y201194D01*
X58452Y201990D01*
X57927Y202674D01*
X57244Y203198D01*
X56448Y203527D01*
X55594Y203640D01*
X54740Y203527D01*
X53944Y203198D01*
X53261Y202674D01*
X52736Y201990D01*
X52407Y201194D01*
X52294Y200340D01*
X52407Y199486D01*
X52736Y198690D01*
X53261Y198007D01*
X53944Y197482D01*
X54740Y197153D01*
X55594Y197040D01*
X56448Y197153D01*
X57244Y197482D01*
X57927Y198007D01*
X58452Y198690D01*
X58781Y199486D01*
X58803Y199652D01*
X61186D01*
X65251Y195587D01*
X64762Y194405D01*
X64302Y194405D01*
X63984D01*
Y193020D01*
X65272D01*
Y193372D01*
X65272Y193896D01*
X66453Y194385D01*
X82383Y178455D01*
Y174016D01*
X82383Y174016D01*
X82435Y173752D01*
X82584Y173529D01*
X82907Y173206D01*
X82155Y172288D01*
X82153Y172289D01*
X81890Y172342D01*
X81890Y172342D01*
X60630D01*
X60630Y172342D01*
X60366Y172289D01*
X60143Y172140D01*
X60143Y172140D01*
X58175Y170172D01*
X58026Y169948D01*
X57973Y169685D01*
X57973Y169685D01*
Y164315D01*
X57779Y164069D01*
X56947Y163510D01*
X56446Y163717D01*
X55592Y163830D01*
X54738Y163717D01*
X53942Y163387D01*
X53259Y162863D01*
X52734Y162180D01*
X52405Y161384D01*
X52292Y160530D01*
X52405Y159676D01*
X52734Y158880D01*
X53259Y158196D01*
X53942Y157672D01*
X54738Y157342D01*
X55592Y157230D01*
X56446Y157342D01*
X57242Y157672D01*
X57925Y158196D01*
X58450Y158880D01*
X58779Y159676D01*
X58892Y160530D01*
X58779Y161384D01*
X58450Y162180D01*
X58348Y162312D01*
X59148Y163112D01*
X59148Y163112D01*
X59297Y163336D01*
X59350Y163599D01*
X59350Y163599D01*
Y169400D01*
X60915Y170965D01*
X67329D01*
X67522Y169831D01*
X66203Y169431D01*
X64988Y168781D01*
X63923Y167907D01*
X63048Y166842D01*
X62399Y165626D01*
X61999Y164308D01*
X61864Y162936D01*
X61999Y161565D01*
X62399Y160246D01*
X63048Y159031D01*
X63923Y157965D01*
X64988Y157091D01*
X66203Y156441D01*
X67522Y156041D01*
X68893Y155906D01*
X70265Y156041D01*
X71584Y156441D01*
X72799Y157091D01*
X73864Y157965D01*
X74739Y159031D01*
X75388Y160246D01*
X75788Y161565D01*
X75924Y162936D01*
X75788Y164308D01*
X75388Y165626D01*
X74739Y166842D01*
X73864Y167907D01*
X72799Y168781D01*
X71584Y169431D01*
X70265Y169831D01*
X70458Y170965D01*
X81605D01*
X90852Y161718D01*
X90852Y161718D01*
X91075Y161569D01*
X91339Y161516D01*
X91339Y161516D01*
X111536D01*
X111728Y161324D01*
X111728Y161324D01*
X111951Y161175D01*
X112215Y161123D01*
X112215Y161123D01*
X163173D01*
X163173Y161123D01*
X163437Y161175D01*
X163660Y161324D01*
X177583Y175247D01*
X207692D01*
X207692Y175247D01*
X207700Y175249D01*
X207734Y175248D01*
X208902Y174670D01*
X208971Y174596D01*
X209237Y174198D01*
X209696Y173891D01*
X210236Y173784D01*
X210777Y173891D01*
X211235Y174198D01*
X212547Y174120D01*
X212793Y173874D01*
X212793Y173874D01*
X213016Y173725D01*
X213280Y173673D01*
X213280Y173673D01*
X227702D01*
X228333Y172492D01*
X228305Y172449D01*
X198000D01*
X197651Y172380D01*
X197356Y172182D01*
X189583Y164410D01*
X187199D01*
X186851Y165415D01*
X186818Y165591D01*
X187105Y166022D01*
X187213Y166562D01*
X187105Y167103D01*
X186799Y167561D01*
X186341Y167868D01*
X185800Y167975D01*
X185259Y167868D01*
X184801Y167561D01*
X184495Y167103D01*
X184387Y166562D01*
X184495Y166022D01*
X184782Y165591D01*
X184749Y165415D01*
X184401Y164410D01*
X175999D01*
X175650Y164340D01*
X175369Y164153D01*
X175276Y164173D01*
X174680Y164401D01*
X174224Y164683D01*
X174140Y165107D01*
X173833Y165566D01*
X173375Y165872D01*
X172834Y165980D01*
X172294Y165872D01*
X171835Y165566D01*
X171529Y165107D01*
X171421Y164567D01*
X171529Y164026D01*
X171835Y163567D01*
X172294Y163261D01*
X172718Y163177D01*
X172979Y162754D01*
X173242Y162030D01*
X165458Y154247D01*
X165354Y154267D01*
X164814Y154160D01*
X164355Y153853D01*
X164049Y153395D01*
X163941Y152854D01*
X164049Y152314D01*
X164257Y152002D01*
X164090Y151380D01*
X163778Y150821D01*
X153349D01*
X152692Y151478D01*
X152396Y151675D01*
X152048Y151744D01*
X146650D01*
X146302Y151675D01*
X146006Y151478D01*
X144985Y150457D01*
X142459D01*
X142111Y150388D01*
X141815Y150190D01*
X139217Y147592D01*
X139113Y147613D01*
X138572Y147505D01*
X138114Y147199D01*
X137808Y146740D01*
X137700Y146200D01*
X137808Y145659D01*
X138114Y145201D01*
X138572Y144894D01*
X139113Y144787D01*
X139654Y144894D01*
X140112Y145201D01*
X140419Y145659D01*
X140526Y146200D01*
X140506Y146303D01*
X141435Y147233D01*
X142716Y146965D01*
X142769Y146897D01*
X142682Y146457D01*
X142789Y145916D01*
X143095Y145458D01*
X143554Y145151D01*
X144095Y145044D01*
X144635Y145151D01*
X145094Y145458D01*
X145400Y145916D01*
X145508Y146457D01*
X145451Y146738D01*
X147499Y148785D01*
X151199D01*
X151900Y148084D01*
X152147Y147919D01*
X152438Y147861D01*
X157406D01*
X157601Y147728D01*
X158099Y146957D01*
X162213D01*
X162712Y147728D01*
X162906Y147861D01*
X170871D01*
X171360Y146680D01*
X164357Y139678D01*
X164203Y139446D01*
X164148Y139173D01*
Y136131D01*
X163863Y135940D01*
X163557Y135482D01*
X163449Y134941D01*
X163557Y134400D01*
X163863Y133942D01*
X164263Y133675D01*
X164327Y133611D01*
X164629Y132370D01*
X163141Y130883D01*
X154333D01*
X154060Y130828D01*
X153828Y130674D01*
X141895Y118741D01*
X141741Y118509D01*
X141686Y118236D01*
Y111200D01*
X137308Y106821D01*
X135645D01*
X135454Y107107D01*
X134996Y107413D01*
X134455Y107520D01*
X133915Y107413D01*
X133456Y107107D01*
X133150Y106648D01*
X133042Y106107D01*
X133150Y105567D01*
X133456Y105108D01*
X133915Y104802D01*
X134455Y104695D01*
X134996Y104802D01*
X135454Y105108D01*
X135645Y105394D01*
X137604D01*
X137877Y105448D01*
X138108Y105603D01*
X141979Y109474D01*
X143264Y109089D01*
X143267Y109076D01*
X142990Y108799D01*
X142835Y108568D01*
X142782Y108303D01*
X132954Y98474D01*
X132289Y97995D01*
X131348Y98140D01*
X131010Y98207D01*
X130469Y98099D01*
X130011Y97793D01*
X129704Y97334D01*
X129597Y96794D01*
X129704Y96253D01*
X130011Y95795D01*
X129932Y94483D01*
X128683Y93233D01*
X125881D01*
X125602Y93493D01*
X125099Y94254D01*
X125093Y94283D01*
X123228D01*
Y94784D01*
X122728D01*
Y96607D01*
X122493Y96560D01*
X122115Y96308D01*
X121995Y96277D01*
X121039Y96377D01*
X120690Y96476D01*
X120677Y96485D01*
X120232Y96782D01*
X119691Y96890D01*
X119150Y96782D01*
X118692Y96476D01*
X118386Y96018D01*
X118289Y95533D01*
X118278Y95477D01*
X118204Y95341D01*
X117469Y94424D01*
X117384Y94376D01*
X116981Y94296D01*
X116357Y93879D01*
X115940Y93256D01*
X115474Y93233D01*
X113681D01*
X112155Y94760D01*
X111923Y94915D01*
X111650Y94969D01*
X110781Y95866D01*
X110635Y96602D01*
X110239Y97195D01*
X110635Y97788D01*
X110682Y98024D01*
X107035D01*
X107082Y97788D01*
X107478Y97195D01*
X107082Y96602D01*
X107035Y96366D01*
X108858D01*
Y95366D01*
X107035D01*
X107082Y95130D01*
X107343Y94739D01*
X106772Y93745D01*
X106726Y93698D01*
X90959D01*
X90601Y94879D01*
X90926Y95097D01*
X91343Y95721D01*
X91390Y95957D01*
X87744D01*
X87790Y95721D01*
X88207Y95097D01*
X88533Y94879D01*
X88175Y93698D01*
X81450D01*
X81207Y94285D01*
X80646Y95016D01*
X79915Y95577D01*
X79271Y95844D01*
X79159Y96457D01*
X79271Y97070D01*
X79915Y97337D01*
X80646Y97897D01*
X81207Y98629D01*
X81559Y99480D01*
X81680Y100394D01*
X81559Y101307D01*
X81207Y102159D01*
X80646Y102890D01*
X79915Y103451D01*
X79847Y103479D01*
X79864Y104750D01*
X80386Y104950D01*
X82235Y103101D01*
X82483Y102935D01*
X82775Y102877D01*
X82776Y102877D01*
X90872D01*
X91028Y102643D01*
X91487Y102336D01*
X92028Y102229D01*
X92568Y102336D01*
X93027Y102643D01*
X93333Y103101D01*
X93441Y103642D01*
X93333Y104182D01*
X93027Y104641D01*
X92568Y104947D01*
X92028Y105055D01*
X91487Y104947D01*
X91028Y104641D01*
X90872Y104406D01*
X89468D01*
X89067Y105587D01*
X89307Y105772D01*
X89868Y106503D01*
X90213Y107335D01*
X91134Y107965D01*
X94496D01*
Y110317D01*
X96209Y112030D01*
X96236Y112036D01*
X96468Y112191D01*
X96826Y112549D01*
X97918Y112097D01*
Y110024D01*
X99599D01*
Y112205D01*
Y114478D01*
X98745Y114764D01*
Y117224D01*
X101575Y120054D01*
X115157D01*
X115431Y120108D01*
X115662Y120263D01*
X119796Y124397D01*
X120804Y123780D01*
X121038Y123588D01*
Y122343D01*
X112552Y113857D01*
X111432Y113407D01*
X110974Y113714D01*
X110433Y113821D01*
X109892Y113714D01*
X109434Y113407D01*
X109128Y112949D01*
X109020Y112408D01*
X109128Y111868D01*
X109434Y111409D01*
X109892Y111103D01*
X110433Y110995D01*
X110974Y111103D01*
X111432Y111409D01*
X111623Y111695D01*
X112113D01*
X112386Y111749D01*
X112618Y111904D01*
X122257Y121543D01*
X122411Y121774D01*
X122466Y122047D01*
Y123541D01*
X122499Y123584D01*
X123028Y123666D01*
X123810Y123597D01*
X124001Y123312D01*
X124459Y123006D01*
X125000Y122898D01*
X125541Y123006D01*
X125775Y123162D01*
X126310Y123056D01*
X126520Y122970D01*
X126987Y122664D01*
X127041Y122392D01*
X127347Y121934D01*
X127806Y121628D01*
X128347Y121520D01*
X128887Y121628D01*
X129346Y121934D01*
X129652Y122392D01*
X129759Y122933D01*
X129692Y123270D01*
X131410Y124987D01*
X131565Y125219D01*
X131619Y125492D01*
Y127943D01*
X131964Y128260D01*
X133145Y127742D01*
Y123229D01*
X125632Y115716D01*
X125295Y115783D01*
X124755Y115675D01*
X124296Y115369D01*
X123990Y114911D01*
X123882Y114370D01*
X123990Y113829D01*
X124296Y113371D01*
X124755Y113065D01*
X125295Y112957D01*
X125836Y113065D01*
X126294Y113371D01*
X126601Y113829D01*
X126708Y114370D01*
X126641Y114707D01*
X134363Y122428D01*
X134518Y122660D01*
X134572Y122933D01*
Y138771D01*
X134857Y138962D01*
X135164Y139420D01*
X135271Y139961D01*
X135164Y140501D01*
X134857Y140960D01*
X134399Y141266D01*
X133858Y141374D01*
X133318Y141266D01*
X132435Y140703D01*
X131977Y141009D01*
X131436Y141117D01*
X130895Y141009D01*
X130437Y140703D01*
X129913Y140304D01*
X129281Y140479D01*
X128740Y140586D01*
X128199Y140479D01*
X127741Y140172D01*
X127435Y139714D01*
X127327Y139173D01*
X127402Y138798D01*
X127340Y138486D01*
X126735Y137553D01*
X126631Y137532D01*
X126172Y137226D01*
X125866Y136768D01*
X125759Y136227D01*
X125866Y135686D01*
X126172Y135228D01*
X126458Y135037D01*
Y131700D01*
X121247Y126489D01*
X120239Y127106D01*
X120005Y127297D01*
Y133832D01*
X120700Y134339D01*
Y136614D01*
X121200D01*
Y137114D01*
X123023D01*
X122976Y137350D01*
X122559Y137974D01*
Y138011D01*
X122976Y138634D01*
X123023Y138870D01*
X121200D01*
Y139870D01*
X123023D01*
X122976Y140106D01*
X122559Y140730D01*
X122450Y140803D01*
X121920Y141236D01*
X121804Y141874D01*
X121808Y142376D01*
X121863Y142431D01*
X122018Y142663D01*
X122072Y142936D01*
Y143675D01*
X122108Y143682D01*
X122566Y143988D01*
X122872Y144447D01*
X122938Y144777D01*
X123011Y145010D01*
X124013Y145713D01*
X124039Y145720D01*
X124752Y145861D01*
X125375Y146278D01*
X125792Y146902D01*
X125839Y147138D01*
X121941D01*
X121653Y146569D01*
X121239Y146335D01*
X121026Y146293D01*
X120568Y145987D01*
X120262Y145528D01*
X120154Y144987D01*
X120262Y144447D01*
X119275Y143812D01*
X119011Y144208D01*
X118552Y144514D01*
X118012Y144622D01*
X117471Y144514D01*
X117013Y144208D01*
X116706Y143749D01*
X116599Y143209D01*
X116706Y142668D01*
X117013Y142209D01*
X117298Y142019D01*
Y126575D01*
X115846Y125123D01*
X114113D01*
X113504Y126304D01*
X113587Y126429D01*
X113634Y126665D01*
X111811D01*
Y127665D01*
X113634D01*
X113587Y127901D01*
X113171Y128525D01*
X112547Y128942D01*
X111811Y129088D01*
X111433Y129398D01*
Y131390D01*
X109161D01*
Y127642D01*
X109497D01*
X109888Y127165D01*
X110035Y126429D01*
X110118Y126304D01*
X109509Y125123D01*
X100492D01*
X100219Y125069D01*
X99988Y124914D01*
X93291Y118218D01*
X93136Y117986D01*
X93082Y117713D01*
Y116445D01*
X91134D01*
X90213Y117074D01*
X89868Y117907D01*
X89307Y118638D01*
X88627Y119160D01*
X88589Y119415D01*
X88649Y120447D01*
X88828Y120522D01*
X89664Y121163D01*
X90305Y121999D01*
X90708Y122971D01*
X90780Y123516D01*
X86811D01*
Y124516D01*
X90780D01*
X90708Y125060D01*
X90305Y126033D01*
X89664Y126869D01*
X88828Y127510D01*
X88649Y127584D01*
X88589Y128617D01*
X88627Y128872D01*
X89307Y129393D01*
X89868Y130125D01*
X90177Y130870D01*
X95169D01*
Y128142D01*
X99713D01*
Y135638D01*
X95169D01*
Y132909D01*
X90177D01*
X89868Y133655D01*
X89307Y134386D01*
X88576Y134947D01*
X87725Y135300D01*
X86811Y135420D01*
X85897Y135300D01*
X85152Y134991D01*
X82845Y137297D01*
X82895Y138023D01*
X82935Y138175D01*
X83153Y138593D01*
X84079Y138977D01*
X85068Y139735D01*
X85826Y140724D01*
X86303Y141875D01*
X86466Y143110D01*
X86303Y144346D01*
X85826Y145497D01*
X85068Y146485D01*
X84079Y147244D01*
X82928Y147721D01*
X81693Y147883D01*
X80458Y147721D01*
X79306Y147244D01*
X78318Y146485D01*
X77559Y145497D01*
X77082Y144346D01*
X76920Y143110D01*
X77082Y141875D01*
X77559Y140724D01*
X78318Y139735D01*
X79252Y139018D01*
X79261Y138898D01*
X78817Y137837D01*
X70480D01*
Y138394D01*
X61213D01*
Y129323D01*
X70480D01*
Y135798D01*
X75553D01*
X75954Y134617D01*
X75653Y134386D01*
X75092Y133655D01*
X74740Y132803D01*
X74619Y131890D01*
X74740Y130976D01*
X75092Y130125D01*
X75653Y129393D01*
X76384Y128832D01*
X77028Y128566D01*
X77140Y127953D01*
X77028Y127340D01*
X76384Y127073D01*
X75653Y126512D01*
X75092Y125781D01*
X74740Y124929D01*
X74619Y124016D01*
X74740Y123102D01*
X75092Y122251D01*
X75653Y121519D01*
X76384Y120958D01*
X77028Y120692D01*
X77140Y120079D01*
X77028Y119466D01*
X76384Y119199D01*
X75653Y118638D01*
X75287Y118160D01*
X74341Y117930D01*
X73830Y117947D01*
X73308Y118469D01*
Y119291D01*
X73242Y119623D01*
X73054Y119904D01*
X69102Y123855D01*
Y125402D01*
X65756Y125402D01*
X65346Y125402D01*
X63181D01*
Y125035D01*
X58952D01*
X58562Y124958D01*
X58231Y124737D01*
X57051Y123556D01*
X56546Y123456D01*
X56087Y123150D01*
X55781Y122691D01*
X55674Y122150D01*
X55781Y121610D01*
X56087Y121151D01*
X56546Y120845D01*
X57087Y120738D01*
X57627Y120845D01*
X58086Y121151D01*
X58392Y121610D01*
X58492Y122114D01*
X59374Y122996D01*
X62815D01*
X63181Y122630D01*
X63345Y121449D01*
X63184Y121208D01*
X63060Y120581D01*
X62524Y119622D01*
X61501Y119240D01*
X60484D01*
Y116980D01*
Y113043D01*
X61834D01*
X62327Y111986D01*
X62217Y111607D01*
X61903Y111130D01*
X61859Y111108D01*
X57834D01*
X57627Y111246D01*
X57087Y111354D01*
X56546Y111246D01*
X56087Y110940D01*
X55781Y110482D01*
X55674Y109941D01*
X55781Y109400D01*
X56087Y108942D01*
X56546Y108635D01*
X57087Y108528D01*
X57627Y108635D01*
X58086Y108942D01*
X58171Y109069D01*
X62886D01*
Y108850D01*
X66232Y108850D01*
X66642Y108850D01*
X68807D01*
Y109435D01*
X69357D01*
X69689Y109501D01*
X69970Y109689D01*
X72441Y112160D01*
X74939Y109662D01*
X74740Y109181D01*
X74619Y108268D01*
X74740Y107354D01*
X75092Y106503D01*
X75653Y105772D01*
X76384Y105210D01*
X77028Y104944D01*
X77140Y104331D01*
X77028Y103718D01*
X76384Y103451D01*
X75653Y102890D01*
X75092Y102159D01*
X74941Y101794D01*
X73653Y101594D01*
X73646Y101595D01*
X72857Y102384D01*
X72576Y102572D01*
X72244Y102638D01*
X68709D01*
Y103157D01*
X65362Y103157D01*
X64953Y103157D01*
X62787D01*
Y102791D01*
X58055D01*
X57627Y103077D01*
X57087Y103185D01*
X56546Y103077D01*
X56087Y102771D01*
X55781Y102312D01*
X55674Y101772D01*
X55781Y101231D01*
X56087Y100773D01*
X56546Y100466D01*
X57087Y100359D01*
X57627Y100466D01*
X58055Y100752D01*
X62787D01*
Y100386D01*
X66134Y100386D01*
X66543Y100386D01*
X68709D01*
Y100905D01*
X71885D01*
X73009Y99781D01*
X73290Y99593D01*
X73439Y99563D01*
X73731Y99050D01*
X73892Y98346D01*
X70901Y95355D01*
X68964D01*
Y95618D01*
X66925D01*
Y96000D01*
X65224D01*
Y92520D01*
X64224D01*
Y96000D01*
X62524D01*
Y95618D01*
X60484D01*
Y93358D01*
Y89421D01*
X61501D01*
X62524Y89039D01*
X63060Y88080D01*
X63184Y87453D01*
X63601Y86829D01*
X64225Y86413D01*
X64045Y85244D01*
X62787D01*
Y84927D01*
X58105D01*
X58086Y84956D01*
X57627Y85262D01*
X57087Y85370D01*
X56546Y85262D01*
X56087Y84956D01*
X55781Y84497D01*
X55674Y83957D01*
X55781Y83416D01*
X56087Y82958D01*
X56546Y82651D01*
X57087Y82544D01*
X57627Y82651D01*
X57981Y82888D01*
X62787D01*
Y82472D01*
X66134Y82472D01*
X66543Y82472D01*
X68709D01*
Y84018D01*
X69545Y84855D01*
X69784Y84807D01*
X70324Y84915D01*
X70783Y85221D01*
X71089Y85680D01*
X71196Y86221D01*
X71089Y86761D01*
X70783Y87220D01*
X70324Y87526D01*
X69784Y87633D01*
X69243Y87526D01*
X68784Y87220D01*
X68478Y86761D01*
X68370Y86221D01*
X68385Y86146D01*
X67483Y85244D01*
X66249Y85244D01*
X66124Y85385D01*
X66216Y86760D01*
X66320Y86829D01*
X66737Y87453D01*
X66784Y87689D01*
X64961D01*
Y88689D01*
X67181D01*
X67699Y89396D01*
X67751Y89421D01*
X68964D01*
Y89684D01*
X71295D01*
X74939Y86040D01*
X74740Y85559D01*
X74619Y84646D01*
X74740Y83732D01*
X75092Y82881D01*
X75653Y82149D01*
X76384Y81588D01*
X77028Y81322D01*
X77140Y80709D01*
X77028Y80096D01*
X76384Y79829D01*
X75653Y79268D01*
X75092Y78537D01*
X74740Y77685D01*
X74619Y76772D01*
X74740Y75858D01*
X75092Y75007D01*
X75121Y74969D01*
X71885Y71733D01*
X69437D01*
Y71996D01*
X67398D01*
Y72378D01*
X65697D01*
Y68898D01*
X64697D01*
Y72378D01*
X62996D01*
Y71996D01*
X60957D01*
Y69736D01*
Y65799D01*
X62490D01*
X63033Y64949D01*
X63070Y64476D01*
X66947D01*
X67398Y65417D01*
X68420Y65799D01*
X69437D01*
Y66018D01*
X71867D01*
X75094Y62791D01*
X75092Y62789D01*
X74740Y61937D01*
X74619Y61024D01*
X74740Y60110D01*
X75092Y59259D01*
X75653Y58527D01*
X76384Y57966D01*
X77028Y57700D01*
X77140Y57087D01*
X77028Y56473D01*
X76384Y56207D01*
X75653Y55646D01*
X75092Y54915D01*
X74740Y54063D01*
X74733Y54016D01*
X70933D01*
Y54240D01*
X67965D01*
Y50500D01*
X67965Y49319D01*
X67965Y48909D01*
Y45169D01*
X69999D01*
X70083Y45153D01*
X74635D01*
X74740Y44362D01*
X75092Y43510D01*
X75653Y42779D01*
X76384Y42218D01*
X77236Y41866D01*
X78149Y41745D01*
X79063Y41866D01*
X79915Y42218D01*
X80646Y42779D01*
X81207Y43510D01*
X81559Y44362D01*
X81680Y45276D01*
X81559Y46189D01*
X81207Y47041D01*
X80646Y47772D01*
X79915Y48333D01*
X79271Y48599D01*
X79159Y49213D01*
X79271Y49826D01*
X79915Y50092D01*
X80646Y50653D01*
X81207Y51385D01*
X81559Y52236D01*
X81680Y53150D01*
X81559Y54063D01*
X81207Y54915D01*
X80646Y55646D01*
X79915Y56207D01*
X79740Y56279D01*
X79750Y57554D01*
X80366Y57798D01*
X81582Y56582D01*
X81813Y56427D01*
X82086Y56373D01*
X83392D01*
X83966Y55192D01*
X83754Y54915D01*
X83401Y54063D01*
X83281Y53150D01*
X83401Y52236D01*
X83754Y51385D01*
X84315Y50653D01*
X85046Y50092D01*
X85690Y49826D01*
X85801Y49213D01*
X85690Y48599D01*
X85046Y48333D01*
X84315Y47772D01*
X83754Y47041D01*
X83401Y46189D01*
X83281Y45276D01*
X83401Y44362D01*
X83754Y43510D01*
X84315Y42779D01*
X85046Y42218D01*
X85897Y41866D01*
X86811Y41745D01*
X87725Y41866D01*
X88576Y42218D01*
X89307Y42779D01*
X89868Y43510D01*
X90221Y44362D01*
X90341Y45276D01*
X90221Y46189D01*
X90045Y46615D01*
X91356Y47925D01*
X93708D01*
Y50278D01*
X96039Y52609D01*
X97130Y52157D01*
Y49984D01*
X97130Y49984D01*
X97130Y49984D01*
X97433Y48929D01*
Y46449D01*
X97433D01*
Y45677D01*
X96457Y45507D01*
X95916Y45400D01*
X95458Y45094D01*
X95151Y44635D01*
X95044Y44094D01*
X95151Y43554D01*
X95458Y43095D01*
X95916Y42789D01*
X96457Y42682D01*
X96997Y42789D01*
X97456Y43095D01*
X97461Y43102D01*
X98647D01*
X99652Y42126D01*
X99798Y41390D01*
X100215Y40766D01*
X100839Y40350D01*
X101075Y40303D01*
Y42126D01*
X101575D01*
Y42626D01*
X103665D01*
X103817Y42855D01*
X104732Y43496D01*
X105504D01*
Y43496D01*
X108079D01*
Y45317D01*
X108256Y46468D01*
D01*
X108540Y47532D01*
X111686D01*
X112286Y46932D01*
Y46654D01*
X112341Y46380D01*
X112495Y46149D01*
X113086Y45558D01*
X113317Y45404D01*
X113591Y45349D01*
X126810D01*
X127001Y45064D01*
X127459Y44758D01*
X128000Y44650D01*
X128541Y44758D01*
X128999Y45064D01*
X129305Y45522D01*
X129413Y46063D01*
X129305Y46604D01*
X128999Y47062D01*
X128927Y47111D01*
X128679Y47442D01*
X128920Y47803D01*
X129005Y48228D01*
X128920Y48654D01*
X128680Y49013D01*
X128679Y49015D01*
X128679Y49015D01*
X128600Y49068D01*
X128536Y50100D01*
X128614Y50403D01*
X128693Y50468D01*
X130020D01*
X130293Y50522D01*
X130525Y50677D01*
X131209Y51362D01*
X131459Y51195D01*
X132000Y51087D01*
X132541Y51195D01*
X132999Y51501D01*
X133305Y51959D01*
X133413Y52500D01*
X133305Y53041D01*
X132999Y53499D01*
X132541Y53805D01*
X132000Y53913D01*
X131459Y53805D01*
X131001Y53499D01*
X130695Y53041D01*
X130651Y52822D01*
X130007Y52177D01*
X129047Y52258D01*
X128328Y53312D01*
X128374Y53543D01*
X128266Y54084D01*
X128052Y54405D01*
X128209Y55004D01*
X128524Y55586D01*
X138095D01*
X141309Y52372D01*
X141266Y52145D01*
X140574Y51095D01*
X140033Y50988D01*
X139575Y50681D01*
X139268Y50223D01*
X139161Y49682D01*
X139268Y49142D01*
X139575Y48683D01*
X139499Y47965D01*
X138343Y47903D01*
X136934Y49311D01*
Y51540D01*
X137258Y51757D01*
X137564Y52215D01*
X137672Y52756D01*
X137564Y53297D01*
X137258Y53755D01*
X136800Y54061D01*
X136259Y54169D01*
X135718Y54061D01*
X135260Y53755D01*
X134953Y53297D01*
X134846Y52756D01*
X134953Y52215D01*
X135260Y51757D01*
X135507Y51592D01*
Y49016D01*
X135561Y48743D01*
X135716Y48511D01*
X135757Y48469D01*
X135790Y48354D01*
X135615Y47062D01*
X135309Y46604D01*
X135201Y46063D01*
X135309Y45522D01*
X135615Y45064D01*
X136074Y44758D01*
X136614Y44650D01*
X137155Y44758D01*
X137613Y45064D01*
X138905Y45239D01*
X139021Y45206D01*
X141392Y42835D01*
X141003Y41553D01*
X140936Y41540D01*
X140313Y41123D01*
X139896Y40500D01*
X139849Y40264D01*
X141672D01*
Y39764D01*
X142172D01*
Y37940D01*
X142408Y37987D01*
X143032Y38404D01*
X143449Y39028D01*
X143462Y39095D01*
X144744Y39483D01*
X151005Y33222D01*
X151237Y33067D01*
X151510Y33013D01*
X151796D01*
X154987Y29821D01*
X155219Y29667D01*
X155492Y29612D01*
X193392D01*
X194375Y28740D01*
X194483Y28199D01*
X194789Y27741D01*
X195247Y27435D01*
X195788Y27327D01*
X196329Y27435D01*
X196787Y27741D01*
X197094Y28199D01*
X197201Y28740D01*
X198185Y29612D01*
X200139D01*
X200412Y29667D01*
X200643Y29821D01*
X211011Y40189D01*
X211149Y40216D01*
X211380Y40371D01*
X224530Y53520D01*
X224684Y53752D01*
X224739Y54025D01*
Y55780D01*
X232676Y63717D01*
X232830Y63948D01*
X232885Y64221D01*
Y65853D01*
X233055Y66066D01*
X233860Y66564D01*
Y68555D01*
Y70547D01*
X233055Y71045D01*
X232885Y71258D01*
Y99227D01*
X232830Y99500D01*
X232676Y99731D01*
X229639Y102769D01*
X229407Y102923D01*
X229134Y102978D01*
X226575D01*
X226302Y102923D01*
X226070Y102769D01*
X225792Y102490D01*
X222264D01*
X222073Y102776D01*
X221615Y103082D01*
X221074Y103190D01*
X220533Y103082D01*
X220075Y102776D01*
X219768Y102317D01*
X219661Y101777D01*
X219734Y101409D01*
X219097Y100277D01*
X218408Y100198D01*
X218321Y100212D01*
X217863Y100518D01*
X217322Y100625D01*
X216782Y100518D01*
X216323Y100212D01*
X216017Y99753D01*
X215909Y99212D01*
X216017Y98672D01*
X216323Y98213D01*
X216782Y97907D01*
X217322Y97799D01*
X217863Y97907D01*
X218321Y98213D01*
X218512Y98499D01*
X219822D01*
X219884Y98388D01*
X219844Y97176D01*
X219386Y96870D01*
X219079Y96412D01*
X218972Y95871D01*
X219079Y95330D01*
X219386Y94872D01*
X219844Y94565D01*
X219873Y94493D01*
X220119Y93306D01*
X219955Y93061D01*
X219847Y92520D01*
X219955Y91979D01*
X220261Y91521D01*
X220720Y91215D01*
X221260Y91107D01*
X221801Y91215D01*
X222259Y91521D01*
X222566Y91979D01*
X222609Y92200D01*
X225787D01*
X227852Y90135D01*
Y76597D01*
X226365Y75111D01*
X226211Y74879D01*
X226156Y74606D01*
Y67619D01*
X224003Y65465D01*
X223849Y65234D01*
X223794Y64961D01*
Y63270D01*
X221901Y61377D01*
X220983Y62130D01*
X221068Y62256D01*
X221115Y62492D01*
X219791D01*
Y61169D01*
X220027Y61216D01*
X220153Y61300D01*
X220906Y60383D01*
X208845Y48322D01*
X208422Y48296D01*
X208130Y48589D01*
X208140Y50083D01*
X217530Y59473D01*
X217685Y59705D01*
X217739Y59978D01*
Y60341D01*
X217963Y60580D01*
X218791Y61068D01*
Y62992D01*
Y65280D01*
X218434Y65949D01*
X219202Y66717D01*
X219357Y66948D01*
X219411Y67221D01*
Y70820D01*
X224998Y76407D01*
X225153Y76639D01*
X225207Y76912D01*
Y81183D01*
X225507Y81383D01*
X225813Y81841D01*
X225921Y82382D01*
X225813Y82923D01*
X225507Y83381D01*
X225049Y83687D01*
X224508Y83795D01*
X223967Y83687D01*
X223509Y83381D01*
X223202Y82923D01*
X223095Y82382D01*
X223202Y81841D01*
X223509Y81383D01*
X223780Y81201D01*
Y79019D01*
X223705Y78951D01*
X222599Y78496D01*
X222490Y78569D01*
X221949Y78677D01*
X221408Y78569D01*
X220950Y78263D01*
X220643Y77804D01*
X220536Y77264D01*
X220643Y76723D01*
X220950Y76265D01*
X221080Y76178D01*
X221358Y75077D01*
X221340Y74768D01*
X218193Y71620D01*
X218038Y71389D01*
X218020Y71298D01*
X216839Y71414D01*
Y76486D01*
X216878Y76562D01*
X217900Y77387D01*
X218441Y77495D01*
X218899Y77801D01*
X219205Y78259D01*
X219313Y78800D01*
X219205Y79341D01*
X218899Y79799D01*
X218441Y80105D01*
X218338Y80144D01*
X217641Y80992D01*
X217534Y81533D01*
X217228Y81991D01*
X216769Y82298D01*
X216228Y82405D01*
X215688Y82298D01*
X215229Y81991D01*
X214923Y81533D01*
X214815Y80992D01*
X213832Y80120D01*
X209183D01*
X208106Y80709D01*
X207998Y81249D01*
X207692Y81708D01*
X207274Y81987D01*
X207148Y82677D01*
X207274Y83367D01*
X207692Y83647D01*
X207971Y84063D01*
X208662Y84190D01*
X209353Y84063D01*
X209631Y83646D01*
X210090Y83340D01*
X210630Y83232D01*
X211171Y83340D01*
X211630Y83646D01*
X211936Y84104D01*
X212043Y84645D01*
X211936Y85186D01*
X211630Y85644D01*
X211171Y85950D01*
X210630Y86058D01*
X210090Y85950D01*
X209631Y85644D01*
X209353Y85227D01*
X208662Y85101D01*
X207971Y85228D01*
X207692Y85645D01*
X207274Y85924D01*
X207148Y86614D01*
X207274Y87304D01*
X207692Y87584D01*
X207998Y88042D01*
X208106Y88583D01*
X207998Y89123D01*
X207692Y89582D01*
X207234Y89888D01*
X206693Y89996D01*
X206152Y89888D01*
X205694Y89582D01*
X204570Y90026D01*
X204198Y90397D01*
X203836Y91317D01*
X204022Y91921D01*
X204061Y91980D01*
X204169Y92521D01*
X204799Y93592D01*
X205030Y93747D01*
X206198Y94914D01*
X206534Y94847D01*
X207075Y94954D01*
X207534Y95261D01*
X207840Y95719D01*
X207947Y96260D01*
X207840Y96801D01*
X207534Y97259D01*
X207075Y97565D01*
X206534Y97673D01*
X205994Y97565D01*
X205535Y97259D01*
X205229Y96801D01*
X205121Y96260D01*
X205188Y95923D01*
X204230Y94965D01*
X202244D01*
X201971Y94911D01*
X201739Y94756D01*
X200665Y93682D01*
X200511Y93451D01*
X200456Y93177D01*
Y91864D01*
X200492Y91687D01*
Y91357D01*
X199979Y90845D01*
X198546Y91082D01*
X198413Y91350D01*
X198413Y91350D01*
X198413D01*
Y94000D01*
X198913D01*
Y94553D01*
X199555Y94681D01*
X200179Y95098D01*
X200596Y95722D01*
X200643Y95957D01*
X198819D01*
Y96457D01*
X198319D01*
Y98281D01*
X198084Y98234D01*
X197923Y98126D01*
X197350D01*
Y96063D01*
X196350D01*
Y98343D01*
X195822Y99188D01*
X195863Y99382D01*
X195882Y99395D01*
X196188Y99853D01*
X196296Y100394D01*
X196188Y100934D01*
X195882Y101393D01*
X195424Y101699D01*
X194883Y101807D01*
X194342Y101699D01*
X193884Y101393D01*
X193606Y100977D01*
X192914Y100849D01*
X192222Y100977D01*
X191944Y101393D01*
X191526Y101672D01*
X191400Y102362D01*
X191526Y103052D01*
X191944Y103332D01*
X192250Y103790D01*
X192358Y104331D01*
X192250Y104871D01*
X191944Y105330D01*
X191486Y105636D01*
X190945Y105744D01*
X190404Y105636D01*
X189946Y105330D01*
X189666Y104911D01*
X188976Y104785D01*
X188286Y104911D01*
X188007Y105330D01*
X187549Y105636D01*
X187008Y105744D01*
X186467Y105636D01*
X186009Y105330D01*
X185729Y104911D01*
X185039Y104785D01*
X184350Y104911D01*
X184070Y105330D01*
X183612Y105636D01*
X183071Y105744D01*
X182530Y105636D01*
X182072Y105330D01*
X181765Y104871D01*
X181658Y104331D01*
X181765Y103790D01*
X182072Y103332D01*
X182490Y103052D01*
X182616Y102362D01*
X182490Y101672D01*
X182072Y101393D01*
X181765Y100934D01*
X181658Y100394D01*
X181765Y99853D01*
X182072Y99395D01*
X182530Y99088D01*
X182837Y99027D01*
Y97823D01*
X182530Y97762D01*
X182072Y97456D01*
X181765Y96997D01*
X181658Y96457D01*
X181765Y95916D01*
X182072Y95458D01*
X182530Y95151D01*
X183071Y95044D01*
X183086Y93928D01*
X182568Y93825D01*
X182109Y93519D01*
X181803Y93060D01*
X181696Y92519D01*
X181787Y92063D01*
X181777Y91885D01*
X181448Y90882D01*
X181306Y90745D01*
X181199Y90673D01*
X179440Y88914D01*
X170766D01*
X170582Y89185D01*
X170682Y90446D01*
X170988Y90730D01*
X171104Y90720D01*
X171386Y90532D01*
X171621Y90485D01*
Y92308D01*
Y94131D01*
X171386Y94084D01*
X170762Y93668D01*
X170684Y93551D01*
X170227Y93179D01*
X169442Y93141D01*
X169166Y93171D01*
X168799Y93244D01*
X168259Y93136D01*
X167800Y92830D01*
X167494Y92371D01*
X167386Y91831D01*
X167494Y91290D01*
X167800Y90832D01*
X168086Y90641D01*
Y89665D01*
X168140Y89392D01*
X168295Y89161D01*
X169238Y88218D01*
X169178Y87613D01*
X168872Y87155D01*
X168764Y86614D01*
X168872Y86073D01*
X168947Y85961D01*
X168497Y84861D01*
X168424Y84780D01*
X167826D01*
X167553Y84725D01*
X167321Y84571D01*
X163681Y80930D01*
X163505D01*
X163232Y80876D01*
X163001Y80721D01*
X157993Y75714D01*
X137992D01*
X137719Y75659D01*
X137487Y75505D01*
X132775Y70792D01*
X131505D01*
X131314Y71078D01*
X130856Y71384D01*
X130721Y71475D01*
X130412Y71809D01*
X130354Y72294D01*
X130396Y72490D01*
X131349Y73203D01*
X131890Y73095D01*
X132431Y73203D01*
X132889Y73509D01*
X133195Y73967D01*
X133303Y74508D01*
X133195Y75049D01*
X132889Y75507D01*
X132653Y75664D01*
X132380Y76600D01*
X132352Y77033D01*
X147866Y92547D01*
X148021Y92779D01*
X148075Y93052D01*
Y96919D01*
X150474Y99317D01*
X151755Y98928D01*
X151767Y98870D01*
X152184Y98247D01*
X152807Y97830D01*
X153043Y97783D01*
Y99606D01*
X153543D01*
Y100106D01*
X155367D01*
X155320Y100342D01*
X154903Y100966D01*
X154279Y101383D01*
X154221Y101394D01*
X153832Y102676D01*
X154705Y103548D01*
X154859Y103780D01*
X154914Y104053D01*
Y104242D01*
X156088Y104611D01*
X156546Y104305D01*
X157087Y104197D01*
X157627Y104305D01*
X158086Y104611D01*
X158342Y104995D01*
X163640D01*
X163765Y104808D01*
X164223Y104502D01*
X164764Y104394D01*
X165305Y104502D01*
X165763Y104808D01*
X166069Y105266D01*
X166177Y105807D01*
X166069Y106348D01*
X165763Y106806D01*
X165425Y107032D01*
X165305Y107113D01*
X165245Y107139D01*
Y108314D01*
X165305Y108340D01*
X165420Y108418D01*
X165763Y108647D01*
X166069Y109105D01*
X166177Y109646D01*
X166069Y110186D01*
X165763Y110645D01*
X165305Y110951D01*
X164764Y111059D01*
X164223Y110951D01*
X163765Y110645D01*
X163458Y110186D01*
X163351Y109646D01*
X163458Y109105D01*
X163765Y108647D01*
X164102Y108421D01*
X164136Y108398D01*
X164221Y107272D01*
X164221Y107224D01*
X163843Y106859D01*
X163765Y106806D01*
X163720Y106740D01*
X163392Y106422D01*
X158211D01*
X158086Y106609D01*
X157627Y106916D01*
X157350Y106971D01*
X156964Y107727D01*
X156885Y108176D01*
X162360Y113651D01*
X188853D01*
X189126Y113705D01*
X189357Y113860D01*
X190236Y114739D01*
X196839D01*
X197504Y113668D01*
X197508Y113558D01*
X197416Y113096D01*
X197523Y112555D01*
X197829Y112097D01*
X198288Y111791D01*
X198829Y111683D01*
X199369Y111791D01*
X199828Y112097D01*
X200134Y112555D01*
X200242Y113096D01*
X201367Y113460D01*
X219488D01*
X223413Y109535D01*
X223644Y109380D01*
X223917Y109326D01*
X228149D01*
X230291Y107184D01*
Y104422D01*
X230345Y104149D01*
X230500Y103917D01*
X233311Y101106D01*
X233312Y101105D01*
X233466Y100873D01*
X233698Y100719D01*
X233971Y100664D01*
X234628D01*
X235650Y99993D01*
X235758Y99452D01*
X236064Y98994D01*
X236522Y98688D01*
X237063Y98580D01*
X237604Y98688D01*
X238062Y98994D01*
X238368Y99452D01*
X238476Y99993D01*
X238368Y100534D01*
X238062Y100992D01*
X237604Y101298D01*
X237063Y101406D01*
X236726Y101339D01*
X236183Y101883D01*
X235951Y102037D01*
X235678Y102092D01*
X234344D01*
X231718Y104718D01*
Y107480D01*
X231664Y107753D01*
X231655Y107765D01*
X231864Y108758D01*
X232058Y109106D01*
X232397Y109332D01*
X232703Y109791D01*
X232811Y110331D01*
X232703Y110872D01*
X232397Y111331D01*
X231938Y111637D01*
X231920Y111641D01*
X231278Y112513D01*
X231219Y112892D01*
X231390Y113145D01*
X231436Y113181D01*
X231840Y113261D01*
X232298Y113568D01*
X232605Y114026D01*
X232712Y114567D01*
X232605Y115108D01*
X232298Y115566D01*
X231840Y115872D01*
X231719Y116487D01*
X231826Y117027D01*
X231719Y117568D01*
X231413Y118027D01*
X230954Y118333D01*
X230413Y118440D01*
X230077Y118374D01*
X229731Y118719D01*
X229500Y118874D01*
X229226Y118928D01*
X228211D01*
X228147Y118999D01*
X227688Y120109D01*
X227870Y120381D01*
X227917Y120617D01*
X224270D01*
X224317Y120381D01*
X224499Y120109D01*
X224040Y118999D01*
X223976Y118928D01*
X211863D01*
X211747Y120109D01*
X211958Y120151D01*
X212416Y120458D01*
X212723Y120916D01*
X212790Y121254D01*
X212840Y121467D01*
X213573Y122199D01*
X213785Y122249D01*
X214123Y122317D01*
X214582Y122623D01*
X214888Y123081D01*
X214996Y123622D01*
X214888Y124163D01*
X214582Y124621D01*
X214123Y124927D01*
X213583Y125035D01*
X213042Y124927D01*
X212584Y124621D01*
X212393Y124336D01*
X211008D01*
X210312Y125031D01*
X210081Y125186D01*
X209808Y125240D01*
X206739D01*
X206512Y125439D01*
X205922Y126421D01*
X205950Y126565D01*
X206905Y127480D01*
X210931D01*
X211179Y127232D01*
X211510Y127011D01*
X211900Y126933D01*
X229725D01*
X229894Y126764D01*
X229995Y126259D01*
X230301Y125801D01*
X230759Y125495D01*
X231300Y125387D01*
X231841Y125495D01*
X232299Y125801D01*
X232605Y126259D01*
X232713Y126800D01*
X232605Y127341D01*
X232299Y127799D01*
X231841Y128105D01*
X231336Y128206D01*
X230868Y128674D01*
X230537Y128895D01*
X230147Y128972D01*
X227637D01*
X227159Y130066D01*
X227174Y130153D01*
X227738Y130530D01*
X228154Y131154D01*
X228201Y131390D01*
X224555D01*
X224602Y131154D01*
X225018Y130530D01*
X225582Y130153D01*
X225597Y130066D01*
X225118Y128972D01*
X212323D01*
X212074Y129221D01*
X211743Y129442D01*
X211353Y129520D01*
X208882D01*
X208353Y130701D01*
X208392Y130759D01*
X208484Y131220D01*
X208596Y131341D01*
X208990Y131602D01*
X209504Y131919D01*
X209777Y131865D01*
X211999D01*
X212190Y131580D01*
X212648Y131273D01*
X213189Y131166D01*
X213730Y131273D01*
X214188Y131580D01*
X214494Y132038D01*
X214602Y132579D01*
X214785Y132741D01*
X215930Y133154D01*
X216388Y132848D01*
X216929Y132741D01*
X217470Y132848D01*
X217928Y133154D01*
X218234Y133613D01*
X218342Y134153D01*
X219325Y135026D01*
X221178D01*
X221442Y134631D01*
X221900Y134325D01*
X222441Y134217D01*
X222982Y134325D01*
X223440Y134631D01*
X224779Y134686D01*
X224884Y134580D01*
X225018Y133249D01*
X224602Y132626D01*
X224555Y132390D01*
X228201D01*
X228199Y132402D01*
X228625Y133202D01*
X228935Y133583D01*
X233734D01*
X239868Y127448D01*
X240100Y127293D01*
X240373Y127239D01*
X277028D01*
X277301Y127293D01*
X277532Y127448D01*
X282158Y132074D01*
X282313Y132306D01*
X282367Y132579D01*
Y136235D01*
X283548Y136313D01*
X283610Y136313D01*
X284697D01*
X284791Y136313D01*
X288610D01*
Y148297D01*
X285706D01*
X282847Y151156D01*
X282939Y151715D01*
X283274Y152337D01*
X283516D01*
X283610Y152337D01*
X284697D01*
X284791Y152337D01*
X288610D01*
Y164321D01*
X286541D01*
Y166535D01*
X286486Y166808D01*
X286548Y167133D01*
X286717Y167752D01*
X286918Y168124D01*
X287170Y168292D01*
X287476Y168751D01*
X287584Y169291D01*
X287476Y169832D01*
X287170Y170291D01*
X286711Y170597D01*
X286171Y170704D01*
X286067Y170684D01*
X283770Y172981D01*
X283474Y173178D01*
X283125Y173248D01*
X245752D01*
X245213Y174429D01*
X245669Y174965D01*
X246210Y175073D01*
X246668Y175379D01*
X246975Y175837D01*
X246994Y175936D01*
X247068Y176199D01*
X247572Y176674D01*
X248075Y176979D01*
X248387Y177041D01*
X248845Y177347D01*
X249152Y177806D01*
X249259Y178347D01*
X249152Y178887D01*
X248845Y179346D01*
X248387Y179652D01*
X247846Y179759D01*
X247305Y179652D01*
X247180Y179568D01*
X246644Y179891D01*
X246223Y180349D01*
X246242Y180447D01*
X246294Y180708D01*
X246187Y181249D01*
X245881Y181707D01*
X245422Y182014D01*
X244881Y182121D01*
X244341Y182014D01*
X243882Y181707D01*
X243576Y181249D01*
X243468Y180708D01*
X243576Y180168D01*
X243882Y179709D01*
X243884Y179695D01*
X240270Y176082D01*
X239031Y176200D01*
X238484Y176848D01*
X238484Y176848D01*
Y178074D01*
X238484Y178399D01*
X239056Y178956D01*
X239830Y179121D01*
X239920Y179070D01*
X240010Y179010D01*
X240010Y179009D01*
X240030Y179006D01*
X240551Y178902D01*
X241092Y179009D01*
X241550Y179316D01*
X241857Y179774D01*
X241964Y180315D01*
X241857Y180856D01*
X241550Y181314D01*
X241239Y181522D01*
Y187795D01*
X241239Y187795D01*
X241187Y188059D01*
X241038Y188282D01*
X241038Y188282D01*
X239870Y189450D01*
Y192413D01*
X243807D01*
Y192691D01*
X250406D01*
Y192138D01*
X253055D01*
Y191638D01*
X254618D01*
Y193701D01*
X255118D01*
Y194201D01*
X257181D01*
Y195764D01*
X258126Y196333D01*
X259042D01*
X259390Y196402D01*
X259686Y196600D01*
X262644Y199558D01*
X262842Y199854D01*
X263779Y200152D01*
X264320Y200260D01*
X264779Y200566D01*
X264986Y200877D01*
X267452D01*
X267452Y198135D01*
X266952Y197161D01*
X266952Y196853D01*
Y194496D01*
X270511D01*
X274070D01*
Y196853D01*
X274070Y197161D01*
X273570Y198135D01*
X273570Y198343D01*
Y203157D01*
X267452D01*
Y202254D01*
X264986D01*
X264779Y202565D01*
X264320Y202871D01*
X263779Y202978D01*
X263321Y203355D01*
Y215551D01*
X263251Y215900D01*
X263054Y216196D01*
X261088Y218161D01*
X260497Y219079D01*
X260497D01*
X260497Y219079D01*
Y222138D01*
X258513D01*
X256529D01*
Y220028D01*
X253800D01*
X252320Y221508D01*
Y225697D01*
X249352D01*
Y223593D01*
X246974D01*
Y225581D01*
X246905Y225930D01*
X246707Y226225D01*
X246581Y226352D01*
Y227165D01*
X246511Y227514D01*
X246314Y227810D01*
X245538Y228585D01*
X245242Y228783D01*
X244894Y228852D01*
X234000D01*
X233651Y228783D01*
X233356Y228585D01*
X232820Y228050D01*
X232681Y227842D01*
X231996D01*
Y225779D01*
X231496D01*
Y225279D01*
X229433D01*
Y224575D01*
X228252Y224085D01*
X223610Y228728D01*
X223254Y228965D01*
X222835Y229049D01*
D02*
G37*
G36*
X90406Y229815D02*
X89083D01*
Y228492D01*
X89319Y228538D01*
X89942Y228955D01*
X90359Y229579D01*
X90406Y229815D01*
D02*
G37*
G36*
X88083D02*
X86759D01*
X86806Y229579D01*
X87223Y228955D01*
X87847Y228538D01*
X88083Y228492D01*
Y229815D01*
D02*
G37*
G36*
X230996Y227842D02*
X229433D01*
Y226279D01*
X230996D01*
Y227842D01*
D02*
G37*
G36*
X260497Y226197D02*
X259013D01*
Y223138D01*
X260497D01*
Y226197D01*
D02*
G37*
G36*
X258013D02*
X256529D01*
Y223138D01*
X258013D01*
Y226197D01*
D02*
G37*
G36*
X49213Y231242D02*
X47880Y231110D01*
X46598Y230721D01*
X45417Y230090D01*
X44382Y229240D01*
X43532Y228205D01*
X42900Y227024D01*
X42512Y225742D01*
X42380Y224410D01*
X42512Y223077D01*
X42900Y221795D01*
X43532Y220614D01*
X44382Y219578D01*
X45417Y218729D01*
X46598Y218097D01*
X47880Y217709D01*
X49213Y217577D01*
X50546Y217709D01*
X51827Y218097D01*
X53008Y218729D01*
X54044Y219578D01*
X54893Y220614D01*
X55525Y221795D01*
X55913Y223077D01*
X56045Y224410D01*
X55913Y225742D01*
X55525Y227024D01*
X54893Y228205D01*
X54044Y229240D01*
X53008Y230090D01*
X51827Y230721D01*
X50546Y231110D01*
X49213Y231242D01*
D02*
G37*
G36*
X281197Y214661D02*
X279634D01*
Y213098D01*
X281197D01*
Y214661D01*
D02*
G37*
G36*
X278634D02*
X277071D01*
Y213098D01*
X278634D01*
Y214661D01*
D02*
G37*
G36*
X80901Y221282D02*
X79648Y221117D01*
X78481Y220633D01*
X77478Y219864D01*
X76709Y218861D01*
X76225Y217693D01*
X76060Y216440D01*
X76225Y215187D01*
X76709Y214019D01*
X77478Y213017D01*
X78481Y212247D01*
X79648Y211764D01*
X80901Y211599D01*
X82155Y211764D01*
X83322Y212247D01*
X84325Y213017D01*
X85094Y214019D01*
X85578Y215187D01*
X85743Y216440D01*
X85578Y217693D01*
X85094Y218861D01*
X84325Y219864D01*
X83322Y220633D01*
X82155Y221117D01*
X80901Y221282D01*
D02*
G37*
G36*
X100894Y212847D02*
Y211524D01*
X102217D01*
X102170Y211759D01*
X101753Y212383D01*
X101129Y212800D01*
X100894Y212847D01*
D02*
G37*
G36*
X99894D02*
X99658Y212800D01*
X99034Y212383D01*
X98617Y211759D01*
X98570Y211524D01*
X99894D01*
Y212847D01*
D02*
G37*
G36*
X102217Y210524D02*
X100894D01*
Y209200D01*
X101129Y209247D01*
X101753Y209664D01*
X102170Y210288D01*
X102217Y210524D01*
D02*
G37*
G36*
X99894D02*
X98570D01*
X98617Y210288D01*
X99034Y209664D01*
X99658Y209247D01*
X99894Y209200D01*
Y210524D01*
D02*
G37*
G36*
X49608Y213633D02*
X48754Y213520D01*
X47958Y213191D01*
X47274Y212666D01*
X46750Y211983D01*
X46420Y211187D01*
X46308Y210333D01*
X46420Y209479D01*
X46750Y208683D01*
X46852Y208550D01*
X46757Y208456D01*
X46608Y208232D01*
X46556Y207969D01*
X46556Y207969D01*
Y200000D01*
X46556Y200000D01*
X46608Y199737D01*
X46757Y199513D01*
X53527Y192744D01*
X53527Y192744D01*
X53750Y192595D01*
X54014Y192542D01*
X58850D01*
Y191134D01*
X60723D01*
X61697Y190634D01*
X62399Y190634D01*
X62984D01*
Y192520D01*
Y194405D01*
X61697D01*
X60723Y193905D01*
X59592D01*
X59525Y193919D01*
X59525Y193919D01*
X54299D01*
X47932Y200285D01*
Y206207D01*
X48227Y206544D01*
X49113Y207098D01*
X49608Y207033D01*
X50462Y207145D01*
X51258Y207475D01*
X51941Y207999D01*
X52465Y208683D01*
X52795Y209479D01*
X52908Y210333D01*
X52795Y211187D01*
X52465Y211983D01*
X51941Y212666D01*
X51258Y213191D01*
X50462Y213520D01*
X49608Y213633D01*
D02*
G37*
G36*
X68893Y214966D02*
X67522Y214831D01*
X66203Y214431D01*
X64988Y213781D01*
X63923Y212907D01*
X63048Y211842D01*
X62399Y210626D01*
X61999Y209308D01*
X61864Y207936D01*
X61999Y206565D01*
X62399Y205246D01*
X63048Y204031D01*
X63923Y202965D01*
X64988Y202091D01*
X66203Y201441D01*
X67522Y201041D01*
X68893Y200906D01*
X70265Y201041D01*
X71584Y201441D01*
X72799Y202091D01*
X73864Y202965D01*
X74739Y204031D01*
X75388Y205246D01*
X75788Y206565D01*
X75924Y207936D01*
X75788Y209308D01*
X75388Y210626D01*
X74739Y211842D01*
X73864Y212907D01*
X72799Y213781D01*
X71584Y214431D01*
X70265Y214831D01*
X68893Y214966D01*
D02*
G37*
G36*
X326878Y202163D02*
Y200840D01*
X328201D01*
X328154Y201076D01*
X327738Y201700D01*
X327114Y202116D01*
X326878Y202163D01*
D02*
G37*
G36*
X325878D02*
X325642Y202116D01*
X325018Y201700D01*
X324602Y201076D01*
X324555Y200840D01*
X325878D01*
Y202163D01*
D02*
G37*
G36*
X328201Y199840D02*
X326878D01*
Y198517D01*
X327114Y198564D01*
X327738Y198980D01*
X328154Y199604D01*
X328201Y199840D01*
D02*
G37*
G36*
X325878D02*
X324555D01*
X324602Y199604D01*
X325018Y198980D01*
X325642Y198564D01*
X325878Y198517D01*
Y199840D01*
D02*
G37*
G36*
X281197Y212098D02*
X277071D01*
Y210535D01*
X277571D01*
Y207886D01*
X278223D01*
Y203157D01*
X275720D01*
Y197843D01*
X275720Y197827D01*
Y196661D01*
X275720Y196646D01*
Y192072D01*
X275707Y192006D01*
X275707Y192006D01*
Y186750D01*
X266281Y177324D01*
X265914Y177397D01*
X265374Y177290D01*
X264915Y176983D01*
X264609Y176525D01*
X264501Y175984D01*
X264609Y175443D01*
X264915Y174985D01*
X265374Y174679D01*
X265914Y174571D01*
X266455Y174679D01*
X266914Y174985D01*
X267220Y175443D01*
X267327Y175984D01*
X267254Y176351D01*
X276881Y185978D01*
X276881Y185978D01*
X277030Y186201D01*
X277083Y186465D01*
X277083Y186465D01*
Y191331D01*
X281838D01*
Y193082D01*
X287197D01*
Y191921D01*
X289968D01*
Y194073D01*
X289968Y194496D01*
X290835Y195255D01*
X291992D01*
X292002Y195207D01*
X292308Y194749D01*
X292766Y194443D01*
X293307Y194335D01*
X293848Y194443D01*
X294306Y194749D01*
X294613Y195207D01*
X294720Y195748D01*
X294613Y196289D01*
X294306Y196747D01*
X293848Y197054D01*
X293307Y197161D01*
X292766Y197054D01*
X292308Y196747D01*
X292230Y196631D01*
X289968D01*
Y197843D01*
X287197D01*
Y195691D01*
X287197Y195268D01*
X286330Y194510D01*
X281838D01*
Y196646D01*
X281838Y196661D01*
Y197827D01*
X281838Y197843D01*
Y203157D01*
X280045D01*
Y207886D01*
X280697D01*
Y210535D01*
X281197D01*
Y212098D01*
D02*
G37*
G36*
X93894Y196022D02*
X93095Y195916D01*
X92351Y195608D01*
X91712Y195118D01*
X91221Y194479D01*
X90960Y193847D01*
X87783D01*
Y194499D01*
X85134D01*
Y194999D01*
X83571D01*
Y192936D01*
Y190873D01*
X85134D01*
Y191373D01*
X87783D01*
Y192025D01*
X90960D01*
X91221Y191393D01*
X91712Y190754D01*
X92351Y190264D01*
X93095Y189956D01*
X93894Y189851D01*
X94692Y189956D01*
X95436Y190264D01*
X96075Y190754D01*
X96566Y191393D01*
X96874Y192138D01*
X96979Y192936D01*
X96874Y193735D01*
X96566Y194479D01*
X96075Y195118D01*
X95436Y195608D01*
X94692Y195916D01*
X93894Y196022D01*
D02*
G37*
G36*
X342331Y195130D02*
Y193807D01*
X343654D01*
X343607Y194043D01*
X343190Y194667D01*
X342566Y195083D01*
X342331Y195130D01*
D02*
G37*
G36*
X341331D02*
X341095Y195083D01*
X340471Y194667D01*
X340054Y194043D01*
X340007Y193807D01*
X341331D01*
Y195130D01*
D02*
G37*
G36*
X82571Y194999D02*
X81008D01*
Y193436D01*
X82571D01*
Y194999D01*
D02*
G37*
G36*
X257181Y193201D02*
X255618D01*
Y191638D01*
X257181D01*
Y193201D01*
D02*
G37*
G36*
X343654Y192807D02*
X342331D01*
Y191484D01*
X342566Y191531D01*
X343190Y191947D01*
X343607Y192571D01*
X343654Y192807D01*
D02*
G37*
G36*
X341331D02*
X340007D01*
X340054Y192571D01*
X340471Y191947D01*
X341095Y191531D01*
X341331Y191484D01*
Y192807D01*
D02*
G37*
G36*
X82571Y192436D02*
X81008D01*
Y190873D01*
X82571D01*
Y192436D01*
D02*
G37*
G36*
X274070Y193496D02*
X271011D01*
Y190831D01*
X274070D01*
Y193496D01*
D02*
G37*
G36*
X270011D02*
X266952D01*
Y190831D01*
X270011D01*
Y193496D01*
D02*
G37*
G36*
X65272Y192020D02*
X63984D01*
Y190634D01*
X65272D01*
Y192020D01*
D02*
G37*
G36*
X248031Y191177D02*
X247491Y191069D01*
X247032Y190763D01*
X246726Y190305D01*
X246619Y189764D01*
X246726Y189223D01*
X247032Y188765D01*
X247491Y188458D01*
X248031Y188351D01*
X248572Y188458D01*
X249031Y188765D01*
X249337Y189223D01*
X249445Y189764D01*
X249337Y190305D01*
X249031Y190763D01*
X248572Y191069D01*
X248031Y191177D01*
D02*
G37*
G36*
X103894Y191022D02*
X103095Y190917D01*
X102351Y190608D01*
X101712Y190118D01*
X101222Y189479D01*
X100913Y188735D01*
X100808Y187936D01*
X100913Y187138D01*
X101222Y186393D01*
X101712Y185754D01*
X102351Y185264D01*
X103095Y184956D01*
X103894Y184851D01*
X104692Y184956D01*
X105436Y185264D01*
X106075Y185754D01*
X106566Y186393D01*
X106874Y187138D01*
X106979Y187936D01*
X106874Y188735D01*
X106566Y189479D01*
X106075Y190118D01*
X105436Y190608D01*
X104692Y190917D01*
X103894Y191022D01*
D02*
G37*
G36*
X70284Y184501D02*
Y183177D01*
X71607D01*
X71560Y183413D01*
X71143Y184037D01*
X70519Y184454D01*
X70284Y184501D01*
D02*
G37*
G36*
X69283D02*
X69048Y184454D01*
X68424Y184037D01*
X68007Y183413D01*
X67960Y183177D01*
X69283D01*
Y184501D01*
D02*
G37*
G36*
X71607Y182177D02*
X70284D01*
Y180854D01*
X70519Y180901D01*
X71143Y181318D01*
X71560Y181941D01*
X71607Y182177D01*
D02*
G37*
G36*
X69283D02*
X67960D01*
X68007Y181941D01*
X68424Y181318D01*
X69048Y180901D01*
X69283Y180854D01*
Y182177D01*
D02*
G37*
G36*
X93894Y186022D02*
X93095Y185916D01*
X92351Y185608D01*
X91712Y185118D01*
X91221Y184479D01*
X90913Y183735D01*
X90808Y182936D01*
X90913Y182138D01*
X91221Y181394D01*
X91712Y180754D01*
X92351Y180264D01*
X93095Y179956D01*
X93894Y179851D01*
X94692Y179956D01*
X95436Y180264D01*
X96075Y180754D01*
X96566Y181394D01*
X96874Y182138D01*
X96979Y182936D01*
X96874Y183735D01*
X96566Y184479D01*
X96075Y185118D01*
X95436Y185608D01*
X94692Y185916D01*
X93894Y186022D01*
D02*
G37*
G36*
X63984Y180232D02*
Y178847D01*
X65272D01*
Y180232D01*
X63984D01*
D02*
G37*
G36*
X61697Y180232D02*
X60723Y179732D01*
X58850D01*
Y178324D01*
X56709D01*
X56708Y178324D01*
X56445Y178271D01*
X56222Y178122D01*
X56222Y178122D01*
X51392Y173293D01*
X51260Y173395D01*
X50464Y173724D01*
X49610Y173837D01*
X48756Y173724D01*
X47960Y173395D01*
X47276Y172870D01*
X46752Y172187D01*
X46422Y171391D01*
X46310Y170537D01*
X46422Y169683D01*
X46752Y168887D01*
X47276Y168204D01*
X47960Y167679D01*
X48756Y167350D01*
X49610Y167237D01*
X50464Y167350D01*
X51260Y167679D01*
X51943Y168204D01*
X52468Y168887D01*
X52797Y169683D01*
X52910Y170537D01*
X52797Y171391D01*
X52468Y172187D01*
X52366Y172320D01*
X56994Y176947D01*
X59525D01*
X59525Y176947D01*
X59592Y176961D01*
X60723D01*
X61697Y176461D01*
X62399Y176461D01*
X62984D01*
Y178347D01*
Y180232D01*
X61978Y180232D01*
X61697D01*
D02*
G37*
G36*
X65272Y177847D02*
X63984D01*
Y176461D01*
X65272D01*
Y177847D01*
D02*
G37*
G36*
X331209Y173083D02*
Y171760D01*
X332532D01*
X332485Y171996D01*
X332068Y172619D01*
X331445Y173036D01*
X331209Y173083D01*
D02*
G37*
G36*
X330209D02*
X329973Y173036D01*
X329349Y172619D01*
X328932Y171996D01*
X328885Y171760D01*
X330209D01*
Y173083D01*
D02*
G37*
G36*
X332532Y170760D02*
X331209D01*
Y169437D01*
X331445Y169483D01*
X332068Y169900D01*
X332485Y170524D01*
X332532Y170760D01*
D02*
G37*
G36*
X330209D02*
X328885D01*
X328932Y170524D01*
X329349Y169900D01*
X329973Y169483D01*
X330209Y169437D01*
Y170760D01*
D02*
G37*
G36*
X189469Y171113D02*
X188928Y171005D01*
X188469Y170699D01*
X188163Y170241D01*
X188056Y169700D01*
X188163Y169159D01*
X188469Y168701D01*
X188928Y168395D01*
X189469Y168287D01*
X190009Y168395D01*
X190468Y168701D01*
X190774Y169159D01*
X190882Y169700D01*
X190774Y170241D01*
X190468Y170699D01*
X190009Y171005D01*
X189469Y171113D01*
D02*
G37*
G36*
X316445Y169146D02*
Y167823D01*
X317768D01*
X317721Y168059D01*
X317304Y168682D01*
X316681Y169099D01*
X316445Y169146D01*
D02*
G37*
G36*
X315445D02*
X315209Y169099D01*
X314585Y168682D01*
X314169Y168059D01*
X314122Y167823D01*
X315445D01*
Y169146D01*
D02*
G37*
G36*
X317768Y166823D02*
X316445D01*
Y165499D01*
X316681Y165546D01*
X317304Y165963D01*
X317721Y166587D01*
X317768Y166823D01*
D02*
G37*
G36*
X315445D02*
X314122D01*
X314169Y166587D01*
X314585Y165963D01*
X315209Y165546D01*
X315445Y165499D01*
Y166823D01*
D02*
G37*
G36*
X98925Y159166D02*
Y157842D01*
X100249D01*
X100202Y158078D01*
X99785Y158702D01*
X99161Y159119D01*
X98925Y159166D01*
D02*
G37*
G36*
X97925D02*
X97689Y159119D01*
X97066Y158702D01*
X96649Y158078D01*
X96602Y157842D01*
X97925D01*
Y159166D01*
D02*
G37*
G36*
X100249Y156842D02*
X98925D01*
Y155519D01*
X99161Y155566D01*
X99785Y155983D01*
X100202Y156606D01*
X100249Y156842D01*
D02*
G37*
G36*
X97925D02*
X96602D01*
X96649Y156606D01*
X97066Y155983D01*
X97689Y155566D01*
X97925Y155519D01*
Y156842D01*
D02*
G37*
G36*
X46700Y155223D02*
Y153900D01*
X48023D01*
X47976Y154136D01*
X47560Y154760D01*
X46936Y155176D01*
X46700Y155223D01*
D02*
G37*
G36*
X45700D02*
X45464Y155176D01*
X44840Y154760D01*
X44424Y154136D01*
X44377Y153900D01*
X45700D01*
Y155223D01*
D02*
G37*
G36*
X48023Y152900D02*
X46700D01*
Y151577D01*
X46936Y151624D01*
X47560Y152040D01*
X47976Y152664D01*
X48023Y152900D01*
D02*
G37*
G36*
X45700D02*
X44377D01*
X44424Y152664D01*
X44840Y152040D01*
X45464Y151624D01*
X45700Y151577D01*
Y152900D01*
D02*
G37*
G36*
X80901Y159274D02*
X79648Y159109D01*
X78481Y158625D01*
X77478Y157856D01*
X76709Y156853D01*
X76225Y155685D01*
X76060Y154432D01*
X76225Y153179D01*
X76709Y152012D01*
X77478Y151009D01*
X78481Y150240D01*
X79648Y149756D01*
X80901Y149591D01*
X82155Y149756D01*
X83322Y150240D01*
X84325Y151009D01*
X85094Y152012D01*
X85578Y153179D01*
X85743Y154432D01*
X85578Y155685D01*
X85094Y156853D01*
X84325Y157856D01*
X83322Y158625D01*
X82155Y159109D01*
X80901Y159274D01*
D02*
G37*
G36*
X124516Y149461D02*
Y148138D01*
X125839D01*
X125792Y148374D01*
X125375Y148997D01*
X124752Y149414D01*
X124516Y149461D01*
D02*
G37*
G36*
X123516D02*
X123280Y149414D01*
X122656Y148997D01*
X122239Y148374D01*
X122192Y148138D01*
X123516D01*
Y149461D01*
D02*
G37*
G36*
X93182D02*
Y148138D01*
X94505D01*
X94458Y148374D01*
X94041Y148997D01*
X93417Y149414D01*
X93182Y149461D01*
D02*
G37*
G36*
X92182D02*
X91946Y149414D01*
X91322Y148997D01*
X90905Y148374D01*
X90858Y148138D01*
X92182D01*
Y149461D01*
D02*
G37*
G36*
X115354Y149444D02*
X114814Y149337D01*
X114355Y149031D01*
X114049Y148572D01*
X113941Y148031D01*
X114049Y147491D01*
X114355Y147032D01*
X114814Y146726D01*
X115354Y146618D01*
X115895Y146726D01*
X116353Y147032D01*
X116660Y147491D01*
X116767Y148031D01*
X116660Y148572D01*
X116353Y149031D01*
X115895Y149337D01*
X115354Y149444D01*
D02*
G37*
G36*
X94505Y147138D02*
X93182D01*
Y145815D01*
X93417Y145861D01*
X94041Y146278D01*
X94458Y146902D01*
X94505Y147138D01*
D02*
G37*
G36*
X92182D02*
X90858D01*
X90905Y146902D01*
X91322Y146278D01*
X91946Y145861D01*
X92182Y145815D01*
Y147138D01*
D02*
G37*
G36*
X105118Y148263D02*
X104577Y148156D01*
X104119Y147850D01*
X103813Y147391D01*
X103705Y146850D01*
X103813Y146310D01*
X104119Y145851D01*
X104577Y145545D01*
X105118Y145437D01*
X105659Y145545D01*
X106117Y145851D01*
X106423Y146310D01*
X106531Y146850D01*
X106423Y147391D01*
X106117Y147850D01*
X105659Y148156D01*
X105118Y148263D01*
D02*
G37*
G36*
X161980Y145957D02*
X160656D01*
Y144633D01*
X160892Y144680D01*
X161516Y145097D01*
X161933Y145721D01*
X161980Y145957D01*
D02*
G37*
G36*
X159656D02*
X158333D01*
X158380Y145721D01*
X158797Y145097D01*
X159421Y144680D01*
X159656Y144633D01*
Y145957D01*
D02*
G37*
G36*
X101000Y144622D02*
X100459Y144514D01*
X100001Y144208D01*
X99695Y143749D01*
X99587Y143209D01*
X99695Y142668D01*
X100001Y142209D01*
X100459Y141903D01*
X101000Y141796D01*
X101541Y141903D01*
X101999Y142209D01*
X102305Y142668D01*
X102413Y143209D01*
X102305Y143749D01*
X101999Y144208D01*
X101541Y144514D01*
X101000Y144622D01*
D02*
G37*
G36*
X159949Y142768D02*
Y141445D01*
X161272D01*
X161225Y141681D01*
X160808Y142305D01*
X160185Y142721D01*
X159949Y142768D01*
D02*
G37*
G36*
X158949D02*
X158713Y142721D01*
X158089Y142305D01*
X157672Y141681D01*
X157625Y141445D01*
X158949D01*
Y142768D01*
D02*
G37*
G36*
X106405Y142375D02*
Y141051D01*
X107729D01*
X107682Y141287D01*
X107265Y141911D01*
X106641Y142328D01*
X106405Y142375D01*
D02*
G37*
G36*
X105405D02*
X105170Y142328D01*
X104546Y141911D01*
X104129Y141287D01*
X104082Y141051D01*
X105405D01*
Y142375D01*
D02*
G37*
G36*
X49894Y141193D02*
X49658Y141147D01*
X49034Y140730D01*
X48617Y140106D01*
X48570Y139870D01*
X49894D01*
Y141193D01*
D02*
G37*
G36*
X53256D02*
Y139370D01*
X52256D01*
Y141193D01*
X52020Y141147D01*
X51575Y140849D01*
X51130Y141147D01*
X50894Y141193D01*
Y139370D01*
X50394D01*
Y138870D01*
X48570D01*
X48617Y138634D01*
X49034Y138011D01*
X49098Y137968D01*
Y134358D01*
X54232D01*
X59366D01*
Y138894D01*
X55070D01*
X54679Y139370D01*
X54532Y140106D01*
X54115Y140730D01*
X53492Y141147D01*
X53256Y141193D01*
D02*
G37*
G36*
X107729Y140051D02*
X106405D01*
Y138728D01*
X106641Y138775D01*
X107265Y139192D01*
X107682Y139815D01*
X107729Y140051D01*
D02*
G37*
G36*
X105405D02*
X104082D01*
X104129Y139815D01*
X104546Y139192D01*
X105170Y138775D01*
X105405Y138728D01*
Y140051D01*
D02*
G37*
G36*
X161272Y140445D02*
X157625D01*
X157672Y140209D01*
X158089Y139585D01*
Y139155D01*
X157672Y138531D01*
X157625Y138295D01*
X161272D01*
X161225Y138531D01*
X160808Y139155D01*
Y139585D01*
X161225Y140209D01*
X161272Y140445D01*
D02*
G37*
G36*
X114673Y137256D02*
Y135933D01*
X115997D01*
X115950Y136169D01*
X115533Y136793D01*
X114909Y137209D01*
X114673Y137256D01*
D02*
G37*
G36*
X161272Y137295D02*
X157625D01*
X157672Y137059D01*
X158004Y136221D01*
X157672Y135381D01*
X157625Y135146D01*
X161272D01*
X161225Y135381D01*
X160893Y136221D01*
X161225Y137059D01*
X161272Y137295D01*
D02*
G37*
G36*
X123023Y136114D02*
X121700D01*
Y134791D01*
X121936Y134838D01*
X122559Y135255D01*
X122976Y135878D01*
X123023Y136114D01*
D02*
G37*
G36*
X115997Y134933D02*
X114673D01*
Y133610D01*
X114909Y133657D01*
X115533Y134073D01*
X115950Y134697D01*
X115997Y134933D01*
D02*
G37*
G36*
X113673Y137256D02*
X113437Y137209D01*
X112814Y136793D01*
X112523Y136358D01*
X111458Y136143D01*
X111278Y136138D01*
X111186Y136138D01*
X109161D01*
Y132390D01*
X111433D01*
Y134014D01*
X112614Y134372D01*
X112814Y134073D01*
X113437Y133657D01*
X113673Y133610D01*
Y135433D01*
Y137256D01*
D02*
G37*
G36*
X161272Y134146D02*
X159949D01*
Y132822D01*
X160185Y132869D01*
X160808Y133286D01*
X161225Y133910D01*
X161272Y134146D01*
D02*
G37*
G36*
X158949D02*
X157625D01*
X157672Y133910D01*
X158089Y133286D01*
X158713Y132869D01*
X158949Y132822D01*
Y134146D01*
D02*
G37*
G36*
X108161Y136138D02*
X105890D01*
Y132390D01*
X108161D01*
Y136138D01*
D02*
G37*
G36*
Y131390D02*
X105890D01*
Y127642D01*
X108161D01*
Y131390D01*
D02*
G37*
G36*
X140264Y127808D02*
Y126484D01*
X141587D01*
X141540Y126720D01*
X141123Y127344D01*
X140500Y127761D01*
X140264Y127808D01*
D02*
G37*
G36*
X139264D02*
X139028Y127761D01*
X138404Y127344D01*
X137987Y126720D01*
X137941Y126484D01*
X139264D01*
Y127808D01*
D02*
G37*
G36*
X59366Y133358D02*
X54232D01*
X49098D01*
Y128823D01*
X49802D01*
X50833Y127953D01*
X50980Y127217D01*
X51396Y126593D01*
X52020Y126176D01*
X52256Y126129D01*
Y127953D01*
X53256D01*
Y126129D01*
X53492Y126176D01*
X54115Y126593D01*
X54532Y127217D01*
X54679Y127953D01*
X55710Y128823D01*
X59366D01*
Y133358D01*
D02*
G37*
G36*
X141587Y125484D02*
X140264D01*
Y124161D01*
X140500Y124208D01*
X141123Y124625D01*
X141540Y125248D01*
X141587Y125484D01*
D02*
G37*
G36*
X139264D02*
X137941D01*
X137987Y125248D01*
X138404Y124625D01*
X139028Y124208D01*
X139264Y124161D01*
Y125484D01*
D02*
G37*
G36*
X220502Y124559D02*
Y123236D01*
X221825D01*
X221778Y123472D01*
X221362Y124096D01*
X220738Y124513D01*
X220502Y124559D01*
D02*
G37*
G36*
X219502D02*
X219266Y124513D01*
X218642Y124096D01*
X218226Y123472D01*
X218179Y123236D01*
X219502D01*
Y124559D01*
D02*
G37*
G36*
X226594Y122940D02*
Y121617D01*
X227917D01*
X227870Y121853D01*
X227453Y122477D01*
X226830Y122894D01*
X226594Y122940D01*
D02*
G37*
G36*
X225594D02*
X225358Y122894D01*
X224734Y122477D01*
X224317Y121853D01*
X224270Y121617D01*
X225594D01*
Y122940D01*
D02*
G37*
G36*
X221825Y122236D02*
X220502D01*
Y120913D01*
X220738Y120960D01*
X221362Y121377D01*
X221778Y122000D01*
X221825Y122236D01*
D02*
G37*
G36*
X219502D02*
X218179D01*
X218226Y122000D01*
X218642Y121377D01*
X219266Y120960D01*
X219502Y120913D01*
Y122236D01*
D02*
G37*
G36*
X250394Y121747D02*
X249853Y121640D01*
X249395Y121334D01*
X249088Y120875D01*
X248981Y120334D01*
X249088Y119794D01*
X249395Y119335D01*
X249853Y119029D01*
X250394Y118921D01*
X250934Y119029D01*
X251393Y119335D01*
X251699Y119794D01*
X251807Y120334D01*
X251699Y120875D01*
X251393Y121334D01*
X250934Y121640D01*
X250394Y121747D01*
D02*
G37*
G36*
X280933Y119147D02*
Y117823D01*
X282256D01*
X282209Y118059D01*
X281793Y118683D01*
X281169Y119100D01*
X280933Y119147D01*
D02*
G37*
G36*
X279933D02*
X279697Y119100D01*
X279074Y118683D01*
X278657Y118059D01*
X278610Y117823D01*
X279933D01*
Y119147D01*
D02*
G37*
G36*
X282256Y116823D02*
X280933D01*
Y115500D01*
X281169Y115547D01*
X281793Y115964D01*
X282209Y116587D01*
X282256Y116823D01*
D02*
G37*
G36*
X279933D02*
X278610D01*
X278657Y116587D01*
X279074Y115964D01*
X279697Y115547D01*
X279933Y115500D01*
Y116823D01*
D02*
G37*
G36*
X46700Y114023D02*
Y112700D01*
X48023D01*
X47976Y112936D01*
X47560Y113560D01*
X46936Y113976D01*
X46700Y114023D01*
D02*
G37*
G36*
X45700D02*
X45464Y113976D01*
X44840Y113560D01*
X44424Y112936D01*
X44377Y112700D01*
X45700D01*
Y114023D01*
D02*
G37*
G36*
X256405Y111764D02*
Y110441D01*
X257729D01*
X257682Y110677D01*
X257265Y111301D01*
X256641Y111717D01*
X256405Y111764D01*
D02*
G37*
G36*
X255405D02*
X255170Y111717D01*
X254546Y111301D01*
X254129Y110677D01*
X254082Y110441D01*
X255405D01*
Y111764D01*
D02*
G37*
G36*
X48023Y111700D02*
X46700D01*
Y110377D01*
X46936Y110424D01*
X47560Y110840D01*
X47976Y111464D01*
X48023Y111700D01*
D02*
G37*
G36*
X45700D02*
X44377D01*
X44424Y111464D01*
X44840Y110840D01*
X45464Y110424D01*
X45700Y110377D01*
Y111700D01*
D02*
G37*
G36*
X138091Y113027D02*
X137550Y112920D01*
X137091Y112613D01*
X136901Y112328D01*
X130709D01*
X130436Y112274D01*
X130204Y112119D01*
X125492Y107407D01*
X119595D01*
X119405Y107692D01*
X118946Y107998D01*
X118405Y108106D01*
X117865Y107998D01*
X117406Y107692D01*
X117100Y107234D01*
X116992Y106693D01*
X117100Y106152D01*
X117406Y105694D01*
X117865Y105387D01*
X118405Y105280D01*
X118946Y105387D01*
X119405Y105694D01*
X119595Y105979D01*
X125787D01*
X126060Y106034D01*
X126292Y106188D01*
X131004Y110900D01*
X136901D01*
X137091Y110615D01*
X137550Y110309D01*
X138091Y110201D01*
X138631Y110309D01*
X139090Y110615D01*
X139396Y111074D01*
X139504Y111614D01*
X139396Y112155D01*
X139090Y112613D01*
X138631Y112920D01*
X138091Y113027D01*
D02*
G37*
G36*
X104579Y111508D02*
X103256D01*
Y110185D01*
X103492Y110231D01*
X104115Y110648D01*
X104532Y111272D01*
X104579Y111508D01*
D02*
G37*
G36*
X102280Y114386D02*
X100599D01*
Y112205D01*
Y110024D01*
X102256D01*
Y112008D01*
X102756D01*
Y112508D01*
X104579D01*
X104532Y112744D01*
X104115Y113367D01*
X103492Y113784D01*
X102756Y113931D01*
X102280Y114321D01*
Y114386D01*
D02*
G37*
G36*
X337114Y111075D02*
Y109752D01*
X338438D01*
X338391Y109988D01*
X337974Y110612D01*
X337350Y111028D01*
X337114Y111075D01*
D02*
G37*
G36*
X336114D02*
X335878Y111028D01*
X335255Y110612D01*
X334838Y109988D01*
X334791Y109752D01*
X336114D01*
Y111075D01*
D02*
G37*
G36*
X257729Y109441D02*
X256405D01*
Y108118D01*
X256641Y108165D01*
X257265Y108581D01*
X257682Y109205D01*
X257729Y109441D01*
D02*
G37*
G36*
X255405D02*
X254082D01*
X254129Y109205D01*
X254546Y108581D01*
X255170Y108165D01*
X255405Y108118D01*
Y109441D01*
D02*
G37*
G36*
X338438Y108752D02*
X337114D01*
Y107429D01*
X337350Y107476D01*
X337974Y107892D01*
X338391Y108516D01*
X338438Y108752D01*
D02*
G37*
G36*
X336114D02*
X334791D01*
X334838Y108516D01*
X335255Y107892D01*
X335878Y107476D01*
X336114Y107429D01*
Y108752D01*
D02*
G37*
G36*
X311277Y106154D02*
Y104831D01*
X312600D01*
X312553Y105067D01*
X312137Y105690D01*
X311513Y106107D01*
X311277Y106154D01*
D02*
G37*
G36*
X310277D02*
X310041Y106107D01*
X309417Y105690D01*
X309000Y105067D01*
X308954Y104831D01*
X310277D01*
Y106154D01*
D02*
G37*
G36*
X202757Y105744D02*
X202216Y105636D01*
X201758Y105330D01*
X201478Y104911D01*
X200788Y104785D01*
X200098Y104911D01*
X199819Y105330D01*
X199361Y105636D01*
X198820Y105744D01*
X198279Y105636D01*
X197821Y105330D01*
X197514Y104871D01*
X197407Y104331D01*
X197514Y103790D01*
X197821Y103332D01*
X198279Y103025D01*
X198820Y102918D01*
X199361Y103025D01*
X199819Y103332D01*
X200098Y103750D01*
X200788Y103876D01*
X201478Y103750D01*
X201758Y103332D01*
X202216Y103025D01*
X202757Y102918D01*
X203298Y103025D01*
X203756Y103332D01*
X204062Y103790D01*
X204170Y104331D01*
X204062Y104871D01*
X203756Y105330D01*
X203298Y105636D01*
X202757Y105744D01*
D02*
G37*
G36*
X270183Y104185D02*
Y102862D01*
X271507D01*
X271460Y103098D01*
X271043Y103722D01*
X270419Y104139D01*
X270183Y104185D01*
D02*
G37*
G36*
X269183D02*
X268948Y104139D01*
X268324Y103722D01*
X267907Y103098D01*
X267860Y102862D01*
X269183D01*
Y104185D01*
D02*
G37*
G36*
X312600Y103831D02*
X311277D01*
Y102507D01*
X311513Y102554D01*
X312137Y102971D01*
X312553Y103595D01*
X312600Y103831D01*
D02*
G37*
G36*
X310277D02*
X308954D01*
X309000Y103595D01*
X309417Y102971D01*
X310041Y102554D01*
X310277Y102507D01*
Y103831D01*
D02*
G37*
G36*
X174705Y103874D02*
X174164Y103766D01*
X173706Y103460D01*
X173399Y103001D01*
X173292Y102461D01*
X173399Y101920D01*
X173706Y101462D01*
X174164Y101155D01*
X174705Y101048D01*
X175245Y101155D01*
X175704Y101462D01*
X176010Y101920D01*
X176118Y102461D01*
X176010Y103001D01*
X175704Y103460D01*
X175245Y103766D01*
X174705Y103874D01*
D02*
G37*
G36*
X113976Y103382D02*
X113436Y103274D01*
X112977Y102968D01*
X112671Y102509D01*
X112563Y101969D01*
X112671Y101428D01*
X112977Y100969D01*
X113436Y100663D01*
X113976Y100556D01*
X114517Y100663D01*
X114976Y100969D01*
X115282Y101428D01*
X115389Y101969D01*
X115282Y102509D01*
X114976Y102968D01*
X114517Y103274D01*
X113976Y103382D01*
D02*
G37*
G36*
X271507Y101862D02*
X270183D01*
Y100539D01*
X270419Y100586D01*
X271043Y101003D01*
X271460Y101626D01*
X271507Y101862D01*
D02*
G37*
G36*
X269183D02*
X267860D01*
X267907Y101626D01*
X268324Y101003D01*
X268948Y100586D01*
X269183Y100539D01*
Y101862D01*
D02*
G37*
G36*
X164507Y102063D02*
X163967Y101956D01*
X163508Y101649D01*
X163202Y101191D01*
X163094Y100650D01*
X163202Y100110D01*
X163508Y99651D01*
X163967Y99345D01*
X164507Y99237D01*
X165048Y99345D01*
X165506Y99651D01*
X165813Y100110D01*
X165920Y100650D01*
X165813Y101191D01*
X165506Y101649D01*
X165048Y101956D01*
X164507Y102063D01*
D02*
G37*
G36*
X109358Y100347D02*
Y99024D01*
X110682D01*
X110635Y99259D01*
X110218Y99883D01*
X109594Y100300D01*
X109358Y100347D01*
D02*
G37*
G36*
X108358D02*
X108123Y100300D01*
X107499Y99883D01*
X107082Y99259D01*
X107035Y99024D01*
X108358D01*
Y100347D01*
D02*
G37*
G36*
X155367Y99106D02*
X154043D01*
Y97783D01*
X154279Y97830D01*
X154903Y98247D01*
X155320Y98870D01*
X155367Y99106D01*
D02*
G37*
G36*
X199320Y98281D02*
Y96957D01*
X200643D01*
X200596Y97193D01*
X200179Y97817D01*
X199555Y98234D01*
X199320Y98281D01*
D02*
G37*
G36*
X90067Y98280D02*
Y96957D01*
X91390D01*
X91343Y97193D01*
X90926Y97816D01*
X90303Y98233D01*
X90067Y98280D01*
D02*
G37*
G36*
X89067D02*
X88831Y98233D01*
X88207Y97816D01*
X87790Y97193D01*
X87744Y96957D01*
X89067D01*
Y98280D01*
D02*
G37*
G36*
X123728Y96607D02*
Y95284D01*
X125052D01*
X125005Y95519D01*
X124588Y96143D01*
X123964Y96560D01*
X123728Y96607D01*
D02*
G37*
G36*
X238210Y96311D02*
Y94988D01*
X239533D01*
X239486Y95224D01*
X239070Y95848D01*
X238446Y96265D01*
X238210Y96311D01*
D02*
G37*
G36*
X237210D02*
X236974Y96265D01*
X236350Y95848D01*
X235933Y95224D01*
X235887Y94988D01*
X237210D01*
Y96311D01*
D02*
G37*
G36*
X258874Y94343D02*
Y93019D01*
X260197D01*
X260150Y93255D01*
X259734Y93879D01*
X259110Y94296D01*
X258874Y94343D01*
D02*
G37*
G36*
X257874D02*
X257638Y94296D01*
X257014Y93879D01*
X256598Y93255D01*
X256551Y93019D01*
X257874D01*
Y94343D01*
D02*
G37*
G36*
X172621Y94131D02*
Y92808D01*
X173945D01*
X173898Y93044D01*
X173481Y93668D01*
X172857Y94084D01*
X172621Y94131D01*
D02*
G37*
G36*
X239533Y93988D02*
X238210D01*
Y92665D01*
X238446Y92712D01*
X239070Y93129D01*
X239486Y93752D01*
X239533Y93988D01*
D02*
G37*
G36*
X237210D02*
X235887D01*
X235933Y93752D01*
X236350Y93129D01*
X236974Y92712D01*
X237210Y92665D01*
Y93988D01*
D02*
G37*
G36*
X260197Y92019D02*
X258874D01*
Y90696D01*
X259110Y90743D01*
X259734Y91160D01*
X260150Y91784D01*
X260197Y92019D01*
D02*
G37*
G36*
X257874D02*
X256551D01*
X256598Y91784D01*
X257014Y91160D01*
X257638Y90743D01*
X257874Y90696D01*
Y92019D01*
D02*
G37*
G36*
X173945Y91808D02*
X172621D01*
Y90485D01*
X172857Y90532D01*
X173481Y90948D01*
X173898Y91572D01*
X173945Y91808D01*
D02*
G37*
G36*
X148100Y88023D02*
Y86700D01*
X149423D01*
X149376Y86936D01*
X148960Y87560D01*
X148336Y87976D01*
X148100Y88023D01*
D02*
G37*
G36*
X147100D02*
X146864Y87976D01*
X146240Y87560D01*
X145824Y86936D01*
X145777Y86700D01*
X147100D01*
Y88023D01*
D02*
G37*
G36*
X149423Y85700D02*
X148100D01*
Y84377D01*
X148336Y84424D01*
X148960Y84840D01*
X149376Y85464D01*
X149423Y85700D01*
D02*
G37*
G36*
X147100D02*
X145777D01*
X145824Y85464D01*
X146240Y84840D01*
X146864Y84424D01*
X147100Y84377D01*
Y85700D01*
D02*
G37*
G36*
X46900Y84652D02*
Y83329D01*
X48223D01*
X48176Y83565D01*
X47760Y84188D01*
X47136Y84605D01*
X46900Y84652D01*
D02*
G37*
G36*
X45900D02*
X45664Y84605D01*
X45040Y84188D01*
X44624Y83565D01*
X44577Y83329D01*
X45900D01*
Y84652D01*
D02*
G37*
G36*
X154043Y83319D02*
Y81996D01*
X155367D01*
X155320Y82232D01*
X154903Y82856D01*
X154279Y83272D01*
X154043Y83319D01*
D02*
G37*
G36*
X153043D02*
X152807Y83272D01*
X152184Y82856D01*
X151767Y82232D01*
X151720Y81996D01*
X153043D01*
Y83319D01*
D02*
G37*
G36*
X328256Y82815D02*
Y81492D01*
X329579D01*
X329532Y81728D01*
X329116Y82352D01*
X328492Y82769D01*
X328256Y82815D01*
D02*
G37*
G36*
X327256D02*
X327020Y82769D01*
X326396Y82352D01*
X325979Y81728D01*
X325933Y81492D01*
X327256D01*
Y82815D01*
D02*
G37*
G36*
X48223Y82329D02*
X46900D01*
Y81005D01*
X47136Y81052D01*
X47760Y81469D01*
X48176Y82093D01*
X48223Y82329D01*
D02*
G37*
G36*
X45900D02*
X44577D01*
X44624Y82093D01*
X45040Y81469D01*
X45664Y81052D01*
X45900Y81005D01*
Y82329D01*
D02*
G37*
G36*
X155367Y80996D02*
X154043D01*
Y79673D01*
X154279Y79720D01*
X154903Y80137D01*
X155320Y80760D01*
X155367Y80996D01*
D02*
G37*
G36*
X153043D02*
X151720D01*
X151767Y80760D01*
X152184Y80137D01*
X152807Y79720D01*
X153043Y79673D01*
Y80996D01*
D02*
G37*
G36*
X238704Y80686D02*
Y79363D01*
X240027D01*
X239980Y79599D01*
X239563Y80222D01*
X238940Y80639D01*
X238704Y80686D01*
D02*
G37*
G36*
X237704D02*
X237468Y80639D01*
X236844Y80222D01*
X236427Y79599D01*
X236381Y79363D01*
X237704D01*
Y80686D01*
D02*
G37*
G36*
X329579Y80492D02*
X328256D01*
Y79169D01*
X328492Y79216D01*
X329116Y79633D01*
X329532Y80256D01*
X329579Y80492D01*
D02*
G37*
G36*
X327256D02*
X325933D01*
X325979Y80256D01*
X326396Y79633D01*
X327020Y79216D01*
X327256Y79169D01*
Y80492D01*
D02*
G37*
G36*
X240027Y78363D02*
X238704D01*
Y77039D01*
X238940Y77086D01*
X239563Y77503D01*
X239980Y78127D01*
X240027Y78363D01*
D02*
G37*
G36*
X237704D02*
X236381D01*
X236427Y78127D01*
X236844Y77503D01*
X237468Y77086D01*
X237704Y77039D01*
Y78363D01*
D02*
G37*
G36*
X245976Y74471D02*
Y73148D01*
X247300D01*
X247253Y73383D01*
X246836Y74007D01*
X246212Y74424D01*
X245976Y74471D01*
D02*
G37*
G36*
X244976D02*
X244741Y74424D01*
X244117Y74007D01*
X243700Y73383D01*
X243653Y73148D01*
X244976D01*
Y74471D01*
D02*
G37*
G36*
X268686Y74984D02*
X268145Y74876D01*
X267686Y74570D01*
X267380Y74111D01*
X267273Y73571D01*
X267334Y73264D01*
X264116Y70047D01*
X263779Y70114D01*
X263239Y70006D01*
X262780Y69700D01*
X262474Y69241D01*
X262367Y68701D01*
X262474Y68160D01*
X262780Y67702D01*
X263239Y67395D01*
X263434Y67357D01*
X263866Y67134D01*
X264335Y66296D01*
X264335Y66296D01*
X264354Y66198D01*
X264443Y65755D01*
X264749Y65297D01*
X265207Y64991D01*
X265748Y64883D01*
X266289Y64991D01*
X266747Y65297D01*
X267053Y65755D01*
X267161Y66296D01*
X267094Y66632D01*
X271771Y71309D01*
X272060Y71116D01*
X272601Y71008D01*
X273141Y71116D01*
X273600Y71422D01*
X273906Y71881D01*
X274014Y72421D01*
X273906Y72962D01*
X273600Y73421D01*
X273141Y73727D01*
X272601Y73834D01*
X272060Y73727D01*
X271602Y73421D01*
X271600Y73419D01*
X271256Y73345D01*
X271082Y73379D01*
X269991Y74111D01*
X269685Y74570D01*
X269226Y74876D01*
X268686Y74984D01*
D02*
G37*
G36*
X257535Y72252D02*
Y70929D01*
X258858D01*
X258811Y71165D01*
X258394Y71789D01*
X257770Y72206D01*
X257535Y72252D01*
D02*
G37*
G36*
X256535D02*
X256299Y72206D01*
X255675Y71789D01*
X255258Y71165D01*
X255211Y70929D01*
X256535D01*
Y72252D01*
D02*
G37*
G36*
X247300Y72148D02*
X245976D01*
Y70824D01*
X246212Y70871D01*
X246836Y71288D01*
X247253Y71912D01*
X247300Y72148D01*
D02*
G37*
G36*
X244976D02*
X243653D01*
X243700Y71912D01*
X244117Y71288D01*
X244741Y70871D01*
X244976Y70824D01*
Y72148D01*
D02*
G37*
G36*
X223481Y71685D02*
Y70362D01*
X224804D01*
X224758Y70597D01*
X224341Y71221D01*
X223717Y71638D01*
X223481Y71685D01*
D02*
G37*
G36*
X222481D02*
X222245Y71638D01*
X221622Y71221D01*
X221205Y70597D01*
X221158Y70362D01*
X222481D01*
Y71685D01*
D02*
G37*
G36*
X234860Y70379D02*
Y69055D01*
X236183D01*
X236137Y69291D01*
X235720Y69915D01*
X235096Y70332D01*
X234860Y70379D01*
D02*
G37*
G36*
X258858Y69929D02*
X257535D01*
Y68606D01*
X257770Y68653D01*
X258394Y69069D01*
X258811Y69693D01*
X258858Y69929D01*
D02*
G37*
G36*
X256535D02*
X255211D01*
X255258Y69693D01*
X255675Y69069D01*
X256299Y68653D01*
X256535Y68606D01*
Y69929D01*
D02*
G37*
G36*
X224804Y69362D02*
X223481D01*
Y68038D01*
X223717Y68085D01*
X224341Y68502D01*
X224758Y69126D01*
X224804Y69362D01*
D02*
G37*
G36*
X222481D02*
X221158D01*
X221205Y69126D01*
X221622Y68502D01*
X222245Y68085D01*
X222481Y68038D01*
Y69362D01*
D02*
G37*
G36*
X236183Y68055D02*
X234860D01*
Y66732D01*
X235096Y66779D01*
X235720Y67196D01*
X236137Y67820D01*
X236183Y68055D01*
D02*
G37*
G36*
X219791Y64815D02*
Y63492D01*
X221115D01*
X221068Y63728D01*
X220651Y64352D01*
X220027Y64768D01*
X219791Y64815D01*
D02*
G37*
G36*
X66784Y63476D02*
X65461D01*
Y62153D01*
X65696Y62200D01*
X66320Y62617D01*
X66737Y63241D01*
X66784Y63476D01*
D02*
G37*
G36*
X64461D02*
X63137D01*
X63184Y63241D01*
X63601Y62617D01*
X64225Y62200D01*
X64461Y62153D01*
Y63476D01*
D02*
G37*
G36*
X274100Y61623D02*
Y60300D01*
X275423D01*
X275376Y60536D01*
X274959Y61160D01*
X274336Y61576D01*
X274100Y61623D01*
D02*
G37*
G36*
X273100D02*
X272864Y61576D01*
X272240Y61160D01*
X271823Y60536D01*
X271777Y60300D01*
X273100D01*
Y61623D01*
D02*
G37*
G36*
X275423Y59300D02*
X274100D01*
Y57977D01*
X274336Y58024D01*
X274959Y58440D01*
X275376Y59064D01*
X275423Y59300D01*
D02*
G37*
G36*
X273100D02*
X271777D01*
X271823Y59064D01*
X272240Y58440D01*
X272864Y58024D01*
X273100Y57977D01*
Y59300D01*
D02*
G37*
G36*
X66000Y54740D02*
X64516D01*
Y52665D01*
X66000D01*
Y54740D01*
D02*
G37*
G36*
X46100Y50475D02*
Y49152D01*
X47423D01*
X47376Y49387D01*
X46960Y50011D01*
X46336Y50428D01*
X46100Y50475D01*
D02*
G37*
G36*
X45100D02*
X44864Y50428D01*
X44240Y50011D01*
X43824Y49387D01*
X43777Y49152D01*
X45100D01*
Y50475D01*
D02*
G37*
G36*
X286327Y50248D02*
Y48925D01*
X287650D01*
X287603Y49161D01*
X287186Y49785D01*
X286563Y50202D01*
X286327Y50248D01*
D02*
G37*
G36*
X285327D02*
X285091Y50202D01*
X284467Y49785D01*
X284050Y49161D01*
X284003Y48925D01*
X285327D01*
Y50248D01*
D02*
G37*
G36*
X237205Y51610D02*
X236664Y51502D01*
X236206Y51196D01*
X235899Y50738D01*
X235792Y50197D01*
X235899Y49656D01*
X236206Y49198D01*
X236664Y48891D01*
X237205Y48784D01*
X237745Y48891D01*
X238204Y49198D01*
X238510Y49656D01*
X238618Y50197D01*
X238510Y50738D01*
X238204Y51196D01*
X237745Y51502D01*
X237205Y51610D01*
D02*
G37*
G36*
X47423Y48152D02*
X46100D01*
Y46828D01*
X46336Y46875D01*
X46960Y47292D01*
X47376Y47916D01*
X47423Y48152D01*
D02*
G37*
G36*
X45100D02*
X43777D01*
X43824Y47916D01*
X44240Y47292D01*
X44864Y46875D01*
X45100Y46828D01*
Y48152D01*
D02*
G37*
G36*
X287650Y47925D02*
X283554D01*
X283122Y47839D01*
X282499Y47423D01*
X282082Y46799D01*
X282035Y46563D01*
X286131D01*
X286563Y46649D01*
X287186Y47066D01*
X287603Y47689D01*
X287650Y47925D01*
D02*
G37*
G36*
X66000Y46744D02*
X64516D01*
Y44669D01*
X66000D01*
Y46744D01*
D02*
G37*
G36*
X63516Y54740D02*
X62031D01*
Y54072D01*
X61811Y53891D01*
X61075Y53745D01*
X60451Y53328D01*
X60035Y52704D01*
X59988Y52469D01*
X61811D01*
Y51468D01*
X59988D01*
X60035Y51233D01*
X60451Y50609D01*
X61037Y50217D01*
X61075Y49981D01*
Y49232D01*
X61037Y48995D01*
X60451Y48604D01*
X60035Y47980D01*
X59988Y47744D01*
X61811D01*
Y46744D01*
X59988D01*
X60035Y46508D01*
X60451Y45884D01*
X61075Y45468D01*
X61811Y45321D01*
X62031Y45140D01*
Y44669D01*
X63516D01*
Y47244D01*
X64016D01*
Y47744D01*
X66000D01*
Y49591D01*
Y51665D01*
X64016D01*
Y52165D01*
X63516D01*
Y54740D01*
D02*
G37*
G36*
X285682Y45563D02*
X284358D01*
Y44240D01*
X284594Y44287D01*
X285218Y44703D01*
X285635Y45327D01*
X285682Y45563D01*
D02*
G37*
G36*
X283358D02*
X282035D01*
X282082Y45327D01*
X282499Y44703D01*
X283122Y44287D01*
X283358Y44240D01*
Y45563D01*
D02*
G37*
G36*
X227067Y45901D02*
X226526Y45794D01*
X226068Y45487D01*
X225762Y45029D01*
X225654Y44488D01*
X225762Y43947D01*
X226068Y43489D01*
X226526Y43183D01*
X227067Y43075D01*
X227608Y43183D01*
X228066Y43489D01*
X228372Y43947D01*
X228480Y44488D01*
X228372Y45029D01*
X228066Y45487D01*
X227608Y45794D01*
X227067Y45901D01*
D02*
G37*
G36*
X263295Y42250D02*
Y40927D01*
X264619D01*
X264572Y41163D01*
X264155Y41787D01*
X263531Y42203D01*
X263295Y42250D01*
D02*
G37*
G36*
X262295D02*
X262059Y42203D01*
X261436Y41787D01*
X261019Y41163D01*
X260972Y40927D01*
X262295D01*
Y42250D01*
D02*
G37*
G36*
X231398Y43145D02*
X230857Y43038D01*
X230399Y42731D01*
X230092Y42273D01*
X229985Y41732D01*
X230092Y41192D01*
X230399Y40733D01*
X230857Y40427D01*
X231398Y40319D01*
X231938Y40427D01*
X232397Y40733D01*
X232703Y41192D01*
X232811Y41732D01*
X232703Y42273D01*
X232397Y42731D01*
X231938Y43038D01*
X231398Y43145D01*
D02*
G37*
G36*
X103398Y41626D02*
X102075D01*
Y40303D01*
X102311Y40350D01*
X102934Y40766D01*
X103351Y41390D01*
X103398Y41626D01*
D02*
G37*
G36*
X120972Y41587D02*
Y40264D01*
X122296D01*
X122249Y40500D01*
X121832Y41123D01*
X121208Y41540D01*
X120972Y41587D01*
D02*
G37*
G36*
X119972D02*
X119737Y41540D01*
X119113Y41123D01*
X118696Y40500D01*
X118649Y40264D01*
X119972D01*
Y41587D01*
D02*
G37*
G36*
X264619Y39927D02*
X263295D01*
Y38604D01*
X263531Y38651D01*
X264155Y39067D01*
X264572Y39691D01*
X264619Y39927D01*
D02*
G37*
G36*
X262295D02*
X260972D01*
X261019Y39691D01*
X261436Y39067D01*
X262059Y38651D01*
X262295Y38604D01*
Y39927D01*
D02*
G37*
G36*
X141172Y39264D02*
X139849D01*
X139896Y39028D01*
X140313Y38404D01*
X140936Y37987D01*
X141172Y37940D01*
Y39264D01*
D02*
G37*
G36*
X122296D02*
X120972D01*
Y37940D01*
X121208Y37987D01*
X121832Y38404D01*
X122249Y39028D01*
X122296Y39264D01*
D02*
G37*
G36*
X119972D02*
X118649D01*
X118696Y39028D01*
X119113Y38404D01*
X119737Y37987D01*
X119972Y37940D01*
Y39264D01*
D02*
G37*
G36*
X319201Y39225D02*
Y37902D01*
X320524D01*
X320477Y38137D01*
X320060Y38761D01*
X319437Y39178D01*
X319201Y39225D01*
D02*
G37*
G36*
X318201D02*
X317965Y39178D01*
X317341Y38761D01*
X316924Y38137D01*
X316878Y37902D01*
X318201D01*
Y39225D01*
D02*
G37*
G36*
X50110Y37256D02*
Y35933D01*
X51433D01*
X51386Y36169D01*
X50969Y36793D01*
X50345Y37209D01*
X50110Y37256D01*
D02*
G37*
G36*
X49110D02*
X48874Y37209D01*
X48250Y36793D01*
X47833Y36169D01*
X47786Y35933D01*
X49110D01*
Y37256D01*
D02*
G37*
G36*
X320524Y36902D02*
X319201D01*
Y35578D01*
X319437Y35625D01*
X320060Y36042D01*
X320477Y36666D01*
X320524Y36902D01*
D02*
G37*
G36*
X318201D02*
X316878D01*
X316924Y36666D01*
X317341Y36042D01*
X317965Y35625D01*
X318201Y35578D01*
Y36902D01*
D02*
G37*
G36*
X128442Y35878D02*
Y34555D01*
X129765D01*
X129718Y34791D01*
X129301Y35415D01*
X128677Y35831D01*
X128442Y35878D01*
D02*
G37*
G36*
X127442D02*
X127206Y35831D01*
X126582Y35415D01*
X126165Y34791D01*
X126118Y34555D01*
X127442D01*
Y35878D01*
D02*
G37*
G36*
X51433Y34933D02*
X50110D01*
Y33610D01*
X50345Y33657D01*
X50969Y34073D01*
X51386Y34697D01*
X51433Y34933D01*
D02*
G37*
G36*
X49110D02*
X47786D01*
X47833Y34697D01*
X48250Y34073D01*
X48874Y33657D01*
X49110Y33610D01*
Y34933D01*
D02*
G37*
G36*
X115461Y33713D02*
Y32390D01*
X116784D01*
X116737Y32626D01*
X116320Y33249D01*
X115696Y33666D01*
X115461Y33713D01*
D02*
G37*
G36*
X114461D02*
X114225Y33666D01*
X113601Y33249D01*
X113184Y32626D01*
X113137Y32390D01*
X114461D01*
Y33713D01*
D02*
G37*
G36*
X129765Y33555D02*
X128442D01*
Y32232D01*
X128677Y32279D01*
X129301Y32695D01*
X129718Y33319D01*
X129765Y33555D01*
D02*
G37*
G36*
X127442D02*
X126118D01*
X126165Y33319D01*
X126582Y32695D01*
X127206Y32279D01*
X127442Y32232D01*
Y33555D01*
D02*
G37*
G36*
X267154Y33223D02*
Y31900D01*
X268477D01*
X268430Y32136D01*
X268013Y32760D01*
X267389Y33176D01*
X267154Y33223D01*
D02*
G37*
G36*
X266154D02*
X265918Y33176D01*
X265294Y32760D01*
X264877Y32136D01*
X264830Y31900D01*
X266154D01*
Y33223D01*
D02*
G37*
G36*
X66800D02*
Y31900D01*
X68123D01*
X68076Y32136D01*
X67660Y32760D01*
X67036Y33176D01*
X66800Y33223D01*
D02*
G37*
G36*
X65800D02*
X65564Y33176D01*
X64940Y32760D01*
X64524Y32136D01*
X64477Y31900D01*
X65800D01*
Y33223D01*
D02*
G37*
G36*
X219291Y34090D02*
X218751Y33983D01*
X218292Y33676D01*
X217986Y33218D01*
X217878Y32677D01*
X217986Y32136D01*
X218292Y31678D01*
X218751Y31372D01*
X219291Y31264D01*
X219832Y31372D01*
X220290Y31678D01*
X220597Y32136D01*
X220704Y32677D01*
X220597Y33218D01*
X220290Y33676D01*
X219832Y33983D01*
X219291Y34090D01*
D02*
G37*
G36*
X136259D02*
X135718Y33983D01*
X135260Y33676D01*
X134953Y33218D01*
X134846Y32677D01*
X134953Y32136D01*
X135260Y31678D01*
X135718Y31372D01*
X136259Y31264D01*
X136800Y31372D01*
X137258Y31678D01*
X137564Y32136D01*
X137672Y32677D01*
X137564Y33218D01*
X137258Y33676D01*
X136800Y33983D01*
X136259Y34090D01*
D02*
G37*
G36*
X116784Y31390D02*
X115461D01*
Y30066D01*
X115696Y30113D01*
X116320Y30530D01*
X116737Y31154D01*
X116784Y31390D01*
D02*
G37*
G36*
X114461D02*
X113137D01*
X113184Y31154D01*
X113601Y30530D01*
X114225Y30113D01*
X114461Y30066D01*
Y31390D01*
D02*
G37*
G36*
X246063Y32813D02*
X245522Y32705D01*
X245064Y32399D01*
X244758Y31941D01*
X244650Y31400D01*
X244758Y30859D01*
X245064Y30401D01*
X245522Y30095D01*
X246063Y29987D01*
X246604Y30095D01*
X247062Y30401D01*
X247368Y30859D01*
X247476Y31400D01*
X247368Y31941D01*
X247062Y32399D01*
X246604Y32705D01*
X246063Y32813D01*
D02*
G37*
G36*
X268477Y30900D02*
X267154D01*
Y29577D01*
X267389Y29624D01*
X268013Y30040D01*
X268430Y30664D01*
X268477Y30900D01*
D02*
G37*
G36*
X266154D02*
X264830D01*
X264877Y30664D01*
X265294Y30040D01*
X265918Y29624D01*
X266154Y29577D01*
Y30900D01*
D02*
G37*
G36*
X68123D02*
X66800D01*
Y29577D01*
X67036Y29624D01*
X67660Y30040D01*
X68076Y30664D01*
X68123Y30900D01*
D02*
G37*
G36*
X65800D02*
X64477D01*
X64524Y30664D01*
X64940Y30040D01*
X65564Y29624D01*
X65800Y29577D01*
Y30900D01*
D02*
G37*
G36*
X81693Y38828D02*
X80458Y38666D01*
X79306Y38189D01*
X78318Y37430D01*
X77559Y36442D01*
X77082Y35291D01*
X76920Y34055D01*
X77082Y32820D01*
X77559Y31669D01*
X78318Y30680D01*
X79306Y29921D01*
X80458Y29445D01*
X81693Y29282D01*
X82928Y29445D01*
X84079Y29921D01*
X85068Y30680D01*
X85826Y31669D01*
X86303Y32820D01*
X86466Y34055D01*
X86303Y35291D01*
X85826Y36442D01*
X85068Y37430D01*
X84079Y38189D01*
X82928Y38666D01*
X81693Y38828D01*
D02*
G37*
G36*
X102075Y28201D02*
Y26878D01*
X103398D01*
X103351Y27114D01*
X102934Y27738D01*
X102311Y28154D01*
X102075Y28201D01*
D02*
G37*
G36*
X101075D02*
X100839Y28154D01*
X100215Y27738D01*
X99798Y27114D01*
X99752Y26878D01*
X101075D01*
Y28201D01*
D02*
G37*
G36*
X166839Y27923D02*
Y26600D01*
X168162D01*
X168115Y26836D01*
X167698Y27460D01*
X167074Y27876D01*
X166839Y27923D01*
D02*
G37*
G36*
X165839D02*
X165603Y27876D01*
X164979Y27460D01*
X164562Y26836D01*
X164515Y26600D01*
X165839D01*
Y27923D01*
D02*
G37*
G36*
X138295Y27423D02*
Y26100D01*
X139619D01*
X139572Y26336D01*
X139155Y26960D01*
X138531Y27376D01*
X138295Y27423D01*
D02*
G37*
G36*
X137295D02*
X137059Y27376D01*
X136436Y26960D01*
X136019Y26336D01*
X135972Y26100D01*
X137295D01*
Y27423D01*
D02*
G37*
G36*
X191732Y28094D02*
X191192Y27986D01*
X190733Y27680D01*
X190427Y27222D01*
X190319Y26681D01*
X190427Y26140D01*
X190733Y25682D01*
X191192Y25376D01*
X191732Y25268D01*
X192273Y25376D01*
X192731Y25682D01*
X193038Y26140D01*
X193145Y26681D01*
X193038Y27222D01*
X192731Y27680D01*
X192273Y27986D01*
X191732Y28094D01*
D02*
G37*
G36*
X103398Y25878D02*
X102075D01*
Y24555D01*
X102311Y24601D01*
X102934Y25018D01*
X103351Y25642D01*
X103398Y25878D01*
D02*
G37*
G36*
X101075D02*
X99752D01*
X99798Y25642D01*
X100215Y25018D01*
X100839Y24601D01*
X101075Y24555D01*
Y25878D01*
D02*
G37*
G36*
X168162Y25600D02*
X166839D01*
Y24277D01*
X167074Y24324D01*
X167698Y24740D01*
X168115Y25364D01*
X168162Y25600D01*
D02*
G37*
G36*
X165839D02*
X164515D01*
X164562Y25364D01*
X164979Y24740D01*
X165603Y24324D01*
X165839Y24277D01*
Y25600D01*
D02*
G37*
G36*
X139619Y25100D02*
X138295D01*
Y23777D01*
X138531Y23824D01*
X139155Y24240D01*
X139572Y24864D01*
X139619Y25100D01*
D02*
G37*
G36*
X137295D02*
X135972D01*
X136019Y24864D01*
X136436Y24240D01*
X137059Y23824D01*
X137295Y23777D01*
Y25100D01*
D02*
G37*
G36*
X239272Y25822D02*
X238731Y25715D01*
X238273Y25409D01*
X237966Y24950D01*
X237859Y24409D01*
X237966Y23869D01*
X238273Y23410D01*
X238731Y23104D01*
X239272Y22997D01*
X239812Y23104D01*
X240271Y23410D01*
X240577Y23869D01*
X240685Y24409D01*
X240577Y24950D01*
X240271Y25409D01*
X239812Y25715D01*
X239272Y25822D01*
D02*
G37*
G36*
X188189D02*
X187648Y25715D01*
X187190Y25409D01*
X186884Y24950D01*
X186776Y24409D01*
X186884Y23869D01*
X187190Y23410D01*
X187648Y23104D01*
X188189Y22997D01*
X188730Y23104D01*
X189188Y23410D01*
X189494Y23869D01*
X189602Y24409D01*
X189494Y24950D01*
X189188Y25409D01*
X188730Y25715D01*
X188189Y25822D01*
D02*
G37*
G36*
X121366Y22689D02*
Y21366D01*
X122689D01*
X122643Y21602D01*
X122226Y22226D01*
X121602Y22643D01*
X121366Y22689D01*
D02*
G37*
G36*
X120366D02*
X120130Y22643D01*
X119507Y22226D01*
X119090Y21602D01*
X119043Y21366D01*
X120366D01*
Y22689D01*
D02*
G37*
G36*
X184646Y23854D02*
X184105Y23746D01*
X183647Y23440D01*
X183340Y22982D01*
X183238Y22465D01*
X183233Y22441D01*
X183233Y22441D01*
X183302Y22092D01*
X182476Y21288D01*
X182381Y21285D01*
X182128Y21358D01*
X182037Y21384D01*
X181873Y21417D01*
X181496Y21492D01*
X180955Y21384D01*
X180497Y21078D01*
X180191Y20619D01*
X180083Y20079D01*
X180191Y19538D01*
X180497Y19080D01*
X180955Y18773D01*
X181496Y18666D01*
X182037Y18773D01*
X182495Y19080D01*
X182801Y19538D01*
X182904Y20055D01*
X182909Y20079D01*
X182909Y20079D01*
X182840Y20428D01*
X183665Y21232D01*
X183760Y21235D01*
X184014Y21162D01*
X184105Y21136D01*
X184269Y21103D01*
X184646Y21028D01*
X185186Y21136D01*
X185645Y21442D01*
X185951Y21900D01*
X186059Y22441D01*
X185951Y22982D01*
X185645Y23440D01*
X185186Y23746D01*
X184646Y23854D01*
D02*
G37*
G36*
X234164Y23460D02*
X233623Y23353D01*
X233165Y23046D01*
X232858Y22588D01*
X232751Y22047D01*
X232858Y21507D01*
X233165Y21048D01*
X233623Y20742D01*
X234164Y20634D01*
X234704Y20742D01*
X235163Y21048D01*
X235469Y21507D01*
X235577Y22047D01*
X235469Y22588D01*
X235163Y23046D01*
X234704Y23353D01*
X234164Y23460D01*
D02*
G37*
G36*
X244094Y23066D02*
X243554Y22959D01*
X243095Y22653D01*
X242789Y22194D01*
X242682Y21654D01*
X242789Y21113D01*
X243095Y20654D01*
X243554Y20348D01*
X244094Y20241D01*
X244635Y20348D01*
X245094Y20654D01*
X245400Y21113D01*
X245508Y21654D01*
X245400Y22194D01*
X245094Y22653D01*
X244635Y22959D01*
X244094Y23066D01*
D02*
G37*
G36*
X122689Y20366D02*
X121366D01*
Y19043D01*
X121602Y19090D01*
X122226Y19507D01*
X122643Y20130D01*
X122689Y20366D01*
D02*
G37*
G36*
X120366D02*
X119043D01*
X119090Y20130D01*
X119507Y19507D01*
X120130Y19090D01*
X120366Y19043D01*
Y20366D01*
D02*
G37*
G36*
X49213Y26517D02*
X47880Y26386D01*
X46598Y25997D01*
X45417Y25366D01*
X44382Y24516D01*
X43532Y23481D01*
X42900Y22300D01*
X42512Y21018D01*
X42380Y19685D01*
X42512Y18352D01*
X42900Y17071D01*
X43532Y15889D01*
X44382Y14854D01*
X45417Y14004D01*
X46598Y13373D01*
X47880Y12984D01*
X49213Y12853D01*
X50546Y12984D01*
X51827Y13373D01*
X53008Y14004D01*
X54044Y14854D01*
X54893Y15889D01*
X55525Y17071D01*
X55913Y18352D01*
X56045Y19685D01*
X55913Y21018D01*
X55525Y22300D01*
X54893Y23481D01*
X54044Y24516D01*
X53008Y25366D01*
X51827Y25997D01*
X50546Y26386D01*
X49213Y26517D01*
D02*
G37*
%LPD*%
G36*
X249352Y219579D02*
X251656D01*
X252386Y218693D01*
X251951Y217634D01*
X251067D01*
X250795Y217134D01*
X248220D01*
Y216659D01*
X246628D01*
X245132Y218155D01*
X244837Y218352D01*
X244947Y219382D01*
X243110D01*
Y220382D01*
X244934D01*
X244892Y220590D01*
X244887Y220619D01*
X245536Y221771D01*
X249352D01*
Y219579D01*
D02*
G37*
G36*
X261498Y215174D02*
Y207123D01*
X260630Y206137D01*
X260089Y206030D01*
X259631Y205724D01*
X259423Y205413D01*
X257484D01*
X256504Y205898D01*
X256504Y206594D01*
Y207696D01*
X257967Y209159D01*
X257967Y209159D01*
X258036Y209263D01*
X258268Y209217D01*
X258808Y209325D01*
X259267Y209631D01*
X259573Y210089D01*
X259681Y210630D01*
X259573Y211171D01*
X259267Y211629D01*
X258808Y211935D01*
X258268Y212043D01*
X257727Y211935D01*
X257269Y211629D01*
X256962Y211171D01*
X256876Y210735D01*
X256844Y210688D01*
X256792Y210425D01*
Y209931D01*
X255531Y208669D01*
X253157Y208669D01*
X252748Y208669D01*
X251722D01*
X251620Y208942D01*
X251526Y209850D01*
X251786Y210024D01*
X252093Y210483D01*
X252200Y211024D01*
X252093Y211564D01*
X251786Y212023D01*
X251328Y212329D01*
X250787Y212437D01*
X250247Y212329D01*
X249788Y212023D01*
X249536Y211645D01*
X249154Y211616D01*
X248263Y211811D01*
X248156Y212352D01*
X247849Y212810D01*
X247391Y213116D01*
X246850Y213224D01*
X246310Y213116D01*
X245851Y212810D01*
X245748Y212655D01*
X245163Y212581D01*
X244834Y212627D01*
X244555Y213168D01*
X244387Y213808D01*
X244402Y213831D01*
X244536Y214503D01*
X244909Y214750D01*
X245442Y215020D01*
X245652Y215073D01*
X245902Y214906D01*
X246250Y214837D01*
X248220D01*
Y214362D01*
X250795D01*
X251067Y213862D01*
X252354D01*
Y215748D01*
X253354D01*
Y213862D01*
X254642D01*
Y214170D01*
X254978Y214461D01*
X255804Y214910D01*
Y216748D01*
X256804D01*
Y214925D01*
X257039Y214972D01*
X257663Y215388D01*
X258080Y216012D01*
X258226Y216748D01*
X258220Y216782D01*
X259308Y217364D01*
X261498Y215174D01*
D02*
G37*
G36*
X213457Y210220D02*
X213693Y210266D01*
X214316Y210683D01*
X214733Y211307D01*
X214854Y211916D01*
X216035Y211800D01*
Y208161D01*
Y203776D01*
X214854Y203287D01*
X214505Y203636D01*
X214282Y203785D01*
X214018Y203838D01*
X214018Y203838D01*
X213412D01*
X213204Y204149D01*
X212745Y204455D01*
X212205Y204563D01*
X212060Y204534D01*
X211126Y205184D01*
X210962Y205407D01*
Y207743D01*
X210962Y207862D01*
X210962D01*
X210785Y208850D01*
X210825Y209951D01*
X211966Y210437D01*
X212221Y210266D01*
X212457Y210220D01*
Y212043D01*
X213457D01*
Y210220D01*
D02*
G37*
G36*
X181329Y211806D02*
X181685Y211568D01*
X182104Y211485D01*
X204331D01*
X204701Y210303D01*
X204125Y209350D01*
X200419D01*
X200212Y209661D01*
X199753Y209967D01*
X199213Y210074D01*
X198672Y209967D01*
X198214Y209661D01*
X197907Y209202D01*
X197800Y208661D01*
X197907Y208121D01*
X198214Y207662D01*
X198672Y207356D01*
X198920Y207307D01*
X199489Y206461D01*
X199608Y206123D01*
X199586Y206012D01*
X201409D01*
Y205512D01*
X201909D01*
Y203689D01*
X202145Y203735D01*
X202769Y204152D01*
X203006Y204507D01*
X204187Y204236D01*
Y204236D01*
X205750D01*
Y206299D01*
X206750D01*
Y204236D01*
X208313D01*
X208711Y203220D01*
Y201878D01*
X208583Y201750D01*
X208434Y201527D01*
X208381Y201263D01*
X208381Y201263D01*
Y196217D01*
X207575Y195370D01*
X206012D01*
Y193307D01*
X205512D01*
Y192807D01*
X203449D01*
Y191354D01*
X203449Y191244D01*
X203183Y190173D01*
X201264D01*
Y187114D01*
X203248D01*
X205232D01*
Y190063D01*
X205232Y190173D01*
X205498Y191244D01*
X207575D01*
Y191744D01*
X210224D01*
Y192494D01*
X216035D01*
Y192413D01*
X219472D01*
Y191248D01*
X221063D01*
Y190748D01*
X221563D01*
Y187976D01*
X222654D01*
Y188476D01*
X226254D01*
Y186713D01*
X225139Y185598D01*
X224803Y185665D01*
X224262Y185557D01*
X223804Y185251D01*
X223498Y184793D01*
X223390Y184252D01*
X223498Y183711D01*
X223804Y183253D01*
X224262Y182947D01*
X224803Y182839D01*
X224994Y182877D01*
X225526Y182785D01*
X226254Y182136D01*
X226560Y181678D01*
X227018Y181372D01*
X227559Y181264D01*
X228177Y180183D01*
Y179437D01*
X228079Y179372D01*
X227893Y179094D01*
X227690Y178929D01*
X226665Y178592D01*
X226640Y178591D01*
X226391Y178641D01*
X226391Y178641D01*
X220542D01*
X220542Y178641D01*
X220278Y178588D01*
X220055Y178439D01*
X220055Y178439D01*
X219912Y178296D01*
X218167D01*
X218121Y178346D01*
X217644Y179477D01*
X217707Y179572D01*
X217815Y180113D01*
X217707Y180653D01*
X217401Y181112D01*
X216943Y181418D01*
X216402Y181526D01*
X215861Y181418D01*
X215403Y181112D01*
X215096Y180653D01*
X214989Y180113D01*
X215096Y179572D01*
X215160Y179477D01*
X214683Y178346D01*
X214637Y178296D01*
X209286D01*
X208797Y179477D01*
X210603Y181283D01*
X210603Y181283D01*
X210752Y181506D01*
X210804Y181770D01*
X210804Y181770D01*
Y183555D01*
X212409D01*
Y189673D01*
X209441D01*
Y185871D01*
X209428Y185805D01*
X209428Y185805D01*
Y182054D01*
X207060Y179686D01*
X206693Y179759D01*
X206152Y179652D01*
X205694Y179346D01*
X205387Y178887D01*
X205280Y178347D01*
X204297Y177474D01*
X185465D01*
X185045Y177894D01*
X184967Y179206D01*
X185273Y179665D01*
X185381Y180206D01*
X185273Y180746D01*
X184967Y181205D01*
X184508Y181511D01*
X183968Y181618D01*
X183427Y181511D01*
X182969Y181205D01*
X182504Y180757D01*
X181853Y180801D01*
X181853Y180801D01*
X176465D01*
X176465Y180801D01*
X176202Y180748D01*
X175979Y180599D01*
X175979Y180599D01*
X161422Y166043D01*
X109055D01*
X109055Y166043D01*
X108792Y165990D01*
X108569Y165841D01*
X108568Y165841D01*
X106801Y164074D01*
X105650D01*
X105415Y165255D01*
X105436Y165264D01*
X106075Y165754D01*
X106566Y166393D01*
X106874Y167138D01*
X106979Y167936D01*
X106874Y168735D01*
X106689Y169181D01*
X118787Y181279D01*
X119024Y181635D01*
X119108Y182054D01*
Y202696D01*
X135198Y218786D01*
X174349D01*
X181329Y211806D01*
D02*
G37*
G36*
X228436Y169536D02*
X226488Y167587D01*
X226333Y167356D01*
X226279Y167083D01*
Y150518D01*
X226333Y150245D01*
X226488Y150014D01*
X226922Y149580D01*
Y144497D01*
X226637Y144306D01*
X226330Y143848D01*
X226223Y143307D01*
X226330Y142766D01*
X226637Y142308D01*
X227095Y142002D01*
X227636Y141894D01*
X228177Y142002D01*
X228635Y142308D01*
X228941Y142766D01*
X229049Y143307D01*
X228941Y143848D01*
X228635Y144306D01*
X228350Y144497D01*
Y149875D01*
X228295Y150148D01*
X228141Y150380D01*
X227707Y150814D01*
Y153247D01*
X227850Y153446D01*
X228888Y154109D01*
X228937Y154099D01*
X229478Y154206D01*
X229936Y154513D01*
X230127Y154798D01*
X243699D01*
X244151Y153707D01*
X239102Y148657D01*
X232858D01*
X232431Y148943D01*
X231890Y149051D01*
X231349Y148943D01*
X230891Y148637D01*
X230584Y148179D01*
X230477Y147638D01*
X230584Y147097D01*
X230891Y146639D01*
X231349Y146332D01*
X231890Y146225D01*
X232431Y146332D01*
X232858Y146618D01*
X239524D01*
X239914Y146696D01*
X240245Y146917D01*
X246620Y153292D01*
X263316D01*
X263516Y153332D01*
X263857Y153167D01*
X264042Y152608D01*
X263449Y151501D01*
X259842D01*
X259569Y151447D01*
X259338Y151292D01*
X253486Y145440D01*
X253150Y145508D01*
X252609Y145400D01*
X252151Y145094D01*
X251844Y144635D01*
X251737Y144095D01*
X251844Y143554D01*
X252151Y143095D01*
X252609Y142789D01*
X253150Y142682D01*
X253690Y142789D01*
X254149Y143095D01*
X254455Y143554D01*
X254563Y144095D01*
X254496Y144431D01*
X260138Y150074D01*
X281559D01*
X282022Y149476D01*
X281490Y148297D01*
X279697D01*
Y148297D01*
X278610D01*
Y148297D01*
X274791D01*
X274697Y148297D01*
Y148297D01*
X273610D01*
Y148297D01*
X269791D01*
X269697Y148297D01*
Y148297D01*
X268610D01*
Y148297D01*
X264697D01*
Y137966D01*
X264683Y137897D01*
Y137726D01*
X250352D01*
X249389Y138766D01*
X249243Y139502D01*
X248826Y140126D01*
X248202Y140542D01*
X247967Y140589D01*
Y138766D01*
X246967D01*
Y140589D01*
X246731Y140542D01*
X246107Y140126D01*
X245690Y139502D01*
X245544Y138766D01*
X244581Y137726D01*
X229356D01*
X222778Y144305D01*
X222546Y144460D01*
X222273Y144514D01*
X209234D01*
X206689Y147060D01*
X206458Y147214D01*
X206184Y147269D01*
X175763D01*
X175740Y147327D01*
X175567Y148450D01*
X175802Y148607D01*
X176109Y149066D01*
X176216Y149606D01*
X176195Y149714D01*
X176813Y150719D01*
X177029Y150895D01*
X178091D01*
X178449Y150537D01*
X178696Y150372D01*
X178987Y150314D01*
X182664D01*
X182955Y150372D01*
X183202Y150537D01*
X184176Y151511D01*
X186834D01*
X186993Y151272D01*
X187451Y150966D01*
X187992Y150858D01*
X188533Y150966D01*
X188991Y151272D01*
X189297Y151731D01*
X189405Y152271D01*
X189297Y152812D01*
X188991Y153270D01*
X188768Y153419D01*
X188978Y154601D01*
X192093D01*
X192151Y154513D01*
X192610Y154206D01*
X193150Y154099D01*
X193691Y154206D01*
X194150Y154513D01*
X194456Y154971D01*
X194563Y155512D01*
X194456Y156052D01*
X194150Y156511D01*
X193691Y156817D01*
X193150Y156925D01*
X192610Y156817D01*
X192151Y156511D01*
X192093Y156423D01*
X176789D01*
X176440Y156354D01*
X176145Y156156D01*
X172168Y152180D01*
X169185D01*
X168836Y152110D01*
X168541Y151913D01*
X167969Y151341D01*
X167441Y151356D01*
X167024Y151867D01*
X166682Y152426D01*
X166767Y152854D01*
X166747Y152958D01*
X173688Y159899D01*
X173983Y159921D01*
X175104Y159645D01*
X175180Y159530D01*
X175638Y159224D01*
X176179Y159117D01*
X176720Y159224D01*
X177178Y159530D01*
X177485Y159989D01*
X177592Y160530D01*
X177485Y161070D01*
X177260Y161406D01*
X177401Y161963D01*
X177720Y162587D01*
X189454D01*
X189943Y161406D01*
X189005Y160468D01*
X186869D01*
X186441Y160754D01*
X185900Y160862D01*
X185359Y160754D01*
X184901Y160448D01*
X184595Y159990D01*
X184487Y159449D01*
X184595Y158908D01*
X184901Y158450D01*
X185359Y158143D01*
X185900Y158036D01*
X186441Y158143D01*
X186869Y158429D01*
X189428D01*
X189818Y158507D01*
X190149Y158728D01*
X196201Y164780D01*
X197373D01*
X197801Y164495D01*
X198342Y164387D01*
X198898Y163294D01*
X197285Y161681D01*
X196949Y161748D01*
X196408Y161640D01*
X195950Y161334D01*
X195643Y160875D01*
X195536Y160335D01*
X195643Y159794D01*
X195950Y159335D01*
X196408Y159029D01*
X196949Y158922D01*
X197490Y159029D01*
X197948Y159335D01*
X198470Y159496D01*
X199362Y158758D01*
X199286Y158374D01*
X199393Y157833D01*
X199700Y157375D01*
X200158Y157069D01*
X200699Y156961D01*
X201239Y157069D01*
X201698Y157375D01*
X201889Y157660D01*
X203346D01*
X203620Y157714D01*
X203851Y157869D01*
X205517Y159535D01*
X205918D01*
X206191Y159589D01*
X206423Y159744D01*
X206708Y160030D01*
X207602Y159916D01*
X208430Y159031D01*
X208537Y158491D01*
X208843Y158032D01*
X209302Y157726D01*
X209842Y157618D01*
X210383Y157726D01*
X210842Y158032D01*
X211148Y158491D01*
X211256Y159031D01*
X211148Y159572D01*
X210842Y160030D01*
X210383Y160337D01*
X209842Y160444D01*
X209401Y160357D01*
X209214Y160453D01*
X209092Y160548D01*
X208455Y161191D01*
X208500Y161417D01*
X208392Y161958D01*
X208086Y162416D01*
X207627Y162723D01*
X207087Y162830D01*
X206546Y162723D01*
X206087Y162416D01*
X205781Y161958D01*
X205674Y161417D01*
X204948Y160908D01*
X204717Y160754D01*
X203051Y159088D01*
X201889D01*
X201698Y159373D01*
X200891Y159991D01*
X200998Y160531D01*
X200891Y161072D01*
X200584Y161531D01*
X200500Y162854D01*
X200514Y162890D01*
X201464Y163840D01*
X201804Y163894D01*
X202774Y163812D01*
X202938Y163567D01*
X203396Y163261D01*
X203937Y163154D01*
X204477Y163261D01*
X204936Y163567D01*
X205242Y164026D01*
X205350Y164567D01*
X205242Y165107D01*
X204936Y165566D01*
X204477Y165872D01*
X203937Y165980D01*
X203396Y165872D01*
X202938Y165566D01*
X202899Y165509D01*
X201409D01*
X201136Y165454D01*
X200904Y165300D01*
X200848Y165243D01*
X199755Y165800D01*
X199647Y166341D01*
X199341Y166799D01*
X198882Y167105D01*
X198342Y167213D01*
X197801Y167105D01*
X197373Y166820D01*
X196240D01*
X195732Y167981D01*
X198377Y170627D01*
X201431D01*
X201473Y169446D01*
X201417Y169405D01*
X201241Y169287D01*
X200958Y169098D01*
X200652Y168640D01*
X200545Y168099D01*
X200652Y167559D01*
X200958Y167100D01*
X201417Y166794D01*
X201958Y166686D01*
X202498Y166794D01*
X202957Y167100D01*
X203263Y167559D01*
X203370Y168099D01*
X203263Y168640D01*
X202957Y169098D01*
X202709Y169264D01*
X202498Y169405D01*
X202442Y169446D01*
X202484Y170627D01*
X227984D01*
X228436Y169536D01*
D02*
G37*
G36*
X285113Y166240D02*
Y165369D01*
X284697Y164321D01*
X283610D01*
X283516Y164321D01*
X279791D01*
X279697Y164321D01*
X278610D01*
X278516Y164321D01*
X275706D01*
X273096Y166931D01*
X272865Y167085D01*
X272592Y167140D01*
X260246D01*
X259973Y167085D01*
X259742Y166931D01*
X249037Y156226D01*
X237875D01*
X237517Y157407D01*
X237739Y157555D01*
X238156Y158179D01*
X238203Y158415D01*
X234556D01*
X234603Y158179D01*
X235020Y157555D01*
X235242Y157407D01*
X234883Y156226D01*
X230127D01*
X229936Y156511D01*
X229478Y156817D01*
X228937Y156925D01*
X228888Y156915D01*
X227850Y157577D01*
X227707Y157777D01*
Y166787D01*
X231449Y170529D01*
X280824D01*
X285113Y166240D01*
D02*
G37*
G36*
X264697Y164321D02*
Y157135D01*
X262894Y155331D01*
X251704D01*
X251252Y156423D01*
X255169Y160339D01*
X256514Y160451D01*
X257138Y160035D01*
X257374Y159988D01*
Y161811D01*
X257874D01*
Y162311D01*
X259697D01*
X259692Y162340D01*
X261773Y164421D01*
X263558D01*
X264697Y164321D01*
D02*
G37*
G36*
X220950Y140172D02*
X221279Y138945D01*
X221135Y138729D01*
X221027Y138189D01*
X221135Y137648D01*
X221144Y137634D01*
X220580Y136453D01*
X199202D01*
X197936Y137719D01*
X198005Y139238D01*
X198361Y139553D01*
X207825D01*
X208372Y139133D01*
X208788Y138509D01*
X209412Y138093D01*
X209648Y138046D01*
Y139869D01*
X210648D01*
Y138046D01*
X210884Y138093D01*
X211508Y138509D01*
X212957Y138730D01*
X213219Y138468D01*
X213451Y138313D01*
X213724Y138259D01*
X217803D01*
X218076Y138313D01*
X218307Y138468D01*
X220188Y140349D01*
X220950Y140172D01*
D02*
G37*
G36*
X112881Y92015D02*
X113113Y91860D01*
X113386Y91806D01*
X115178D01*
X116938Y90047D01*
X117169Y89892D01*
X117442Y89837D01*
X118670D01*
X119777Y88788D01*
X119763Y88599D01*
X117438D01*
Y80906D01*
X116438D01*
Y88599D01*
X113305D01*
Y89673D01*
X110273D01*
X109540Y90604D01*
X109710Y90858D01*
X109818Y91399D01*
X109710Y91939D01*
X109428Y92361D01*
X109472Y92586D01*
X109817Y93542D01*
X111354D01*
X112881Y92015D01*
D02*
G37*
G36*
X191520Y82291D02*
X195079D01*
Y81791D01*
X195579D01*
Y79807D01*
X197153D01*
X197460Y79348D01*
X198084Y78932D01*
X198319Y78885D01*
Y80708D01*
X199320D01*
Y78885D01*
X199555Y78932D01*
X200179Y79348D01*
X200427Y79720D01*
X201397Y79802D01*
X201745Y79728D01*
X201757Y79710D01*
X202215Y79403D01*
X202756Y79296D01*
X203297Y79403D01*
X203755Y79710D01*
X204061Y80168D01*
X204122Y80475D01*
X205327D01*
X205387Y80168D01*
X205694Y79710D01*
X206152Y79403D01*
X206693Y79296D01*
X207030Y79363D01*
X207490Y78902D01*
X207722Y78747D01*
X207995Y78693D01*
X214939D01*
X215411Y78220D01*
Y73058D01*
X214364Y72100D01*
X213628Y71954D01*
X213004Y71537D01*
X212888Y71363D01*
X212352Y70938D01*
X211408Y71039D01*
X211366Y71068D01*
X211130Y71115D01*
Y69291D01*
X210130D01*
Y71115D01*
X209894Y71068D01*
X209270Y70651D01*
X208854Y70027D01*
X208772Y69619D01*
X208093Y69298D01*
X207793Y69208D01*
X207574Y69188D01*
X207234Y69416D01*
X206694Y69523D01*
X206153Y69416D01*
X205694Y69109D01*
X205504Y68824D01*
X201348D01*
X200221Y68898D01*
X200113Y69438D01*
X199807Y69897D01*
X199349Y70203D01*
X198808Y70311D01*
X198267Y70203D01*
X197809Y69897D01*
X197503Y69438D01*
X197395Y68898D01*
X196412Y68025D01*
X194650D01*
X194272Y68375D01*
X194381Y69802D01*
X194798Y70426D01*
X194844Y70661D01*
X191198D01*
X191245Y70426D01*
X191662Y69802D01*
X192285Y69385D01*
X192375Y69367D01*
X192417Y69359D01*
X192379Y68970D01*
X192379D01*
X192357Y68750D01*
X191413Y68178D01*
X183898D01*
X183775Y68248D01*
X183008Y69295D01*
X182900Y69836D01*
X182594Y70294D01*
X182135Y70600D01*
X181595Y70708D01*
X181054Y70600D01*
X180595Y70294D01*
X180289Y69836D01*
X180182Y69295D01*
X179414Y68248D01*
X179291Y68178D01*
X178171D01*
X177898Y68123D01*
X177666Y67969D01*
X176358Y68289D01*
X176118Y68588D01*
X176010Y69128D01*
X175704Y69587D01*
X175245Y69893D01*
X174705Y70000D01*
X174164Y69893D01*
X173706Y69587D01*
X173399Y69128D01*
X173292Y68588D01*
X172467Y67565D01*
X172390Y67526D01*
X142896D01*
X141913Y68398D01*
X141846Y68732D01*
X142478Y69896D01*
X143059Y70000D01*
X143296Y69966D01*
X143688Y69574D01*
X143920Y69419D01*
X144193Y69365D01*
X158093D01*
X158366Y69419D01*
X158598Y69574D01*
X162319Y73295D01*
X163129Y72960D01*
X163448Y72754D01*
X163578Y72099D01*
X163995Y71475D01*
X164619Y71058D01*
X164854Y71011D01*
Y72835D01*
X165354D01*
Y73335D01*
X167178D01*
X167131Y73571D01*
X166714Y74194D01*
X166090Y74611D01*
X165799Y74669D01*
X165915Y75850D01*
X176683D01*
X176956Y75904D01*
X177188Y76059D01*
X180779Y79650D01*
X182091Y79728D01*
X182549Y79422D01*
X183090Y79315D01*
X183631Y79422D01*
X184089Y79728D01*
X184395Y80187D01*
X184503Y80727D01*
X184395Y81268D01*
X184290Y81425D01*
X184761Y82545D01*
X185427Y82570D01*
X185906Y81493D01*
X185826Y81373D01*
X185718Y80832D01*
X185826Y80291D01*
X186132Y79833D01*
X186590Y79526D01*
X187131Y79419D01*
X187672Y79526D01*
X188130Y79833D01*
X188436Y80291D01*
X188544Y80832D01*
X188436Y81373D01*
X188254Y81646D01*
X188463Y82353D01*
X188766Y82827D01*
X191520D01*
Y82291D01*
D02*
G37*
G36*
X161816Y74853D02*
X161794Y74789D01*
X157797Y70792D01*
X150087D01*
X149424Y71896D01*
X149426Y71974D01*
X149461Y72148D01*
X145668D01*
X145036Y71226D01*
X144138Y71143D01*
X143812Y71469D01*
X143580Y71624D01*
X143307Y71678D01*
X137948D01*
X137675Y71624D01*
X137444Y71469D01*
X133490Y67516D01*
X133336Y67284D01*
X133281Y67011D01*
Y66446D01*
X132996Y66255D01*
X132690Y65797D01*
X132598Y65335D01*
X132285Y65132D01*
X131470Y64792D01*
X130797Y65465D01*
X130581Y65610D01*
X130347Y65960D01*
X129889Y66266D01*
X129348Y66374D01*
X128807Y66266D01*
X128349Y65960D01*
X128043Y65501D01*
X127935Y64961D01*
X126846Y64384D01*
X126488D01*
X124028Y66843D01*
X123797Y66998D01*
X123524Y67052D01*
X119735D01*
X117680Y69107D01*
X117448Y69262D01*
X117175Y69316D01*
X111173D01*
X110867Y69688D01*
X110760Y70229D01*
X110453Y70688D01*
X110050Y70957D01*
X110034Y71045D01*
X110449Y72138D01*
X112296D01*
X113458Y70976D01*
X113690Y70821D01*
X113963Y70767D01*
X127835D01*
X128881Y70092D01*
X128965Y69762D01*
X129009Y69538D01*
X129316Y69080D01*
X129774Y68773D01*
X130315Y68666D01*
X130856Y68773D01*
X131314Y69080D01*
X131505Y69365D01*
X133071D01*
X133344Y69419D01*
X133575Y69574D01*
X138288Y74286D01*
X145044D01*
X145323Y73979D01*
X145783Y73148D01*
X149493D01*
X149953Y73979D01*
X150231Y74286D01*
X158289D01*
X158562Y74341D01*
X158793Y74495D01*
X160386Y76087D01*
X161698Y76166D01*
X161816Y74853D01*
D02*
G37*
G36*
X100304Y68130D02*
X100773Y67036D01*
X100252Y66157D01*
X98902D01*
Y64476D01*
X101083D01*
Y63476D01*
X98902D01*
Y62403D01*
X98854Y62393D01*
X98622Y62239D01*
X96661Y60277D01*
X95480Y60767D01*
Y63098D01*
X92118D01*
Y61788D01*
X90241D01*
X90221Y61937D01*
X89868Y62789D01*
X89307Y63520D01*
X88576Y64081D01*
X87932Y64348D01*
X87821Y64961D01*
X87919Y65501D01*
X88964Y65967D01*
X89867Y65064D01*
X90115Y64898D01*
X90408Y64840D01*
X92868D01*
X92942Y64854D01*
X95480D01*
Y66291D01*
X95526Y66378D01*
X96555Y67189D01*
X97096Y67297D01*
X97554Y67603D01*
X97874Y68066D01*
X98267Y68186D01*
X99402Y68299D01*
X99402Y68299D01*
X100304Y68130D01*
D02*
G37*
G36*
X207663Y65501D02*
X208121Y65195D01*
X208442Y65131D01*
X208795Y64479D01*
X208915Y63933D01*
X206866Y61884D01*
X206700Y61636D01*
X206642Y61344D01*
Y57017D01*
X206223Y56597D01*
X206057Y56349D01*
X205999Y56057D01*
Y56017D01*
X202908Y52926D01*
X201981Y53363D01*
X201798Y53487D01*
X201699Y53986D01*
X201393Y54444D01*
X200934Y54750D01*
X200394Y54858D01*
X199853Y54750D01*
X199395Y54444D01*
X199088Y53986D01*
X198981Y53445D01*
X199088Y52904D01*
X199395Y52446D01*
X199573Y52327D01*
X199972Y51262D01*
X200021Y50902D01*
X199783Y50559D01*
X199139Y50608D01*
X198680Y50914D01*
X198140Y51022D01*
X197599Y50914D01*
X197141Y50608D01*
X196834Y50149D01*
X196727Y49609D01*
X196763Y49426D01*
X196206Y48474D01*
X195964Y48245D01*
X170708D01*
X170416Y48186D01*
X170168Y48021D01*
X170168Y48021D01*
X166615Y44468D01*
X166339Y44523D01*
X165798Y44416D01*
X165340Y44109D01*
X165168Y43853D01*
X164056Y44314D01*
X164110Y44587D01*
X164002Y45127D01*
X163696Y45586D01*
X163238Y45892D01*
X162697Y46000D01*
X162156Y45892D01*
X161698Y45586D01*
X161391Y45127D01*
X161284Y44587D01*
X161343Y44289D01*
X160568Y43681D01*
X160369Y43593D01*
X142973Y60989D01*
X143158Y61619D01*
X143472Y62160D01*
X143848Y62235D01*
X144306Y62541D01*
X144497Y62826D01*
X161183D01*
X161564Y62445D01*
X161796Y62290D01*
X162069Y62236D01*
X164525D01*
X164850Y61558D01*
X164971Y61055D01*
X164624Y60536D01*
X164577Y60300D01*
X168223D01*
X168176Y60536D01*
X167830Y61055D01*
X167950Y61558D01*
X168274Y62236D01*
X169572D01*
X170186Y61055D01*
X170107Y60936D01*
X170060Y60700D01*
X173706D01*
X173660Y60936D01*
X173580Y61055D01*
X174195Y62236D01*
X183323D01*
X183596Y62290D01*
X183828Y62445D01*
X185629Y64247D01*
X187786D01*
X187977Y63961D01*
X188435Y63655D01*
X188976Y63547D01*
X189517Y63655D01*
X189975Y63961D01*
X190090Y64134D01*
X190449Y64218D01*
X191096Y64212D01*
X191403Y64134D01*
X191532Y63941D01*
X191990Y63635D01*
X192531Y63527D01*
X193071Y63635D01*
X193530Y63941D01*
X193836Y64400D01*
X193944Y64940D01*
X194997Y65698D01*
X196937D01*
X197513Y64517D01*
X197513Y64517D01*
X197406Y63976D01*
X196406Y63313D01*
X195866Y63421D01*
X195325Y63313D01*
X194867Y63007D01*
X194560Y62549D01*
X194453Y62008D01*
X194560Y61467D01*
X194867Y61009D01*
X195325Y60702D01*
X195866Y60595D01*
X196406Y60702D01*
X196865Y61009D01*
X197171Y61467D01*
X197279Y62008D01*
X198278Y62671D01*
X198819Y62563D01*
X199359Y62671D01*
X199818Y62977D01*
X200124Y63436D01*
X200232Y63976D01*
X200213Y64072D01*
X200708Y64539D01*
X201503Y64400D01*
X201809Y63941D01*
X202035Y63749D01*
X202311Y63514D01*
X202411Y62507D01*
X202101Y62199D01*
X201795Y61741D01*
X201795Y61741D01*
X201765Y61593D01*
X201687Y61200D01*
X201795Y60659D01*
X202101Y60201D01*
X202559Y59895D01*
X203100Y59787D01*
X203641Y59895D01*
X204099Y60201D01*
X204405Y60659D01*
X204513Y61200D01*
X204405Y61741D01*
X204099Y62199D01*
X203873Y62392D01*
X203598Y62626D01*
X203498Y63633D01*
X203807Y63941D01*
X204114Y64400D01*
X204114Y64400D01*
X204143Y64547D01*
X204221Y64940D01*
X205222Y65786D01*
X207472D01*
X207663Y65501D01*
D02*
G37*
%LPC*%
G36*
X128847Y206154D02*
Y204831D01*
X130170D01*
X130123Y205066D01*
X129706Y205690D01*
X129082Y206107D01*
X128847Y206154D01*
D02*
G37*
G36*
X127847D02*
X127611Y206107D01*
X126987Y205690D01*
X126570Y205066D01*
X126523Y204831D01*
X127847D01*
Y206154D01*
D02*
G37*
G36*
X200909Y205012D02*
X199586D01*
X199633Y204776D01*
X200049Y204152D01*
X200673Y203735D01*
X200909Y203689D01*
Y205012D01*
D02*
G37*
G36*
X188583Y205802D02*
X188042Y205695D01*
X187584Y205389D01*
X187277Y204930D01*
X187170Y204390D01*
X187277Y203849D01*
X187584Y203390D01*
X188042Y203084D01*
X188583Y202976D01*
X189123Y203084D01*
X189582Y203390D01*
X189888Y203849D01*
X189996Y204390D01*
X189888Y204930D01*
X189582Y205389D01*
X189123Y205695D01*
X188583Y205802D01*
D02*
G37*
G36*
X130170Y203831D02*
X126523D01*
X126570Y203595D01*
X126987Y202971D01*
Y202934D01*
X126570Y202311D01*
X126523Y202075D01*
X130170D01*
X130123Y202311D01*
X129706Y202934D01*
Y202971D01*
X130123Y203595D01*
X130170Y203831D01*
D02*
G37*
G36*
X192997Y203692D02*
X192456Y203585D01*
X191997Y203278D01*
X191691Y202820D01*
X191584Y202279D01*
X191691Y201738D01*
X191997Y201280D01*
X192456Y200974D01*
X192997Y200866D01*
X193537Y200974D01*
X193996Y201280D01*
X194302Y201738D01*
X194409Y202279D01*
X194302Y202820D01*
X193996Y203278D01*
X193537Y203585D01*
X192997Y203692D01*
D02*
G37*
G36*
X130170Y201075D02*
X126523D01*
X126570Y200839D01*
X126975Y200197D01*
X126570Y199555D01*
X126523Y199319D01*
X130170D01*
X130123Y199555D01*
X129718Y200197D01*
X130123Y200839D01*
X130170Y201075D01*
D02*
G37*
G36*
X202457Y198378D02*
Y197055D01*
X203781D01*
X203734Y197291D01*
X203317Y197915D01*
X202693Y198331D01*
X202457Y198378D01*
D02*
G37*
G36*
X201458D02*
X201222Y198331D01*
X200598Y197915D01*
X200181Y197291D01*
X200134Y197055D01*
X201458D01*
Y198378D01*
D02*
G37*
G36*
X130170Y198319D02*
X128847D01*
Y196996D01*
X129082Y197043D01*
X129706Y197459D01*
X130123Y198083D01*
X130170Y198319D01*
D02*
G37*
G36*
X127847D02*
X126523D01*
X126570Y198083D01*
X126987Y197459D01*
X127611Y197043D01*
X127847Y196996D01*
Y198319D01*
D02*
G37*
G36*
X196161Y199346D02*
X195621Y199239D01*
X195162Y198932D01*
X194856Y198474D01*
X194748Y197933D01*
X194856Y197392D01*
X195162Y196934D01*
X195621Y196628D01*
X196161Y196520D01*
X196702Y196628D01*
X197160Y196934D01*
X197467Y197392D01*
X197574Y197933D01*
X197467Y198474D01*
X197160Y198932D01*
X196702Y199239D01*
X196161Y199346D01*
D02*
G37*
G36*
X201458Y196055D02*
X200134D01*
X200181Y195819D01*
X200598Y195195D01*
X201222Y194779D01*
X201458Y194732D01*
Y196055D01*
D02*
G37*
G36*
X204051D02*
X202457D01*
Y194681D01*
X203231Y194127D01*
X203449Y193863D01*
Y193807D01*
X205012D01*
Y195370D01*
X204653D01*
X204051Y196055D01*
D02*
G37*
G36*
X145283Y194343D02*
Y193020D01*
X146607D01*
X146560Y193255D01*
X146143Y193879D01*
X145519Y194296D01*
X145283Y194343D01*
D02*
G37*
G36*
X186221Y192063D02*
X185680Y191955D01*
X185221Y191649D01*
X184915Y191190D01*
X184808Y190650D01*
X184915Y190109D01*
X185221Y189650D01*
X185680Y189344D01*
X186221Y189237D01*
X186761Y189344D01*
X187220Y189650D01*
X187526Y190109D01*
X187633Y190650D01*
X187526Y191190D01*
X187220Y191649D01*
X186761Y191955D01*
X186221Y192063D01*
D02*
G37*
G36*
X144283Y194343D02*
X144048Y194296D01*
X143424Y193879D01*
X143007Y193255D01*
X142520Y192474D01*
X141784Y192328D01*
X141160Y191911D01*
X140743Y191287D01*
X140696Y191051D01*
X142520D01*
Y190551D01*
X143020D01*
Y188728D01*
X143255Y188775D01*
X143879Y189192D01*
X144296Y189815D01*
X144783Y190597D01*
X145519Y190743D01*
X146143Y191160D01*
X146560Y191784D01*
X146607Y192020D01*
X144783D01*
Y192520D01*
X144283D01*
Y194343D01*
D02*
G37*
G36*
X142020Y190051D02*
X140696D01*
X140743Y189815D01*
X141160Y189192D01*
X141784Y188775D01*
X142020Y188728D01*
Y190051D01*
D02*
G37*
G36*
X220563Y190248D02*
X219472D01*
Y187976D01*
X220563D01*
Y190248D01*
D02*
G37*
G36*
X198041Y189996D02*
X197501Y189888D01*
X197042Y189582D01*
X196736Y189123D01*
X196628Y188583D01*
X196736Y188042D01*
X197042Y187584D01*
X197501Y187277D01*
X198041Y187170D01*
X198582Y187277D01*
X199040Y187584D01*
X199347Y188042D01*
X199454Y188583D01*
X199347Y189123D01*
X199040Y189582D01*
X198582Y189888D01*
X198041Y189996D01*
D02*
G37*
G36*
X205232Y186114D02*
X203748D01*
Y183055D01*
X205232D01*
Y186114D01*
D02*
G37*
G36*
X202748D02*
X201264D01*
Y183055D01*
X202748D01*
Y186114D01*
D02*
G37*
G36*
X218152Y162611D02*
Y161288D01*
X219475D01*
X219428Y161524D01*
X219012Y162147D01*
X218388Y162564D01*
X218152Y162611D01*
D02*
G37*
G36*
X217152D02*
X216916Y162564D01*
X216292Y162147D01*
X215876Y161524D01*
X215829Y161288D01*
X217152D01*
Y162611D01*
D02*
G37*
G36*
X219475Y160288D02*
X218152D01*
Y158965D01*
X218388Y159011D01*
X219012Y159428D01*
X219428Y160052D01*
X219475Y160288D01*
D02*
G37*
G36*
X217152D02*
X215829D01*
X215876Y160052D01*
X216292Y159428D01*
X216916Y159011D01*
X217152Y158965D01*
Y160288D01*
D02*
G37*
G36*
X203346Y155842D02*
X202806Y155735D01*
X202347Y155428D01*
X202041Y154970D01*
X201934Y154429D01*
X202041Y153888D01*
X202347Y153430D01*
X203232Y152812D01*
X203125Y152271D01*
X203232Y151731D01*
X203538Y151272D01*
X203997Y150966D01*
X204538Y150858D01*
X205078Y150966D01*
X205537Y151272D01*
X205843Y151731D01*
X205950Y152271D01*
X205843Y152812D01*
X205537Y153270D01*
X204652Y153888D01*
X204759Y154429D01*
X204652Y154970D01*
X204346Y155428D01*
X203887Y155735D01*
X203346Y155842D01*
D02*
G37*
G36*
X211811Y152594D02*
X211270Y152487D01*
X210812Y152180D01*
X210506Y151722D01*
X210398Y151181D01*
X210506Y150640D01*
X210812Y150182D01*
X211270Y149876D01*
X211811Y149768D01*
X212352Y149876D01*
X212810Y150182D01*
X213116Y150640D01*
X213224Y151181D01*
X213116Y151722D01*
X212810Y152180D01*
X212352Y152487D01*
X211811Y152594D01*
D02*
G37*
G36*
X236879Y160738D02*
Y159415D01*
X238203D01*
X238156Y159650D01*
X237739Y160274D01*
X237115Y160691D01*
X236879Y160738D01*
D02*
G37*
G36*
X235879D02*
X235644Y160691D01*
X235020Y160274D01*
X234603Y159650D01*
X234556Y159415D01*
X235879D01*
Y160738D01*
D02*
G37*
G36*
X259697Y161311D02*
X258374D01*
Y159988D01*
X258610Y160035D01*
X259234Y160451D01*
X259650Y161075D01*
X259697Y161311D01*
D02*
G37*
G36*
X194579Y81291D02*
X191520D01*
Y79807D01*
X194579D01*
Y81291D01*
D02*
G37*
G36*
X194813Y78303D02*
X194272Y78195D01*
X193814Y77889D01*
X193507Y77430D01*
X193400Y76890D01*
X193507Y76349D01*
X193814Y75890D01*
X194272Y75584D01*
X194813Y75477D01*
X195353Y75584D01*
X195812Y75890D01*
X196118Y76349D01*
X196226Y76890D01*
X196118Y77430D01*
X195812Y77889D01*
X195353Y78195D01*
X194813Y78303D01*
D02*
G37*
G36*
X193521Y72985D02*
Y71661D01*
X194844D01*
X194798Y71897D01*
X194381Y72521D01*
X193757Y72938D01*
X193521Y72985D01*
D02*
G37*
G36*
X192521D02*
X192285Y72938D01*
X191662Y72521D01*
X191245Y71897D01*
X191198Y71661D01*
X192521D01*
Y72985D01*
D02*
G37*
G36*
X167178Y72335D02*
X165854D01*
Y71011D01*
X166090Y71058D01*
X166714Y71475D01*
X167131Y72099D01*
X167178Y72335D01*
D02*
G37*
G36*
X154988Y60583D02*
Y59260D01*
X156312D01*
X156265Y59496D01*
X155848Y60119D01*
X155224Y60536D01*
X154988Y60583D01*
D02*
G37*
G36*
X153988D02*
X153752Y60536D01*
X153129Y60119D01*
X152712Y59496D01*
X152665Y59260D01*
X153988D01*
Y60583D01*
D02*
G37*
G36*
X189960Y61452D02*
X189419Y61345D01*
X188961Y61038D01*
X188655Y60580D01*
X188547Y60039D01*
X188655Y59499D01*
X188961Y59040D01*
X189419Y58734D01*
X189960Y58626D01*
X190501Y58734D01*
X190959Y59040D01*
X191266Y59499D01*
X191373Y60039D01*
X191266Y60580D01*
X190959Y61038D01*
X190501Y61345D01*
X189960Y61452D01*
D02*
G37*
G36*
X173706Y59700D02*
X172383D01*
Y58377D01*
X172619Y58424D01*
X173243Y58840D01*
X173660Y59464D01*
X173706Y59700D01*
D02*
G37*
G36*
X171383D02*
X170060D01*
X170107Y59464D01*
X170524Y58840D01*
X171147Y58424D01*
X171383Y58377D01*
Y59700D01*
D02*
G37*
G36*
X168223Y59300D02*
X166900D01*
Y57977D01*
X167136Y58024D01*
X167760Y58440D01*
X168176Y59064D01*
X168223Y59300D01*
D02*
G37*
G36*
X165900D02*
X164577D01*
X164624Y59064D01*
X165040Y58440D01*
X165664Y58024D01*
X165900Y57977D01*
Y59300D01*
D02*
G37*
G36*
X156312Y58260D02*
X154988D01*
Y56937D01*
X155224Y56983D01*
X155848Y57400D01*
X156265Y58024D01*
X156312Y58260D01*
D02*
G37*
G36*
X153988D02*
X152665D01*
X152712Y58024D01*
X153129Y57400D01*
X153752Y56983D01*
X153988Y56937D01*
Y58260D01*
D02*
G37*
G36*
X177199Y56792D02*
X176658Y56685D01*
X176200Y56379D01*
X175894Y55920D01*
X175786Y55379D01*
X175894Y54839D01*
X176200Y54380D01*
X176658Y54074D01*
X177199Y53967D01*
X177740Y54074D01*
X178198Y54380D01*
X178505Y54839D01*
X178612Y55379D01*
X178505Y55920D01*
X178198Y56379D01*
X177740Y56685D01*
X177199Y56792D01*
D02*
G37*
%LPD*%
D13*
X249857Y222682D02*
X253423Y219117D01*
X262409Y202712D02*
Y215551D01*
X253423Y219117D02*
X258844D01*
X262409Y215551D01*
X246063Y222682D02*
X249857D01*
X231102Y214173D02*
Y222630D01*
X244894Y227941D02*
X245669Y227165D01*
X231102Y222630D02*
X231496D01*
X232689Y223823D01*
X232929D01*
X233465Y224358D01*
Y227406D01*
X234000Y227941D01*
X244894D01*
X259042Y197244D02*
X262000Y200202D01*
Y202303D01*
X262409Y202712D01*
X253346Y197244D02*
X259042D01*
X176789Y155512D02*
X193150D01*
X172546Y151268D02*
X176789Y155512D01*
X169185Y151268D02*
X172546D01*
X230700Y172337D02*
X283125D01*
X229901Y171538D02*
X230700Y172337D01*
X283125D02*
X286171Y169291D01*
X268686Y165332D02*
X271654Y162364D01*
X261395Y165332D02*
X268686D01*
X257874Y161811D02*
X261395Y165332D01*
X198000Y171538D02*
X229901D01*
X194882Y90253D02*
Y92520D01*
X197736Y81791D02*
X198819Y80708D01*
X195866Y81791D02*
X197736D01*
X198631Y96269D02*
X198819Y96457D01*
X218209Y193405D02*
X218307Y193504D01*
X208760Y193405D02*
X218209D01*
X236663Y190600D02*
X236811Y190748D01*
X236663Y183612D02*
Y190600D01*
X236516Y183465D02*
X236663Y183612D01*
X278779Y200492D02*
X279134Y200847D01*
Y209449D01*
X238779Y213976D02*
X238976Y214173D01*
Y216535D01*
X239951Y217510D01*
X244488D01*
X246250Y215748D01*
X249508D01*
X241535Y201378D02*
X251969D01*
X241535Y207283D02*
X251870D01*
X251969Y193701D02*
X252047Y193780D01*
Y195945D01*
X253346Y197244D01*
X242269Y222682D02*
X246063D01*
Y225581D01*
X245669Y225975D02*
X246063Y225581D01*
X245669Y225975D02*
Y227165D01*
X241535Y193504D02*
X241634Y193602D01*
X251870D01*
X251969Y193701D01*
X242126Y222825D02*
X242269Y222682D01*
X236811Y213976D02*
Y217510D01*
X242126Y222825D01*
X235039Y222441D02*
X235433Y222835D01*
X235039Y214173D02*
Y222441D01*
X234842Y213976D02*
X235039Y214173D01*
X230906Y213976D02*
X231102Y214173D01*
X86221Y192936D02*
X93894D01*
X192913Y92913D02*
X196850D01*
X271654Y158329D02*
Y162364D01*
X152971Y149909D02*
X167826D01*
X125718Y61024D02*
X125984D01*
X165354Y152854D02*
X175999Y163499D01*
X189961D01*
X167826Y149909D02*
X169185Y151268D01*
X152048Y150833D02*
X152971Y149909D01*
X145363Y149546D02*
X146650Y150833D01*
X152048D01*
X139113Y146200D02*
X142459Y149546D01*
X145363D01*
X189961Y163499D02*
X198000Y171538D01*
X125718Y85630D02*
X125984D01*
X125422Y85926D02*
X125718Y85630D01*
X122754Y85926D02*
X125422D01*
X116938Y80906D02*
Y83268D01*
X119694Y86024D01*
X122657D01*
X183071Y96457D02*
X183259Y96645D01*
X183071Y96457D02*
X183259Y96268D01*
X184449Y95472D02*
X185433D01*
X183259Y96645D02*
X183652D01*
X183259Y96268D02*
X183653D01*
X184449Y95472D01*
X126862Y53642D02*
X126961Y53543D01*
X100394Y81693D02*
X100660D01*
X101184Y81169D01*
X102087D01*
X102756Y80500D01*
X102004Y55844D02*
X102488Y56328D01*
X99688Y55844D02*
X102004D01*
X99500Y55655D02*
X99688Y55844D01*
X99406Y55561D02*
X99500Y55655D01*
X99406Y52260D02*
Y55561D01*
X99311Y52165D02*
X99406Y52260D01*
X116329Y56299D02*
Y58662D01*
X119085Y61417D01*
X122047D01*
X188484Y98524D02*
X190288Y96720D01*
X190945Y92520D02*
X191133Y92708D01*
X190362Y96269D02*
X190756D01*
X189566Y95472D02*
X190362Y96269D01*
X103445Y50011D02*
X103494Y49962D01*
X103445Y50011D02*
X103593Y50159D01*
X122047Y53740D02*
X122146Y53642D01*
X102174Y65757D02*
X102362Y65945D01*
X102174Y65067D02*
Y65757D01*
X101378Y75197D02*
X103937D01*
X103593Y52018D02*
X103740Y52165D01*
X103593Y50159D02*
Y52018D01*
X103494Y48081D02*
Y49962D01*
Y48081D02*
X103543Y48031D01*
X107087Y72047D02*
X107136Y71998D01*
Y68947D02*
Y71998D01*
Y68947D02*
X107185Y68898D01*
X103494Y69242D02*
X103839Y68898D01*
X101132Y69242D02*
X103494D01*
X100787Y69587D02*
X101132Y69242D01*
X72244Y66929D02*
X78149Y61024D01*
X67913Y66929D02*
X72244D01*
X103937Y72047D02*
Y75197D01*
X103937Y72047D02*
X103937Y72047D01*
X103937Y75197D02*
X103937Y75197D01*
X102657Y112106D02*
X102756Y112008D01*
X100197Y112106D02*
X102657D01*
X100099Y112205D02*
X100197Y112106D01*
X196850Y96063D02*
X197056Y96269D01*
X198631D01*
X190756D02*
X190944Y96457D01*
X191133Y96269D01*
X191133Y92708D02*
X192708D01*
X192913Y92913D01*
X183652Y96645D02*
X185433Y98426D01*
X188583Y95472D02*
X189566D01*
X50394Y139370D02*
X50492Y139272D01*
Y137500D02*
Y139272D01*
Y137500D02*
X54134Y133858D01*
X54232D01*
X52756Y135335D02*
Y139370D01*
Y135335D02*
X54232Y133858D01*
X52756Y127953D02*
Y132382D01*
X54232Y133858D01*
X64961Y116378D02*
Y120472D01*
X64724Y116142D02*
X64961Y116378D01*
Y88189D02*
Y92283D01*
X64724Y92520D02*
X64961Y92283D01*
Y63976D02*
Y68661D01*
X65197Y68898D01*
X61811Y47244D02*
X64016D01*
X61811Y51968D02*
X63819D01*
X64016Y52165D01*
X101083Y63976D02*
X102174Y65067D01*
X125324Y61417D02*
X125718Y61024D01*
X122047Y61417D02*
X125324D01*
X122657Y86024D02*
X122754Y85926D01*
X111811Y127165D02*
Y127264D01*
X108661Y130413D02*
X111811Y127264D01*
X108661Y130413D02*
Y131890D01*
X196645Y96268D02*
X196850Y96063D01*
X195071Y96268D02*
X196645D01*
X194882Y96457D02*
X195071Y96268D01*
X194694D02*
X194882Y96457D01*
X193119Y96268D02*
X194694D01*
X192913Y96063D02*
X193119Y96268D01*
X191133Y96269D02*
X192707D01*
X192913Y96063D01*
D15*
X239524Y147638D02*
X246198Y154312D01*
X231890Y147638D02*
X239524D01*
X263316Y154312D02*
X266653Y157649D01*
X246198Y154312D02*
X263316D01*
X266653Y157649D02*
Y158329D01*
X185900Y159449D02*
X189428D01*
X195779Y165800D01*
X198342D01*
X211353Y128500D02*
X211900Y127953D01*
X200855Y128500D02*
X211353D01*
X230147Y127953D02*
X231300Y126800D01*
X211900Y127953D02*
X230147D01*
X64026Y110089D02*
X64173Y110236D01*
X57234Y110089D02*
X64026D01*
X57087Y109941D02*
X57234Y110089D01*
X58952Y124016D02*
X64468D01*
X57087Y122150D02*
X58952Y124016D01*
X57087Y101772D02*
X64075D01*
X64026Y83908D02*
X64075Y83858D01*
X57136Y83908D02*
X64026D01*
X57087Y83957D02*
X57136Y83908D01*
X86811Y131890D02*
X97441D01*
X65847Y133858D02*
X68806Y136818D01*
X81883D01*
X86811Y131890D01*
X199155Y126800D02*
X200855Y128500D01*
D16*
X77406Y46019D02*
X78149Y45276D01*
X70083Y46019D02*
X77406D01*
X69449Y46654D02*
X70083Y46019D01*
X69449Y46654D02*
Y47244D01*
X70083Y53150D02*
X78149D01*
X69449Y52515D02*
X70083Y53150D01*
X69449Y52165D02*
Y52515D01*
X69685Y86221D02*
X69784D01*
X67421Y83957D02*
X69685Y86221D01*
X67421Y83858D02*
Y83957D01*
X72441Y113386D02*
X77559Y108268D01*
X69685Y116142D02*
X72441Y113386D01*
X69357Y110302D02*
X72441Y113386D01*
X67585Y110302D02*
X69357D01*
X67520Y110236D02*
X67585Y110302D01*
X72441Y118110D02*
Y119291D01*
X67815Y123917D02*
X72441Y119291D01*
X67815Y123917D02*
Y124016D01*
X77165Y100394D02*
X78149D01*
X73622D02*
X77165D01*
X72244Y101772D02*
X73622Y100394D01*
X67421Y101772D02*
X72244D01*
X77840Y116452D02*
X78149Y116142D01*
X74099Y116452D02*
X77840D01*
X72441Y118110D02*
X74099Y116452D01*
X67441Y118110D02*
X72441D01*
X77559Y108268D02*
X78149D01*
X67441Y116142D02*
X69685D01*
X72244Y70866D02*
X78149Y76772D01*
X67913Y70866D02*
X72244D01*
X71260Y94488D02*
X77165Y100394D01*
X67441Y94488D02*
X71260D01*
X77559Y84646D02*
X78149D01*
X71653Y90551D02*
X77559Y84646D01*
X67441Y90551D02*
X71653D01*
X67913Y68898D02*
X78149D01*
D19*
X189910Y226083D02*
D03*
X193257D02*
D03*
X195983Y218504D02*
D03*
X192637D02*
D03*
X206004Y218110D02*
D03*
X202658D02*
D03*
X209498Y210236D02*
D03*
X206151D02*
D03*
X233169Y183465D02*
D03*
X236516D02*
D03*
X255217Y207283D02*
D03*
X251870D02*
D03*
X249508Y215748D02*
D03*
X252854D02*
D03*
X60138Y192520D02*
D03*
X63484D02*
D03*
X60138Y178347D02*
D03*
X63484D02*
D03*
X103445Y44882D02*
D03*
X106791D02*
D03*
X103839Y68898D02*
D03*
X107185D02*
D03*
X64468Y124016D02*
D03*
X67815D02*
D03*
X64075Y83858D02*
D03*
X67421D02*
D03*
X64075Y101772D02*
D03*
X67421D02*
D03*
X64173Y110236D02*
D03*
X67520D02*
D03*
D20*
X286653Y142305D02*
D03*
Y158329D02*
D03*
X281653Y142305D02*
D03*
Y158329D02*
D03*
X276654Y142305D02*
D03*
Y158329D02*
D03*
X271654Y142305D02*
D03*
Y158329D02*
D03*
X266653Y142305D02*
D03*
Y158329D02*
D03*
D21*
X203248Y186614D02*
D03*
X210925D02*
D03*
X258513Y222638D02*
D03*
X250836D02*
D03*
D22*
X202984Y225984D02*
D03*
X199834D02*
D03*
X209399Y206299D02*
D03*
X206250D02*
D03*
X205512Y193307D02*
D03*
X208661D02*
D03*
X255118Y193701D02*
D03*
X251969D02*
D03*
X255118Y201378D02*
D03*
X251969D02*
D03*
X86221Y192936D02*
D03*
X83071D02*
D03*
X188583Y95472D02*
D03*
X185433D02*
D03*
X188583Y98622D02*
D03*
X185433D02*
D03*
X103937Y72047D02*
D03*
X107087D02*
D03*
X106890Y52165D02*
D03*
X103740D02*
D03*
X107087Y75197D02*
D03*
X103937D02*
D03*
X103543Y48031D02*
D03*
X106693D02*
D03*
X102756Y80500D02*
D03*
X105905D02*
D03*
X102488Y56328D02*
D03*
X105638D02*
D03*
D23*
X242126Y225975D02*
D03*
Y222825D02*
D03*
X235433Y222835D02*
D03*
Y225984D02*
D03*
X231496Y222630D02*
D03*
Y225779D02*
D03*
X279134Y212598D02*
D03*
Y209449D02*
D03*
X192913Y96063D02*
D03*
Y92913D02*
D03*
X196850Y96063D02*
D03*
Y92913D02*
D03*
D27*
X288583Y196555D02*
D03*
Y193209D02*
D03*
X98819Y44390D02*
D03*
Y47736D02*
D03*
X100787Y69587D02*
D03*
Y72933D02*
D03*
D29*
X64016Y52165D02*
D03*
X69449D02*
D03*
X64016Y47244D02*
D03*
X69449D02*
D03*
D30*
X97441Y131890D02*
D03*
X108661D02*
D03*
D39*
X228865Y178585D02*
D03*
X127893Y48228D02*
D03*
X127953Y72835D02*
D03*
D76*
X196269Y225984D02*
X199834D01*
X193257Y226083D02*
X196269D01*
X189567Y225739D02*
X189889Y226062D01*
X189910Y226083D01*
X189567Y223622D02*
X189889Y223944D01*
X196269Y225984D02*
Y226083D01*
X205289Y227177D02*
X205674D01*
X204694Y226582D02*
X205289Y227177D01*
X203582Y226582D02*
X204694D01*
X202984Y225984D02*
X203582Y226582D01*
X246198Y195472D02*
X249213D01*
X255118Y201378D01*
X293112Y195943D02*
X293307Y195748D01*
X289195Y195943D02*
X293112D01*
X288583Y196555D02*
X289195Y195943D01*
X241894Y225742D02*
X242126Y225975D01*
X238779Y225742D02*
X241894D01*
X235433Y225984D02*
X235675Y225742D01*
X238779D01*
X241535Y197441D02*
X241951Y197856D01*
X247023D01*
X247545Y198378D01*
X247929D01*
X263779Y201565D02*
X269438D01*
X270511Y200492D01*
X241535Y195472D02*
X246198D01*
X255919Y216748D02*
X256304D01*
X255630Y216459D02*
X255919Y216748D01*
X253467Y216459D02*
X255630D01*
X252854Y215846D02*
X253467Y216459D01*
X252854Y215748D02*
Y215846D01*
X233169Y214272D02*
Y218959D01*
X232874Y213976D02*
X233169Y214272D01*
X224803Y214173D02*
Y218959D01*
Y214173D02*
X225000Y213976D01*
X201409Y205512D02*
X205462D01*
X206250Y206299D01*
X201958Y196555D02*
X202264D01*
X205512Y193307D01*
X235288Y176061D02*
X237008D01*
X237795Y176848D02*
Y178740D01*
X237008Y176061D02*
X237795Y176848D01*
X231890Y176772D02*
X234577D01*
X235288Y176061D01*
X233169Y183366D02*
X237795Y178740D01*
X233169Y183366D02*
Y183465D01*
X249431Y209667D02*
X250787Y211024D01*
X241951Y209667D02*
X249431D01*
X241535Y211221D02*
X241951Y211636D01*
X246675D01*
X246850Y211811D01*
X241535Y209252D02*
X241951Y209667D01*
X244609Y180436D02*
X244881Y180708D01*
X244609Y179447D02*
Y180436D01*
X240373Y175211D02*
X244609Y179447D01*
X230835Y175211D02*
X240373D01*
X230364Y175681D02*
X230835Y175211D01*
X228663Y175681D02*
X230364D01*
X210883Y176758D02*
X213280Y174361D01*
X243652D01*
X245669Y176378D01*
X226391Y177952D02*
X228663Y175681D01*
X220542Y177952D02*
X226391D01*
X220197Y177608D02*
X220542Y177952D01*
X208161Y177608D02*
X220197D01*
X207339Y176786D02*
X208161Y177608D01*
X185180Y176786D02*
X207339D01*
X181853Y180113D02*
X185180Y176786D01*
X177298Y175936D02*
X207692D01*
X163173Y161811D02*
X177298Y175936D01*
X208514Y176758D02*
X210883D01*
X207692Y175936D02*
X208514Y176758D01*
X210116Y181770D02*
Y185805D01*
X206693Y178347D02*
X210116Y181770D01*
Y185805D02*
X210925Y186614D01*
X176465Y180113D02*
X181853D01*
X161707Y165354D02*
X176465Y180113D01*
X109055Y165354D02*
X161707D01*
X107087Y163386D02*
X109055Y165354D01*
X93701Y163386D02*
X107087D01*
X83071Y174016D02*
X93701Y163386D01*
X83071Y174016D02*
Y178740D01*
X61471Y200340D02*
X83071Y178740D01*
X55594Y200340D02*
X61471D01*
X47244Y207969D02*
X49608Y210333D01*
X47244Y200000D02*
Y207969D01*
Y200000D02*
X54014Y193230D01*
X59525D01*
X60138Y192618D01*
Y192520D02*
Y192618D01*
X112215Y161811D02*
X163173D01*
X111821Y162205D02*
X112215Y161811D01*
X91339Y162205D02*
X111821D01*
X81890Y171653D02*
X91339Y162205D01*
X60630Y171653D02*
X81890D01*
X58661Y169685D02*
X60630Y171653D01*
X58661Y163599D02*
Y169685D01*
X55592Y160530D02*
X58661Y163599D01*
X49610Y170537D02*
X56708Y177636D01*
X59525D01*
X60138Y178248D01*
Y178347D01*
X258063Y210425D02*
X258268Y210630D01*
X257480Y210425D02*
X258063D01*
X257480Y209646D02*
Y210425D01*
X255217Y207382D02*
X257480Y209646D01*
X255217Y207283D02*
Y207382D01*
X251870Y205512D02*
Y207283D01*
Y205512D02*
X252658Y204724D01*
X260630D01*
X209399Y206299D02*
Y208661D01*
Y201593D02*
Y206299D01*
X208760Y193405D02*
X209070Y193715D01*
X208661Y193307D02*
X208760Y193405D01*
X209070Y193715D02*
Y201263D01*
X209399Y201593D01*
Y208661D02*
Y210138D01*
X199213Y208661D02*
X209399D01*
Y210138D02*
X209498Y210236D01*
X196377Y218110D02*
X199585D01*
X195983Y218504D02*
X196377Y218110D01*
X199585D02*
X202658D01*
X278185Y193796D02*
X278979D01*
X276395Y192006D02*
X278185Y193796D01*
X276395Y186465D02*
Y192006D01*
X265914Y175984D02*
X276395Y186465D01*
X241535Y205315D02*
X247638D01*
X215166Y199409D02*
X218307D01*
X214961Y199615D02*
X215166Y199409D01*
X214961Y199615D02*
Y200000D01*
X213779Y201181D02*
X214961Y200000D01*
X212205Y203150D02*
X214018D01*
X215374Y201794D01*
X217892D01*
X211353Y200000D02*
X213496Y197856D01*
X210630Y197161D02*
X211904Y195888D01*
X217892Y201794D02*
X218307Y201378D01*
X241535Y203346D02*
X241732Y203543D01*
X257087D01*
X258268Y202362D01*
Y200340D02*
Y202362D01*
X217892Y197025D02*
X218307Y197441D01*
X211904Y195888D02*
X217892D01*
Y197856D02*
X218307Y197441D01*
X213496Y197856D02*
X217892D01*
X228521Y190332D02*
X228937Y190748D01*
X228521Y186790D02*
Y190332D01*
X227831Y186100D02*
X228521Y186790D01*
X227831Y182949D02*
Y186100D01*
X227559Y182677D02*
X227831Y182949D01*
X229120Y182031D02*
Y186186D01*
X228865Y181776D02*
X229120Y182031D01*
X228865Y178585D02*
Y181776D01*
X229120Y186186D02*
X229548Y186614D01*
X238779Y189567D02*
Y190748D01*
Y189567D02*
X240551Y187795D01*
Y180315D02*
Y187795D01*
X217892Y195888D02*
X218307Y195472D01*
X230709Y187795D02*
Y190551D01*
X229548Y186634D02*
X230709Y187795D01*
X229548Y186614D02*
Y186634D01*
X230709Y190551D02*
X230906Y190748D01*
D77*
X268650Y73571D02*
X268686D01*
X263779Y68701D02*
X268650Y73571D01*
X217322Y99212D02*
X221182D01*
X222441Y138033D02*
Y138189D01*
X221580Y141292D02*
X224065Y138807D01*
X222299Y142239D02*
X228440Y136097D01*
X222273Y143801D02*
X229061Y137013D01*
X265397D01*
X224342Y138807D02*
X227953Y135197D01*
X228440Y136097D02*
X238788D01*
X220123Y141292D02*
X221580D01*
X227953Y135197D02*
X236665D01*
X224065Y138807D02*
X224342D01*
X219796Y142239D02*
X222299D01*
X208939Y143801D02*
X222273D01*
X221182Y99212D02*
X221883Y99913D01*
X228046Y111313D02*
X231299Y114567D01*
X228445Y110039D02*
X231004Y107480D01*
X223917Y110039D02*
X228445D01*
X227636Y143307D02*
Y149875D01*
X226993Y150518D02*
X227636Y149875D01*
X198829Y113096D02*
X199088D01*
X203491Y66500D02*
X208662D01*
X203465Y66526D02*
X203491Y66500D01*
X199952Y66526D02*
X203465D01*
X199838Y66412D02*
X199952Y66526D01*
X199088Y113096D02*
X200165Y114173D01*
X203061Y118214D02*
X229226D01*
X201854Y116629D02*
X220182D01*
X200788Y117323D02*
X201159D01*
X200461Y119882D02*
X200787D01*
X209842D01*
X189941Y115453D02*
X199202D01*
X197738Y119838D02*
X198000Y120100D01*
X198657Y121686D02*
X200461Y119882D01*
X195300Y121686D02*
X198657D01*
X200060Y121555D02*
X203150D01*
X199030Y122586D02*
X200060Y121555D01*
X195673Y122586D02*
X199030D01*
X195905Y123626D02*
X201097D01*
X198345Y124526D02*
X209808D01*
X197700Y125172D02*
X198345Y124526D01*
X193037Y119986D02*
X193316D01*
X193973Y121572D02*
X195016Y120530D01*
X192660Y121572D02*
X193973D01*
X191063Y119975D02*
X192660Y121572D01*
X192287Y122472D02*
X194514D01*
X191486Y121671D02*
X192287Y122472D01*
X182304Y121671D02*
X191486D01*
X191914Y123372D02*
X194887D01*
X191540Y122998D02*
X191914Y123372D01*
X184398Y122998D02*
X191540D01*
X191541Y124272D02*
X195260D01*
X191168Y123898D02*
X191541Y124272D01*
X185390Y123898D02*
X191168D01*
X191168Y125172D02*
X195633D01*
X190907Y124910D02*
X191168Y125172D01*
X186621Y124910D02*
X190907D01*
X179738Y63850D02*
X182452Y66564D01*
X177519Y66812D02*
X178171Y67464D01*
X193523D01*
X193675Y67312D01*
X199465D01*
X193302Y66412D02*
X199838D01*
X193150Y66564D02*
X193302Y66412D01*
X182452Y66564D02*
X193150D01*
X200263Y68110D02*
X206694D01*
X199465Y67312D02*
X200263Y68110D01*
X200699Y158374D02*
X203346D01*
X205918Y160249D02*
X207087Y161417D01*
X205221Y160249D02*
X205918D01*
X203346Y158374D02*
X205221Y160249D01*
X180118Y139173D02*
X182382Y136909D01*
X163436Y130169D02*
X172441Y139173D01*
X174225Y121363D02*
X174442Y121147D01*
X161036Y121363D02*
X174225D01*
X163976Y80216D02*
X167826Y84066D01*
X178564Y83289D02*
X181004Y85728D01*
X171441Y83289D02*
X178564D01*
X170664Y84066D02*
X171441Y83289D01*
X167826Y84066D02*
X170664D01*
X169308Y82169D02*
X180299D01*
X168996Y82480D02*
X169308Y82169D01*
X180299D02*
X182571Y84441D01*
X181004Y85728D02*
X189272D01*
X179735Y88200D02*
X181703Y90168D01*
X170265Y88200D02*
X179735D01*
X181703Y90168D02*
X183732D01*
X168799Y89665D02*
Y91831D01*
Y89665D02*
X170265Y88200D01*
X155492Y30326D02*
X200139D01*
X210688Y40875D01*
X152092Y33726D02*
X155492Y30326D01*
X138139Y59400D02*
X161330Y36209D01*
X196483D02*
X205606Y45333D01*
X161330Y36209D02*
X196483D01*
X160596Y39598D02*
X195384D01*
X146158Y54035D02*
X160596Y39598D01*
X197114Y39359D02*
X204948Y47194D01*
X195623Y39359D02*
X197114D01*
X195384Y39598D02*
X195623Y39359D01*
X217025Y59978D02*
Y65549D01*
X204948Y47194D02*
Y47901D01*
X217025Y59978D01*
X231153Y171243D02*
X281119D01*
X285827Y166535D01*
X226993Y167083D02*
X231153Y171243D01*
X164862Y139173D02*
X172244Y146555D01*
X203708Y164795D02*
X203937Y164567D01*
X226993Y150518D02*
Y167083D01*
X215354Y79287D02*
X216125Y78516D01*
X215354Y79287D02*
Y79406D01*
X207995D02*
X215354D01*
X221074Y101777D02*
X226088D01*
X222539Y98327D02*
X228543D01*
X221883Y99913D02*
X229200D01*
X228937Y155512D02*
X249332D01*
X260246Y166426D01*
X272592D01*
X205606Y45333D02*
X206866D01*
X224508Y62975D02*
Y64961D01*
X206866Y45333D02*
X224508Y62975D01*
X198147Y34400D02*
X213173Y49426D01*
X213200D01*
X226500Y62726D02*
X227116D01*
X159800Y34400D02*
X198147D01*
X213200Y49426D02*
X226500Y62726D01*
X226870Y67323D02*
Y74606D01*
X224508Y64961D02*
X226870Y67323D01*
X185233Y32100D02*
X198777D01*
X230610Y63933D01*
X184251Y33082D02*
X185233Y32100D01*
X162069Y62950D02*
X183323D01*
X185334Y64960D01*
X188976D01*
X162442Y63850D02*
X179738D01*
X161165Y65126D02*
X162442Y63850D01*
X142535Y65126D02*
X161165D01*
X161478Y63540D02*
X162069Y62950D01*
X143307Y63540D02*
X161478D01*
X139843Y66812D02*
X177519D01*
X141749Y65912D02*
X142535Y65126D01*
X139470Y65912D02*
X141749D01*
X139540Y67115D02*
X139843Y66812D01*
X183660Y83541D02*
X197523D01*
X176683Y76564D02*
X183660Y83541D01*
X164578Y76564D02*
X176683D01*
X226870Y74606D02*
X228565Y76302D01*
X182571Y84441D02*
X196180D01*
X189272Y85728D02*
X190146Y86603D01*
X196180Y84441D02*
X201912Y90173D01*
X197523Y83541D02*
X202569Y88587D01*
X196746Y86603D02*
X201205Y91062D01*
X190146Y86603D02*
X196746D01*
X185318Y88583D02*
X187008D01*
X162000Y114365D02*
X188853D01*
X183732Y90168D02*
X185318Y88583D01*
X272592Y72430D02*
X272601Y72421D01*
X271883Y72430D02*
X272592D01*
X265748Y66296D02*
X271883Y72430D01*
X233971Y101378D02*
Y101455D01*
X235678Y101378D02*
X237063Y99993D01*
X233971Y101378D02*
X235678D01*
X201205Y91062D02*
Y91829D01*
X206693Y80709D02*
X207995Y79406D01*
X206693Y84645D02*
Y84646D01*
X287995Y193796D02*
X288583Y193209D01*
X278979Y193796D02*
X287995D01*
X194882Y90253D02*
X195667Y89468D01*
X238788Y136097D02*
X242208Y132677D01*
X236665Y135197D02*
X240759Y131102D01*
X234029Y134297D02*
X240373Y127953D01*
X226177Y134297D02*
X234029D01*
X240373Y127953D02*
X277028D01*
X265397Y137013D02*
Y137897D01*
X266653Y139153D02*
Y142305D01*
X240759Y131102D02*
X273857D01*
X265397Y137897D02*
X266653Y139153D01*
X200165Y114173D02*
X219783D01*
X223917Y110039D01*
X216125Y64607D02*
Y78516D01*
X231004Y104422D02*
X233971Y101455D01*
X231004Y104422D02*
Y107480D01*
X216918Y134165D02*
X216929Y134153D01*
X197249Y134165D02*
X216918D01*
X259842Y150787D02*
X282206D01*
X253150Y144095D02*
X259842Y150787D01*
X270397Y133991D02*
Y137013D01*
X269083Y132677D02*
X270397Y133991D01*
X242208Y132677D02*
X269083D01*
X275397Y132642D02*
Y137013D01*
X273857Y131102D02*
X275397Y132642D01*
X195965Y138681D02*
X198906Y135739D01*
X222332D01*
X206184Y146555D02*
X208939Y143801D01*
X222441Y138033D02*
X226177Y134297D01*
X217803Y138972D02*
X220123Y141292D01*
X222332Y135739D02*
X222441Y135630D01*
X218098Y140540D02*
X219796Y142239D01*
X214398Y140540D02*
X218098D01*
X214381Y140558D02*
X214398Y140540D01*
X213724Y138972D02*
X217803D01*
X270397Y137013D02*
X271654Y138269D01*
Y142305D01*
X275397Y137013D02*
X276654Y138269D01*
Y142305D01*
X282206Y150787D02*
X286653Y146340D01*
Y142305D02*
Y146340D01*
X277028Y127953D02*
X281653Y132579D01*
Y142305D01*
X209471Y132885D02*
X209777Y132579D01*
X206430Y132885D02*
X209471D01*
X209808Y124526D02*
X210712Y123622D01*
X194887Y123372D02*
X195673Y122586D01*
X195412Y119816D02*
X196588D01*
X195016Y120213D02*
X195412Y119816D01*
X195016Y120213D02*
Y120530D01*
X181537Y119975D02*
X191063D01*
X272592Y166426D02*
X276654Y162364D01*
Y158329D02*
Y162364D01*
X285827Y159156D02*
Y166535D01*
Y159156D02*
X286653Y158329D01*
X127855Y75788D02*
X131299Y79232D01*
X122657Y75788D02*
X127855D01*
X129243Y74934D02*
X147362Y93052D01*
Y97215D01*
X129243Y72300D02*
Y74934D01*
X128251Y63670D02*
X130121Y61800D01*
X126192Y63670D02*
X128251D01*
X123524Y66339D02*
X126192Y63670D01*
X127039Y62609D02*
X130248Y59400D01*
X124408Y62609D02*
X127039D01*
X129348Y64961D02*
X130292D01*
X130121Y61800D02*
X138400D01*
X130292Y64961D02*
X131583Y63670D01*
X133995Y65256D02*
Y67011D01*
X122047Y56299D02*
X138391D01*
X130315Y70079D02*
X133071D01*
X136708Y67115D02*
X139540D01*
X133995Y67011D02*
X137948Y70965D01*
X138583Y64370D02*
X161654Y41299D01*
X128424Y71480D02*
X129243Y72300D01*
X113963Y71480D02*
X128424D01*
X127267Y58957D02*
X127270Y58960D01*
X164862Y134941D02*
Y139173D01*
X181595Y140157D02*
X181704Y140267D01*
X172244Y146555D02*
X206184D01*
X172441Y139173D02*
X180118D01*
X154333Y130169D02*
X163436D01*
X168254Y132413D02*
X195921D01*
X163400Y127560D02*
X168254Y132413D01*
X202336Y132212D02*
X203248Y131299D01*
X196123Y132212D02*
X202336D01*
X195921Y132413D02*
X196123Y132212D01*
X196949Y160335D02*
X201409Y164795D01*
X203708D01*
X209013Y141455D02*
X211241D01*
X207825Y140267D02*
X209013Y141455D01*
X211241D02*
X213724Y138972D01*
X181704Y140267D02*
X207825D01*
X135640Y63670D02*
X137926Y65956D01*
X131583Y63670D02*
X135640D01*
X175272Y129331D02*
X191871D01*
X169741Y123800D02*
X175272Y129331D01*
X176275Y121555D02*
X177700D01*
X175867Y121147D02*
X176275Y121555D01*
X174442Y121147D02*
X175867D01*
X162000Y119663D02*
X180576D01*
X157368Y127560D02*
X163400D01*
X144777Y114969D02*
X157368Y127560D01*
X144777Y109577D02*
Y114969D01*
X143494Y108294D02*
X144777Y109577D01*
X143494Y108006D02*
Y108294D01*
X133176Y97687D02*
X143494Y108006D01*
X157700Y123800D02*
X169741D01*
X149000Y115100D02*
X157700Y123800D01*
X149000Y111268D02*
Y115100D01*
X134761Y97030D02*
X149000Y111268D01*
X143524Y103852D02*
X161036Y121363D01*
X143524Y103550D02*
Y103852D01*
X127376Y87402D02*
X143524Y103550D01*
X145037Y102700D02*
X162000Y119663D01*
X145037Y102418D02*
Y102700D01*
X128396Y85778D02*
X145037Y102418D01*
X142400Y118236D02*
X154333Y130169D01*
X142400Y110904D02*
Y118236D01*
X137604Y106107D02*
X142400Y110904D01*
X134455Y106107D02*
X137604D01*
X133176Y96717D02*
Y97687D01*
X128978Y92520D02*
X133176Y96717D01*
X125295Y92520D02*
X128978D01*
X123327Y90551D02*
X125295Y92520D01*
X117442Y90551D02*
X123327D01*
X125886Y83268D02*
X126083Y83071D01*
X122657Y80906D02*
X128248D01*
X134761Y97030D02*
Y97030D01*
X115474Y92520D02*
X117442Y90551D01*
X113386Y92520D02*
X115474D01*
X98032Y117520D02*
X101279Y120768D01*
X115157D01*
X93796Y117713D02*
X100492Y124409D01*
X92833Y68602D02*
X96555D01*
X87205Y74231D02*
X92833Y68602D01*
X146158Y54035D02*
Y54042D01*
X138400Y61800D02*
X146158Y54042D01*
X130248Y59400D02*
X138139D01*
X167001Y41299D02*
X168659Y42957D01*
X161654Y41299D02*
X167001D01*
X159164Y35036D02*
Y35526D01*
Y35036D02*
X159800Y34400D01*
X140574Y49682D02*
X157174Y33082D01*
X184251D01*
X151510Y33726D02*
X152092D01*
X136221Y49016D02*
X151510Y33726D01*
X210688Y40875D02*
X210875D01*
X224025Y54025D01*
Y56075D01*
X232171Y64221D01*
X215614Y62214D02*
Y64096D01*
X199118Y45719D02*
X215614Y62214D01*
X168659Y42957D02*
Y43259D01*
X171118Y45719D01*
X199118D01*
X230610Y63933D02*
Y98502D01*
X154200Y104053D02*
Y106500D01*
X162000Y114300D01*
Y114365D01*
X147362Y97215D02*
X154200Y104053D01*
X177700Y121555D02*
X178692Y120563D01*
X180949D01*
X108571Y94256D02*
X111650D01*
X107300Y92984D02*
X108571Y94256D01*
X78614Y92984D02*
X107300D01*
X197395Y125172D02*
X197700D01*
X197317Y125094D02*
X197395Y125172D01*
X195711Y125094D02*
X197317D01*
X201097Y123626D02*
X201583Y123141D01*
X195633Y125172D02*
X195711Y125094D01*
X195260Y124272D02*
X195905Y123626D01*
X191871Y129331D02*
X193150Y128051D01*
X194514Y122472D02*
X195300Y121686D01*
X196588Y119816D02*
X196609Y119838D01*
X197738D01*
X217025Y65549D02*
X218697Y67221D01*
X215614Y64096D02*
X216125Y64607D01*
X131339Y52500D02*
X132000D01*
X130020Y51181D02*
X131339Y52500D01*
X139426Y65956D02*
X139470Y65912D01*
X137926Y65956D02*
X139426D01*
X136221Y49016D02*
Y52718D01*
X136259Y52756D01*
X123041Y63976D02*
X124408Y62609D01*
X124832Y87402D02*
X127376D01*
X128396Y84498D02*
Y85778D01*
X93008Y55705D02*
X95847D01*
X102849Y60034D02*
X104232Y61417D01*
X92027Y54724D02*
X93008Y55705D01*
X95847D02*
X100175Y60034D01*
X102849D01*
X105500Y59884D02*
X108592D01*
X97914Y56312D02*
X100000Y58398D01*
X104014D02*
X105500Y59884D01*
X100000Y58398D02*
X104014D01*
X97914Y55493D02*
Y56312D01*
X92027Y49606D02*
X97914Y55493D01*
X99127Y61734D02*
X102404D01*
X94480Y57087D02*
X99127Y61734D01*
X82086Y57087D02*
X94480D01*
X108592Y59884D02*
X109617Y58858D01*
X110611D01*
X102404Y61734D02*
X107009Y66339D01*
X104232Y61417D02*
X110611D01*
X113365Y63976D02*
X115070Y65682D01*
X110611Y63976D02*
X113365D01*
X107009Y66339D02*
X112113D01*
X115738Y66238D02*
X116000Y66500D01*
X115304Y66238D02*
X115738D01*
X115070Y65682D02*
Y66003D01*
X115304Y66238D01*
X117175Y68602D02*
X119439Y66339D01*
X110433Y68602D02*
X117175D01*
X119439Y66339D02*
X123524D01*
X109454Y69581D02*
Y69688D01*
Y69581D02*
X110433Y68602D01*
X110611Y48622D02*
X111605D01*
X113000Y47228D01*
Y46654D02*
Y47228D01*
Y46654D02*
X113591Y46063D01*
X128000D01*
X96457Y44094D02*
X98524D01*
X98819Y44390D01*
X110227Y88583D02*
X111221D01*
X108667Y90142D02*
X110227Y88583D01*
X108667Y90142D02*
Y91136D01*
X108405Y91399D02*
X108667Y91136D01*
X78149Y92520D02*
X78614Y92984D01*
X122047Y63976D02*
X123041D01*
X163505Y80216D02*
X163976D01*
X158289Y75000D02*
X163505Y80216D01*
X137992Y75000D02*
X158289D01*
X122146Y58957D02*
X127267D01*
X121358Y142936D02*
Y144779D01*
X121567Y144987D01*
X131436Y129467D02*
Y139704D01*
X130905Y128937D02*
X131436Y129467D01*
X127172Y131404D02*
Y136227D01*
X128757Y128068D02*
Y139156D01*
X122853Y83268D02*
X125886D01*
X122657Y83465D02*
X122853Y83268D01*
X128248Y80906D02*
X129348Y82005D01*
Y83546D01*
X128396Y84498D02*
X129348Y83546D01*
X182101Y125295D02*
X184398Y122998D01*
X183659Y125629D02*
X185390Y123898D01*
X185245Y126286D02*
X186621Y124910D01*
X122047Y51181D02*
X130020D01*
X137948Y70965D02*
X143307D01*
X144193Y70079D01*
X158093D01*
X164578Y76564D01*
X202244Y94251D02*
X204526D01*
X201170Y93177D02*
X202244Y94251D01*
X204526D02*
X206534Y96260D01*
X201170Y91864D02*
Y93177D01*
Y91864D02*
X201205Y91829D01*
X133071Y70079D02*
X137992Y75000D01*
X225498Y111313D02*
X228046D01*
X225000Y111811D02*
X225498Y111313D01*
X229226Y118214D02*
X230413Y117027D01*
X232171Y64221D02*
Y99227D01*
X228565Y76302D02*
Y90431D01*
X218697Y67221D02*
Y71116D01*
X224494Y76912D01*
Y82368D01*
X229465Y65075D02*
Y93468D01*
X226083Y92913D02*
X228565Y90431D01*
X226378Y96555D02*
X229465Y93468D01*
X227116Y62726D02*
X229465Y65075D01*
X188853Y114365D02*
X189941Y115453D01*
X224494Y82368D02*
X224508Y82382D01*
X194596Y136818D02*
X197249Y134165D01*
X209777Y132579D02*
X213189D01*
X206123D02*
X206430Y132885D01*
X203241Y132579D02*
X206123D01*
X203248Y131299D02*
X207087D01*
X181164Y119075D02*
X192126D01*
X183659Y125629D02*
Y126664D01*
X182579Y127745D02*
X183659Y126664D01*
X181988Y125295D02*
X182101D01*
X192126Y119075D02*
X193037Y119986D01*
X201159Y117323D02*
X201854Y116629D01*
X209842Y119882D02*
X211417Y121457D01*
X220182Y116629D02*
X225000Y111811D01*
X111650Y94256D02*
X113386Y92520D01*
X130709Y111614D02*
X138091D01*
X125787Y106693D02*
X130709Y111614D01*
X118405Y106693D02*
X125787D01*
X111221Y73229D02*
X112215D01*
X113963Y71480D01*
X122901Y72984D02*
X127803D01*
X180949Y120563D02*
X181537Y119975D01*
X180576Y119663D02*
X181164Y119075D01*
X182194Y121561D02*
X182304Y121671D01*
X196876Y133265D02*
X202555D01*
X196828Y133313D02*
X196876Y133265D01*
X195858Y133313D02*
X196828D01*
X194310Y134861D02*
X195858Y133313D01*
X192531Y135670D02*
X192902D01*
X193711Y134861D01*
X194310D01*
X201583Y123141D02*
X204488D01*
X204893Y122736D01*
X208169D01*
X210712Y123622D02*
X213583D01*
X123651Y88583D02*
X124832Y87402D01*
X202555Y133265D02*
X203241Y132579D01*
X203413Y90173D02*
X205003Y88583D01*
X201912Y90173D02*
X203413D01*
X157087Y105610D02*
X157185Y105709D01*
X164665D01*
X164764Y105807D01*
X138391Y56299D02*
X159164Y35526D01*
X229200Y99913D02*
X230610Y98502D01*
X205003Y88583D02*
X206693D01*
X220385Y95871D02*
Y95877D01*
X221063Y96555D01*
X226378D01*
X226088Y101777D02*
X226575Y102264D01*
X229134D02*
X232171Y99227D01*
X226575Y102264D02*
X229134D01*
X78149Y61024D02*
X82086Y57087D01*
X78149Y76772D02*
X86319D01*
X83482Y74231D02*
X87205D01*
X78149Y68898D02*
X83482Y74231D01*
X91929Y71161D02*
X95571D01*
X86319Y76772D02*
X91929Y71161D01*
X122657Y88583D02*
X123651D01*
X110433Y112408D02*
X112113D01*
X121752Y122047D01*
Y125984D01*
X127172Y131404D01*
X125000Y124311D02*
X128757Y128068D01*
X128740Y139173D02*
X128757Y139156D01*
X128347Y122933D02*
X130905Y125492D01*
Y128937D01*
X125295Y114370D02*
X133858Y122933D01*
Y139961D01*
X92126Y109547D02*
X92519Y109941D01*
X86811Y108268D02*
X87883Y109339D01*
X90245D01*
X90453Y109547D01*
X92126D01*
X92519Y109941D02*
X92815Y109646D01*
X86811Y116142D02*
X88189D01*
X89862Y114469D01*
X92519D01*
X92815Y114764D01*
Y109646D02*
X95864Y112695D01*
X95963D01*
X98032Y114764D01*
Y117520D01*
X92815Y114764D02*
X93796Y115745D01*
Y117713D01*
X119291Y124902D02*
Y140256D01*
X115157Y120768D02*
X119291Y124902D01*
X118012Y126279D02*
Y143209D01*
X100492Y124409D02*
X116142D01*
X118012Y126279D01*
X119291Y140256D02*
X121063Y142028D01*
Y142641D01*
X121358Y142936D01*
X102387Y53928D02*
X105127D01*
X101192Y52733D02*
X102387Y53928D01*
X101192Y50011D02*
Y52733D01*
X98917Y47736D02*
X101192Y50011D01*
X221260Y92520D02*
X221654Y92913D01*
X226083D01*
X195667Y89468D02*
X195866D01*
X122047Y58858D02*
X122146Y58957D01*
X127743Y48378D02*
X127893Y48228D01*
X122292Y48378D02*
X127743D01*
X122047Y48622D02*
X122292Y48378D01*
X127803Y72984D02*
X127953Y72835D01*
X122657Y73229D02*
X122901Y72984D01*
X108893Y74454D02*
X110227Y75788D01*
X111221D01*
X108893Y73853D02*
Y74454D01*
X107087Y72047D02*
X108893Y73853D01*
X107950Y77635D02*
X108662Y78347D01*
X107950Y76060D02*
Y77635D01*
X100102Y73520D02*
Y74231D01*
X99792Y74540D02*
X100102Y74231D01*
X99792Y74540D02*
Y76246D01*
X108662Y78347D02*
X111221D01*
X107087Y75197D02*
X107950Y76060D01*
X102264Y44390D02*
X103445Y45571D01*
X98819Y44390D02*
X102264D01*
X98819Y47736D02*
X98917D01*
X105127Y53928D02*
X106890Y52165D01*
X108427Y53702D01*
X110573D01*
X110611Y53740D01*
X101893Y78347D02*
X108662D01*
X99792Y76246D02*
X101893Y78347D01*
X100102Y73520D02*
X100689Y72933D01*
X100787D01*
X86811Y53150D02*
X87455Y53793D01*
X91096D01*
X92027Y54724D01*
X86811Y45276D02*
X87696D01*
X92027Y49606D01*
X67441Y92520D02*
X78149D01*
X202756Y92126D02*
Y92521D01*
X190682Y96720D02*
X190944Y96457D01*
X190288Y96720D02*
X190682D01*
D78*
X233551Y177976D02*
X235803D01*
X232000Y179528D02*
X233551Y177976D01*
X230906Y179528D02*
X232000D01*
X235803Y177976D02*
X235826Y177952D01*
X229996Y180437D02*
Y185114D01*
Y180437D02*
X230906Y179528D01*
X229996Y185114D02*
X232874Y187992D01*
X226969Y186417D02*
Y190748D01*
X224803Y184252D02*
X226969Y186417D01*
X232874Y187992D02*
Y190748D01*
D79*
X189921Y117230D02*
X197283D01*
X189565Y117586D02*
X189921Y117230D01*
X182281Y117586D02*
X189565D01*
X162575Y117496D02*
X179851D01*
X145374Y100295D02*
X162575Y117496D01*
X145374Y93307D02*
Y100295D01*
X98654Y69717D02*
X98783Y69587D01*
X100787D01*
X207407Y56700D02*
Y61344D01*
X206763Y56057D02*
X207407Y56700D01*
X206763Y55700D02*
Y56057D01*
X198543Y47480D02*
X206763Y55700D01*
X170708Y47480D02*
X198543D01*
X166339Y43110D02*
X170708Y47480D01*
X207407Y61344D02*
X213287Y67224D01*
X106719Y81313D02*
X107150D01*
X105905Y80500D02*
X106719Y81313D01*
X92500Y75500D02*
X92913Y75087D01*
X92500Y75500D02*
Y78632D01*
X97374Y83506D01*
X111179D01*
X111221Y83465D01*
X90500Y80906D02*
X90561Y80845D01*
X90500Y80906D02*
Y83000D01*
X93524Y86024D01*
X111221D01*
X105638Y56328D02*
X107381Y58071D01*
X107579D01*
X107874Y81693D02*
X108218D01*
X108886Y81025D01*
X197283Y117230D02*
X197549Y117496D01*
X181789Y118078D02*
X182281Y117586D01*
X197549Y117496D02*
X198252D01*
X180434Y118078D02*
X181789D01*
X179851Y117496D02*
X180434Y118078D01*
X82775Y103642D02*
X92028D01*
X78149Y108268D02*
X82775Y103642D01*
X106742Y48081D02*
Y48770D01*
Y45719D02*
Y48081D01*
X108133Y49472D01*
X106693Y48031D02*
X106742Y48081D01*
X109617Y51181D02*
X110611D01*
X108133Y49697D02*
X109617Y51181D01*
X108133Y49472D02*
Y49697D01*
X126961Y78347D02*
X126961Y78347D01*
X122657Y78347D02*
X126961D01*
X122657Y78347D02*
X122657Y78347D01*
X122146Y53642D02*
X126862D01*
X107579Y58071D02*
X107846D01*
X106742Y45719D02*
X106791Y45669D01*
X106693Y48819D02*
X106742Y48770D01*
X108886Y81025D02*
X111101D01*
X111221Y80906D01*
X107846Y58071D02*
X109617Y56299D01*
X110611D01*
X86811Y68898D02*
X87114D01*
X90408Y65604D01*
X92868D02*
X93799Y66535D01*
X90408Y65604D02*
X92868D01*
X86811Y61024D02*
X93405D01*
X93799Y61417D01*
D82*
X103894Y167936D02*
D03*
X93894Y172936D02*
D03*
X103894Y177936D02*
D03*
X93894Y182936D02*
D03*
X103894Y187936D02*
D03*
X93894Y192936D02*
D03*
X103894Y197936D02*
D03*
X93894Y202936D02*
D03*
D83*
X80901Y216440D02*
D03*
Y154432D02*
D03*
D84*
X68893Y162936D02*
D03*
Y207936D02*
D03*
D85*
X55592Y160530D02*
D03*
X49608Y210333D02*
D03*
X55594Y200340D02*
D03*
X49610Y170537D02*
D03*
D86*
X78149Y45276D02*
D03*
Y53150D02*
D03*
X86811Y45276D02*
D03*
Y53150D02*
D03*
X78149Y131890D02*
D03*
Y124016D02*
D03*
X86811Y131890D02*
D03*
Y124016D02*
D03*
Y116142D02*
D03*
Y68898D02*
D03*
X86811Y61024D02*
D03*
X78149Y116142D02*
D03*
Y108268D02*
D03*
Y100394D02*
D03*
Y92520D02*
D03*
Y84646D02*
D03*
Y76772D02*
D03*
Y61024D02*
D03*
Y68898D02*
D03*
X86811Y108268D02*
D03*
X81693Y143110D02*
D03*
Y34055D02*
D03*
X49213Y224410D02*
D03*
X344488D02*
D03*
X49213Y19685D02*
D03*
X344488D02*
D03*
D87*
X196269Y226083D02*
D03*
X205674Y227177D02*
D03*
X116142Y163567D02*
D03*
X111458Y201075D02*
D03*
X184055Y218504D02*
D03*
X212957Y212043D02*
D03*
X247466Y138766D02*
D03*
X236379Y158915D02*
D03*
X217652Y160788D02*
D03*
X336614Y109252D02*
D03*
X341831Y193307D02*
D03*
X330709Y171260D02*
D03*
X315945Y167323D02*
D03*
X98425Y157342D02*
D03*
X156546Y119838D02*
D03*
X262795Y40427D02*
D03*
X273600Y59800D02*
D03*
X257035Y70429D02*
D03*
X255906Y109941D02*
D03*
X258374Y92519D02*
D03*
X237710Y94488D02*
D03*
X238204Y78863D02*
D03*
X234360Y68555D02*
D03*
X222981Y69862D02*
D03*
X166339Y26100D02*
D03*
X269683Y102362D02*
D03*
X245477Y72648D02*
D03*
X293307Y195748D02*
D03*
X238779Y225742D02*
D03*
X247929Y198378D02*
D03*
X263779Y201565D02*
D03*
X246198Y195472D02*
D03*
X242626Y214567D02*
D03*
X243110Y219882D02*
D03*
X256304Y216748D02*
D03*
X233169Y218959D02*
D03*
X224803D02*
D03*
X100394Y211024D02*
D03*
X69784Y182677D02*
D03*
X266653Y31400D02*
D03*
X318701Y37402D02*
D03*
X327756Y80992D02*
D03*
X310777Y104331D02*
D03*
X280433Y117323D02*
D03*
X57087Y233616D02*
D03*
X66925D02*
D03*
X76181D02*
D03*
X86614D02*
D03*
X97146D02*
D03*
X147638D02*
D03*
X137106D02*
D03*
X126673D02*
D03*
X117417D02*
D03*
X107579D02*
D03*
X209590D02*
D03*
X219428D02*
D03*
X228684D02*
D03*
X239118D02*
D03*
X249649D02*
D03*
X199157D02*
D03*
X188625D02*
D03*
X178192D02*
D03*
X168936D02*
D03*
X159098D02*
D03*
X312303D02*
D03*
X322142D02*
D03*
X331398D02*
D03*
X341831D02*
D03*
X301870D02*
D03*
X291339D02*
D03*
X280905D02*
D03*
X271649D02*
D03*
X261811D02*
D03*
X263779Y11175D02*
D03*
X273618D02*
D03*
X282874D02*
D03*
X293307D02*
D03*
X303839D02*
D03*
X343799D02*
D03*
X333366D02*
D03*
X324110D02*
D03*
X314272D02*
D03*
X161066D02*
D03*
X170905D02*
D03*
X180161D02*
D03*
X190594D02*
D03*
X201125D02*
D03*
X251618D02*
D03*
X241086D02*
D03*
X230653D02*
D03*
X221397D02*
D03*
X211559D02*
D03*
X109547D02*
D03*
X119386D02*
D03*
X128642D02*
D03*
X139075D02*
D03*
X149606D02*
D03*
X99114D02*
D03*
X88583D02*
D03*
X78149D02*
D03*
X68893D02*
D03*
X201409Y205512D02*
D03*
X201958Y196555D02*
D03*
X326378Y200340D02*
D03*
X285827Y48425D02*
D03*
X283858Y46063D02*
D03*
X246850Y211811D02*
D03*
X244881Y180708D02*
D03*
X231890Y176772D02*
D03*
X250787Y211024D02*
D03*
X245669Y176378D02*
D03*
X237205Y50197D02*
D03*
X258268Y210630D02*
D03*
X199585Y218110D02*
D03*
X265914Y175984D02*
D03*
X224016Y176392D02*
D03*
X217322Y99212D02*
D03*
X222441Y138189D02*
D03*
X247638Y205315D02*
D03*
X244094Y21654D02*
D03*
X213779Y201181D02*
D03*
X212205Y203150D02*
D03*
X211353Y200000D02*
D03*
X210630Y197161D02*
D03*
X234164Y22047D02*
D03*
X239272Y24409D02*
D03*
X258268Y200340D02*
D03*
X246063Y31400D02*
D03*
X219291Y32677D02*
D03*
X260630Y204724D02*
D03*
X250394Y120334D02*
D03*
X227559Y182677D02*
D03*
X235826Y177952D02*
D03*
X231299Y114567D02*
D03*
X226094Y121117D02*
D03*
X231398Y110331D02*
D03*
Y41732D02*
D03*
X224803Y184252D02*
D03*
X227636Y143307D02*
D03*
X226378Y131890D02*
D03*
X227067Y44488D02*
D03*
X240551Y180315D02*
D03*
X216402Y180113D02*
D03*
X198829Y113096D02*
D03*
X202808Y64940D02*
D03*
X198819Y63976D02*
D03*
X203061Y118214D02*
D03*
X200788Y117323D02*
D03*
X200787Y119882D02*
D03*
X199202Y115453D02*
D03*
X197549Y117230D02*
D03*
X198000Y120100D02*
D03*
X193316Y119986D02*
D03*
X198808Y68898D02*
D03*
X194813Y76890D02*
D03*
X209842Y159031D02*
D03*
X207087Y161417D02*
D03*
X211811Y151181D02*
D03*
X174803Y149606D02*
D03*
X189469Y169700D02*
D03*
X182382Y136909D02*
D03*
X179044Y137211D02*
D03*
X175796Y137015D02*
D03*
X172146Y136625D02*
D03*
X177457Y123425D02*
D03*
X175098Y122733D02*
D03*
X173622Y84874D02*
D03*
X181496Y20079D02*
D03*
X184646Y22441D02*
D03*
X188189Y24409D02*
D03*
X191732Y26681D02*
D03*
X195788Y28740D02*
D03*
X196457Y40945D02*
D03*
X197244Y43701D02*
D03*
X247846Y178347D02*
D03*
X210236Y175197D02*
D03*
X206693Y178347D02*
D03*
X201958Y168099D02*
D03*
X203937Y164567D02*
D03*
X231890Y147638D02*
D03*
X217900Y78800D02*
D03*
X216228Y80992D02*
D03*
X221074Y101777D02*
D03*
X222539Y98327D02*
D03*
X228937Y155512D02*
D03*
X206534Y47244D02*
D03*
X183109Y64978D02*
D03*
X171883Y60200D02*
D03*
X192531Y64940D02*
D03*
X189960Y60039D02*
D03*
X195866Y62008D02*
D03*
X178839Y65436D02*
D03*
X174705Y68588D02*
D03*
X181595Y69295D02*
D03*
X177199Y55379D02*
D03*
X187131Y80832D02*
D03*
X183090Y80727D02*
D03*
X190551Y88189D02*
D03*
X187008Y88583D02*
D03*
X187007Y92519D02*
D03*
X194882Y92520D02*
D03*
X183109Y92519D02*
D03*
X272601Y72421D02*
D03*
X265748Y66296D02*
D03*
X268686Y73571D02*
D03*
X263779Y68701D02*
D03*
X237063Y99993D02*
D03*
X193021Y71161D02*
D03*
X206694Y68110D02*
D03*
X200394Y53445D02*
D03*
X203100Y61200D02*
D03*
X198819Y80708D02*
D03*
X202756Y80709D02*
D03*
X206693D02*
D03*
Y84646D02*
D03*
X174705Y102461D02*
D03*
X164507Y100650D02*
D03*
X198819Y96457D02*
D03*
X190945Y100394D02*
D03*
X194883D02*
D03*
X183071D02*
D03*
X248031Y189764D02*
D03*
X216929Y134153D02*
D03*
X253150Y144095D02*
D03*
X257874Y161811D02*
D03*
X222441Y135630D02*
D03*
X186221Y190650D02*
D03*
X198041Y188583D02*
D03*
X128347Y201575D02*
D03*
Y204331D02*
D03*
X188976Y64960D02*
D03*
X131299Y79232D02*
D03*
X131890Y74508D02*
D03*
X129348Y64961D02*
D03*
X133995Y65256D02*
D03*
X140500Y68398D02*
D03*
X125984Y61024D02*
D03*
X130315Y70079D02*
D03*
X136708Y67115D02*
D03*
X138583Y64370D02*
D03*
X127270Y58960D02*
D03*
X159449Y140945D02*
D03*
X172834Y164567D02*
D03*
X176179Y160530D02*
D03*
X185800Y166562D02*
D03*
X164862Y134941D02*
D03*
X181595Y140157D02*
D03*
X185900Y159449D02*
D03*
X188583Y204390D02*
D03*
X192997Y202279D02*
D03*
X139113Y146200D02*
D03*
X144095Y146457D02*
D03*
X199213Y208661D02*
D03*
X198342Y165800D02*
D03*
X183968Y180206D02*
D03*
X196161Y197933D02*
D03*
X128347Y198819D02*
D03*
X142520Y190551D02*
D03*
X144783Y192520D02*
D03*
X124016Y147638D02*
D03*
X198140Y49609D02*
D03*
X217441Y142126D02*
D03*
X210148Y139869D02*
D03*
X203346Y154429D02*
D03*
X214381Y140558D02*
D03*
X165354Y152854D02*
D03*
X286171Y169291D02*
D03*
X114173Y135433D02*
D03*
X115354Y148031D02*
D03*
X105905Y140551D02*
D03*
X187992Y152271D02*
D03*
X193150Y155512D02*
D03*
X200699Y158374D02*
D03*
X199585Y160531D02*
D03*
X196949Y160335D02*
D03*
X131010Y96794D02*
D03*
X123228Y94784D02*
D03*
X125984Y85630D02*
D03*
X126083Y83071D02*
D03*
X134761Y97030D02*
D03*
X202609Y84646D02*
D03*
X172121Y92308D02*
D03*
X214364Y70177D02*
D03*
X210630Y69291D02*
D03*
X57087Y109941D02*
D03*
Y122150D02*
D03*
Y101772D02*
D03*
Y83957D02*
D03*
X96555Y68602D02*
D03*
X98654Y69717D02*
D03*
X204538Y152271D02*
D03*
X195965Y138681D02*
D03*
X143307Y63540D02*
D03*
X141672Y39764D02*
D03*
X141831Y45768D02*
D03*
X92682Y147638D02*
D03*
X89567Y96457D02*
D03*
X137795Y25600D02*
D03*
X127942Y34055D02*
D03*
X165354Y72835D02*
D03*
X147638Y72648D02*
D03*
X139764Y125984D02*
D03*
X179724Y152854D02*
D03*
X160156Y146457D02*
D03*
X220002Y122736D02*
D03*
X166400Y59800D02*
D03*
X147600Y86200D02*
D03*
X154488Y58760D02*
D03*
X66300Y31400D02*
D03*
X59055Y11175D02*
D03*
X277953Y132491D02*
D03*
X88583Y230315D02*
D03*
X46200Y153400D02*
D03*
Y112200D02*
D03*
X46400Y82829D02*
D03*
X45600Y48652D02*
D03*
X49610Y35433D02*
D03*
X231300Y126800D02*
D03*
X199155D02*
D03*
X196368Y126679D02*
D03*
X193150Y128051D02*
D03*
X183071Y96457D02*
D03*
X214539Y65264D02*
D03*
X219291Y62992D02*
D03*
X132000Y52500D02*
D03*
X140574Y49682D02*
D03*
X136259Y52756D02*
D03*
X126961Y53543D02*
D03*
X107874Y81693D02*
D03*
X100394D02*
D03*
X92913Y75087D02*
D03*
X90561Y80845D02*
D03*
X99500Y55655D02*
D03*
X107579Y58071D02*
D03*
X112113Y66339D02*
D03*
X116000Y66500D02*
D03*
X128000Y46063D02*
D03*
X208662Y66500D02*
D03*
X101000Y143209D02*
D03*
X119691Y95477D02*
D03*
X108405Y91399D02*
D03*
X109454Y69688D02*
D03*
X162697Y77165D02*
D03*
Y44587D02*
D03*
X120472Y39764D02*
D03*
X166339Y43110D02*
D03*
X121567Y144987D02*
D03*
X131436Y139704D02*
D03*
X127172Y136227D02*
D03*
X206534Y96260D02*
D03*
X230413Y117027D02*
D03*
X213287Y67224D02*
D03*
X168996Y82480D02*
D03*
X186811Y136625D02*
D03*
X194596Y136818D02*
D03*
X207087Y131299D02*
D03*
X185245Y126286D02*
D03*
X181988Y125295D02*
D03*
X204538Y126565D02*
D03*
X113976Y101969D02*
D03*
X135925Y86221D02*
D03*
X153543Y99606D02*
D03*
X181111Y116443D02*
D03*
X182194Y121561D02*
D03*
X182579Y127745D02*
D03*
X190945Y137598D02*
D03*
X192531Y135670D02*
D03*
X211417Y121457D02*
D03*
X203150Y121555D02*
D03*
X208169Y122736D02*
D03*
X213583Y123622D02*
D03*
X213189Y132579D02*
D03*
X187008Y104331D02*
D03*
X190945D02*
D03*
X202569Y88587D02*
D03*
X170177Y86614D02*
D03*
X164764Y105807D02*
D03*
X168799Y91831D02*
D03*
X225000Y111811D02*
D03*
X221949Y77264D02*
D03*
X222452Y94690D02*
D03*
X228543Y98327D02*
D03*
X206693Y88583D02*
D03*
X134455Y106107D02*
D03*
X220385Y95871D02*
D03*
X224508Y82382D02*
D03*
X164764Y109646D02*
D03*
X138091Y111614D02*
D03*
X118405Y106693D02*
D03*
X157087Y105610D02*
D03*
X95571Y71161D02*
D03*
X145374Y93307D02*
D03*
X117717Y92520D02*
D03*
X108858Y98524D02*
D03*
Y95866D02*
D03*
X92028Y103642D02*
D03*
X110433Y112408D02*
D03*
X210630Y84645D02*
D03*
X128347Y122933D02*
D03*
X128740Y139173D02*
D03*
X125295Y114370D02*
D03*
X133858Y139961D02*
D03*
X125000Y124311D02*
D03*
X118012Y143209D02*
D03*
X153543Y81496D02*
D03*
X190945Y92520D02*
D03*
X103445Y50011D02*
D03*
X221260Y92520D02*
D03*
X126961Y78347D02*
D03*
X105118Y146850D02*
D03*
X136614Y46063D02*
D03*
X136259Y32677D02*
D03*
X102362Y65945D02*
D03*
X101378Y75197D02*
D03*
X101575Y26378D02*
D03*
X114961Y31890D02*
D03*
X96457Y44094D02*
D03*
X101575Y42126D02*
D03*
X69784Y86221D02*
D03*
X121200Y136614D02*
D03*
Y139370D02*
D03*
X120866Y20866D02*
D03*
X213779Y62992D02*
D03*
X102756Y112008D02*
D03*
X202757Y104331D02*
D03*
X202756Y92521D02*
D03*
X190944Y96457D02*
D03*
X111811Y127165D02*
D03*
X159449Y137795D02*
D03*
Y134646D02*
D03*
X52756Y139370D02*
D03*
Y127953D02*
D03*
X50394Y139370D02*
D03*
X64961Y120472D02*
D03*
X61811Y47244D02*
D03*
Y51968D02*
D03*
X64961Y88189D02*
D03*
Y63976D02*
D03*
X198820Y104331D02*
D03*
X183071D02*
D03*
X194882Y96457D02*
D03*
D88*
X160570Y197638D02*
D03*
X164901D02*
D03*
X169232D02*
D03*
X160570Y193307D02*
D03*
X164901D02*
D03*
X169232D02*
D03*
X160570Y188976D02*
D03*
X164901D02*
D03*
X169232D02*
D03*
X160570Y184646D02*
D03*
X164901D02*
D03*
X169232D02*
D03*
X160570Y180315D02*
D03*
X164901D02*
D03*
X169232D02*
D03*
D89*
X218307Y193504D02*
D03*
Y195472D02*
D03*
Y197441D02*
D03*
Y199409D02*
D03*
Y201378D02*
D03*
Y203346D02*
D03*
Y205315D02*
D03*
Y207283D02*
D03*
Y209252D02*
D03*
Y211221D02*
D03*
X241535D02*
D03*
Y209252D02*
D03*
Y207283D02*
D03*
Y205315D02*
D03*
Y203346D02*
D03*
Y201378D02*
D03*
Y199409D02*
D03*
Y197441D02*
D03*
Y195472D02*
D03*
Y193504D02*
D03*
D90*
X221063Y213976D02*
D03*
X223031D02*
D03*
X225000D02*
D03*
X226969D02*
D03*
X228937D02*
D03*
X230906D02*
D03*
X232874D02*
D03*
X234842D02*
D03*
X236811D02*
D03*
X238779D02*
D03*
Y190748D02*
D03*
X236811D02*
D03*
X234842D02*
D03*
X232874D02*
D03*
X230906D02*
D03*
X228937D02*
D03*
X226969D02*
D03*
X225000D02*
D03*
X223031D02*
D03*
X221063D02*
D03*
D91*
X229921Y202362D02*
D03*
D92*
X278779Y200492D02*
D03*
X270511D02*
D03*
Y193996D02*
D03*
X278779D02*
D03*
D93*
X92027Y49606D02*
D03*
Y54724D02*
D03*
X99311Y52165D02*
D03*
X92815Y109646D02*
D03*
Y114764D02*
D03*
X100099Y112205D02*
D03*
X93799Y61417D02*
D03*
Y66535D02*
D03*
X101083Y63976D02*
D03*
D94*
X54232Y133858D02*
D03*
X65847D02*
D03*
D95*
X67441Y118110D02*
D03*
Y116142D02*
D03*
Y114173D02*
D03*
X62008Y118110D02*
D03*
Y116142D02*
D03*
Y114173D02*
D03*
X67441Y94488D02*
D03*
Y92520D02*
D03*
Y90551D02*
D03*
X62008Y94488D02*
D03*
Y92520D02*
D03*
Y90551D02*
D03*
X67913Y70866D02*
D03*
Y68898D02*
D03*
Y66929D02*
D03*
X62480Y70866D02*
D03*
Y68898D02*
D03*
Y66929D02*
D03*
D96*
X64724Y116142D02*
D03*
Y92520D02*
D03*
X65197Y68898D02*
D03*
D97*
X116329Y56299D02*
D03*
X116938Y80906D02*
D03*
D98*
X110611Y63976D02*
D03*
Y61417D02*
D03*
Y58858D02*
D03*
Y56299D02*
D03*
Y53740D02*
D03*
Y51181D02*
D03*
Y48622D02*
D03*
X122047D02*
D03*
Y51181D02*
D03*
Y53740D02*
D03*
Y56299D02*
D03*
Y58858D02*
D03*
Y61417D02*
D03*
Y63976D02*
D03*
X111221Y88583D02*
D03*
Y86024D02*
D03*
Y83465D02*
D03*
Y80906D02*
D03*
Y78347D02*
D03*
Y75788D02*
D03*
Y73229D02*
D03*
X122657D02*
D03*
Y75788D02*
D03*
Y78347D02*
D03*
Y80906D02*
D03*
Y83465D02*
D03*
Y86024D02*
D03*
Y88583D02*
D03*
D99*
X195079Y81791D02*
D03*
Y89468D02*
D03*
D100*
X189889Y223944D02*
Y226062D01*
X192913Y218781D02*
Y220866D01*
D101*
X186221Y223622D02*
X189567D01*
X205118D01*
X209449Y227953D01*
X222835D01*
X192913Y220866D02*
X207874D01*
X185039D02*
X192913D01*
X192637Y218504D02*
X192913Y218781D01*
X205906Y212581D02*
X208939D01*
X182104D02*
X205906D01*
Y210482D02*
Y212581D01*
Y210482D02*
X206151Y210236D01*
X205906Y215748D02*
X208268D01*
X182874D02*
X205906D01*
Y218012D01*
X206004Y218110D01*
X181890Y227953D02*
X186221Y223622D01*
X207874Y220866D02*
X211489Y224481D01*
X180315Y225590D02*
X185039Y220866D01*
X129921Y227953D02*
X181890D01*
X131548Y225590D02*
X180315D01*
X222370Y224481D02*
X226969Y219882D01*
X211489Y224481D02*
X222370D01*
X132677Y221850D02*
X176772D01*
X223031Y213976D02*
Y218110D01*
X176772Y221850D02*
X182874Y215748D01*
X208268D02*
X212588Y220068D01*
X221074D01*
X223031Y218110D01*
X213681Y217323D02*
X219864D01*
X220866Y216321D01*
Y214173D02*
X221063Y213976D01*
X220866Y214173D02*
Y216321D01*
X134744Y219882D02*
X174803D01*
X182104Y212581D01*
X208939D02*
X213681Y217323D01*
X118012Y203150D02*
X134744Y219882D01*
X118012Y182054D02*
Y203150D01*
X103894Y167936D02*
X118012Y182054D01*
X114961Y204134D02*
X132677Y221850D01*
X114961Y182677D02*
Y204134D01*
X105220Y172936D02*
X114961Y182677D01*
X93894Y172936D02*
X105220D01*
X228937Y213976D02*
Y221850D01*
X222835Y227953D02*
X228937Y221850D01*
X104905Y202936D02*
X129921Y227953D01*
X93894Y202936D02*
X104905D01*
X226969Y213976D02*
Y219882D01*
X103894Y197936D02*
X131548Y225590D01*
D102*
X152438Y148622D02*
X171511D01*
X174545Y151656D02*
X178406D01*
X171511Y148622D02*
X174545Y151656D01*
X182664Y151075D02*
X183861Y152271D01*
X178987Y151075D02*
X182664D01*
X178406Y151656D02*
X178987Y151075D01*
X144095Y146457D02*
X147184Y149546D01*
X183861Y152271D02*
X187992D01*
X147184Y149546D02*
X151514D01*
X152438Y148622D01*
M02*
