G04*
G04 #@! TF.GenerationSoftware,Altium Limited,Altium Designer,19.0.4 (130)*
G04*
G04 Layer_Color=16711935*
%FSLAX25Y25*%
%MOIN*%
G70*
G01*
G75*
%ADD45R,0.02375X0.02572*%
%ADD46R,0.03713X0.11784*%
%ADD47R,0.02769X0.05918*%
%ADD48R,0.02926X0.02926*%
%ADD49R,0.02926X0.02926*%
%ADD53R,0.02572X0.02375*%
%ADD55R,0.02769X0.03950*%
%ADD56R,0.04343X0.07296*%
G04:AMPARAMS|DCode=65|XSize=19.81mil|YSize=19.81mil|CornerRadius=9.91mil|HoleSize=0mil|Usage=FLASHONLY|Rotation=270.000|XOffset=0mil|YOffset=0mil|HoleType=Round|Shape=RoundedRectangle|*
%AMROUNDEDRECTD65*
21,1,0.01981,0.00000,0,0,270.0*
21,1,0.00000,0.01981,0,0,270.0*
1,1,0.01981,0.00000,0.00000*
1,1,0.01981,0.00000,0.00000*
1,1,0.01981,0.00000,0.00000*
1,1,0.01981,0.00000,0.00000*
%
%ADD65ROUNDEDRECTD65*%
%ADD69C,0.05918*%
%ADD70C,0.09400*%
%ADD71C,0.13792*%
%ADD72C,0.06343*%
%ADD73C,0.06800*%
%ADD74C,0.02572*%
%ADD75C,0.02769*%
%ADD103R,0.04343X0.01981*%
%ADD104R,0.01981X0.04343*%
%ADD105R,0.18517X0.18517*%
%ADD106R,0.05918X0.05131*%
%ADD107R,0.03162X0.03162*%
%ADD108R,0.09068X0.08871*%
%ADD109R,0.02847X0.02060*%
%ADD110R,0.03202X0.05761*%
%ADD111R,0.07099X0.14186*%
%ADD112R,0.03969X0.01981*%
%ADD113R,0.05918X0.02769*%
G36*
X356299Y237205D02*
Y231299D01*
X39370D01*
Y237205D01*
X40354Y238189D01*
X355315D01*
X356299Y237205D01*
D02*
G37*
G36*
X362727Y12333D02*
X357283Y6890D01*
X42323D01*
X37402Y11811D01*
Y12795D01*
X362536D01*
X362727Y12333D01*
D02*
G37*
D45*
X189910Y226083D02*
D03*
X193257D02*
D03*
X195983Y218504D02*
D03*
X192637D02*
D03*
X206004Y218110D02*
D03*
X202658D02*
D03*
X209498Y210236D02*
D03*
X206151D02*
D03*
X233169Y183465D02*
D03*
X236516D02*
D03*
X255217Y207283D02*
D03*
X251870D02*
D03*
X249508Y215748D02*
D03*
X252854D02*
D03*
X60138Y192520D02*
D03*
X63484D02*
D03*
X60138Y178347D02*
D03*
X63484D02*
D03*
X103445Y44882D02*
D03*
X106791D02*
D03*
X103839Y68898D02*
D03*
X107185D02*
D03*
X64468Y124016D02*
D03*
X67815D02*
D03*
X64075Y83858D02*
D03*
X67421D02*
D03*
X64075Y101772D02*
D03*
X67421D02*
D03*
X64173Y110236D02*
D03*
X67520D02*
D03*
D46*
X286653Y142305D02*
D03*
Y158329D02*
D03*
X281653Y142305D02*
D03*
Y158329D02*
D03*
X276654Y142305D02*
D03*
Y158329D02*
D03*
X271654Y142305D02*
D03*
Y158329D02*
D03*
X266653Y142305D02*
D03*
Y158329D02*
D03*
D47*
X203248Y186614D02*
D03*
X210925D02*
D03*
X258513Y222638D02*
D03*
X250836D02*
D03*
D48*
X202984Y225984D02*
D03*
X199834D02*
D03*
X209399Y206299D02*
D03*
X206250D02*
D03*
X205512Y193307D02*
D03*
X208661D02*
D03*
X255118Y193701D02*
D03*
X251969D02*
D03*
X255118Y201378D02*
D03*
X251969D02*
D03*
X86221Y192936D02*
D03*
X83071D02*
D03*
X188583Y95472D02*
D03*
X185433D02*
D03*
X188583Y98622D02*
D03*
X185433D02*
D03*
X103937Y72047D02*
D03*
X107087D02*
D03*
X106890Y52165D02*
D03*
X103740D02*
D03*
X107087Y75197D02*
D03*
X103937D02*
D03*
X103543Y48031D02*
D03*
X106693D02*
D03*
X102756Y80500D02*
D03*
X105905D02*
D03*
X102488Y56328D02*
D03*
X105638D02*
D03*
D49*
X242126Y225975D02*
D03*
Y222825D02*
D03*
X235433Y222835D02*
D03*
Y225984D02*
D03*
X231496Y222630D02*
D03*
Y225779D02*
D03*
X279134Y212598D02*
D03*
Y209449D02*
D03*
X192913Y96063D02*
D03*
Y92913D02*
D03*
X196850Y96063D02*
D03*
Y92913D02*
D03*
D53*
X288583Y196555D02*
D03*
Y193209D02*
D03*
X98819Y44390D02*
D03*
Y47736D02*
D03*
X100787Y69587D02*
D03*
Y72933D02*
D03*
D55*
X64016Y52165D02*
D03*
X69449D02*
D03*
X64016Y47244D02*
D03*
X69449D02*
D03*
D56*
X97441Y131890D02*
D03*
X108661D02*
D03*
D65*
X228865Y178585D02*
D03*
X127893Y48228D02*
D03*
X127953Y72835D02*
D03*
D69*
X103894Y167936D02*
D03*
X93894Y172936D02*
D03*
X103894Y177936D02*
D03*
X93894Y182936D02*
D03*
X103894Y187936D02*
D03*
X93894Y192936D02*
D03*
X103894Y197936D02*
D03*
X93894Y202936D02*
D03*
D70*
X80901Y216440D02*
D03*
Y154432D02*
D03*
D71*
X68893Y162936D02*
D03*
Y207936D02*
D03*
D72*
X55592Y160530D02*
D03*
X49608Y210333D02*
D03*
X55594Y200340D02*
D03*
X49610Y170537D02*
D03*
D73*
X78149Y45276D02*
D03*
Y53150D02*
D03*
X86811Y45276D02*
D03*
Y53150D02*
D03*
X78149Y131890D02*
D03*
Y124016D02*
D03*
X86811Y131890D02*
D03*
Y124016D02*
D03*
Y116142D02*
D03*
Y68898D02*
D03*
X86811Y61024D02*
D03*
X78149Y116142D02*
D03*
Y108268D02*
D03*
Y100394D02*
D03*
Y92520D02*
D03*
Y84646D02*
D03*
Y76772D02*
D03*
Y61024D02*
D03*
Y68898D02*
D03*
X86811Y108268D02*
D03*
X81693Y143110D02*
D03*
Y34055D02*
D03*
X49213Y224410D02*
D03*
X344488D02*
D03*
X49213Y19685D02*
D03*
X344488D02*
D03*
D74*
X196269Y226083D02*
D03*
X205674Y227177D02*
D03*
X116142Y163567D02*
D03*
X111458Y201075D02*
D03*
X184055Y218504D02*
D03*
X212957Y212043D02*
D03*
X247466Y138766D02*
D03*
X236379Y158915D02*
D03*
X217652Y160788D02*
D03*
X336614Y109252D02*
D03*
X341831Y193307D02*
D03*
X330709Y171260D02*
D03*
X315945Y167323D02*
D03*
X98425Y157342D02*
D03*
X156546Y119838D02*
D03*
X262795Y40427D02*
D03*
X273600Y59800D02*
D03*
X257035Y70429D02*
D03*
X255906Y109941D02*
D03*
X258374Y92519D02*
D03*
X237710Y94488D02*
D03*
X238204Y78863D02*
D03*
X234360Y68555D02*
D03*
X222981Y69862D02*
D03*
X166339Y26100D02*
D03*
X269683Y102362D02*
D03*
X245477Y72648D02*
D03*
X293307Y195748D02*
D03*
X238779Y225742D02*
D03*
X247929Y198378D02*
D03*
X263779Y201565D02*
D03*
X246198Y195472D02*
D03*
X242626Y214567D02*
D03*
X243110Y219882D02*
D03*
X256304Y216748D02*
D03*
X233169Y218959D02*
D03*
X224803D02*
D03*
X100394Y211024D02*
D03*
X69784Y182677D02*
D03*
X266653Y31400D02*
D03*
X318701Y37402D02*
D03*
X327756Y80992D02*
D03*
X310777Y104331D02*
D03*
X280433Y117323D02*
D03*
X57087Y233616D02*
D03*
X66925D02*
D03*
X76181D02*
D03*
X86614D02*
D03*
X97146D02*
D03*
X147638D02*
D03*
X137106D02*
D03*
X126673D02*
D03*
X117417D02*
D03*
X107579D02*
D03*
X209590D02*
D03*
X219428D02*
D03*
X228684D02*
D03*
X239118D02*
D03*
X249649D02*
D03*
X199157D02*
D03*
X188625D02*
D03*
X178192D02*
D03*
X168936D02*
D03*
X159098D02*
D03*
X312303D02*
D03*
X322142D02*
D03*
X331398D02*
D03*
X341831D02*
D03*
X301870D02*
D03*
X291339D02*
D03*
X280905D02*
D03*
X271649D02*
D03*
X261811D02*
D03*
X263779Y11175D02*
D03*
X273618D02*
D03*
X282874D02*
D03*
X293307D02*
D03*
X303839D02*
D03*
X343799D02*
D03*
X333366D02*
D03*
X324110D02*
D03*
X314272D02*
D03*
X161066D02*
D03*
X170905D02*
D03*
X180161D02*
D03*
X190594D02*
D03*
X201125D02*
D03*
X251618D02*
D03*
X241086D02*
D03*
X230653D02*
D03*
X221397D02*
D03*
X211559D02*
D03*
X109547D02*
D03*
X119386D02*
D03*
X128642D02*
D03*
X139075D02*
D03*
X149606D02*
D03*
X99114D02*
D03*
X88583D02*
D03*
X78149D02*
D03*
X68893D02*
D03*
X201409Y205512D02*
D03*
X201958Y196555D02*
D03*
X326378Y200340D02*
D03*
X285827Y48425D02*
D03*
X283858Y46063D02*
D03*
X246850Y211811D02*
D03*
X244881Y180708D02*
D03*
X231890Y176772D02*
D03*
X250787Y211024D02*
D03*
X245669Y176378D02*
D03*
X237205Y50197D02*
D03*
X258268Y210630D02*
D03*
X199585Y218110D02*
D03*
X265914Y175984D02*
D03*
X224016Y176392D02*
D03*
X217322Y99212D02*
D03*
X222441Y138189D02*
D03*
X247638Y205315D02*
D03*
X244094Y21654D02*
D03*
X213779Y201181D02*
D03*
X212205Y203150D02*
D03*
X211353Y200000D02*
D03*
X210630Y197161D02*
D03*
X234164Y22047D02*
D03*
X239272Y24409D02*
D03*
X258268Y200340D02*
D03*
X246063Y31400D02*
D03*
X219291Y32677D02*
D03*
X260630Y204724D02*
D03*
X250394Y120334D02*
D03*
X227559Y182677D02*
D03*
X235826Y177952D02*
D03*
X231299Y114567D02*
D03*
X226094Y121117D02*
D03*
X231398Y110331D02*
D03*
Y41732D02*
D03*
X224803Y184252D02*
D03*
X227636Y143307D02*
D03*
X226378Y131890D02*
D03*
X227067Y44488D02*
D03*
X240551Y180315D02*
D03*
X216402Y180113D02*
D03*
X198829Y113096D02*
D03*
X202808Y64940D02*
D03*
X198819Y63976D02*
D03*
X203061Y118214D02*
D03*
X200788Y117323D02*
D03*
X200787Y119882D02*
D03*
X199202Y115453D02*
D03*
X197549Y117230D02*
D03*
X198000Y120100D02*
D03*
X193316Y119986D02*
D03*
X198808Y68898D02*
D03*
X194813Y76890D02*
D03*
X209842Y159031D02*
D03*
X207087Y161417D02*
D03*
X211811Y151181D02*
D03*
X174803Y149606D02*
D03*
X189469Y169700D02*
D03*
X182382Y136909D02*
D03*
X179044Y137211D02*
D03*
X175796Y137015D02*
D03*
X172146Y136625D02*
D03*
X177457Y123425D02*
D03*
X175098Y122733D02*
D03*
X173622Y84874D02*
D03*
X181496Y20079D02*
D03*
X184646Y22441D02*
D03*
X188189Y24409D02*
D03*
X191732Y26681D02*
D03*
X195788Y28740D02*
D03*
X196457Y40945D02*
D03*
X197244Y43701D02*
D03*
X247846Y178347D02*
D03*
X210236Y175197D02*
D03*
X206693Y178347D02*
D03*
X201958Y168099D02*
D03*
X203937Y164567D02*
D03*
X231890Y147638D02*
D03*
X217900Y78800D02*
D03*
X216228Y80992D02*
D03*
X221074Y101777D02*
D03*
X222539Y98327D02*
D03*
X228937Y155512D02*
D03*
X206534Y47244D02*
D03*
X183109Y64978D02*
D03*
X171883Y60200D02*
D03*
X192531Y64940D02*
D03*
X189960Y60039D02*
D03*
X195866Y62008D02*
D03*
X178839Y65436D02*
D03*
X174705Y68588D02*
D03*
X181595Y69295D02*
D03*
X177199Y55379D02*
D03*
X187131Y80832D02*
D03*
X183090Y80727D02*
D03*
X190551Y88189D02*
D03*
X187008Y88583D02*
D03*
X187007Y92519D02*
D03*
X194882Y92520D02*
D03*
X183109Y92519D02*
D03*
X272601Y72421D02*
D03*
X265748Y66296D02*
D03*
X268686Y73571D02*
D03*
X263779Y68701D02*
D03*
X237063Y99993D02*
D03*
X193021Y71161D02*
D03*
X206694Y68110D02*
D03*
X200394Y53445D02*
D03*
X203100Y61200D02*
D03*
X198819Y80708D02*
D03*
X202756Y80709D02*
D03*
X206693D02*
D03*
Y84646D02*
D03*
X174705Y102461D02*
D03*
X164507Y100650D02*
D03*
X198819Y96457D02*
D03*
X190945Y100394D02*
D03*
X194883D02*
D03*
X183071D02*
D03*
X248031Y189764D02*
D03*
X216929Y134153D02*
D03*
X253150Y144095D02*
D03*
X257874Y161811D02*
D03*
X222441Y135630D02*
D03*
X186221Y190650D02*
D03*
X198041Y188583D02*
D03*
X128347Y201575D02*
D03*
Y204331D02*
D03*
X188976Y64960D02*
D03*
X131299Y79232D02*
D03*
X131890Y74508D02*
D03*
X129348Y64961D02*
D03*
X133995Y65256D02*
D03*
X140500Y68398D02*
D03*
X125984Y61024D02*
D03*
X130315Y70079D02*
D03*
X136708Y67115D02*
D03*
X138583Y64370D02*
D03*
X127270Y58960D02*
D03*
X159449Y140945D02*
D03*
X172834Y164567D02*
D03*
X176179Y160530D02*
D03*
X185800Y166562D02*
D03*
X164862Y134941D02*
D03*
X181595Y140157D02*
D03*
X185900Y159449D02*
D03*
X188583Y204390D02*
D03*
X192997Y202279D02*
D03*
X139113Y146200D02*
D03*
X144095Y146457D02*
D03*
X199213Y208661D02*
D03*
X198342Y165800D02*
D03*
X183968Y180206D02*
D03*
X196161Y197933D02*
D03*
X128347Y198819D02*
D03*
X142520Y190551D02*
D03*
X144783Y192520D02*
D03*
X124016Y147638D02*
D03*
X198140Y49609D02*
D03*
X217441Y142126D02*
D03*
X210148Y139869D02*
D03*
X203346Y154429D02*
D03*
X214381Y140558D02*
D03*
X165354Y152854D02*
D03*
X286171Y169291D02*
D03*
X114173Y135433D02*
D03*
X115354Y148031D02*
D03*
X105905Y140551D02*
D03*
X187992Y152271D02*
D03*
X193150Y155512D02*
D03*
X200699Y158374D02*
D03*
X199585Y160531D02*
D03*
X196949Y160335D02*
D03*
X131010Y96794D02*
D03*
X123228Y94784D02*
D03*
X125984Y85630D02*
D03*
X126083Y83071D02*
D03*
X134761Y97030D02*
D03*
X202609Y84646D02*
D03*
X172121Y92308D02*
D03*
X214364Y70177D02*
D03*
X210630Y69291D02*
D03*
X57087Y109941D02*
D03*
Y122150D02*
D03*
Y101772D02*
D03*
Y83957D02*
D03*
X96555Y68602D02*
D03*
X98654Y69717D02*
D03*
X204538Y152271D02*
D03*
X195965Y138681D02*
D03*
X143307Y63540D02*
D03*
X141672Y39764D02*
D03*
X141831Y45768D02*
D03*
X92682Y147638D02*
D03*
X89567Y96457D02*
D03*
X137795Y25600D02*
D03*
X127942Y34055D02*
D03*
X165354Y72835D02*
D03*
X147638Y72648D02*
D03*
X139764Y125984D02*
D03*
X179724Y152854D02*
D03*
X160156Y146457D02*
D03*
X220002Y122736D02*
D03*
X166400Y59800D02*
D03*
X147600Y86200D02*
D03*
X154488Y58760D02*
D03*
X66300Y31400D02*
D03*
X59055Y11175D02*
D03*
X277953Y132491D02*
D03*
X88583Y230315D02*
D03*
X46200Y153400D02*
D03*
Y112200D02*
D03*
X46400Y82829D02*
D03*
X45600Y48652D02*
D03*
X49610Y35433D02*
D03*
X231300Y126800D02*
D03*
X199155D02*
D03*
X196368Y126679D02*
D03*
X193150Y128051D02*
D03*
X183071Y96457D02*
D03*
X214539Y65264D02*
D03*
X219291Y62992D02*
D03*
X132000Y52500D02*
D03*
X140574Y49682D02*
D03*
X136259Y52756D02*
D03*
X126961Y53543D02*
D03*
X107874Y81693D02*
D03*
X100394D02*
D03*
X92913Y75087D02*
D03*
X90561Y80845D02*
D03*
X99500Y55655D02*
D03*
X107579Y58071D02*
D03*
X112113Y66339D02*
D03*
X116000Y66500D02*
D03*
X128000Y46063D02*
D03*
X208662Y66500D02*
D03*
X101000Y143209D02*
D03*
X119691Y95477D02*
D03*
X108405Y91399D02*
D03*
X109454Y69688D02*
D03*
X162697Y77165D02*
D03*
Y44587D02*
D03*
X120472Y39764D02*
D03*
X166339Y43110D02*
D03*
X121567Y144987D02*
D03*
X131436Y139704D02*
D03*
X127172Y136227D02*
D03*
X206534Y96260D02*
D03*
X230413Y117027D02*
D03*
X213287Y67224D02*
D03*
X168996Y82480D02*
D03*
X186811Y136625D02*
D03*
X194596Y136818D02*
D03*
X207087Y131299D02*
D03*
X185245Y126286D02*
D03*
X181988Y125295D02*
D03*
X204538Y126565D02*
D03*
X113976Y101969D02*
D03*
X135925Y86221D02*
D03*
X153543Y99606D02*
D03*
X181111Y116443D02*
D03*
X182194Y121561D02*
D03*
X182579Y127745D02*
D03*
X190945Y137598D02*
D03*
X192531Y135670D02*
D03*
X211417Y121457D02*
D03*
X203150Y121555D02*
D03*
X208169Y122736D02*
D03*
X213583Y123622D02*
D03*
X213189Y132579D02*
D03*
X187008Y104331D02*
D03*
X190945D02*
D03*
X202569Y88587D02*
D03*
X170177Y86614D02*
D03*
X164764Y105807D02*
D03*
X168799Y91831D02*
D03*
X225000Y111811D02*
D03*
X221949Y77264D02*
D03*
X222452Y94690D02*
D03*
X228543Y98327D02*
D03*
X206693Y88583D02*
D03*
X134455Y106107D02*
D03*
X220385Y95871D02*
D03*
X224508Y82382D02*
D03*
X164764Y109646D02*
D03*
X138091Y111614D02*
D03*
X118405Y106693D02*
D03*
X157087Y105610D02*
D03*
X95571Y71161D02*
D03*
X145374Y93307D02*
D03*
X117717Y92520D02*
D03*
X108858Y98524D02*
D03*
Y95866D02*
D03*
X92028Y103642D02*
D03*
X110433Y112408D02*
D03*
X210630Y84645D02*
D03*
X128347Y122933D02*
D03*
X128740Y139173D02*
D03*
X125295Y114370D02*
D03*
X133858Y139961D02*
D03*
X125000Y124311D02*
D03*
X118012Y143209D02*
D03*
X153543Y81496D02*
D03*
X190945Y92520D02*
D03*
X103445Y50011D02*
D03*
X221260Y92520D02*
D03*
X126961Y78347D02*
D03*
X105118Y146850D02*
D03*
X136614Y46063D02*
D03*
X136259Y32677D02*
D03*
X102362Y65945D02*
D03*
X101378Y75197D02*
D03*
X101575Y26378D02*
D03*
X114961Y31890D02*
D03*
X96457Y44094D02*
D03*
X101575Y42126D02*
D03*
X69784Y86221D02*
D03*
X121200Y136614D02*
D03*
Y139370D02*
D03*
X120866Y20866D02*
D03*
X213779Y62992D02*
D03*
X102756Y112008D02*
D03*
X202757Y104331D02*
D03*
X202756Y92521D02*
D03*
X190944Y96457D02*
D03*
X111811Y127165D02*
D03*
X159449Y137795D02*
D03*
Y134646D02*
D03*
X52756Y139370D02*
D03*
Y127953D02*
D03*
X50394Y139370D02*
D03*
X64961Y120472D02*
D03*
X61811Y47244D02*
D03*
Y51968D02*
D03*
X64961Y88189D02*
D03*
Y63976D02*
D03*
X198820Y104331D02*
D03*
X183071D02*
D03*
X194882Y96457D02*
D03*
D75*
X160570Y197638D02*
D03*
X164901D02*
D03*
X169232D02*
D03*
X160570Y193307D02*
D03*
X164901D02*
D03*
X169232D02*
D03*
X160570Y188976D02*
D03*
X164901D02*
D03*
X169232D02*
D03*
X160570Y184646D02*
D03*
X164901D02*
D03*
X169232D02*
D03*
X160570Y180315D02*
D03*
X164901D02*
D03*
X169232D02*
D03*
D103*
X218307Y193504D02*
D03*
Y195472D02*
D03*
Y197441D02*
D03*
Y199409D02*
D03*
Y201378D02*
D03*
Y203346D02*
D03*
Y205315D02*
D03*
Y207283D02*
D03*
Y209252D02*
D03*
Y211221D02*
D03*
X241535D02*
D03*
Y209252D02*
D03*
Y207283D02*
D03*
Y205315D02*
D03*
Y203346D02*
D03*
Y201378D02*
D03*
Y199409D02*
D03*
Y197441D02*
D03*
Y195472D02*
D03*
Y193504D02*
D03*
D104*
X221063Y213976D02*
D03*
X223031D02*
D03*
X225000D02*
D03*
X226969D02*
D03*
X228937D02*
D03*
X230906D02*
D03*
X232874D02*
D03*
X234842D02*
D03*
X236811D02*
D03*
X238779D02*
D03*
Y190748D02*
D03*
X236811D02*
D03*
X234842D02*
D03*
X232874D02*
D03*
X230906D02*
D03*
X228937D02*
D03*
X226969D02*
D03*
X225000D02*
D03*
X223031D02*
D03*
X221063D02*
D03*
D105*
X229921Y202362D02*
D03*
D106*
X278779Y200492D02*
D03*
X270511D02*
D03*
Y193996D02*
D03*
X278779D02*
D03*
D107*
X92027Y49606D02*
D03*
Y54724D02*
D03*
X99311Y52165D02*
D03*
X92815Y109646D02*
D03*
Y114764D02*
D03*
X100099Y112205D02*
D03*
X93799Y61417D02*
D03*
Y66535D02*
D03*
X101083Y63976D02*
D03*
D108*
X54232Y133858D02*
D03*
X65847D02*
D03*
D109*
X67441Y118110D02*
D03*
Y116142D02*
D03*
Y114173D02*
D03*
X62008Y118110D02*
D03*
Y116142D02*
D03*
Y114173D02*
D03*
X67441Y94488D02*
D03*
Y92520D02*
D03*
Y90551D02*
D03*
X62008Y94488D02*
D03*
Y92520D02*
D03*
Y90551D02*
D03*
X67913Y70866D02*
D03*
Y68898D02*
D03*
Y66929D02*
D03*
X62480Y70866D02*
D03*
Y68898D02*
D03*
Y66929D02*
D03*
D110*
X64724Y116142D02*
D03*
Y92520D02*
D03*
X65197Y68898D02*
D03*
D111*
X116329Y56299D02*
D03*
X116938Y80906D02*
D03*
D112*
X110611Y63976D02*
D03*
Y61417D02*
D03*
Y58858D02*
D03*
Y56299D02*
D03*
Y53740D02*
D03*
Y51181D02*
D03*
Y48622D02*
D03*
X122047D02*
D03*
Y51181D02*
D03*
Y53740D02*
D03*
Y56299D02*
D03*
Y58858D02*
D03*
Y61417D02*
D03*
Y63976D02*
D03*
X111221Y88583D02*
D03*
Y86024D02*
D03*
Y83465D02*
D03*
Y80906D02*
D03*
Y78347D02*
D03*
Y75788D02*
D03*
Y73229D02*
D03*
X122657D02*
D03*
Y75788D02*
D03*
Y78347D02*
D03*
Y80906D02*
D03*
Y83465D02*
D03*
Y86024D02*
D03*
Y88583D02*
D03*
D113*
X195079Y81791D02*
D03*
Y89468D02*
D03*
M02*
