G04*
G04 #@! TF.GenerationSoftware,Altium Limited,Altium Designer,19.0.4 (130)*
G04*
G04 Layer_Color=65535*
%FSLAX25Y25*%
%MOIN*%
G70*
G01*
G75*
%ADD10C,0.00984*%
%ADD11C,0.02362*%
%ADD12C,0.00394*%
%ADD13C,0.00787*%
%ADD14C,0.00030*%
%ADD15C,0.01000*%
%ADD16C,0.00700*%
%ADD17C,0.00606*%
%ADD18C,0.00600*%
D10*
X124213Y44291D02*
G03*
X124213Y44291I-492J0D01*
G01*
X124251Y30512D02*
G03*
X124251Y30512I-492J0D01*
G01*
X179960Y166831D02*
G03*
X179960Y166831I-492J0D01*
G01*
X341240Y154724D02*
G03*
X341240Y154724I-492J0D01*
G01*
D11*
X172775Y171063D02*
G03*
X172775Y171063I-1181J0D01*
G01*
D12*
X110138Y130905D02*
G03*
X110138Y130905I-197J0D01*
G01*
X120728Y128421D02*
G03*
X120728Y128421I-197J0D01*
G01*
X104035Y132087D02*
Y137598D01*
X102067Y132874D02*
X104035Y134843D01*
X102067Y132874D02*
Y136811D01*
X104035Y134843D01*
X173228Y111024D02*
X176378Y114173D01*
X173228Y70866D02*
Y111024D01*
Y70866D02*
X216535D01*
Y114173D01*
X176378D02*
X216535D01*
D13*
X122676Y92913D02*
X125432D01*
X122676Y88583D02*
X125432D01*
X134881Y202658D02*
X137637D01*
X134881Y198327D02*
X137637D01*
X130217Y34252D02*
Y36024D01*
X126279Y34252D02*
X130217D01*
Y41142D02*
Y42913D01*
X126279D02*
X130217D01*
X130255Y20472D02*
Y22244D01*
X126318Y20472D02*
X130255D01*
Y27362D02*
Y29134D01*
X126318D02*
X130255D01*
X98134Y51842D02*
X103646D01*
X98134Y57157D02*
X103646D01*
X98622Y64665D02*
X104134D01*
X98622Y59350D02*
X104134D01*
X98622Y75098D02*
X104134D01*
X98622Y80413D02*
X104134D01*
X98622Y88287D02*
X104134D01*
X98622Y82972D02*
X104134D01*
X99606Y105610D02*
X105118D01*
X99606Y110925D02*
X105118D01*
X99606Y118799D02*
X105118D01*
X99606Y113484D02*
X105118D01*
X124213Y121358D02*
X129724D01*
X124213Y126673D02*
X129724D01*
X124213Y116831D02*
X129724D01*
X124213Y111516D02*
X129724D01*
X127204Y132972D02*
X134684D01*
X127204Y142618D02*
X134684D01*
X146200Y142618D02*
X153680D01*
X146200Y132973D02*
X153680D01*
X152165Y163779D02*
X152559D01*
X152165Y161417D02*
X152559D01*
X151181Y151578D02*
X155905D01*
X151181Y157287D02*
X155905D01*
X191929Y180905D02*
X194685D01*
X191929Y185236D02*
X194685D01*
X154271Y210827D02*
X175531D01*
X154271Y167126D02*
X175531D01*
X154271D02*
Y210827D01*
X175531Y167126D02*
Y210827D01*
X314567Y136614D02*
Y150000D01*
X340945Y136614D02*
Y150000D01*
X314567Y136614D02*
X340945D01*
X314567Y150000D02*
X340945D01*
X328850Y203693D02*
Y209693D01*
X327850Y203693D02*
Y209693D01*
X315850Y203693D02*
X328850D01*
X315850D02*
Y209693D01*
X328850D01*
X153975Y97736D02*
X165589D01*
X153975Y83366D02*
Y97736D01*
X165589Y83366D02*
Y97736D01*
X153975Y83366D02*
X165589D01*
D14*
X242344Y125460D02*
X242645D01*
X247265D02*
X247565D01*
X264995D02*
X265475D01*
X242254Y125430D02*
X242735D01*
X247175D02*
X247655D01*
X264814D02*
X265654D01*
X242195Y125400D02*
X242794D01*
X247114D02*
X247714D01*
X264694D02*
X265744D01*
X242134Y125370D02*
X242854D01*
X247055D02*
X247775D01*
X264634D02*
X265834D01*
X242105Y125340D02*
X242884D01*
X247024D02*
X247804D01*
X264545D02*
X265925D01*
X242074Y125310D02*
X242915D01*
X246994D02*
X247834D01*
X264485D02*
X265985D01*
X242044Y125280D02*
X242945D01*
X246965D02*
X247865D01*
X264424D02*
X266015D01*
X242015Y125250D02*
X242974D01*
X246935D02*
X247895D01*
X264394D02*
X266074D01*
X241985Y125220D02*
X243004D01*
X246904D02*
X247924D01*
X264335D02*
X266105D01*
X241954Y125190D02*
X243004D01*
X246904D02*
X247924D01*
X264304D02*
X266164D01*
X241954Y125160D02*
X243035D01*
X246874D02*
X247955D01*
X264275D02*
X266195D01*
X241925Y125130D02*
X243035D01*
X246874D02*
X247985D01*
X264245D02*
X266225D01*
X241925Y125100D02*
X243064D01*
X246845D02*
X247985D01*
X264214D02*
X266254D01*
X241925Y125070D02*
X243064D01*
X246845D02*
X247985D01*
X264184D02*
X266284D01*
X241895Y125040D02*
X243094D01*
X246814D02*
X248014D01*
X264155D02*
X266315D01*
X241895Y125010D02*
X243094D01*
X246814D02*
X248014D01*
X264124D02*
X266344D01*
X241895Y124980D02*
X243094D01*
X246814D02*
X248014D01*
X264094D02*
X266374D01*
X241895Y124950D02*
X243094D01*
X246814D02*
X248014D01*
X264065D02*
X266405D01*
X241864Y124920D02*
X243125D01*
X246784D02*
X248044D01*
X264035D02*
X266435D01*
X241864Y124890D02*
X243125D01*
X246784D02*
X248044D01*
X264004D02*
X266464D01*
X241864Y124860D02*
X243125D01*
X246784D02*
X248044D01*
X264004D02*
X266464D01*
X241864Y124830D02*
X243125D01*
X246784D02*
X248044D01*
X263974D02*
X266494D01*
X241864Y124800D02*
X243125D01*
X246784D02*
X248044D01*
X263945D02*
X266525D01*
X241864Y124770D02*
X243125D01*
X246784D02*
X248044D01*
X263914D02*
X266525D01*
X241864Y124740D02*
X243125D01*
X246784D02*
X248044D01*
X263914D02*
X266554D01*
X241864Y124710D02*
X243125D01*
X246784D02*
X248044D01*
X263884D02*
X266584D01*
X241864Y124680D02*
X243125D01*
X246784D02*
X248044D01*
X263855D02*
X266584D01*
X241864Y124650D02*
X243125D01*
X246784D02*
X248044D01*
X263855D02*
X266615D01*
X241864Y124620D02*
X243125D01*
X246784D02*
X248044D01*
X263825D02*
X266645D01*
X241864Y124590D02*
X243125D01*
X246784D02*
X248044D01*
X263825D02*
X266645D01*
X241864Y124560D02*
X243125D01*
X246784D02*
X248044D01*
X263794D02*
X266674D01*
X241864Y124530D02*
X243125D01*
X246784D02*
X248044D01*
X263765D02*
X266674D01*
X241864Y124500D02*
X243125D01*
X246784D02*
X248044D01*
X263765D02*
X266705D01*
X241864Y124470D02*
X243125D01*
X246784D02*
X248044D01*
X263735D02*
X266735D01*
X241864Y124440D02*
X243125D01*
X246784D02*
X248044D01*
X263735D02*
X266735D01*
X241864Y124410D02*
X243125D01*
X246784D02*
X248044D01*
X263704D02*
X266764D01*
X241864Y124380D02*
X243125D01*
X246784D02*
X248044D01*
X263704D02*
X266764D01*
X241864Y124350D02*
X243125D01*
X246784D02*
X248044D01*
X263674D02*
X266794D01*
X241864Y124320D02*
X243125D01*
X246784D02*
X248044D01*
X263674D02*
X266794D01*
X241864Y124290D02*
X243125D01*
X246784D02*
X248044D01*
X263645D02*
X266825D01*
X241864Y124260D02*
X243125D01*
X246784D02*
X248044D01*
X263645D02*
X266825D01*
X241864Y124230D02*
X243125D01*
X246784D02*
X248044D01*
X263615D02*
X266855D01*
X241864Y124200D02*
X243125D01*
X246784D02*
X248044D01*
X263615D02*
X265144D01*
X265354D02*
X266855D01*
X241864Y124170D02*
X243125D01*
X246784D02*
X248044D01*
X263584D02*
X265085D01*
X265415D02*
X266884D01*
X241864Y124140D02*
X243125D01*
X246784D02*
X248044D01*
X263584D02*
X265024D01*
X265444D02*
X266884D01*
X241864Y124110D02*
X243125D01*
X246784D02*
X248044D01*
X263555D02*
X264995D01*
X265475D02*
X266915D01*
X241864Y124080D02*
X243125D01*
X246784D02*
X248044D01*
X263555D02*
X264965D01*
X265505D02*
X266915D01*
X241864Y124050D02*
X243125D01*
X246784D02*
X248044D01*
X263525D02*
X264934D01*
X265505D02*
X266945D01*
X241864Y124020D02*
X243125D01*
X246784D02*
X248044D01*
X263525D02*
X264904D01*
X265534D02*
X266945D01*
X241864Y123990D02*
X243125D01*
X246784D02*
X248044D01*
X263494D02*
X264904D01*
X265564D02*
X266974D01*
X241864Y123960D02*
X243125D01*
X246784D02*
X248044D01*
X263494D02*
X264875D01*
X265564D02*
X266974D01*
X241864Y123930D02*
X243125D01*
X246784D02*
X248044D01*
X263464D02*
X264875D01*
X265595D02*
X267004D01*
X241864Y123900D02*
X243125D01*
X246784D02*
X248044D01*
X263464D02*
X264844D01*
X265595D02*
X267004D01*
X241864Y123870D02*
X243125D01*
X246784D02*
X248044D01*
X263435D02*
X264844D01*
X265624D02*
X267035D01*
X241864Y123840D02*
X243125D01*
X246784D02*
X248044D01*
X263435D02*
X264814D01*
X265624D02*
X267035D01*
X241864Y123810D02*
X243125D01*
X246784D02*
X248044D01*
X263404D02*
X264814D01*
X265654D02*
X267064D01*
X241864Y123780D02*
X243125D01*
X246784D02*
X248044D01*
X263404D02*
X264785D01*
X265654D02*
X267064D01*
X241864Y123750D02*
X243125D01*
X246784D02*
X248044D01*
X263374D02*
X264785D01*
X265685D02*
X267094D01*
X241864Y123720D02*
X243125D01*
X246784D02*
X248044D01*
X263374D02*
X264755D01*
X265685D02*
X267094D01*
X241864Y123690D02*
X243125D01*
X246784D02*
X248044D01*
X263345D02*
X264755D01*
X265715D02*
X267125D01*
X241864Y123660D02*
X243125D01*
X246784D02*
X248044D01*
X263345D02*
X264724D01*
X265715D02*
X267125D01*
X241864Y123630D02*
X243125D01*
X246784D02*
X248044D01*
X263315D02*
X264724D01*
X265744D02*
X267155D01*
X241864Y123600D02*
X243125D01*
X246784D02*
X248044D01*
X263315D02*
X264694D01*
X265744D02*
X267155D01*
X241864Y123570D02*
X243125D01*
X246784D02*
X248044D01*
X263284D02*
X264694D01*
X265774D02*
X267184D01*
X241864Y123540D02*
X243125D01*
X246784D02*
X248044D01*
X263284D02*
X264665D01*
X265774D02*
X267184D01*
X241864Y123510D02*
X243125D01*
X246784D02*
X248044D01*
X263254D02*
X264665D01*
X265805D02*
X267214D01*
X241864Y123480D02*
X243125D01*
X246784D02*
X248044D01*
X263254D02*
X264634D01*
X265805D02*
X267214D01*
X241864Y123450D02*
X243125D01*
X246784D02*
X248044D01*
X263225D02*
X264634D01*
X265834D02*
X267245D01*
X241864Y123420D02*
X243125D01*
X246784D02*
X248044D01*
X263225D02*
X264604D01*
X265834D02*
X267245D01*
X241864Y123390D02*
X243125D01*
X246784D02*
X248044D01*
X263194D02*
X264604D01*
X265864D02*
X267274D01*
X241864Y123360D02*
X243125D01*
X246784D02*
X248044D01*
X263194D02*
X264575D01*
X265864D02*
X267274D01*
X241864Y123330D02*
X243125D01*
X246784D02*
X248044D01*
X263164D02*
X264575D01*
X265895D02*
X267304D01*
X241864Y123300D02*
X243125D01*
X246784D02*
X248044D01*
X263164D02*
X264545D01*
X265895D02*
X267304D01*
X241864Y123270D02*
X243125D01*
X246784D02*
X248044D01*
X263135D02*
X264545D01*
X265925D02*
X267335D01*
X241864Y123240D02*
X243125D01*
X246784D02*
X248044D01*
X263135D02*
X264514D01*
X265925D02*
X267335D01*
X241864Y123210D02*
X243125D01*
X246784D02*
X248044D01*
X263105D02*
X264514D01*
X265954D02*
X267365D01*
X241864Y123180D02*
X243125D01*
X246784D02*
X248044D01*
X263105D02*
X264485D01*
X265954D02*
X267365D01*
X241864Y123150D02*
X243125D01*
X246784D02*
X248044D01*
X263074D02*
X264485D01*
X265985D02*
X267394D01*
X241864Y123120D02*
X243125D01*
X246784D02*
X248044D01*
X263074D02*
X264455D01*
X265985D02*
X267394D01*
X241864Y123090D02*
X243125D01*
X246784D02*
X248044D01*
X263045D02*
X264455D01*
X266015D02*
X267425D01*
X241864Y123060D02*
X243125D01*
X246784D02*
X248044D01*
X263015D02*
X264424D01*
X266015D02*
X267455D01*
X241864Y123030D02*
X243125D01*
X246784D02*
X248044D01*
X263015D02*
X264424D01*
X266044D02*
X267455D01*
X241864Y123000D02*
X243125D01*
X246784D02*
X248044D01*
X262984D02*
X264394D01*
X266074D02*
X267484D01*
X241864Y122970D02*
X243125D01*
X246784D02*
X248044D01*
X262984D02*
X264394D01*
X266074D02*
X267484D01*
X241864Y122940D02*
X243125D01*
X246784D02*
X248044D01*
X262954D02*
X264365D01*
X266105D02*
X267514D01*
X241864Y122910D02*
X243125D01*
X246784D02*
X248044D01*
X262954D02*
X264365D01*
X266105D02*
X267514D01*
X241864Y122880D02*
X243125D01*
X246784D02*
X248044D01*
X262925D02*
X264335D01*
X266135D02*
X267545D01*
X241864Y122850D02*
X243125D01*
X246784D02*
X248044D01*
X262925D02*
X264335D01*
X266135D02*
X267545D01*
X241864Y122820D02*
X243125D01*
X246784D02*
X248044D01*
X254165D02*
X255995D01*
X262895D02*
X264304D01*
X266164D02*
X267575D01*
X272795D02*
X273095D01*
X275615D02*
X276725D01*
X241864Y122790D02*
X243125D01*
X246784D02*
X248044D01*
X254014D02*
X256174D01*
X262895D02*
X264304D01*
X266164D02*
X267575D01*
X272705D02*
X273184D01*
X275434D02*
X276905D01*
X241864Y122760D02*
X243125D01*
X246784D02*
X248044D01*
X253894D02*
X256294D01*
X262864D02*
X264275D01*
X266195D02*
X267604D01*
X272644D02*
X273245D01*
X275314D02*
X277055D01*
X241864Y122730D02*
X243125D01*
X246784D02*
X248044D01*
X253804D02*
X256384D01*
X262864D02*
X264275D01*
X266195D02*
X267604D01*
X272585D02*
X273305D01*
X275224D02*
X277145D01*
X241864Y122700D02*
X243125D01*
X246784D02*
X248044D01*
X253714D02*
X256474D01*
X262835D02*
X264245D01*
X266225D02*
X267635D01*
X272554D02*
X273335D01*
X275134D02*
X277235D01*
X241864Y122670D02*
X243125D01*
X246784D02*
X248044D01*
X253655D02*
X256535D01*
X262835D02*
X264245D01*
X266225D02*
X267635D01*
X272524D02*
X273364D01*
X275044D02*
X277294D01*
X241864Y122640D02*
X243125D01*
X246784D02*
X248044D01*
X253594D02*
X256594D01*
X262805D02*
X264214D01*
X266254D02*
X267665D01*
X272495D02*
X273394D01*
X274985D02*
X277355D01*
X241864Y122610D02*
X243125D01*
X246784D02*
X248044D01*
X253535D02*
X256655D01*
X262805D02*
X264184D01*
X266254D02*
X267665D01*
X272464D02*
X273425D01*
X274924D02*
X277414D01*
X241864Y122580D02*
X243125D01*
X246784D02*
X248044D01*
X253474D02*
X256715D01*
X262774D02*
X264184D01*
X266284D02*
X267694D01*
X272434D02*
X273454D01*
X274865D02*
X277474D01*
X241864Y122550D02*
X243125D01*
X246784D02*
X248044D01*
X253415D02*
X256745D01*
X262774D02*
X264155D01*
X266284D02*
X267694D01*
X272405D02*
X273454D01*
X274804D02*
X277504D01*
X241864Y122520D02*
X243125D01*
X246784D02*
X248044D01*
X253384D02*
X256804D01*
X262744D02*
X264155D01*
X266315D02*
X267724D01*
X272405D02*
X273484D01*
X274745D02*
X277565D01*
X241864Y122490D02*
X243125D01*
X246784D02*
X248044D01*
X253325D02*
X256835D01*
X262744D02*
X264124D01*
X266315D02*
X267724D01*
X272375D02*
X273484D01*
X274685D02*
X277594D01*
X241864Y122460D02*
X243125D01*
X246784D02*
X248044D01*
X253294D02*
X256894D01*
X262715D02*
X264124D01*
X266344D02*
X267755D01*
X272375D02*
X273515D01*
X274624D02*
X277625D01*
X241864Y122430D02*
X243125D01*
X246784D02*
X248044D01*
X253264D02*
X256925D01*
X262715D02*
X264094D01*
X266344D02*
X267755D01*
X272375D02*
X273515D01*
X274594D02*
X277684D01*
X241864Y122400D02*
X243125D01*
X246784D02*
X248044D01*
X253204D02*
X256984D01*
X262684D02*
X264094D01*
X266374D02*
X267785D01*
X272344D02*
X273545D01*
X274535D02*
X277714D01*
X241864Y122370D02*
X243125D01*
X246784D02*
X248044D01*
X253174D02*
X257014D01*
X262684D02*
X264065D01*
X266374D02*
X267785D01*
X272344D02*
X273545D01*
X274504D02*
X277745D01*
X241864Y122340D02*
X243125D01*
X246784D02*
X248044D01*
X253145D02*
X257045D01*
X262654D02*
X264065D01*
X266405D02*
X267814D01*
X272344D02*
X273545D01*
X274445D02*
X277775D01*
X241864Y122310D02*
X243125D01*
X246784D02*
X248044D01*
X253115D02*
X257074D01*
X262654D02*
X264035D01*
X266405D02*
X267814D01*
X272344D02*
X273545D01*
X274414D02*
X277804D01*
X241864Y122280D02*
X243125D01*
X244805D02*
X245105D01*
X246784D02*
X248044D01*
X253054D02*
X257135D01*
X262625D02*
X264035D01*
X266435D02*
X267845D01*
X272315D02*
X273574D01*
X274355D02*
X277835D01*
X241864Y122250D02*
X243125D01*
X244714D02*
X245195D01*
X246784D02*
X248044D01*
X253025D02*
X257165D01*
X262625D02*
X264004D01*
X266435D02*
X267845D01*
X272315D02*
X273574D01*
X274324D02*
X277835D01*
X241864Y122220D02*
X243125D01*
X244624D02*
X245254D01*
X246784D02*
X248044D01*
X252994D02*
X257194D01*
X262595D02*
X264004D01*
X266464D02*
X267875D01*
X272315D02*
X273574D01*
X274265D02*
X277865D01*
X241864Y122190D02*
X243125D01*
X244595D02*
X245315D01*
X246784D02*
X248044D01*
X252964D02*
X257224D01*
X262595D02*
X263974D01*
X266464D02*
X267875D01*
X272315D02*
X273574D01*
X274235D02*
X277894D01*
X241864Y122160D02*
X243125D01*
X244565D02*
X245344D01*
X246784D02*
X248044D01*
X252905D02*
X257284D01*
X262564D02*
X263974D01*
X266494D02*
X267904D01*
X272315D02*
X273574D01*
X274174D02*
X277924D01*
X241864Y122130D02*
X243125D01*
X244504D02*
X245374D01*
X246784D02*
X248044D01*
X252874D02*
X257314D01*
X262564D02*
X263945D01*
X266494D02*
X267904D01*
X272315D02*
X273574D01*
X274145D02*
X277924D01*
X241864Y122100D02*
X243125D01*
X244475D02*
X245405D01*
X246784D02*
X248044D01*
X252845D02*
X257345D01*
X262534D02*
X263945D01*
X266525D02*
X267934D01*
X272315D02*
X273574D01*
X274084D02*
X277955D01*
X241864Y122070D02*
X243125D01*
X244475D02*
X245434D01*
X246784D02*
X248044D01*
X252815D02*
X257375D01*
X262534D02*
X263914D01*
X266525D02*
X267934D01*
X272315D02*
X273574D01*
X274055D02*
X277984D01*
X241864Y122040D02*
X243125D01*
X244444D02*
X245464D01*
X246784D02*
X248044D01*
X252754D02*
X257435D01*
X262505D02*
X263914D01*
X266554D02*
X267965D01*
X272315D02*
X273574D01*
X273994D02*
X277984D01*
X241864Y122010D02*
X243125D01*
X244414D02*
X245495D01*
X246784D02*
X248044D01*
X252725D02*
X257465D01*
X262505D02*
X263884D01*
X266554D02*
X267965D01*
X272315D02*
X273574D01*
X273965D02*
X278014D01*
X241864Y121980D02*
X243125D01*
X244414D02*
X245495D01*
X246784D02*
X248044D01*
X252695D02*
X257494D01*
X262474D02*
X263884D01*
X266584D02*
X267994D01*
X272315D02*
X273574D01*
X273904D02*
X278014D01*
X241864Y121950D02*
X243125D01*
X244385D02*
X245525D01*
X246784D02*
X248044D01*
X252635D02*
X257524D01*
X262474D02*
X263855D01*
X266584D02*
X267994D01*
X272315D02*
X273574D01*
X273874D02*
X278045D01*
X241864Y121920D02*
X243125D01*
X244385D02*
X245525D01*
X246784D02*
X248044D01*
X252605D02*
X257585D01*
X262444D02*
X263855D01*
X266615D02*
X268024D01*
X272315D02*
X273574D01*
X273815D02*
X278045D01*
X241864Y121890D02*
X243125D01*
X244355D02*
X245525D01*
X246784D02*
X248044D01*
X252574D02*
X257614D01*
X262444D02*
X263825D01*
X266615D02*
X268024D01*
X272315D02*
X273574D01*
X273784D02*
X278075D01*
X241864Y121860D02*
X243125D01*
X244355D02*
X245554D01*
X246784D02*
X248044D01*
X252544D02*
X257645D01*
X262415D02*
X263825D01*
X266645D02*
X268055D01*
X272315D02*
X273574D01*
X273725D02*
X278075D01*
X241864Y121830D02*
X243125D01*
X244355D02*
X245554D01*
X246784D02*
X248044D01*
X252515D02*
X257675D01*
X262415D02*
X263794D01*
X266645D02*
X268055D01*
X272315D02*
X273574D01*
X273694D02*
X278104D01*
X241864Y121800D02*
X243125D01*
X244355D02*
X245554D01*
X246784D02*
X248044D01*
X252484D02*
X257704D01*
X262385D02*
X263794D01*
X266674D02*
X268085D01*
X272315D02*
X273574D01*
X273664D02*
X278104D01*
X241864Y121770D02*
X243125D01*
X244324D02*
X245585D01*
X246784D02*
X248044D01*
X252454D02*
X257704D01*
X262385D02*
X263765D01*
X266674D02*
X268085D01*
X272315D02*
X273574D01*
X273604D02*
X278104D01*
X241864Y121740D02*
X243125D01*
X244324D02*
X245585D01*
X246784D02*
X248044D01*
X252454D02*
X257734D01*
X262354D02*
X263765D01*
X266705D02*
X268114D01*
X272315D02*
X278134D01*
X241864Y121710D02*
X243125D01*
X244324D02*
X245585D01*
X246784D02*
X248044D01*
X252425D02*
X257765D01*
X262354D02*
X263735D01*
X266735D02*
X268114D01*
X272315D02*
X278134D01*
X241864Y121680D02*
X243125D01*
X244324D02*
X245585D01*
X246784D02*
X248044D01*
X252395D02*
X257794D01*
X262325D02*
X263735D01*
X266735D02*
X268144D01*
X272315D02*
X278165D01*
X241864Y121650D02*
X243125D01*
X244324D02*
X245585D01*
X246784D02*
X248044D01*
X252364D02*
X257824D01*
X262325D02*
X263704D01*
X266764D02*
X268144D01*
X272315D02*
X278165D01*
X241864Y121620D02*
X243125D01*
X244324D02*
X245585D01*
X246784D02*
X248044D01*
X252334D02*
X257824D01*
X262325D02*
X263704D01*
X266764D02*
X268144D01*
X272315D02*
X278165D01*
X241864Y121590D02*
X243125D01*
X244324D02*
X245585D01*
X246784D02*
X248044D01*
X252334D02*
X254285D01*
X255905D02*
X257855D01*
X262295D02*
X263674D01*
X266794D02*
X268175D01*
X272315D02*
X278194D01*
X241864Y121560D02*
X243125D01*
X244324D02*
X245585D01*
X246784D02*
X248044D01*
X252305D02*
X254194D01*
X255995D02*
X257885D01*
X262295D02*
X263674D01*
X266794D02*
X268175D01*
X272315D02*
X275734D01*
X276484D02*
X278194D01*
X241864Y121530D02*
X243125D01*
X244324D02*
X245585D01*
X246784D02*
X248044D01*
X252305D02*
X254134D01*
X256054D02*
X257885D01*
X262264D02*
X263645D01*
X266825D02*
X268175D01*
X272315D02*
X275615D01*
X276574D02*
X278194D01*
X241864Y121500D02*
X243125D01*
X244324D02*
X245585D01*
X246784D02*
X248044D01*
X252274D02*
X254104D01*
X256084D02*
X257914D01*
X262264D02*
X263645D01*
X266825D02*
X268204D01*
X272315D02*
X275524D01*
X276664D02*
X278194D01*
X241864Y121470D02*
X243125D01*
X244324D02*
X245585D01*
X246784D02*
X248044D01*
X252244D02*
X254045D01*
X256144D02*
X257914D01*
X262264D02*
X263615D01*
X266855D02*
X268204D01*
X272315D02*
X275465D01*
X276725D02*
X278224D01*
X241864Y121440D02*
X243125D01*
X244324D02*
X245585D01*
X246784D02*
X248044D01*
X252244D02*
X254014D01*
X256174D02*
X257944D01*
X262264D02*
X263615D01*
X266855D02*
X268204D01*
X272315D02*
X275405D01*
X276754D02*
X278224D01*
X241864Y121410D02*
X243125D01*
X244324D02*
X245585D01*
X246784D02*
X248044D01*
X252215D02*
X253984D01*
X256205D02*
X257975D01*
X262234D02*
X263584D01*
X266884D02*
X268234D01*
X272315D02*
X275344D01*
X276784D02*
X278224D01*
X241864Y121380D02*
X243125D01*
X244324D02*
X245585D01*
X246784D02*
X248044D01*
X252215D02*
X253924D01*
X256235D02*
X257975D01*
X262234D02*
X263584D01*
X266884D02*
X268234D01*
X272315D02*
X275285D01*
X276815D02*
X278224D01*
X241864Y121350D02*
X243125D01*
X244324D02*
X245585D01*
X246784D02*
X248044D01*
X252185D02*
X253894D01*
X256294D02*
X258004D01*
X262234D02*
X263555D01*
X266915D02*
X268234D01*
X272315D02*
X275224D01*
X276845D02*
X278255D01*
X241864Y121320D02*
X243125D01*
X244324D02*
X245585D01*
X246784D02*
X248044D01*
X252185D02*
X253865D01*
X256325D02*
X258004D01*
X262234D02*
X263555D01*
X266915D02*
X268234D01*
X272315D02*
X275165D01*
X276874D02*
X278255D01*
X241864Y121290D02*
X243125D01*
X244324D02*
X245585D01*
X246784D02*
X248044D01*
X252154D02*
X253835D01*
X256354D02*
X258034D01*
X262205D02*
X263525D01*
X266945D02*
X268265D01*
X272315D02*
X275134D01*
X276905D02*
X278255D01*
X241864Y121260D02*
X243125D01*
X244324D02*
X245585D01*
X246784D02*
X248044D01*
X252154D02*
X253804D01*
X256384D02*
X258034D01*
X262205D02*
X263525D01*
X266945D02*
X268265D01*
X272315D02*
X275075D01*
X276905D02*
X278255D01*
X241864Y121230D02*
X243125D01*
X244324D02*
X245585D01*
X246784D02*
X248044D01*
X252154D02*
X253745D01*
X256415D02*
X258034D01*
X262205D02*
X263494D01*
X266974D02*
X268265D01*
X272315D02*
X275014D01*
X276935D02*
X278285D01*
X241864Y121200D02*
X243125D01*
X244324D02*
X245585D01*
X246784D02*
X248044D01*
X252125D02*
X253714D01*
X256474D02*
X258065D01*
X262205D02*
X263494D01*
X266974D02*
X268265D01*
X272315D02*
X274985D01*
X276935D02*
X278285D01*
X241864Y121170D02*
X243125D01*
X244324D02*
X245585D01*
X246784D02*
X248044D01*
X252125D02*
X253684D01*
X256505D02*
X258065D01*
X262205D02*
X263494D01*
X266974D02*
X268265D01*
X272315D02*
X274924D01*
X276964D02*
X278285D01*
X241864Y121140D02*
X243125D01*
X244324D02*
X245585D01*
X246784D02*
X248044D01*
X252095D02*
X253655D01*
X256535D02*
X258095D01*
X262175D02*
X263464D01*
X267004D02*
X268295D01*
X272315D02*
X274894D01*
X276964D02*
X278285D01*
X241864Y121110D02*
X243125D01*
X244324D02*
X245585D01*
X246784D02*
X248044D01*
X252095D02*
X253625D01*
X256564D02*
X258095D01*
X262175D02*
X263464D01*
X267004D02*
X268295D01*
X272315D02*
X274834D01*
X276994D02*
X278285D01*
X241864Y121080D02*
X243125D01*
X244324D02*
X245585D01*
X246784D02*
X248044D01*
X252095D02*
X253594D01*
X256594D02*
X258095D01*
X262175D02*
X263464D01*
X267004D02*
X268295D01*
X272315D02*
X274804D01*
X276994D02*
X278285D01*
X241864Y121050D02*
X243125D01*
X244324D02*
X245585D01*
X246784D02*
X248044D01*
X252064D02*
X253535D01*
X256655D02*
X258095D01*
X262175D02*
X263464D01*
X267004D02*
X268295D01*
X272315D02*
X274745D01*
X276994D02*
X278314D01*
X241864Y121020D02*
X243125D01*
X244324D02*
X245585D01*
X246784D02*
X248044D01*
X252064D02*
X253504D01*
X256684D02*
X258124D01*
X262175D02*
X263435D01*
X267035D02*
X268295D01*
X272315D02*
X274714D01*
X277025D02*
X278314D01*
X241864Y120990D02*
X243125D01*
X244324D02*
X245585D01*
X246784D02*
X248044D01*
X252064D02*
X253474D01*
X256715D02*
X258124D01*
X262175D02*
X263435D01*
X267035D02*
X268295D01*
X272315D02*
X274655D01*
X277025D02*
X278314D01*
X241864Y120960D02*
X243125D01*
X244324D02*
X245585D01*
X246784D02*
X248044D01*
X252064D02*
X253445D01*
X256745D02*
X258124D01*
X262175D02*
X263435D01*
X267035D02*
X268295D01*
X272315D02*
X274624D01*
X277025D02*
X278314D01*
X241864Y120930D02*
X243125D01*
X244324D02*
X245585D01*
X246784D02*
X248044D01*
X252034D02*
X253415D01*
X256774D02*
X258155D01*
X262144D02*
X263435D01*
X267035D02*
X268324D01*
X272315D02*
X274565D01*
X277025D02*
X278314D01*
X241864Y120900D02*
X243125D01*
X244324D02*
X245585D01*
X246784D02*
X248044D01*
X252034D02*
X253384D01*
X256804D02*
X258155D01*
X262144D02*
X263435D01*
X267035D02*
X268324D01*
X272315D02*
X274535D01*
X277055D02*
X278314D01*
X241864Y120870D02*
X243125D01*
X244324D02*
X245585D01*
X246784D02*
X248044D01*
X252034D02*
X253355D01*
X256835D02*
X258155D01*
X262144D02*
X263435D01*
X267035D02*
X268324D01*
X272315D02*
X274475D01*
X277055D02*
X278314D01*
X241864Y120840D02*
X243125D01*
X244324D02*
X245585D01*
X246784D02*
X248044D01*
X252034D02*
X253355D01*
X256835D02*
X258155D01*
X262144D02*
X263404D01*
X267064D02*
X268324D01*
X272315D02*
X274445D01*
X277055D02*
X278314D01*
X241864Y120810D02*
X243125D01*
X244324D02*
X245585D01*
X246784D02*
X248044D01*
X252034D02*
X253325D01*
X256865D02*
X258155D01*
X262144D02*
X263404D01*
X267064D02*
X268324D01*
X272315D02*
X274384D01*
X277055D02*
X278314D01*
X241864Y120780D02*
X243125D01*
X244324D02*
X245585D01*
X246784D02*
X248044D01*
X252034D02*
X253325D01*
X256865D02*
X258155D01*
X262144D02*
X263404D01*
X267064D02*
X268324D01*
X272315D02*
X274355D01*
X277055D02*
X278314D01*
X241864Y120750D02*
X243125D01*
X244324D02*
X245585D01*
X246784D02*
X248044D01*
X252005D02*
X253294D01*
X256894D02*
X258185D01*
X262144D02*
X263404D01*
X267064D02*
X268324D01*
X272315D02*
X274294D01*
X277055D02*
X278344D01*
X241864Y120720D02*
X243125D01*
X244324D02*
X245585D01*
X246784D02*
X248044D01*
X252005D02*
X253294D01*
X256894D02*
X258185D01*
X262144D02*
X263404D01*
X267064D02*
X268324D01*
X272315D02*
X274265D01*
X277084D02*
X278344D01*
X241864Y120690D02*
X243125D01*
X244324D02*
X245585D01*
X246784D02*
X248044D01*
X252005D02*
X253294D01*
X256894D02*
X258185D01*
X262144D02*
X263404D01*
X267064D02*
X268324D01*
X272315D02*
X274204D01*
X277084D02*
X278344D01*
X241864Y120660D02*
X243125D01*
X244324D02*
X245585D01*
X246784D02*
X248044D01*
X252005D02*
X253264D01*
X256925D02*
X258185D01*
X262144D02*
X263404D01*
X267064D02*
X268324D01*
X272315D02*
X274174D01*
X277084D02*
X278344D01*
X241864Y120630D02*
X243125D01*
X244324D02*
X245585D01*
X246784D02*
X248044D01*
X252005D02*
X253264D01*
X256925D02*
X258185D01*
X262144D02*
X263404D01*
X267064D02*
X268324D01*
X272315D02*
X274114D01*
X277084D02*
X278344D01*
X241864Y120600D02*
X243125D01*
X244324D02*
X245585D01*
X246784D02*
X248044D01*
X252005D02*
X253264D01*
X256925D02*
X258185D01*
X262144D02*
X263404D01*
X267064D02*
X268324D01*
X272315D02*
X274084D01*
X277084D02*
X278344D01*
X241864Y120570D02*
X243125D01*
X244324D02*
X245585D01*
X246784D02*
X248044D01*
X252005D02*
X253264D01*
X256925D02*
X258185D01*
X262144D02*
X263404D01*
X267064D02*
X268324D01*
X272315D02*
X274025D01*
X277084D02*
X278344D01*
X241864Y120540D02*
X243125D01*
X244324D02*
X245585D01*
X246784D02*
X248044D01*
X252005D02*
X253264D01*
X256925D02*
X258185D01*
X262144D02*
X263404D01*
X267064D02*
X268324D01*
X272315D02*
X273994D01*
X277084D02*
X278344D01*
X241864Y120510D02*
X243125D01*
X244324D02*
X245585D01*
X246784D02*
X248044D01*
X252005D02*
X253264D01*
X256925D02*
X258185D01*
X262144D02*
X263404D01*
X267064D02*
X268324D01*
X272315D02*
X273935D01*
X277084D02*
X278344D01*
X241864Y120480D02*
X243125D01*
X244324D02*
X245585D01*
X246784D02*
X248044D01*
X252005D02*
X253264D01*
X256925D02*
X258185D01*
X262144D02*
X263404D01*
X267064D02*
X268324D01*
X272315D02*
X273904D01*
X277084D02*
X278344D01*
X241864Y120450D02*
X243125D01*
X244324D02*
X245585D01*
X246784D02*
X248044D01*
X252005D02*
X253264D01*
X256925D02*
X258185D01*
X262144D02*
X263404D01*
X267064D02*
X268324D01*
X272315D02*
X273845D01*
X277084D02*
X278344D01*
X241864Y120420D02*
X243125D01*
X244324D02*
X245585D01*
X246784D02*
X248044D01*
X252005D02*
X253264D01*
X256925D02*
X258185D01*
X262144D02*
X263404D01*
X267064D02*
X268324D01*
X272315D02*
X273815D01*
X277084D02*
X278344D01*
X241864Y120390D02*
X243125D01*
X244324D02*
X245585D01*
X246784D02*
X248044D01*
X252005D02*
X253264D01*
X256925D02*
X258185D01*
X262144D02*
X263435D01*
X267035D02*
X268324D01*
X272315D02*
X273755D01*
X277084D02*
X278344D01*
X241864Y120360D02*
X243125D01*
X244324D02*
X245585D01*
X246784D02*
X248044D01*
X252005D02*
X253264D01*
X256925D02*
X258185D01*
X262144D02*
X263435D01*
X267035D02*
X268324D01*
X272315D02*
X273725D01*
X277084D02*
X278344D01*
X241864Y120330D02*
X243125D01*
X244324D02*
X245585D01*
X246784D02*
X248044D01*
X252005D02*
X253264D01*
X256925D02*
X258185D01*
X262144D02*
X263435D01*
X267035D02*
X268324D01*
X272315D02*
X273664D01*
X277084D02*
X278344D01*
X241864Y120300D02*
X243125D01*
X244324D02*
X245585D01*
X246784D02*
X248044D01*
X252005D02*
X253264D01*
X256925D02*
X258185D01*
X262175D02*
X263435D01*
X267035D02*
X268295D01*
X272315D02*
X273635D01*
X277084D02*
X278344D01*
X241864Y120270D02*
X243125D01*
X244324D02*
X245585D01*
X246784D02*
X248044D01*
X252005D02*
X253264D01*
X256925D02*
X258185D01*
X262175D02*
X263435D01*
X267035D02*
X268295D01*
X272315D02*
X273574D01*
X277084D02*
X278344D01*
X241864Y120240D02*
X243125D01*
X244324D02*
X245585D01*
X246784D02*
X248044D01*
X252005D02*
X253264D01*
X256925D02*
X258185D01*
X262175D02*
X263435D01*
X267004D02*
X268295D01*
X272315D02*
X273574D01*
X277084D02*
X278344D01*
X241864Y120210D02*
X243125D01*
X244324D02*
X245585D01*
X246784D02*
X248044D01*
X252005D02*
X253264D01*
X256925D02*
X258185D01*
X262175D02*
X263464D01*
X267004D02*
X268295D01*
X272315D02*
X273574D01*
X277084D02*
X278344D01*
X241864Y120180D02*
X243125D01*
X244324D02*
X245585D01*
X246784D02*
X248044D01*
X252005D02*
X253264D01*
X256925D02*
X258185D01*
X262175D02*
X263464D01*
X267004D02*
X268295D01*
X272315D02*
X273574D01*
X277084D02*
X278344D01*
X241864Y120150D02*
X243125D01*
X244324D02*
X245585D01*
X246784D02*
X248044D01*
X252005D02*
X253264D01*
X256925D02*
X258185D01*
X262175D02*
X263464D01*
X267004D02*
X268295D01*
X272315D02*
X273574D01*
X277084D02*
X278344D01*
X241864Y120120D02*
X243125D01*
X244324D02*
X245585D01*
X246784D02*
X248044D01*
X252005D02*
X253264D01*
X256925D02*
X258185D01*
X262175D02*
X263464D01*
X266974D02*
X268295D01*
X272315D02*
X273574D01*
X277115D02*
X278344D01*
X241864Y120090D02*
X243125D01*
X244324D02*
X245585D01*
X246784D02*
X248044D01*
X252005D02*
X253264D01*
X256925D02*
X258185D01*
X262205D02*
X263494D01*
X266974D02*
X268265D01*
X272315D02*
X273574D01*
X277115D02*
X278375D01*
X241864Y120060D02*
X243125D01*
X244324D02*
X245585D01*
X246784D02*
X248044D01*
X252005D02*
X253264D01*
X256925D02*
X258185D01*
X262205D02*
X263494D01*
X266974D02*
X268265D01*
X272315D02*
X273574D01*
X277115D02*
X278375D01*
X241864Y120030D02*
X243125D01*
X244324D02*
X245585D01*
X246784D02*
X248044D01*
X252005D02*
X253264D01*
X256925D02*
X258185D01*
X262205D02*
X263494D01*
X266945D02*
X268265D01*
X272315D02*
X273574D01*
X277115D02*
X278375D01*
X241864Y120000D02*
X243125D01*
X244324D02*
X245585D01*
X246784D02*
X248044D01*
X252005D02*
X253264D01*
X256925D02*
X258185D01*
X262205D02*
X263525D01*
X266945D02*
X268265D01*
X272315D02*
X273574D01*
X277115D02*
X278375D01*
X241864Y119970D02*
X243125D01*
X244324D02*
X245585D01*
X246784D02*
X248044D01*
X252005D02*
X253264D01*
X256925D02*
X258185D01*
X262205D02*
X263525D01*
X266945D02*
X268265D01*
X272315D02*
X273574D01*
X277115D02*
X278375D01*
X241864Y119940D02*
X243125D01*
X244324D02*
X245585D01*
X246784D02*
X248044D01*
X252005D02*
X253264D01*
X256925D02*
X258185D01*
X262234D02*
X263555D01*
X266915D02*
X268234D01*
X272315D02*
X273574D01*
X277115D02*
X278375D01*
X241864Y119910D02*
X243125D01*
X244324D02*
X245585D01*
X246784D02*
X248044D01*
X252005D02*
X253264D01*
X256925D02*
X258185D01*
X262234D02*
X263555D01*
X266915D02*
X268234D01*
X272315D02*
X273574D01*
X277115D02*
X278375D01*
X241864Y119880D02*
X243125D01*
X244324D02*
X245585D01*
X246784D02*
X248044D01*
X252005D02*
X253264D01*
X256925D02*
X258185D01*
X262234D02*
X263584D01*
X266884D02*
X268234D01*
X272315D02*
X273574D01*
X277115D02*
X278375D01*
X241864Y119850D02*
X243125D01*
X244324D02*
X245585D01*
X246784D02*
X248044D01*
X252005D02*
X253264D01*
X256925D02*
X258185D01*
X262234D02*
X263584D01*
X266884D02*
X268234D01*
X272315D02*
X273574D01*
X277115D02*
X278375D01*
X241864Y119820D02*
X243125D01*
X244324D02*
X245585D01*
X246784D02*
X248044D01*
X252005D02*
X253264D01*
X256925D02*
X258185D01*
X262264D02*
X263615D01*
X266855D02*
X268204D01*
X272315D02*
X273574D01*
X277115D02*
X278375D01*
X241864Y119790D02*
X243125D01*
X244324D02*
X245585D01*
X246784D02*
X248044D01*
X252005D02*
X253264D01*
X256925D02*
X258185D01*
X262264D02*
X263615D01*
X266855D02*
X268204D01*
X272315D02*
X273574D01*
X277115D02*
X278375D01*
X241864Y119760D02*
X243125D01*
X244324D02*
X245585D01*
X246784D02*
X248044D01*
X252005D02*
X253264D01*
X256925D02*
X258185D01*
X262264D02*
X263645D01*
X266825D02*
X268204D01*
X272315D02*
X273574D01*
X277115D02*
X278375D01*
X241864Y119730D02*
X243125D01*
X244324D02*
X245585D01*
X246784D02*
X248044D01*
X252005D02*
X253264D01*
X256925D02*
X258185D01*
X262295D02*
X263645D01*
X266825D02*
X268175D01*
X272315D02*
X273574D01*
X277115D02*
X278375D01*
X241864Y119700D02*
X243125D01*
X244324D02*
X245585D01*
X246784D02*
X248044D01*
X252005D02*
X253264D01*
X256925D02*
X258185D01*
X262295D02*
X263674D01*
X266794D02*
X268175D01*
X272315D02*
X273574D01*
X277115D02*
X278375D01*
X241864Y119670D02*
X243125D01*
X244324D02*
X245585D01*
X246784D02*
X248044D01*
X252005D02*
X258185D01*
X262295D02*
X263674D01*
X266794D02*
X268175D01*
X272315D02*
X273574D01*
X277115D02*
X278375D01*
X241864Y119640D02*
X243125D01*
X244324D02*
X245585D01*
X246784D02*
X248044D01*
X252005D02*
X258185D01*
X262325D02*
X263704D01*
X266764D02*
X268144D01*
X272315D02*
X273574D01*
X277115D02*
X278375D01*
X241864Y119610D02*
X243125D01*
X244324D02*
X245585D01*
X246784D02*
X248044D01*
X252005D02*
X258185D01*
X262325D02*
X263704D01*
X266764D02*
X268144D01*
X272315D02*
X273574D01*
X277115D02*
X278375D01*
X241864Y119580D02*
X243125D01*
X244324D02*
X245585D01*
X246784D02*
X248044D01*
X252005D02*
X258185D01*
X262325D02*
X263735D01*
X266735D02*
X268144D01*
X272315D02*
X273574D01*
X277115D02*
X278375D01*
X241864Y119550D02*
X243125D01*
X244324D02*
X245585D01*
X246784D02*
X248044D01*
X252005D02*
X258185D01*
X262354D02*
X263735D01*
X266735D02*
X268114D01*
X272315D02*
X273574D01*
X277115D02*
X278375D01*
X241864Y119520D02*
X243125D01*
X244324D02*
X245585D01*
X246784D02*
X248044D01*
X252005D02*
X258185D01*
X262354D02*
X263765D01*
X266705D02*
X268114D01*
X272315D02*
X273574D01*
X277115D02*
X278375D01*
X241864Y119490D02*
X243125D01*
X244324D02*
X245585D01*
X246784D02*
X248044D01*
X252005D02*
X258185D01*
X262385D02*
X263765D01*
X266705D02*
X268085D01*
X272315D02*
X273574D01*
X277115D02*
X278375D01*
X241864Y119460D02*
X243125D01*
X244324D02*
X245585D01*
X246784D02*
X248044D01*
X252005D02*
X258185D01*
X262385D02*
X263794D01*
X266674D02*
X268085D01*
X272315D02*
X273574D01*
X277115D02*
X278375D01*
X241864Y119430D02*
X243125D01*
X244324D02*
X245585D01*
X246784D02*
X248044D01*
X252005D02*
X258185D01*
X262415D02*
X263794D01*
X266674D02*
X268055D01*
X272315D02*
X273574D01*
X277115D02*
X278375D01*
X241864Y119400D02*
X243125D01*
X244324D02*
X245585D01*
X246784D02*
X248044D01*
X252005D02*
X258185D01*
X262415D02*
X263825D01*
X266645D02*
X268055D01*
X272315D02*
X273574D01*
X277115D02*
X278375D01*
X241864Y119370D02*
X243125D01*
X244324D02*
X245585D01*
X246784D02*
X248044D01*
X252005D02*
X258185D01*
X262444D02*
X263825D01*
X266645D02*
X268024D01*
X272315D02*
X273574D01*
X277115D02*
X278375D01*
X241864Y119340D02*
X243125D01*
X244324D02*
X245585D01*
X246784D02*
X248044D01*
X252005D02*
X258185D01*
X262444D02*
X263855D01*
X266615D02*
X268024D01*
X272315D02*
X273574D01*
X277115D02*
X278375D01*
X241864Y119310D02*
X243125D01*
X244324D02*
X245585D01*
X246784D02*
X248044D01*
X252005D02*
X258185D01*
X262474D02*
X263884D01*
X266615D02*
X267994D01*
X272315D02*
X273574D01*
X277145D02*
X278375D01*
X241864Y119280D02*
X243125D01*
X244324D02*
X245585D01*
X246784D02*
X248044D01*
X252005D02*
X258185D01*
X262474D02*
X263884D01*
X266584D02*
X267994D01*
X272315D02*
X273574D01*
X277145D02*
X278404D01*
X241864Y119250D02*
X243125D01*
X244324D02*
X245585D01*
X246784D02*
X248044D01*
X252005D02*
X258185D01*
X262505D02*
X263914D01*
X266584D02*
X267965D01*
X272315D02*
X273574D01*
X277145D02*
X278404D01*
X241864Y119220D02*
X243125D01*
X244324D02*
X245585D01*
X246784D02*
X248044D01*
X252005D02*
X258185D01*
X262505D02*
X263914D01*
X266554D02*
X267965D01*
X272315D02*
X273574D01*
X277145D02*
X278404D01*
X241864Y119190D02*
X243125D01*
X244324D02*
X245585D01*
X246784D02*
X248044D01*
X252005D02*
X258185D01*
X262534D02*
X263945D01*
X266554D02*
X267934D01*
X272315D02*
X273574D01*
X277145D02*
X278404D01*
X241864Y119160D02*
X243125D01*
X244324D02*
X245585D01*
X246784D02*
X248044D01*
X252005D02*
X258185D01*
X262534D02*
X263945D01*
X266525D02*
X267934D01*
X272315D02*
X273574D01*
X277145D02*
X278404D01*
X241864Y119130D02*
X243125D01*
X244324D02*
X245585D01*
X246784D02*
X248044D01*
X252005D02*
X258185D01*
X262564D02*
X263974D01*
X266494D02*
X267904D01*
X272315D02*
X273574D01*
X277145D02*
X278404D01*
X241864Y119100D02*
X243125D01*
X244324D02*
X245585D01*
X246784D02*
X248044D01*
X252005D02*
X258185D01*
X262564D02*
X263974D01*
X266494D02*
X267904D01*
X272315D02*
X273574D01*
X277145D02*
X278404D01*
X241864Y119070D02*
X243125D01*
X244324D02*
X245585D01*
X246784D02*
X248044D01*
X252005D02*
X258185D01*
X262595D02*
X264004D01*
X266464D02*
X267875D01*
X272315D02*
X273574D01*
X277145D02*
X278404D01*
X241864Y119040D02*
X243125D01*
X244324D02*
X245585D01*
X246784D02*
X248044D01*
X252005D02*
X258185D01*
X262595D02*
X264004D01*
X266464D02*
X267875D01*
X272315D02*
X273574D01*
X277145D02*
X278404D01*
X241864Y119010D02*
X243125D01*
X244324D02*
X245585D01*
X246784D02*
X248044D01*
X252005D02*
X258185D01*
X262625D02*
X264035D01*
X266435D02*
X267845D01*
X272315D02*
X273574D01*
X277145D02*
X278404D01*
X241864Y118980D02*
X243125D01*
X244324D02*
X245585D01*
X246784D02*
X248044D01*
X252005D02*
X258185D01*
X262625D02*
X264035D01*
X266435D02*
X267845D01*
X272315D02*
X273574D01*
X277145D02*
X278404D01*
X241864Y118950D02*
X243125D01*
X244324D02*
X245585D01*
X246784D02*
X248044D01*
X252005D02*
X258185D01*
X262654D02*
X264065D01*
X266405D02*
X267814D01*
X272315D02*
X273574D01*
X277145D02*
X278404D01*
X241864Y118920D02*
X243125D01*
X244324D02*
X245585D01*
X246784D02*
X248044D01*
X252005D02*
X258185D01*
X262654D02*
X264065D01*
X266405D02*
X267814D01*
X272315D02*
X273574D01*
X277145D02*
X278404D01*
X241864Y118890D02*
X243125D01*
X244324D02*
X245585D01*
X246784D02*
X248044D01*
X252005D02*
X258185D01*
X262684D02*
X264094D01*
X266374D02*
X267785D01*
X272315D02*
X273574D01*
X277145D02*
X278404D01*
X241864Y118860D02*
X243125D01*
X244324D02*
X245585D01*
X246784D02*
X248044D01*
X252005D02*
X258155D01*
X262684D02*
X264094D01*
X266374D02*
X267785D01*
X272315D02*
X273574D01*
X277145D02*
X278404D01*
X241864Y118830D02*
X243125D01*
X244324D02*
X245585D01*
X246784D02*
X248044D01*
X252005D02*
X258155D01*
X262715D02*
X264124D01*
X266344D02*
X267755D01*
X272315D02*
X273574D01*
X277145D02*
X278404D01*
X241864Y118800D02*
X243125D01*
X244324D02*
X245585D01*
X246784D02*
X248044D01*
X252005D02*
X258155D01*
X262715D02*
X264124D01*
X266344D02*
X267755D01*
X272315D02*
X273574D01*
X277145D02*
X278404D01*
X241864Y118770D02*
X243125D01*
X244324D02*
X245585D01*
X246784D02*
X248044D01*
X252005D02*
X258124D01*
X262744D02*
X264155D01*
X266315D02*
X267724D01*
X272315D02*
X273574D01*
X277145D02*
X278404D01*
X241864Y118740D02*
X243125D01*
X244324D02*
X245585D01*
X246784D02*
X248044D01*
X252005D02*
X258124D01*
X262744D02*
X264155D01*
X266315D02*
X267724D01*
X272315D02*
X273574D01*
X277145D02*
X278404D01*
X241864Y118710D02*
X243125D01*
X244324D02*
X245585D01*
X246784D02*
X248044D01*
X252005D02*
X258095D01*
X262774D02*
X264184D01*
X266284D02*
X267694D01*
X272315D02*
X273574D01*
X277145D02*
X278404D01*
X241864Y118680D02*
X243125D01*
X244324D02*
X245585D01*
X246784D02*
X248044D01*
X252005D02*
X258065D01*
X262774D02*
X264184D01*
X266284D02*
X267694D01*
X272315D02*
X273574D01*
X277145D02*
X278404D01*
X241864Y118650D02*
X243125D01*
X244324D02*
X245585D01*
X246784D02*
X248044D01*
X252005D02*
X258065D01*
X262805D02*
X264214D01*
X266254D02*
X267665D01*
X272315D02*
X273574D01*
X277145D02*
X278404D01*
X241864Y118620D02*
X243125D01*
X244324D02*
X245585D01*
X246784D02*
X248044D01*
X252005D02*
X258034D01*
X262805D02*
X264214D01*
X266254D02*
X267665D01*
X272315D02*
X273574D01*
X277145D02*
X278404D01*
X241864Y118590D02*
X243125D01*
X244324D02*
X245585D01*
X246784D02*
X248044D01*
X252005D02*
X258004D01*
X262835D02*
X264245D01*
X266225D02*
X267635D01*
X272315D02*
X273574D01*
X277145D02*
X278404D01*
X241864Y118560D02*
X243125D01*
X244324D02*
X245585D01*
X246784D02*
X248044D01*
X252005D02*
X257975D01*
X262835D02*
X264245D01*
X266225D02*
X267635D01*
X272315D02*
X273574D01*
X277145D02*
X278404D01*
X241864Y118530D02*
X243125D01*
X244324D02*
X245585D01*
X246784D02*
X248044D01*
X252005D02*
X257944D01*
X262864D02*
X264275D01*
X266195D02*
X267604D01*
X272315D02*
X273574D01*
X277145D02*
X278404D01*
X241864Y118500D02*
X243125D01*
X244324D02*
X245585D01*
X246784D02*
X248044D01*
X252005D02*
X257885D01*
X262864D02*
X264275D01*
X266195D02*
X267604D01*
X272315D02*
X273574D01*
X277174D02*
X278404D01*
X241864Y118470D02*
X243125D01*
X244324D02*
X245585D01*
X246784D02*
X248044D01*
X252005D02*
X257824D01*
X262895D02*
X264304D01*
X266164D02*
X267575D01*
X272315D02*
X273574D01*
X277174D02*
X278434D01*
X241864Y118440D02*
X243125D01*
X244324D02*
X245585D01*
X246784D02*
X248044D01*
X252005D02*
X257765D01*
X262895D02*
X264304D01*
X266164D02*
X267575D01*
X272315D02*
X273574D01*
X277174D02*
X278434D01*
X241864Y118410D02*
X243125D01*
X244324D02*
X245585D01*
X246784D02*
X248044D01*
X252005D02*
X257645D01*
X262925D02*
X264335D01*
X266135D02*
X267545D01*
X272315D02*
X273574D01*
X277174D02*
X278434D01*
X241864Y118380D02*
X243125D01*
X244324D02*
X245585D01*
X246784D02*
X248044D01*
X252005D02*
X253264D01*
X262925D02*
X264335D01*
X266135D02*
X267545D01*
X272315D02*
X273574D01*
X277174D02*
X278434D01*
X241864Y118350D02*
X243125D01*
X244324D02*
X245585D01*
X246784D02*
X248044D01*
X252005D02*
X253264D01*
X262954D02*
X264365D01*
X266105D02*
X267514D01*
X272315D02*
X273574D01*
X277174D02*
X278434D01*
X241864Y118320D02*
X243125D01*
X244324D02*
X245585D01*
X246784D02*
X248044D01*
X252005D02*
X253264D01*
X262954D02*
X264365D01*
X266105D02*
X267514D01*
X272315D02*
X273574D01*
X277174D02*
X278434D01*
X241864Y118290D02*
X243125D01*
X244324D02*
X245585D01*
X246784D02*
X248044D01*
X252005D02*
X253264D01*
X262984D02*
X264394D01*
X266074D02*
X267484D01*
X272315D02*
X273574D01*
X277174D02*
X278434D01*
X241864Y118260D02*
X243125D01*
X244324D02*
X245585D01*
X246784D02*
X248044D01*
X252005D02*
X253264D01*
X262984D02*
X264394D01*
X266074D02*
X267484D01*
X272315D02*
X273574D01*
X277174D02*
X278434D01*
X241864Y118230D02*
X243125D01*
X244324D02*
X245585D01*
X246784D02*
X248044D01*
X252005D02*
X253264D01*
X263015D02*
X264424D01*
X266044D02*
X267455D01*
X272315D02*
X273574D01*
X277174D02*
X278434D01*
X241864Y118200D02*
X243125D01*
X244324D02*
X245585D01*
X246784D02*
X248044D01*
X252005D02*
X253264D01*
X263015D02*
X264424D01*
X266044D02*
X267455D01*
X272315D02*
X273574D01*
X277174D02*
X278434D01*
X241864Y118170D02*
X243125D01*
X244324D02*
X245585D01*
X246784D02*
X248044D01*
X252005D02*
X253264D01*
X263045D02*
X264455D01*
X266015D02*
X267425D01*
X272315D02*
X273574D01*
X277174D02*
X278434D01*
X241864Y118140D02*
X243125D01*
X244324D02*
X245585D01*
X246784D02*
X248044D01*
X252005D02*
X253264D01*
X263074D02*
X264485D01*
X266015D02*
X267394D01*
X272315D02*
X273574D01*
X277174D02*
X278434D01*
X241864Y118110D02*
X243125D01*
X244324D02*
X245585D01*
X246784D02*
X248044D01*
X252005D02*
X253264D01*
X263074D02*
X264485D01*
X265985D02*
X267394D01*
X272315D02*
X273574D01*
X277174D02*
X278434D01*
X241864Y118080D02*
X243125D01*
X244324D02*
X245585D01*
X246784D02*
X248044D01*
X252005D02*
X253264D01*
X263105D02*
X264514D01*
X265985D02*
X267365D01*
X272315D02*
X273574D01*
X277174D02*
X278434D01*
X241864Y118050D02*
X243125D01*
X244324D02*
X245585D01*
X246784D02*
X248044D01*
X252005D02*
X253264D01*
X263105D02*
X264514D01*
X265954D02*
X267365D01*
X272315D02*
X273574D01*
X277174D02*
X278434D01*
X241864Y118020D02*
X243125D01*
X244324D02*
X245585D01*
X246784D02*
X248044D01*
X252005D02*
X253264D01*
X263135D02*
X264545D01*
X265954D02*
X267335D01*
X272315D02*
X273574D01*
X277174D02*
X278434D01*
X241864Y117990D02*
X243125D01*
X244324D02*
X245585D01*
X246784D02*
X248044D01*
X252005D02*
X253264D01*
X263135D02*
X264545D01*
X265925D02*
X267335D01*
X272315D02*
X273574D01*
X277174D02*
X278434D01*
X241864Y117960D02*
X243125D01*
X244324D02*
X245585D01*
X246784D02*
X248044D01*
X252005D02*
X253264D01*
X263164D02*
X264575D01*
X265925D02*
X267304D01*
X272315D02*
X273574D01*
X277174D02*
X278434D01*
X241864Y117930D02*
X243125D01*
X244324D02*
X245585D01*
X246784D02*
X248044D01*
X252005D02*
X253294D01*
X263164D02*
X264575D01*
X265895D02*
X267304D01*
X272315D02*
X273574D01*
X277174D02*
X278434D01*
X241864Y117900D02*
X243125D01*
X244324D02*
X245585D01*
X246784D02*
X248044D01*
X252005D02*
X253294D01*
X263194D02*
X264604D01*
X265895D02*
X267274D01*
X272315D02*
X273574D01*
X277174D02*
X278434D01*
X241864Y117870D02*
X243125D01*
X244324D02*
X245585D01*
X246784D02*
X248044D01*
X252005D02*
X253294D01*
X263194D02*
X264604D01*
X265864D02*
X267274D01*
X272315D02*
X273574D01*
X277174D02*
X278434D01*
X241864Y117840D02*
X243125D01*
X244324D02*
X245585D01*
X246784D02*
X248044D01*
X252034D02*
X253325D01*
X263225D02*
X264634D01*
X265864D02*
X267245D01*
X272315D02*
X273574D01*
X277174D02*
X278434D01*
X241864Y117810D02*
X243125D01*
X244324D02*
X245585D01*
X246784D02*
X248044D01*
X252034D02*
X253325D01*
X263225D02*
X264634D01*
X265834D02*
X267245D01*
X272315D02*
X273574D01*
X277174D02*
X278434D01*
X241864Y117780D02*
X243125D01*
X244324D02*
X245585D01*
X246784D02*
X248044D01*
X252034D02*
X253355D01*
X263254D02*
X264665D01*
X265834D02*
X267214D01*
X272315D02*
X273574D01*
X277174D02*
X278434D01*
X241864Y117750D02*
X243125D01*
X244324D02*
X245585D01*
X246784D02*
X248044D01*
X252034D02*
X253355D01*
X263254D02*
X264665D01*
X265805D02*
X267214D01*
X272315D02*
X273574D01*
X277174D02*
X278434D01*
X241864Y117720D02*
X243125D01*
X244324D02*
X245585D01*
X246784D02*
X248044D01*
X252034D02*
X253384D01*
X263284D02*
X264694D01*
X265805D02*
X267184D01*
X272315D02*
X273574D01*
X277174D02*
X278434D01*
X241864Y117690D02*
X243125D01*
X244324D02*
X245585D01*
X246784D02*
X248044D01*
X252034D02*
X253415D01*
X263284D02*
X264694D01*
X265774D02*
X267184D01*
X272315D02*
X273574D01*
X277204D02*
X278465D01*
X241864Y117660D02*
X243125D01*
X244324D02*
X245585D01*
X246784D02*
X248044D01*
X252064D02*
X253445D01*
X263315D02*
X264724D01*
X265774D02*
X267155D01*
X272315D02*
X273574D01*
X277204D02*
X278465D01*
X241864Y117630D02*
X243125D01*
X244324D02*
X245585D01*
X246784D02*
X248044D01*
X252064D02*
X253474D01*
X263315D02*
X264724D01*
X265744D02*
X267155D01*
X272315D02*
X273574D01*
X277204D02*
X278465D01*
X241864Y117600D02*
X243155D01*
X244295D02*
X245615D01*
X246755D02*
X248044D01*
X252064D02*
X253504D01*
X263345D02*
X264755D01*
X265744D02*
X267125D01*
X272315D02*
X273574D01*
X277204D02*
X278465D01*
X241864Y117570D02*
X243155D01*
X244295D02*
X245615D01*
X246755D02*
X248044D01*
X252064D02*
X253535D01*
X263345D02*
X264755D01*
X265715D02*
X267125D01*
X272315D02*
X273574D01*
X277204D02*
X278465D01*
X241864Y117540D02*
X243184D01*
X244265D02*
X245644D01*
X246725D02*
X248044D01*
X252095D02*
X253594D01*
X263374D02*
X264785D01*
X265715D02*
X267094D01*
X272315D02*
X273574D01*
X277204D02*
X278465D01*
X241864Y117510D02*
X243184D01*
X244265D02*
X245644D01*
X246725D02*
X248044D01*
X252095D02*
X253625D01*
X263374D02*
X264785D01*
X265685D02*
X267094D01*
X272315D02*
X273574D01*
X277204D02*
X278465D01*
X241864Y117480D02*
X243215D01*
X244234D02*
X245674D01*
X246694D02*
X248044D01*
X252095D02*
X253655D01*
X263404D02*
X264814D01*
X265685D02*
X267064D01*
X272315D02*
X273574D01*
X277204D02*
X278465D01*
X241864Y117450D02*
X243245D01*
X244234D02*
X245674D01*
X246665D02*
X248044D01*
X252125D02*
X253684D01*
X263404D02*
X264814D01*
X265654D02*
X267064D01*
X272315D02*
X273574D01*
X277204D02*
X278465D01*
X241864Y117420D02*
X243245D01*
X244204D02*
X245705D01*
X246665D02*
X248044D01*
X252125D02*
X253714D01*
X263435D02*
X264844D01*
X265654D02*
X267035D01*
X272315D02*
X273574D01*
X277204D02*
X278465D01*
X241864Y117390D02*
X243274D01*
X244204D02*
X245705D01*
X246635D02*
X248044D01*
X252154D02*
X253774D01*
X263435D02*
X264844D01*
X265624D02*
X267035D01*
X272315D02*
X273574D01*
X277204D02*
X278465D01*
X241864Y117360D02*
X243274D01*
X244175D02*
X245735D01*
X246635D02*
X248044D01*
X252154D02*
X253804D01*
X263464D02*
X264875D01*
X265624D02*
X267004D01*
X272315D02*
X273574D01*
X277204D02*
X278465D01*
X241895Y117330D02*
X243304D01*
X244145D02*
X245764D01*
X246604D02*
X248014D01*
X252185D02*
X253835D01*
X263464D02*
X264875D01*
X265595D02*
X267004D01*
X272315D02*
X273574D01*
X277204D02*
X278465D01*
X241895Y117300D02*
X243335D01*
X244145D02*
X245764D01*
X246574D02*
X248014D01*
X252185D02*
X253865D01*
X263494D02*
X264904D01*
X265595D02*
X266974D01*
X272315D02*
X273574D01*
X277204D02*
X278465D01*
X241895Y117270D02*
X243335D01*
X244114D02*
X245795D01*
X246574D02*
X248014D01*
X252185D02*
X253894D01*
X263494D02*
X264904D01*
X265564D02*
X266974D01*
X270094D02*
X271985D01*
X272315D02*
X273574D01*
X277204D02*
X278465D01*
X241925Y117240D02*
X243365D01*
X244114D02*
X245795D01*
X246545D02*
X247985D01*
X252215D02*
X253955D01*
X263525D02*
X264934D01*
X265564D02*
X266945D01*
X270125D02*
X273574D01*
X277204D02*
X278465D01*
X241925Y117210D02*
X243365D01*
X244085D02*
X245825D01*
X246545D02*
X247985D01*
X252215D02*
X253984D01*
X263525D02*
X264965D01*
X265534D02*
X266945D01*
X270545D02*
X274265D01*
X277204D02*
X278465D01*
X241925Y117180D02*
X243394D01*
X244085D02*
X245825D01*
X246515D02*
X247985D01*
X252244D02*
X254014D01*
X263555D02*
X264965D01*
X265505D02*
X266915D01*
X270965D02*
X275044D01*
X277204D02*
X278465D01*
X241954Y117150D02*
X243425D01*
X244055D02*
X245854D01*
X246484D02*
X247955D01*
X252274D02*
X254045D01*
X263555D02*
X264995D01*
X265475D02*
X266915D01*
X271385D02*
X275705D01*
X277204D02*
X278465D01*
X241954Y117120D02*
X243425D01*
X244055D02*
X245854D01*
X246484D02*
X247924D01*
X252274D02*
X254104D01*
X263584D02*
X265024D01*
X265444D02*
X266884D01*
X271834D02*
X276305D01*
X277204D02*
X278465D01*
X241985Y117090D02*
X243455D01*
X244024D02*
X245884D01*
X246455D02*
X247924D01*
X252305D02*
X254165D01*
X263584D02*
X265054D01*
X265415D02*
X266884D01*
X272315D02*
X276815D01*
X277204D02*
X278465D01*
X242015Y117060D02*
X243484D01*
X243994D02*
X245915D01*
X246425D02*
X247895D01*
X252334D02*
X254255D01*
X263615D02*
X265114D01*
X265324D02*
X266855D01*
X272315D02*
X278465D01*
X242015Y117030D02*
X247895D01*
X252334D02*
X257645D01*
X263615D02*
X266855D01*
X272315D02*
X278465D01*
X242044Y117000D02*
X247865D01*
X252364D02*
X257765D01*
X263645D02*
X266825D01*
X272315D02*
X273574D01*
X273694D02*
X278465D01*
X242044Y116970D02*
X247865D01*
X252395D02*
X257855D01*
X263645D02*
X266825D01*
X272315D02*
X273574D01*
X274114D02*
X278585D01*
X242074Y116940D02*
X247834D01*
X252395D02*
X257885D01*
X263674D02*
X266794D01*
X272315D02*
X273574D01*
X274535D02*
X279005D01*
X242105Y116910D02*
X247804D01*
X252425D02*
X257944D01*
X263674D02*
X266794D01*
X272315D02*
X273574D01*
X274894D02*
X279364D01*
X242105Y116880D02*
X247804D01*
X252454D02*
X257975D01*
X263704D02*
X266764D01*
X272315D02*
X273574D01*
X275285D02*
X279695D01*
X242134Y116850D02*
X247775D01*
X252484D02*
X258004D01*
X263704D02*
X266764D01*
X272315D02*
X273574D01*
X275615D02*
X280025D01*
X242134Y116820D02*
X247775D01*
X252515D02*
X258034D01*
X263735D02*
X266735D01*
X272315D02*
X273574D01*
X275944D02*
X280325D01*
X242164Y116790D02*
X247744D01*
X252544D02*
X258065D01*
X263735D02*
X266735D01*
X272315D02*
X273574D01*
X276244D02*
X280655D01*
X242195Y116760D02*
X247744D01*
X252574D02*
X258095D01*
X263765D02*
X266705D01*
X272315D02*
X273574D01*
X276574D02*
X280955D01*
X242195Y116730D02*
X247714D01*
X252605D02*
X258095D01*
X263794D02*
X266674D01*
X272315D02*
X273574D01*
X276845D02*
X281224D01*
X242225Y116700D02*
X247685D01*
X252635D02*
X258124D01*
X263794D02*
X266674D01*
X272315D02*
X273574D01*
X277115D02*
X281494D01*
X242225Y116670D02*
X247685D01*
X252695D02*
X258124D01*
X263825D02*
X266645D01*
X272315D02*
X273574D01*
X277235D02*
X281734D01*
X242254Y116640D02*
X247655D01*
X252725D02*
X258155D01*
X263825D02*
X266645D01*
X272315D02*
X273574D01*
X277235D02*
X282004D01*
X242254Y116610D02*
X247655D01*
X252754D02*
X258155D01*
X263855D02*
X266615D01*
X272315D02*
X273574D01*
X277235D02*
X282275D01*
X242284Y116580D02*
X247624D01*
X252784D02*
X258155D01*
X263855D02*
X266584D01*
X272315D02*
X273574D01*
X277235D02*
X282515D01*
X242315Y116550D02*
X247624D01*
X252815D02*
X258185D01*
X263884D02*
X266584D01*
X272315D02*
X273574D01*
X277235D02*
X282724D01*
X242315Y116520D02*
X247594D01*
X252845D02*
X258185D01*
X263914D02*
X266554D01*
X272315D02*
X273574D01*
X277235D02*
X278495D01*
X278524D02*
X282934D01*
X242344Y116490D02*
X247594D01*
X252905D02*
X258185D01*
X263914D02*
X266525D01*
X272315D02*
X273574D01*
X277235D02*
X278495D01*
X278734D02*
X283144D01*
X242344Y116460D02*
X247565D01*
X252935D02*
X258185D01*
X263945D02*
X266525D01*
X272315D02*
X273574D01*
X277235D02*
X278495D01*
X278944D02*
X283354D01*
X242374Y116430D02*
X247534D01*
X252964D02*
X258185D01*
X263974D02*
X266494D01*
X272315D02*
X273574D01*
X277235D02*
X278495D01*
X279095D02*
X283564D01*
X242405Y116400D02*
X247534D01*
X252994D02*
X258185D01*
X264004D02*
X266464D01*
X272315D02*
X273574D01*
X277235D02*
X278495D01*
X279275D02*
X283774D01*
X242405Y116370D02*
X247504D01*
X253025D02*
X258185D01*
X264004D02*
X266464D01*
X272315D02*
X273574D01*
X277235D02*
X278495D01*
X279454D02*
X283984D01*
X242435Y116340D02*
X247504D01*
X253084D02*
X258185D01*
X264035D02*
X266435D01*
X272315D02*
X273574D01*
X277264D02*
X278495D01*
X279634D02*
X284165D01*
X242435Y116310D02*
X247475D01*
X253115D02*
X258185D01*
X264065D02*
X266405D01*
X272344D02*
X273545D01*
X277264D02*
X278495D01*
X279784D02*
X284314D01*
X242464Y116280D02*
X244924D01*
X244985D02*
X247475D01*
X253145D02*
X258185D01*
X264094D02*
X266374D01*
X272344D02*
X273545D01*
X277264D02*
X278465D01*
X279964D02*
X284494D01*
X242464Y116250D02*
X244924D01*
X244985D02*
X247445D01*
X253174D02*
X258155D01*
X264124D02*
X266344D01*
X272344D02*
X273545D01*
X277264D02*
X278465D01*
X280115D02*
X284675D01*
X242495Y116220D02*
X244924D01*
X244985D02*
X247414D01*
X253204D02*
X258155D01*
X264155D02*
X266315D01*
X272344D02*
X273545D01*
X277264D02*
X278465D01*
X280235D02*
X284855D01*
X242525Y116190D02*
X244895D01*
X245015D02*
X247414D01*
X253264D02*
X258155D01*
X264184D02*
X266284D01*
X272375D02*
X273515D01*
X277294D02*
X278434D01*
X280384D02*
X285004D01*
X242525Y116160D02*
X244895D01*
X245015D02*
X247385D01*
X253294D02*
X258124D01*
X264214D02*
X266254D01*
X272375D02*
X273515D01*
X277294D02*
X278434D01*
X280504D02*
X285155D01*
X242554Y116130D02*
X244895D01*
X245015D02*
X247355D01*
X253325D02*
X258124D01*
X264245D02*
X266225D01*
X272405D02*
X273515D01*
X277325D02*
X278434D01*
X280655D02*
X285304D01*
X242584Y116100D02*
X244865D01*
X245044D02*
X247355D01*
X253384D02*
X258095D01*
X264275D02*
X266195D01*
X272405D02*
X273484D01*
X277325D02*
X278404D01*
X280804D02*
X285455D01*
X242615Y116070D02*
X244834D01*
X245075D02*
X247324D01*
X253445D02*
X258095D01*
X264304D02*
X266164D01*
X272434D02*
X273454D01*
X277355D02*
X278375D01*
X280925D02*
X285605D01*
X241085Y116040D02*
X241144D01*
X242615D02*
X244834D01*
X245075D02*
X247294D01*
X253474D02*
X258065D01*
X264335D02*
X266105D01*
X272434D02*
X273454D01*
X277355D02*
X278375D01*
X281045D02*
X285754D01*
X240604Y116010D02*
X241114D01*
X242645D02*
X244805D01*
X245105D02*
X247265D01*
X253535D02*
X258034D01*
X264394D02*
X266074D01*
X272464D02*
X273425D01*
X277384D02*
X278344D01*
X281135D02*
X285875D01*
X240275Y115980D02*
X240995D01*
X242674D02*
X244775D01*
X245134D02*
X247235D01*
X253594D02*
X258004D01*
X264424D02*
X266015D01*
X272495D02*
X273394D01*
X277414D02*
X278314D01*
X281255D02*
X286024D01*
X240035Y115950D02*
X240875D01*
X242705D02*
X244744D01*
X245164D02*
X247204D01*
X253655D02*
X257975D01*
X264485D02*
X265985D01*
X272524D02*
X273364D01*
X277445D02*
X278285D01*
X281345D02*
X286144D01*
X239794Y115920D02*
X240755D01*
X242735D02*
X244714D01*
X245195D02*
X247175D01*
X253714D02*
X257944D01*
X264545D02*
X265925D01*
X272554D02*
X273335D01*
X277474D02*
X278255D01*
X281465D02*
X286264D01*
X239615Y115890D02*
X240665D01*
X242794D02*
X244685D01*
X245224D02*
X247114D01*
X253804D02*
X257885D01*
X264634D02*
X265834D01*
X272585D02*
X273305D01*
X277504D02*
X278224D01*
X281585D02*
X286385D01*
X239435Y115860D02*
X240545D01*
X242825D02*
X244624D01*
X245285D02*
X247084D01*
X253894D02*
X257824D01*
X264694D02*
X265744D01*
X272644D02*
X273245D01*
X277565D02*
X278165D01*
X281675D02*
X286505D01*
X239284Y115830D02*
X240424D01*
X242884D02*
X244565D01*
X245344D02*
X247024D01*
X254014D02*
X257765D01*
X264814D02*
X265654D01*
X272705D02*
X273184D01*
X277625D02*
X278104D01*
X281795D02*
X286625D01*
X239135Y115800D02*
X240304D01*
X242974D02*
X244475D01*
X245434D02*
X246904D01*
X254165D02*
X257645D01*
X264995D02*
X265475D01*
X272795D02*
X273095D01*
X277714D02*
X278014D01*
X281885D02*
X286744D01*
X238954Y115770D02*
X240184D01*
X281975D02*
X286864D01*
X238835Y115740D02*
X240094D01*
X282065D02*
X286954D01*
X238744Y115710D02*
X240004D01*
X282154D02*
X287074D01*
X238625Y115680D02*
X239914D01*
X282214D02*
X287164D01*
X238505Y115650D02*
X239794D01*
X282305D02*
X287284D01*
X238385Y115620D02*
X239704D01*
X282365D02*
X287374D01*
X238264Y115590D02*
X239615D01*
X282454D02*
X287464D01*
X238175Y115560D02*
X239525D01*
X282515D02*
X287555D01*
X238085Y115530D02*
X239435D01*
X282605D02*
X287645D01*
X237995Y115500D02*
X239345D01*
X282664D02*
X287735D01*
X237905Y115470D02*
X239284D01*
X282724D02*
X287825D01*
X237844Y115440D02*
X239225D01*
X282785D02*
X287914D01*
X237755Y115410D02*
X239164D01*
X282844D02*
X287975D01*
X237695Y115380D02*
X239105D01*
X282905D02*
X288065D01*
X237604Y115350D02*
X239044D01*
X282964D02*
X288124D01*
X237544Y115320D02*
X238984D01*
X283025D02*
X288214D01*
X237485Y115290D02*
X238954D01*
X283085D02*
X288275D01*
X237424Y115260D02*
X238895D01*
X283144D02*
X288365D01*
X237365Y115230D02*
X238835D01*
X283174D02*
X288424D01*
X237275Y115200D02*
X238805D01*
X283235D02*
X288485D01*
X237214Y115170D02*
X238744D01*
X283295D02*
X288545D01*
X237185Y115140D02*
X238715D01*
X283325D02*
X288604D01*
X237124Y115110D02*
X238685D01*
X283384D02*
X288665D01*
X237065Y115080D02*
X238654D01*
X283415D02*
X288724D01*
X237035Y115050D02*
X238625D01*
X283444D02*
X288785D01*
X236975Y115020D02*
X238595D01*
X283505D02*
X288844D01*
X236914Y114990D02*
X238564D01*
X283535D02*
X288905D01*
X236884Y114960D02*
X238534D01*
X283564D02*
X288934D01*
X236824Y114930D02*
X238505D01*
X283594D02*
X288995D01*
X236794Y114900D02*
X238474D01*
X283625D02*
X289054D01*
X236765Y114870D02*
X238444D01*
X283654D02*
X289085D01*
X236704Y114840D02*
X238415D01*
X283684D02*
X289144D01*
X236674Y114810D02*
X238385D01*
X283745D02*
X289175D01*
X236645Y114780D02*
X238385D01*
X283745D02*
X289234D01*
X236614Y114750D02*
X238354D01*
X283774D02*
X289264D01*
X236584Y114720D02*
X238324D01*
X283804D02*
X289295D01*
X236555Y114690D02*
X238295D01*
X283835D02*
X289354D01*
X236525Y114660D02*
X238295D01*
X283864D02*
X289385D01*
X236494Y114630D02*
X238264D01*
X283864D02*
X289415D01*
X236465Y114600D02*
X238264D01*
X283894D02*
X289444D01*
X236435Y114570D02*
X238295D01*
X283925D02*
X289475D01*
X236404Y114540D02*
X238295D01*
X283925D02*
X289505D01*
X236374Y114510D02*
X238324D01*
X283955D02*
X289534D01*
X236345Y114480D02*
X238324D01*
X283955D02*
X289564D01*
X236315Y114450D02*
X238354D01*
X283984D02*
X289595D01*
X236315Y114420D02*
X238385D01*
X283984D02*
X289625D01*
X236284Y114390D02*
X238415D01*
X284015D02*
X289654D01*
X236255Y114360D02*
X238415D01*
X283984D02*
X289685D01*
X236225Y114330D02*
X238444D01*
X283955D02*
X289685D01*
X236225Y114300D02*
X238474D01*
X283925D02*
X289715D01*
X236194Y114270D02*
X238505D01*
X283894D02*
X289744D01*
X236194Y114240D02*
X238534D01*
X283864D02*
X289744D01*
X236164Y114210D02*
X238564D01*
X283804D02*
X289774D01*
X236164Y114180D02*
X238595D01*
X283774D02*
X289774D01*
X236135Y114150D02*
X238625D01*
X283745D02*
X289805D01*
X236135Y114120D02*
X238654D01*
X283684D02*
X289805D01*
X236135Y114090D02*
X238685D01*
X283654D02*
X289805D01*
X236164Y114060D02*
X238744D01*
X283594D02*
X289774D01*
X236194Y114030D02*
X238774D01*
X283564D02*
X289744D01*
X236225Y114000D02*
X238805D01*
X283505D02*
X289715D01*
X236255Y113970D02*
X238864D01*
X283474D02*
X289685D01*
X236284Y113940D02*
X238895D01*
X283415D02*
X289654D01*
X236315Y113910D02*
X238954D01*
X283354D02*
X289625D01*
X236345Y113880D02*
X238984D01*
X283295D02*
X289595D01*
X236374Y113850D02*
X239044D01*
X283264D02*
X289564D01*
X236404Y113820D02*
X239105D01*
X283205D02*
X289534D01*
X236435Y113790D02*
X239135D01*
X283144D02*
X289475D01*
X236494Y113760D02*
X239194D01*
X283085D02*
X289444D01*
X236525Y113730D02*
X239254D01*
X283025D02*
X289415D01*
X236555Y113700D02*
X239315D01*
X282934D02*
X289354D01*
X236614Y113670D02*
X239374D01*
X282874D02*
X289324D01*
X236645Y113640D02*
X239435D01*
X282815D02*
X289295D01*
X236704Y113610D02*
X239494D01*
X282724D02*
X289234D01*
X236735Y113580D02*
X239555D01*
X282664D02*
X289205D01*
X236794Y113550D02*
X239615D01*
X282605D02*
X289144D01*
X236824Y113520D02*
X239674D01*
X282544D02*
X289114D01*
X236884Y113490D02*
X239764D01*
X282454D02*
X289054D01*
X236945Y113460D02*
X239825D01*
X282365D02*
X288995D01*
X237004Y113430D02*
X239914D01*
X282275D02*
X288934D01*
X237065Y113400D02*
X240004D01*
X282214D02*
X288875D01*
X237124Y113370D02*
X240065D01*
X282124D02*
X288814D01*
X237155Y113340D02*
X240155D01*
X282034D02*
X288755D01*
X237214Y113310D02*
X240245D01*
X281944D02*
X288724D01*
X237275Y113280D02*
X240335D01*
X281855D02*
X288665D01*
X237334Y113250D02*
X240424D01*
X281765D02*
X288604D01*
X237424Y113220D02*
X240545D01*
X281675D02*
X288514D01*
X237485Y113190D02*
X240634D01*
X281555D02*
X288455D01*
X237544Y113160D02*
X240724D01*
X281434D02*
X288394D01*
X237634Y113130D02*
X240814D01*
X281345D02*
X288304D01*
X237695Y113100D02*
X240934D01*
X281224D02*
X288245D01*
X237755Y113070D02*
X241055D01*
X281135D02*
X288184D01*
X237844Y113040D02*
X241175D01*
X281014D02*
X288094D01*
X237905Y113010D02*
X241295D01*
X280894D02*
X288035D01*
X237995Y112980D02*
X241414D01*
X280774D02*
X287945D01*
X238085Y112950D02*
X241534D01*
X280655D02*
X287855D01*
X238175Y112920D02*
X241685D01*
X280504D02*
X287765D01*
X238264Y112890D02*
X241805D01*
X280384D02*
X287674D01*
X238324Y112860D02*
X241954D01*
X280264D02*
X287584D01*
X238415Y112830D02*
X242105D01*
X280115D02*
X287494D01*
X238505Y112800D02*
X242254D01*
X279995D02*
X287404D01*
X238625Y112770D02*
X242405D01*
X279815D02*
X287315D01*
X238715Y112740D02*
X242584D01*
X279664D02*
X287225D01*
X238835Y112710D02*
X242764D01*
X279515D02*
X287105D01*
X238925Y112680D02*
X242915D01*
X279364D02*
X287015D01*
X239044Y112650D02*
X243094D01*
X279185D02*
X286894D01*
X239135Y112620D02*
X243335D01*
X279034D02*
X286805D01*
X239254Y112590D02*
X243545D01*
X278854D02*
X286684D01*
X239374Y112560D02*
X243784D01*
X278675D02*
X286564D01*
X239494Y112530D02*
X243994D01*
X278465D02*
X286444D01*
X239615Y112500D02*
X244234D01*
X278285D02*
X286325D01*
X239735Y112470D02*
X244444D01*
X278104D02*
X286205D01*
X239855Y112440D02*
X244685D01*
X277894D02*
X286085D01*
X239974Y112410D02*
X244954D01*
X277684D02*
X285934D01*
X240125Y112380D02*
X245254D01*
X277445D02*
X285814D01*
X240275Y112350D02*
X245585D01*
X277235D02*
X285665D01*
X240424Y112320D02*
X245884D01*
X276994D02*
X285514D01*
X240575Y112290D02*
X246184D01*
X276754D02*
X285365D01*
X240694Y112260D02*
X246574D01*
X276484D02*
X285244D01*
X240875Y112230D02*
X246965D01*
X276215D02*
X285065D01*
X241024Y112200D02*
X247355D01*
X275974D02*
X284914D01*
X241205Y112170D02*
X247744D01*
X275705D02*
X284735D01*
X241354Y112140D02*
X248165D01*
X275375D02*
X284584D01*
X241534Y112110D02*
X248554D01*
X275075D02*
X284404D01*
X241715Y112080D02*
X248974D01*
X274745D02*
X284225D01*
X241895Y112050D02*
X249364D01*
X274414D02*
X284015D01*
X242105Y112020D02*
X249784D01*
X274055D02*
X283835D01*
X242284Y111990D02*
X250204D01*
X273664D02*
X283654D01*
X242495Y111960D02*
X250745D01*
X273274D02*
X283444D01*
X242705Y111930D02*
X251255D01*
X272825D02*
X283235D01*
X242945Y111900D02*
X251764D01*
X272285D02*
X282995D01*
X243155Y111870D02*
X252395D01*
X271775D02*
X282785D01*
X243394Y111840D02*
X253054D01*
X271265D02*
X282544D01*
X243635Y111810D02*
X253745D01*
X270725D02*
X282305D01*
X243875Y111780D02*
X254524D01*
X270125D02*
X282065D01*
X244145Y111750D02*
X255424D01*
X269285D02*
X281795D01*
X244414Y111720D02*
X256325D01*
X268444D02*
X281524D01*
X244714Y111690D02*
X257585D01*
X267604D02*
X281224D01*
X245044Y111660D02*
X258964D01*
X265985D02*
X280894D01*
X245344Y111630D02*
X261754D01*
X262354D02*
X280594D01*
X245674Y111600D02*
X280264D01*
X246005Y111570D02*
X279964D01*
X246304Y111540D02*
X279634D01*
X246694Y111510D02*
X279244D01*
X247114Y111480D02*
X278824D01*
X247534Y111450D02*
X278404D01*
X247985Y111420D02*
X277984D01*
X248405Y111390D02*
X277565D01*
X248915Y111360D02*
X277025D01*
X249484Y111330D02*
X276454D01*
X250084Y111300D02*
X275885D01*
X250655Y111270D02*
X275314D01*
X251434Y111240D02*
X274504D01*
X252274Y111210D02*
X273694D01*
X253174Y111180D02*
X272764D01*
X254404Y111150D02*
X271565D01*
X256025Y111120D02*
X269915D01*
D15*
X74568Y148819D02*
X91193D01*
X24693D02*
X41318D01*
X91193Y28346D02*
Y148819D01*
X41318D02*
X74568D01*
X24693D02*
X24693Y28346D01*
X91193D01*
X42323Y148819D02*
X43328Y28355D01*
X275652Y78740D02*
X271654D01*
X275652Y82739D01*
Y83738D01*
X274653Y84738D01*
X272653D01*
X271654Y83738D01*
Y47977D02*
X273653D01*
X272653D01*
Y53975D01*
X271654Y52975D01*
X257874Y134843D02*
X259873D01*
X258874D01*
Y140841D01*
X257874Y139841D01*
X74803Y184851D02*
Y190849D01*
X77802D01*
X78802Y189849D01*
Y187850D01*
X77802Y186850D01*
X74803D01*
X84800Y190849D02*
X82801Y189849D01*
X80801Y187850D01*
Y185850D01*
X81801Y184851D01*
X83800D01*
X84800Y185850D01*
Y186850D01*
X83800Y187850D01*
X80801D01*
X266299Y166065D02*
Y172063D01*
X269298D01*
X270298Y171063D01*
Y169064D01*
X269298Y168064D01*
X266299D01*
X276296Y166065D02*
X272297D01*
X276296Y170063D01*
Y171063D01*
X275296Y172063D01*
X273297D01*
X272297Y171063D01*
X60236Y33071D02*
Y36570D01*
X61986D01*
X62569Y35987D01*
Y34820D01*
X61986Y34237D01*
X60236D01*
X63735Y33071D02*
X64901D01*
X64318D01*
Y36570D01*
X63735Y35987D01*
D16*
X242284Y99537D02*
X242940Y100193D01*
X244252D01*
X244908Y99537D01*
Y96913D01*
X244252Y96257D01*
X242940D01*
X242284Y96913D01*
Y99537D01*
X246220Y96913D02*
X246876Y96257D01*
X248188D01*
X248844Y96913D01*
Y99537D01*
X248188Y100193D01*
X246876D01*
X246220Y99537D01*
Y98881D01*
X246876Y98225D01*
X248844D01*
X250156Y96257D02*
X252780Y98881D01*
X254092Y96257D02*
X255404D01*
X254748D01*
Y100193D01*
X254092Y99537D01*
X259995Y100193D02*
X258683Y99537D01*
X257371Y98225D01*
Y96913D01*
X258028Y96257D01*
X259339D01*
X259995Y96913D01*
Y97569D01*
X259339Y98225D01*
X257371D01*
X261307Y96257D02*
X263931Y98881D01*
X267867Y96257D02*
X265243D01*
X267867Y98881D01*
Y99537D01*
X267211Y100193D01*
X265899D01*
X265243Y99537D01*
X269179D02*
X269835Y100193D01*
X271147D01*
X271803Y99537D01*
Y96913D01*
X271147Y96257D01*
X269835D01*
X269179Y96913D01*
Y99537D01*
X273114Y96257D02*
X274426D01*
X273770D01*
Y100193D01*
X273114Y99537D01*
X276394Y96913D02*
X277050Y96257D01*
X278362D01*
X279018Y96913D01*
Y99537D01*
X278362Y100193D01*
X277050D01*
X276394Y99537D01*
Y98881D01*
X277050Y98225D01*
X279018D01*
X239855Y104331D02*
Y108266D01*
X241822D01*
X242478Y107610D01*
Y106299D01*
X241822Y105643D01*
X239855D01*
X241166D02*
X242478Y104331D01*
X245758D02*
X244446D01*
X243790Y104987D01*
Y106299D01*
X244446Y106955D01*
X245758D01*
X246414Y106299D01*
Y105643D01*
X243790D01*
X248382Y104331D02*
Y107610D01*
Y106299D01*
X247726D01*
X249038D01*
X248382D01*
Y107610D01*
X249038Y108266D01*
X252974Y104331D02*
X251662D01*
X251006Y104987D01*
Y106299D01*
X251662Y106955D01*
X252974D01*
X253630Y106299D01*
Y105643D01*
X251006D01*
X254942Y106955D02*
Y104331D01*
Y105643D01*
X255597Y106299D01*
X256253Y106955D01*
X256909D01*
X260845Y104331D02*
X259533D01*
X258877Y104987D01*
Y106299D01*
X259533Y106955D01*
X260845D01*
X261501Y106299D01*
Y105643D01*
X258877D01*
X262813Y104331D02*
Y106955D01*
X264781D01*
X265437Y106299D01*
Y104331D01*
X269373Y106955D02*
X267405D01*
X266749Y106299D01*
Y104987D01*
X267405Y104331D01*
X269373D01*
X272652D02*
X271340D01*
X270685Y104987D01*
Y106299D01*
X271340Y106955D01*
X272652D01*
X273308Y106299D01*
Y105643D01*
X270685D01*
X278556Y104331D02*
Y108266D01*
X280524D01*
X281180Y107610D01*
Y106299D01*
X280524Y105643D01*
X278556D01*
X282492Y104331D02*
X283804D01*
X283148D01*
Y108266D01*
X282492D01*
X286427Y106955D02*
X287739D01*
X288395Y106299D01*
Y104331D01*
X286427D01*
X285771Y104987D01*
X286427Y105643D01*
X288395D01*
X290363Y107610D02*
Y106955D01*
X289707D01*
X291019D01*
X290363D01*
Y104987D01*
X291019Y104331D01*
X293643D02*
Y107610D01*
Y106299D01*
X292987D01*
X294299D01*
X293643D01*
Y107610D01*
X294299Y108266D01*
X296923Y104331D02*
X298235D01*
X298891Y104987D01*
Y106299D01*
X298235Y106955D01*
X296923D01*
X296267Y106299D01*
Y104987D01*
X296923Y104331D01*
X300202Y106955D02*
Y104331D01*
Y105643D01*
X300858Y106299D01*
X301514Y106955D01*
X302170D01*
X304138Y104331D02*
Y106955D01*
X304794D01*
X305450Y106299D01*
Y104331D01*
Y106299D01*
X306106Y106955D01*
X306762Y106299D01*
Y104331D01*
X173700Y120599D02*
Y117683D01*
X174283Y117100D01*
X175449D01*
X176033Y117683D01*
Y120599D01*
X179531Y117100D02*
X177199D01*
X179531Y119433D01*
Y120016D01*
X178948Y120599D01*
X177782D01*
X177199Y120016D01*
X100300Y67000D02*
Y70499D01*
X102049D01*
X102633Y69916D01*
Y68749D01*
X102049Y68166D01*
X100300D01*
X101466D02*
X102633Y67000D01*
X103799Y69916D02*
X104382Y70499D01*
X105548D01*
X106131Y69916D01*
Y69333D01*
X105548Y68749D01*
X104965D01*
X105548D01*
X106131Y68166D01*
Y67583D01*
X105548Y67000D01*
X104382D01*
X103799Y67583D01*
X107298Y67000D02*
X108464D01*
X107881D01*
Y70499D01*
X107298Y69916D01*
X92913Y46200D02*
Y49699D01*
X94663D01*
X95246Y49116D01*
Y47949D01*
X94663Y47366D01*
X92913D01*
X94080D02*
X95246Y46200D01*
X96412Y49116D02*
X96995Y49699D01*
X98162D01*
X98745Y49116D01*
Y48533D01*
X98162Y47949D01*
X97579D01*
X98162D01*
X98745Y47366D01*
Y46783D01*
X98162Y46200D01*
X96995D01*
X96412Y46783D01*
X99911Y49116D02*
X100494Y49699D01*
X101661D01*
X102244Y49116D01*
Y46783D01*
X101661Y46200D01*
X100494D01*
X99911Y46783D01*
Y49116D01*
X94100Y121555D02*
Y125054D01*
X95849D01*
X96433Y124471D01*
Y123304D01*
X95849Y122721D01*
X94100D01*
X95266D02*
X96433Y121555D01*
X99931D02*
X97599D01*
X99931Y123888D01*
Y124471D01*
X99348Y125054D01*
X98182D01*
X97599Y124471D01*
X101098Y122138D02*
X101681Y121555D01*
X102847D01*
X103430Y122138D01*
Y124471D01*
X102847Y125054D01*
X101681D01*
X101098Y124471D01*
Y123888D01*
X101681Y123304D01*
X103430D01*
X93400Y100300D02*
Y103799D01*
X95149D01*
X95733Y103216D01*
Y102049D01*
X95149Y101466D01*
X93400D01*
X94566D02*
X95733Y100300D01*
X99231D02*
X96899D01*
X99231Y102633D01*
Y103216D01*
X98648Y103799D01*
X97482D01*
X96899Y103216D01*
X100398Y103799D02*
X102730D01*
Y103216D01*
X100398Y100883D01*
Y100300D01*
X109700Y84000D02*
Y87499D01*
X111449D01*
X112033Y86916D01*
Y85749D01*
X111449Y85166D01*
X109700D01*
X110866D02*
X112033Y84000D01*
X115531D02*
X113199D01*
X115531Y86333D01*
Y86916D01*
X114948Y87499D01*
X113782D01*
X113199Y86916D01*
X119030Y87499D02*
X116698D01*
Y85749D01*
X117864Y86333D01*
X118447D01*
X119030Y85749D01*
Y84583D01*
X118447Y84000D01*
X117281D01*
X116698Y84583D01*
X109454Y77600D02*
Y81099D01*
X111204D01*
X111787Y80516D01*
Y79349D01*
X111204Y78766D01*
X109454D01*
X110620D02*
X111787Y77600D01*
X115286D02*
X112953D01*
X115286Y79933D01*
Y80516D01*
X114702Y81099D01*
X113536D01*
X112953Y80516D01*
X118201Y77600D02*
Y81099D01*
X116452Y79349D01*
X118784D01*
X302618Y62697D02*
Y66196D01*
X304367D01*
X304951Y65613D01*
Y64446D01*
X304367Y63863D01*
X302618D01*
X307866Y62697D02*
Y66196D01*
X306117Y64446D01*
X308450D01*
X129104Y108034D02*
X128521Y108617D01*
X127355D01*
X126772Y108034D01*
Y107451D01*
X127355Y106868D01*
X128521D01*
X129104Y106284D01*
Y105701D01*
X128521Y105118D01*
X127355D01*
X126772Y105701D01*
X130271Y108617D02*
X132603D01*
X131437D01*
Y105118D01*
X133769Y108034D02*
X134353Y108617D01*
X135519D01*
X136102Y108034D01*
Y107451D01*
X134936Y106284D01*
Y105701D02*
Y105118D01*
X135010Y131262D02*
X134427Y131845D01*
X133260D01*
X132677Y131262D01*
Y128930D01*
X133260Y128347D01*
X134427D01*
X135010Y128930D01*
X138509Y131845D02*
X137342Y131262D01*
X136176Y130096D01*
Y128930D01*
X136759Y128347D01*
X137926D01*
X138509Y128930D01*
Y129513D01*
X137926Y130096D01*
X136176D01*
X155088Y130868D02*
X154505Y131452D01*
X153339D01*
X152756Y130868D01*
Y128536D01*
X153339Y127953D01*
X154505D01*
X155088Y128536D01*
X158587Y131452D02*
X156255D01*
Y129702D01*
X157421Y130285D01*
X158004D01*
X158587Y129702D01*
Y128536D01*
X158004Y127953D01*
X156838D01*
X156255Y128536D01*
X148031Y91688D02*
X150364Y88189D01*
Y91688D02*
X148031Y88189D01*
X151530D02*
X152697D01*
X152113D01*
Y91688D01*
X151530Y91105D01*
X178734Y218149D02*
X175819D01*
X175235Y217565D01*
Y216399D01*
X175819Y215816D01*
X178734D01*
X175235Y214650D02*
Y213483D01*
Y214067D01*
X178734D01*
X178151Y214650D01*
X133995Y101924D02*
X136328D01*
X135161D01*
Y98425D01*
X137494Y97259D02*
Y100758D01*
X139243D01*
X139827Y100175D01*
Y99008D01*
X139243Y98425D01*
X137494D01*
X143325Y101924D02*
X142159Y101341D01*
X140993Y100175D01*
Y99008D01*
X141576Y98425D01*
X142742D01*
X143325Y99008D01*
Y99591D01*
X142742Y100175D01*
X140993D01*
X123700Y61400D02*
Y64899D01*
X125449D01*
X126033Y64316D01*
Y63149D01*
X125449Y62566D01*
X123700D01*
X124866D02*
X126033Y61400D01*
X127199Y64316D02*
X127782Y64899D01*
X128948D01*
X129531Y64316D01*
Y63733D01*
X128948Y63149D01*
X128365D01*
X128948D01*
X129531Y62566D01*
Y61983D01*
X128948Y61400D01*
X127782D01*
X127199Y61983D01*
X130698Y64899D02*
X133030D01*
Y64316D01*
X130698Y61983D01*
Y61400D01*
X123700Y66400D02*
Y69899D01*
X125449D01*
X126033Y69316D01*
Y68149D01*
X125449Y67566D01*
X123700D01*
X124866D02*
X126033Y66400D01*
X127199Y69316D02*
X127782Y69899D01*
X128948D01*
X129531Y69316D01*
Y68733D01*
X128948Y68149D01*
X128365D01*
X128948D01*
X129531Y67566D01*
Y66983D01*
X128948Y66400D01*
X127782D01*
X127199Y66983D01*
X133030Y69899D02*
X131864Y69316D01*
X130698Y68149D01*
Y66983D01*
X131281Y66400D01*
X132447D01*
X133030Y66983D01*
Y67566D01*
X132447Y68149D01*
X130698D01*
X123500Y71200D02*
Y74699D01*
X125249D01*
X125833Y74116D01*
Y72949D01*
X125249Y72366D01*
X123500D01*
X124666D02*
X125833Y71200D01*
X126999Y74116D02*
X127582Y74699D01*
X128748D01*
X129331Y74116D01*
Y73533D01*
X128748Y72949D01*
X128165D01*
X128748D01*
X129331Y72366D01*
Y71783D01*
X128748Y71200D01*
X127582D01*
X126999Y71783D01*
X132830Y74699D02*
X130498D01*
Y72949D01*
X131664Y73533D01*
X132247D01*
X132830Y72949D01*
Y71783D01*
X132247Y71200D01*
X131081D01*
X130498Y71783D01*
X312992Y192913D02*
Y196412D01*
X314742D01*
X315325Y195829D01*
Y194663D01*
X314742Y194080D01*
X312992D01*
X314158D02*
X315325Y192913D01*
X316491Y195829D02*
X317074Y196412D01*
X318240D01*
X318824Y195829D01*
Y195246D01*
X318240Y194663D01*
X317657D01*
X318240D01*
X318824Y194080D01*
Y193497D01*
X318240Y192913D01*
X317074D01*
X316491Y193497D01*
X321739Y192913D02*
Y196412D01*
X319990Y194663D01*
X322322D01*
X178740Y138189D02*
X175241D01*
Y139938D01*
X175824Y140522D01*
X176991D01*
X177574Y139938D01*
Y138189D01*
Y139355D02*
X178740Y140522D01*
Y144020D02*
Y141688D01*
X176408Y144020D01*
X175824D01*
X175241Y143437D01*
Y142271D01*
X175824Y141688D01*
Y145187D02*
X175241Y145770D01*
Y146936D01*
X175824Y147519D01*
X176408D01*
X176991Y146936D01*
Y146353D01*
Y146936D01*
X177574Y147519D01*
X178157D01*
X178740Y146936D01*
Y145770D01*
X178157Y145187D01*
X174016Y138189D02*
X170517D01*
Y139938D01*
X171100Y140522D01*
X172266D01*
X172850Y139938D01*
Y138189D01*
Y139355D02*
X174016Y140522D01*
Y144020D02*
Y141688D01*
X171683Y144020D01*
X171100D01*
X170517Y143437D01*
Y142271D01*
X171100Y141688D01*
X174016Y147519D02*
Y145187D01*
X171683Y147519D01*
X171100D01*
X170517Y146936D01*
Y145770D01*
X171100Y145187D01*
X169291Y138189D02*
X165793Y138192D01*
X165794Y139941D01*
X166377Y140524D01*
X167544Y140523D01*
X168126Y139939D01*
X168125Y138190D01*
X168126Y139356D02*
X169293Y140522D01*
X169296Y144020D02*
X169294Y141688D01*
X166964Y144022D01*
X166380Y144023D01*
X165797Y143440D01*
X165796Y142274D01*
X166378Y141690D01*
X169297Y145187D02*
X169298Y146353D01*
X169298Y145770D01*
X165799Y145773D01*
X166381Y145189D01*
X183465Y138189D02*
X179967Y138109D01*
X179927Y139858D01*
X180496Y140454D01*
X181662Y140481D01*
X182259Y139911D01*
X182299Y138162D01*
X182272Y139328D02*
X183411Y140521D01*
X183331Y144019D02*
X183385Y141687D01*
X180999Y143966D01*
X180416Y143952D01*
X179847Y143356D01*
X179873Y142190D01*
X180470Y141620D01*
X180390Y145118D02*
X179793Y145688D01*
X179767Y146854D01*
X180336Y147450D01*
X182668Y147503D01*
X183265Y146934D01*
X183291Y145768D01*
X182722Y145172D01*
X180390Y145118D01*
X187795Y138189D02*
X184297Y138137D01*
X184271Y139887D01*
X184846Y140478D01*
X186012Y140496D01*
X186603Y139921D01*
X186629Y138172D01*
X186612Y139338D02*
X187761Y140521D01*
X187744Y141688D02*
X187727Y142854D01*
X187735Y142271D01*
X184237Y142219D01*
X184828Y141645D01*
X187118Y144594D02*
X187692Y145186D01*
X187675Y146352D01*
X187084Y146927D01*
X184751Y146892D01*
X184177Y146301D01*
X184194Y145134D01*
X184785Y144560D01*
X185369Y144569D01*
X185943Y145160D01*
X185917Y146909D01*
X192126Y138583D02*
X188629Y138480D01*
X188577Y140228D01*
X189143Y140829D01*
X190309Y140863D01*
X190909Y140297D01*
X190960Y138548D01*
X190926Y139714D02*
X192057Y140914D01*
X192023Y142080D02*
X191989Y143246D01*
X192006Y142663D01*
X188509Y142560D01*
X189109Y141994D01*
X189023Y144909D02*
X188423Y145475D01*
X188389Y146640D01*
X188954Y147240D01*
X189537Y147257D01*
X190137Y146692D01*
X190703Y147292D01*
X191286Y147309D01*
X191886Y146743D01*
X191920Y145577D01*
X191355Y144977D01*
X190772Y144960D01*
X190172Y145526D01*
X189606Y144926D01*
X189023Y144909D01*
X190172Y145526D02*
X190137Y146692D01*
X217224Y109646D02*
Y113145D01*
X218974D01*
X219557Y112561D01*
Y111395D01*
X218974Y110812D01*
X217224D01*
X218391D02*
X219557Y109646D01*
X220723D02*
X221890D01*
X221306D01*
Y113145D01*
X220723Y112561D01*
X223639Y113145D02*
X225972D01*
Y112561D01*
X223639Y110229D01*
Y109646D01*
X217224Y103051D02*
Y106550D01*
X218974D01*
X219557Y105967D01*
Y104801D01*
X218974Y104218D01*
X217224D01*
X218391D02*
X219557Y103051D01*
X220723D02*
X221890D01*
X221306D01*
Y106550D01*
X220723Y105967D01*
X225972Y106550D02*
X224805Y105967D01*
X223639Y104801D01*
Y103634D01*
X224222Y103051D01*
X225388D01*
X225972Y103634D01*
Y104218D01*
X225388Y104801D01*
X223639D01*
X217224Y96653D02*
Y100152D01*
X218974D01*
X219557Y99569D01*
Y98403D01*
X218974Y97820D01*
X217224D01*
X218391D02*
X219557Y96653D01*
X220723D02*
X221890D01*
X221306D01*
Y100152D01*
X220723Y99569D01*
X225972Y100152D02*
X223639D01*
Y98403D01*
X224805Y98986D01*
X225388D01*
X225972Y98403D01*
Y97237D01*
X225388Y96653D01*
X224222D01*
X223639Y97237D01*
X94500Y15300D02*
Y18799D01*
X96249D01*
X96833Y18216D01*
Y17049D01*
X96249Y16466D01*
X94500D01*
X95666D02*
X96833Y15300D01*
X97999D02*
X99165D01*
X98582D01*
Y18799D01*
X97999Y18216D01*
X102664Y15300D02*
Y18799D01*
X100915Y17049D01*
X103247D01*
X94900Y20500D02*
Y23999D01*
X96649D01*
X97233Y23416D01*
Y22249D01*
X96649Y21666D01*
X94900D01*
X96066D02*
X97233Y20500D01*
X98399D02*
X99565D01*
X98982D01*
Y23999D01*
X98399Y23416D01*
X101315D02*
X101898Y23999D01*
X103064D01*
X103647Y23416D01*
Y22833D01*
X103064Y22249D01*
X102481D01*
X103064D01*
X103647Y21666D01*
Y21083D01*
X103064Y20500D01*
X101898D01*
X101315Y21083D01*
X85900Y30000D02*
Y33499D01*
X87649D01*
X88233Y32916D01*
Y31749D01*
X87649Y31166D01*
X85900D01*
X87066D02*
X88233Y30000D01*
X89399D02*
X90565D01*
X89982D01*
Y33499D01*
X89399Y32916D01*
X94647Y30000D02*
X92315D01*
X94647Y32333D01*
Y32916D01*
X94064Y33499D01*
X92898D01*
X92315Y32916D01*
X135100Y30200D02*
Y33699D01*
X136849D01*
X137433Y33116D01*
Y31949D01*
X136849Y31366D01*
X135100D01*
X136266D02*
X137433Y30200D01*
X138599D02*
X139765D01*
X139182D01*
Y33699D01*
X138599Y33116D01*
X141515Y30200D02*
X142681D01*
X142098D01*
Y33699D01*
X141515Y33116D01*
X102100Y34000D02*
Y37499D01*
X103849D01*
X104433Y36916D01*
Y35749D01*
X103849Y35166D01*
X102100D01*
X103266D02*
X104433Y34000D01*
X105599Y34583D02*
X106182Y34000D01*
X107348D01*
X107931Y34583D01*
Y36916D01*
X107348Y37499D01*
X106182D01*
X105599Y36916D01*
Y36333D01*
X106182Y35749D01*
X107931D01*
X88100Y35000D02*
Y38499D01*
X89849D01*
X90433Y37916D01*
Y36749D01*
X89849Y36166D01*
X88100D01*
X89266D02*
X90433Y35000D01*
X91599Y37916D02*
X92182Y38499D01*
X93348D01*
X93931Y37916D01*
Y37333D01*
X93348Y36749D01*
X93931Y36166D01*
Y35583D01*
X93348Y35000D01*
X92182D01*
X91599Y35583D01*
Y36166D01*
X92182Y36749D01*
X91599Y37333D01*
Y37916D01*
X92182Y36749D02*
X93348D01*
X132800Y47143D02*
Y50642D01*
X134549D01*
X135133Y50059D01*
Y48892D01*
X134549Y48309D01*
X132800D01*
X133966D02*
X135133Y47143D01*
X136299Y50642D02*
X138631D01*
Y50059D01*
X136299Y47726D01*
Y47143D01*
X123600Y75600D02*
Y79099D01*
X125349D01*
X125933Y78516D01*
Y77349D01*
X125349Y76766D01*
X123600D01*
X124766D02*
X125933Y75600D01*
X129431Y79099D02*
X128265Y78516D01*
X127099Y77349D01*
Y76183D01*
X127682Y75600D01*
X128848D01*
X129431Y76183D01*
Y76766D01*
X128848Y77349D01*
X127099D01*
X135433Y112205D02*
Y115704D01*
X137182D01*
X137766Y115120D01*
Y113954D01*
X137182Y113371D01*
X135433D01*
X136599D02*
X137766Y112205D01*
X141264Y115704D02*
X138932D01*
Y113954D01*
X140098Y114537D01*
X140681D01*
X141264Y113954D01*
Y112788D01*
X140681Y112205D01*
X139515D01*
X138932Y112788D01*
X112697Y111221D02*
Y114719D01*
X114446D01*
X115029Y114136D01*
Y112970D01*
X114446Y112387D01*
X112697D01*
X113863D02*
X115029Y111221D01*
X117945D02*
Y114719D01*
X116196Y112970D01*
X118528D01*
X113583Y124409D02*
Y127908D01*
X115332D01*
X115915Y127325D01*
Y126159D01*
X115332Y125576D01*
X113583D01*
X114749D02*
X115915Y124409D01*
X117081Y127325D02*
X117665Y127908D01*
X118831D01*
X119414Y127325D01*
Y126742D01*
X118831Y126159D01*
X118248D01*
X118831D01*
X119414Y125576D01*
Y124993D01*
X118831Y124409D01*
X117665D01*
X117081Y124993D01*
X136221Y121653D02*
Y125152D01*
X137970D01*
X138553Y124569D01*
Y123403D01*
X137970Y122820D01*
X136221D01*
X137387D02*
X138553Y121653D01*
X142052D02*
X139719D01*
X142052Y123986D01*
Y124569D01*
X141469Y125152D01*
X140303D01*
X139719Y124569D01*
X282127Y179975D02*
Y183474D01*
X283876D01*
X284459Y182890D01*
Y181724D01*
X283876Y181141D01*
X282127D01*
X283293D02*
X284459Y179975D01*
X285626D02*
X286792D01*
X286209D01*
Y183474D01*
X285626Y182890D01*
X127033Y15483D02*
Y17816D01*
X126449Y18399D01*
X125283D01*
X124700Y17816D01*
Y15483D01*
X125283Y14900D01*
X126449D01*
X125866Y16066D02*
X127033Y14900D01*
X126449D02*
X127033Y15483D01*
X128199Y17816D02*
X128782Y18399D01*
X129948D01*
X130531Y17816D01*
Y17233D01*
X129948Y16649D01*
X129365D01*
X129948D01*
X130531Y16066D01*
Y15483D01*
X129948Y14900D01*
X128782D01*
X128199Y15483D01*
X136033Y37783D02*
Y40116D01*
X135449Y40699D01*
X134283D01*
X133700Y40116D01*
Y37783D01*
X134283Y37200D01*
X135449D01*
X134866Y38366D02*
X136033Y37200D01*
X135449D02*
X136033Y37783D01*
X139531Y37200D02*
X137199D01*
X139531Y39533D01*
Y40116D01*
X138948Y40699D01*
X137782D01*
X137199Y40116D01*
X317625Y131860D02*
X315293D01*
X314710Y131277D01*
Y130111D01*
X315293Y129528D01*
X317625D01*
X318209Y130111D01*
Y131277D01*
X317042Y130694D02*
X318209Y131860D01*
Y131277D02*
X317625Y131860D01*
X318209Y133027D02*
Y134193D01*
Y133610D01*
X314710D01*
X315293Y133027D01*
X110630Y17672D02*
Y14173D01*
X112379D01*
X112962Y14756D01*
Y17089D01*
X112379Y17672D01*
X110630D01*
X114129D02*
X116461D01*
Y17089D01*
X114129Y14756D01*
Y14173D01*
X116461D01*
X117628Y17089D02*
X118211Y17672D01*
X119377D01*
X119960Y17089D01*
Y16506D01*
X119377Y15923D01*
X118794D01*
X119377D01*
X119960Y15339D01*
Y14756D01*
X119377Y14173D01*
X118211D01*
X117628Y14756D01*
X115200Y50462D02*
Y46963D01*
X116949D01*
X117533Y47546D01*
Y49879D01*
X116949Y50462D01*
X115200D01*
X118699D02*
X121031D01*
Y49879D01*
X118699Y47546D01*
Y46963D01*
X121031D01*
X124530D02*
X122198D01*
X124530Y49295D01*
Y49879D01*
X123947Y50462D01*
X122781D01*
X122198Y49879D01*
X315059Y216097D02*
Y212598D01*
X316809D01*
X317392Y213182D01*
Y215514D01*
X316809Y216097D01*
X315059D01*
X320890D02*
X319724Y215514D01*
X318558Y214348D01*
Y213182D01*
X319141Y212598D01*
X320307D01*
X320890Y213182D01*
Y213765D01*
X320307Y214348D01*
X318558D01*
X122047Y131845D02*
Y128347D01*
X123797D01*
X124380Y128930D01*
Y131262D01*
X123797Y131845D01*
X122047D01*
X127879Y128347D02*
X125546D01*
X127879Y130679D01*
Y131262D01*
X127295Y131845D01*
X126129D01*
X125546Y131262D01*
X95669Y143656D02*
Y140157D01*
X97419D01*
X98002Y140741D01*
Y143073D01*
X97419Y143656D01*
X95669D01*
X99168Y140157D02*
X100335D01*
X99751D01*
Y143656D01*
X99168Y143073D01*
X109433Y103716D02*
X108849Y104299D01*
X107683D01*
X107100Y103716D01*
Y101383D01*
X107683Y100800D01*
X108849D01*
X109433Y101383D01*
X110599Y103716D02*
X111182Y104299D01*
X112348D01*
X112931Y103716D01*
Y103133D01*
X112348Y102549D01*
X111765D01*
X112348D01*
X112931Y101966D01*
Y101383D01*
X112348Y100800D01*
X111182D01*
X110599Y101383D01*
X116430Y100800D02*
X114098D01*
X116430Y103133D01*
Y103716D01*
X115847Y104299D01*
X114681D01*
X114098Y103716D01*
X109333Y93516D02*
X108749Y94099D01*
X107583D01*
X107000Y93516D01*
Y91183D01*
X107583Y90600D01*
X108749D01*
X109333Y91183D01*
X110499Y93516D02*
X111082Y94099D01*
X112248D01*
X112831Y93516D01*
Y92933D01*
X112248Y92349D01*
X111665D01*
X112248D01*
X112831Y91766D01*
Y91183D01*
X112248Y90600D01*
X111082D01*
X110499Y91183D01*
X113998Y90600D02*
X115164D01*
X114581D01*
Y94099D01*
X113998Y93516D01*
X133033Y92216D02*
X132449Y92799D01*
X131283D01*
X130700Y92216D01*
Y89883D01*
X131283Y89300D01*
X132449D01*
X133033Y89883D01*
X134199Y92216D02*
X134782Y92799D01*
X135948D01*
X136531Y92216D01*
Y91633D01*
X135948Y91049D01*
X135365D01*
X135948D01*
X136531Y90466D01*
Y89883D01*
X135948Y89300D01*
X134782D01*
X134199Y89883D01*
X137698Y92216D02*
X138281Y92799D01*
X139447D01*
X140030Y92216D01*
Y89883D01*
X139447Y89300D01*
X138281D01*
X137698Y89883D01*
Y92216D01*
X130977Y151940D02*
X130394Y152523D01*
X129228D01*
X128645Y151940D01*
Y149608D01*
X129228Y149024D01*
X130394D01*
X130977Y149608D01*
X134476Y149024D02*
X132143D01*
X134476Y151357D01*
Y151940D01*
X133893Y152523D01*
X132727D01*
X132143Y151940D01*
X137975Y152523D02*
X136809Y151940D01*
X135642Y150774D01*
Y149608D01*
X136225Y149024D01*
X137392D01*
X137975Y149608D01*
Y150191D01*
X137392Y150774D01*
X135642D01*
X227136Y62955D02*
X226553Y63538D01*
X225386D01*
X224803Y62955D01*
Y60623D01*
X225386Y60039D01*
X226553D01*
X227136Y60623D01*
X230635Y60039D02*
X228302D01*
X230635Y62372D01*
Y62955D01*
X230051Y63538D01*
X228885D01*
X228302Y62955D01*
X231801D02*
X232384Y63538D01*
X233550D01*
X234134Y62955D01*
Y60623D01*
X233550Y60039D01*
X232384D01*
X231801Y60623D01*
Y62955D01*
X155778Y105278D02*
X155194Y105861D01*
X154028D01*
X153445Y105278D01*
Y102945D01*
X154028Y102362D01*
X155194D01*
X155778Y102945D01*
X156944Y102362D02*
X158110D01*
X157527D01*
Y105861D01*
X156944Y105278D01*
X159860Y105861D02*
X162192D01*
Y105278D01*
X159860Y102945D01*
Y102362D01*
X155384Y78211D02*
X154801Y78794D01*
X153634D01*
X153051Y78211D01*
Y75878D01*
X153634Y75295D01*
X154801D01*
X155384Y75878D01*
X156550Y75295D02*
X157716D01*
X157133D01*
Y78794D01*
X156550Y78211D01*
X161798Y78794D02*
X160632Y78211D01*
X159466Y77045D01*
Y75878D01*
X160049Y75295D01*
X161215D01*
X161798Y75878D01*
Y76462D01*
X161215Y77045D01*
X159466D01*
X202234Y62758D02*
X201651Y63341D01*
X200485D01*
X199902Y62758D01*
Y60426D01*
X200485Y59842D01*
X201651D01*
X202234Y60426D01*
X203400Y59842D02*
X204567D01*
X203984D01*
Y63341D01*
X203400Y62758D01*
X206316D02*
X206899Y63341D01*
X208066D01*
X208649Y62758D01*
Y60426D01*
X208066Y59842D01*
X206899D01*
X206316Y60426D01*
Y62758D01*
X161281Y164342D02*
X160698Y164926D01*
X159532D01*
X158949Y164342D01*
Y162010D01*
X159532Y161427D01*
X160698D01*
X161281Y162010D01*
X162448Y164342D02*
X163031Y164926D01*
X164197D01*
X164780Y164342D01*
Y163759D01*
X164197Y163176D01*
X164780Y162593D01*
Y162010D01*
X164197Y161427D01*
X163031D01*
X162448Y162010D01*
Y162593D01*
X163031Y163176D01*
X162448Y163759D01*
Y164342D01*
X163031Y163176D02*
X164197D01*
X151483Y148626D02*
X150889Y149198D01*
X149723Y149178D01*
X149150Y148585D01*
X149191Y146252D01*
X149785Y145679D01*
X150951Y145700D01*
X151523Y146293D01*
X152638Y149229D02*
X154971Y149270D01*
X154981Y148687D01*
X152690Y146314D01*
X152700Y145731D01*
X194887Y173191D02*
X194304Y173775D01*
X193138D01*
X192554Y173191D01*
Y170859D01*
X193138Y170276D01*
X194304D01*
X194887Y170859D01*
X197803Y170276D02*
Y173775D01*
X196053Y172025D01*
X198386D01*
X192242Y191539D02*
X191648Y192112D01*
X190482Y192091D01*
X189910Y191498D01*
X189950Y189166D01*
X190544Y188593D01*
X191710Y188613D01*
X192283Y189207D01*
X193408Y191559D02*
X193981Y192153D01*
X195147Y192173D01*
X195740Y191600D01*
X195750Y191017D01*
X195177Y190424D01*
X194594Y190414D01*
X195177Y190424D01*
X195771Y189851D01*
X195781Y189268D01*
X195208Y188675D01*
X194042Y188654D01*
X193449Y189227D01*
X103897Y147719D02*
X103337Y147114D01*
X103381Y145948D01*
X103986Y145388D01*
X106317Y145478D01*
X106878Y146083D01*
X106833Y147248D01*
X106228Y147808D01*
X106676Y151327D02*
X106765Y148996D01*
X104345Y151237D01*
X103762Y151215D01*
X103202Y150610D01*
X103247Y149444D01*
X103852Y148884D01*
X131899Y196852D02*
X131316Y197435D01*
X130149D01*
X129566Y196852D01*
Y194519D01*
X130149Y193936D01*
X131316D01*
X131899Y194519D01*
X133065Y193936D02*
X134231D01*
X133648D01*
Y197435D01*
X133065Y196852D01*
D17*
X188494Y216311D02*
Y212769D01*
Y216311D02*
X190013D01*
X190519Y216142D01*
X190687Y215974D01*
X190856Y215636D01*
Y215299D01*
X190687Y214962D01*
X190519Y214793D01*
X190013Y214624D01*
X188494D01*
X189675D02*
X190856Y212769D01*
X193336Y216311D02*
X191649Y213949D01*
X194179D01*
X193336Y216311D02*
Y212769D01*
X194972Y215468D02*
Y215636D01*
X195141Y215974D01*
X195310Y216142D01*
X195647Y216311D01*
X196322D01*
X196659Y216142D01*
X196828Y215974D01*
X196997Y215636D01*
Y215299D01*
X196828Y214962D01*
X196491Y214455D01*
X194804Y212769D01*
X197165D01*
D18*
X103900Y44291D02*
Y47490D01*
X105499D01*
X106033Y46957D01*
Y45891D01*
X105499Y45358D01*
X103900D01*
X104966D02*
X106033Y44291D01*
X107099D02*
X108165D01*
X107632D01*
Y47490D01*
X107099Y46957D01*
X109765D02*
X110298Y47490D01*
X111364D01*
X111897Y46957D01*
Y44824D01*
X111364Y44291D01*
X110298D01*
X109765Y44824D01*
Y46957D01*
M02*
