G04*
G04 #@! TF.GenerationSoftware,Altium Limited,Altium Designer,19.0.4 (130)*
G04*
G04 Layer_Physical_Order=3*
G04 Layer_Color=36540*
%FSLAX25Y25*%
%MOIN*%
G70*
G01*
G75*
%ADD13C,0.00787*%
%ADD15C,0.01000*%
%ADD16C,0.00700*%
%ADD76C,0.00350*%
%ADD77C,0.00400*%
%ADD78C,0.00402*%
%ADD79C,0.00500*%
%ADD86C,0.06000*%
%ADD87C,0.01772*%
%ADD88C,0.01968*%
G36*
X352249Y231186D02*
Y12160D01*
X352362Y12047D01*
X349410Y9094D01*
X43307D01*
X40354Y12047D01*
Y230315D01*
X45276Y235236D01*
X348199D01*
X352249Y231186D01*
D02*
G37*
%LPC*%
G36*
X89083Y232138D02*
Y230815D01*
X90406D01*
X90359Y231051D01*
X89942Y231675D01*
X89319Y232091D01*
X89083Y232138D01*
D02*
G37*
G36*
X88083D02*
X87847Y232091D01*
X87223Y231675D01*
X86806Y231051D01*
X86759Y230815D01*
X88083D01*
Y232138D01*
D02*
G37*
G36*
X90406Y229815D02*
X89083D01*
Y228492D01*
X89319Y228538D01*
X89942Y228955D01*
X90359Y229579D01*
X90406Y229815D01*
D02*
G37*
G36*
X88083D02*
X86759D01*
X86806Y229579D01*
X87223Y228955D01*
X87847Y228538D01*
X88083Y228492D01*
Y229815D01*
D02*
G37*
G36*
X206174Y229000D02*
Y227677D01*
X207497D01*
X207450Y227913D01*
X207033Y228537D01*
X206410Y228954D01*
X206174Y229000D01*
D02*
G37*
G36*
X205174D02*
X204938Y228954D01*
X204314Y228537D01*
X203897Y227913D01*
X203850Y227677D01*
X205174D01*
Y229000D01*
D02*
G37*
G36*
X239280Y227566D02*
Y226242D01*
X240603D01*
X240556Y226478D01*
X240139Y227102D01*
X239515Y227519D01*
X239280Y227566D01*
D02*
G37*
G36*
X238280D02*
X238044Y227519D01*
X237420Y227102D01*
X237003Y226478D01*
X236956Y226242D01*
X238280D01*
Y227566D01*
D02*
G37*
G36*
X207497Y226677D02*
X206174D01*
Y225354D01*
X206410Y225401D01*
X207033Y225818D01*
X207450Y226441D01*
X207497Y226677D01*
D02*
G37*
G36*
X205174D02*
X203850D01*
X203897Y226441D01*
X204314Y225818D01*
X204938Y225401D01*
X205174Y225354D01*
Y226677D01*
D02*
G37*
G36*
X196269Y227496D02*
X195729Y227388D01*
X195270Y227082D01*
X194964Y226623D01*
X194856Y226083D01*
X194964Y225542D01*
X195270Y225084D01*
X195729Y224777D01*
X196269Y224670D01*
X196810Y224777D01*
X197268Y225084D01*
X197575Y225542D01*
X197682Y226083D01*
X197575Y226623D01*
X197268Y227082D01*
X196810Y227388D01*
X196269Y227496D01*
D02*
G37*
G36*
X240603Y225242D02*
X239280D01*
Y223919D01*
X239515Y223966D01*
X240139Y224383D01*
X240556Y225007D01*
X240603Y225242D01*
D02*
G37*
G36*
X238280D02*
X236956D01*
X237003Y225007D01*
X237420Y224383D01*
X238044Y223966D01*
X238280Y223919D01*
Y225242D01*
D02*
G37*
G36*
X243610Y221705D02*
Y220382D01*
X244934D01*
X244887Y220618D01*
X244470Y221241D01*
X243846Y221658D01*
X243610Y221705D01*
D02*
G37*
G36*
X242610D02*
X242374Y221658D01*
X241751Y221241D01*
X241334Y220618D01*
X241287Y220382D01*
X242610D01*
Y221705D01*
D02*
G37*
G36*
X233669Y220782D02*
Y219459D01*
X234993D01*
X234946Y219695D01*
X234529Y220319D01*
X233905Y220736D01*
X233669Y220782D01*
D02*
G37*
G36*
X232669D02*
X232434Y220736D01*
X231810Y220319D01*
X231393Y219695D01*
X231346Y219459D01*
X232669D01*
Y220782D01*
D02*
G37*
G36*
X225303D02*
Y219459D01*
X226626D01*
X226580Y219695D01*
X226163Y220319D01*
X225539Y220736D01*
X225303Y220782D01*
D02*
G37*
G36*
X224303D02*
X224067Y220736D01*
X223444Y220319D01*
X223027Y219695D01*
X222980Y219459D01*
X224303D01*
Y220782D01*
D02*
G37*
G36*
X184555Y220327D02*
Y219004D01*
X185878D01*
X185831Y219240D01*
X185415Y219864D01*
X184791Y220280D01*
X184555Y220327D01*
D02*
G37*
G36*
X183555D02*
X183319Y220280D01*
X182695Y219864D01*
X182279Y219240D01*
X182232Y219004D01*
X183555D01*
Y220327D01*
D02*
G37*
G36*
X244934Y219382D02*
X243610D01*
Y218059D01*
X243846Y218106D01*
X244470Y218522D01*
X244887Y219146D01*
X244934Y219382D01*
D02*
G37*
G36*
X242610D02*
X241287D01*
X241334Y219146D01*
X241751Y218522D01*
X242374Y218106D01*
X242610Y218059D01*
Y219382D01*
D02*
G37*
G36*
X344488Y231242D02*
X343155Y231110D01*
X341874Y230721D01*
X340692Y230090D01*
X339657Y229240D01*
X338808Y228205D01*
X338176Y227024D01*
X337787Y225742D01*
X337656Y224410D01*
X337787Y223077D01*
X338176Y221795D01*
X338808Y220614D01*
X339657Y219578D01*
X340692Y218729D01*
X341874Y218097D01*
X343155Y217709D01*
X344488Y217577D01*
X345821Y217709D01*
X347103Y218097D01*
X348284Y218729D01*
X349319Y219578D01*
X350169Y220614D01*
X350800Y221795D01*
X351189Y223077D01*
X351320Y224410D01*
X351189Y225742D01*
X350800Y227024D01*
X350169Y228205D01*
X349319Y229240D01*
X348284Y230090D01*
X347103Y230721D01*
X345821Y231110D01*
X344488Y231242D01*
D02*
G37*
G36*
X49213D02*
X47880Y231110D01*
X46598Y230721D01*
X45417Y230090D01*
X44382Y229240D01*
X43532Y228205D01*
X42900Y227024D01*
X42512Y225742D01*
X42380Y224410D01*
X42512Y223077D01*
X42900Y221795D01*
X43532Y220614D01*
X44382Y219578D01*
X45417Y218729D01*
X46598Y218097D01*
X47880Y217709D01*
X49213Y217577D01*
X50546Y217709D01*
X51827Y218097D01*
X53008Y218729D01*
X54044Y219578D01*
X54893Y220614D01*
X55525Y221795D01*
X55913Y223077D01*
X56045Y224410D01*
X55913Y225742D01*
X55525Y227024D01*
X54893Y228205D01*
X54044Y229240D01*
X53008Y230090D01*
X51827Y230721D01*
X50546Y231110D01*
X49213Y231242D01*
D02*
G37*
G36*
X256804Y218571D02*
Y217248D01*
X258127D01*
X258080Y217484D01*
X257663Y218108D01*
X257039Y218524D01*
X256804Y218571D01*
D02*
G37*
G36*
X255804D02*
X255568Y218524D01*
X254944Y218108D01*
X254527Y217484D01*
X254480Y217248D01*
X255804D01*
Y218571D01*
D02*
G37*
G36*
X234993Y218459D02*
X233669D01*
Y217136D01*
X233905Y217183D01*
X234529Y217600D01*
X234946Y218223D01*
X234993Y218459D01*
D02*
G37*
G36*
X232669D02*
X231346D01*
X231393Y218223D01*
X231810Y217600D01*
X232434Y217183D01*
X232669Y217136D01*
Y218459D01*
D02*
G37*
G36*
X226626D02*
X225303D01*
Y217136D01*
X225539Y217183D01*
X226163Y217600D01*
X226580Y218223D01*
X226626Y218459D01*
D02*
G37*
G36*
X224303D02*
X222980D01*
X223027Y218223D01*
X223444Y217600D01*
X224067Y217183D01*
X224303Y217136D01*
Y218459D01*
D02*
G37*
G36*
X199585Y219523D02*
X199045Y219416D01*
X198586Y219109D01*
X198280Y218651D01*
X198172Y218110D01*
X198280Y217569D01*
X198586Y217111D01*
X199045Y216805D01*
X199585Y216697D01*
X200126Y216805D01*
X200584Y217111D01*
X200891Y217569D01*
X200998Y218110D01*
X200891Y218651D01*
X200584Y219109D01*
X200126Y219416D01*
X199585Y219523D01*
D02*
G37*
G36*
X185878Y218004D02*
X184555D01*
Y216681D01*
X184791Y216727D01*
X185415Y217144D01*
X185831Y217768D01*
X185878Y218004D01*
D02*
G37*
G36*
X183555D02*
X182232D01*
X182279Y217768D01*
X182695Y217144D01*
X183319Y216727D01*
X183555Y216681D01*
Y218004D01*
D02*
G37*
G36*
X243126Y216390D02*
Y215067D01*
X244449D01*
X244402Y215303D01*
X243986Y215927D01*
X243362Y216343D01*
X243126Y216390D01*
D02*
G37*
G36*
X242126D02*
X241890Y216343D01*
X241266Y215927D01*
X240850Y215303D01*
X240803Y215067D01*
X242126D01*
Y216390D01*
D02*
G37*
G36*
X258127Y216248D02*
X256804D01*
Y214925D01*
X257039Y214972D01*
X257663Y215388D01*
X258080Y216012D01*
X258127Y216248D01*
D02*
G37*
G36*
X255804D02*
X254480D01*
X254527Y216012D01*
X254944Y215388D01*
X255568Y214972D01*
X255804Y214925D01*
Y216248D01*
D02*
G37*
G36*
X244449Y214067D02*
X243126D01*
Y212744D01*
X243362Y212790D01*
X243986Y213207D01*
X244402Y213831D01*
X244449Y214067D01*
D02*
G37*
G36*
X242126D02*
X240803D01*
X240850Y213831D01*
X241266Y213207D01*
X241890Y212790D01*
X242126Y212744D01*
Y214067D01*
D02*
G37*
G36*
X213457Y213866D02*
Y212543D01*
X214780D01*
X214733Y212779D01*
X214316Y213403D01*
X213693Y213819D01*
X213457Y213866D01*
D02*
G37*
G36*
X212457D02*
X212221Y213819D01*
X211597Y213403D01*
X211180Y212779D01*
X211134Y212543D01*
X212457D01*
Y213866D01*
D02*
G37*
G36*
X80901Y221282D02*
X79648Y221117D01*
X78481Y220633D01*
X77478Y219864D01*
X76709Y218861D01*
X76225Y217693D01*
X76060Y216440D01*
X76225Y215187D01*
X76709Y214019D01*
X77478Y213017D01*
X78481Y212247D01*
X79648Y211764D01*
X80901Y211599D01*
X82155Y211764D01*
X83322Y212247D01*
X84325Y213017D01*
X85094Y214019D01*
X85578Y215187D01*
X85743Y216440D01*
X85578Y217693D01*
X85094Y218861D01*
X84325Y219864D01*
X83322Y220633D01*
X82155Y221117D01*
X80901Y221282D01*
D02*
G37*
G36*
X100894Y212847D02*
Y211524D01*
X102217D01*
X102170Y211759D01*
X101753Y212383D01*
X101129Y212800D01*
X100894Y212847D01*
D02*
G37*
G36*
X99894D02*
X99658Y212800D01*
X99034Y212383D01*
X98617Y211759D01*
X98570Y211524D01*
X99894D01*
Y212847D01*
D02*
G37*
G36*
X214780Y211543D02*
X213457D01*
Y210220D01*
X213693Y210266D01*
X214316Y210683D01*
X214733Y211307D01*
X214780Y211543D01*
D02*
G37*
G36*
X212457D02*
X211134D01*
X211180Y211307D01*
X211597Y210683D01*
X212221Y210266D01*
X212457Y210220D01*
Y211543D01*
D02*
G37*
G36*
X102217Y210524D02*
X100894D01*
Y209200D01*
X101129Y209247D01*
X101753Y209664D01*
X102170Y210288D01*
X102217Y210524D01*
D02*
G37*
G36*
X99894D02*
X98570D01*
X98617Y210288D01*
X99034Y209664D01*
X99658Y209247D01*
X99894Y209200D01*
Y210524D01*
D02*
G37*
G36*
X49608Y213633D02*
X48754Y213520D01*
X47958Y213191D01*
X47274Y212666D01*
X46750Y211983D01*
X46420Y211187D01*
X46308Y210333D01*
X46420Y209479D01*
X46750Y208683D01*
X47274Y207999D01*
X47958Y207475D01*
X48754Y207145D01*
X49608Y207033D01*
X50462Y207145D01*
X51258Y207475D01*
X51941Y207999D01*
X52465Y208683D01*
X52795Y209479D01*
X52908Y210333D01*
X52795Y211187D01*
X52465Y211983D01*
X51941Y212666D01*
X51258Y213191D01*
X50462Y213520D01*
X49608Y213633D01*
D02*
G37*
G36*
X246850Y213224D02*
X246310Y213116D01*
X245851Y212810D01*
X245545Y212352D01*
X245437Y211811D01*
X245545Y211270D01*
X245851Y210812D01*
X246310Y210506D01*
X246763Y210415D01*
X246850Y210398D01*
X246905Y210389D01*
X247251Y210333D01*
X247303Y210069D01*
X247452Y209846D01*
X248524Y208774D01*
Y206945D01*
X248024Y206651D01*
X247638Y206728D01*
X247097Y206620D01*
X246639Y206314D01*
X246332Y205856D01*
X246225Y205315D01*
X246330Y204784D01*
X242834Y201288D01*
X242685Y201064D01*
X242632Y200801D01*
X242632Y200801D01*
Y198024D01*
X242132Y197817D01*
X234739Y205211D01*
X234515Y205360D01*
X234252Y205413D01*
X234252Y205413D01*
X213779D01*
X213516Y205360D01*
X213293Y205211D01*
X213293Y205211D01*
X212572Y204490D01*
X212205Y204563D01*
X211664Y204455D01*
X211206Y204149D01*
X210899Y203690D01*
X210792Y203150D01*
X210899Y202609D01*
X211206Y202151D01*
X211664Y201844D01*
X211531Y201378D01*
X211353Y201413D01*
X210812Y201305D01*
X210354Y200999D01*
X210048Y200541D01*
X209940Y200000D01*
X210048Y199459D01*
X210354Y199001D01*
X210216Y198492D01*
X210090Y198466D01*
X209631Y198160D01*
X209325Y197702D01*
X209218Y197161D01*
X209325Y196620D01*
X209631Y196162D01*
X210090Y195856D01*
X210630Y195748D01*
X210646Y195751D01*
X211123Y195350D01*
Y176827D01*
X210623Y176533D01*
X210236Y176610D01*
X209696Y176502D01*
X209237Y176196D01*
X208931Y175738D01*
X208823Y175197D01*
X208931Y174656D01*
X209237Y174198D01*
X209523Y174007D01*
Y167126D01*
X203641Y161245D01*
X200775D01*
X200584Y161531D01*
X200126Y161837D01*
X199585Y161944D01*
X199249Y161878D01*
X197197Y163928D01*
X197238Y164316D01*
X197715Y164552D01*
X197801Y164495D01*
X198342Y164387D01*
X198882Y164495D01*
X199310Y164780D01*
X202056D01*
X202524Y164567D01*
X202631Y164026D01*
X202938Y163567D01*
X203396Y163261D01*
X203937Y163154D01*
X204477Y163261D01*
X204936Y163567D01*
X205242Y164026D01*
X205350Y164567D01*
X205242Y165107D01*
X204936Y165566D01*
X204519Y165844D01*
X204440Y165957D01*
X204320Y166353D01*
X205412Y167445D01*
X205633Y167776D01*
X205711Y168166D01*
Y171001D01*
X207512Y172803D01*
X207733Y173133D01*
X207811Y173524D01*
Y177525D01*
X207998Y177806D01*
X208106Y178347D01*
X207998Y178887D01*
X207692Y179346D01*
X207480Y179488D01*
Y180183D01*
X207506Y180315D01*
Y205730D01*
X207452Y206003D01*
X207297Y206235D01*
X204365Y209167D01*
X204133Y209321D01*
X203860Y209376D01*
X200402D01*
X200212Y209661D01*
X199753Y209967D01*
X199213Y210074D01*
X198672Y209967D01*
X198214Y209661D01*
X197907Y209202D01*
X197800Y208661D01*
X197907Y208121D01*
X198214Y207662D01*
X198672Y207356D01*
X199213Y207248D01*
X199753Y207356D01*
X200212Y207662D01*
X200402Y207947D01*
X203564D01*
X206077Y205434D01*
Y180315D01*
X206103Y180183D01*
Y179619D01*
X205694Y179346D01*
X205387Y178887D01*
X205280Y178347D01*
X205387Y177806D01*
X205694Y177347D01*
X205772Y177295D01*
Y173946D01*
X203970Y172144D01*
X203749Y171814D01*
X203672Y171423D01*
Y168928D01*
X203183Y168780D01*
X203164Y168788D01*
X202957Y169098D01*
X202671Y169289D01*
Y192137D01*
X202617Y192410D01*
X202462Y192642D01*
X200332Y194772D01*
X200651Y195160D01*
X201222Y194779D01*
X201458Y194732D01*
Y196055D01*
X200134D01*
X200181Y195819D01*
X200563Y195248D01*
X200174Y194930D01*
X197507Y197596D01*
X197574Y197933D01*
X197467Y198474D01*
X197160Y198932D01*
X196702Y199239D01*
X196161Y199346D01*
X195621Y199239D01*
X195162Y198932D01*
X194856Y198474D01*
X194748Y197933D01*
X194856Y197392D01*
X195162Y196934D01*
X195621Y196628D01*
X196161Y196520D01*
X196498Y196587D01*
X201244Y191841D01*
Y169289D01*
X200958Y169098D01*
X200652Y168640D01*
X200545Y168099D01*
X200652Y167559D01*
X200812Y167320D01*
X200547Y166820D01*
X199310D01*
X198882Y167105D01*
X198342Y167213D01*
X197801Y167105D01*
X197572Y166952D01*
X197072Y167220D01*
Y175197D01*
X200090Y178214D01*
X200245Y178446D01*
X200299Y178719D01*
Y187242D01*
X200245Y187515D01*
X200090Y187746D01*
X199421Y188415D01*
X199454Y188583D01*
X199347Y189123D01*
X199040Y189582D01*
X198582Y189888D01*
X198041Y189996D01*
X197501Y189888D01*
X197042Y189582D01*
X196736Y189123D01*
X196628Y188583D01*
X196736Y188042D01*
X197042Y187584D01*
X197501Y187277D01*
X198041Y187170D01*
X198502Y187261D01*
X198872Y186932D01*
Y179015D01*
X196194Y176337D01*
X195694Y176544D01*
Y195177D01*
X195640Y195450D01*
X195485Y195682D01*
X193710Y197457D01*
Y201089D01*
X193996Y201280D01*
X194302Y201738D01*
X194409Y202279D01*
X194302Y202820D01*
X193996Y203278D01*
X193537Y203585D01*
X192997Y203692D01*
X192456Y203585D01*
X191997Y203278D01*
X191691Y202820D01*
X191584Y202279D01*
X191691Y201738D01*
X191997Y201280D01*
X192283Y201089D01*
Y197161D01*
X192337Y196888D01*
X192492Y196656D01*
X194267Y194881D01*
Y157034D01*
X193767Y156767D01*
X193691Y156817D01*
X193150Y156925D01*
X192778Y156851D01*
X192278Y157151D01*
Y168401D01*
X192556Y168679D01*
X192711Y168911D01*
X192765Y169184D01*
Y194169D01*
X192711Y194442D01*
X192556Y194674D01*
X189690Y197540D01*
Y203553D01*
X189888Y203849D01*
X189996Y204390D01*
X189888Y204930D01*
X189582Y205389D01*
X189123Y205695D01*
X188583Y205802D01*
X188042Y205695D01*
X187584Y205389D01*
X187277Y204930D01*
X187170Y204390D01*
X187277Y203849D01*
X187584Y203390D01*
X188042Y203084D01*
X188263Y203040D01*
Y197244D01*
X188317Y196971D01*
X188472Y196739D01*
X191338Y193873D01*
Y169968D01*
X190838Y169919D01*
X190774Y170241D01*
X190468Y170699D01*
X190009Y171005D01*
X189469Y171113D01*
X189096Y171039D01*
X188596Y171340D01*
Y180725D01*
X188542Y180999D01*
X188387Y181230D01*
X186934Y182683D01*
Y189460D01*
X187220Y189650D01*
X187526Y190109D01*
X187633Y190650D01*
X187526Y191190D01*
X187220Y191649D01*
X186761Y191955D01*
X186221Y192063D01*
X185680Y191955D01*
X185221Y191649D01*
X184915Y191190D01*
X184808Y190650D01*
X184915Y190109D01*
X185221Y189650D01*
X185507Y189460D01*
Y182388D01*
X185561Y182115D01*
X185716Y181883D01*
X187169Y180430D01*
Y178667D01*
X186707Y178475D01*
X185314Y179869D01*
X185381Y180206D01*
X185273Y180746D01*
X184967Y181205D01*
X184508Y181511D01*
X183968Y181618D01*
X183427Y181511D01*
X182969Y181205D01*
X182662Y180746D01*
X182555Y180206D01*
X182662Y179665D01*
X182969Y179206D01*
X183427Y178900D01*
X183968Y178793D01*
X184304Y178859D01*
X186269Y176895D01*
Y168392D01*
X185995Y168080D01*
X185813Y167973D01*
X185800Y167975D01*
X185259Y167868D01*
X184801Y167561D01*
X184495Y167103D01*
X184387Y166562D01*
X184495Y166022D01*
X184801Y165563D01*
X185086Y165372D01*
Y164648D01*
X183357Y162918D01*
X180863D01*
X180590Y162864D01*
X180358Y162709D01*
X178082Y160433D01*
X177863Y160477D01*
X177572Y160630D01*
X177485Y161070D01*
X177178Y161529D01*
X176720Y161835D01*
X176179Y161943D01*
X175638Y161835D01*
X175180Y161529D01*
X174874Y161070D01*
X174766Y160530D01*
X174804Y160339D01*
X170654Y156188D01*
X170499Y155957D01*
X170445Y155684D01*
Y147143D01*
X168351Y145049D01*
X168120Y145086D01*
X167851Y145229D01*
Y160728D01*
X170976Y163853D01*
X171644D01*
X171835Y163567D01*
X172294Y163261D01*
X172834Y163154D01*
X173375Y163261D01*
X173833Y163567D01*
X174140Y164026D01*
X174247Y164567D01*
X174140Y165107D01*
X173833Y165566D01*
X173375Y165872D01*
X172834Y165980D01*
X172294Y165872D01*
X171835Y165566D01*
X171644Y165280D01*
X170680D01*
X170407Y165226D01*
X170175Y165071D01*
X166632Y161528D01*
X166478Y161297D01*
X166423Y161024D01*
Y154408D01*
X165923Y154141D01*
X165895Y154160D01*
X165354Y154267D01*
X164814Y154160D01*
X164355Y153853D01*
X164049Y153395D01*
X163941Y152854D01*
X164049Y152314D01*
X164355Y151855D01*
X164814Y151549D01*
X165354Y151441D01*
X165895Y151549D01*
X165923Y151568D01*
X166423Y151301D01*
Y135999D01*
X165923Y135847D01*
X165861Y135940D01*
X165403Y136246D01*
X164862Y136354D01*
X164321Y136246D01*
X163863Y135940D01*
X163557Y135482D01*
X163449Y134941D01*
X163557Y134400D01*
X163863Y133942D01*
X164321Y133635D01*
X164862Y133528D01*
X165403Y133635D01*
X165861Y133942D01*
X165923Y134035D01*
X166423Y133883D01*
Y110556D01*
X165923Y110405D01*
X165763Y110645D01*
X165305Y110951D01*
X164764Y111059D01*
X164223Y110951D01*
X163765Y110645D01*
X163458Y110186D01*
X163351Y109646D01*
X163458Y109105D01*
X163765Y108647D01*
X164050Y108456D01*
Y106997D01*
X163765Y106806D01*
X163458Y106348D01*
X163351Y105807D01*
X163458Y105266D01*
X163765Y104808D01*
X164223Y104502D01*
X164764Y104394D01*
X165305Y104502D01*
X165763Y104808D01*
X165923Y105048D01*
X166423Y104896D01*
Y103926D01*
X164551Y102055D01*
X164507Y102063D01*
X163967Y101956D01*
X163508Y101649D01*
X163202Y101191D01*
X163094Y100650D01*
X163202Y100110D01*
X163508Y99651D01*
X163967Y99345D01*
X164507Y99237D01*
X164844Y99304D01*
X166019Y98130D01*
Y87816D01*
X166073Y87543D01*
X166228Y87312D01*
X168282Y85257D01*
Y83670D01*
X167997Y83479D01*
X167691Y83021D01*
X167583Y82480D01*
X167691Y81940D01*
X167997Y81481D01*
X168455Y81175D01*
X168996Y81067D01*
X169537Y81175D01*
X169995Y81481D01*
X170301Y81940D01*
X170409Y82480D01*
X170301Y83021D01*
X169995Y83479D01*
X169710Y83670D01*
Y84900D01*
X170096Y85217D01*
X170177Y85201D01*
X170718Y85309D01*
X171176Y85615D01*
X171483Y86073D01*
X171590Y86614D01*
X171483Y87155D01*
X171176Y87613D01*
X171099Y87665D01*
Y90168D01*
X171599Y90489D01*
X171621Y90485D01*
Y92308D01*
X172621D01*
Y90359D01*
X172994Y90067D01*
Y86121D01*
X172623Y85874D01*
X172317Y85415D01*
X172209Y84874D01*
X172317Y84334D01*
X172623Y83875D01*
X173081Y83569D01*
X173622Y83461D01*
X174163Y83569D01*
X174621Y83875D01*
X174927Y84334D01*
X175035Y84874D01*
X174927Y85415D01*
X174621Y85874D01*
X174370Y86041D01*
Y100773D01*
X174705Y101048D01*
X175245Y101155D01*
X175704Y101462D01*
X176010Y101920D01*
X176118Y102461D01*
X176051Y102797D01*
X177572Y104318D01*
X177726Y104550D01*
X177781Y104823D01*
Y120765D01*
X177726Y121038D01*
X177572Y121269D01*
X177510Y121330D01*
X177687Y121861D01*
X177939Y121897D01*
X178304Y121561D01*
Y120967D01*
X178358Y120694D01*
X178513Y120463D01*
X178802Y120173D01*
Y103948D01*
X178857Y103675D01*
X179011Y103444D01*
X181725Y100730D01*
X181658Y100394D01*
X181765Y99853D01*
X182072Y99395D01*
X182530Y99088D01*
X183071Y98981D01*
X183612Y99088D01*
X184070Y99395D01*
X184171Y99546D01*
X184754Y99518D01*
X184757Y99512D01*
X184756Y99472D01*
X184708Y99229D01*
Y97401D01*
X184208Y97249D01*
X184070Y97456D01*
X183612Y97762D01*
X183071Y97870D01*
X182530Y97762D01*
X182072Y97456D01*
X181765Y96997D01*
X181658Y96457D01*
X181765Y95916D01*
X182072Y95458D01*
X182376Y95254D01*
Y93697D01*
X182109Y93519D01*
X181803Y93060D01*
X181696Y92519D01*
X181803Y91979D01*
X182109Y91520D01*
X182568Y91214D01*
X183109Y91106D01*
X183649Y91214D01*
X184108Y91520D01*
X184230Y91703D01*
X184761Y91598D01*
X184762Y91589D01*
X184917Y91358D01*
X186058Y90216D01*
X186014Y89586D01*
X186009Y89582D01*
X185703Y89123D01*
X185595Y88583D01*
X185703Y88042D01*
X186009Y87584D01*
X186467Y87277D01*
X187008Y87170D01*
X187549Y87277D01*
X187633Y87334D01*
X188096Y87458D01*
X188259Y87229D01*
X189848Y85639D01*
Y66600D01*
X189348Y66299D01*
X188976Y66373D01*
X188435Y66266D01*
X188319Y66188D01*
X187819Y66456D01*
Y79625D01*
X188130Y79833D01*
X188436Y80291D01*
X188544Y80832D01*
X188436Y81373D01*
X188130Y81831D01*
X187672Y82137D01*
X187131Y82245D01*
X186590Y82137D01*
X186132Y81831D01*
X185826Y81373D01*
X185718Y80832D01*
X185826Y80291D01*
X186132Y79833D01*
X186443Y79625D01*
Y37402D01*
X186443Y37402D01*
X186495Y37138D01*
X186644Y36915D01*
X194449Y29111D01*
X194375Y28740D01*
X194483Y28199D01*
X194789Y27741D01*
X195247Y27435D01*
X195788Y27327D01*
X196329Y27435D01*
X196787Y27741D01*
X197094Y28199D01*
X197201Y28740D01*
X197094Y29281D01*
X196787Y29739D01*
X196329Y30046D01*
X195788Y30153D01*
X195425Y30081D01*
X187819Y37687D01*
Y63465D01*
X188319Y63733D01*
X188435Y63655D01*
X188976Y63547D01*
X189246Y63326D01*
Y61229D01*
X188961Y61038D01*
X188655Y60580D01*
X188547Y60039D01*
X188655Y59499D01*
X188961Y59040D01*
X189419Y58734D01*
X189960Y58626D01*
X190501Y58734D01*
X190959Y59040D01*
X191266Y59499D01*
X191373Y60039D01*
X191266Y60580D01*
X190959Y61038D01*
X190674Y61229D01*
Y63406D01*
X191042Y63774D01*
X191098Y63809D01*
X191483Y63926D01*
X191660Y63855D01*
X191990Y63635D01*
X192531Y63527D01*
X192715Y63054D01*
Y60391D01*
X192715Y60391D01*
X192768Y60128D01*
X192917Y59904D01*
X193894Y58927D01*
Y42520D01*
X193894Y42520D01*
X193946Y42256D01*
X194095Y42033D01*
X195067Y41061D01*
X195044Y40945D01*
X195151Y40404D01*
X195458Y39946D01*
X195916Y39639D01*
X196457Y39532D01*
X196997Y39639D01*
X197456Y39946D01*
X197762Y40404D01*
X197870Y40945D01*
X197762Y41486D01*
X197529Y41835D01*
X197620Y42232D01*
X197704Y42379D01*
X197785Y42395D01*
X198243Y42702D01*
X198549Y43160D01*
X198657Y43701D01*
X198549Y44241D01*
X198243Y44700D01*
X197785Y45006D01*
X197244Y45114D01*
X196908Y45047D01*
X196172Y45783D01*
Y59575D01*
X196118Y59849D01*
X195963Y60080D01*
X195933Y60110D01*
X196108Y60643D01*
X196406Y60702D01*
X196865Y61009D01*
X197171Y61467D01*
X197279Y62008D01*
X197171Y62549D01*
X196885Y62976D01*
Y70007D01*
X197420Y70541D01*
X197641Y70872D01*
X197718Y71262D01*
Y78620D01*
X198218Y78905D01*
X198319Y78885D01*
Y80708D01*
Y82531D01*
X198218Y82511D01*
X197718Y82796D01*
Y90703D01*
X197641Y91094D01*
X197420Y91424D01*
X196288Y92556D01*
X196188Y93060D01*
X195881Y93519D01*
X195423Y93825D01*
X194882Y93933D01*
X194342Y93825D01*
X193883Y93519D01*
X193577Y93060D01*
X193469Y92520D01*
X193577Y91979D01*
X193883Y91521D01*
X194342Y91214D01*
X194846Y91114D01*
X195679Y90281D01*
Y78533D01*
X195179Y78230D01*
X194813Y78303D01*
X194272Y78195D01*
X193814Y77889D01*
X193507Y77430D01*
X193400Y76890D01*
X193507Y76349D01*
X193814Y75890D01*
X193950Y75799D01*
Y73364D01*
X193521Y73050D01*
Y71161D01*
X192521D01*
Y72985D01*
X192285Y72938D01*
X191776Y72597D01*
X191276Y72775D01*
Y85935D01*
X191287Y86412D01*
X191910Y86829D01*
X192327Y87453D01*
X192374Y87689D01*
X190551D01*
Y88189D01*
X190051D01*
Y90012D01*
X189815Y89965D01*
X189253Y89590D01*
X187957Y90886D01*
X187946Y91012D01*
X188317Y91500D01*
X189977D01*
X190404Y91214D01*
X190945Y91107D01*
X191486Y91214D01*
X191944Y91521D01*
X192250Y91979D01*
X192358Y92520D01*
X192250Y93060D01*
X191971Y93478D01*
X192280Y93685D01*
X193625Y95029D01*
X194147Y94680D01*
X194382Y94633D01*
Y96457D01*
X195382D01*
Y94633D01*
X195618Y94680D01*
X196242Y95097D01*
X196573Y95593D01*
X196676Y95621D01*
X197025Y95621D01*
X197129Y95593D01*
X197460Y95098D01*
X198084Y94681D01*
X198319Y94634D01*
Y96457D01*
Y98281D01*
X198084Y98234D01*
X197460Y97817D01*
X197128Y97321D01*
X197026Y97293D01*
X196677Y97293D01*
X196573Y97321D01*
X196242Y97816D01*
X195618Y98233D01*
X194882Y98379D01*
X194546Y98687D01*
X194883Y98981D01*
X195424Y99088D01*
X195882Y99395D01*
X196188Y99853D01*
X196296Y100394D01*
X196188Y100934D01*
X195882Y101393D01*
X195644Y101552D01*
Y116208D01*
X195895Y116411D01*
X196497Y116311D01*
X196550Y116231D01*
X196784Y116074D01*
Y115147D01*
X196652Y115015D01*
X196486Y114767D01*
X196428Y114474D01*
Y112418D01*
X196486Y112126D01*
X196652Y111878D01*
X198055Y110475D01*
Y105487D01*
X197821Y105330D01*
X197514Y104871D01*
X197407Y104331D01*
X197514Y103790D01*
X197821Y103332D01*
X198279Y103025D01*
X198820Y102918D01*
X199361Y103025D01*
X199819Y103332D01*
X200125Y103790D01*
X200233Y104331D01*
X200125Y104871D01*
X199819Y105330D01*
X199585Y105487D01*
Y110791D01*
X199585Y110791D01*
X199557Y110932D01*
X200017Y111178D01*
X202043Y109152D01*
Y105520D01*
X201758Y105330D01*
X201451Y104871D01*
X201344Y104331D01*
X201451Y103790D01*
X201758Y103332D01*
X202073Y103121D01*
X202190Y102773D01*
X202206Y102671D01*
X202202Y102518D01*
X202097Y102360D01*
X202042Y102087D01*
Y93711D01*
X201757Y93520D01*
X201450Y93061D01*
X201343Y92521D01*
X201450Y91980D01*
X201757Y91522D01*
X202215Y91215D01*
X202756Y91108D01*
X203297Y91215D01*
X203536Y91375D01*
X204036Y91111D01*
Y89785D01*
X203705Y89644D01*
X203536Y89607D01*
X203110Y89892D01*
X202569Y90000D01*
X202028Y89892D01*
X201570Y89586D01*
X201263Y89128D01*
X201156Y88587D01*
X201263Y88046D01*
X201570Y87588D01*
X202028Y87282D01*
X202569Y87174D01*
X203110Y87282D01*
X203536Y87567D01*
X203705Y87530D01*
X204036Y87388D01*
Y86561D01*
X203536Y86294D01*
X203345Y86422D01*
X203109Y86469D01*
Y84646D01*
X202609D01*
Y84146D01*
X200786D01*
X200833Y83910D01*
X201249Y83286D01*
X201463Y83143D01*
X201512Y82646D01*
X200842Y81976D01*
X200367Y81958D01*
X200219Y82009D01*
X200179Y82068D01*
X199555Y82485D01*
X199320Y82531D01*
Y80708D01*
Y78885D01*
X199555Y78932D01*
X200007Y79233D01*
X200507Y79008D01*
Y71570D01*
X199175Y70238D01*
X198808Y70311D01*
X198267Y70203D01*
X197809Y69897D01*
X197503Y69438D01*
X197395Y68898D01*
X197503Y68357D01*
X197809Y67898D01*
X198267Y67592D01*
X198808Y67485D01*
X199349Y67592D01*
X199807Y67898D01*
X200009Y68200D01*
X200509Y68049D01*
Y64841D01*
X200009Y64689D01*
X199818Y64975D01*
X199359Y65282D01*
X198819Y65389D01*
X198278Y65282D01*
X197819Y64975D01*
X197513Y64517D01*
X197406Y63976D01*
X197513Y63436D01*
X197819Y62977D01*
X198094Y62793D01*
Y53451D01*
X197635Y52992D01*
X197480Y52760D01*
X197426Y52487D01*
Y50798D01*
X197141Y50608D01*
X196834Y50149D01*
X196727Y49609D01*
X196834Y49068D01*
X197141Y48610D01*
X197599Y48303D01*
X198140Y48196D01*
X198680Y48303D01*
X199139Y48610D01*
X199445Y49068D01*
X199553Y49609D01*
X199445Y50149D01*
X199139Y50608D01*
X198853Y50798D01*
Y52097D01*
X199242Y52461D01*
X199395Y52446D01*
X199853Y52140D01*
X200394Y52032D01*
X200934Y52140D01*
X201393Y52446D01*
X201699Y52904D01*
X201807Y53445D01*
X201699Y53986D01*
X201393Y54444D01*
X201107Y54635D01*
Y56590D01*
X201569Y56781D01*
X202829Y55521D01*
Y47244D01*
X202883Y46971D01*
X203038Y46739D01*
X203270Y46584D01*
X203543Y46530D01*
X205345D01*
X205535Y46245D01*
X205994Y45939D01*
X206534Y45831D01*
X207075Y45939D01*
X207534Y46245D01*
X207840Y46703D01*
X207947Y47244D01*
X207840Y47785D01*
X207534Y48243D01*
X207075Y48550D01*
X206534Y48657D01*
X205994Y48550D01*
X205535Y48243D01*
X205345Y47959D01*
X204258D01*
Y55817D01*
X204203Y56091D01*
X204048Y56323D01*
X202009Y58362D01*
Y59661D01*
X202509Y59928D01*
X202559Y59895D01*
X203100Y59787D01*
X203641Y59895D01*
X204099Y60201D01*
X204236Y60405D01*
X204238Y60406D01*
X204569Y60627D01*
X206322Y62380D01*
X209183D01*
X209574Y62458D01*
X209904Y62679D01*
X211364Y64139D01*
X211677Y64107D01*
X211745Y64028D01*
X211983Y63626D01*
X211956Y63492D01*
X215603D01*
X215556Y63728D01*
X215460Y63871D01*
X215539Y64265D01*
X215845Y64723D01*
X215952Y65264D01*
X215845Y65804D01*
X215539Y66263D01*
X215080Y66569D01*
X214601Y66664D01*
X214593Y66684D01*
X214700Y67224D01*
X214593Y67765D01*
X214578Y67787D01*
X214808Y68343D01*
X215100Y68401D01*
X215723Y68818D01*
X216140Y69441D01*
X216187Y69677D01*
X214364D01*
Y70177D01*
X213864D01*
Y72000D01*
X213628Y71954D01*
X213004Y71537D01*
X212587Y70913D01*
X212548Y70715D01*
X212017Y70610D01*
X211989Y70651D01*
X211366Y71068D01*
X211130Y71115D01*
Y69291D01*
X210630D01*
Y68791D01*
X208807D01*
X208854Y68555D01*
X208985Y68358D01*
X208684Y67909D01*
X208662Y67913D01*
X208574Y67895D01*
X208106Y68110D01*
X207999Y68651D01*
X207693Y69109D01*
X207234Y69416D01*
X206694Y69523D01*
X206153Y69416D01*
X205694Y69109D01*
X205388Y68651D01*
X205280Y68110D01*
X205388Y67570D01*
X205694Y67111D01*
X206153Y66805D01*
X206694Y66697D01*
X206782Y66715D01*
X207249Y66500D01*
X207357Y65959D01*
X207663Y65501D01*
X208121Y65195D01*
X208422Y65135D01*
X208669Y64623D01*
X208669Y64615D01*
X208534Y64420D01*
X205900D01*
X205510Y64342D01*
X205179Y64121D01*
X203989Y62930D01*
X203567Y63131D01*
X203523Y63172D01*
Y63751D01*
X203807Y63941D01*
X204114Y64400D01*
X204221Y64940D01*
X204114Y65481D01*
X203807Y65939D01*
X203349Y66246D01*
X202808Y66353D01*
X202436Y66279D01*
X201936Y66580D01*
Y68292D01*
X203261Y69616D01*
X203415Y69848D01*
X203470Y70121D01*
Y79519D01*
X203755Y79710D01*
X204061Y80168D01*
X204169Y80709D01*
X204061Y81249D01*
X203846Y81571D01*
X203841Y81586D01*
X203901Y82140D01*
X203903Y82148D01*
X203932Y82191D01*
X205211Y83470D01*
X205211Y83470D01*
X205336Y83516D01*
X205789Y83569D01*
X205826Y83558D01*
X206152Y83340D01*
X206693Y83233D01*
X207234Y83340D01*
X207692Y83647D01*
X207998Y84105D01*
X208106Y84646D01*
X208039Y84982D01*
X209245Y86189D01*
X209744Y85980D01*
X209742Y85718D01*
X209631Y85644D01*
X209325Y85186D01*
X209218Y84645D01*
X209325Y84104D01*
X209631Y83646D01*
X210090Y83340D01*
X210630Y83232D01*
X211171Y83340D01*
X211630Y83646D01*
X211936Y84104D01*
X212043Y84645D01*
X211936Y85186D01*
X211630Y85644D01*
X211637Y86241D01*
X212611Y87214D01*
X212766Y87446D01*
X212820Y87719D01*
Y94824D01*
X212766Y95097D01*
X212611Y95329D01*
X211344Y96596D01*
Y112212D01*
X214000Y114868D01*
X214253Y114871D01*
X214361Y114856D01*
X214572Y114780D01*
X214664Y114642D01*
X215023Y114283D01*
Y98732D01*
X214495Y98205D01*
X214341Y97973D01*
X214286Y97700D01*
Y87345D01*
X214341Y87072D01*
X214495Y86841D01*
X215515Y85821D01*
Y82182D01*
X215229Y81991D01*
X214923Y81533D01*
X214815Y80992D01*
X214923Y80452D01*
X215229Y79993D01*
X215688Y79687D01*
X216173Y79590D01*
X216256Y79541D01*
X216553Y79134D01*
X216487Y78800D01*
X216595Y78259D01*
X216901Y77801D01*
X217359Y77495D01*
X217900Y77387D01*
X218273Y77461D01*
X218773Y77161D01*
Y65654D01*
X217244Y64125D01*
X217095Y63902D01*
X217042Y63639D01*
X217042Y63639D01*
Y49131D01*
X217042Y49131D01*
X217095Y48867D01*
X217244Y48644D01*
X218603Y47285D01*
Y33884D01*
X218292Y33676D01*
X217986Y33218D01*
X217878Y32677D01*
X217986Y32136D01*
X218292Y31678D01*
X218751Y31372D01*
X219291Y31264D01*
X219832Y31372D01*
X220290Y31678D01*
X220597Y32136D01*
X220704Y32677D01*
X220597Y33218D01*
X220290Y33676D01*
X219980Y33884D01*
Y47570D01*
X219980Y47570D01*
X219927Y47833D01*
X219778Y48057D01*
X219778Y48057D01*
X218419Y49416D01*
Y60751D01*
X218791Y61044D01*
Y62992D01*
X219291D01*
Y63492D01*
X221115D01*
X221068Y63728D01*
X220651Y64352D01*
X220319Y64573D01*
X220036Y64809D01*
X220097Y65106D01*
X220149Y65369D01*
X220149Y65369D01*
Y76645D01*
X220643Y76723D01*
X220950Y76265D01*
X221408Y75958D01*
X221949Y75851D01*
X222490Y75958D01*
X222948Y76265D01*
X223254Y76723D01*
X223362Y77264D01*
X223295Y77601D01*
X223351Y77656D01*
X223505Y77888D01*
X223560Y78161D01*
Y80793D01*
X224060Y81058D01*
X224508Y80969D01*
X225049Y81077D01*
X225507Y81383D01*
X225742Y81735D01*
X226242Y81630D01*
Y45604D01*
X226068Y45487D01*
X225762Y45029D01*
X225654Y44488D01*
X225762Y43947D01*
X226068Y43489D01*
X226526Y43183D01*
X227067Y43075D01*
X227608Y43183D01*
X228066Y43489D01*
X228372Y43947D01*
X228480Y44488D01*
X228372Y45029D01*
X228066Y45487D01*
X227671Y45751D01*
Y96687D01*
X228171Y96988D01*
X228543Y96914D01*
X229084Y97021D01*
X229542Y97328D01*
X229849Y97786D01*
X229956Y98327D01*
X229849Y98867D01*
X229542Y99326D01*
X229257Y99517D01*
Y115124D01*
X229723Y115431D01*
X229994Y115108D01*
X229886Y114567D01*
X229994Y114026D01*
X230300Y113568D01*
X230759Y113261D01*
X231299Y113154D01*
X231638Y113221D01*
X232055Y112932D01*
X232092Y112467D01*
X231362Y111737D01*
X230857Y111637D01*
X230399Y111331D01*
X230092Y110872D01*
X229985Y110331D01*
X230092Y109791D01*
X230399Y109332D01*
X230857Y109026D01*
X231398Y108918D01*
X231938Y109026D01*
X232020Y109081D01*
X232493Y108795D01*
X232488Y108746D01*
X230911Y107168D01*
X230762Y106945D01*
X230709Y106682D01*
X230709Y106682D01*
Y42939D01*
X230399Y42731D01*
X230092Y42273D01*
X229985Y41732D01*
X230092Y41192D01*
X230399Y40733D01*
X230857Y40427D01*
X231398Y40319D01*
X231938Y40427D01*
X232397Y40733D01*
X232703Y41192D01*
X232811Y41732D01*
X232703Y42273D01*
X232397Y42731D01*
X232086Y42939D01*
Y67759D01*
X232584Y67820D01*
X233000Y67196D01*
X233624Y66779D01*
X233860Y66732D01*
Y68555D01*
Y70379D01*
X233624Y70332D01*
X233000Y69915D01*
X232584Y69291D01*
X232086Y69352D01*
Y106397D01*
X234650Y108961D01*
X234650Y108961D01*
X234799Y109184D01*
X234852Y109448D01*
Y111153D01*
X234996Y111369D01*
X235048Y111632D01*
X235048Y111632D01*
Y157006D01*
X235489Y157241D01*
X235644Y157138D01*
X235879Y157091D01*
Y158915D01*
Y160738D01*
X235644Y160691D01*
X235489Y160588D01*
X235048Y160824D01*
Y176223D01*
X235074Y176270D01*
X235492Y176589D01*
X235537Y176597D01*
X235826Y176539D01*
X236162Y176606D01*
X237935Y174833D01*
Y160745D01*
X237435Y160477D01*
X237115Y160691D01*
X236879Y160738D01*
Y158915D01*
Y157091D01*
X237115Y157138D01*
X237435Y157352D01*
X237935Y157085D01*
Y101633D01*
X237435Y101332D01*
X237063Y101406D01*
X236522Y101298D01*
X236064Y100992D01*
X235758Y100534D01*
X235650Y99993D01*
X235758Y99452D01*
X236064Y98994D01*
X236379Y98783D01*
X236520Y98217D01*
X234700Y96397D01*
X234546Y96165D01*
X234491Y95892D01*
Y77430D01*
X234546Y77157D01*
X234700Y76925D01*
X236490Y75135D01*
Y69662D01*
X235990Y69510D01*
X235720Y69915D01*
X235096Y70332D01*
X234860Y70379D01*
Y68555D01*
Y66732D01*
X235096Y66779D01*
X235720Y67196D01*
X235990Y67601D01*
X236490Y67449D01*
Y51386D01*
X236206Y51196D01*
X235899Y50738D01*
X235792Y50197D01*
X235899Y49656D01*
X236206Y49198D01*
X236664Y48891D01*
X237205Y48784D01*
X237461Y48835D01*
X237961Y48480D01*
Y26818D01*
X234530Y23387D01*
X234164Y23460D01*
X233623Y23353D01*
X233165Y23046D01*
X232858Y22588D01*
X232751Y22047D01*
X232858Y21507D01*
X233165Y21048D01*
X233623Y20742D01*
X234164Y20634D01*
X234704Y20742D01*
X235163Y21048D01*
X235469Y21507D01*
X235577Y22047D01*
X235504Y22414D01*
X237374Y24284D01*
X237916Y24120D01*
X237966Y23869D01*
X238273Y23410D01*
X238731Y23104D01*
X239272Y22997D01*
X239812Y23104D01*
X240271Y23410D01*
X240577Y23869D01*
X240685Y24409D01*
X240612Y24776D01*
X242599Y26763D01*
X242599Y26763D01*
X242748Y26986D01*
X242800Y27250D01*
X242800Y27250D01*
Y38104D01*
X243300Y38371D01*
X243406Y38300D01*
Y22860D01*
X243095Y22653D01*
X242789Y22194D01*
X242682Y21654D01*
X242789Y21113D01*
X243095Y20654D01*
X243554Y20348D01*
X244094Y20241D01*
X244635Y20348D01*
X245094Y20654D01*
X245400Y21113D01*
X245508Y21654D01*
X245400Y22194D01*
X245094Y22653D01*
X244783Y22860D01*
Y29990D01*
X245283Y30255D01*
X245522Y30095D01*
X246063Y29987D01*
X246604Y30095D01*
X247062Y30401D01*
X247368Y30859D01*
X247476Y31400D01*
X247403Y31767D01*
X248518Y32882D01*
X248518Y32882D01*
X248667Y33105D01*
X248720Y33369D01*
Y119445D01*
X249220Y119597D01*
X249395Y119335D01*
X249853Y119029D01*
X250394Y118921D01*
X250934Y119029D01*
X251393Y119335D01*
X251699Y119794D01*
X251807Y120334D01*
X251734Y120701D01*
X261117Y130084D01*
X261117Y130084D01*
X261266Y130307D01*
X261318Y130571D01*
X261318Y130571D01*
Y203518D01*
X261629Y203725D01*
X261935Y204184D01*
X262043Y204724D01*
X261935Y205265D01*
X261629Y205724D01*
X261171Y206030D01*
X260630Y206137D01*
X260089Y206030D01*
X259631Y205724D01*
X259325Y205265D01*
X259217Y204724D01*
X259325Y204184D01*
X259631Y203725D01*
X259942Y203518D01*
Y201229D01*
X259442Y201078D01*
X259267Y201339D01*
X258808Y201645D01*
X258268Y201753D01*
X257727Y201645D01*
X257269Y201339D01*
X256962Y200881D01*
X256855Y200340D01*
X256928Y199973D01*
X255419Y198465D01*
X255270Y198241D01*
X255217Y197978D01*
X255217Y197978D01*
Y138182D01*
X247545Y130510D01*
X247396Y130286D01*
X247343Y130023D01*
X247343Y130023D01*
Y74148D01*
X246843Y73997D01*
X246836Y74007D01*
X246212Y74424D01*
X245976Y74471D01*
Y72648D01*
Y70824D01*
X246212Y70871D01*
X246836Y71288D01*
X246843Y71299D01*
X247343Y71147D01*
Y33654D01*
X246430Y32740D01*
X246063Y32813D01*
X245522Y32705D01*
X245283Y32545D01*
X244783Y32810D01*
Y38976D01*
X244783Y38976D01*
X244730Y39240D01*
X244581Y39463D01*
X244581Y39463D01*
X244009Y40035D01*
Y70759D01*
X244509Y71026D01*
X244741Y70871D01*
X244976Y70824D01*
Y72648D01*
Y74471D01*
X244741Y74424D01*
X244509Y74269D01*
X244009Y74536D01*
Y175469D01*
X244509Y175620D01*
X244670Y175379D01*
X245129Y175073D01*
X245669Y174965D01*
X246210Y175073D01*
X246668Y175379D01*
X246975Y175837D01*
X247082Y176378D01*
X247033Y176624D01*
X247107Y176737D01*
X247466Y177009D01*
X247846Y176934D01*
X248387Y177041D01*
X248845Y177347D01*
X249152Y177806D01*
X249259Y178347D01*
X249152Y178887D01*
X248845Y179346D01*
X248627Y179491D01*
Y188495D01*
X249031Y188765D01*
X249337Y189223D01*
X249445Y189764D01*
X249372Y190130D01*
X251274Y192033D01*
X251274Y192033D01*
X251423Y192256D01*
X251476Y192520D01*
X251476Y192520D01*
Y200109D01*
X258754Y207387D01*
X258904Y207611D01*
X258956Y207874D01*
X258956Y207874D01*
Y209423D01*
X259267Y209631D01*
X259573Y210089D01*
X259681Y210630D01*
X259573Y211171D01*
X259267Y211629D01*
X258808Y211935D01*
X258268Y212043D01*
X257727Y211935D01*
X257269Y211629D01*
X256962Y211171D01*
X256855Y210630D01*
X256962Y210089D01*
X257269Y209631D01*
X257579Y209423D01*
Y208159D01*
X250678Y201258D01*
X250178Y201465D01*
Y201961D01*
X251668Y203450D01*
X251668Y203450D01*
X251817Y203674D01*
X251869Y203937D01*
X251869Y203937D01*
Y207936D01*
X251869Y207936D01*
X251817Y208200D01*
X251668Y208423D01*
X251668Y208423D01*
X251476Y208615D01*
Y209817D01*
X251786Y210024D01*
X252093Y210483D01*
X252200Y211024D01*
X252093Y211564D01*
X251786Y212023D01*
X251328Y212329D01*
X250787Y212437D01*
X250247Y212329D01*
X249788Y212023D01*
X249482Y211564D01*
X249374Y211024D01*
X249482Y210483D01*
X249508Y210444D01*
X249119Y210125D01*
X248627Y210618D01*
Y210722D01*
X248627Y210723D01*
X248575Y210986D01*
X248426Y211209D01*
X248426Y211209D01*
X248190Y211444D01*
X248263Y211811D01*
X248156Y212352D01*
X247849Y212810D01*
X247391Y213116D01*
X246850Y213224D01*
D02*
G37*
G36*
X201909Y207335D02*
Y206012D01*
X203232D01*
X203186Y206248D01*
X202769Y206871D01*
X202145Y207288D01*
X201909Y207335D01*
D02*
G37*
G36*
X200909D02*
X200673Y207288D01*
X200049Y206871D01*
X199633Y206248D01*
X199586Y206012D01*
X200909D01*
Y207335D01*
D02*
G37*
G36*
X128847Y206154D02*
Y204831D01*
X130170D01*
X130123Y205066D01*
X129706Y205690D01*
X129082Y206107D01*
X128847Y206154D01*
D02*
G37*
G36*
X127847D02*
X127611Y206107D01*
X126987Y205690D01*
X126570Y205066D01*
X126523Y204831D01*
X127847D01*
Y206154D01*
D02*
G37*
G36*
X203232Y205012D02*
X201909D01*
Y203689D01*
X202145Y203735D01*
X202769Y204152D01*
X203186Y204776D01*
X203232Y205012D01*
D02*
G37*
G36*
X200909D02*
X199586D01*
X199633Y204776D01*
X200049Y204152D01*
X200673Y203735D01*
X200909Y203689D01*
Y205012D01*
D02*
G37*
G36*
X130170Y203831D02*
X126523D01*
X126570Y203595D01*
X126987Y202971D01*
Y202934D01*
X126570Y202311D01*
X126523Y202075D01*
X130170D01*
X130123Y202311D01*
X129706Y202934D01*
Y202971D01*
X130123Y203595D01*
X130170Y203831D01*
D02*
G37*
G36*
X111958Y202898D02*
Y201575D01*
X113281D01*
X113234Y201811D01*
X112817Y202434D01*
X112194Y202851D01*
X111958Y202898D01*
D02*
G37*
G36*
X110958D02*
X110722Y202851D01*
X110098Y202434D01*
X109681Y201811D01*
X109634Y201575D01*
X110958D01*
Y202898D01*
D02*
G37*
G36*
X68893Y214966D02*
X67522Y214831D01*
X66203Y214431D01*
X64988Y213781D01*
X63923Y212907D01*
X63048Y211842D01*
X62399Y210626D01*
X61999Y209308D01*
X61864Y207936D01*
X61999Y206565D01*
X62399Y205246D01*
X63048Y204031D01*
X63923Y202965D01*
X64988Y202091D01*
X66203Y201441D01*
X67522Y201041D01*
X68893Y200906D01*
X70265Y201041D01*
X71584Y201441D01*
X72799Y202091D01*
X73864Y202965D01*
X74739Y204031D01*
X75388Y205246D01*
X75788Y206565D01*
X75924Y207936D01*
X75788Y209308D01*
X75388Y210626D01*
X74739Y211842D01*
X73864Y212907D01*
X72799Y213781D01*
X71584Y214431D01*
X70265Y214831D01*
X68893Y214966D01*
D02*
G37*
G36*
X326878Y202163D02*
Y200840D01*
X328201D01*
X328154Y201076D01*
X327738Y201700D01*
X327114Y202116D01*
X326878Y202163D01*
D02*
G37*
G36*
X325878D02*
X325642Y202116D01*
X325018Y201700D01*
X324602Y201076D01*
X324555Y200840D01*
X325878D01*
Y202163D01*
D02*
G37*
G36*
X263779Y202978D02*
X263239Y202871D01*
X262780Y202565D01*
X262474Y202106D01*
X262367Y201565D01*
X262474Y201025D01*
X262780Y200566D01*
X263239Y200260D01*
X263779Y200152D01*
X264320Y200260D01*
X264779Y200566D01*
X265085Y201025D01*
X265193Y201565D01*
X265085Y202106D01*
X264779Y202565D01*
X264320Y202871D01*
X263779Y202978D01*
D02*
G37*
G36*
X93894Y206022D02*
X93095Y205917D01*
X92351Y205608D01*
X91712Y205118D01*
X91221Y204479D01*
X90913Y203735D01*
X90808Y202936D01*
X90913Y202138D01*
X91221Y201394D01*
X91712Y200754D01*
X92351Y200264D01*
X93095Y199956D01*
X93894Y199851D01*
X94692Y199956D01*
X95436Y200264D01*
X96075Y200754D01*
X96566Y201394D01*
X96874Y202138D01*
X96979Y202936D01*
X96874Y203735D01*
X96566Y204479D01*
X96075Y205118D01*
X95436Y205608D01*
X94692Y205917D01*
X93894Y206022D01*
D02*
G37*
G36*
X130170Y201075D02*
X126523D01*
X126570Y200839D01*
X126726Y200606D01*
X126976Y200197D01*
X126726Y199788D01*
X126570Y199555D01*
X126523Y199319D01*
X130170D01*
X130123Y199555D01*
X129967Y199788D01*
X129717Y200197D01*
X129967Y200606D01*
X130123Y200839D01*
X130170Y201075D01*
D02*
G37*
G36*
X113281Y200575D02*
X111958D01*
Y199251D01*
X112194Y199298D01*
X112817Y199715D01*
X113234Y200339D01*
X113281Y200575D01*
D02*
G37*
G36*
X110958D02*
X109634D01*
X109681Y200339D01*
X110098Y199715D01*
X110722Y199298D01*
X110958Y199251D01*
Y200575D01*
D02*
G37*
G36*
X328201Y199840D02*
X326878D01*
Y198517D01*
X327114Y198564D01*
X327738Y198980D01*
X328154Y199604D01*
X328201Y199840D01*
D02*
G37*
G36*
X325878D02*
X324555D01*
X324602Y199604D01*
X325018Y198980D01*
X325642Y198564D01*
X325878Y198517D01*
Y199840D01*
D02*
G37*
G36*
X202457Y198378D02*
Y197055D01*
X203781D01*
X203734Y197291D01*
X203317Y197915D01*
X202693Y198331D01*
X202457Y198378D01*
D02*
G37*
G36*
X201458D02*
X201222Y198331D01*
X200598Y197915D01*
X200181Y197291D01*
X200134Y197055D01*
X201458D01*
Y198378D01*
D02*
G37*
G36*
X55594Y203640D02*
X54740Y203527D01*
X53944Y203198D01*
X53261Y202674D01*
X52736Y201990D01*
X52407Y201194D01*
X52294Y200340D01*
X52407Y199486D01*
X52736Y198690D01*
X53261Y198007D01*
X53944Y197482D01*
X54740Y197153D01*
X55594Y197040D01*
X56448Y197153D01*
X57244Y197482D01*
X57927Y198007D01*
X58452Y198690D01*
X58781Y199486D01*
X58894Y200340D01*
X58781Y201194D01*
X58452Y201990D01*
X57927Y202674D01*
X57244Y203198D01*
X56448Y203527D01*
X55594Y203640D01*
D02*
G37*
G36*
X130170Y198319D02*
X128847D01*
Y196996D01*
X129082Y197043D01*
X129706Y197459D01*
X130123Y198083D01*
X130170Y198319D01*
D02*
G37*
G36*
X127847D02*
X126523D01*
X126570Y198083D01*
X126987Y197459D01*
X127611Y197043D01*
X127847Y196996D01*
Y198319D01*
D02*
G37*
G36*
X103894Y201022D02*
X103095Y200917D01*
X102351Y200608D01*
X101712Y200118D01*
X101222Y199479D01*
X100913Y198735D01*
X100808Y197936D01*
X100913Y197138D01*
X101222Y196394D01*
X101712Y195754D01*
X102351Y195264D01*
X103095Y194956D01*
X103894Y194851D01*
X104692Y194956D01*
X105436Y195264D01*
X106075Y195754D01*
X106566Y196394D01*
X106874Y197138D01*
X106979Y197936D01*
X106874Y198735D01*
X106566Y199479D01*
X106075Y200118D01*
X105436Y200608D01*
X104692Y200917D01*
X103894Y201022D01*
D02*
G37*
G36*
X203781Y196055D02*
X202457D01*
Y194732D01*
X202693Y194779D01*
X203317Y195195D01*
X203734Y195819D01*
X203781Y196055D01*
D02*
G37*
G36*
X293307Y197161D02*
X292766Y197054D01*
X292308Y196747D01*
X292002Y196289D01*
X291894Y195748D01*
X292002Y195207D01*
X292308Y194749D01*
X292766Y194443D01*
X293307Y194335D01*
X293848Y194443D01*
X294306Y194749D01*
X294613Y195207D01*
X294720Y195748D01*
X294613Y196289D01*
X294306Y196747D01*
X293848Y197054D01*
X293307Y197161D01*
D02*
G37*
G36*
X342331Y195130D02*
Y193807D01*
X343654D01*
X343607Y194043D01*
X343190Y194667D01*
X342566Y195083D01*
X342331Y195130D01*
D02*
G37*
G36*
X341331D02*
X341095Y195083D01*
X340471Y194667D01*
X340054Y194043D01*
X340007Y193807D01*
X341331D01*
Y195130D01*
D02*
G37*
G36*
X145283Y194343D02*
Y193020D01*
X146607D01*
X146560Y193255D01*
X146143Y193879D01*
X145519Y194296D01*
X145283Y194343D01*
D02*
G37*
G36*
X343654Y192807D02*
X342331D01*
Y191484D01*
X342566Y191531D01*
X343190Y191947D01*
X343607Y192571D01*
X343654Y192807D01*
D02*
G37*
G36*
X341331D02*
X340007D01*
X340054Y192571D01*
X340471Y191947D01*
X341095Y191531D01*
X341331Y191484D01*
Y192807D01*
D02*
G37*
G36*
X93894Y196022D02*
X93095Y195916D01*
X92351Y195608D01*
X91712Y195118D01*
X91221Y194479D01*
X90913Y193735D01*
X90808Y192936D01*
X90913Y192138D01*
X91221Y191393D01*
X91712Y190754D01*
X92351Y190264D01*
X93095Y189956D01*
X93894Y189851D01*
X94692Y189956D01*
X95436Y190264D01*
X96075Y190754D01*
X96566Y191393D01*
X96874Y192138D01*
X96979Y192936D01*
X96874Y193735D01*
X96566Y194479D01*
X96075Y195118D01*
X95436Y195608D01*
X94692Y195916D01*
X93894Y196022D01*
D02*
G37*
G36*
X144283Y194343D02*
X144048Y194296D01*
X143424Y193879D01*
X143007Y193255D01*
X142930Y192871D01*
X142520Y192474D01*
X141784Y192328D01*
X141160Y191911D01*
X140743Y191287D01*
X140696Y191051D01*
X142520D01*
Y190551D01*
X143020D01*
Y188728D01*
X143255Y188775D01*
X143879Y189192D01*
X144296Y189815D01*
X144373Y190200D01*
X144783Y190597D01*
X145519Y190743D01*
X146143Y191160D01*
X146560Y191784D01*
X146607Y192020D01*
X144783D01*
Y192520D01*
X144283D01*
Y194343D01*
D02*
G37*
G36*
X142020Y190051D02*
X140696D01*
X140743Y189815D01*
X141160Y189192D01*
X141784Y188775D01*
X142020Y188728D01*
Y190051D01*
D02*
G37*
G36*
X103894Y191022D02*
X103095Y190917D01*
X102351Y190608D01*
X101712Y190118D01*
X101222Y189479D01*
X100913Y188735D01*
X100808Y187936D01*
X100913Y187138D01*
X101222Y186393D01*
X101712Y185754D01*
X102351Y185264D01*
X103095Y184956D01*
X103894Y184851D01*
X104692Y184956D01*
X105436Y185264D01*
X106075Y185754D01*
X106566Y186393D01*
X106874Y187138D01*
X106979Y187936D01*
X106874Y188735D01*
X106566Y189479D01*
X106075Y190118D01*
X105436Y190608D01*
X104692Y190917D01*
X103894Y191022D01*
D02*
G37*
G36*
X70284Y184501D02*
Y183177D01*
X71607D01*
X71560Y183413D01*
X71143Y184037D01*
X70519Y184454D01*
X70284Y184501D01*
D02*
G37*
G36*
X69283D02*
X69048Y184454D01*
X68424Y184037D01*
X68007Y183413D01*
X67960Y183177D01*
X69283D01*
Y184501D01*
D02*
G37*
G36*
X71607Y182177D02*
X70284D01*
Y180854D01*
X70519Y180901D01*
X71143Y181318D01*
X71560Y181941D01*
X71607Y182177D01*
D02*
G37*
G36*
X69283D02*
X67960D01*
X68007Y181941D01*
X68424Y181318D01*
X69048Y180901D01*
X69283Y180854D01*
Y182177D01*
D02*
G37*
G36*
X93894Y186022D02*
X93095Y185916D01*
X92351Y185608D01*
X91712Y185118D01*
X91221Y184479D01*
X90913Y183735D01*
X90808Y182936D01*
X90913Y182138D01*
X91221Y181394D01*
X91712Y180754D01*
X92351Y180264D01*
X93095Y179956D01*
X93894Y179851D01*
X94692Y179956D01*
X95436Y180264D01*
X96075Y180754D01*
X96566Y181394D01*
X96874Y182138D01*
X96979Y182936D01*
X96874Y183735D01*
X96566Y184479D01*
X96075Y185118D01*
X95436Y185608D01*
X94692Y185916D01*
X93894Y186022D01*
D02*
G37*
G36*
X103894Y181022D02*
X103095Y180917D01*
X102351Y180608D01*
X101712Y180118D01*
X101222Y179479D01*
X100913Y178735D01*
X100808Y177936D01*
X100913Y177138D01*
X101222Y176393D01*
X101712Y175754D01*
X102351Y175264D01*
X103095Y174956D01*
X103894Y174851D01*
X104692Y174956D01*
X105436Y175264D01*
X106075Y175754D01*
X106566Y176393D01*
X106874Y177138D01*
X106979Y177936D01*
X106874Y178735D01*
X106566Y179479D01*
X106075Y180118D01*
X105436Y180608D01*
X104692Y180917D01*
X103894Y181022D01*
D02*
G37*
G36*
X265914Y177397D02*
X265374Y177290D01*
X264915Y176983D01*
X264609Y176525D01*
X264501Y175984D01*
X264609Y175443D01*
X264915Y174985D01*
X265374Y174679D01*
X265914Y174571D01*
X266455Y174679D01*
X266914Y174985D01*
X267220Y175443D01*
X267327Y175984D01*
X267220Y176525D01*
X266914Y176983D01*
X266455Y177290D01*
X265914Y177397D01*
D02*
G37*
G36*
X331209Y173083D02*
Y171760D01*
X332532D01*
X332485Y171996D01*
X332068Y172619D01*
X331445Y173036D01*
X331209Y173083D01*
D02*
G37*
G36*
X330209D02*
X329973Y173036D01*
X329349Y172619D01*
X328932Y171996D01*
X328885Y171760D01*
X330209D01*
Y173083D01*
D02*
G37*
G36*
X93894Y176022D02*
X93095Y175917D01*
X92351Y175608D01*
X91712Y175118D01*
X91221Y174479D01*
X90913Y173735D01*
X90808Y172936D01*
X90913Y172138D01*
X91221Y171394D01*
X91712Y170754D01*
X92351Y170264D01*
X93095Y169956D01*
X93894Y169851D01*
X94692Y169956D01*
X95436Y170264D01*
X96075Y170754D01*
X96566Y171394D01*
X96874Y172138D01*
X96979Y172936D01*
X96874Y173735D01*
X96566Y174479D01*
X96075Y175118D01*
X95436Y175608D01*
X94692Y175917D01*
X93894Y176022D01*
D02*
G37*
G36*
X332532Y170760D02*
X331209D01*
Y169437D01*
X331445Y169483D01*
X332068Y169900D01*
X332485Y170524D01*
X332532Y170760D01*
D02*
G37*
G36*
X330209D02*
X328885D01*
X328932Y170524D01*
X329349Y169900D01*
X329973Y169483D01*
X330209Y169437D01*
Y170760D01*
D02*
G37*
G36*
X286171Y170704D02*
X285630Y170597D01*
X285172Y170291D01*
X284865Y169832D01*
X284758Y169291D01*
X284865Y168751D01*
X285172Y168292D01*
X285630Y167986D01*
X286171Y167878D01*
X286711Y167986D01*
X287170Y168292D01*
X287476Y168751D01*
X287584Y169291D01*
X287476Y169832D01*
X287170Y170291D01*
X286711Y170597D01*
X286171Y170704D01*
D02*
G37*
G36*
X316445Y169146D02*
Y167823D01*
X317768D01*
X317721Y168059D01*
X317304Y168682D01*
X316681Y169099D01*
X316445Y169146D01*
D02*
G37*
G36*
X315445D02*
X315209Y169099D01*
X314585Y168682D01*
X314169Y168059D01*
X314122Y167823D01*
X315445D01*
Y169146D01*
D02*
G37*
G36*
X49610Y173837D02*
X48756Y173724D01*
X47960Y173395D01*
X47276Y172870D01*
X46752Y172187D01*
X46422Y171391D01*
X46310Y170537D01*
X46422Y169683D01*
X46752Y168887D01*
X47276Y168204D01*
X47960Y167679D01*
X48756Y167350D01*
X49610Y167237D01*
X50464Y167350D01*
X51260Y167679D01*
X51943Y168204D01*
X52468Y168887D01*
X52797Y169683D01*
X52910Y170537D01*
X52797Y171391D01*
X52468Y172187D01*
X51943Y172870D01*
X51260Y173395D01*
X50464Y173724D01*
X49610Y173837D01*
D02*
G37*
G36*
X317768Y166823D02*
X316445D01*
Y165499D01*
X316681Y165546D01*
X317304Y165963D01*
X317721Y166587D01*
X317768Y166823D01*
D02*
G37*
G36*
X315445D02*
X314122D01*
X314169Y166587D01*
X314585Y165963D01*
X315209Y165546D01*
X315445Y165499D01*
Y166823D01*
D02*
G37*
G36*
X103894Y171022D02*
X103095Y170916D01*
X102351Y170608D01*
X101712Y170118D01*
X101222Y169479D01*
X100913Y168735D01*
X100808Y167936D01*
X100913Y167138D01*
X101222Y166393D01*
X101712Y165754D01*
X102351Y165264D01*
X103095Y164956D01*
X103894Y164851D01*
X104692Y164956D01*
X105436Y165264D01*
X106075Y165754D01*
X106566Y166393D01*
X106874Y167138D01*
X106979Y167936D01*
X106874Y168735D01*
X106566Y169479D01*
X106075Y170118D01*
X105436Y170608D01*
X104692Y170916D01*
X103894Y171022D01*
D02*
G37*
G36*
X116642Y165391D02*
Y164067D01*
X117965D01*
X117918Y164303D01*
X117501Y164927D01*
X116877Y165344D01*
X116642Y165391D01*
D02*
G37*
G36*
X115642D02*
X115406Y165344D01*
X114782Y164927D01*
X114365Y164303D01*
X114318Y164067D01*
X115642D01*
Y165391D01*
D02*
G37*
G36*
X117965Y163067D02*
X116642D01*
Y161744D01*
X116877Y161791D01*
X117501Y162208D01*
X117918Y162832D01*
X117965Y163067D01*
D02*
G37*
G36*
X115642D02*
X114318D01*
X114365Y162832D01*
X114782Y162208D01*
X115406Y161791D01*
X115642Y161744D01*
Y163067D01*
D02*
G37*
G36*
X98925Y159166D02*
Y157842D01*
X100249D01*
X100202Y158078D01*
X99785Y158702D01*
X99161Y159119D01*
X98925Y159166D01*
D02*
G37*
G36*
X97925D02*
X97689Y159119D01*
X97066Y158702D01*
X96649Y158078D01*
X96602Y157842D01*
X97925D01*
Y159166D01*
D02*
G37*
G36*
X55592Y163830D02*
X54738Y163717D01*
X53942Y163387D01*
X53259Y162863D01*
X52734Y162180D01*
X52405Y161384D01*
X52292Y160530D01*
X52405Y159676D01*
X52734Y158880D01*
X53259Y158196D01*
X53942Y157672D01*
X54738Y157342D01*
X55592Y157230D01*
X56446Y157342D01*
X57242Y157672D01*
X57925Y158196D01*
X58450Y158880D01*
X58779Y159676D01*
X58892Y160530D01*
X58779Y161384D01*
X58450Y162180D01*
X57925Y162863D01*
X57242Y163387D01*
X56446Y163717D01*
X55592Y163830D01*
D02*
G37*
G36*
X68893Y169966D02*
X67522Y169831D01*
X66203Y169431D01*
X64988Y168781D01*
X63923Y167907D01*
X63048Y166842D01*
X62399Y165626D01*
X61999Y164308D01*
X61864Y162936D01*
X61999Y161565D01*
X62399Y160246D01*
X63048Y159031D01*
X63923Y157965D01*
X64988Y157091D01*
X66203Y156441D01*
X67522Y156041D01*
X68893Y155906D01*
X70265Y156041D01*
X71584Y156441D01*
X72799Y157091D01*
X73864Y157965D01*
X74739Y159031D01*
X75388Y160246D01*
X75788Y161565D01*
X75924Y162936D01*
X75788Y164308D01*
X75388Y165626D01*
X74739Y166842D01*
X73864Y167907D01*
X72799Y168781D01*
X71584Y169431D01*
X70265Y169831D01*
X68893Y169966D01*
D02*
G37*
G36*
X100249Y156842D02*
X98925D01*
Y155519D01*
X99161Y155566D01*
X99785Y155983D01*
X100202Y156606D01*
X100249Y156842D01*
D02*
G37*
G36*
X97925D02*
X96602D01*
X96649Y156606D01*
X97066Y155983D01*
X97689Y155566D01*
X97925Y155519D01*
Y156842D01*
D02*
G37*
G36*
X46700Y155223D02*
Y153900D01*
X48023D01*
X47976Y154136D01*
X47560Y154760D01*
X46936Y155176D01*
X46700Y155223D01*
D02*
G37*
G36*
X45700D02*
X45464Y155176D01*
X44840Y154760D01*
X44424Y154136D01*
X44377Y153900D01*
X45700D01*
Y155223D01*
D02*
G37*
G36*
X48023Y152900D02*
X46700D01*
Y151577D01*
X46936Y151624D01*
X47560Y152040D01*
X47976Y152664D01*
X48023Y152900D01*
D02*
G37*
G36*
X45700D02*
X44377D01*
X44424Y152664D01*
X44840Y152040D01*
X45464Y151624D01*
X45700Y151577D01*
Y152900D01*
D02*
G37*
G36*
X124516Y149461D02*
Y148138D01*
X125839D01*
X125792Y148374D01*
X125375Y148997D01*
X124752Y149414D01*
X124516Y149461D01*
D02*
G37*
G36*
X123516D02*
X123280Y149414D01*
X122656Y148997D01*
X122239Y148374D01*
X122192Y148138D01*
X123516D01*
Y149461D01*
D02*
G37*
G36*
X160656Y148280D02*
Y146957D01*
X161980D01*
X161933Y147193D01*
X161516Y147816D01*
X160892Y148233D01*
X160656Y148280D01*
D02*
G37*
G36*
X159656D02*
X159421Y148233D01*
X158797Y147816D01*
X158380Y147193D01*
X158333Y146957D01*
X159656D01*
Y148280D01*
D02*
G37*
G36*
X125839Y147138D02*
X124516D01*
Y145815D01*
X124752Y145861D01*
X125375Y146278D01*
X125792Y146902D01*
X125839Y147138D01*
D02*
G37*
G36*
X80901Y159274D02*
X79648Y159109D01*
X78481Y158625D01*
X77478Y157856D01*
X76709Y156853D01*
X76225Y155685D01*
X76060Y154432D01*
X76225Y153179D01*
X76709Y152012D01*
X77478Y151009D01*
X78419Y150287D01*
X78385Y149787D01*
X51711D01*
X51321Y149709D01*
X50990Y149488D01*
X45679Y144177D01*
X45458Y143846D01*
X45380Y143456D01*
Y125450D01*
X45458Y125060D01*
X45679Y124729D01*
X48393Y122015D01*
X48724Y121794D01*
X49114Y121717D01*
X55760D01*
X55781Y121610D01*
X56067Y121182D01*
Y110909D01*
X55781Y110482D01*
X55674Y109941D01*
X55781Y109400D01*
X56067Y108973D01*
Y102740D01*
X55781Y102312D01*
X55674Y101772D01*
X55781Y101231D01*
X56067Y100803D01*
Y84925D01*
X55781Y84497D01*
X55674Y83957D01*
X55781Y83416D01*
X56087Y82958D01*
X56546Y82651D01*
X57087Y82544D01*
X57627Y82651D01*
X58086Y82958D01*
X58392Y83416D01*
X58500Y83957D01*
X58392Y84497D01*
X58106Y84925D01*
Y100803D01*
X58392Y101231D01*
X58500Y101772D01*
X58392Y102312D01*
X58106Y102740D01*
Y108973D01*
X58392Y109400D01*
X58500Y109941D01*
X58392Y110482D01*
X58106Y110909D01*
Y121182D01*
X58392Y121610D01*
X58500Y122150D01*
X58392Y122691D01*
X58086Y123150D01*
X57627Y123456D01*
X57087Y123563D01*
X57068Y123560D01*
X56891Y123678D01*
X56501Y123756D01*
X49536D01*
X47420Y125873D01*
Y143034D01*
X52134Y147748D01*
X79216D01*
X79316Y147248D01*
X79306Y147244D01*
X78318Y146485D01*
X77559Y145497D01*
X77082Y144346D01*
X76920Y143110D01*
X77082Y141875D01*
X77559Y140724D01*
X78318Y139735D01*
X79306Y138977D01*
X80458Y138500D01*
X81693Y138337D01*
X82928Y138500D01*
X84079Y138977D01*
X85068Y139735D01*
X85826Y140724D01*
X86303Y141875D01*
X86466Y143110D01*
X86303Y144346D01*
X85826Y145497D01*
X85068Y146485D01*
X84079Y147244D01*
X83507Y147481D01*
X83451Y148045D01*
X83453Y148046D01*
X84284Y148877D01*
X90711D01*
X90947Y148436D01*
X90905Y148374D01*
X90858Y148138D01*
X94505D01*
X94458Y148374D01*
X94416Y148436D01*
X94652Y148877D01*
X98982D01*
X103039Y144820D01*
Y142683D01*
X103000Y142487D01*
Y127168D01*
X103078Y126778D01*
X103299Y126447D01*
X103622Y126123D01*
Y114253D01*
X103256Y113963D01*
Y112008D01*
Y110052D01*
X103622Y109763D01*
Y104284D01*
X103700Y103894D01*
X103921Y103563D01*
X106236Y101248D01*
X106567Y101026D01*
X106957Y100949D01*
X113008D01*
X113436Y100663D01*
X113976Y100556D01*
X114133Y100587D01*
X115170Y99549D01*
Y96063D01*
X115236Y95731D01*
X115424Y95450D01*
X116009Y94864D01*
X116291Y94676D01*
X116568Y94621D01*
X116645Y94473D01*
X116703Y94111D01*
X116357Y93879D01*
X115940Y93256D01*
X115893Y93020D01*
X119540D01*
X119493Y93256D01*
X119232Y93646D01*
X119533Y94095D01*
X119691Y94064D01*
X120232Y94172D01*
X120690Y94478D01*
X120818Y94670D01*
X121349Y94564D01*
X121452Y94048D01*
X121869Y93424D01*
X122493Y93007D01*
X122728Y92960D01*
Y94784D01*
Y96607D01*
X122493Y96560D01*
X121869Y96143D01*
X121570Y95696D01*
X121039Y95802D01*
X120996Y96018D01*
X120690Y96476D01*
X120232Y96782D01*
X119691Y96890D01*
X119150Y96782D01*
X118692Y96476D01*
X118603Y96344D01*
X116981D01*
X116903Y96422D01*
Y99908D01*
X116837Y100240D01*
X116649Y100521D01*
X115358Y101812D01*
X115389Y101969D01*
X115282Y102509D01*
X114976Y102968D01*
X114517Y103274D01*
X113976Y103382D01*
X113436Y103274D01*
X113008Y102988D01*
X107380D01*
X105661Y104706D01*
Y126546D01*
X105584Y126936D01*
X105363Y127267D01*
X105039Y127590D01*
Y138306D01*
X105405Y138596D01*
Y140551D01*
Y142511D01*
X105078Y142819D01*
Y144958D01*
X105118Y145437D01*
X105659Y145545D01*
X106117Y145851D01*
X106423Y146310D01*
X106472Y146554D01*
X106930Y147012D01*
X114386D01*
X114814Y146726D01*
X115318Y146626D01*
X116728Y145216D01*
X117059Y144995D01*
X117289Y144949D01*
X117340Y144457D01*
X117323Y144415D01*
X117013Y144208D01*
X116706Y143749D01*
X116599Y143209D01*
X116706Y142668D01*
X117013Y142209D01*
X117471Y141903D01*
X118012Y141796D01*
X118552Y141903D01*
X119011Y142209D01*
X119022Y142226D01*
X119520Y142275D01*
X120225Y141570D01*
X120151Y140937D01*
X119840Y140730D01*
X119423Y140106D01*
X119377Y139870D01*
X121200D01*
Y138870D01*
X119377D01*
X119423Y138634D01*
X119840Y138011D01*
Y137974D01*
X119423Y137350D01*
X119377Y137114D01*
X121200D01*
Y136614D01*
X121700D01*
Y134791D01*
X121936Y134838D01*
X122063Y134923D01*
X122504Y134687D01*
Y130423D01*
X122582Y130033D01*
X122803Y129702D01*
X127797Y124708D01*
X127658Y124140D01*
X127347Y123932D01*
X127041Y123474D01*
X126934Y122933D01*
X127041Y122392D01*
X127347Y121934D01*
X127806Y121628D01*
X128347Y121520D01*
X128713Y121593D01*
X129213Y121290D01*
Y105885D01*
X127878Y104551D01*
X127657Y104220D01*
X127580Y103830D01*
Y87433D01*
X127080Y87166D01*
X126720Y87406D01*
X126484Y87453D01*
Y85630D01*
X125984D01*
Y85130D01*
X124161D01*
X124208Y84894D01*
X124625Y84270D01*
X125034Y83996D01*
X124777Y83612D01*
X124670Y83071D01*
X124777Y82530D01*
X125031Y82151D01*
Y81107D01*
X124354Y80431D01*
X124133Y80100D01*
X124055Y79710D01*
Y66567D01*
X124133Y66177D01*
X124354Y65846D01*
X126540Y63660D01*
X126520Y63316D01*
X126484Y63288D01*
Y61024D01*
X125984D01*
Y60524D01*
X124161D01*
X124208Y60288D01*
X124625Y59664D01*
X125248Y59247D01*
X125729Y59152D01*
X125857Y58960D01*
X125965Y58419D01*
X126271Y57960D01*
X126729Y57654D01*
X127270Y57547D01*
X127811Y57654D01*
X128134Y57870D01*
X128577Y57698D01*
X128634Y57649D01*
Y56481D01*
X128410Y56257D01*
X128255Y56025D01*
X128200Y55752D01*
Y54983D01*
X127700Y54716D01*
X127501Y54849D01*
X126961Y54956D01*
X126420Y54849D01*
X125961Y54542D01*
X125655Y54084D01*
X125548Y53543D01*
X125655Y53003D01*
X125961Y52544D01*
X126420Y52238D01*
X126961Y52130D01*
X127501Y52238D01*
X127700Y52371D01*
X128200Y52104D01*
Y47946D01*
X128000Y47476D01*
X127459Y47368D01*
X127001Y47062D01*
X126695Y46604D01*
X126587Y46063D01*
X126695Y45522D01*
X127001Y45064D01*
X127459Y44758D01*
X128000Y44650D01*
X128541Y44758D01*
X128999Y45064D01*
X129305Y45522D01*
X129413Y46063D01*
X129305Y46604D01*
X129294Y46621D01*
X129419Y46745D01*
X129574Y46977D01*
X129628Y47250D01*
Y50110D01*
X130090Y50301D01*
X130498Y49893D01*
X130829Y49672D01*
X131219Y49595D01*
X131641D01*
X135208Y46027D01*
X135309Y45522D01*
X135595Y45094D01*
Y33900D01*
X135260Y33676D01*
X134953Y33218D01*
X134846Y32677D01*
X134953Y32136D01*
X135260Y31678D01*
X135718Y31372D01*
X136259Y31264D01*
X136800Y31372D01*
X137258Y31678D01*
X137564Y32136D01*
X137672Y32677D01*
X137597Y33055D01*
X137634Y33241D01*
Y45094D01*
X137920Y45522D01*
X138027Y46063D01*
X137920Y46604D01*
X137613Y47062D01*
X137155Y47368D01*
X136650Y47469D01*
X133131Y50988D01*
X132999Y51501D01*
X133305Y51959D01*
X133413Y52500D01*
X133346Y52837D01*
X134250Y53741D01*
X134405Y53973D01*
X134459Y54246D01*
Y62187D01*
X134921Y62379D01*
X135545Y61755D01*
Y53946D01*
X135260Y53755D01*
X134953Y53297D01*
X134846Y52756D01*
X134953Y52215D01*
X135260Y51757D01*
X135718Y51451D01*
X136259Y51343D01*
X136800Y51451D01*
X137258Y51757D01*
X137564Y52215D01*
X137672Y52756D01*
X137564Y53297D01*
X137258Y53755D01*
X136972Y53946D01*
Y62051D01*
X136918Y62324D01*
X136764Y62555D01*
X135655Y63664D01*
X136085Y64094D01*
X136240Y64326D01*
X136295Y64599D01*
Y65390D01*
X136681Y65707D01*
X136708Y65702D01*
X136996Y65759D01*
X137467Y65433D01*
X137494Y65387D01*
X137504Y65251D01*
X137277Y64911D01*
X137170Y64370D01*
X137277Y63829D01*
X137584Y63371D01*
X138042Y63065D01*
X138583Y62957D01*
X139123Y63065D01*
X139360Y63223D01*
X139860Y62956D01*
Y50872D01*
X139575Y50681D01*
X139268Y50223D01*
X139161Y49682D01*
X139268Y49142D01*
X139575Y48683D01*
X140033Y48377D01*
X140574Y48269D01*
X141114Y48377D01*
X141573Y48683D01*
X141879Y49142D01*
X141987Y49682D01*
X141879Y50223D01*
X141573Y50681D01*
X141287Y50872D01*
Y67257D01*
X141499Y67399D01*
X141805Y67857D01*
X141913Y68398D01*
X141805Y68938D01*
X141499Y69397D01*
X141041Y69703D01*
X140500Y69811D01*
X139959Y69703D01*
X139796Y69594D01*
X139296Y69862D01*
Y83563D01*
X139242Y83836D01*
X139087Y84068D01*
X137271Y85884D01*
X137338Y86221D01*
X137231Y86761D01*
X136924Y87220D01*
X136466Y87526D01*
X135925Y87633D01*
X135385Y87526D01*
X134926Y87220D01*
X134620Y86761D01*
X134512Y86221D01*
X134620Y85680D01*
X134926Y85221D01*
X135385Y84915D01*
X135925Y84807D01*
X136262Y84874D01*
X137869Y83267D01*
Y68607D01*
X137369Y68340D01*
X137249Y68420D01*
X136708Y68528D01*
X136167Y68420D01*
X135859Y68215D01*
X135386Y68411D01*
X135359Y68436D01*
Y71752D01*
X135305Y72025D01*
X135150Y72257D01*
X133236Y74171D01*
X133303Y74508D01*
X133195Y75049D01*
X132889Y75507D01*
X132431Y75813D01*
X131890Y75921D01*
X131349Y75813D01*
X130891Y75507D01*
X130584Y75049D01*
X130477Y74508D01*
X130584Y73967D01*
X130891Y73509D01*
X131349Y73203D01*
X131890Y73095D01*
X132226Y73162D01*
X133932Y71456D01*
Y66848D01*
X133969Y66664D01*
X133454Y66561D01*
X132996Y66255D01*
X132738Y65869D01*
X132444Y65862D01*
X132218Y65922D01*
X132176Y66132D01*
X131955Y66463D01*
X130746Y67671D01*
Y68000D01*
X130669Y68390D01*
X130965Y68846D01*
X131314Y69080D01*
X131620Y69538D01*
X131728Y70079D01*
X131620Y70619D01*
X131314Y71078D01*
X130856Y71384D01*
X130315Y71492D01*
X129774Y71384D01*
X129316Y71078D01*
X129108Y70767D01*
X128540Y70628D01*
X127980Y71188D01*
Y77378D01*
X128266Y77806D01*
X128366Y78310D01*
X129398Y79342D01*
X129632Y79290D01*
X129904Y79141D01*
X129994Y78692D01*
X130300Y78233D01*
X130759Y77927D01*
X131299Y77819D01*
X131840Y77927D01*
X132298Y78233D01*
X132605Y78692D01*
X132712Y79232D01*
X132605Y79773D01*
X132298Y80231D01*
X132013Y80422D01*
Y85919D01*
X135266Y89172D01*
X135421Y89403D01*
X135475Y89677D01*
Y95840D01*
X135761Y96031D01*
X136067Y96489D01*
X136174Y97030D01*
X136067Y97571D01*
X135761Y98029D01*
X135302Y98335D01*
X134761Y98443D01*
X134221Y98335D01*
X133762Y98029D01*
X133456Y97571D01*
X133349Y97030D01*
X133456Y96489D01*
X133762Y96031D01*
X134048Y95840D01*
Y89972D01*
X132491Y88416D01*
X132029Y88607D01*
Y95825D01*
X132315Y96253D01*
X132423Y96794D01*
X132315Y97334D01*
X132009Y97793D01*
X131551Y98099D01*
X131010Y98207D01*
X130469Y98099D01*
X130119Y97865D01*
X129739Y97996D01*
X129619Y98087D01*
Y103407D01*
X130953Y104742D01*
X131174Y105072D01*
X131252Y105463D01*
Y123714D01*
X131174Y124104D01*
X130953Y124435D01*
X124543Y130845D01*
Y139713D01*
X124466Y140103D01*
X124245Y140434D01*
X121577Y143101D01*
X121771Y143615D01*
X122108Y143682D01*
X122566Y143988D01*
X122872Y144447D01*
X122980Y144987D01*
X122872Y145528D01*
X122867Y145536D01*
X123228Y145896D01*
X123280Y145861D01*
X123516Y145815D01*
Y147138D01*
X122192D01*
X122239Y146902D01*
X122366Y146713D01*
X122218Y146473D01*
X122035Y146307D01*
X121567Y146400D01*
X121026Y146293D01*
X120568Y145987D01*
X120360Y145676D01*
X119792Y145537D01*
X118672Y146658D01*
X118341Y146879D01*
X117951Y146956D01*
X117871D01*
X116760Y148068D01*
X116660Y148572D01*
X116353Y149031D01*
X115895Y149337D01*
X115354Y149444D01*
X114814Y149337D01*
X114386Y149051D01*
X106508D01*
X106118Y148974D01*
X105787Y148752D01*
X105268Y148233D01*
X105118Y148263D01*
X104577Y148156D01*
X104119Y147850D01*
X103911Y147539D01*
X103343Y147400D01*
X100126Y150618D01*
X99795Y150839D01*
X99405Y150916D01*
X84884D01*
X84638Y151416D01*
X85094Y152012D01*
X85578Y153179D01*
X85743Y154432D01*
X85578Y155685D01*
X85094Y156853D01*
X84325Y157856D01*
X83322Y158625D01*
X82155Y159109D01*
X80901Y159274D01*
D02*
G37*
G36*
X94505Y147138D02*
X93182D01*
Y145815D01*
X93417Y145861D01*
X94041Y146278D01*
X94458Y146902D01*
X94505Y147138D01*
D02*
G37*
G36*
X92182D02*
X90858D01*
X90905Y146902D01*
X91322Y146278D01*
X91946Y145861D01*
X92182Y145815D01*
Y147138D01*
D02*
G37*
G36*
X144095Y147870D02*
X143554Y147762D01*
X143095Y147456D01*
X142789Y146997D01*
X142682Y146457D01*
X142789Y145916D01*
X143095Y145458D01*
X143554Y145151D01*
X144095Y145044D01*
X144635Y145151D01*
X145094Y145458D01*
X145400Y145916D01*
X145508Y146457D01*
X145400Y146997D01*
X145094Y147456D01*
X144635Y147762D01*
X144095Y147870D01*
D02*
G37*
G36*
X139113Y147613D02*
X138572Y147505D01*
X138114Y147199D01*
X137808Y146740D01*
X137700Y146200D01*
X137808Y145659D01*
X138114Y145201D01*
X138572Y144894D01*
X139113Y144787D01*
X139654Y144894D01*
X140112Y145201D01*
X140419Y145659D01*
X140526Y146200D01*
X140419Y146740D01*
X140112Y147199D01*
X139654Y147505D01*
X139113Y147613D01*
D02*
G37*
G36*
X161980Y145957D02*
X160656D01*
Y144633D01*
X160892Y144680D01*
X161516Y145097D01*
X161933Y145721D01*
X161980Y145957D01*
D02*
G37*
G36*
X159656D02*
X158333D01*
X158380Y145721D01*
X158797Y145097D01*
X159421Y144680D01*
X159656Y144633D01*
Y145957D01*
D02*
G37*
G36*
X253150Y145508D02*
X252609Y145400D01*
X252151Y145094D01*
X251844Y144635D01*
X251737Y144095D01*
X251844Y143554D01*
X252151Y143095D01*
X252609Y142789D01*
X253150Y142682D01*
X253690Y142789D01*
X254149Y143095D01*
X254455Y143554D01*
X254563Y144095D01*
X254455Y144635D01*
X254149Y145094D01*
X253690Y145400D01*
X253150Y145508D01*
D02*
G37*
G36*
X159949Y142768D02*
Y141445D01*
X161272D01*
X161225Y141681D01*
X160808Y142305D01*
X160185Y142721D01*
X159949Y142768D01*
D02*
G37*
G36*
X158949D02*
X158713Y142721D01*
X158089Y142305D01*
X157672Y141681D01*
X157625Y141445D01*
X158949D01*
Y142768D01*
D02*
G37*
G36*
X106405Y142375D02*
Y141051D01*
X107729D01*
X107682Y141287D01*
X107265Y141911D01*
X106641Y142328D01*
X106405Y142375D01*
D02*
G37*
G36*
X52256Y141193D02*
X52020Y141147D01*
X51575Y140849D01*
X51130Y141147D01*
X50894Y141193D01*
Y139370D01*
Y137547D01*
X51130Y137594D01*
X51575Y137891D01*
X52020Y137594D01*
X52256Y137547D01*
Y139370D01*
Y141193D01*
D02*
G37*
G36*
X133858Y141374D02*
X133318Y141266D01*
X132863Y140962D01*
X132455Y140703D01*
X132435D01*
X131977Y141009D01*
X131436Y141117D01*
X130895Y141009D01*
X130437Y140703D01*
X130211Y140366D01*
X129922Y140247D01*
X129622Y140251D01*
X129281Y140479D01*
X128740Y140586D01*
X128199Y140479D01*
X127741Y140172D01*
X127435Y139714D01*
X127327Y139173D01*
X127435Y138633D01*
X127741Y138174D01*
X128199Y137868D01*
X128740Y137760D01*
X129281Y137868D01*
X129739Y138174D01*
X129965Y138511D01*
X130254Y138630D01*
X130554Y138626D01*
X130895Y138398D01*
X131436Y138291D01*
X131977Y138398D01*
X132431Y138702D01*
X132839Y138962D01*
X132859D01*
X133318Y138655D01*
X133858Y138548D01*
X134399Y138655D01*
X134857Y138962D01*
X135164Y139420D01*
X135271Y139961D01*
X135164Y140501D01*
X134857Y140960D01*
X134399Y141266D01*
X133858Y141374D01*
D02*
G37*
G36*
X53256Y141193D02*
Y139870D01*
X54579D01*
X54532Y140106D01*
X54115Y140730D01*
X53492Y141147D01*
X53256Y141193D01*
D02*
G37*
G36*
X49894D02*
X49658Y141147D01*
X49034Y140730D01*
X48617Y140106D01*
X48570Y139870D01*
X49894D01*
Y141193D01*
D02*
G37*
G36*
X247967Y140589D02*
Y139266D01*
X249290D01*
X249243Y139502D01*
X248826Y140126D01*
X248202Y140542D01*
X247967Y140589D01*
D02*
G37*
G36*
X246967D02*
X246731Y140542D01*
X246107Y140126D01*
X245690Y139502D01*
X245643Y139266D01*
X246967D01*
Y140589D01*
D02*
G37*
G36*
X107729Y140051D02*
X106405D01*
Y138728D01*
X106641Y138775D01*
X107265Y139192D01*
X107682Y139815D01*
X107729Y140051D01*
D02*
G37*
G36*
X161272Y140445D02*
X157625D01*
X157672Y140209D01*
X158089Y139585D01*
Y139155D01*
X157672Y138531D01*
X157625Y138295D01*
X161272D01*
X161225Y138531D01*
X160808Y139155D01*
Y139585D01*
X161225Y140209D01*
X161272Y140445D01*
D02*
G37*
G36*
X54579Y138870D02*
X53256D01*
Y137547D01*
X53492Y137594D01*
X54115Y138011D01*
X54532Y138634D01*
X54579Y138870D01*
D02*
G37*
G36*
X49894D02*
X48570D01*
X48617Y138634D01*
X49034Y138011D01*
X49658Y137594D01*
X49894Y137547D01*
Y138870D01*
D02*
G37*
G36*
X249290Y138266D02*
X247967D01*
Y136943D01*
X248202Y136990D01*
X248826Y137406D01*
X249243Y138030D01*
X249290Y138266D01*
D02*
G37*
G36*
X246967D02*
X245643D01*
X245690Y138030D01*
X246107Y137406D01*
X246731Y136990D01*
X246967Y136943D01*
Y138266D01*
D02*
G37*
G36*
X114673Y137256D02*
Y135933D01*
X115997D01*
X115950Y136169D01*
X115533Y136793D01*
X114909Y137209D01*
X114673Y137256D01*
D02*
G37*
G36*
X113673D02*
X113437Y137209D01*
X112814Y136793D01*
X112397Y136169D01*
X112350Y135933D01*
X113673D01*
Y137256D01*
D02*
G37*
G36*
X161272Y137295D02*
X157625D01*
X157672Y137059D01*
X158010Y136554D01*
X158058Y136221D01*
X158010Y135887D01*
X157672Y135381D01*
X157625Y135146D01*
X161272D01*
X161225Y135381D01*
X160887Y135887D01*
X160839Y136221D01*
X160887Y136554D01*
X161225Y137059D01*
X161272Y137295D01*
D02*
G37*
G36*
X127172Y137640D02*
X126631Y137532D01*
X126172Y137226D01*
X125866Y136768D01*
X125759Y136227D01*
X125866Y135686D01*
X126172Y135228D01*
X126631Y134922D01*
X127172Y134814D01*
X127712Y134922D01*
X128171Y135228D01*
X128477Y135686D01*
X128585Y136227D01*
X128477Y136768D01*
X128171Y137226D01*
X127712Y137532D01*
X127172Y137640D01*
D02*
G37*
G36*
X120700Y136114D02*
X119377D01*
X119423Y135878D01*
X119840Y135255D01*
X120464Y134838D01*
X120700Y134791D01*
Y136114D01*
D02*
G37*
G36*
X115997Y134933D02*
X114673D01*
Y133610D01*
X114909Y133657D01*
X115533Y134073D01*
X115950Y134697D01*
X115997Y134933D01*
D02*
G37*
G36*
X113673D02*
X112350D01*
X112397Y134697D01*
X112814Y134073D01*
X113437Y133657D01*
X113673Y133610D01*
Y134933D01*
D02*
G37*
G36*
X278453Y134315D02*
Y132991D01*
X279776D01*
X279729Y133227D01*
X279312Y133851D01*
X278689Y134268D01*
X278453Y134315D01*
D02*
G37*
G36*
X277453D02*
X277217Y134268D01*
X276593Y133851D01*
X276176Y133227D01*
X276129Y132991D01*
X277453D01*
Y134315D01*
D02*
G37*
G36*
X161272Y134146D02*
X159949D01*
Y132822D01*
X160185Y132869D01*
X160808Y133286D01*
X161225Y133910D01*
X161272Y134146D01*
D02*
G37*
G36*
X158949D02*
X157625D01*
X157672Y133910D01*
X158089Y133286D01*
X158713Y132869D01*
X158949Y132822D01*
Y134146D01*
D02*
G37*
G36*
X279776Y131991D02*
X278453D01*
Y130668D01*
X278689Y130715D01*
X279312Y131132D01*
X279729Y131755D01*
X279776Y131991D01*
D02*
G37*
G36*
X277453D02*
X276129D01*
X276176Y131755D01*
X276593Y131132D01*
X277217Y130715D01*
X277453Y130668D01*
Y131991D01*
D02*
G37*
G36*
X53256Y129776D02*
Y128453D01*
X54579D01*
X54532Y128689D01*
X54115Y129312D01*
X53492Y129729D01*
X53256Y129776D01*
D02*
G37*
G36*
X52256D02*
X52020Y129729D01*
X51396Y129312D01*
X50980Y128689D01*
X50933Y128453D01*
X52256D01*
Y129776D01*
D02*
G37*
G36*
X78149Y135420D02*
X77236Y135300D01*
X76384Y134947D01*
X75653Y134386D01*
X75092Y133655D01*
X74740Y132803D01*
X74619Y131890D01*
X74740Y130976D01*
X75092Y130125D01*
X75653Y129393D01*
X76384Y128832D01*
X77236Y128480D01*
X78149Y128360D01*
X79063Y128480D01*
X79915Y128832D01*
X80646Y129393D01*
X81207Y130125D01*
X81559Y130976D01*
X81680Y131890D01*
X81559Y132803D01*
X81207Y133655D01*
X80646Y134386D01*
X79915Y134947D01*
X79063Y135300D01*
X78149Y135420D01*
D02*
G37*
G36*
X112311Y128989D02*
Y127665D01*
X113634D01*
X113587Y127901D01*
X113171Y128525D01*
X112547Y128942D01*
X112311Y128989D01*
D02*
G37*
G36*
X111311D02*
X111075Y128942D01*
X110451Y128525D01*
X110035Y127901D01*
X109988Y127665D01*
X111311D01*
Y128989D01*
D02*
G37*
G36*
X140264Y127808D02*
Y126484D01*
X141587D01*
X141540Y126720D01*
X141123Y127344D01*
X140500Y127761D01*
X140264Y127808D01*
D02*
G37*
G36*
X139264D02*
X139028Y127761D01*
X138404Y127344D01*
X137987Y126720D01*
X137941Y126484D01*
X139264D01*
Y127808D01*
D02*
G37*
G36*
X54579Y127453D02*
X53256D01*
Y126129D01*
X53492Y126176D01*
X54115Y126593D01*
X54532Y127217D01*
X54579Y127453D01*
D02*
G37*
G36*
X52256D02*
X50933D01*
X50980Y127217D01*
X51396Y126593D01*
X52020Y126176D01*
X52256Y126129D01*
Y127453D01*
D02*
G37*
G36*
X113634Y126665D02*
X112311D01*
Y125342D01*
X112547Y125389D01*
X113171Y125806D01*
X113587Y126429D01*
X113634Y126665D01*
D02*
G37*
G36*
X111311D02*
X109988D01*
X110035Y126429D01*
X110451Y125806D01*
X111075Y125389D01*
X111311Y125342D01*
Y126665D01*
D02*
G37*
G36*
X86811Y135420D02*
X85897Y135300D01*
X85046Y134947D01*
X84315Y134386D01*
X83754Y133655D01*
X83401Y132803D01*
X83281Y131890D01*
X83401Y130976D01*
X83754Y130125D01*
X84315Y129393D01*
X85046Y128832D01*
X85897Y128480D01*
X86070Y128457D01*
Y127953D01*
X85767Y127913D01*
X84794Y127510D01*
X83958Y126869D01*
X83317Y126033D01*
X82914Y125060D01*
X82842Y124516D01*
X86811D01*
X90780D01*
X90708Y125060D01*
X90305Y126033D01*
X89664Y126869D01*
X88828Y127510D01*
X87855Y127913D01*
X87552Y127953D01*
Y128457D01*
X87725Y128480D01*
X88576Y128832D01*
X89307Y129393D01*
X89868Y130125D01*
X90221Y130976D01*
X90341Y131890D01*
X90221Y132803D01*
X89868Y133655D01*
X89307Y134386D01*
X88576Y134947D01*
X87725Y135300D01*
X86811Y135420D01*
D02*
G37*
G36*
X141587Y125484D02*
X140264D01*
Y124161D01*
X140500Y124208D01*
X141123Y124625D01*
X141540Y125248D01*
X141587Y125484D01*
D02*
G37*
G36*
X139264D02*
X137941D01*
X137987Y125248D01*
X138404Y124625D01*
X139028Y124208D01*
X139264Y124161D01*
Y125484D01*
D02*
G37*
G36*
X125000Y125724D02*
X124459Y125616D01*
X124001Y125310D01*
X123695Y124852D01*
X123587Y124311D01*
X123695Y123770D01*
X124001Y123312D01*
X124459Y123006D01*
X125000Y122898D01*
X125541Y123006D01*
X125999Y123312D01*
X126305Y123770D01*
X126413Y124311D01*
X126305Y124852D01*
X125999Y125310D01*
X125541Y125616D01*
X125000Y125724D01*
D02*
G37*
G36*
X65461Y122296D02*
Y120972D01*
X66784D01*
X66737Y121208D01*
X66320Y121832D01*
X65696Y122249D01*
X65461Y122296D01*
D02*
G37*
G36*
X64461D02*
X64225Y122249D01*
X63601Y121832D01*
X63184Y121208D01*
X63137Y120972D01*
X64461D01*
Y122296D01*
D02*
G37*
G36*
X78149Y127546D02*
X77236Y127426D01*
X76384Y127073D01*
X75653Y126512D01*
X75092Y125781D01*
X74740Y124929D01*
X74619Y124016D01*
X74740Y123102D01*
X75092Y122251D01*
X75653Y121519D01*
X76384Y120958D01*
X77236Y120606D01*
X78149Y120485D01*
X79063Y120606D01*
X79915Y120958D01*
X80646Y121519D01*
X81207Y122251D01*
X81559Y123102D01*
X81680Y124016D01*
X81559Y124929D01*
X81207Y125781D01*
X80646Y126512D01*
X79915Y127073D01*
X79063Y127426D01*
X78149Y127546D01*
D02*
G37*
G36*
X157046Y121661D02*
Y120338D01*
X158369D01*
X158322Y120573D01*
X157905Y121197D01*
X157282Y121614D01*
X157046Y121661D01*
D02*
G37*
G36*
X156046D02*
X155810Y121614D01*
X155186Y121197D01*
X154770Y120573D01*
X154723Y120338D01*
X156046D01*
Y121661D01*
D02*
G37*
G36*
X66784Y119972D02*
X65461D01*
Y118649D01*
X65696Y118696D01*
X66320Y119113D01*
X66737Y119737D01*
X66784Y119972D01*
D02*
G37*
G36*
X64461D02*
X63137D01*
X63184Y119737D01*
X63601Y119113D01*
X64225Y118696D01*
X64461Y118649D01*
Y119972D01*
D02*
G37*
G36*
X158369Y119338D02*
X157046D01*
Y118014D01*
X157282Y118061D01*
X157905Y118478D01*
X158322Y119102D01*
X158369Y119338D01*
D02*
G37*
G36*
X156046D02*
X154723D01*
X154770Y119102D01*
X155186Y118478D01*
X155810Y118061D01*
X156046Y118014D01*
Y119338D01*
D02*
G37*
G36*
X280933Y119147D02*
Y117823D01*
X282256D01*
X282209Y118059D01*
X281793Y118683D01*
X281169Y119100D01*
X280933Y119147D01*
D02*
G37*
G36*
X279933D02*
X279697Y119100D01*
X279074Y118683D01*
X278657Y118059D01*
X278610Y117823D01*
X279933D01*
Y119147D01*
D02*
G37*
G36*
X282256Y116823D02*
X280933D01*
Y115500D01*
X281169Y115547D01*
X281793Y115964D01*
X282209Y116587D01*
X282256Y116823D01*
D02*
G37*
G36*
X279933D02*
X278610D01*
X278657Y116587D01*
X279074Y115964D01*
X279697Y115547D01*
X279933Y115500D01*
Y116823D01*
D02*
G37*
G36*
X125295Y115783D02*
X124755Y115675D01*
X124296Y115369D01*
X123990Y114911D01*
X123882Y114370D01*
X123990Y113829D01*
X124296Y113371D01*
X124755Y113065D01*
X125295Y112957D01*
X125836Y113065D01*
X126294Y113371D01*
X126601Y113829D01*
X126708Y114370D01*
X126601Y114911D01*
X126294Y115369D01*
X125836Y115675D01*
X125295Y115783D01*
D02*
G37*
G36*
X46700Y114023D02*
Y112700D01*
X48023D01*
X47976Y112936D01*
X47560Y113560D01*
X46936Y113976D01*
X46700Y114023D01*
D02*
G37*
G36*
X45700D02*
X45464Y113976D01*
X44840Y113560D01*
X44424Y112936D01*
X44377Y112700D01*
X45700D01*
Y114023D01*
D02*
G37*
G36*
X90780Y123516D02*
X86811D01*
X82842D01*
X82914Y122971D01*
X83317Y121999D01*
X83958Y121163D01*
X84794Y120522D01*
X85767Y120119D01*
X86070Y120079D01*
Y119574D01*
X85897Y119552D01*
X85046Y119199D01*
X84315Y118638D01*
X83754Y117907D01*
X83401Y117055D01*
X83281Y116142D01*
X83401Y115228D01*
X83754Y114377D01*
X84315Y113646D01*
X85046Y113084D01*
X85897Y112732D01*
X86811Y112611D01*
X87725Y112732D01*
X88576Y113084D01*
X89307Y113646D01*
X89868Y114377D01*
X90221Y115228D01*
X90341Y116142D01*
X90221Y117055D01*
X89868Y117907D01*
X89307Y118638D01*
X88576Y119199D01*
X87725Y119552D01*
X87552Y119574D01*
Y120079D01*
X87855Y120119D01*
X88828Y120522D01*
X89664Y121163D01*
X90305Y121999D01*
X90708Y122971D01*
X90780Y123516D01*
D02*
G37*
G36*
X78149Y119672D02*
X77236Y119552D01*
X76384Y119199D01*
X75653Y118638D01*
X75092Y117907D01*
X74740Y117055D01*
X74619Y116142D01*
X74740Y115228D01*
X75092Y114377D01*
X75653Y113646D01*
X76384Y113084D01*
X77236Y112732D01*
X78149Y112611D01*
X79063Y112732D01*
X79915Y113084D01*
X80646Y113646D01*
X81207Y114377D01*
X81559Y115228D01*
X81680Y116142D01*
X81559Y117055D01*
X81207Y117907D01*
X80646Y118638D01*
X79915Y119199D01*
X79063Y119552D01*
X78149Y119672D01*
D02*
G37*
G36*
X102256Y113831D02*
X102020Y113784D01*
X101396Y113367D01*
X100979Y112744D01*
X100933Y112508D01*
X102256D01*
Y113831D01*
D02*
G37*
G36*
X110433Y113821D02*
X109892Y113714D01*
X109434Y113407D01*
X109128Y112949D01*
X109020Y112408D01*
X109128Y111868D01*
X109434Y111409D01*
X109892Y111103D01*
X110433Y110995D01*
X110974Y111103D01*
X111432Y111409D01*
X111739Y111868D01*
X111846Y112408D01*
X111739Y112949D01*
X111432Y113407D01*
X110974Y113714D01*
X110433Y113821D01*
D02*
G37*
G36*
X256405Y111764D02*
Y110441D01*
X257729D01*
X257682Y110677D01*
X257265Y111301D01*
X256641Y111717D01*
X256405Y111764D01*
D02*
G37*
G36*
X255405D02*
X255170Y111717D01*
X254546Y111301D01*
X254129Y110677D01*
X254082Y110441D01*
X255405D01*
Y111764D01*
D02*
G37*
G36*
X48023Y111700D02*
X46700D01*
Y110377D01*
X46936Y110424D01*
X47560Y110840D01*
X47976Y111464D01*
X48023Y111700D01*
D02*
G37*
G36*
X45700D02*
X44377D01*
X44424Y111464D01*
X44840Y110840D01*
X45464Y110424D01*
X45700Y110377D01*
Y111700D01*
D02*
G37*
G36*
X138091Y113027D02*
X137550Y112920D01*
X137091Y112613D01*
X136785Y112155D01*
X136678Y111614D01*
X136785Y111074D01*
X137091Y110615D01*
X137550Y110309D01*
X138091Y110201D01*
X138631Y110309D01*
X139090Y110615D01*
X139396Y111074D01*
X139504Y111614D01*
X139396Y112155D01*
X139090Y112613D01*
X138631Y112920D01*
X138091Y113027D01*
D02*
G37*
G36*
X102256Y111508D02*
X100933D01*
X100979Y111272D01*
X101396Y110648D01*
X102020Y110231D01*
X102256Y110185D01*
Y111508D01*
D02*
G37*
G36*
X337114Y111075D02*
Y109752D01*
X338438D01*
X338391Y109988D01*
X337974Y110612D01*
X337350Y111028D01*
X337114Y111075D01*
D02*
G37*
G36*
X336114D02*
X335878Y111028D01*
X335255Y110612D01*
X334838Y109988D01*
X334791Y109752D01*
X336114D01*
Y111075D01*
D02*
G37*
G36*
X257729Y109441D02*
X256405D01*
Y108118D01*
X256641Y108165D01*
X257265Y108581D01*
X257682Y109205D01*
X257729Y109441D01*
D02*
G37*
G36*
X255405D02*
X254082D01*
X254129Y109205D01*
X254546Y108581D01*
X255170Y108165D01*
X255405Y108118D01*
Y109441D01*
D02*
G37*
G36*
X338438Y108752D02*
X337114D01*
Y107429D01*
X337350Y107476D01*
X337974Y107892D01*
X338391Y108516D01*
X338438Y108752D01*
D02*
G37*
G36*
X336114D02*
X334791D01*
X334838Y108516D01*
X335255Y107892D01*
X335878Y107476D01*
X336114Y107429D01*
Y108752D01*
D02*
G37*
G36*
X118405Y108106D02*
X117865Y107998D01*
X117406Y107692D01*
X117100Y107234D01*
X116992Y106693D01*
X117100Y106152D01*
X117406Y105694D01*
X117865Y105387D01*
X118405Y105280D01*
X118946Y105387D01*
X119405Y105694D01*
X119711Y106152D01*
X119818Y106693D01*
X119711Y107234D01*
X119405Y107692D01*
X118946Y107998D01*
X118405Y108106D01*
D02*
G37*
G36*
X311277Y106154D02*
Y104831D01*
X312600D01*
X312553Y105067D01*
X312137Y105690D01*
X311513Y106107D01*
X311277Y106154D01*
D02*
G37*
G36*
X310277D02*
X310041Y106107D01*
X309417Y105690D01*
X309000Y105067D01*
X308954Y104831D01*
X310277D01*
Y106154D01*
D02*
G37*
G36*
X86811Y111798D02*
X85897Y111678D01*
X85046Y111325D01*
X84315Y110764D01*
X83754Y110033D01*
X83401Y109181D01*
X83281Y108268D01*
X83401Y107354D01*
X83754Y106503D01*
X84315Y105772D01*
X85046Y105210D01*
X85897Y104858D01*
X86811Y104737D01*
X87725Y104858D01*
X88576Y105210D01*
X89307Y105772D01*
X89868Y106503D01*
X90221Y107354D01*
X90341Y108268D01*
X90221Y109181D01*
X89868Y110033D01*
X89307Y110764D01*
X88576Y111325D01*
X87725Y111678D01*
X86811Y111798D01*
D02*
G37*
G36*
X78149D02*
X77236Y111678D01*
X76384Y111325D01*
X75653Y110764D01*
X75092Y110033D01*
X74740Y109181D01*
X74619Y108268D01*
X74740Y107354D01*
X75092Y106503D01*
X75653Y105772D01*
X76384Y105210D01*
X77236Y104858D01*
X78149Y104737D01*
X79063Y104858D01*
X79915Y105210D01*
X80646Y105772D01*
X81207Y106503D01*
X81559Y107354D01*
X81680Y108268D01*
X81559Y109181D01*
X81207Y110033D01*
X80646Y110764D01*
X79915Y111325D01*
X79063Y111678D01*
X78149Y111798D01*
D02*
G37*
G36*
X134455Y107520D02*
X133915Y107413D01*
X133456Y107107D01*
X133150Y106648D01*
X133042Y106107D01*
X133150Y105567D01*
X133456Y105108D01*
X133915Y104802D01*
X134455Y104695D01*
X134996Y104802D01*
X135454Y105108D01*
X135761Y105567D01*
X135868Y106107D01*
X135761Y106648D01*
X135454Y107107D01*
X134996Y107413D01*
X134455Y107520D01*
D02*
G37*
G36*
X157087Y107023D02*
X156546Y106916D01*
X156088Y106609D01*
X155781Y106151D01*
X155674Y105610D01*
X155781Y105069D01*
X156088Y104611D01*
X156546Y104305D01*
X157087Y104197D01*
X157627Y104305D01*
X158086Y104611D01*
X158392Y105069D01*
X158500Y105610D01*
X158392Y106151D01*
X158086Y106609D01*
X157627Y106916D01*
X157087Y107023D01*
D02*
G37*
G36*
X101000Y144622D02*
X100459Y144514D01*
X100001Y144208D01*
X99695Y143749D01*
X99594Y143245D01*
X96622Y140272D01*
X96400Y139941D01*
X96323Y139551D01*
Y106712D01*
X94078Y104467D01*
X93857Y104137D01*
X93855Y104123D01*
X93345Y104123D01*
X93333Y104182D01*
X93027Y104641D01*
X92568Y104947D01*
X92028Y105055D01*
X91487Y104947D01*
X91028Y104641D01*
X90722Y104182D01*
X90615Y103642D01*
X90722Y103101D01*
X91028Y102643D01*
X91487Y102336D01*
X92028Y102229D01*
X92568Y102336D01*
X93027Y102643D01*
X93280Y103021D01*
X93634Y102991D01*
X93780Y102938D01*
Y76730D01*
X93280Y76427D01*
X92913Y76500D01*
X92373Y76392D01*
X91914Y76086D01*
X91608Y75627D01*
X91500Y75087D01*
X91608Y74546D01*
X91914Y74088D01*
X92373Y73781D01*
X92390Y73778D01*
X92743Y73581D01*
X92665Y73191D01*
Y59509D01*
X92743Y59119D01*
X92964Y58788D01*
X95437Y56315D01*
Y45063D01*
X95151Y44635D01*
X95044Y44094D01*
X95151Y43554D01*
X95458Y43095D01*
X95916Y42789D01*
X96457Y42682D01*
X96997Y42789D01*
X97456Y43095D01*
X97762Y43554D01*
X97870Y44094D01*
X97762Y44635D01*
X97476Y45063D01*
Y54390D01*
X97976Y54541D01*
X98140Y54296D01*
X98764Y53879D01*
X99000Y53832D01*
Y55655D01*
Y57479D01*
X98764Y57432D01*
X98140Y57015D01*
X97968Y56757D01*
X97847Y56752D01*
X97448Y56879D01*
X97399Y57127D01*
X97178Y57458D01*
X94705Y59931D01*
Y68239D01*
X95205Y68288D01*
X95250Y68062D01*
X95556Y67603D01*
X96014Y67297D01*
X96555Y67189D01*
X97096Y67297D01*
X97554Y67603D01*
X97822Y68004D01*
X97865Y68064D01*
X98427Y68348D01*
X98654Y68304D01*
X99194Y68411D01*
X99653Y68717D01*
X99959Y69176D01*
X100066Y69717D01*
X99959Y70257D01*
X99653Y70716D01*
X99194Y71022D01*
X98654Y71130D01*
X98247Y71543D01*
Y71907D01*
X98189Y72200D01*
X98023Y72448D01*
X98023Y72448D01*
X96360Y74111D01*
X96112Y74277D01*
X95859Y74327D01*
X95819Y74367D01*
Y103324D01*
X98063Y105569D01*
X98285Y105900D01*
X98362Y106290D01*
Y139129D01*
X101036Y141803D01*
X101541Y141903D01*
X101999Y142209D01*
X102305Y142668D01*
X102413Y143209D01*
X102305Y143749D01*
X101999Y144208D01*
X101541Y144514D01*
X101000Y144622D01*
D02*
G37*
G36*
X270183Y104185D02*
Y102862D01*
X271507D01*
X271460Y103098D01*
X271043Y103722D01*
X270419Y104139D01*
X270183Y104185D01*
D02*
G37*
G36*
X269183D02*
X268948Y104139D01*
X268324Y103722D01*
X267907Y103098D01*
X267860Y102862D01*
X269183D01*
Y104185D01*
D02*
G37*
G36*
X312600Y103831D02*
X311277D01*
Y102507D01*
X311513Y102554D01*
X312137Y102971D01*
X312553Y103595D01*
X312600Y103831D01*
D02*
G37*
G36*
X310277D02*
X308954D01*
X309000Y103595D01*
X309417Y102971D01*
X310041Y102554D01*
X310277Y102507D01*
Y103831D01*
D02*
G37*
G36*
X271507Y101862D02*
X270183D01*
Y100539D01*
X270419Y100586D01*
X271043Y101003D01*
X271460Y101626D01*
X271507Y101862D01*
D02*
G37*
G36*
X269183D02*
X267860D01*
X267907Y101626D01*
X268324Y101003D01*
X268948Y100586D01*
X269183Y100539D01*
Y101862D01*
D02*
G37*
G36*
X154043Y101430D02*
Y100106D01*
X155367D01*
X155320Y100342D01*
X154903Y100966D01*
X154279Y101383D01*
X154043Y101430D01*
D02*
G37*
G36*
X153043D02*
X152807Y101383D01*
X152184Y100966D01*
X151767Y100342D01*
X151720Y100106D01*
X153043D01*
Y101430D01*
D02*
G37*
G36*
X109358Y100347D02*
Y99024D01*
X110682D01*
X110635Y99259D01*
X110218Y99883D01*
X109594Y100300D01*
X109358Y100347D01*
D02*
G37*
G36*
X108358D02*
X108123Y100300D01*
X107499Y99883D01*
X107082Y99259D01*
X107035Y99024D01*
X108358D01*
Y100347D01*
D02*
G37*
G36*
X155367Y99106D02*
X154043D01*
Y97783D01*
X154279Y97830D01*
X154903Y98247D01*
X155320Y98870D01*
X155367Y99106D01*
D02*
G37*
G36*
X153043D02*
X151720D01*
X151767Y98870D01*
X152184Y98247D01*
X152807Y97830D01*
X153043Y97783D01*
Y99106D01*
D02*
G37*
G36*
X199320Y98281D02*
Y96957D01*
X200643D01*
X200596Y97193D01*
X200179Y97817D01*
X199555Y98234D01*
X199320Y98281D01*
D02*
G37*
G36*
X90067Y98280D02*
Y96957D01*
X91390D01*
X91343Y97193D01*
X90926Y97816D01*
X90303Y98233D01*
X90067Y98280D01*
D02*
G37*
G36*
X89067D02*
X88831Y98233D01*
X88207Y97816D01*
X87790Y97193D01*
X87744Y96957D01*
X89067D01*
Y98280D01*
D02*
G37*
G36*
X78149Y103924D02*
X77236Y103804D01*
X76384Y103451D01*
X75653Y102890D01*
X75092Y102159D01*
X74740Y101307D01*
X74619Y100394D01*
X74740Y99480D01*
X75092Y98629D01*
X75653Y97897D01*
X76384Y97337D01*
X77236Y96984D01*
X78149Y96864D01*
X79063Y96984D01*
X79915Y97337D01*
X80646Y97897D01*
X81207Y98629D01*
X81559Y99480D01*
X81680Y100394D01*
X81559Y101307D01*
X81207Y102159D01*
X80646Y102890D01*
X79915Y103451D01*
X79063Y103804D01*
X78149Y103924D01*
D02*
G37*
G36*
X110682Y98024D02*
X107035D01*
X107082Y97788D01*
X107478Y97195D01*
X107082Y96602D01*
X107035Y96366D01*
X110682D01*
X110635Y96602D01*
X110239Y97195D01*
X110635Y97788D01*
X110682Y98024D01*
D02*
G37*
G36*
X123728Y96607D02*
Y95284D01*
X125052D01*
X125005Y95519D01*
X124588Y96143D01*
X123964Y96560D01*
X123728Y96607D01*
D02*
G37*
G36*
X200643Y95957D02*
X199320D01*
Y94634D01*
X199555Y94681D01*
X200179Y95098D01*
X200596Y95722D01*
X200643Y95957D01*
D02*
G37*
G36*
X91390Y95957D02*
X90067D01*
Y94633D01*
X90303Y94680D01*
X90926Y95097D01*
X91343Y95721D01*
X91390Y95957D01*
D02*
G37*
G36*
X89067D02*
X87744D01*
X87790Y95721D01*
X88207Y95097D01*
X88831Y94680D01*
X89067Y94633D01*
Y95957D01*
D02*
G37*
G36*
X110682Y95366D02*
X109358D01*
Y94043D01*
X109594Y94090D01*
X110218Y94507D01*
X110635Y95130D01*
X110682Y95366D01*
D02*
G37*
G36*
X108358D02*
X107035D01*
X107082Y95130D01*
X107499Y94507D01*
X108123Y94090D01*
X108358Y94043D01*
Y95366D01*
D02*
G37*
G36*
X258874Y94343D02*
Y93019D01*
X260197D01*
X260150Y93255D01*
X259734Y93879D01*
X259110Y94296D01*
X258874Y94343D01*
D02*
G37*
G36*
X257874D02*
X257638Y94296D01*
X257014Y93879D01*
X256598Y93255D01*
X256551Y93019D01*
X257874D01*
Y94343D01*
D02*
G37*
G36*
X125052Y94283D02*
X123728D01*
Y92960D01*
X123964Y93007D01*
X124588Y93424D01*
X125005Y94048D01*
X125052Y94283D01*
D02*
G37*
G36*
X145374Y94720D02*
X144833Y94612D01*
X144375Y94306D01*
X144069Y93848D01*
X143961Y93307D01*
X144069Y92766D01*
X144375Y92308D01*
X144833Y92002D01*
X145374Y91894D01*
X145915Y92002D01*
X146373Y92308D01*
X146679Y92766D01*
X146787Y93307D01*
X146679Y93848D01*
X146373Y94306D01*
X145915Y94612D01*
X145374Y94720D01*
D02*
G37*
G36*
X119540Y92020D02*
X118217D01*
Y90696D01*
X118452Y90743D01*
X119076Y91160D01*
X119493Y91784D01*
X119540Y92020D01*
D02*
G37*
G36*
X117217D02*
X115893D01*
X115940Y91784D01*
X116357Y91160D01*
X116981Y90743D01*
X117217Y90696D01*
Y92020D01*
D02*
G37*
G36*
X260197Y92019D02*
X258874D01*
Y90696D01*
X259110Y90743D01*
X259734Y91160D01*
X260150Y91784D01*
X260197Y92019D01*
D02*
G37*
G36*
X257874D02*
X256551D01*
X256598Y91784D01*
X257014Y91160D01*
X257638Y90743D01*
X257874Y90696D01*
Y92019D01*
D02*
G37*
G36*
X78149Y96050D02*
X77236Y95930D01*
X76384Y95577D01*
X75653Y95016D01*
X75092Y94285D01*
X74740Y93433D01*
X74619Y92520D01*
X74740Y91606D01*
X75092Y90755D01*
X75653Y90023D01*
X76384Y89463D01*
X77236Y89110D01*
X78149Y88990D01*
X79063Y89110D01*
X79915Y89463D01*
X80646Y90023D01*
X81207Y90755D01*
X81559Y91606D01*
X81680Y92520D01*
X81559Y93433D01*
X81207Y94285D01*
X80646Y95016D01*
X79915Y95577D01*
X79063Y95930D01*
X78149Y96050D01*
D02*
G37*
G36*
X65461Y90012D02*
Y88689D01*
X66784D01*
X66737Y88925D01*
X66320Y89549D01*
X65696Y89965D01*
X65461Y90012D01*
D02*
G37*
G36*
X64461D02*
X64225Y89965D01*
X63601Y89549D01*
X63184Y88925D01*
X63137Y88689D01*
X64461D01*
Y90012D01*
D02*
G37*
G36*
X191051Y90012D02*
Y88689D01*
X192374D01*
X192327Y88924D01*
X191910Y89548D01*
X191287Y89965D01*
X191051Y90012D01*
D02*
G37*
G36*
X148100Y88023D02*
Y86700D01*
X149423D01*
X149376Y86936D01*
X148960Y87560D01*
X148336Y87976D01*
X148100Y88023D01*
D02*
G37*
G36*
X147100D02*
X146864Y87976D01*
X146240Y87560D01*
X145824Y86936D01*
X145777Y86700D01*
X147100D01*
Y88023D01*
D02*
G37*
G36*
X66784Y87689D02*
X65461D01*
Y86366D01*
X65696Y86413D01*
X66320Y86829D01*
X66737Y87453D01*
X66784Y87689D01*
D02*
G37*
G36*
X64461D02*
X63137D01*
X63184Y87453D01*
X63601Y86829D01*
X64225Y86413D01*
X64461Y86366D01*
Y87689D01*
D02*
G37*
G36*
X125484Y87453D02*
X125248Y87406D01*
X124625Y86989D01*
X124208Y86366D01*
X124161Y86130D01*
X125484D01*
Y87453D01*
D02*
G37*
G36*
X202109Y86469D02*
X201873Y86422D01*
X201249Y86005D01*
X200833Y85382D01*
X200786Y85146D01*
X202109D01*
Y86469D01*
D02*
G37*
G36*
X69784Y87633D02*
X69243Y87526D01*
X68784Y87220D01*
X68478Y86761D01*
X68370Y86221D01*
X68478Y85680D01*
X68784Y85221D01*
X69243Y84915D01*
X69784Y84807D01*
X70324Y84915D01*
X70783Y85221D01*
X71089Y85680D01*
X71196Y86221D01*
X71089Y86761D01*
X70783Y87220D01*
X70324Y87526D01*
X69784Y87633D01*
D02*
G37*
G36*
X149423Y85700D02*
X148100D01*
Y84377D01*
X148336Y84424D01*
X148960Y84840D01*
X149376Y85464D01*
X149423Y85700D01*
D02*
G37*
G36*
X147100D02*
X145777D01*
X145824Y85464D01*
X146240Y84840D01*
X146864Y84424D01*
X147100Y84377D01*
Y85700D01*
D02*
G37*
G36*
X46900Y84652D02*
Y83329D01*
X48223D01*
X48176Y83565D01*
X47760Y84188D01*
X47136Y84605D01*
X46900Y84652D01*
D02*
G37*
G36*
X45900D02*
X45664Y84605D01*
X45040Y84188D01*
X44624Y83565D01*
X44577Y83329D01*
X45900D01*
Y84652D01*
D02*
G37*
G36*
X100894Y83516D02*
Y82193D01*
X102217D01*
X102170Y82429D01*
X101753Y83052D01*
X101129Y83469D01*
X100894Y83516D01*
D02*
G37*
G36*
X99894D02*
X99658Y83469D01*
X99034Y83052D01*
X98617Y82429D01*
X98570Y82193D01*
X99894D01*
Y83516D01*
D02*
G37*
G36*
X154043Y83319D02*
Y81996D01*
X155367D01*
X155320Y82232D01*
X154903Y82856D01*
X154279Y83272D01*
X154043Y83319D01*
D02*
G37*
G36*
X153043D02*
X152807Y83272D01*
X152184Y82856D01*
X151767Y82232D01*
X151720Y81996D01*
X153043D01*
Y83319D01*
D02*
G37*
G36*
X328256Y82815D02*
Y81492D01*
X329579D01*
X329532Y81728D01*
X329116Y82352D01*
X328492Y82769D01*
X328256Y82815D01*
D02*
G37*
G36*
X327256D02*
X327020Y82769D01*
X326396Y82352D01*
X325979Y81728D01*
X325933Y81492D01*
X327256D01*
Y82815D01*
D02*
G37*
G36*
X78149Y88176D02*
X77236Y88056D01*
X76384Y87703D01*
X75653Y87142D01*
X75092Y86411D01*
X74740Y85559D01*
X74619Y84646D01*
X74740Y83732D01*
X75092Y82881D01*
X75653Y82149D01*
X76384Y81588D01*
X77236Y81236D01*
X78149Y81116D01*
X79063Y81236D01*
X79915Y81588D01*
X80646Y82149D01*
X81207Y82881D01*
X81559Y83732D01*
X81680Y84646D01*
X81559Y85559D01*
X81207Y86411D01*
X80646Y87142D01*
X79915Y87703D01*
X79063Y88056D01*
X78149Y88176D01*
D02*
G37*
G36*
X48223Y82329D02*
X46900D01*
Y81005D01*
X47136Y81052D01*
X47760Y81469D01*
X48176Y82093D01*
X48223Y82329D01*
D02*
G37*
G36*
X45900D02*
X44577D01*
X44624Y82093D01*
X45040Y81469D01*
X45664Y81052D01*
X45900Y81005D01*
Y82329D01*
D02*
G37*
G36*
X102217Y81193D02*
X100894D01*
Y79870D01*
X101129Y79917D01*
X101753Y80333D01*
X102170Y80957D01*
X102217Y81193D01*
D02*
G37*
G36*
X99894D02*
X98570D01*
X98617Y80957D01*
X99034Y80333D01*
X99658Y79917D01*
X99894Y79870D01*
Y81193D01*
D02*
G37*
G36*
X155367Y80996D02*
X154043D01*
Y79673D01*
X154279Y79720D01*
X154903Y80137D01*
X155320Y80760D01*
X155367Y80996D01*
D02*
G37*
G36*
X153043D02*
X151720D01*
X151767Y80760D01*
X152184Y80137D01*
X152807Y79720D01*
X153043Y79673D01*
Y80996D01*
D02*
G37*
G36*
X90561Y82258D02*
X90020Y82150D01*
X89562Y81844D01*
X89255Y81385D01*
X89148Y80845D01*
X89255Y80304D01*
X89562Y79846D01*
X90020Y79539D01*
X90561Y79432D01*
X91102Y79539D01*
X91560Y79846D01*
X91866Y80304D01*
X91974Y80845D01*
X91866Y81385D01*
X91560Y81844D01*
X91102Y82150D01*
X90561Y82258D01*
D02*
G37*
G36*
X206693Y82122D02*
X206152Y82014D01*
X205694Y81708D01*
X205387Y81249D01*
X205280Y80709D01*
X205387Y80168D01*
X205694Y79710D01*
X206152Y79403D01*
X206693Y79296D01*
X207234Y79403D01*
X207692Y79710D01*
X207998Y80168D01*
X208106Y80709D01*
X207998Y81249D01*
X207692Y81708D01*
X207234Y82014D01*
X206693Y82122D01*
D02*
G37*
G36*
X329579Y80492D02*
X328256D01*
Y79169D01*
X328492Y79216D01*
X329116Y79633D01*
X329532Y80256D01*
X329579Y80492D01*
D02*
G37*
G36*
X327256D02*
X325933D01*
X325979Y80256D01*
X326396Y79633D01*
X327020Y79216D01*
X327256Y79169D01*
Y80492D01*
D02*
G37*
G36*
X101878Y77020D02*
Y75697D01*
X103201D01*
X103154Y75933D01*
X102738Y76556D01*
X102114Y76973D01*
X101878Y77020D01*
D02*
G37*
G36*
X100878D02*
X100642Y76973D01*
X100018Y76556D01*
X99602Y75933D01*
X99555Y75697D01*
X100878D01*
Y77020D01*
D02*
G37*
G36*
X103201Y74697D02*
X101878D01*
Y73374D01*
X102114Y73421D01*
X102738Y73837D01*
X103154Y74461D01*
X103201Y74697D01*
D02*
G37*
G36*
X100878D02*
X99555D01*
X99602Y74461D01*
X100018Y73837D01*
X100642Y73421D01*
X100878Y73374D01*
Y74697D01*
D02*
G37*
G36*
X165854Y74658D02*
Y73335D01*
X167178D01*
X167131Y73571D01*
X166714Y74194D01*
X166090Y74611D01*
X165854Y74658D01*
D02*
G37*
G36*
X78149Y80302D02*
X77236Y80182D01*
X76384Y79829D01*
X75653Y79268D01*
X75092Y78537D01*
X74740Y77685D01*
X74619Y76772D01*
X74740Y75858D01*
X75092Y75007D01*
X75653Y74275D01*
X76384Y73714D01*
X77236Y73362D01*
X78149Y73242D01*
X79063Y73362D01*
X79915Y73714D01*
X80646Y74275D01*
X81207Y75007D01*
X81559Y75858D01*
X81680Y76772D01*
X81559Y77685D01*
X81207Y78537D01*
X80646Y79268D01*
X79915Y79829D01*
X79063Y80182D01*
X78149Y80302D01*
D02*
G37*
G36*
X148138Y74471D02*
Y73148D01*
X149461D01*
X149414Y73383D01*
X148997Y74007D01*
X148374Y74424D01*
X148138Y74471D01*
D02*
G37*
G36*
X147138D02*
X146902Y74424D01*
X146278Y74007D01*
X145861Y73383D01*
X145815Y73148D01*
X147138D01*
Y74471D01*
D02*
G37*
G36*
X268686Y74984D02*
X268145Y74876D01*
X267686Y74570D01*
X267380Y74111D01*
X267273Y73571D01*
X267380Y73030D01*
X267686Y72572D01*
X268145Y72265D01*
X268686Y72158D01*
X269226Y72265D01*
X269685Y72572D01*
X269991Y73030D01*
X270098Y73571D01*
X269991Y74111D01*
X269685Y74570D01*
X269226Y74876D01*
X268686Y74984D01*
D02*
G37*
G36*
X167178Y72335D02*
X165854D01*
Y71011D01*
X166090Y71058D01*
X166714Y71475D01*
X167131Y72099D01*
X167178Y72335D01*
D02*
G37*
G36*
X162697Y78578D02*
X162156Y78471D01*
X161698Y78164D01*
X161391Y77706D01*
X161284Y77165D01*
X161391Y76625D01*
X161698Y76166D01*
X161983Y75976D01*
Y45776D01*
X161698Y45586D01*
X161391Y45127D01*
X161284Y44587D01*
X161391Y44046D01*
X161698Y43587D01*
X162156Y43281D01*
X162697Y43174D01*
X163238Y43281D01*
X163696Y43587D01*
X164002Y44046D01*
X164110Y44587D01*
X164002Y45127D01*
X163696Y45586D01*
X163411Y45776D01*
Y71449D01*
X163911Y71601D01*
X163995Y71475D01*
X164619Y71058D01*
X164854Y71011D01*
Y72835D01*
Y74658D01*
X164619Y74611D01*
X163995Y74194D01*
X163911Y74068D01*
X163411Y74220D01*
Y75976D01*
X163696Y76166D01*
X164002Y76625D01*
X164110Y77165D01*
X164002Y77706D01*
X163696Y78164D01*
X163238Y78471D01*
X162697Y78578D01*
D02*
G37*
G36*
X272601Y73834D02*
X272060Y73727D01*
X271602Y73421D01*
X271295Y72962D01*
X271188Y72421D01*
X271295Y71881D01*
X271602Y71422D01*
X272060Y71116D01*
X272601Y71008D01*
X273141Y71116D01*
X273600Y71422D01*
X273906Y71881D01*
X274014Y72421D01*
X273906Y72962D01*
X273600Y73421D01*
X273141Y73727D01*
X272601Y73834D01*
D02*
G37*
G36*
X257535Y72252D02*
Y70929D01*
X258858D01*
X258811Y71165D01*
X258394Y71789D01*
X257770Y72206D01*
X257535Y72252D01*
D02*
G37*
G36*
X256535D02*
X256299Y72206D01*
X255675Y71789D01*
X255258Y71165D01*
X255211Y70929D01*
X256535D01*
Y72252D01*
D02*
G37*
G36*
X149461Y72148D02*
X148138D01*
Y70824D01*
X148374Y70871D01*
X148997Y71288D01*
X149414Y71912D01*
X149461Y72148D01*
D02*
G37*
G36*
X147138D02*
X145815D01*
X145861Y71912D01*
X146278Y71288D01*
X146902Y70871D01*
X147138Y70824D01*
Y72148D01*
D02*
G37*
G36*
X214864Y72000D02*
Y70677D01*
X216187D01*
X216140Y70913D01*
X215723Y71537D01*
X215100Y71954D01*
X214864Y72000D01*
D02*
G37*
G36*
X223481Y71685D02*
Y70362D01*
X224804D01*
X224758Y70597D01*
X224341Y71221D01*
X223717Y71638D01*
X223481Y71685D01*
D02*
G37*
G36*
X222481D02*
X222245Y71638D01*
X221622Y71221D01*
X221205Y70597D01*
X221158Y70362D01*
X222481D01*
Y71685D01*
D02*
G37*
G36*
X210130Y71115D02*
X209894Y71068D01*
X209270Y70651D01*
X208854Y70027D01*
X208807Y69791D01*
X210130D01*
Y71115D01*
D02*
G37*
G36*
X258858Y69929D02*
X257535D01*
Y68606D01*
X257770Y68653D01*
X258394Y69069D01*
X258811Y69693D01*
X258858Y69929D01*
D02*
G37*
G36*
X256535D02*
X255211D01*
X255258Y69693D01*
X255675Y69069D01*
X256299Y68653D01*
X256535Y68606D01*
Y69929D01*
D02*
G37*
G36*
X108405Y92812D02*
X107864Y92704D01*
X107405Y92398D01*
X107099Y91939D01*
X106992Y91399D01*
X107099Y90858D01*
X107405Y90399D01*
X107691Y90209D01*
Y83279D01*
X107731Y83077D01*
X107333Y82998D01*
X106875Y82692D01*
X106569Y82234D01*
X106461Y81693D01*
X106569Y81152D01*
X106875Y80694D01*
X107333Y80388D01*
X107874Y80280D01*
X108145Y80058D01*
Y70284D01*
X108154Y70237D01*
X108149Y70229D01*
X108041Y69688D01*
X108149Y69148D01*
X108455Y68689D01*
X108913Y68383D01*
X109454Y68275D01*
X109995Y68383D01*
X110453Y68689D01*
X110760Y69148D01*
X110867Y69688D01*
X110760Y70229D01*
X110453Y70688D01*
X109995Y70994D01*
X109572Y71078D01*
Y80139D01*
X109965Y80531D01*
X110119Y80763D01*
X110174Y81036D01*
Y82350D01*
X110119Y82623D01*
X109965Y82854D01*
X109118Y83701D01*
Y90209D01*
X109404Y90399D01*
X109710Y90858D01*
X109818Y91399D01*
X109710Y91939D01*
X109404Y92398D01*
X108945Y92704D01*
X108405Y92812D01*
D02*
G37*
G36*
X224804Y69362D02*
X223481D01*
Y68038D01*
X223717Y68085D01*
X224341Y68502D01*
X224758Y69126D01*
X224804Y69362D01*
D02*
G37*
G36*
X222481D02*
X221158D01*
X221205Y69126D01*
X221622Y68502D01*
X222245Y68085D01*
X222481Y68038D01*
Y69362D01*
D02*
G37*
G36*
X102862Y67768D02*
Y66445D01*
X104185D01*
X104139Y66681D01*
X103722Y67304D01*
X103098Y67721D01*
X102862Y67768D01*
D02*
G37*
G36*
X101862D02*
X101626Y67721D01*
X101003Y67304D01*
X100586Y66681D01*
X100539Y66445D01*
X101862D01*
Y67768D01*
D02*
G37*
G36*
X183090Y82140D02*
X182549Y82033D01*
X182091Y81727D01*
X181784Y81268D01*
X181677Y80727D01*
X181784Y80187D01*
X182091Y79728D01*
X182549Y79422D01*
X183090Y79315D01*
X183457Y79387D01*
X183981Y78863D01*
Y66617D01*
X183481Y66317D01*
X183109Y66391D01*
X182736Y66317D01*
X182236Y66617D01*
Y68057D01*
X182594Y68296D01*
X182900Y68754D01*
X183008Y69295D01*
X182900Y69836D01*
X182594Y70294D01*
X182135Y70600D01*
X181595Y70708D01*
X181054Y70600D01*
X180595Y70294D01*
X180289Y69836D01*
X180182Y69295D01*
X180289Y68754D01*
X180595Y68296D01*
X180860Y68119D01*
Y27999D01*
X180860Y27999D01*
X180912Y27736D01*
X181061Y27513D01*
X182467Y26107D01*
Y23931D01*
X182467Y23931D01*
X182519Y23668D01*
X182669Y23445D01*
X183306Y22808D01*
X183233Y22441D01*
X183340Y21900D01*
X183647Y21442D01*
X184105Y21136D01*
X184646Y21028D01*
X185186Y21136D01*
X185645Y21442D01*
X185951Y21900D01*
X186059Y22441D01*
X185951Y22982D01*
X185645Y23440D01*
X185186Y23746D01*
X184646Y23854D01*
X184279Y23781D01*
X183844Y24216D01*
Y26392D01*
X183844Y26392D01*
X183791Y26655D01*
X183642Y26879D01*
X183642Y26879D01*
X182252Y28269D01*
X182271Y28770D01*
X182286Y28782D01*
X182736Y28927D01*
X186855Y24808D01*
X186776Y24409D01*
X186884Y23869D01*
X187190Y23410D01*
X187648Y23104D01*
X188189Y22997D01*
X188730Y23104D01*
X189188Y23410D01*
X189494Y23869D01*
X189602Y24409D01*
X189494Y24950D01*
X189188Y25409D01*
X188730Y25715D01*
X188189Y25822D01*
X187854Y25756D01*
X183797Y29813D01*
Y32959D01*
X183847Y32998D01*
X184297Y33143D01*
X190392Y27048D01*
X190319Y26681D01*
X190427Y26140D01*
X190733Y25682D01*
X191192Y25376D01*
X191732Y25268D01*
X192273Y25376D01*
X192731Y25682D01*
X193038Y26140D01*
X193145Y26681D01*
X193038Y27222D01*
X192731Y27680D01*
X192273Y27986D01*
X191732Y28094D01*
X191366Y28021D01*
X185358Y34029D01*
Y79148D01*
X185358Y79148D01*
X185305Y79411D01*
X185156Y79634D01*
X185156Y79634D01*
X184430Y80361D01*
X184503Y80727D01*
X184395Y81268D01*
X184089Y81727D01*
X183631Y82033D01*
X183090Y82140D01*
D02*
G37*
G36*
X86811Y72428D02*
X85897Y72308D01*
X85046Y71955D01*
X84315Y71394D01*
X83754Y70663D01*
X83401Y69811D01*
X83281Y68898D01*
X83401Y67984D01*
X83754Y67133D01*
X84315Y66401D01*
X85046Y65840D01*
X85897Y65488D01*
X86811Y65367D01*
X87725Y65488D01*
X88576Y65840D01*
X89307Y66401D01*
X89868Y67133D01*
X90221Y67984D01*
X90341Y68898D01*
X90221Y69811D01*
X89868Y70663D01*
X89307Y71394D01*
X88576Y71955D01*
X87725Y72308D01*
X86811Y72428D01*
D02*
G37*
G36*
X78149D02*
X77236Y72308D01*
X76384Y71955D01*
X75653Y71394D01*
X75092Y70663D01*
X74740Y69811D01*
X74619Y68898D01*
X74740Y67984D01*
X75092Y67133D01*
X75653Y66401D01*
X76384Y65840D01*
X77236Y65488D01*
X78149Y65367D01*
X79063Y65488D01*
X79915Y65840D01*
X80646Y66401D01*
X81207Y67133D01*
X81559Y67984D01*
X81680Y68898D01*
X81559Y69811D01*
X81207Y70663D01*
X80646Y71394D01*
X79915Y71955D01*
X79063Y72308D01*
X78149Y72428D01*
D02*
G37*
G36*
X116000Y67913D02*
X115459Y67805D01*
X115001Y67499D01*
X114695Y67041D01*
X114587Y66500D01*
X114695Y65959D01*
X115001Y65501D01*
X115459Y65195D01*
X116000Y65087D01*
X116541Y65195D01*
X116999Y65501D01*
X117305Y65959D01*
X117413Y66500D01*
X117305Y67041D01*
X116999Y67499D01*
X116541Y67805D01*
X116000Y67913D01*
D02*
G37*
G36*
X112113Y67751D02*
X111572Y67644D01*
X111114Y67338D01*
X110808Y66879D01*
X110700Y66339D01*
X110808Y65798D01*
X111114Y65339D01*
X111572Y65033D01*
X112113Y64926D01*
X112654Y65033D01*
X113112Y65339D01*
X113418Y65798D01*
X113526Y66339D01*
X113418Y66879D01*
X113112Y67338D01*
X112654Y67644D01*
X112113Y67751D01*
D02*
G37*
G36*
X263779Y70114D02*
X263239Y70006D01*
X262780Y69700D01*
X262474Y69241D01*
X262367Y68701D01*
X262474Y68160D01*
X262780Y67702D01*
X263239Y67395D01*
X263779Y67288D01*
X264198Y67371D01*
X264485Y67056D01*
X264529Y66966D01*
X264443Y66837D01*
X264335Y66296D01*
X264443Y65755D01*
X264749Y65297D01*
X265207Y64991D01*
X265748Y64883D01*
X266289Y64991D01*
X266747Y65297D01*
X267053Y65755D01*
X267161Y66296D01*
X267053Y66837D01*
X266747Y67295D01*
X266289Y67601D01*
X265748Y67709D01*
X265329Y67625D01*
X265042Y67941D01*
X264999Y68031D01*
X265085Y68160D01*
X265193Y68701D01*
X265085Y69241D01*
X264779Y69700D01*
X264320Y70006D01*
X263779Y70114D01*
D02*
G37*
G36*
X65461Y65800D02*
Y64476D01*
X66784D01*
X66737Y64712D01*
X66320Y65336D01*
X65696Y65753D01*
X65461Y65800D01*
D02*
G37*
G36*
X64461D02*
X64225Y65753D01*
X63601Y65336D01*
X63184Y64712D01*
X63137Y64476D01*
X64461D01*
Y65800D01*
D02*
G37*
G36*
X104185Y65445D02*
X102862D01*
Y64122D01*
X103098Y64169D01*
X103722Y64585D01*
X104139Y65209D01*
X104185Y65445D01*
D02*
G37*
G36*
X101862D02*
X100539D01*
X100586Y65209D01*
X101003Y64585D01*
X101626Y64169D01*
X101862Y64122D01*
Y65445D01*
D02*
G37*
G36*
X66784Y63476D02*
X65461D01*
Y62153D01*
X65696Y62200D01*
X66320Y62617D01*
X66737Y63241D01*
X66784Y63476D01*
D02*
G37*
G36*
X64461D02*
X63137D01*
X63184Y63241D01*
X63601Y62617D01*
X64225Y62200D01*
X64461Y62153D01*
Y63476D01*
D02*
G37*
G36*
X143307Y64953D02*
X142766Y64846D01*
X142308Y64539D01*
X142002Y64081D01*
X141894Y63540D01*
X142002Y62999D01*
X142308Y62541D01*
X142766Y62235D01*
X143307Y62127D01*
X143848Y62235D01*
X144306Y62541D01*
X144613Y62999D01*
X144720Y63540D01*
X144613Y64081D01*
X144306Y64539D01*
X143848Y64846D01*
X143307Y64953D01*
D02*
G37*
G36*
X125484Y62847D02*
X125248Y62800D01*
X124625Y62383D01*
X124208Y61759D01*
X124161Y61524D01*
X125484D01*
Y62847D01*
D02*
G37*
G36*
X221115Y62492D02*
X219791D01*
Y61169D01*
X220027Y61216D01*
X220651Y61633D01*
X221068Y62256D01*
X221115Y62492D01*
D02*
G37*
G36*
X215603D02*
X214280D01*
Y61169D01*
X214515Y61216D01*
X215139Y61633D01*
X215556Y62256D01*
X215603Y62492D01*
D02*
G37*
G36*
X213280D02*
X211956D01*
X212003Y62256D01*
X212420Y61633D01*
X213044Y61216D01*
X213280Y61169D01*
Y62492D01*
D02*
G37*
G36*
X172383Y62023D02*
Y60700D01*
X173706D01*
X173660Y60936D01*
X173243Y61560D01*
X172619Y61976D01*
X172383Y62023D01*
D02*
G37*
G36*
X171383D02*
X171147Y61976D01*
X170524Y61560D01*
X170107Y60936D01*
X170060Y60700D01*
X171383D01*
Y62023D01*
D02*
G37*
G36*
X274100Y61623D02*
Y60300D01*
X275423D01*
X275376Y60536D01*
X274959Y61160D01*
X274336Y61576D01*
X274100Y61623D01*
D02*
G37*
G36*
X273100D02*
X272864Y61576D01*
X272240Y61160D01*
X271823Y60536D01*
X271777Y60300D01*
X273100D01*
Y61623D01*
D02*
G37*
G36*
X166900D02*
Y60300D01*
X168223D01*
X168176Y60536D01*
X167760Y61160D01*
X167136Y61576D01*
X166900Y61623D01*
D02*
G37*
G36*
X165900D02*
X165664Y61576D01*
X165040Y61160D01*
X164624Y60536D01*
X164577Y60300D01*
X165900D01*
Y61623D01*
D02*
G37*
G36*
X154988Y60583D02*
Y59260D01*
X156312D01*
X156265Y59496D01*
X155848Y60119D01*
X155224Y60536D01*
X154988Y60583D01*
D02*
G37*
G36*
X153988D02*
X153752Y60536D01*
X153129Y60119D01*
X152712Y59496D01*
X152665Y59260D01*
X153988D01*
Y60583D01*
D02*
G37*
G36*
X173706Y59700D02*
X172383D01*
Y58377D01*
X172619Y58424D01*
X173243Y58840D01*
X173660Y59464D01*
X173706Y59700D01*
D02*
G37*
G36*
X171383D02*
X170060D01*
X170107Y59464D01*
X170524Y58840D01*
X171147Y58424D01*
X171383Y58377D01*
Y59700D01*
D02*
G37*
G36*
X275423Y59300D02*
X274100D01*
Y57977D01*
X274336Y58024D01*
X274959Y58440D01*
X275376Y59064D01*
X275423Y59300D01*
D02*
G37*
G36*
X273100D02*
X271777D01*
X271823Y59064D01*
X272240Y58440D01*
X272864Y58024D01*
X273100Y57977D01*
Y59300D01*
D02*
G37*
G36*
X168223D02*
X166900D01*
Y57977D01*
X167136Y58024D01*
X167760Y58440D01*
X168176Y59064D01*
X168223Y59300D01*
D02*
G37*
G36*
X165900D02*
X164577D01*
X164624Y59064D01*
X165040Y58440D01*
X165664Y58024D01*
X165900Y57977D01*
Y59300D01*
D02*
G37*
G36*
X86811Y64554D02*
X85897Y64433D01*
X85046Y64081D01*
X84315Y63520D01*
X83754Y62789D01*
X83401Y61937D01*
X83281Y61024D01*
X83401Y60110D01*
X83754Y59259D01*
X84315Y58527D01*
X85046Y57966D01*
X85897Y57614D01*
X86811Y57493D01*
X87725Y57614D01*
X88576Y57966D01*
X89307Y58527D01*
X89868Y59259D01*
X90221Y60110D01*
X90341Y61024D01*
X90221Y61937D01*
X89868Y62789D01*
X89307Y63520D01*
X88576Y64081D01*
X87725Y64433D01*
X86811Y64554D01*
D02*
G37*
G36*
X78149D02*
X77236Y64433D01*
X76384Y64081D01*
X75653Y63520D01*
X75092Y62789D01*
X74740Y61937D01*
X74619Y61024D01*
X74740Y60110D01*
X75092Y59259D01*
X75653Y58527D01*
X76384Y57966D01*
X77236Y57614D01*
X78149Y57493D01*
X79063Y57614D01*
X79915Y57966D01*
X80646Y58527D01*
X81207Y59259D01*
X81559Y60110D01*
X81680Y61024D01*
X81559Y61937D01*
X81207Y62789D01*
X80646Y63520D01*
X79915Y64081D01*
X79063Y64433D01*
X78149Y64554D01*
D02*
G37*
G36*
X156312Y58260D02*
X154988D01*
Y56937D01*
X155224Y56983D01*
X155848Y57400D01*
X156265Y58024D01*
X156312Y58260D01*
D02*
G37*
G36*
X153988D02*
X152665D01*
X152712Y58024D01*
X153129Y57400D01*
X153752Y56983D01*
X153988Y56937D01*
Y58260D01*
D02*
G37*
G36*
X107579Y59484D02*
X107038Y59376D01*
X106580Y59070D01*
X106273Y58612D01*
X106166Y58071D01*
X106273Y57530D01*
X106580Y57072D01*
X107038Y56766D01*
X107579Y56658D01*
X108119Y56766D01*
X108578Y57072D01*
X108884Y57530D01*
X108992Y58071D01*
X108884Y58612D01*
X108578Y59070D01*
X108119Y59376D01*
X107579Y59484D01*
D02*
G37*
G36*
X100000Y57479D02*
Y56155D01*
X101323D01*
X101276Y56391D01*
X100860Y57015D01*
X100236Y57432D01*
X100000Y57479D01*
D02*
G37*
G36*
X101323Y55155D02*
X100000D01*
Y53832D01*
X100236Y53879D01*
X100860Y54296D01*
X101276Y54919D01*
X101323Y55155D01*
D02*
G37*
G36*
X62311Y53792D02*
Y52469D01*
X63634D01*
X63587Y52704D01*
X63171Y53328D01*
X62547Y53745D01*
X62311Y53792D01*
D02*
G37*
G36*
X61311D02*
X61075Y53745D01*
X60451Y53328D01*
X60035Y52704D01*
X59988Y52469D01*
X61311D01*
Y53792D01*
D02*
G37*
G36*
X103945Y51834D02*
Y50511D01*
X105268D01*
X105221Y50747D01*
X104805Y51371D01*
X104181Y51788D01*
X103945Y51834D01*
D02*
G37*
G36*
X102945D02*
X102709Y51788D01*
X102085Y51371D01*
X101669Y50747D01*
X101622Y50511D01*
X102945D01*
Y51834D01*
D02*
G37*
G36*
X63634Y51468D02*
X62311D01*
Y50145D01*
X62547Y50192D01*
X63171Y50609D01*
X63587Y51233D01*
X63634Y51468D01*
D02*
G37*
G36*
X61311D02*
X59988D01*
X60035Y51233D01*
X60451Y50609D01*
X61075Y50192D01*
X61311Y50145D01*
Y51468D01*
D02*
G37*
G36*
X86811Y56680D02*
X85897Y56559D01*
X85046Y56207D01*
X84315Y55646D01*
X83754Y54915D01*
X83401Y54063D01*
X83281Y53150D01*
X83401Y52236D01*
X83754Y51385D01*
X84315Y50653D01*
X85046Y50092D01*
X85897Y49740D01*
X86811Y49619D01*
X87725Y49740D01*
X88576Y50092D01*
X89307Y50653D01*
X89868Y51385D01*
X90221Y52236D01*
X90341Y53150D01*
X90221Y54063D01*
X89868Y54915D01*
X89307Y55646D01*
X88576Y56207D01*
X87725Y56559D01*
X86811Y56680D01*
D02*
G37*
G36*
X78149D02*
X77236Y56559D01*
X76384Y56207D01*
X75653Y55646D01*
X75092Y54915D01*
X74740Y54063D01*
X74619Y53150D01*
X74740Y52236D01*
X75092Y51385D01*
X75653Y50653D01*
X76384Y50092D01*
X77236Y49740D01*
X78149Y49619D01*
X79063Y49740D01*
X79915Y50092D01*
X80646Y50653D01*
X81207Y51385D01*
X81559Y52236D01*
X81680Y53150D01*
X81559Y54063D01*
X81207Y54915D01*
X80646Y55646D01*
X79915Y56207D01*
X79063Y56559D01*
X78149Y56680D01*
D02*
G37*
G36*
X46100Y50475D02*
Y49152D01*
X47423D01*
X47376Y49387D01*
X46960Y50011D01*
X46336Y50428D01*
X46100Y50475D01*
D02*
G37*
G36*
X45100D02*
X44864Y50428D01*
X44240Y50011D01*
X43824Y49387D01*
X43777Y49152D01*
X45100D01*
Y50475D01*
D02*
G37*
G36*
X286327Y50248D02*
Y48925D01*
X287650D01*
X287603Y49161D01*
X287186Y49785D01*
X286563Y50202D01*
X286327Y50248D01*
D02*
G37*
G36*
X285327D02*
X285091Y50202D01*
X284467Y49785D01*
X284050Y49161D01*
X284003Y48925D01*
X285327D01*
Y50248D01*
D02*
G37*
G36*
X105268Y49511D02*
X103945D01*
Y48188D01*
X104181Y48235D01*
X104805Y48652D01*
X105221Y49275D01*
X105268Y49511D01*
D02*
G37*
G36*
X102945D02*
X101622D01*
X101669Y49275D01*
X102085Y48652D01*
X102709Y48235D01*
X102945Y48188D01*
Y49511D01*
D02*
G37*
G36*
X62311Y49067D02*
Y47744D01*
X63634D01*
X63587Y47980D01*
X63171Y48604D01*
X62547Y49020D01*
X62311Y49067D01*
D02*
G37*
G36*
X61311D02*
X61075Y49020D01*
X60451Y48604D01*
X60035Y47980D01*
X59988Y47744D01*
X61311D01*
Y49067D01*
D02*
G37*
G36*
X47423Y48152D02*
X46100D01*
Y46828D01*
X46336Y46875D01*
X46960Y47292D01*
X47376Y47916D01*
X47423Y48152D01*
D02*
G37*
G36*
X45100D02*
X43777D01*
X43824Y47916D01*
X44240Y47292D01*
X44864Y46875D01*
X45100Y46828D01*
Y48152D01*
D02*
G37*
G36*
X287650Y47925D02*
X283554D01*
X283122Y47839D01*
X282499Y47423D01*
X282082Y46799D01*
X282035Y46563D01*
X286131D01*
X286563Y46649D01*
X287186Y47066D01*
X287603Y47689D01*
X287650Y47925D01*
D02*
G37*
G36*
X142331Y47591D02*
Y46268D01*
X143654D01*
X143607Y46503D01*
X143190Y47127D01*
X142567Y47544D01*
X142331Y47591D01*
D02*
G37*
G36*
X141331D02*
X141095Y47544D01*
X140471Y47127D01*
X140054Y46503D01*
X140007Y46268D01*
X141331D01*
Y47591D01*
D02*
G37*
G36*
X63634Y46744D02*
X62311D01*
Y45421D01*
X62547Y45468D01*
X63171Y45884D01*
X63587Y46508D01*
X63634Y46744D01*
D02*
G37*
G36*
X61311D02*
X59988D01*
X60035Y46508D01*
X60451Y45884D01*
X61075Y45468D01*
X61311Y45421D01*
Y46744D01*
D02*
G37*
G36*
X285682Y45563D02*
X284358D01*
Y44240D01*
X284594Y44287D01*
X285218Y44703D01*
X285635Y45327D01*
X285682Y45563D01*
D02*
G37*
G36*
X283358D02*
X282035D01*
X282082Y45327D01*
X282499Y44703D01*
X283122Y44287D01*
X283358Y44240D01*
Y45563D01*
D02*
G37*
G36*
X143654Y45268D02*
X142331D01*
Y43944D01*
X142567Y43991D01*
X143190Y44408D01*
X143607Y45032D01*
X143654Y45268D01*
D02*
G37*
G36*
X141331D02*
X140007D01*
X140054Y45032D01*
X140471Y44408D01*
X141095Y43991D01*
X141331Y43944D01*
Y45268D01*
D02*
G37*
G36*
X102075Y43949D02*
Y42626D01*
X103398D01*
X103351Y42862D01*
X102934Y43486D01*
X102311Y43902D01*
X102075Y43949D01*
D02*
G37*
G36*
X101075D02*
X100839Y43902D01*
X100215Y43486D01*
X99798Y42862D01*
X99752Y42626D01*
X101075D01*
Y43949D01*
D02*
G37*
G36*
X86811Y48806D02*
X85897Y48686D01*
X85046Y48333D01*
X84315Y47772D01*
X83754Y47041D01*
X83401Y46189D01*
X83281Y45276D01*
X83401Y44362D01*
X83754Y43510D01*
X84315Y42779D01*
X85046Y42218D01*
X85897Y41866D01*
X86811Y41745D01*
X87725Y41866D01*
X88576Y42218D01*
X89307Y42779D01*
X89868Y43510D01*
X90221Y44362D01*
X90341Y45276D01*
X90221Y46189D01*
X89868Y47041D01*
X89307Y47772D01*
X88576Y48333D01*
X87725Y48686D01*
X86811Y48806D01*
D02*
G37*
G36*
X78149D02*
X77236Y48686D01*
X76384Y48333D01*
X75653Y47772D01*
X75092Y47041D01*
X74740Y46189D01*
X74619Y45276D01*
X74740Y44362D01*
X75092Y43510D01*
X75653Y42779D01*
X76384Y42218D01*
X77236Y41866D01*
X78149Y41745D01*
X79063Y41866D01*
X79915Y42218D01*
X80646Y42779D01*
X81207Y43510D01*
X81559Y44362D01*
X81680Y45276D01*
X81559Y46189D01*
X81207Y47041D01*
X80646Y47772D01*
X79915Y48333D01*
X79063Y48686D01*
X78149Y48806D01*
D02*
G37*
G36*
X166339Y44523D02*
X165798Y44416D01*
X165340Y44109D01*
X165033Y43651D01*
X164926Y43110D01*
X165033Y42570D01*
X165340Y42111D01*
X165798Y41805D01*
X166339Y41697D01*
X166879Y41805D01*
X167338Y42111D01*
X167644Y42570D01*
X167752Y43110D01*
X167644Y43651D01*
X167338Y44109D01*
X166879Y44416D01*
X166339Y44523D01*
D02*
G37*
G36*
X263295Y42250D02*
Y40927D01*
X264619D01*
X264572Y41163D01*
X264155Y41787D01*
X263531Y42203D01*
X263295Y42250D01*
D02*
G37*
G36*
X262295D02*
X262059Y42203D01*
X261436Y41787D01*
X261019Y41163D01*
X260972Y40927D01*
X262295D01*
Y42250D01*
D02*
G37*
G36*
X103398Y41626D02*
X102075D01*
Y40303D01*
X102311Y40350D01*
X102934Y40766D01*
X103351Y41390D01*
X103398Y41626D01*
D02*
G37*
G36*
X101075D02*
X99752D01*
X99798Y41390D01*
X100215Y40766D01*
X100839Y40350D01*
X101075Y40303D01*
Y41626D01*
D02*
G37*
G36*
X142172Y41587D02*
Y40264D01*
X143496D01*
X143449Y40500D01*
X143032Y41123D01*
X142408Y41540D01*
X142172Y41587D01*
D02*
G37*
G36*
X141172D02*
X140936Y41540D01*
X140313Y41123D01*
X139896Y40500D01*
X139849Y40264D01*
X141172D01*
Y41587D01*
D02*
G37*
G36*
X120972D02*
Y40264D01*
X122296D01*
X122249Y40500D01*
X121832Y41123D01*
X121208Y41540D01*
X120972Y41587D01*
D02*
G37*
G36*
X119972D02*
X119737Y41540D01*
X119113Y41123D01*
X118696Y40500D01*
X118649Y40264D01*
X119972D01*
Y41587D01*
D02*
G37*
G36*
X264619Y39927D02*
X263295D01*
Y38604D01*
X263531Y38651D01*
X264155Y39067D01*
X264572Y39691D01*
X264619Y39927D01*
D02*
G37*
G36*
X262295D02*
X260972D01*
X261019Y39691D01*
X261436Y39067D01*
X262059Y38651D01*
X262295Y38604D01*
Y39927D01*
D02*
G37*
G36*
X143496Y39264D02*
X142172D01*
Y37940D01*
X142408Y37987D01*
X143032Y38404D01*
X143449Y39028D01*
X143496Y39264D01*
D02*
G37*
G36*
X141172D02*
X139849D01*
X139896Y39028D01*
X140313Y38404D01*
X140936Y37987D01*
X141172Y37940D01*
Y39264D01*
D02*
G37*
G36*
X122296D02*
X120972D01*
Y37940D01*
X121208Y37987D01*
X121832Y38404D01*
X122249Y39028D01*
X122296Y39264D01*
D02*
G37*
G36*
X119972D02*
X118649D01*
X118696Y39028D01*
X119113Y38404D01*
X119737Y37987D01*
X119972Y37940D01*
Y39264D01*
D02*
G37*
G36*
X319201Y39225D02*
Y37902D01*
X320524D01*
X320477Y38137D01*
X320060Y38761D01*
X319437Y39178D01*
X319201Y39225D01*
D02*
G37*
G36*
X318201D02*
X317965Y39178D01*
X317341Y38761D01*
X316924Y38137D01*
X316878Y37902D01*
X318201D01*
Y39225D01*
D02*
G37*
G36*
X50110Y37256D02*
Y35933D01*
X51433D01*
X51386Y36169D01*
X50969Y36793D01*
X50345Y37209D01*
X50110Y37256D01*
D02*
G37*
G36*
X49110D02*
X48874Y37209D01*
X48250Y36793D01*
X47833Y36169D01*
X47786Y35933D01*
X49110D01*
Y37256D01*
D02*
G37*
G36*
X320524Y36902D02*
X319201D01*
Y35578D01*
X319437Y35625D01*
X320060Y36042D01*
X320477Y36666D01*
X320524Y36902D01*
D02*
G37*
G36*
X318201D02*
X316878D01*
X316924Y36666D01*
X317341Y36042D01*
X317965Y35625D01*
X318201Y35578D01*
Y36902D01*
D02*
G37*
G36*
X128442Y35878D02*
Y34555D01*
X129765D01*
X129718Y34791D01*
X129301Y35415D01*
X128677Y35831D01*
X128442Y35878D01*
D02*
G37*
G36*
X127442D02*
X127206Y35831D01*
X126582Y35415D01*
X126165Y34791D01*
X126118Y34555D01*
X127442D01*
Y35878D01*
D02*
G37*
G36*
X51433Y34933D02*
X50110D01*
Y33610D01*
X50345Y33657D01*
X50969Y34073D01*
X51386Y34697D01*
X51433Y34933D01*
D02*
G37*
G36*
X49110D02*
X47786D01*
X47833Y34697D01*
X48250Y34073D01*
X48874Y33657D01*
X49110Y33610D01*
Y34933D01*
D02*
G37*
G36*
X115461Y33713D02*
Y32390D01*
X116784D01*
X116737Y32626D01*
X116320Y33249D01*
X115696Y33666D01*
X115461Y33713D01*
D02*
G37*
G36*
X114461D02*
X114225Y33666D01*
X113601Y33249D01*
X113184Y32626D01*
X113137Y32390D01*
X114461D01*
Y33713D01*
D02*
G37*
G36*
X129765Y33555D02*
X128442D01*
Y32232D01*
X128677Y32279D01*
X129301Y32695D01*
X129718Y33319D01*
X129765Y33555D01*
D02*
G37*
G36*
X127442D02*
X126118D01*
X126165Y33319D01*
X126582Y32695D01*
X127206Y32279D01*
X127442Y32232D01*
Y33555D01*
D02*
G37*
G36*
X267154Y33223D02*
Y31900D01*
X268477D01*
X268430Y32136D01*
X268013Y32760D01*
X267389Y33176D01*
X267154Y33223D01*
D02*
G37*
G36*
X266154D02*
X265918Y33176D01*
X265294Y32760D01*
X264877Y32136D01*
X264830Y31900D01*
X266154D01*
Y33223D01*
D02*
G37*
G36*
X66800D02*
Y31900D01*
X68123D01*
X68076Y32136D01*
X67660Y32760D01*
X67036Y33176D01*
X66800Y33223D01*
D02*
G37*
G36*
X65800D02*
X65564Y33176D01*
X64940Y32760D01*
X64524Y32136D01*
X64477Y31900D01*
X65800D01*
Y33223D01*
D02*
G37*
G36*
X116784Y31390D02*
X115461D01*
Y30066D01*
X115696Y30113D01*
X116320Y30530D01*
X116737Y31154D01*
X116784Y31390D01*
D02*
G37*
G36*
X114461D02*
X113137D01*
X113184Y31154D01*
X113601Y30530D01*
X114225Y30113D01*
X114461Y30066D01*
Y31390D01*
D02*
G37*
G36*
X268477Y30900D02*
X267154D01*
Y29577D01*
X267389Y29624D01*
X268013Y30040D01*
X268430Y30664D01*
X268477Y30900D01*
D02*
G37*
G36*
X266154D02*
X264830D01*
X264877Y30664D01*
X265294Y30040D01*
X265918Y29624D01*
X266154Y29577D01*
Y30900D01*
D02*
G37*
G36*
X68123D02*
X66800D01*
Y29577D01*
X67036Y29624D01*
X67660Y30040D01*
X68076Y30664D01*
X68123Y30900D01*
D02*
G37*
G36*
X65800D02*
X64477D01*
X64524Y30664D01*
X64940Y30040D01*
X65564Y29624D01*
X65800Y29577D01*
Y30900D01*
D02*
G37*
G36*
X81693Y38828D02*
X80458Y38666D01*
X79306Y38189D01*
X78318Y37430D01*
X77559Y36442D01*
X77082Y35291D01*
X76920Y34055D01*
X77082Y32820D01*
X77559Y31669D01*
X78318Y30680D01*
X79306Y29921D01*
X80458Y29445D01*
X81693Y29282D01*
X82928Y29445D01*
X84079Y29921D01*
X85068Y30680D01*
X85826Y31669D01*
X86303Y32820D01*
X86466Y34055D01*
X86303Y35291D01*
X85826Y36442D01*
X85068Y37430D01*
X84079Y38189D01*
X82928Y38666D01*
X81693Y38828D01*
D02*
G37*
G36*
X102075Y28201D02*
Y26878D01*
X103398D01*
X103351Y27114D01*
X102934Y27738D01*
X102311Y28154D01*
X102075Y28201D01*
D02*
G37*
G36*
X101075D02*
X100839Y28154D01*
X100215Y27738D01*
X99798Y27114D01*
X99752Y26878D01*
X101075D01*
Y28201D01*
D02*
G37*
G36*
X166839Y27923D02*
Y26600D01*
X168162D01*
X168115Y26836D01*
X167698Y27460D01*
X167074Y27876D01*
X166839Y27923D01*
D02*
G37*
G36*
X165839D02*
X165603Y27876D01*
X164979Y27460D01*
X164562Y26836D01*
X164515Y26600D01*
X165839D01*
Y27923D01*
D02*
G37*
G36*
X138295Y27423D02*
Y26100D01*
X139619D01*
X139572Y26336D01*
X139155Y26960D01*
X138531Y27376D01*
X138295Y27423D01*
D02*
G37*
G36*
X137295D02*
X137059Y27376D01*
X136436Y26960D01*
X136019Y26336D01*
X135972Y26100D01*
X137295D01*
Y27423D01*
D02*
G37*
G36*
X103398Y25878D02*
X102075D01*
Y24555D01*
X102311Y24601D01*
X102934Y25018D01*
X103351Y25642D01*
X103398Y25878D01*
D02*
G37*
G36*
X101075D02*
X99752D01*
X99798Y25642D01*
X100215Y25018D01*
X100839Y24601D01*
X101075Y24555D01*
Y25878D01*
D02*
G37*
G36*
X168162Y25600D02*
X166839D01*
Y24277D01*
X167074Y24324D01*
X167698Y24740D01*
X168115Y25364D01*
X168162Y25600D01*
D02*
G37*
G36*
X165839D02*
X164515D01*
X164562Y25364D01*
X164979Y24740D01*
X165603Y24324D01*
X165839Y24277D01*
Y25600D01*
D02*
G37*
G36*
X139619Y25100D02*
X138295D01*
Y23777D01*
X138531Y23824D01*
X139155Y24240D01*
X139572Y24864D01*
X139619Y25100D01*
D02*
G37*
G36*
X137295D02*
X135972D01*
X136019Y24864D01*
X136436Y24240D01*
X137059Y23824D01*
X137295Y23777D01*
Y25100D01*
D02*
G37*
G36*
X121366Y22689D02*
Y21366D01*
X122689D01*
X122643Y21602D01*
X122226Y22226D01*
X121602Y22643D01*
X121366Y22689D01*
D02*
G37*
G36*
X120366D02*
X120130Y22643D01*
X119507Y22226D01*
X119090Y21602D01*
X119043Y21366D01*
X120366D01*
Y22689D01*
D02*
G37*
G36*
X122689Y20366D02*
X121366D01*
Y19043D01*
X121602Y19090D01*
X122226Y19507D01*
X122643Y20130D01*
X122689Y20366D01*
D02*
G37*
G36*
X120366D02*
X119043D01*
X119090Y20130D01*
X119507Y19507D01*
X120130Y19090D01*
X120366Y19043D01*
Y20366D01*
D02*
G37*
G36*
X174705Y70000D02*
X174164Y69893D01*
X173706Y69587D01*
X173399Y69128D01*
X173292Y68588D01*
X173399Y68047D01*
X173706Y67589D01*
X174164Y67282D01*
X174705Y67175D01*
X175041Y67242D01*
X176402Y65881D01*
Y56514D01*
X176200Y56379D01*
X175894Y55920D01*
X175786Y55379D01*
X175894Y54839D01*
X176200Y54380D01*
X176658Y54074D01*
X177199Y53967D01*
X177651Y54056D01*
X178151Y53793D01*
Y27669D01*
X178151Y27669D01*
X178203Y27405D01*
X178352Y27182D01*
X179233Y26302D01*
Y21071D01*
X179233Y21071D01*
X179285Y20808D01*
X179435Y20584D01*
X179682Y20337D01*
X179682Y20337D01*
X179905Y20188D01*
X180060Y20157D01*
X180092Y20125D01*
X180083Y20079D01*
X180191Y19538D01*
X180497Y19080D01*
X180955Y18773D01*
X181496Y18666D01*
X182037Y18773D01*
X182495Y19080D01*
X182801Y19538D01*
X182909Y20079D01*
X182801Y20619D01*
X182495Y21078D01*
X182037Y21384D01*
X181496Y21492D01*
X181088Y21410D01*
X180712Y21645D01*
X180610Y21754D01*
Y26586D01*
X180610Y26587D01*
X180557Y26850D01*
X180408Y27073D01*
X180408Y27073D01*
X179527Y27954D01*
Y64229D01*
X179838Y64437D01*
X180145Y64895D01*
X180252Y65436D01*
X180145Y65976D01*
X179838Y66435D01*
X179380Y66741D01*
X178839Y66849D01*
X178298Y66741D01*
X178186Y66666D01*
X177810Y66468D01*
X177621Y66681D01*
X176051Y68251D01*
X176118Y68588D01*
X176010Y69128D01*
X175704Y69587D01*
X175245Y69893D01*
X174705Y70000D01*
D02*
G37*
G36*
X344488Y26517D02*
X343155Y26386D01*
X341874Y25997D01*
X340692Y25366D01*
X339657Y24516D01*
X338808Y23481D01*
X338176Y22300D01*
X337787Y21018D01*
X337656Y19685D01*
X337787Y18352D01*
X338176Y17071D01*
X338808Y15889D01*
X339657Y14854D01*
X340692Y14004D01*
X341874Y13373D01*
X343155Y12984D01*
X344488Y12853D01*
X345821Y12984D01*
X347103Y13373D01*
X348284Y14004D01*
X349319Y14854D01*
X350169Y15889D01*
X350800Y17071D01*
X351189Y18352D01*
X351320Y19685D01*
X351189Y21018D01*
X350800Y22300D01*
X350169Y23481D01*
X349319Y24516D01*
X348284Y25366D01*
X347103Y25997D01*
X345821Y26386D01*
X344488Y26517D01*
D02*
G37*
G36*
X49213D02*
X47880Y26386D01*
X46598Y25997D01*
X45417Y25366D01*
X44382Y24516D01*
X43532Y23481D01*
X42900Y22300D01*
X42512Y21018D01*
X42380Y19685D01*
X42512Y18352D01*
X42900Y17071D01*
X43532Y15889D01*
X44382Y14854D01*
X45417Y14004D01*
X46598Y13373D01*
X47880Y12984D01*
X49213Y12853D01*
X50546Y12984D01*
X51827Y13373D01*
X53008Y14004D01*
X54044Y14854D01*
X54893Y15889D01*
X55525Y17071D01*
X55913Y18352D01*
X56045Y19685D01*
X55913Y21018D01*
X55525Y22300D01*
X54893Y23481D01*
X54044Y24516D01*
X53008Y25366D01*
X51827Y25997D01*
X50546Y26386D01*
X49213Y26517D01*
D02*
G37*
%LPD*%
G36*
X231595Y196172D02*
Y184646D01*
X231595Y184646D01*
X231648Y184382D01*
X231797Y184159D01*
X236144Y179812D01*
X235897Y179351D01*
X235826Y179365D01*
X235286Y179258D01*
X234827Y178952D01*
X234521Y178493D01*
X234444Y178105D01*
X234022Y177917D01*
X233934Y177908D01*
X229466Y182376D01*
X229242Y182526D01*
X228979Y182578D01*
X228973Y182663D01*
X228972Y182677D01*
X228865Y183218D01*
X228558Y183676D01*
X228100Y183983D01*
X227559Y184090D01*
X227018Y183983D01*
X226619Y183716D01*
X226394Y183795D01*
X226159Y183964D01*
X226216Y184252D01*
X226109Y184793D01*
X225802Y185251D01*
X225344Y185557D01*
X224803Y185665D01*
X224262Y185557D01*
X223804Y185251D01*
X223498Y184793D01*
X223390Y184252D01*
X223498Y183711D01*
X223804Y183253D01*
X224089Y183063D01*
Y182677D01*
X224143Y182404D01*
X224298Y182172D01*
X225270Y181200D01*
Y177822D01*
X224770Y177555D01*
X224556Y177697D01*
X224016Y177805D01*
X223475Y177697D01*
X223017Y177391D01*
X222991Y177352D01*
X222898D01*
X222814Y177408D01*
X222551Y177460D01*
X222551Y177460D01*
X222047D01*
X221784Y177408D01*
X221561Y177258D01*
X221561Y177258D01*
X221180Y176877D01*
X220718Y177069D01*
Y191388D01*
X220718Y191388D01*
X220666Y191651D01*
X220516Y191874D01*
X220516Y191874D01*
X213010Y199381D01*
X213226Y199871D01*
X213239Y199876D01*
X213779Y199768D01*
X214320Y199876D01*
X214779Y200182D01*
X214986Y200493D01*
X227274D01*
X231595Y196172D01*
D02*
G37*
G36*
X259942Y199451D02*
Y163011D01*
X259442Y162859D01*
X259234Y163171D01*
X258610Y163587D01*
X258374Y163634D01*
Y161811D01*
Y159988D01*
X258610Y160035D01*
X259234Y160451D01*
X259442Y160763D01*
X259942Y160611D01*
Y130856D01*
X250760Y121674D01*
X250394Y121747D01*
X249853Y121640D01*
X249395Y121334D01*
X249220Y121072D01*
X248720Y121223D01*
Y129738D01*
X256392Y137410D01*
X256392Y137410D01*
X256541Y137634D01*
X256594Y137897D01*
X256594Y137897D01*
Y159868D01*
X257035Y160104D01*
X257138Y160035D01*
X257374Y159988D01*
Y161811D01*
Y163634D01*
X257138Y163587D01*
X257035Y163518D01*
X256594Y163754D01*
Y197693D01*
X257901Y199000D01*
X258268Y198927D01*
X258808Y199035D01*
X259267Y199341D01*
X259442Y199603D01*
X259942Y199451D01*
D02*
G37*
G36*
X241424Y196579D02*
Y181954D01*
X240924Y181654D01*
X240551Y181728D01*
X240010Y181620D01*
X239552Y181314D01*
X239246Y180856D01*
X239138Y180315D01*
X239246Y179774D01*
X239552Y179316D01*
X240010Y179009D01*
X240551Y178902D01*
X240924Y178976D01*
X241424Y178676D01*
Y177162D01*
X241374Y177124D01*
X240924Y176979D01*
X232972Y184931D01*
Y196457D01*
X232919Y196720D01*
X232770Y196943D01*
X232770Y196943D01*
X228046Y201668D01*
X227822Y201817D01*
X227559Y201869D01*
X227559Y201869D01*
X214986D01*
X214779Y202180D01*
X214320Y202486D01*
X213779Y202594D01*
X213601Y203068D01*
X213618Y203150D01*
X213545Y203516D01*
X214065Y204036D01*
X233967D01*
X241424Y196579D01*
D02*
G37*
G36*
X219341Y191103D02*
Y162485D01*
X218841Y162261D01*
X218388Y162564D01*
X218152Y162611D01*
Y160788D01*
Y158965D01*
X218388Y159011D01*
X218841Y159315D01*
X219341Y159090D01*
Y143576D01*
X218841Y143424D01*
X218800Y143486D01*
X218177Y143902D01*
X217941Y143949D01*
Y142126D01*
Y140303D01*
X218177Y140350D01*
X218800Y140766D01*
X218841Y140828D01*
X219341Y140676D01*
Y127212D01*
X218244Y126114D01*
X217744Y126321D01*
Y133031D01*
X217928Y133154D01*
X218234Y133613D01*
X218342Y134153D01*
X218234Y134694D01*
X217928Y135153D01*
X217470Y135459D01*
X216929Y135566D01*
X216388Y135459D01*
X215930Y135153D01*
X215624Y134694D01*
X215516Y134153D01*
X215624Y133613D01*
X215930Y133154D01*
X216317Y132896D01*
Y130973D01*
X215863Y130879D01*
X215817Y130889D01*
X215673Y131104D01*
X214535Y132242D01*
X214602Y132579D01*
X214494Y133119D01*
X214188Y133578D01*
X213730Y133884D01*
X213189Y133992D01*
X212648Y133884D01*
X212631Y133873D01*
X212131Y134140D01*
Y135728D01*
X215169Y138766D01*
X215324Y138998D01*
X215378Y139271D01*
X215357Y139378D01*
Y139544D01*
X215380Y139559D01*
X215686Y140017D01*
X215764Y140410D01*
X216165Y140616D01*
X216280Y140634D01*
X216705Y140350D01*
X216941Y140303D01*
Y142126D01*
Y143949D01*
X216705Y143902D01*
X216081Y143486D01*
X215665Y142862D01*
X215518Y142126D01*
X215532Y142057D01*
X215082Y141756D01*
X214921Y141863D01*
X214381Y141971D01*
X213840Y141863D01*
X213381Y141557D01*
X213075Y141099D01*
X212968Y140558D01*
X213075Y140017D01*
X213381Y139559D01*
X213391Y139553D01*
X213440Y139055D01*
X210992Y136607D01*
X210664Y136619D01*
X210655Y136620D01*
X210427Y136702D01*
X210329Y136849D01*
X210329Y136849D01*
X209641Y137537D01*
X209648Y137551D01*
Y139869D01*
Y141817D01*
X209275Y142110D01*
Y143043D01*
X216235Y150002D01*
X216235Y150002D01*
X216384Y150226D01*
X216436Y150489D01*
Y158753D01*
X216847Y159016D01*
X216936Y159007D01*
X217152Y158965D01*
Y160788D01*
Y162611D01*
X216936Y162568D01*
X216847Y162559D01*
X216436Y162822D01*
Y178707D01*
X216943Y178807D01*
X217401Y179113D01*
X217707Y179572D01*
X217815Y180113D01*
X217707Y180653D01*
X217401Y181112D01*
X216943Y181418D01*
X216402Y181526D01*
X215861Y181418D01*
X215403Y181112D01*
X215096Y180653D01*
X214989Y180113D01*
X215060Y179756D01*
Y150774D01*
X208101Y143815D01*
X207951Y143591D01*
X207899Y143328D01*
X207899Y143328D01*
Y137618D01*
X207899Y137618D01*
X207951Y137354D01*
X208101Y137131D01*
X209154Y136077D01*
Y126902D01*
X206122Y123869D01*
X205973Y123646D01*
X205920Y123383D01*
X205920Y123383D01*
Y105390D01*
X205861Y105350D01*
X205361Y105618D01*
Y120058D01*
X205306Y120331D01*
X205152Y120563D01*
X204496Y121219D01*
X204563Y121555D01*
X204455Y122096D01*
X204149Y122554D01*
X203690Y122861D01*
X203150Y122968D01*
X202609Y122861D01*
X202151Y122554D01*
X201844Y122096D01*
X201737Y121555D01*
X201746Y121510D01*
X201328Y121187D01*
X200787Y121295D01*
X200247Y121187D01*
X199788Y120881D01*
X199744Y120815D01*
X199737Y120812D01*
X199166Y120850D01*
X198999Y121099D01*
X198541Y121405D01*
X198522Y121409D01*
X198358Y121952D01*
X201246Y124839D01*
X201401Y125071D01*
X201455Y125344D01*
Y129484D01*
X202263Y130292D01*
X202418Y130524D01*
X202472Y130797D01*
Y152364D01*
X202661Y152502D01*
X202960Y152353D01*
X203133Y152229D01*
X203232Y151731D01*
X203538Y151272D01*
X203824Y151081D01*
Y127755D01*
X203538Y127564D01*
X203232Y127105D01*
X203125Y126565D01*
X203232Y126024D01*
X203538Y125566D01*
X203997Y125259D01*
X204538Y125152D01*
X205078Y125259D01*
X205537Y125566D01*
X205843Y126024D01*
X205950Y126565D01*
X205843Y127105D01*
X205537Y127564D01*
X205251Y127755D01*
Y130860D01*
X205751Y130909D01*
X205781Y130759D01*
X206087Y130300D01*
X206546Y129994D01*
X207087Y129886D01*
X207627Y129994D01*
X208086Y130300D01*
X208392Y130759D01*
X208500Y131299D01*
X208392Y131840D01*
X208086Y132298D01*
X207627Y132605D01*
X207087Y132712D01*
X206546Y132605D01*
X206087Y132298D01*
X205781Y131840D01*
X205751Y131689D01*
X205251Y131739D01*
Y151081D01*
X205537Y151272D01*
X205843Y151731D01*
X205950Y152271D01*
X205843Y152812D01*
X205537Y153270D01*
X205078Y153577D01*
X205049Y153583D01*
X204652Y153888D01*
X204699Y154123D01*
X204759Y154429D01*
X204652Y154970D01*
X204346Y155428D01*
X204306Y155455D01*
X204200Y156076D01*
X204379Y156306D01*
X207831D01*
X208104Y156360D01*
X208335Y156515D01*
X209506Y157685D01*
X209842Y157618D01*
X210383Y157726D01*
X210623Y157886D01*
X211123Y157622D01*
Y152388D01*
X210812Y152180D01*
X210506Y151722D01*
X210398Y151181D01*
X210506Y150640D01*
X210812Y150182D01*
X211270Y149876D01*
X211811Y149768D01*
X212352Y149876D01*
X212810Y150182D01*
X213116Y150640D01*
X213224Y151181D01*
X213116Y151722D01*
X212810Y152180D01*
X212499Y152388D01*
Y195980D01*
X212499Y195980D01*
X212447Y196243D01*
X212298Y196467D01*
X212298Y196467D01*
X211970Y196794D01*
X212043Y197161D01*
X211936Y197702D01*
X211736Y198001D01*
X212124Y198320D01*
X219341Y191103D01*
D02*
G37*
G36*
X186410Y163802D02*
X186772Y163647D01*
Y161088D01*
X186272Y160788D01*
X185900Y160862D01*
X185359Y160754D01*
X184901Y160448D01*
X184595Y159990D01*
X184487Y159449D01*
X184517Y159299D01*
X184485Y159267D01*
X184264Y158937D01*
X184187Y158546D01*
Y138394D01*
X184264Y138004D01*
X184485Y137674D01*
X185421Y136738D01*
X185398Y136625D01*
X185506Y136084D01*
X185812Y135626D01*
X186270Y135320D01*
X186738Y135227D01*
X186688Y134973D01*
Y132863D01*
X182915Y129091D01*
X182579Y129158D01*
X182038Y129050D01*
X181616Y128768D01*
X181430Y128811D01*
X181116Y128950D01*
Y129500D01*
X181135Y129518D01*
X181289Y129750D01*
X181344Y130023D01*
Y135335D01*
X181841Y135604D01*
X182382Y135496D01*
X182923Y135604D01*
X183381Y135910D01*
X183687Y136369D01*
X183795Y136909D01*
X183687Y137450D01*
X183381Y137909D01*
X182923Y138215D01*
X182382Y138322D01*
X182259Y138298D01*
X181816Y138720D01*
X181827Y138791D01*
X182135Y138852D01*
X182594Y139158D01*
X182900Y139617D01*
X183008Y140157D01*
X182900Y140698D01*
X182594Y141157D01*
X182135Y141463D01*
X181595Y141570D01*
X181054Y141463D01*
X180595Y141157D01*
X180289Y140698D01*
X180182Y140157D01*
X180277Y139677D01*
X180125Y139525D01*
X179971Y139294D01*
X179916Y139021D01*
Y138851D01*
X179416Y138550D01*
X179044Y138624D01*
X178503Y138517D01*
X178045Y138210D01*
X177993Y138133D01*
X176617D01*
X176337Y138320D01*
X175796Y138427D01*
X175255Y138320D01*
X174797Y138014D01*
X174550Y137645D01*
X173114D01*
X172686Y137931D01*
X172146Y138038D01*
X171773Y137964D01*
X171273Y138264D01*
Y141099D01*
X175149Y144975D01*
X175149Y144975D01*
X175298Y145198D01*
X175351Y145461D01*
X175351Y145461D01*
Y148305D01*
X175802Y148607D01*
X176109Y149066D01*
X176216Y149606D01*
X176109Y150147D01*
X175802Y150605D01*
X175344Y150912D01*
X174803Y151019D01*
X174262Y150912D01*
X173804Y150605D01*
X173498Y150147D01*
X173390Y149606D01*
X173498Y149066D01*
X173804Y148607D01*
X173974Y148493D01*
Y145746D01*
X173234Y145006D01*
X172772Y145197D01*
Y153104D01*
X181159Y161491D01*
X183652D01*
X183926Y161545D01*
X184157Y161700D01*
X186272Y163815D01*
X186410Y163802D01*
D02*
G37*
G36*
X211089Y166052D02*
X211123Y166026D01*
Y160441D01*
X210623Y160177D01*
X210383Y160337D01*
X209842Y160444D01*
X209302Y160337D01*
X208843Y160030D01*
X208537Y159572D01*
X208430Y159031D01*
X208496Y158695D01*
X207535Y157733D01*
X203694D01*
X203421Y157679D01*
X203189Y157524D01*
X200354Y154688D01*
X200317Y154633D01*
X199817Y154785D01*
Y156483D01*
X200362Y157028D01*
X200699Y156961D01*
X201239Y157069D01*
X201698Y157375D01*
X202004Y157833D01*
X202112Y158374D01*
X202004Y158915D01*
X201735Y159318D01*
X201798Y159563D01*
X201932Y159818D01*
X203937D01*
X204210Y159872D01*
X204442Y160027D01*
X205307Y160892D01*
X205868Y160746D01*
X206087Y160418D01*
X206546Y160112D01*
X207087Y160004D01*
X207627Y160112D01*
X208086Y160418D01*
X208392Y160877D01*
X208500Y161417D01*
X208392Y161958D01*
X208086Y162416D01*
X207758Y162636D01*
X207612Y163197D01*
X210623Y166208D01*
X211089Y166052D01*
D02*
G37*
G36*
X194267Y153990D02*
Y151476D01*
X194321Y151203D01*
X194476Y150972D01*
X196545Y148903D01*
Y140420D01*
X196131Y140061D01*
X195965Y140094D01*
X195592Y140020D01*
X195092Y140321D01*
Y141075D01*
X195038Y141349D01*
X194883Y141580D01*
X192432Y144032D01*
Y153770D01*
X192932Y154142D01*
X193150Y154099D01*
X193691Y154206D01*
X193767Y154257D01*
X194267Y153990D01*
D02*
G37*
G36*
X227454Y181285D02*
X227501Y181254D01*
X227764Y181202D01*
X228694D01*
X231348Y178548D01*
X231206Y177982D01*
X230891Y177771D01*
X230584Y177312D01*
X230477Y176772D01*
X230584Y176231D01*
X230891Y175773D01*
X230978Y175714D01*
Y148696D01*
X230891Y148637D01*
X230584Y148179D01*
X230557Y148039D01*
X230435Y147958D01*
X229936Y148224D01*
Y152723D01*
X229881Y152996D01*
X229726Y153228D01*
X229651Y153304D01*
Y154322D01*
X229936Y154513D01*
X230242Y154971D01*
X230350Y155512D01*
X230242Y156052D01*
X229936Y156511D01*
X229478Y156817D01*
X228937Y156925D01*
X228396Y156817D01*
X227938Y156511D01*
X227632Y156052D01*
X227524Y155512D01*
X227632Y154971D01*
X227938Y154513D01*
X228223Y154322D01*
Y153008D01*
X228278Y152735D01*
X228432Y152503D01*
X228508Y152428D01*
Y144947D01*
X228008Y144646D01*
X227636Y144720D01*
X227199Y144633D01*
X226699Y144903D01*
Y180984D01*
X226775Y181076D01*
X227199Y181336D01*
X227454Y181285D01*
D02*
G37*
G36*
X178503Y135906D02*
X179044Y135799D01*
X179416Y135872D01*
X179916Y135572D01*
Y130319D01*
X179898Y130300D01*
X179743Y130069D01*
X179689Y129795D01*
Y122910D01*
X179189Y122703D01*
X178804Y123089D01*
X178870Y123425D01*
X178763Y123966D01*
X178457Y124424D01*
X177998Y124731D01*
X177457Y124838D01*
X176917Y124731D01*
X176458Y124424D01*
X176152Y123966D01*
X175655Y124028D01*
X175639Y124039D01*
X175098Y124146D01*
X174558Y124039D01*
X174099Y123732D01*
X173793Y123274D01*
X173686Y122733D01*
X173793Y122192D01*
X174099Y121734D01*
X174558Y121428D01*
X175098Y121320D01*
X175435Y121387D01*
X176353Y120469D01*
Y105119D01*
X175041Y103807D01*
X174705Y103874D01*
X174164Y103766D01*
X173706Y103460D01*
X173495Y103144D01*
X172929Y103003D01*
X171948Y103983D01*
Y112466D01*
X171948Y112466D01*
X171896Y112729D01*
X171747Y112952D01*
X171747Y112952D01*
X171273Y113426D01*
Y134986D01*
X171773Y135286D01*
X172146Y135212D01*
X172686Y135320D01*
X173114Y135606D01*
X175198D01*
X175487Y135663D01*
X175796Y135602D01*
X176337Y135709D01*
X176795Y136015D01*
X176847Y136093D01*
X178223D01*
X178503Y135906D01*
D02*
G37*
G36*
X189639Y137058D02*
X189946Y136599D01*
X190404Y136293D01*
X190757Y136223D01*
X190945Y136185D01*
X191126Y135712D01*
X191118Y135670D01*
X191225Y135130D01*
X191532Y134671D01*
X191990Y134365D01*
X192531Y134257D01*
X192570Y134265D01*
X192816Y133805D01*
X192679Y133667D01*
X192524Y133435D01*
X192470Y133162D01*
Y131895D01*
X190428Y129854D01*
X189672D01*
X189399Y129799D01*
X189167Y129645D01*
X186897Y127375D01*
X186841Y127292D01*
X186370Y127232D01*
X186263Y127257D01*
X186244Y127285D01*
X185786Y127591D01*
X185245Y127699D01*
X184704Y127591D01*
X184510Y127461D01*
X184075Y127704D01*
X184019Y128176D01*
X187906Y132063D01*
X188061Y132295D01*
X188115Y132568D01*
Y134677D01*
X188901Y135464D01*
X189056Y135695D01*
X189111Y135968D01*
Y137154D01*
X189611Y137203D01*
X189639Y137058D01*
D02*
G37*
G36*
X222631Y175869D02*
X222723Y175831D01*
X223017Y175392D01*
X223475Y175086D01*
X224016Y174979D01*
X224556Y175086D01*
X224770Y175229D01*
X225270Y174961D01*
Y142715D01*
X225324Y142442D01*
X225479Y142210D01*
X227250Y140439D01*
Y134131D01*
X226878Y133839D01*
Y131890D01*
Y129941D01*
X227250Y129649D01*
Y123147D01*
X226750Y122909D01*
X226594Y122940D01*
Y121117D01*
Y119294D01*
X226750Y119325D01*
X227250Y119087D01*
Y118391D01*
X226451Y117593D01*
X226297Y117361D01*
X226242Y117087D01*
Y113249D01*
X225742Y112982D01*
X225541Y113116D01*
X225000Y113224D01*
X224459Y113116D01*
X224001Y112810D01*
X223994Y112800D01*
X223358Y112692D01*
X223155Y112852D01*
Y134440D01*
X223440Y134631D01*
X223746Y135089D01*
X223854Y135630D01*
X223746Y136171D01*
X223459Y136601D01*
X223394Y136742D01*
Y137077D01*
X223459Y137218D01*
X223746Y137648D01*
X223853Y138189D01*
X223746Y138729D01*
X223440Y139188D01*
X222981Y139494D01*
X222441Y139602D01*
X222068Y139527D01*
X221568Y139828D01*
Y175319D01*
X222212Y175963D01*
X222631Y175869D01*
D02*
G37*
G36*
X233672Y146767D02*
Y120854D01*
X233210Y120663D01*
X232320Y121553D01*
Y125831D01*
X232605Y126259D01*
X232713Y126800D01*
X232605Y127341D01*
X232320Y127769D01*
Y146310D01*
X232431Y146332D01*
X232889Y146639D01*
X233172Y147062D01*
X233208Y147067D01*
X233672Y146767D01*
D02*
G37*
G36*
X226242Y110373D02*
Y83134D01*
X225742Y83029D01*
X225507Y83381D01*
X225049Y83687D01*
X224508Y83795D01*
X224060Y83706D01*
X223560Y83971D01*
Y89709D01*
X224542Y90692D01*
X224697Y90923D01*
X224751Y91196D01*
Y95111D01*
X224785Y95161D01*
X224839Y95434D01*
Y100420D01*
X224785Y100693D01*
X224630Y100925D01*
X224223Y101331D01*
Y110108D01*
X224723Y110453D01*
X225000Y110398D01*
X225541Y110506D01*
X225742Y110640D01*
X226242Y110373D01*
D02*
G37*
G36*
X220502Y120788D02*
X220875Y120496D01*
Y111768D01*
X220875Y111768D01*
X220927Y111505D01*
X221076Y111281D01*
X221946Y110411D01*
Y103416D01*
X221446Y103115D01*
X221074Y103190D01*
X220533Y103082D01*
X220075Y102776D01*
X219982Y102637D01*
X219409Y102540D01*
X219129Y102769D01*
Y120496D01*
X219502Y120788D01*
Y122736D01*
X220502D01*
Y120788D01*
D02*
G37*
G36*
X190117Y119374D02*
Y105444D01*
X189946Y105330D01*
X189639Y104871D01*
X189532Y104331D01*
X189639Y103790D01*
X189946Y103332D01*
X190264Y103119D01*
X190383Y102760D01*
X190397Y102675D01*
X190393Y102518D01*
X190286Y102356D01*
X190231Y102083D01*
Y101584D01*
X189946Y101393D01*
X189639Y100934D01*
X189532Y100394D01*
X189639Y99853D01*
X189946Y99395D01*
X190404Y99088D01*
X190945Y98981D01*
X191190Y99029D01*
X191654Y98678D01*
X191444Y98511D01*
Y96457D01*
X190944D01*
Y95957D01*
X189121D01*
X189127Y95925D01*
X189001Y95654D01*
X188868Y95475D01*
X188780Y95402D01*
X188503Y95347D01*
X188173Y95126D01*
X186971Y93925D01*
X186635Y93858D01*
X186135Y94159D01*
Y98938D01*
X186280Y99155D01*
X186335Y99428D01*
Y102648D01*
X186671Y102985D01*
X187008Y102918D01*
X187549Y103025D01*
X188007Y103332D01*
X188313Y103790D01*
X188421Y104331D01*
X188313Y104871D01*
X188007Y105330D01*
X187722Y105520D01*
Y113126D01*
X189385Y114789D01*
X189540Y115021D01*
X189594Y115294D01*
Y119626D01*
X189617Y119641D01*
X190117Y119374D01*
D02*
G37*
G36*
X189921Y128090D02*
X190173Y127925D01*
Y122679D01*
X188376Y120881D01*
X188221Y120650D01*
X188167Y120377D01*
Y115589D01*
X186503Y113926D01*
X186348Y113694D01*
X186294Y113421D01*
Y105520D01*
X186009Y105330D01*
X185703Y104871D01*
X185595Y104331D01*
X185662Y103994D01*
X185116Y103448D01*
X184962Y103217D01*
X184907Y102944D01*
Y100828D01*
X184407Y100779D01*
X184376Y100934D01*
X184070Y101393D01*
X183612Y101699D01*
X183071Y101807D01*
X182734Y101740D01*
X180230Y104244D01*
Y114809D01*
X180730Y115106D01*
X181111Y115030D01*
X181652Y115137D01*
X181857Y115274D01*
X182357Y115007D01*
Y105520D01*
X182072Y105330D01*
X181765Y104871D01*
X181658Y104331D01*
X181765Y103790D01*
X182072Y103332D01*
X182530Y103025D01*
X183071Y102918D01*
X183612Y103025D01*
X184070Y103332D01*
X184376Y103790D01*
X184484Y104331D01*
X184376Y104871D01*
X184070Y105330D01*
X183785Y105520D01*
Y119399D01*
X187906Y123520D01*
X188061Y123752D01*
X188115Y124025D01*
Y126575D01*
X189686Y128146D01*
X189921Y128090D01*
D02*
G37*
G36*
X238210Y92665D02*
X238446Y92712D01*
X239070Y93129D01*
X239363Y93568D01*
X239863Y93416D01*
Y80606D01*
X239363Y80356D01*
X238940Y80639D01*
X238704Y80686D01*
Y78863D01*
Y77039D01*
X238940Y77086D01*
X239363Y77369D01*
X239863Y77120D01*
Y51621D01*
X238981Y50739D01*
X238415Y50880D01*
X238204Y51196D01*
X237919Y51386D01*
Y75431D01*
X237865Y75705D01*
X237710Y75937D01*
X236025Y77622D01*
X236059Y77778D01*
X236594Y77877D01*
X236844Y77503D01*
X237468Y77086D01*
X237704Y77039D01*
Y78863D01*
Y80686D01*
X237468Y80639D01*
X236844Y80222D01*
X236427Y79599D01*
X236420Y79562D01*
X235920Y79611D01*
Y92872D01*
X236139Y93002D01*
X236420Y93082D01*
X236974Y92712D01*
X237210Y92665D01*
Y94488D01*
X238210D01*
Y92665D01*
D02*
G37*
G36*
X223324Y92887D02*
Y91492D01*
X222341Y90509D01*
X222187Y90278D01*
X222132Y90005D01*
Y78827D01*
X221949Y78677D01*
X221408Y78569D01*
X220950Y78263D01*
X220643Y77804D01*
X220149Y77882D01*
Y80625D01*
X220149Y80625D01*
X220097Y80888D01*
X219948Y81111D01*
X219947Y81111D01*
X219512Y81547D01*
Y91810D01*
X219611Y91848D01*
X220012Y91894D01*
X220261Y91521D01*
X220720Y91215D01*
X221260Y91107D01*
X221801Y91215D01*
X222259Y91521D01*
X222566Y91979D01*
X222673Y92520D01*
X222591Y92931D01*
X222862Y93141D01*
X223324Y92887D01*
D02*
G37*
G36*
X210699Y125829D02*
X210704Y125825D01*
Y122646D01*
X210418Y122456D01*
X210112Y121997D01*
X210004Y121457D01*
X210112Y120916D01*
X210418Y120458D01*
X210877Y120151D01*
X211417Y120044D01*
X211958Y120151D01*
X212369Y120426D01*
X212592Y120371D01*
X212869Y120235D01*
Y115755D01*
X210126Y113012D01*
X209971Y112780D01*
X209917Y112507D01*
Y96300D01*
X209971Y96027D01*
X210126Y95795D01*
X211393Y94529D01*
Y88015D01*
X210397Y87019D01*
X210129Y87093D01*
X209914Y87243D01*
Y92330D01*
X209859Y92603D01*
X209705Y92834D01*
X209189Y93350D01*
Y113080D01*
X209135Y113353D01*
X208980Y113584D01*
X208883Y113681D01*
Y121546D01*
X209168Y121737D01*
X209475Y122195D01*
X209582Y122736D01*
X209475Y123277D01*
X209168Y123735D01*
X208853Y123946D01*
X208711Y124512D01*
X210204Y126005D01*
X210699Y125829D01*
D02*
G37*
G36*
X241374Y50590D02*
X241424Y50552D01*
Y27535D01*
X239956Y26068D01*
X239717Y26104D01*
X239338Y26533D01*
X239338Y26533D01*
Y49149D01*
X240924Y50735D01*
X241374Y50590D01*
D02*
G37*
%LPC*%
G36*
X210648Y141692D02*
Y140369D01*
X211971D01*
X211925Y140605D01*
X211508Y141229D01*
X210884Y141645D01*
X210648Y141692D01*
D02*
G37*
G36*
X211971Y139369D02*
X210648D01*
Y138046D01*
X210884Y138093D01*
X211508Y138509D01*
X211925Y139133D01*
X211971Y139369D01*
D02*
G37*
G36*
X180224Y154678D02*
Y153354D01*
X181548D01*
X181501Y153590D01*
X181084Y154214D01*
X180460Y154631D01*
X180224Y154678D01*
D02*
G37*
G36*
X179224D02*
X178989Y154631D01*
X178365Y154214D01*
X177948Y153590D01*
X177901Y153354D01*
X179224D01*
Y154678D01*
D02*
G37*
G36*
X181548Y152354D02*
X180224D01*
Y151031D01*
X180460Y151078D01*
X181084Y151495D01*
X181501Y152119D01*
X181548Y152354D01*
D02*
G37*
G36*
X179224D02*
X177901D01*
X177948Y152119D01*
X178365Y151495D01*
X178989Y151078D01*
X179224Y151031D01*
Y152354D01*
D02*
G37*
G36*
X225878Y133713D02*
X225642Y133666D01*
X225018Y133249D01*
X224602Y132626D01*
X224555Y132390D01*
X225878D01*
Y133713D01*
D02*
G37*
G36*
Y131390D02*
X224555D01*
X224602Y131154D01*
X225018Y130530D01*
X225642Y130113D01*
X225878Y130067D01*
Y131390D01*
D02*
G37*
G36*
X225594Y122940D02*
X225358Y122894D01*
X224734Y122477D01*
X224317Y121853D01*
X224270Y121617D01*
X225594D01*
Y122940D01*
D02*
G37*
G36*
Y120617D02*
X224270D01*
X224317Y120381D01*
X224734Y119757D01*
X225358Y119341D01*
X225594Y119294D01*
Y120617D01*
D02*
G37*
G36*
X190444Y98281D02*
X190208Y98234D01*
X189585Y97817D01*
X189168Y97193D01*
X189121Y96957D01*
X190444D01*
Y98281D01*
D02*
G37*
%LPD*%
D13*
X231890Y147638D02*
Y176772D01*
D15*
X231300Y121131D02*
X233185Y119246D01*
Y112119D02*
Y119246D01*
X231398Y110331D02*
X233185Y112119D01*
X231300Y121131D02*
Y126800D01*
Y147048D02*
X231890Y147638D01*
X231300Y126800D02*
Y147048D01*
X196699Y71262D02*
Y90703D01*
X195866Y70429D02*
X196699Y71262D01*
X194882Y92520D02*
X196699Y90703D01*
X193731Y101909D02*
Y117733D01*
X195202Y119205D02*
Y124208D01*
X193731Y117733D02*
X195202Y119205D01*
X178946Y137113D02*
X179044Y137211D01*
X175796Y137015D02*
X175894Y137113D01*
X172146Y136625D02*
X175198D01*
X202325Y165800D02*
X204691Y168166D01*
X198342Y165800D02*
X202325D01*
X195866Y62008D02*
Y70429D01*
X187007Y92519D02*
X187008Y92520D01*
X205900Y63400D02*
X209183D01*
X203848Y61348D02*
X205900Y63400D01*
X192997Y95842D02*
Y101174D01*
X127870Y59768D02*
Y63772D01*
X125075Y66567D02*
X127870Y63772D01*
X125075Y66567D02*
Y79710D01*
X131234Y56375D02*
Y65742D01*
X129727Y67249D02*
X131234Y65742D01*
X125075Y79710D02*
X126050Y80685D01*
X126961Y70766D02*
X129727Y68000D01*
Y67249D02*
Y68000D01*
X130114Y55255D02*
X131234Y56375D01*
X127270Y58960D02*
Y59168D01*
X185900Y159240D02*
Y159449D01*
X185206Y158546D02*
X185900Y159240D01*
X185206Y138394D02*
Y158546D01*
Y138394D02*
X186811Y136790D01*
Y136625D02*
Y136790D01*
X175894Y137113D02*
X178946D01*
X204691Y168166D02*
Y171423D01*
X206791Y173524D01*
X99405Y149897D02*
X104059Y145243D01*
X46400Y143456D02*
X51711Y148767D01*
X82732D01*
X83861Y149897D01*
X99405D01*
X127270Y59168D02*
X127870Y59768D01*
X115354Y148031D02*
X117449Y145937D01*
X106508Y148031D02*
X115354D01*
X105327Y146850D02*
X106508Y148031D01*
X105118Y146850D02*
X105327D01*
X117449Y145937D02*
X117951D01*
X119898Y143990D01*
X206791Y173524D02*
Y177901D01*
X131010Y87622D02*
Y96794D01*
X130099Y86711D02*
X131010Y87622D01*
X126050Y83038D02*
X126083Y83071D01*
X126050Y80685D02*
Y83038D01*
X126083Y83071D02*
X126092D01*
X106957Y101969D02*
X113976D01*
X104642Y104284D02*
X106957Y101969D01*
X104642Y104284D02*
Y126546D01*
X104020Y127168D02*
X104642Y126546D01*
X104020Y127168D02*
Y142487D01*
X104059Y142526D01*
Y145243D01*
X57087Y109941D02*
Y122150D01*
Y101772D02*
Y109941D01*
Y83957D02*
Y101772D01*
X56501Y122736D02*
X57087Y122150D01*
X49114Y122736D02*
X56501D01*
X46400Y125450D02*
X49114Y122736D01*
X46400Y125450D02*
Y143456D01*
X187008Y92520D02*
X188893Y94406D01*
X197149Y124794D02*
X199155Y126800D01*
X195788Y124794D02*
X197149D01*
X195202Y124208D02*
X195788Y124794D01*
X192997Y101174D02*
X193731Y101909D01*
X191560Y94406D02*
X192997Y95842D01*
X188893Y94406D02*
X191560D01*
X187008Y92520D02*
X190945D01*
X190945Y92520D01*
X209183Y63400D02*
X211047Y65264D01*
X214539D01*
X136614Y33241D02*
Y46063D01*
X132063Y50614D02*
X136614Y46063D01*
X131219Y50614D02*
X132063D01*
X130114Y51719D02*
X131219Y50614D01*
X130114Y51719D02*
Y55255D01*
X126961Y70766D02*
Y78347D01*
X130099Y81485D01*
Y86711D01*
X123524Y130423D02*
X130232Y123714D01*
X128599Y85578D02*
Y103830D01*
X130232Y105463D01*
Y123714D01*
X126092Y83071D02*
X128599Y85578D01*
X93685Y59509D02*
X96457Y56737D01*
X94799Y74305D02*
Y103746D01*
X93685Y73191D02*
X94799Y74305D01*
X93685Y59509D02*
Y73191D01*
X94799Y103746D02*
X97342Y106290D01*
Y139551D02*
X101000Y143209D01*
X97342Y106290D02*
Y139551D01*
X96457Y44094D02*
Y56737D01*
X119898Y143339D02*
Y143990D01*
Y143339D02*
X123524Y139713D01*
Y130423D02*
Y139713D01*
D16*
X116622Y95477D02*
X119691D01*
X116036Y96063D02*
X116622Y95477D01*
X116036Y96063D02*
Y99908D01*
X113976Y101969D02*
X116036Y99908D01*
D76*
X244881Y197835D02*
Y199999D01*
X244171Y197124D02*
X244881Y197835D01*
Y180709D02*
Y191929D01*
X244171Y192640D02*
X244881Y191929D01*
X244171Y192640D02*
Y197124D01*
X246442Y191506D02*
X249490Y194554D01*
X246442Y180062D02*
Y191506D01*
X249490Y194554D02*
Y202246D01*
X251181Y203937D01*
X246850Y211811D02*
X247939Y210723D01*
Y210333D02*
Y210723D01*
Y210333D02*
X249213Y209059D01*
Y204331D02*
Y209059D01*
X244881Y199999D02*
X249213Y204331D01*
X244881Y180709D02*
X244881Y180709D01*
X244881Y180709D02*
X244881Y180708D01*
X243321Y39750D02*
X244094Y38976D01*
X243321Y200801D02*
X247638Y205118D01*
X234252Y204724D02*
X242112Y196864D01*
X239272Y24409D02*
X242112Y27250D01*
Y196864D01*
X243321Y39750D02*
Y200801D01*
X245669Y179289D02*
X246442Y180062D01*
X245669Y176378D02*
Y179289D01*
X250787Y208330D02*
Y211024D01*
Y208330D02*
X251181Y207936D01*
Y203937D02*
Y207936D01*
X232283Y184646D02*
X240551Y176378D01*
Y51336D02*
Y176378D01*
X238650Y49434D02*
X240551Y51336D01*
X238650Y26533D02*
Y49434D01*
X234164Y22047D02*
X238650Y26533D01*
X248031Y189764D02*
X250787Y192520D01*
Y200394D01*
X258268Y207874D01*
Y210630D01*
X223744Y176664D02*
X224016Y176392D01*
X222659Y176664D02*
X223744D01*
X222551Y176772D02*
X222659Y176664D01*
X222047Y176772D02*
X222551D01*
X220880Y175604D02*
X222047Y176772D01*
X220880Y124066D02*
Y175604D01*
Y124066D02*
X221563Y123383D01*
Y111768D02*
Y123383D01*
Y111768D02*
X222635Y110696D01*
Y101130D02*
Y110696D01*
X220978Y99474D02*
X222635Y101130D01*
X220978Y97680D02*
Y99474D01*
Y97680D02*
X222452Y96207D01*
Y94690D02*
Y96207D01*
X220128Y97822D02*
Y100514D01*
X220030Y126927D02*
Y191388D01*
X211417Y200000D02*
X220030Y191388D01*
X218441Y125338D02*
X220030Y126927D01*
X218441Y102202D02*
X220128Y100514D01*
X218824Y96517D02*
X220128Y97822D01*
X218824Y81262D02*
X219461Y80625D01*
X218824Y81262D02*
Y96517D01*
X217730Y63639D02*
X219461Y65369D01*
Y80625D01*
X247638Y205118D02*
Y205315D01*
X244094Y21654D02*
Y38976D01*
X213779Y201181D02*
X227559D01*
X212205Y203150D02*
X213779Y204724D01*
X211353Y200000D02*
X211417D01*
X210630Y197160D02*
Y197161D01*
X213779Y204724D02*
X234252D01*
X227559Y201181D02*
X232283Y196457D01*
Y184646D02*
Y196457D01*
X255906Y197978D02*
X258268Y200340D01*
X255906Y137897D02*
Y197978D01*
X248031Y130023D02*
X255906Y137897D01*
X248031Y33369D02*
Y130023D01*
X246063Y31400D02*
X248031Y33369D01*
X218441Y102202D02*
Y125338D01*
X217730Y49131D02*
Y63639D01*
Y49131D02*
X219291Y47570D01*
Y32677D02*
Y47570D01*
X260630Y130571D02*
Y204724D01*
X250394Y120334D02*
X260630Y130571D01*
X228979Y181890D02*
X234360Y176509D01*
X227559Y182677D02*
X227764Y182472D01*
Y181890D02*
Y182472D01*
Y181890D02*
X228979D01*
X234360Y111632D02*
Y176509D01*
X234164Y111436D02*
X234360Y111632D01*
X234164Y109448D02*
Y111436D01*
X231398Y106682D02*
X234164Y109448D01*
X231398Y41732D02*
Y106682D01*
X215860Y180113D02*
X216402D01*
X215748Y180000D02*
X215860Y180113D01*
X215748Y150489D02*
Y180000D01*
X208587Y143328D02*
X215748Y150489D01*
X208587Y137618D02*
Y143328D01*
Y137618D02*
X209842Y136362D01*
Y126617D02*
Y136362D01*
X206609Y123383D02*
X209842Y126617D01*
X206609Y104702D02*
Y123383D01*
X204724Y102818D02*
X206609Y104702D01*
X204724Y83957D02*
Y102818D01*
X203424Y82656D02*
X204724Y83957D01*
X202496Y82656D02*
X203424D01*
X201195Y81355D02*
X202496Y82656D01*
X201195Y71285D02*
Y81355D01*
X198808Y68898D02*
X201195Y71285D01*
X211811Y151181D02*
Y195980D01*
X210630Y197160D02*
X211811Y195980D01*
X174662Y149466D02*
X174803Y149606D01*
X174662Y145461D02*
Y149466D01*
X170585Y141384D02*
X174662Y145461D01*
X170585Y113141D02*
Y141384D01*
Y113141D02*
X171260Y112466D01*
Y103698D02*
Y112466D01*
Y103698D02*
X173682Y101276D01*
Y84935D02*
Y101276D01*
X173622Y84874D02*
X173682Y84935D01*
X181111Y20079D02*
X181496D01*
X180366Y20824D02*
X181111Y20079D01*
X180169Y20824D02*
X180366D01*
X179921Y21071D02*
X180169Y20824D01*
X179921Y21071D02*
Y26587D01*
X178839Y27669D02*
X179921Y26587D01*
X183155Y23931D02*
Y26392D01*
X181548Y27999D02*
X183155Y26392D01*
Y23931D02*
X184646Y22441D01*
X183109Y29528D02*
Y64978D01*
X188189Y24409D02*
Y24447D01*
X183109Y29528D02*
X188189Y24447D01*
X184669Y33744D02*
Y79148D01*
Y33744D02*
X191732Y26681D01*
X187131Y37402D02*
Y80832D01*
X195788Y28740D02*
Y28745D01*
X187131Y37402D02*
X195788Y28745D01*
X194582Y42520D02*
Y59212D01*
X196157Y40945D02*
X196457D01*
X194582Y42520D02*
X196157Y40945D01*
X247939Y189671D02*
X248031Y189764D01*
X247939Y178439D02*
Y189671D01*
X247846Y178347D02*
X247939Y178439D01*
X206791Y178445D02*
Y180315D01*
X206693Y178347D02*
X206791Y178445D01*
X192531Y64691D02*
Y64940D01*
X193403Y60391D02*
Y63818D01*
Y60391D02*
X194582Y59212D01*
X192531Y64691D02*
X193403Y63818D01*
X183090Y80727D02*
X184669Y79148D01*
X181548Y27999D02*
Y69248D01*
X181595Y69295D01*
X178839Y27669D02*
Y65436D01*
D77*
X222441Y112127D02*
X223510Y111059D01*
X222441Y112127D02*
Y135630D01*
X215737Y98437D02*
Y114578D01*
X219253Y98507D02*
Y100152D01*
X223510Y101036D02*
Y111059D01*
X217030Y102375D02*
X219253Y100152D01*
X215168Y115147D02*
X215737Y114578D01*
X215000Y97700D02*
X215737Y98437D01*
X223510Y101036D02*
X224125Y100420D01*
X217566Y96820D02*
X219253Y98507D01*
X217030Y102375D02*
Y134052D01*
X217566Y95295D02*
Y96820D01*
X216929Y134153D02*
X217030Y134052D01*
X217300Y95029D02*
X217566Y95295D01*
X222846Y78161D02*
Y90005D01*
X221949Y77264D02*
X222846Y78161D01*
Y90005D02*
X224038Y91196D01*
X228865Y117722D02*
Y132115D01*
X229222Y132471D02*
Y152723D01*
X228543Y117400D02*
X228865Y117722D01*
X228543Y98327D02*
Y117400D01*
X228865Y132115D02*
X229222Y132471D01*
X228937Y153008D02*
X229222Y152723D01*
X202756Y70121D02*
Y80709D01*
X201222Y68588D02*
X202756Y70121D01*
X201222Y64284D02*
Y68588D01*
Y64284D02*
X201694Y63812D01*
X198808Y63966D02*
X198819Y63976D01*
X201694Y63312D02*
Y63812D01*
X198808Y53155D02*
Y63966D01*
X204647Y103978D02*
Y120058D01*
X199202Y115453D02*
X200414Y114240D01*
X194931Y100442D02*
Y116855D01*
X191731Y113212D02*
X192502Y112440D01*
Y108069D02*
Y112440D01*
X196402Y118326D02*
Y121005D01*
X194931Y116855D02*
X196402Y118326D01*
X191731Y120643D02*
X193378Y122290D01*
X191731Y113212D02*
Y120643D01*
X192223Y122408D02*
Y124881D01*
X190831Y121016D02*
X192223Y122408D01*
X190831Y104445D02*
Y121016D01*
X190887Y122383D02*
Y128030D01*
X188881Y120377D02*
X190887Y122383D01*
X202756Y102087D02*
X204647Y103978D01*
X202756Y92521D02*
Y102087D01*
X203150Y121555D02*
X204647Y120058D01*
X203694Y157019D02*
X207831D01*
X209842Y159031D01*
X199103Y151172D02*
X199958Y150317D01*
Y132616D02*
Y150317D01*
X198203Y150799D02*
X199058Y149944D01*
Y137764D02*
Y149944D01*
X196949Y150781D02*
X198158Y149571D01*
Y138137D02*
Y149571D01*
X194980Y151476D02*
X197258Y149198D01*
Y139975D02*
Y149198D01*
X192223Y124881D02*
X199958Y132616D01*
X199103Y151172D02*
Y156778D01*
X194980Y151476D02*
Y195177D01*
X196949Y150781D02*
Y160335D01*
X198203Y150799D02*
Y159149D01*
X187486Y158792D02*
Y167740D01*
X186406Y157712D02*
X187486Y158792D01*
X186406Y138936D02*
Y157712D01*
Y138936D02*
X187131Y138211D01*
X187468D02*
X188397Y137282D01*
X187131Y138211D02*
X187468D01*
X186983Y168243D02*
X187486Y167740D01*
X185800Y164352D02*
Y166562D01*
X183652Y162205D02*
X185800Y164352D01*
X186983Y168243D02*
Y177191D01*
X187883Y168616D02*
X189578Y166920D01*
X187883Y168616D02*
Y180725D01*
X189469Y169700D02*
X190665Y168504D01*
Y150112D02*
Y168504D01*
X189578Y138965D02*
Y166920D01*
X169710Y141746D02*
X172058Y144095D01*
X169710Y112779D02*
Y141746D01*
Y112779D02*
X170385Y112103D01*
Y86822D02*
Y112103D01*
X180630Y139021D02*
X181595Y139985D01*
X180630Y130023D02*
Y139021D01*
X180402Y120997D02*
X181102Y120297D01*
Y116452D02*
X181111Y116443D01*
X181595Y139985D02*
Y140157D01*
X181102Y116452D02*
Y120297D01*
X180402Y120997D02*
Y129795D01*
X180630Y130023D01*
X168799Y91831D02*
Y144488D01*
X177457Y123425D02*
X179017Y121865D01*
X175098Y122733D02*
X177067Y120765D01*
Y104823D02*
Y120765D01*
X174705Y102461D02*
X177067Y104823D01*
X199585Y160531D02*
X203937D01*
X210236Y166831D02*
Y175197D01*
X203937Y160531D02*
X210236Y166831D01*
X196358Y163758D02*
Y175492D01*
X199585Y178719D01*
X196358Y163758D02*
X199585Y160531D01*
X192997Y197161D02*
X194980Y195177D01*
X172058Y144095D02*
Y153400D01*
X168799Y144488D02*
X171158Y146847D01*
X167137Y103631D02*
Y161024D01*
X201958Y168099D02*
Y192137D01*
X228937Y153008D02*
Y155512D01*
X217900Y78800D02*
Y84874D01*
X216228Y80992D02*
Y86117D01*
X224125Y95434D02*
Y100420D01*
X177116Y55463D02*
Y66176D01*
X189960Y60039D02*
Y63702D01*
X174705Y68588D02*
X177116Y66176D01*
Y55463D02*
X177199Y55379D01*
X190562Y64304D02*
Y85935D01*
X189960Y63702D02*
X190562Y64304D01*
X188763Y87733D02*
X190562Y85935D01*
X188763Y87733D02*
Y89070D01*
X185422Y91863D02*
X186818Y90466D01*
X187367D01*
X188763Y89070D01*
X185422Y91863D02*
Y99229D01*
X183071Y104331D02*
Y119694D01*
X183090Y92538D02*
X183109Y92519D01*
X183090Y92538D02*
Y96438D01*
X200394Y53445D02*
Y62011D01*
X201694Y63312D01*
X206693Y84646D02*
X209200Y87153D01*
X164507Y100650D02*
Y101001D01*
Y100650D02*
X166732Y98425D01*
X190945Y100394D02*
Y102083D01*
X194883Y100394D02*
X194931Y100442D01*
X179516Y103948D02*
X183071Y100394D01*
X213583Y115460D02*
Y123622D01*
X210630Y112507D02*
X213583Y115460D01*
X210630Y96300D02*
Y112507D01*
X200858Y154184D02*
X203694Y157019D01*
X186221Y182388D02*
X187883Y180725D01*
X186221Y182388D02*
Y190650D01*
X188976Y197244D02*
X192052Y194169D01*
X188976Y197244D02*
Y204155D01*
X188742Y204390D02*
X188976Y204155D01*
X188583Y204390D02*
X188742D01*
X183968Y180206D02*
X186983Y177191D01*
X198041Y188583D02*
X198244D01*
X192052Y169184D02*
Y194169D01*
X191565Y168696D02*
X192052Y169184D01*
X199585Y178719D02*
Y187242D01*
X198244Y188583D02*
X199585Y187242D01*
X131299Y79232D02*
Y86214D01*
X131890Y74508D02*
X134646Y71752D01*
X129348Y56186D02*
Y64961D01*
X128914Y55752D02*
X129348Y56186D01*
X133746Y65007D02*
X133995Y65256D01*
X134646Y66848D02*
Y71752D01*
Y66848D02*
X135581Y65913D01*
Y64599D02*
Y65913D01*
X134646Y63664D02*
X135581Y64599D01*
X138583Y64370D02*
Y83563D01*
X140500Y68398D02*
X140574Y68324D01*
X134646Y63664D02*
X136259Y62051D01*
X167137Y161024D02*
X170680Y164567D01*
X164507Y101001D02*
X167137Y103631D01*
X170680Y164567D02*
X172834D01*
X171158Y155684D02*
X176004Y160530D01*
X171158Y146847D02*
Y155684D01*
X172058Y153400D02*
X180863Y162205D01*
X176004Y160530D02*
X176179D01*
X180863Y162205D02*
X183652D01*
X191565Y154855D02*
Y168696D01*
X191718Y143736D02*
X194379Y141075D01*
X191565Y154855D02*
X191718Y154701D01*
Y143736D02*
Y154701D01*
X187402Y134973D02*
X188397Y135968D01*
X187402Y132568D02*
Y134973D01*
X188397Y135968D02*
Y137282D01*
X182579Y127745D02*
X187402Y132568D01*
X189578Y138965D02*
X190945Y137598D01*
X192997Y197161D02*
Y202279D01*
X190818Y143363D02*
Y149959D01*
X190665Y150112D02*
X190818Y149959D01*
Y143363D02*
X192531Y141651D01*
X196161Y197933D02*
X201958Y192137D01*
X136259Y52756D02*
Y62051D01*
X215168Y115147D02*
Y130599D01*
X192531Y135670D02*
Y141651D01*
X194379Y137035D02*
Y141075D01*
X200858Y131457D02*
Y154184D01*
X201758Y130797D02*
Y152841D01*
X203346Y154429D01*
X200741Y129780D02*
X201758Y130797D01*
X194083Y132790D02*
X199058Y137764D01*
X195965Y138681D02*
X197258Y139975D01*
X193184Y133162D02*
X198158Y138137D01*
X196368Y126967D02*
X200858Y131457D01*
X199103Y156778D02*
X200699Y158374D01*
X198203Y159149D02*
X199585Y160531D01*
X134761Y89677D02*
Y97030D01*
X204538Y126565D02*
Y152271D01*
X217300Y88475D02*
X217600Y88175D01*
Y85174D02*
Y88175D01*
Y85174D02*
X217900Y84874D01*
X224038Y95346D02*
X224125Y95434D01*
X217300Y88475D02*
Y95029D01*
X215000Y87345D02*
X216228Y86117D01*
X215000Y87345D02*
Y97700D01*
X209200Y87153D02*
Y92330D01*
X208476Y93054D02*
X209200Y92330D01*
X210630Y96300D02*
X212106Y94824D01*
Y87719D02*
Y94824D01*
X210630Y86243D02*
X212106Y87719D01*
X210630Y84645D02*
Y86243D01*
X196402Y121005D02*
X200741Y125344D01*
Y129780D01*
X196368Y126679D02*
Y126967D01*
X195997Y126679D02*
X196368D01*
X193378Y124411D02*
X195025Y126058D01*
X195376D01*
X195997Y126679D01*
X193378Y122290D02*
Y124411D01*
X190945Y102083D02*
X192531Y103669D01*
X192502Y108069D02*
X192531Y108040D01*
Y103669D02*
Y108040D01*
X190887Y128030D02*
X194083Y131227D01*
X190724Y129140D02*
X193184Y131600D01*
X189672Y129140D02*
X190724D01*
X187402Y126870D02*
X189672Y129140D01*
X190831Y104445D02*
X190945Y104331D01*
X183071Y96457D02*
X183090Y96438D01*
X185621Y102944D02*
X187008Y104331D01*
X185621Y99428D02*
Y102944D01*
X185422Y99229D02*
X185621Y99428D01*
X198140Y52487D02*
X198808Y53155D01*
X128914Y47250D02*
Y55752D01*
X128000Y46336D02*
X128914Y47250D01*
X128000Y46063D02*
Y46336D01*
X132000Y52500D02*
X133746Y54246D01*
Y65007D01*
X135925Y86221D02*
X138583Y83563D01*
X140574Y49682D02*
Y68324D01*
X131299Y86214D02*
X134761Y89677D01*
X108858Y80435D02*
X109460Y81036D01*
X108858Y70284D02*
Y80435D01*
Y70284D02*
X109454Y69688D01*
X108531Y83279D02*
X109460Y82350D01*
Y81036D02*
Y82350D01*
X108405Y83279D02*
Y91399D01*
Y83279D02*
X108531D01*
X162697Y44587D02*
Y77165D01*
X194083Y131227D02*
Y132790D01*
X193184Y131600D02*
Y133162D01*
X208476Y93054D02*
Y113080D01*
X208169Y113386D02*
X208476Y113080D01*
X200414Y111790D02*
Y114240D01*
Y111790D02*
X202757Y109448D01*
Y104331D02*
Y109448D01*
X187008Y104331D02*
Y113421D01*
X188881Y115294D02*
Y120377D01*
X187008Y113421D02*
X188881Y115294D01*
X168996Y82480D02*
Y85553D01*
X214643Y139292D02*
X214664Y139271D01*
X214643Y139292D02*
Y140296D01*
X214381Y140558D02*
X214643Y140296D01*
X211417Y136024D02*
X214664Y139271D01*
X211417Y121457D02*
Y136024D01*
X194379Y137035D02*
X194596Y136818D01*
X179017Y120967D02*
Y121865D01*
X179516Y103948D02*
Y120469D01*
X179017Y120967D02*
X179516Y120469D01*
X192531Y135670D02*
X192531Y135670D01*
X187402Y124025D02*
Y126870D01*
X183071Y119694D02*
X187402Y124025D01*
X208169Y113386D02*
Y122736D01*
X213189Y132579D02*
X215168Y130599D01*
X198140Y49609D02*
Y52487D01*
X166732Y87816D02*
Y98425D01*
Y87816D02*
X168996Y85553D01*
X170177Y86614D02*
X170385Y86822D01*
X224038Y91196D02*
Y95346D01*
X164764Y105807D02*
Y109646D01*
D78*
X237205Y50197D02*
Y75431D01*
X224803Y182677D02*
X225984Y181496D01*
Y142715D02*
Y181496D01*
Y142715D02*
X227965Y140735D01*
X235206Y77430D02*
Y95892D01*
X238650Y99336D01*
Y175129D01*
X235826Y177952D02*
X238650Y175129D01*
X235206Y77430D02*
X237205Y75431D01*
X227965Y118095D02*
Y140735D01*
X226957Y117087D02*
X227965Y118095D01*
X224803Y182677D02*
Y184252D01*
X226957Y44598D02*
Y117087D01*
Y44598D02*
X227067Y44488D01*
X202808Y63152D02*
Y64940D01*
X201294Y61638D02*
X202808Y63152D01*
X194665Y76742D02*
X194813Y76890D01*
X195458Y45487D02*
Y59575D01*
Y45487D02*
X197244Y43701D01*
X206791Y180315D02*
Y205730D01*
X203543Y47244D02*
Y55817D01*
Y47244D02*
X206534D01*
X194279Y60754D02*
Y68341D01*
X194665Y68727D01*
Y76742D01*
X194279Y60754D02*
X195458Y59575D01*
X201294Y58066D02*
X203543Y55817D01*
X201294Y58066D02*
Y61638D01*
X199213Y208661D02*
X203860D01*
X206791Y205730D01*
D79*
X197549Y114830D02*
Y117230D01*
X197193Y114474D02*
X197549Y114830D01*
X197193Y112418D02*
Y114474D01*
Y112418D02*
X198820Y110791D01*
Y104331D02*
Y110791D01*
X94799Y74305D02*
X95535Y73570D01*
X95820D01*
X97483Y71907D01*
Y70887D02*
Y71907D01*
Y70887D02*
X98654Y69717D01*
D86*
X86811Y124016D02*
D03*
D87*
X205674Y227177D02*
D03*
X116142Y163567D02*
D03*
X111458Y201075D02*
D03*
X184055Y218504D02*
D03*
X212957Y212043D02*
D03*
X247466Y138766D02*
D03*
X236379Y158915D02*
D03*
X217652Y160788D02*
D03*
X336614Y109252D02*
D03*
X341831Y193307D02*
D03*
X330709Y171260D02*
D03*
X315945Y167323D02*
D03*
X98425Y157342D02*
D03*
X156546Y119838D02*
D03*
X262795Y40427D02*
D03*
X273600Y59800D02*
D03*
X257035Y70429D02*
D03*
X255906Y109941D02*
D03*
X258374Y92519D02*
D03*
X237710Y94488D02*
D03*
X238204Y78863D02*
D03*
X234360Y68555D02*
D03*
X222981Y69862D02*
D03*
X166339Y26100D02*
D03*
X269683Y102362D02*
D03*
X245477Y72648D02*
D03*
X238779Y225742D02*
D03*
X242626Y214567D02*
D03*
X243110Y219882D02*
D03*
X256304Y216748D02*
D03*
X233169Y218959D02*
D03*
X224803D02*
D03*
X100394Y211024D02*
D03*
X69784Y182677D02*
D03*
X266653Y31400D02*
D03*
X318701Y37402D02*
D03*
X327756Y80992D02*
D03*
X310777Y104331D02*
D03*
X280433Y117323D02*
D03*
X57087Y233616D02*
D03*
X66925D02*
D03*
X76181D02*
D03*
X86614D02*
D03*
X97146D02*
D03*
X147638D02*
D03*
X137106D02*
D03*
X126673D02*
D03*
X117417D02*
D03*
X107579D02*
D03*
X209590D02*
D03*
X219428D02*
D03*
X228684D02*
D03*
X239118D02*
D03*
X249649D02*
D03*
X199157D02*
D03*
X188625D02*
D03*
X178192D02*
D03*
X168936D02*
D03*
X159098D02*
D03*
X312303D02*
D03*
X322142D02*
D03*
X331398D02*
D03*
X341831D02*
D03*
X301870D02*
D03*
X291339D02*
D03*
X280905D02*
D03*
X271649D02*
D03*
X261811D02*
D03*
X263779Y11175D02*
D03*
X273618D02*
D03*
X282874D02*
D03*
X293307D02*
D03*
X303839D02*
D03*
X343799D02*
D03*
X333366D02*
D03*
X324110D02*
D03*
X314272D02*
D03*
X161066D02*
D03*
X170905D02*
D03*
X180161D02*
D03*
X190594D02*
D03*
X201125D02*
D03*
X251618D02*
D03*
X241086D02*
D03*
X230653D02*
D03*
X221397D02*
D03*
X211559D02*
D03*
X109547D02*
D03*
X119386D02*
D03*
X128642D02*
D03*
X139075D02*
D03*
X149606D02*
D03*
X99114D02*
D03*
X88583D02*
D03*
X78149D02*
D03*
X68893D02*
D03*
X201409Y205512D02*
D03*
X201958Y196555D02*
D03*
X326378Y200340D02*
D03*
X285827Y48425D02*
D03*
X283858Y46063D02*
D03*
X246850Y211811D02*
D03*
X244881Y180708D02*
D03*
X231890Y176772D02*
D03*
X250787Y211024D02*
D03*
X245669Y176378D02*
D03*
X237205Y50197D02*
D03*
X258268Y210630D02*
D03*
X224016Y176392D02*
D03*
X247638Y205315D02*
D03*
X244094Y21654D02*
D03*
X213779Y201181D02*
D03*
X212205Y203150D02*
D03*
X211353Y200000D02*
D03*
X210630Y197161D02*
D03*
X234164Y22047D02*
D03*
X239272Y24409D02*
D03*
X258268Y200340D02*
D03*
X246063Y31400D02*
D03*
X219291Y32677D02*
D03*
X260630Y204724D02*
D03*
X250394Y120334D02*
D03*
X227559Y182677D02*
D03*
X235826Y177952D02*
D03*
X226094Y121117D02*
D03*
X231398Y110331D02*
D03*
Y41732D02*
D03*
X224803Y184252D02*
D03*
X226378Y131890D02*
D03*
X227067Y44488D02*
D03*
X216402Y180113D02*
D03*
X202808Y64940D02*
D03*
X198819Y63976D02*
D03*
X199202Y115453D02*
D03*
X197549Y117230D02*
D03*
X198808Y68898D02*
D03*
X194813Y76890D02*
D03*
X209842Y159031D02*
D03*
X211811Y151181D02*
D03*
X174803Y149606D02*
D03*
X189469Y169700D02*
D03*
X179044Y137211D02*
D03*
X175796Y137015D02*
D03*
X172146Y136625D02*
D03*
X177457Y123425D02*
D03*
X175098Y122733D02*
D03*
X173622Y84874D02*
D03*
X181496Y20079D02*
D03*
X184646Y22441D02*
D03*
X188189Y24409D02*
D03*
X191732Y26681D02*
D03*
X195788Y28740D02*
D03*
X196457Y40945D02*
D03*
X197244Y43701D02*
D03*
X247846Y178347D02*
D03*
X210236Y175197D02*
D03*
X206693Y178347D02*
D03*
X201958Y168099D02*
D03*
X231890Y147638D02*
D03*
X217900Y78800D02*
D03*
X216228Y80992D02*
D03*
X228937Y155512D02*
D03*
X206534Y47244D02*
D03*
X183109Y64978D02*
D03*
X171883Y60200D02*
D03*
X192531Y64940D02*
D03*
X189960Y60039D02*
D03*
X195866Y62008D02*
D03*
X178839Y65436D02*
D03*
X174705Y68588D02*
D03*
X181595Y69295D02*
D03*
X177199Y55379D02*
D03*
X187131Y80832D02*
D03*
X183090Y80727D02*
D03*
X190551Y88189D02*
D03*
X187007Y92519D02*
D03*
X194882Y92520D02*
D03*
X183109Y92519D02*
D03*
X193021Y71161D02*
D03*
X200394Y53445D02*
D03*
X203100Y61200D02*
D03*
X198819Y80708D02*
D03*
X202756Y80709D02*
D03*
X206693Y84646D02*
D03*
X174705Y102461D02*
D03*
X164507Y100650D02*
D03*
X198819Y96457D02*
D03*
X190945Y100394D02*
D03*
X194883D02*
D03*
X183071D02*
D03*
X248031Y189764D02*
D03*
X216929Y134153D02*
D03*
X257874Y161811D02*
D03*
X222441Y135630D02*
D03*
X186221Y190650D02*
D03*
X198041Y188583D02*
D03*
X128347Y201575D02*
D03*
Y204331D02*
D03*
X131299Y79232D02*
D03*
X131890Y74508D02*
D03*
X129348Y64961D02*
D03*
X133995Y65256D02*
D03*
X140500Y68398D02*
D03*
X125984Y61024D02*
D03*
X138583Y64370D02*
D03*
X127270Y58960D02*
D03*
X159449Y140945D02*
D03*
X172834Y164567D02*
D03*
X176179Y160530D02*
D03*
X185800Y166562D02*
D03*
X181595Y140157D02*
D03*
X185900Y159449D02*
D03*
X188583Y204390D02*
D03*
X192997Y202279D02*
D03*
X199213Y208661D02*
D03*
X198342Y165800D02*
D03*
X183968Y180206D02*
D03*
X196161Y197933D02*
D03*
X128347Y198819D02*
D03*
X142520Y190551D02*
D03*
X144783Y192520D02*
D03*
X124016Y147638D02*
D03*
X198140Y49609D02*
D03*
X217441Y142126D02*
D03*
X210148Y139869D02*
D03*
X203346Y154429D02*
D03*
X214381Y140558D02*
D03*
X114173Y135433D02*
D03*
X115354Y148031D02*
D03*
X105905Y140551D02*
D03*
X200699Y158374D02*
D03*
X199585Y160531D02*
D03*
X196949Y160335D02*
D03*
X131010Y96794D02*
D03*
X123228Y94784D02*
D03*
X125984Y85630D02*
D03*
X126083Y83071D02*
D03*
X134761Y97030D02*
D03*
X202609Y84646D02*
D03*
X172121Y92308D02*
D03*
X214364Y70177D02*
D03*
X210630Y69291D02*
D03*
X57087Y109941D02*
D03*
Y122150D02*
D03*
Y101772D02*
D03*
Y83957D02*
D03*
X98654Y69717D02*
D03*
X204538Y152271D02*
D03*
X195965Y138681D02*
D03*
X141672Y39764D02*
D03*
X141831Y45768D02*
D03*
X92682Y147638D02*
D03*
X89567Y96457D02*
D03*
X137795Y25600D02*
D03*
X127942Y34055D02*
D03*
X165354Y72835D02*
D03*
X147638Y72648D02*
D03*
X139764Y125984D02*
D03*
X179724Y152854D02*
D03*
X160156Y146457D02*
D03*
X220002Y122736D02*
D03*
X166400Y59800D02*
D03*
X147600Y86200D02*
D03*
X154488Y58760D02*
D03*
X66300Y31400D02*
D03*
X59055Y11175D02*
D03*
X277953Y132491D02*
D03*
X88583Y230315D02*
D03*
X46200Y153400D02*
D03*
Y112200D02*
D03*
X46400Y82829D02*
D03*
X45600Y48652D02*
D03*
X49610Y35433D02*
D03*
X231300Y126800D02*
D03*
X199155D02*
D03*
X196368Y126679D02*
D03*
X183071Y96457D02*
D03*
X214539Y65264D02*
D03*
X219291Y62992D02*
D03*
X132000Y52500D02*
D03*
X140574Y49682D02*
D03*
X136259Y52756D02*
D03*
X100394Y81693D02*
D03*
X99500Y55655D02*
D03*
X128000Y46063D02*
D03*
X101000Y143209D02*
D03*
X119691Y95477D02*
D03*
X108405Y91399D02*
D03*
X109454Y69688D02*
D03*
X162697Y77165D02*
D03*
Y44587D02*
D03*
X120472Y39764D02*
D03*
X168996Y82480D02*
D03*
X186811Y136625D02*
D03*
X194596Y136818D02*
D03*
X204538Y126565D02*
D03*
X113976Y101969D02*
D03*
X135925Y86221D02*
D03*
X153543Y99606D02*
D03*
X181111Y116443D02*
D03*
X182579Y127745D02*
D03*
X190945Y137598D02*
D03*
X192531Y135670D02*
D03*
X211417Y121457D02*
D03*
X203150Y121555D02*
D03*
X208169Y122736D02*
D03*
X213583Y123622D02*
D03*
X213189Y132579D02*
D03*
X187008Y104331D02*
D03*
X190945D02*
D03*
X170177Y86614D02*
D03*
X164764Y105807D02*
D03*
X168799Y91831D02*
D03*
X221949Y77264D02*
D03*
X222452Y94690D02*
D03*
X228543Y98327D02*
D03*
X164764Y109646D02*
D03*
X117717Y92520D02*
D03*
X108858Y98524D02*
D03*
Y95866D02*
D03*
X210630Y84645D02*
D03*
X153543Y81496D02*
D03*
X190945Y92520D02*
D03*
X103445Y50011D02*
D03*
X126961Y78347D02*
D03*
X105118Y146850D02*
D03*
X136614Y46063D02*
D03*
X136259Y32677D02*
D03*
X102362Y65945D02*
D03*
X101378Y75197D02*
D03*
X101575Y26378D02*
D03*
X114961Y31890D02*
D03*
X96457Y44094D02*
D03*
X101575Y42126D02*
D03*
X121200Y136614D02*
D03*
Y139370D02*
D03*
X120866Y20866D02*
D03*
X213779Y62992D02*
D03*
X102756Y112008D02*
D03*
X202757Y104331D02*
D03*
X202756Y92521D02*
D03*
X190944Y96457D02*
D03*
X111811Y127165D02*
D03*
X159449Y137795D02*
D03*
Y134646D02*
D03*
X52756Y139370D02*
D03*
Y127953D02*
D03*
X50394Y139370D02*
D03*
X64961Y120472D02*
D03*
X61811Y47244D02*
D03*
Y51968D02*
D03*
X64961Y88189D02*
D03*
Y63976D02*
D03*
X198820Y104331D02*
D03*
X183071D02*
D03*
X194882Y96457D02*
D03*
D88*
X160570Y197638D02*
D03*
X164901D02*
D03*
X169232D02*
D03*
X160570Y193307D02*
D03*
X164901D02*
D03*
X169232D02*
D03*
X160570Y188976D02*
D03*
X164901D02*
D03*
X169232D02*
D03*
X160570Y184646D02*
D03*
X164901D02*
D03*
X169232D02*
D03*
X160570Y180315D02*
D03*
X164901D02*
D03*
X169232D02*
D03*
M02*
