G04*
G04 #@! TF.GenerationSoftware,Altium Limited,Altium Designer,19.0.4 (130)*
G04*
G04 Layer_Color=16711935*
%FSLAX25Y25*%
%MOIN*%
G70*
G01*
G75*
%ADD45R,0.03713X0.11784*%
%ADD47R,0.02926X0.02926*%
%ADD48R,0.05918X0.02769*%
%ADD49R,0.02926X0.02926*%
%ADD51R,0.02375X0.02572*%
%ADD54R,0.02572X0.02375*%
G04:AMPARAMS|DCode=66|XSize=19.81mil|YSize=19.81mil|CornerRadius=9.91mil|HoleSize=0mil|Usage=FLASHONLY|Rotation=270.000|XOffset=0mil|YOffset=0mil|HoleType=Round|Shape=RoundedRectangle|*
%AMROUNDEDRECTD66*
21,1,0.01981,0.00000,0,0,270.0*
21,1,0.00000,0.01981,0,0,270.0*
1,1,0.01981,0.00000,0.00000*
1,1,0.01981,0.00000,0.00000*
1,1,0.01981,0.00000,0.00000*
1,1,0.01981,0.00000,0.00000*
%
%ADD66ROUNDEDRECTD66*%
%ADD70C,0.04147*%
%ADD71C,0.06800*%
%ADD72C,0.02769*%
%ADD98R,0.03162X0.03162*%
%ADD99R,0.04343X0.07296*%
%ADD100R,0.09068X0.08871*%
%ADD101R,0.02847X0.02060*%
%ADD102R,0.03202X0.05761*%
%ADD103R,0.02769X0.03950*%
%ADD104R,0.07099X0.14186*%
%ADD105R,0.03969X0.01981*%
%ADD106C,0.02572*%
D45*
X227441Y149468D02*
D03*
Y165492D02*
D03*
X222441Y149468D02*
D03*
Y165492D02*
D03*
X217441Y149468D02*
D03*
Y165492D02*
D03*
X212441Y149468D02*
D03*
Y165492D02*
D03*
X207441Y149468D02*
D03*
Y165492D02*
D03*
D47*
X188583Y95472D02*
D03*
X185433D02*
D03*
X188583Y98622D02*
D03*
X185433D02*
D03*
X103937Y72047D02*
D03*
X107087D02*
D03*
X106890Y52165D02*
D03*
X103740D02*
D03*
X107087Y75197D02*
D03*
X103937D02*
D03*
X103543Y48031D02*
D03*
X106693D02*
D03*
X102756Y80500D02*
D03*
X105905D02*
D03*
X102488Y56328D02*
D03*
X105638D02*
D03*
D48*
X195079Y81791D02*
D03*
Y89468D02*
D03*
D49*
X192913Y96063D02*
D03*
Y92913D02*
D03*
X196850Y96063D02*
D03*
Y92913D02*
D03*
D51*
X103445Y44882D02*
D03*
X106791D02*
D03*
X103839Y68898D02*
D03*
X107185D02*
D03*
X64468Y124016D02*
D03*
X67815D02*
D03*
X64075Y83858D02*
D03*
X67421D02*
D03*
X64075Y101772D02*
D03*
X67421D02*
D03*
X64173Y110236D02*
D03*
X67520D02*
D03*
D54*
X98819Y44390D02*
D03*
Y47736D02*
D03*
X100787Y69587D02*
D03*
Y72933D02*
D03*
D66*
X127893Y48228D02*
D03*
X127953Y72835D02*
D03*
D70*
X144488Y13780D02*
D03*
X149488D02*
D03*
X159488D02*
D03*
X154488D02*
D03*
X169488D02*
D03*
X164488D02*
D03*
X179488D02*
D03*
X174488D02*
D03*
X189488D02*
D03*
X184488D02*
D03*
Y18779D02*
D03*
X189488D02*
D03*
X174488D02*
D03*
X179488D02*
D03*
X164488D02*
D03*
X169488D02*
D03*
X154488D02*
D03*
X159488D02*
D03*
X149488D02*
D03*
X144488D02*
D03*
D71*
X78149Y45276D02*
D03*
Y53150D02*
D03*
X86811Y45276D02*
D03*
Y53150D02*
D03*
X78149Y131890D02*
D03*
Y124016D02*
D03*
X86811Y131890D02*
D03*
Y124016D02*
D03*
Y116142D02*
D03*
Y68898D02*
D03*
X86811Y61024D02*
D03*
X78149Y116142D02*
D03*
Y108268D02*
D03*
Y100394D02*
D03*
Y92520D02*
D03*
Y84646D02*
D03*
Y76772D02*
D03*
Y61024D02*
D03*
Y68898D02*
D03*
X86811Y108268D02*
D03*
X81693Y143110D02*
D03*
Y34055D02*
D03*
X49213Y187008D02*
D03*
X226378D02*
D03*
X49213Y11811D02*
D03*
X226378Y9843D02*
D03*
D72*
X118936Y162205D02*
D03*
Y166535D02*
D03*
Y170866D02*
D03*
X123267Y162205D02*
D03*
Y166535D02*
D03*
Y170866D02*
D03*
X127597Y162205D02*
D03*
Y166535D02*
D03*
Y170866D02*
D03*
X131928Y162205D02*
D03*
Y166535D02*
D03*
Y170866D02*
D03*
X136259Y162205D02*
D03*
Y166535D02*
D03*
Y170866D02*
D03*
D98*
X92027Y49606D02*
D03*
Y54724D02*
D03*
X99311Y52165D02*
D03*
X92815Y109646D02*
D03*
Y114764D02*
D03*
X100099Y112205D02*
D03*
X93799Y61417D02*
D03*
Y66535D02*
D03*
X101083Y63976D02*
D03*
D99*
X97441Y131890D02*
D03*
X108661D02*
D03*
D100*
X54232Y133858D02*
D03*
X65847D02*
D03*
D101*
X67441Y118110D02*
D03*
Y116142D02*
D03*
Y114173D02*
D03*
X62008Y118110D02*
D03*
Y116142D02*
D03*
Y114173D02*
D03*
X67441Y94488D02*
D03*
Y92520D02*
D03*
Y90551D02*
D03*
X62008Y94488D02*
D03*
Y92520D02*
D03*
Y90551D02*
D03*
X67913Y70866D02*
D03*
Y68898D02*
D03*
Y66929D02*
D03*
X62480Y70866D02*
D03*
Y68898D02*
D03*
Y66929D02*
D03*
D102*
X64724Y116142D02*
D03*
Y92520D02*
D03*
X65197Y68898D02*
D03*
D103*
X64016Y52165D02*
D03*
X69449D02*
D03*
X64016Y47244D02*
D03*
X69449D02*
D03*
D104*
X116329Y56299D02*
D03*
X116938Y80906D02*
D03*
D105*
X110611Y63976D02*
D03*
Y61417D02*
D03*
Y58858D02*
D03*
Y56299D02*
D03*
Y53740D02*
D03*
Y51181D02*
D03*
Y48622D02*
D03*
X122047D02*
D03*
Y51181D02*
D03*
Y53740D02*
D03*
Y56299D02*
D03*
Y58858D02*
D03*
Y61417D02*
D03*
Y63976D02*
D03*
X111221Y88583D02*
D03*
Y86024D02*
D03*
Y83465D02*
D03*
Y80906D02*
D03*
Y78347D02*
D03*
Y75788D02*
D03*
Y73229D02*
D03*
X122657D02*
D03*
Y75788D02*
D03*
Y78347D02*
D03*
Y80906D02*
D03*
Y83465D02*
D03*
Y86024D02*
D03*
Y88583D02*
D03*
D106*
X57087Y109941D02*
D03*
Y122150D02*
D03*
Y101772D02*
D03*
Y83957D02*
D03*
X96555Y68602D02*
D03*
X98654Y69717D02*
D03*
X207087Y157185D02*
D03*
X204538Y152271D02*
D03*
X195965Y138681D02*
D03*
X143307Y63540D02*
D03*
X188484Y64567D02*
D03*
X141672Y39764D02*
D03*
X141831Y45768D02*
D03*
X226094Y121117D02*
D03*
X221074Y157835D02*
D03*
X198819Y183071D02*
D03*
X183070Y184153D02*
D03*
X180023Y172517D02*
D03*
X92682Y147638D02*
D03*
X89567Y96457D02*
D03*
X137795Y25600D02*
D03*
X127942Y34055D02*
D03*
X165354Y72835D02*
D03*
X147638Y72648D02*
D03*
X139764Y125984D02*
D03*
X179724Y152854D02*
D03*
X159449Y147766D02*
D03*
X226378Y131890D02*
D03*
X220002Y122736D02*
D03*
X193021Y71161D02*
D03*
X187074Y76772D02*
D03*
X185800Y62485D02*
D03*
X171883Y60200D02*
D03*
X166400Y59800D02*
D03*
X147600Y86200D02*
D03*
X154488Y58760D02*
D03*
X66300Y31400D02*
D03*
X75900Y14100D02*
D03*
X233462Y140157D02*
D03*
X231400Y178300D02*
D03*
X214494Y189700D02*
D03*
X196800Y193500D02*
D03*
X113800Y193061D02*
D03*
X94900Y191000D02*
D03*
X64800Y189900D02*
D03*
X46200Y153400D02*
D03*
Y112200D02*
D03*
X46400Y82829D02*
D03*
X45600Y48652D02*
D03*
Y25600D02*
D03*
X61800Y3400D02*
D03*
X102000Y3600D02*
D03*
X129600D02*
D03*
X160200Y3800D02*
D03*
X186200D02*
D03*
X209600Y4200D02*
D03*
X230229Y19500D02*
D03*
X231956Y39600D02*
D03*
X232333Y58700D02*
D03*
X217900Y78800D02*
D03*
X174705Y180900D02*
D03*
X185900Y186400D02*
D03*
X174705Y186600D02*
D03*
X204500Y186400D02*
D03*
X208900Y128500D02*
D03*
X231300Y126800D02*
D03*
X199155D02*
D03*
X196368Y126679D02*
D03*
X193150Y128051D02*
D03*
X198000Y120100D02*
D03*
X193316Y119986D02*
D03*
X183109Y92519D02*
D03*
X183071Y96457D02*
D03*
X196000Y62485D02*
D03*
X203100Y61200D02*
D03*
X214539Y65264D02*
D03*
X219291Y62992D02*
D03*
X200394Y53445D02*
D03*
X219000Y59768D02*
D03*
X206700Y16300D02*
D03*
X207100Y8000D02*
D03*
X53900Y157600D02*
D03*
X132000Y52500D02*
D03*
X129348Y64961D02*
D03*
X127270Y58960D02*
D03*
X125984Y61024D02*
D03*
X140500Y68398D02*
D03*
X140574Y49682D02*
D03*
X136259Y52756D02*
D03*
X133995Y65256D02*
D03*
X126961Y53543D02*
D03*
X107874Y81693D02*
D03*
X100394D02*
D03*
X92913Y75087D02*
D03*
X90561Y80845D02*
D03*
X99500Y55655D02*
D03*
X107579Y58071D02*
D03*
X112113Y66339D02*
D03*
X116000Y66500D02*
D03*
X136708Y67115D02*
D03*
X206694Y68110D02*
D03*
X128000Y46063D02*
D03*
X208662Y66500D02*
D03*
X101000Y143209D02*
D03*
X119691Y95477D02*
D03*
X108405Y91399D02*
D03*
X109454Y69688D02*
D03*
X131890Y74508D02*
D03*
X162697Y77165D02*
D03*
Y44587D02*
D03*
X120472Y39764D02*
D03*
X166339Y43110D02*
D03*
X121567Y144987D02*
D03*
X131436Y139704D02*
D03*
X127172Y136227D02*
D03*
X126083Y83071D02*
D03*
X101476Y174213D02*
D03*
X131299Y79232D02*
D03*
X134761Y97030D02*
D03*
X175098Y122733D02*
D03*
X206534Y96260D02*
D03*
X130315Y70079D02*
D03*
X231398Y110331D02*
D03*
X231299Y114567D02*
D03*
X230413Y117027D02*
D03*
X227767Y56302D02*
D03*
X230326Y54235D02*
D03*
X213287Y67224D02*
D03*
X226980Y78055D02*
D03*
X198829Y113096D02*
D03*
X187295Y115951D02*
D03*
X180295Y43504D02*
D03*
X169587Y78150D02*
D03*
X168996Y82480D02*
D03*
X223327Y67716D02*
D03*
X212303Y173524D02*
D03*
X206791D02*
D03*
X179044Y137211D02*
D03*
X175796Y137015D02*
D03*
X226378Y141240D02*
D03*
X222833Y138189D02*
D03*
X222441Y135630D02*
D03*
X227076Y138287D02*
D03*
X186811Y136625D02*
D03*
X172146D02*
D03*
X210148Y139869D02*
D03*
X214381Y140558D02*
D03*
X194596Y136818D02*
D03*
X207087Y131299D02*
D03*
X203346Y154429D02*
D03*
X196949Y160335D02*
D03*
X185245Y126286D02*
D03*
X181988Y125295D02*
D03*
X204538Y126565D02*
D03*
X200787Y119882D02*
D03*
X203061Y118214D02*
D03*
X113976Y101969D02*
D03*
X123228Y94784D02*
D03*
X131010Y96794D02*
D03*
X135925Y86221D02*
D03*
X138583Y64370D02*
D03*
X153543Y99606D02*
D03*
X199202Y115453D02*
D03*
X181111Y116443D02*
D03*
X182194Y121561D02*
D03*
X182579Y127745D02*
D03*
X197549Y117230D02*
D03*
X190945Y137598D02*
D03*
X192531Y135670D02*
D03*
X211417Y121457D02*
D03*
X181595Y140157D02*
D03*
X200788Y117323D02*
D03*
X200699Y158374D02*
D03*
X203150Y121555D02*
D03*
X208169Y122736D02*
D03*
X213583Y123622D02*
D03*
X125984Y85630D02*
D03*
X177457Y123425D02*
D03*
X213189Y132579D02*
D03*
X216929Y134153D02*
D03*
X187008Y104331D02*
D03*
X190945D02*
D03*
X201958Y168099D02*
D03*
X170472Y175394D02*
D03*
X189566Y177165D02*
D03*
X132382Y177461D02*
D03*
X136909Y184153D02*
D03*
X136259Y177165D02*
D03*
X196645Y179044D02*
D03*
X133995Y188583D02*
D03*
X181299Y180610D02*
D03*
X202569Y88587D02*
D03*
X141831Y185531D02*
D03*
X186230Y188887D02*
D03*
X216228Y80992D02*
D03*
X171457Y184547D02*
D03*
X170177Y86614D02*
D03*
X165551Y183071D02*
D03*
X164764Y105807D02*
D03*
X168799Y91831D02*
D03*
X182382Y136909D02*
D03*
X186614Y191240D02*
D03*
X121063Y185373D02*
D03*
X123622Y185433D02*
D03*
X126318Y185305D02*
D03*
X189961Y192717D02*
D03*
X212106Y157283D02*
D03*
X225590Y175886D02*
D03*
X199585Y160531D02*
D03*
X203543Y164961D02*
D03*
X225000Y111811D02*
D03*
X193021Y58566D02*
D03*
X189862Y60433D02*
D03*
X200108Y62798D02*
D03*
X184252Y58760D02*
D03*
X186811Y56791D02*
D03*
X177199Y55379D02*
D03*
X177165Y68701D02*
D03*
X221949Y77264D02*
D03*
X222452Y94690D02*
D03*
X220002Y177559D02*
D03*
X228543Y98327D02*
D03*
X176004Y38012D02*
D03*
X206890Y104232D02*
D03*
X206693Y88583D02*
D03*
Y84646D02*
D03*
X172441Y31496D02*
D03*
X173534Y110091D02*
D03*
X164507Y100650D02*
D03*
X134455Y106107D02*
D03*
X198140Y49609D02*
D03*
X218416Y99513D02*
D03*
X220385Y95871D02*
D03*
X221074Y101777D02*
D03*
X224508Y82382D02*
D03*
X225217Y88386D02*
D03*
X221457Y104134D02*
D03*
X222539Y98327D02*
D03*
X164764Y109646D02*
D03*
X164862Y134941D02*
D03*
X138091Y111614D02*
D03*
X118405Y106693D02*
D03*
X157087Y105610D02*
D03*
X95571Y71161D02*
D03*
X145374Y93307D02*
D03*
X117717Y92520D02*
D03*
X108858Y98524D02*
D03*
Y95866D02*
D03*
X92028Y103642D02*
D03*
X110433Y112408D02*
D03*
X174705Y102461D02*
D03*
X210630Y84645D02*
D03*
X169193Y182087D02*
D03*
X118641Y185373D02*
D03*
X116043Y185138D02*
D03*
X113484Y185531D02*
D03*
X128347Y122933D02*
D03*
X128740Y139173D02*
D03*
X125295Y114370D02*
D03*
X133858Y139961D02*
D03*
X125000Y124311D02*
D03*
X118012Y143209D02*
D03*
X153543Y81496D02*
D03*
X198819Y80708D02*
D03*
X190945Y92520D02*
D03*
X187007Y92519D02*
D03*
X103445Y50011D02*
D03*
X221260Y92520D02*
D03*
X190551Y88189D02*
D03*
X157480Y166929D02*
D03*
X162992D02*
D03*
X160236D02*
D03*
X156534Y173228D02*
D03*
X151969Y159449D02*
D03*
X115354Y148031D02*
D03*
X126961Y78347D02*
D03*
X105118Y146850D02*
D03*
X136614Y46063D02*
D03*
X136259Y32677D02*
D03*
X207087Y24409D02*
D03*
X159782Y183071D02*
D03*
X139113Y189075D02*
D03*
X102362Y65945D02*
D03*
X101378Y75197D02*
D03*
X101575Y26378D02*
D03*
X114961Y31890D02*
D03*
X96457Y44094D02*
D03*
X101575Y42126D02*
D03*
X183070Y88582D02*
D03*
X69784Y86221D02*
D03*
X144095Y146457D02*
D03*
X96063Y157480D02*
D03*
X98425Y163386D02*
D03*
X139113Y146200D02*
D03*
X121200Y136614D02*
D03*
Y139370D02*
D03*
X120866Y20866D02*
D03*
X213779Y62992D02*
D03*
X59055Y165748D02*
D03*
X102756Y112008D02*
D03*
X124016Y147638D02*
D03*
X202757Y104331D02*
D03*
X202756Y92521D02*
D03*
X198819Y96457D02*
D03*
X202756Y80709D02*
D03*
X206693D02*
D03*
X190944Y96457D02*
D03*
X187008Y88583D02*
D03*
X212441Y24409D02*
D03*
X111811Y127165D02*
D03*
X105905Y140551D02*
D03*
X114173Y135433D02*
D03*
X159449Y140945D02*
D03*
Y137795D02*
D03*
Y134646D02*
D03*
X154331Y159449D02*
D03*
X153937Y173228D02*
D03*
X52756Y139370D02*
D03*
Y127953D02*
D03*
X50394Y139370D02*
D03*
X64961Y120472D02*
D03*
X61811Y47244D02*
D03*
Y51968D02*
D03*
X64961Y88189D02*
D03*
Y63976D02*
D03*
X207441Y142126D02*
D03*
X217441D02*
D03*
X198820Y104331D02*
D03*
X194883Y100394D02*
D03*
X190945D02*
D03*
X183071Y104331D02*
D03*
X183071Y100394D02*
D03*
X194882Y96457D02*
D03*
Y92520D02*
D03*
M02*
